<?xml version="1.0" standalone="no"?>
 <!DOCTYPE svg PUBLIC "-//W3C//DTD SVG 1.1//EN" 
 "http://www.w3.org/Graphics/SVG/1.1/DTD/svg11.dtd"> 
<svg xmlns="http://www.w3.org/2000/svg" version="1.1" 
    width="9.26338cm" height="6.4516cm" viewBox="0 0 36470 25400 ">
<title>SVG Picture created as power-brd.svg date 2018/10/10 15:13:49 </title>
  <desc>Picture generated by PCBNEW </desc>
<g style="fill:#000000; fill-opacity:1;stroke:#000000; stroke-opacity:1;
stroke-linecap:round; stroke-linejoin:round; "
 transform="translate(0 0) scale(1 1)">
</g>
<g style="fill:#000000; fill-opacity:0.0; 
stroke:#000000; stroke-width:-0.000393701; stroke-opacity:1; 
stroke-linecap:round; stroke-linejoin:round;">
</g>
<g style="fill:#000000; fill-opacity:1.0; 
stroke:#000000; stroke-width:0; stroke-opacity:1; 
stroke-linecap:round; stroke-linejoin:round;">
<circle cx="6029.53" cy="3061.02" r="393.701" /> 
</g>
<g style="fill:#000000; fill-opacity:1.0; 
stroke:#000000; stroke-width:39.3701; stroke-opacity:1; 
stroke-linecap:round; stroke-linejoin:round;">
</g>
<g style="fill:#000000; fill-opacity:1.0; 
stroke:#000000; stroke-width:0; stroke-opacity:1; 
stroke-linecap:round; stroke-linejoin:round;">
<polyline style="fill-rule:evenodd;"
points="6423,5423
5635,5423
5635,4635
6423,4635
6423,5423
" /> 
<polyline style="fill-rule:evenodd;"
points="9885,17173
9885,16385
10673,16385
10673,17173
9885,17173
" /> 
<circle cx="12248" cy="16779.5" r="393.701" /> 
</g>
<g style="fill:#000000; fill-opacity:1.0; 
stroke:#000000; stroke-width:39.3701; stroke-opacity:1; 
stroke-linecap:round; stroke-linejoin:round;">
</g>
<g style="fill:#000000; fill-opacity:1.0; 
stroke:#000000; stroke-width:1259.84; stroke-opacity:1; 
stroke-linecap:round; stroke-linejoin:round;">
</g>
<g style="fill:#000000; fill-opacity:0.0; 
stroke:#000000; stroke-width:1259.84; stroke-opacity:1; 
stroke-linecap:round; stroke-linejoin:round;">
<path d="M10779 5529
L10779 5529
" />
</g>
<g style="fill:#000000; fill-opacity:0.0; 
stroke:#000000; stroke-width:0; stroke-opacity:1; 
stroke-linecap:round; stroke-linejoin:round;">
</g>
<g style="fill:#000000; fill-opacity:1.0; 
stroke:#000000; stroke-width:0; stroke-opacity:1; 
stroke-linecap:round; stroke-linejoin:round;">
<polyline style="fill-rule:evenodd;"
points="11409,12159
10149,12159
10149,10899
11409,10899
11409,12159
" /> 
</g>
<g style="fill:#000000; fill-opacity:1.0; 
stroke:#000000; stroke-width:531.496; stroke-opacity:1; 
stroke-linecap:round; stroke-linejoin:round;">
</g>
<g style="fill:#000000; fill-opacity:0.0; 
stroke:#000000; stroke-width:531.496; stroke-opacity:1; 
stroke-linecap:round; stroke-linejoin:round;">
<path d="M16618 13706
L16440 13706
" />
<path d="M16618 13037
L16440 13037
" />
<path d="M16618 12368
L16440 12368
" />
<path d="M16618 11698
L16440 11698
" />
</g>
<g style="fill:#000000; fill-opacity:0.0; 
stroke:#000000; stroke-width:0; stroke-opacity:1; 
stroke-linecap:round; stroke-linejoin:round;">
</g>
<g style="fill:#000000; fill-opacity:1.0; 
stroke:#000000; stroke-width:0; stroke-opacity:1; 
stroke-linecap:round; stroke-linejoin:round;">
<polyline style="fill-rule:evenodd;"
points="16175,10763
16883,10763
16883,11295
16175,11295
16175,10763
" /> 
<circle cx="4029.53" cy="6529.53" r="472.441" /> 
</g>
<g style="fill:#000000; fill-opacity:1.0; 
stroke:#000000; stroke-width:39.3701; stroke-opacity:1; 
stroke-linecap:round; stroke-linejoin:round;">
</g>
<g style="fill:#000000; fill-opacity:1.0; 
stroke:#000000; stroke-width:0; stroke-opacity:1; 
stroke-linecap:round; stroke-linejoin:round;">
<circle cx="13279.5" cy="2779.53" r="472.441" /> 
</g>
<g style="fill:#000000; fill-opacity:1.0; 
stroke:#000000; stroke-width:39.3701; stroke-opacity:1; 
stroke-linecap:round; stroke-linejoin:round;">
</g>
<g style="fill:#000000; fill-opacity:1.0; 
stroke:#000000; stroke-width:0; stroke-opacity:1; 
stroke-linecap:round; stroke-linejoin:round;">
<circle cx="7029.53" cy="18029.5" r="472.441" /> 
</g>
<g style="fill:#000000; fill-opacity:1.0; 
stroke:#000000; stroke-width:39.3701; stroke-opacity:1; 
stroke-linecap:round; stroke-linejoin:round;">
</g>
<g style="fill:#000000; fill-opacity:1.0; 
stroke:#000000; stroke-width:0; stroke-opacity:1; 
stroke-linecap:round; stroke-linejoin:round;">
<circle cx="23029.5" cy="17779.5" r="472.441" /> 
</g>
<g style="fill:#000000; fill-opacity:1.0; 
stroke:#000000; stroke-width:39.3701; stroke-opacity:1; 
stroke-linecap:round; stroke-linejoin:round;">
</g>
<g style="fill:#FFFFFF; fill-opacity:1.0; 
stroke:#FFFFFF; stroke-width:39.3701; stroke-opacity:1; 
stroke-linecap:round; stroke-linejoin:round;">
</g>
<g style="fill:#FFFFFF; fill-opacity:1.0; 
stroke:#FFFFFF; stroke-width:0; stroke-opacity:1; 
stroke-linecap:round; stroke-linejoin:round;">
<circle cx="6029.53" cy="3061.02" r="196.85" /> 
</g>
<g style="fill:#FFFFFF; fill-opacity:1.0; 
stroke:#FFFFFF; stroke-width:39.3701; stroke-opacity:1; 
stroke-linecap:round; stroke-linejoin:round;">
</g>
<g style="fill:#FFFFFF; fill-opacity:1.0; 
stroke:#FFFFFF; stroke-width:0; stroke-opacity:1; 
stroke-linecap:round; stroke-linejoin:round;">
<circle cx="6029.53" cy="5029.53" r="196.85" /> 
</g>
<g style="fill:#FFFFFF; fill-opacity:1.0; 
stroke:#FFFFFF; stroke-width:39.3701; stroke-opacity:1; 
stroke-linecap:round; stroke-linejoin:round;">
</g>
<g style="fill:#FFFFFF; fill-opacity:1.0; 
stroke:#FFFFFF; stroke-width:0; stroke-opacity:1; 
stroke-linecap:round; stroke-linejoin:round;">
<circle cx="10279.5" cy="16779.5" r="196.85" /> 
</g>
<g style="fill:#FFFFFF; fill-opacity:1.0; 
stroke:#FFFFFF; stroke-width:39.3701; stroke-opacity:1; 
stroke-linecap:round; stroke-linejoin:round;">
</g>
<g style="fill:#FFFFFF; fill-opacity:1.0; 
stroke:#FFFFFF; stroke-width:0; stroke-opacity:1; 
stroke-linecap:round; stroke-linejoin:round;">
<circle cx="12248" cy="16779.5" r="196.85" /> 
</g>
<g style="fill:#FFFFFF; fill-opacity:1.0; 
stroke:#FFFFFF; stroke-width:39.3701; stroke-opacity:1; 
stroke-linecap:round; stroke-linejoin:round;">
</g>
<g style="fill:#FFFFFF; fill-opacity:1.0; 
stroke:#FFFFFF; stroke-width:0; stroke-opacity:1; 
stroke-linecap:round; stroke-linejoin:round;">
<circle cx="10779.5" cy="5529.53" r="314.961" /> 
</g>
<g style="fill:#FFFFFF; fill-opacity:1.0; 
stroke:#FFFFFF; stroke-width:39.3701; stroke-opacity:1; 
stroke-linecap:round; stroke-linejoin:round;">
</g>
<g style="fill:#FFFFFF; fill-opacity:1.0; 
stroke:#FFFFFF; stroke-width:0; stroke-opacity:1; 
stroke-linecap:round; stroke-linejoin:round;">
<circle cx="10779.5" cy="11529.5" r="314.961" /> 
</g>
<g style="fill:#FFFFFF; fill-opacity:1.0; 
stroke:#FFFFFF; stroke-width:39.3701; stroke-opacity:1; 
stroke-linecap:round; stroke-linejoin:round;">
</g>
<g style="fill:#FFFFFF; fill-opacity:1.0; 
stroke:#FFFFFF; stroke-width:0; stroke-opacity:1; 
stroke-linecap:round; stroke-linejoin:round;">
<circle cx="16529.5" cy="13706.7" r="196.85" /> 
</g>
<g style="fill:#FFFFFF; fill-opacity:1.0; 
stroke:#FFFFFF; stroke-width:39.3701; stroke-opacity:1; 
stroke-linecap:round; stroke-linejoin:round;">
</g>
<g style="fill:#FFFFFF; fill-opacity:1.0; 
stroke:#FFFFFF; stroke-width:0; stroke-opacity:1; 
stroke-linecap:round; stroke-linejoin:round;">
<circle cx="16529.5" cy="13037.4" r="196.85" /> 
</g>
<g style="fill:#FFFFFF; fill-opacity:1.0; 
stroke:#FFFFFF; stroke-width:39.3701; stroke-opacity:1; 
stroke-linecap:round; stroke-linejoin:round;">
</g>
<g style="fill:#FFFFFF; fill-opacity:1.0; 
stroke:#FFFFFF; stroke-width:0; stroke-opacity:1; 
stroke-linecap:round; stroke-linejoin:round;">
<circle cx="16529.5" cy="12368.1" r="196.85" /> 
</g>
<g style="fill:#FFFFFF; fill-opacity:1.0; 
stroke:#FFFFFF; stroke-width:39.3701; stroke-opacity:1; 
stroke-linecap:round; stroke-linejoin:round;">
</g>
<g style="fill:#FFFFFF; fill-opacity:1.0; 
stroke:#FFFFFF; stroke-width:0; stroke-opacity:1; 
stroke-linecap:round; stroke-linejoin:round;">
<circle cx="16529.5" cy="11698.8" r="196.85" /> 
</g>
<g style="fill:#FFFFFF; fill-opacity:1.0; 
stroke:#FFFFFF; stroke-width:39.3701; stroke-opacity:1; 
stroke-linecap:round; stroke-linejoin:round;">
</g>
<g style="fill:#FFFFFF; fill-opacity:1.0; 
stroke:#FFFFFF; stroke-width:0; stroke-opacity:1; 
stroke-linecap:round; stroke-linejoin:round;">
<circle cx="16529.5" cy="11029.5" r="196.85" /> 
</g>
<g style="fill:#FFFFFF; fill-opacity:1.0; 
stroke:#FFFFFF; stroke-width:39.3701; stroke-opacity:1; 
stroke-linecap:round; stroke-linejoin:round;">
</g>
<g style="fill:#FFFFFF; fill-opacity:1.0; 
stroke:#FFFFFF; stroke-width:0; stroke-opacity:1; 
stroke-linecap:round; stroke-linejoin:round;">
<circle cx="23088.6" cy="12368.1" r="688.976" /> 
</g>
<g style="fill:#FFFFFF; fill-opacity:1.0; 
stroke:#FFFFFF; stroke-width:39.3701; stroke-opacity:1; 
stroke-linecap:round; stroke-linejoin:round;">
</g>
<g style="fill:#FFFFFF; fill-opacity:1.0; 
stroke:#FFFFFF; stroke-width:0; stroke-opacity:1; 
stroke-linecap:round; stroke-linejoin:round;">
<circle cx="4029.53" cy="6529.53" r="236.22" /> 
</g>
<g style="fill:#FFFFFF; fill-opacity:1.0; 
stroke:#FFFFFF; stroke-width:39.3701; stroke-opacity:1; 
stroke-linecap:round; stroke-linejoin:round;">
</g>
<g style="fill:#FFFFFF; fill-opacity:1.0; 
stroke:#FFFFFF; stroke-width:0; stroke-opacity:1; 
stroke-linecap:round; stroke-linejoin:round;">
<circle cx="13279.5" cy="2779.53" r="236.22" /> 
</g>
<g style="fill:#FFFFFF; fill-opacity:1.0; 
stroke:#FFFFFF; stroke-width:39.3701; stroke-opacity:1; 
stroke-linecap:round; stroke-linejoin:round;">
</g>
<g style="fill:#FFFFFF; fill-opacity:1.0; 
stroke:#FFFFFF; stroke-width:0; stroke-opacity:1; 
stroke-linecap:round; stroke-linejoin:round;">
<circle cx="7029.53" cy="18029.5" r="236.22" /> 
</g>
<g style="fill:#FFFFFF; fill-opacity:1.0; 
stroke:#FFFFFF; stroke-width:39.3701; stroke-opacity:1; 
stroke-linecap:round; stroke-linejoin:round;">
</g>
<g style="fill:#FFFFFF; fill-opacity:1.0; 
stroke:#FFFFFF; stroke-width:0; stroke-opacity:1; 
stroke-linecap:round; stroke-linejoin:round;">
<circle cx="23029.5" cy="17779.5" r="236.22" /> 
</g>
<g style="fill:#FFFFFF; fill-opacity:1.0; 
stroke:#FFFFFF; stroke-width:39.3701; stroke-opacity:1; 
stroke-linecap:round; stroke-linejoin:round;">
</g>
<g style="fill:#000000; fill-opacity:1.0; 
stroke:#000000; stroke-width:39.3701; stroke-opacity:1; 
stroke-linecap:round; stroke-linejoin:round;">
</g>
<g style="fill:#000000; fill-opacity:1.0; 
stroke:#000000; stroke-width:0; stroke-opacity:1; 
stroke-linecap:round; stroke-linejoin:round;">
<polyline style="fill-rule:evenodd;"
points="5120,10787
3938,10787
3938,9212
5120,9212
5120,10787
" /> 
<polyline style="fill-rule:evenodd;"
points="5120,17346
3938,17346
3938,15771
5120,15771
5120,17346
" /> 
<circle cx="6029.53" cy="3061.02" r="393.701" /> 
</g>
<g style="fill:#000000; fill-opacity:1.0; 
stroke:#000000; stroke-width:39.3701; stroke-opacity:1; 
stroke-linecap:round; stroke-linejoin:round;">
</g>
<g style="fill:#000000; fill-opacity:1.0; 
stroke:#000000; stroke-width:0; stroke-opacity:1; 
stroke-linecap:round; stroke-linejoin:round;">
<polyline style="fill-rule:evenodd;"
points="6423,5423
5635,5423
5635,4635
6423,4635
6423,5423
" /> 
<polyline style="fill-rule:evenodd;"
points="9885,17173
9885,16385
10673,16385
10673,17173
9885,17173
" /> 
<circle cx="12248" cy="16779.5" r="393.701" /> 
</g>
<g style="fill:#000000; fill-opacity:1.0; 
stroke:#000000; stroke-width:39.3701; stroke-opacity:1; 
stroke-linecap:round; stroke-linejoin:round;">
</g>
<g style="fill:#000000; fill-opacity:1.0; 
stroke:#000000; stroke-width:1259.84; stroke-opacity:1; 
stroke-linecap:round; stroke-linejoin:round;">
</g>
<g style="fill:#000000; fill-opacity:0.0; 
stroke:#000000; stroke-width:1259.84; stroke-opacity:1; 
stroke-linecap:round; stroke-linejoin:round;">
<path d="M10779 5529
L10779 5529
" />
</g>
<g style="fill:#000000; fill-opacity:0.0; 
stroke:#000000; stroke-width:0; stroke-opacity:1; 
stroke-linecap:round; stroke-linejoin:round;">
</g>
<g style="fill:#000000; fill-opacity:1.0; 
stroke:#000000; stroke-width:0; stroke-opacity:1; 
stroke-linecap:round; stroke-linejoin:round;">
<polyline style="fill-rule:evenodd;"
points="11409,12159
10149,12159
10149,10899
11409,10899
11409,12159
" /> 
</g>
<g style="fill:#000000; fill-opacity:1.0; 
stroke:#000000; stroke-width:531.496; stroke-opacity:1; 
stroke-linecap:round; stroke-linejoin:round;">
</g>
<g style="fill:#000000; fill-opacity:0.0; 
stroke:#000000; stroke-width:531.496; stroke-opacity:1; 
stroke-linecap:round; stroke-linejoin:round;">
<path d="M16618 13706
L16440 13706
" />
<path d="M16618 13037
L16440 13037
" />
<path d="M16618 12368
L16440 12368
" />
<path d="M16618 11698
L16440 11698
" />
</g>
<g style="fill:#000000; fill-opacity:0.0; 
stroke:#000000; stroke-width:0; stroke-opacity:1; 
stroke-linecap:round; stroke-linejoin:round;">
</g>
<g style="fill:#000000; fill-opacity:1.0; 
stroke:#000000; stroke-width:0; stroke-opacity:1; 
stroke-linecap:round; stroke-linejoin:round;">
<polyline style="fill-rule:evenodd;"
points="16175,10763
16883,10763
16883,11295
16175,11295
16175,10763
" /> 
<circle cx="4029.53" cy="6529.53" r="472.441" /> 
</g>
<g style="fill:#000000; fill-opacity:1.0; 
stroke:#000000; stroke-width:39.3701; stroke-opacity:1; 
stroke-linecap:round; stroke-linejoin:round;">
</g>
<g style="fill:#000000; fill-opacity:1.0; 
stroke:#000000; stroke-width:0; stroke-opacity:1; 
stroke-linecap:round; stroke-linejoin:round;">
<circle cx="13279.5" cy="2779.53" r="472.441" /> 
</g>
<g style="fill:#000000; fill-opacity:1.0; 
stroke:#000000; stroke-width:39.3701; stroke-opacity:1; 
stroke-linecap:round; stroke-linejoin:round;">
</g>
<g style="fill:#000000; fill-opacity:1.0; 
stroke:#000000; stroke-width:0; stroke-opacity:1; 
stroke-linecap:round; stroke-linejoin:round;">
<circle cx="7029.53" cy="18029.5" r="472.441" /> 
</g>
<g style="fill:#000000; fill-opacity:1.0; 
stroke:#000000; stroke-width:39.3701; stroke-opacity:1; 
stroke-linecap:round; stroke-linejoin:round;">
</g>
<g style="fill:#000000; fill-opacity:1.0; 
stroke:#000000; stroke-width:0; stroke-opacity:1; 
stroke-linecap:round; stroke-linejoin:round;">
<circle cx="23029.5" cy="17779.5" r="472.441" /> 
</g>
<g style="fill:#000000; fill-opacity:1.0; 
stroke:#000000; stroke-width:39.3701; stroke-opacity:1; 
stroke-linecap:round; stroke-linejoin:round;">
</g>
<g style="fill:#000000; fill-opacity:1.0; 
stroke:#000000; stroke-width:98.4252; stroke-opacity:1; 
stroke-linecap:round; stroke-linejoin:round;">
</g>
<g style="fill:#000000; fill-opacity:0.0; 
stroke:#000000; stroke-width:98.4252; stroke-opacity:1; 
stroke-linecap:round; stroke-linejoin:round;">
<path d="M7811 3061
L10779 6029
" />
<path d="M6029 3061
L7811 3061
" />
<path d="M12641 16385
L14923 16385
" />
<path d="M12248 16779
L12641 16385
" />
</g>
<g style="fill:#000000; fill-opacity:0.0; 
stroke:#000000; stroke-width:314.961; stroke-opacity:1; 
stroke-linecap:round; stroke-linejoin:round;">
<path d="M16529 14779
L16529 13706
" />
</g>
<g style="fill:#000000; fill-opacity:0.0; 
stroke:#000000; stroke-width:98.4252; stroke-opacity:1; 
stroke-linecap:round; stroke-linejoin:round;">
<path d="M14923 16385
L16529 14779
" />
</g>
<g style="fill:#000000; fill-opacity:0.0; 
stroke:#000000; stroke-width:314.961; stroke-opacity:1; 
stroke-linecap:round; stroke-linejoin:round;">
<path d="M19690 12368
L16529 12368
" />
</g>
<g style="fill:#000000; fill-opacity:0.0; 
stroke:#000000; stroke-width:98.4252; stroke-opacity:1; 
stroke-linecap:round; stroke-linejoin:round;">
<path d="M20029 12029
L19690 12368
" />
<path d="M10779 5529
L20029 5529
" />
<path d="M20029 5529
L20029 12029
" />
</g>
<g style="fill:#000000; fill-opacity:0.0; 
stroke:#000000; stroke-width:393.701; stroke-opacity:1; 
stroke-linecap:round; stroke-linejoin:round;">
<path d="M16529 10429
L16529 11029
" />
</g>
<g style="fill:#000000; fill-opacity:0.0; 
stroke:#000000; stroke-width:98.4252; stroke-opacity:1; 
stroke-linecap:round; stroke-linejoin:round;">
<path d="M6329 7429
L9129 8829
" />
<path d="M6029 5029
L6329 7429
" />
<path d="M9129 8829
L15440 9779
" />
<path d="M15440 9779
L15729 10140
" />
<path d="M15729 10140
L16240 10140
" />
<path d="M16240 10140
L16529 10429
" />
<path d="M10059 16559
L10279 16779
" />
<path d="M4529 16559
L10059 16559
" />
<path d="M10279 16779
L10279 14479
" />
<path d="M10279 14479
L11373 13385
" />
<path d="M16076 13037
L16068 13029
" />
</g>
<g style="fill:#000000; fill-opacity:0.0; 
stroke:#000000; stroke-width:314.961; stroke-opacity:1; 
stroke-linecap:round; stroke-linejoin:round;">
<path d="M15285 13385
L15329 13429
" />
<path d="M11373 13385
L15285 13385
" />
</g>
<g style="fill:#000000; fill-opacity:0.0; 
stroke:#000000; stroke-width:393.701; stroke-opacity:1; 
stroke-linecap:round; stroke-linejoin:round;">
<path d="M15529 13029
L16529 13029
" />
<path d="M15129 13429
L15529 13029
" />
<path d="M14610 11698
L16529 11698
" />
</g>
<g style="fill:#000000; fill-opacity:0.0; 
stroke:#000000; stroke-width:98.4252; stroke-opacity:1; 
stroke-linecap:round; stroke-linejoin:round;">
<path d="M14279 12029
L14610 11698
" />
<path d="M4529 10000
L4529 10196
" />
<path d="M13129 12029
L12929 12029
" />
<path d="M13129 12029
L14279 12029
" />
<path d="M12429 11529
L10779 11529
" />
<path d="M12929 12029
L12429 11529
" />
<path d="M9329 11294
L9329 11429
" />
<path d="M6279 11279
L9329 11294
" />
<path d="M9429 11529
L10779 11529
" />
<path d="M9329 11429
L9429 11529
" />
<path d="M4529 10000
L5700 10000
" />
<path d="M5929 10229
L5929 11279
" />
<path d="M5700 10000
L5929 10229
" />
<path d="M5929 11279
L7779 11279
" />
</g>
<g style="fill:#000000; fill-opacity:1.0; 
stroke:#000000; stroke-width:100; stroke-opacity:1; 
stroke-linecap:round; stroke-linejoin:round;">
<polyline style="fill-rule:evenodd;"
points="24182,1605
24360,1678
24513,1795
24630,1948
24703,2126
24729,2320
24729,18238
24703,18432
24630,18610
24513,18763
24360,18880
24182,18953
23988,18979
12320,18979
12126,18953
11948,18880
11795,18763
11678,18610
11605,18432
11586,18290
22589,18290
22638,18403
22906,18505
23193,18497
23421,18403
23469,18290
23029,17850
22589,18290
11586,18290
11579,18238
11579,17656
22303,17656
22311,17943
22405,18171
22518,18219
22958,17779
23100,17779
23540,18219
23653,18171
23755,17902
23747,17615
23653,17388
23540,17339
23100,17779
22958,17779
22518,17339
22405,17388
22303,17656
11579,17656
11579,17233
11864,17233
11903,17338
12143,17427
12399,17418
12592,17338
12617,17268
22589,17268
23029,17708
23469,17268
23421,17155
23152,17053
22865,17061
22638,17155
22589,17268
12617,17268
12631,17233
12248,16850
11864,17233
11579,17233
11579,16675
11600,16675
11609,16931
11689,17123
11794,17162
12177,16779
12318,16779
12701,17162
12806,17123
12896,16883
12886,16627
12806,16435
12701,16396
12318,16779
12177,16779
11794,16396
11689,16435
11600,16675
11579,16675
11579,16325
11864,16325
12248,16708
12631,16325
12592,16220
12352,16131
12096,16141
11903,16220
11864,16325
11579,16325
11579,15570
11605,15376
11678,15198
11795,15045
11948,14928
12126,14855
12320,14829
16497,14829
16504,14829
16707,14802
16719,14799
16908,14721
16920,14714
17082,14590
17092,14581
17217,14419
17223,14408
17303,14219
17306,14207
17334,14004
17335,13998
17338,13591
17471,13391
17542,13037
17471,12683
17462,12669
17524,12576
17610,12368
21733,12368
21836,12886
22130,13326
22569,13620
22957,13697
23219,13697
23607,13620
24047,13326
24340,12886
24444,12368
24340,11849
24047,11409
23607,11115
23219,11038
22957,11038
22569,11115
22130,11409
21836,11849
21733,12368
17610,12368
17619,12345
17657,12154
17657,11904
17619,11713
17524,11482
17505,11454
17536,11295
17536,10763
17487,10513
17363,10328
17361,10320
17373,8622
17373,8616
17347,8411
17344,8398
17266,8207
17260,8196
17135,8031
17125,8022
16962,7896
16950,7889
16760,7810
16747,7807
16542,7779
16536,7779
9109,7779
8917,7754
8740,7681
8588,7566
8471,7416
8396,7240
8369,7048
8351,5716
9919,5716
10056,6031
10303,6269
10592,6389
10729,6345
10729,5579
10829,5579
10829,6345
10966,6389
11255,6269
11502,6031
11639,5716
11595,5579
10829,5579
10729,5579
9963,5579
9919,5716
8351,5716
8346,5342
9919,5342
9963,5479
10729,5479
10729,4713
10829,4713
10829,5479
11595,5479
11639,5342
11502,5027
11255,4789
10966,4669
10829,4713
10729,4713
10592,4669
10303,4789
10056,5027
9919,5342
8346,5342
8339,4805
8339,4799
8310,4597
8306,4585
8226,4397
8220,4386
8094,4225
8085,4216
7923,4093
7912,4087
7723,4009
7711,4006
7508,3979
7502,3979
3570,3979
3376,3953
3198,3880
3045,3763
2928,3610
2888,3514
5646,3514
5685,3619
5925,3709
6181,3699
6373,3619
6412,3514
6029,3131
5646,3514
2888,3514
2855,3432
2829,3238
2829,2956
5381,2956
5391,3212
5470,3405
5575,3444
5958,3061
6100,3061
6483,3444
6588,3405
6631,3290
12839,3290
12888,3403
13156,3505
13443,3497
13671,3403
13719,3290
13279,2850
12839,3290
6631,3290
6677,3165
6668,2909
6588,2716
6483,2677
6100,3061
5958,3061
5575,2677
5470,2716
5381,2956
2829,2956
2829,2607
5646,2607
6029,2990
6363,2656
12553,2656
12561,2943
12655,3171
12768,3219
13208,2779
13350,2779
13790,3219
13903,3171
14005,2902
13997,2615
13903,2388
13790,2339
13350,2779
13208,2779
12768,2339
12655,2388
12553,2656
6363,2656
6412,2607
6373,2502
6133,2413
5877,2422
5685,2502
5646,2607
2829,2607
2829,2320
2836,2268
12839,2268
13279,2708
13719,2268
13671,2155
13402,2053
13115,2061
12888,2155
12839,2268
2836,2268
2855,2126
2928,1948
3045,1795
3198,1678
3376,1605
3570,1579
23988,1579
24182,1605
" /> 
<polyline style="fill-rule:evenodd;"
points="7416,4355
7596,4431
7750,4552
7866,4708
7938,4890
7960,5088
7898,7621
7899,7628
7921,7836
7925,7848
8001,8043
8007,8054
8132,8222
8141,8231
8306,8360
8317,8366
8509,8447
8522,8451
8729,8479
8736,8479
16163,8479
16390,8514
16592,8615
16754,8772
16861,8971
16904,9197
16946,10519
16933,10513
16642,10513
16579,10576
16579,10792
16479,10792
16479,10576
16417,10513
16125,10513
16033,10551
15963,10622
15925,10714
15925,10861
14527,10861
14389,10888
14210,10888
14131,10877
14098,10863
14070,10840
14050,10811
13939,10493
13859,10336
13737,10162
13618,10033
13454,9898
13304,9806
13109,9721
12940,9674
12729,9645
12642,9638
7713,9638
7623,9625
7585,9606
7518,9543
6271,7940
6206,7868
6033,7704
5874,7594
5660,7490
5476,7432
5241,7396
5144,7388
3566,7388
3483,7394
3279,7421
3118,7464
3034,7498
2928,7360
2855,7182
2836,7040
3589,7040
3638,7153
3906,7255
4193,7247
4421,7153
4469,7040
4029,6600
3589,7040
2836,7040
2829,6988
2829,6406
3303,6406
3311,6693
3405,6921
3518,6969
3958,6529
4100,6529
4540,6969
4653,6921
4755,6652
4747,6365
4653,6138
4540,6089
4100,6529
3958,6529
3518,6089
3405,6138
3303,6406
2829,6406
2829,6018
3589,6018
4029,6458
4469,6018
4421,5905
4152,5803
3865,5811
3638,5905
3589,6018
2829,6018
2829,5142
5385,5142
5385,5472
5423,5564
5494,5635
5586,5673
5917,5673
5979,5610
5979,5079
6079,5079
6079,5610
6142,5673
6472,5673
6564,5635
6635,5564
6673,5472
6673,5142
6610,5079
6079,5079
5979,5079
5448,5079
5385,5142
2829,5142
2829,5070
2855,4876
2928,4698
3014,4586
5385,4586
5385,4917
5448,4979
5979,4979
5979,4448
6079,4448
6079,4979
6610,4979
6673,4917
6673,4586
6635,4494
6564,4423
6472,4385
6142,4385
6079,4448
5979,4448
5917,4385
5586,4385
5494,4423
5423,4494
5385,4586
3014,4586
3045,4545
3198,4428
3376,4355
3570,4329
7219,4329
7416,4355
" /> 
<polyline style="fill-rule:evenodd;"
points="15587,13353
15516,13706
15587,14060
15731,14276
15731,14479
12066,14479
12060,14479
11856,14506
11844,14510
11654,14588
11642,14595
11479,14720
11470,14729
11345,14892
11338,14904
11260,15094
11256,15106
11229,15310
11229,15316
11229,16535
11213,16573
11213,16985
11229,17023
11229,18238
11203,18432
11130,18610
11013,18763
10860,18880
10682,18953
10488,18979
3159,18979
3030,18953
2925,18883
2855,18778
2829,18649
2829,18540
6589,18540
6638,18653
6906,18755
7193,18747
7421,18653
7469,18540
7029,18100
6589,18540
2829,18540
2829,17906
6303,17906
6311,18193
6405,18421
6518,18469
6958,18029
7100,18029
7540,18469
7653,18421
7755,18152
7747,17865
7653,17638
7540,17589
7100,18029
6958,18029
6518,17589
6405,17638
6303,17906
2829,17906
2829,16671
3688,16671
3688,17396
3727,17488
3797,17558
3889,17596
4417,17596
4479,17533
4479,16609
4579,16609
4579,17533
4642,17596
5169,17596
5261,17558
5301,17518
6589,17518
7029,17958
7469,17518
7421,17405
7152,17303
6865,17311
6638,17405
6589,17518
5301,17518
5332,17488
5370,17396
5370,16892
9635,16892
9635,17222
9673,17314
9744,17385
9836,17423
10167,17423
10229,17360
10229,16829
10329,16829
10329,17360
10392,17423
10722,17423
10814,17385
10885,17314
10923,17222
10923,16892
10860,16829
10329,16829
10229,16829
9698,16829
9635,16892
5370,16892
5370,16671
5307,16609
4579,16609
4479,16609
3751,16609
3688,16671
2829,16671
2829,15820
2842,15721
3688,15721
3688,16446
3751,16509
4479,16509
4479,15584
4579,15584
4579,16509
5307,16509
5370,16446
5370,16336
9635,16336
9635,16667
9698,16729
10229,16729
10229,16198
10329,16198
10329,16729
10860,16729
10923,16667
10923,16336
10885,16244
10814,16173
10722,16135
10392,16135
10329,16198
10229,16198
10167,16135
9836,16135
9744,16173
9673,16244
9635,16336
5370,16336
5370,15721
5332,15630
5261,15559
5169,15521
4642,15521
4579,15584
4479,15584
4417,15521
3889,15521
3797,15559
3727,15630
3688,15721
2842,15721
2855,15626
2928,15448
3045,15295
3198,15178
3376,15105
3570,15079
8508,15079
8516,15078
8756,15041
8770,15036
8988,14927
9000,14918
9174,14748
9183,14736
9297,14521
9302,14506
9344,14267
9345,14259
9363,13405
9403,13177
9407,13170
15709,13170
15587,13353
" /> 
<polyline style="fill-rule:evenodd;"
points="5364,8113
5564,8211
5728,8367
7003,10006
7008,10011
7181,10175
7193,10184
7407,10288
7421,10293
7657,10328
7664,10329
12638,10329
12839,10357
13021,10436
13175,10563
13289,10726
13427,11122
13433,11134
13555,11308
13564,11318
13729,11453
13740,11460
13936,11546
13949,11549
14160,11579
14166,11579
15594,11579
15713,11757
15745,11778
15587,12014
15554,12180
15529,12175
15447,12192
15447,12192
15202,12240
14925,12425
14889,12479
3570,12479
3376,12453
3198,12380
3045,12263
2928,12110
2855,11932
2829,11738
2829,11642
9899,11642
9899,12209
9937,12301
10007,12371
10099,12409
10667,12409
10729,12346
10729,11579
10829,11579
10829,12346
10892,12409
11459,12409
11551,12371
11621,12301
11659,12209
11659,11642
11596,11579
10829,11579
10729,11579
9962,11579
9899,11642
2829,11642
2829,10112
3688,10112
3688,10837
3727,10929
3797,10999
3889,11037
4417,11037
4479,10974
4479,10050
4579,10050
4579,10974
4642,11037
5169,11037
5261,10999
5332,10929
5364,10849
9899,10849
9899,11417
9962,11479
10729,11479
10729,10712
10829,10712
10829,11479
11596,11479
11659,11417
11659,10849
11621,10757
11551,10687
11459,10649
10892,10649
10829,10712
10729,10712
10667,10649
10099,10649
10007,10687
9937,10757
9899,10849
5364,10849
5370,10837
5370,10112
5307,10050
4579,10050
4479,10050
3751,10050
3688,10112
2829,10112
2829,9162
3688,9162
3688,9887
3751,9950
4479,9950
4479,9025
4579,9025
4579,9950
5307,9950
5370,9887
5370,9162
5332,9070
5261,9000
5169,8962
4642,8962
4579,9025
4479,9025
4417,8962
3889,8962
3797,9000
3727,9070
3688,9162
2829,9162
2829,8820
2855,8626
2928,8448
3045,8295
3198,8178
3376,8105
3570,8079
5140,8079
5364,8113
" /> 
</g>
<g style="fill:#FFFFFF; fill-opacity:1.0; 
stroke:#FFFFFF; stroke-width:100; stroke-opacity:1; 
stroke-linecap:round; stroke-linejoin:round;">
</g>
<g style="fill:#FFFFFF; fill-opacity:1.0; 
stroke:#FFFFFF; stroke-width:0; stroke-opacity:1; 
stroke-linecap:round; stroke-linejoin:round;">
<circle cx="6029.53" cy="3061.02" r="196.85" /> 
</g>
<g style="fill:#FFFFFF; fill-opacity:1.0; 
stroke:#FFFFFF; stroke-width:39.3701; stroke-opacity:1; 
stroke-linecap:round; stroke-linejoin:round;">
</g>
<g style="fill:#FFFFFF; fill-opacity:1.0; 
stroke:#FFFFFF; stroke-width:0; stroke-opacity:1; 
stroke-linecap:round; stroke-linejoin:round;">
<circle cx="6029.53" cy="5029.53" r="196.85" /> 
</g>
<g style="fill:#FFFFFF; fill-opacity:1.0; 
stroke:#FFFFFF; stroke-width:39.3701; stroke-opacity:1; 
stroke-linecap:round; stroke-linejoin:round;">
</g>
<g style="fill:#FFFFFF; fill-opacity:1.0; 
stroke:#FFFFFF; stroke-width:0; stroke-opacity:1; 
stroke-linecap:round; stroke-linejoin:round;">
<circle cx="10279.5" cy="16779.5" r="196.85" /> 
</g>
<g style="fill:#FFFFFF; fill-opacity:1.0; 
stroke:#FFFFFF; stroke-width:39.3701; stroke-opacity:1; 
stroke-linecap:round; stroke-linejoin:round;">
</g>
<g style="fill:#FFFFFF; fill-opacity:1.0; 
stroke:#FFFFFF; stroke-width:0; stroke-opacity:1; 
stroke-linecap:round; stroke-linejoin:round;">
<circle cx="12248" cy="16779.5" r="196.85" /> 
</g>
<g style="fill:#FFFFFF; fill-opacity:1.0; 
stroke:#FFFFFF; stroke-width:39.3701; stroke-opacity:1; 
stroke-linecap:round; stroke-linejoin:round;">
</g>
<g style="fill:#FFFFFF; fill-opacity:1.0; 
stroke:#FFFFFF; stroke-width:0; stroke-opacity:1; 
stroke-linecap:round; stroke-linejoin:round;">
<circle cx="10779.5" cy="5529.53" r="314.961" /> 
</g>
<g style="fill:#FFFFFF; fill-opacity:1.0; 
stroke:#FFFFFF; stroke-width:39.3701; stroke-opacity:1; 
stroke-linecap:round; stroke-linejoin:round;">
</g>
<g style="fill:#FFFFFF; fill-opacity:1.0; 
stroke:#FFFFFF; stroke-width:0; stroke-opacity:1; 
stroke-linecap:round; stroke-linejoin:round;">
<circle cx="10779.5" cy="11529.5" r="314.961" /> 
</g>
<g style="fill:#FFFFFF; fill-opacity:1.0; 
stroke:#FFFFFF; stroke-width:39.3701; stroke-opacity:1; 
stroke-linecap:round; stroke-linejoin:round;">
</g>
<g style="fill:#FFFFFF; fill-opacity:1.0; 
stroke:#FFFFFF; stroke-width:0; stroke-opacity:1; 
stroke-linecap:round; stroke-linejoin:round;">
<circle cx="16529.5" cy="13706.7" r="196.85" /> 
</g>
<g style="fill:#FFFFFF; fill-opacity:1.0; 
stroke:#FFFFFF; stroke-width:39.3701; stroke-opacity:1; 
stroke-linecap:round; stroke-linejoin:round;">
</g>
<g style="fill:#FFFFFF; fill-opacity:1.0; 
stroke:#FFFFFF; stroke-width:0; stroke-opacity:1; 
stroke-linecap:round; stroke-linejoin:round;">
<circle cx="16529.5" cy="13037.4" r="196.85" /> 
</g>
<g style="fill:#FFFFFF; fill-opacity:1.0; 
stroke:#FFFFFF; stroke-width:39.3701; stroke-opacity:1; 
stroke-linecap:round; stroke-linejoin:round;">
</g>
<g style="fill:#FFFFFF; fill-opacity:1.0; 
stroke:#FFFFFF; stroke-width:0; stroke-opacity:1; 
stroke-linecap:round; stroke-linejoin:round;">
<circle cx="16529.5" cy="12368.1" r="196.85" /> 
</g>
<g style="fill:#FFFFFF; fill-opacity:1.0; 
stroke:#FFFFFF; stroke-width:39.3701; stroke-opacity:1; 
stroke-linecap:round; stroke-linejoin:round;">
</g>
<g style="fill:#FFFFFF; fill-opacity:1.0; 
stroke:#FFFFFF; stroke-width:0; stroke-opacity:1; 
stroke-linecap:round; stroke-linejoin:round;">
<circle cx="16529.5" cy="11698.8" r="196.85" /> 
</g>
<g style="fill:#FFFFFF; fill-opacity:1.0; 
stroke:#FFFFFF; stroke-width:39.3701; stroke-opacity:1; 
stroke-linecap:round; stroke-linejoin:round;">
</g>
<g style="fill:#FFFFFF; fill-opacity:1.0; 
stroke:#FFFFFF; stroke-width:0; stroke-opacity:1; 
stroke-linecap:round; stroke-linejoin:round;">
<circle cx="16529.5" cy="11029.5" r="196.85" /> 
</g>
<g style="fill:#FFFFFF; fill-opacity:1.0; 
stroke:#FFFFFF; stroke-width:39.3701; stroke-opacity:1; 
stroke-linecap:round; stroke-linejoin:round;">
</g>
<g style="fill:#FFFFFF; fill-opacity:1.0; 
stroke:#FFFFFF; stroke-width:0; stroke-opacity:1; 
stroke-linecap:round; stroke-linejoin:round;">
<circle cx="23088.6" cy="12368.1" r="688.976" /> 
</g>
<g style="fill:#FFFFFF; fill-opacity:1.0; 
stroke:#FFFFFF; stroke-width:39.3701; stroke-opacity:1; 
stroke-linecap:round; stroke-linejoin:round;">
</g>
<g style="fill:#FFFFFF; fill-opacity:1.0; 
stroke:#FFFFFF; stroke-width:0; stroke-opacity:1; 
stroke-linecap:round; stroke-linejoin:round;">
<circle cx="4029.53" cy="6529.53" r="236.22" /> 
</g>
<g style="fill:#FFFFFF; fill-opacity:1.0; 
stroke:#FFFFFF; stroke-width:39.3701; stroke-opacity:1; 
stroke-linecap:round; stroke-linejoin:round;">
</g>
<g style="fill:#FFFFFF; fill-opacity:1.0; 
stroke:#FFFFFF; stroke-width:0; stroke-opacity:1; 
stroke-linecap:round; stroke-linejoin:round;">
<circle cx="13279.5" cy="2779.53" r="236.22" /> 
</g>
<g style="fill:#FFFFFF; fill-opacity:1.0; 
stroke:#FFFFFF; stroke-width:39.3701; stroke-opacity:1; 
stroke-linecap:round; stroke-linejoin:round;">
</g>
<g style="fill:#FFFFFF; fill-opacity:1.0; 
stroke:#FFFFFF; stroke-width:0; stroke-opacity:1; 
stroke-linecap:round; stroke-linejoin:round;">
<circle cx="7029.53" cy="18029.5" r="236.22" /> 
</g>
<g style="fill:#FFFFFF; fill-opacity:1.0; 
stroke:#FFFFFF; stroke-width:39.3701; stroke-opacity:1; 
stroke-linecap:round; stroke-linejoin:round;">
</g>
<g style="fill:#FFFFFF; fill-opacity:1.0; 
stroke:#FFFFFF; stroke-width:0; stroke-opacity:1; 
stroke-linecap:round; stroke-linejoin:round;">
<circle cx="23029.5" cy="17779.5" r="236.22" /> 
</g>
<g style="fill:#FFFFFF; fill-opacity:1.0; 
stroke:#FFFFFF; stroke-width:39.3701; stroke-opacity:1; 
stroke-linecap:round; stroke-linejoin:round;">
</g>
<g style="fill:#000000; fill-opacity:1.0; 
stroke:#000000; stroke-width:39.3701; stroke-opacity:1; 
stroke-linecap:round; stroke-linejoin:round;">
</g>
<g style="fill:#000000; fill-opacity:1.0; 
stroke:#000000; stroke-width:59.0551; stroke-opacity:1; 
stroke-linecap:round; stroke-linejoin:round;">
</g>
<g style="fill:#000000; fill-opacity:0.0; 
stroke:#000000; stroke-width:59.0551; stroke-opacity:1; 
stroke-linecap:round; stroke-linejoin:round;">
<path d="M29 20529
L29 13529
" />
<path d="M26029 20529
L29 20529
" />
<path d="M26029 29
L26029 20529
" />
<path d="M29 29
L26029 29
" />
<path d="M29 13529
L29 29
" />
</g> 
</svg>
