<?xml version="1.0" standalone="no"?>
 <!DOCTYPE svg PUBLIC "-//W3C//DTD SVG 1.1//EN" 
 "http://www.w3.org/Graphics/SVG/1.1/DTD/svg11.dtd"> 
<svg xmlns="http://www.w3.org/2000/svg" version="1.1" 
    width="7.19328cm" height="10.1371cm" viewBox="0 0 28320 39910 ">
<title>SVG Picture created as switches-brd.svg date 2019/02/28 15:55:01 </title>
  <desc>Picture generated by PCBNEW </desc>
<g style="fill:#000000; fill-opacity:1;stroke:#000000; stroke-opacity:1;
stroke-linecap:round; stroke-linejoin:round; "
 transform="translate(0 0) scale(1 1)">
</g>
<g style="fill:#000000; fill-opacity:0.0; 
stroke:#000000; stroke-width:-0.000393701; stroke-opacity:1; 
stroke-linecap:round; stroke-linejoin:round;">
</g>
<g style="fill:#000000; fill-opacity:0.0; 
stroke:#000000; stroke-width:669.291; stroke-opacity:1; 
stroke-linecap:round; stroke-linejoin:round;">
<path d="M3300 27564
L3300 27564
" />
<path d="M3300 26564
L3300 26564
" />
<path d="M3300 25564
L3300 25564
" />
<path d="M3300 24564
L3300 24564
" />
<path d="M3300 23564
L3300 23564
" />
<path d="M3300 22564
L3300 22564
" />
<path d="M3300 21564
L3300 21564
" />
<path d="M3300 20564
L3300 20564
" />
<path d="M3300 19564
L3300 19564
" />
<path d="M3300 18564
L3300 18564
" />
<path d="M3300 17564
L3300 17564
" />
</g>
<g style="fill:#000000; fill-opacity:0.0; 
stroke:#000000; stroke-width:0; stroke-opacity:1; 
stroke-linecap:round; stroke-linejoin:round;">
</g>
<g style="fill:#000000; fill-opacity:1.0; 
stroke:#000000; stroke-width:0; stroke-opacity:1; 
stroke-linecap:round; stroke-linejoin:round;">
<polyline style="fill-rule:evenodd;"
points="2965,16898
2965,16229
3634,16229
3634,16898
2965,16898
" /> 
<polyline style="fill-rule:evenodd;"
points="20168,25848
16231,25848
16231,23879
20168,23879
20168,25848
" /> 
<polyline style="fill-rule:evenodd;"
points="20168,20348
16231,20348
16231,18379
20168,18379
20168,20348
" /> 
<polyline style="fill-rule:evenodd;"
points="15068,31548
11131,31548
11131,29579
15068,29579
15068,31548
" /> 
<polyline style="fill-rule:evenodd;"
points="15068,25848
11131,25848
11131,23879
15068,23879
15068,25848
" /> 
<polyline style="fill-rule:evenodd;"
points="15068,20348
11131,20348
11131,18379
15068,18379
15068,20348
" /> 
<polyline style="fill-rule:evenodd;"
points="14968,14648
11031,14648
11031,12679
14968,12679
14968,14648
" /> 
<polyline style="fill-rule:evenodd;"
points="9968,31548
6031,31548
6031,29579
9968,29579
9968,31548
" /> 
<polyline style="fill-rule:evenodd;"
points="9968,25848
6031,25848
6031,23879
9968,23879
9968,25848
" /> 
<polyline style="fill-rule:evenodd;"
points="9968,20348
6031,20348
6031,18379
9968,18379
9968,20348
" /> 
<polyline style="fill-rule:evenodd;"
points="10068,14648
6131,14648
6131,12679
10068,12679
10068,14648
" /> 
<polyline style="fill-rule:evenodd;"
points="20168,8948
16231,8948
16231,6979
20168,6979
20168,8948
" /> 
<circle cx="16500" cy="26564.2" r="255.906" /> 
</g>
<g style="fill:#000000; fill-opacity:1.0; 
stroke:#000000; stroke-width:39.3701; stroke-opacity:1; 
stroke-linecap:round; stroke-linejoin:round;">
</g>
<g style="fill:#000000; fill-opacity:1.0; 
stroke:#000000; stroke-width:0; stroke-opacity:1; 
stroke-linecap:round; stroke-linejoin:round;">
<circle cx="5600" cy="27564.2" r="255.906" /> 
</g>
<g style="fill:#000000; fill-opacity:1.0; 
stroke:#000000; stroke-width:39.3701; stroke-opacity:1; 
stroke-linecap:round; stroke-linejoin:round;">
</g>
<g style="fill:#000000; fill-opacity:1.0; 
stroke:#000000; stroke-width:0; stroke-opacity:1; 
stroke-linecap:round; stroke-linejoin:round;">
<circle cx="13100" cy="30564.2" r="255.906" /> 
</g>
<g style="fill:#000000; fill-opacity:1.0; 
stroke:#000000; stroke-width:39.3701; stroke-opacity:1; 
stroke-linecap:round; stroke-linejoin:round;">
</g>
<g style="fill:#000000; fill-opacity:1.0; 
stroke:#000000; stroke-width:0; stroke-opacity:1; 
stroke-linecap:round; stroke-linejoin:round;">
<circle cx="13100" cy="19364.2" r="255.906" /> 
</g>
<g style="fill:#000000; fill-opacity:1.0; 
stroke:#000000; stroke-width:39.3701; stroke-opacity:1; 
stroke-linecap:round; stroke-linejoin:round;">
</g>
<g style="fill:#000000; fill-opacity:1.0; 
stroke:#000000; stroke-width:0; stroke-opacity:1; 
stroke-linecap:round; stroke-linejoin:round;">
<circle cx="5200" cy="30664.2" r="255.906" /> 
</g>
<g style="fill:#000000; fill-opacity:1.0; 
stroke:#000000; stroke-width:39.3701; stroke-opacity:1; 
stroke-linecap:round; stroke-linejoin:round;">
</g>
<g style="fill:#000000; fill-opacity:1.0; 
stroke:#000000; stroke-width:0; stroke-opacity:1; 
stroke-linecap:round; stroke-linejoin:round;">
<circle cx="5300" cy="19664.2" r="255.906" /> 
</g>
<g style="fill:#000000; fill-opacity:1.0; 
stroke:#000000; stroke-width:39.3701; stroke-opacity:1; 
stroke-linecap:round; stroke-linejoin:round;">
</g>
<g style="fill:#000000; fill-opacity:1.0; 
stroke:#000000; stroke-width:0; stroke-opacity:1; 
stroke-linecap:round; stroke-linejoin:round;">
<circle cx="16500" cy="21064.2" r="255.906" /> 
</g>
<g style="fill:#000000; fill-opacity:1.0; 
stroke:#000000; stroke-width:39.3701; stroke-opacity:1; 
stroke-linecap:round; stroke-linejoin:round;">
</g>
<g style="fill:#000000; fill-opacity:1.0; 
stroke:#000000; stroke-width:0; stroke-opacity:1; 
stroke-linecap:round; stroke-linejoin:round;">
<circle cx="4600" cy="26364.2" r="255.906" /> 
</g>
<g style="fill:#000000; fill-opacity:1.0; 
stroke:#000000; stroke-width:39.3701; stroke-opacity:1; 
stroke-linecap:round; stroke-linejoin:round;">
</g>
<g style="fill:#000000; fill-opacity:1.0; 
stroke:#000000; stroke-width:0; stroke-opacity:1; 
stroke-linecap:round; stroke-linejoin:round;">
<circle cx="13100" cy="24861.4" r="255.906" /> 
</g>
<g style="fill:#000000; fill-opacity:1.0; 
stroke:#000000; stroke-width:39.3701; stroke-opacity:1; 
stroke-linecap:round; stroke-linejoin:round;">
</g>
<g style="fill:#000000; fill-opacity:1.0; 
stroke:#000000; stroke-width:0; stroke-opacity:1; 
stroke-linecap:round; stroke-linejoin:round;">
<circle cx="13000" cy="13650.3" r="255.906" /> 
</g>
<g style="fill:#000000; fill-opacity:1.0; 
stroke:#000000; stroke-width:39.3701; stroke-opacity:1; 
stroke-linecap:round; stroke-linejoin:round;">
</g>
<g style="fill:#000000; fill-opacity:1.0; 
stroke:#000000; stroke-width:0; stroke-opacity:1; 
stroke-linecap:round; stroke-linejoin:round;">
<circle cx="5200" cy="25064.2" r="255.906" /> 
</g>
<g style="fill:#000000; fill-opacity:1.0; 
stroke:#000000; stroke-width:39.3701; stroke-opacity:1; 
stroke-linecap:round; stroke-linejoin:round;">
</g>
<g style="fill:#000000; fill-opacity:1.0; 
stroke:#000000; stroke-width:0; stroke-opacity:1; 
stroke-linecap:round; stroke-linejoin:round;">
<circle cx="5300" cy="13864.2" r="255.906" /> 
</g>
<g style="fill:#000000; fill-opacity:1.0; 
stroke:#000000; stroke-width:39.3701; stroke-opacity:1; 
stroke-linecap:round; stroke-linejoin:round;">
</g>
<g style="fill:#000000; fill-opacity:1.0; 
stroke:#000000; stroke-width:0; stroke-opacity:1; 
stroke-linecap:round; stroke-linejoin:round;">
<circle cx="17200" cy="9764.23" r="255.906" /> 
</g>
<g style="fill:#000000; fill-opacity:1.0; 
stroke:#000000; stroke-width:39.3701; stroke-opacity:1; 
stroke-linecap:round; stroke-linejoin:round;">
</g>
<g style="fill:#000000; fill-opacity:1.0; 
stroke:#000000; stroke-width:0; stroke-opacity:1; 
stroke-linecap:round; stroke-linejoin:round;">
<circle cx="12600" cy="23164.2" r="255.906" /> 
</g>
<g style="fill:#000000; fill-opacity:1.0; 
stroke:#000000; stroke-width:39.3701; stroke-opacity:1; 
stroke-linecap:round; stroke-linejoin:round;">
</g>
<g style="fill:#000000; fill-opacity:1.0; 
stroke:#000000; stroke-width:0; stroke-opacity:1; 
stroke-linecap:round; stroke-linejoin:round;">
<circle cx="12600" cy="11864.2" r="255.906" /> 
</g>
<g style="fill:#000000; fill-opacity:1.0; 
stroke:#000000; stroke-width:39.3701; stroke-opacity:1; 
stroke-linecap:round; stroke-linejoin:round;">
</g>
<g style="fill:#000000; fill-opacity:1.0; 
stroke:#000000; stroke-width:0; stroke-opacity:1; 
stroke-linecap:round; stroke-linejoin:round;">
<circle cx="6400" cy="11364.2" r="255.906" /> 
</g>
<g style="fill:#000000; fill-opacity:1.0; 
stroke:#000000; stroke-width:39.3701; stroke-opacity:1; 
stroke-linecap:round; stroke-linejoin:round;">
</g>
<g style="fill:#000000; fill-opacity:1.0; 
stroke:#000000; stroke-width:0; stroke-opacity:1; 
stroke-linecap:round; stroke-linejoin:round;">
<circle cx="6400" cy="17164.2" r="255.906" /> 
</g>
<g style="fill:#000000; fill-opacity:1.0; 
stroke:#000000; stroke-width:39.3701; stroke-opacity:1; 
stroke-linecap:round; stroke-linejoin:round;">
</g>
<g style="fill:#000000; fill-opacity:1.0; 
stroke:#000000; stroke-width:0; stroke-opacity:1; 
stroke-linecap:round; stroke-linejoin:round;">
<circle cx="6400" cy="22664.2" r="255.906" /> 
</g>
<g style="fill:#000000; fill-opacity:1.0; 
stroke:#000000; stroke-width:39.3701; stroke-opacity:1; 
stroke-linecap:round; stroke-linejoin:round;">
</g>
<g style="fill:#000000; fill-opacity:1.0; 
stroke:#000000; stroke-width:0; stroke-opacity:1; 
stroke-linecap:round; stroke-linejoin:round;">
<circle cx="6400" cy="28464.2" r="255.906" /> 
</g>
<g style="fill:#000000; fill-opacity:1.0; 
stroke:#000000; stroke-width:39.3701; stroke-opacity:1; 
stroke-linecap:round; stroke-linejoin:round;">
</g>
<g style="fill:#000000; fill-opacity:1.0; 
stroke:#000000; stroke-width:0; stroke-opacity:1; 
stroke-linecap:round; stroke-linejoin:round;">
<circle cx="12600" cy="28864.2" r="255.906" /> 
</g>
<g style="fill:#000000; fill-opacity:1.0; 
stroke:#000000; stroke-width:39.3701; stroke-opacity:1; 
stroke-linecap:round; stroke-linejoin:round;">
</g>
<g style="fill:#000000; fill-opacity:1.0; 
stroke:#000000; stroke-width:0; stroke-opacity:1; 
stroke-linecap:round; stroke-linejoin:round;">
<circle cx="16100" cy="22764.2" r="255.906" /> 
</g>
<g style="fill:#000000; fill-opacity:1.0; 
stroke:#000000; stroke-width:39.3701; stroke-opacity:1; 
stroke-linecap:round; stroke-linejoin:round;">
</g>
<g style="fill:#000000; fill-opacity:1.0; 
stroke:#000000; stroke-width:0; stroke-opacity:1; 
stroke-linecap:round; stroke-linejoin:round;">
<circle cx="12600" cy="17664.2" r="255.906" /> 
</g>
<g style="fill:#000000; fill-opacity:1.0; 
stroke:#000000; stroke-width:39.3701; stroke-opacity:1; 
stroke-linecap:round; stroke-linejoin:round;">
</g>
<g style="fill:#000000; fill-opacity:1.0; 
stroke:#000000; stroke-width:0; stroke-opacity:1; 
stroke-linecap:round; stroke-linejoin:round;">
<circle cx="16100" cy="17164.2" r="255.906" /> 
</g>
<g style="fill:#000000; fill-opacity:1.0; 
stroke:#000000; stroke-width:39.3701; stroke-opacity:1; 
stroke-linecap:round; stroke-linejoin:round;">
</g>
<g style="fill:#000000; fill-opacity:1.0; 
stroke:#000000; stroke-width:236.22; stroke-opacity:1; 
stroke-linecap:round; stroke-linejoin:round;">
</g>
<g style="fill:#000000; fill-opacity:0.0; 
stroke:#000000; stroke-width:236.22; stroke-opacity:1; 
stroke-linecap:round; stroke-linejoin:round;">
<path d="M16500 26564
L17900 26564
" />
<path d="M18200 26264
L18200 24864
" />
<path d="M17900 26564
L18200 26264
" />
<path d="M4300 27064
L3800 26564
" />
<path d="M5100 27064
L4300 27064
" />
<path d="M3300 26564
L3800 26564
" />
<path d="M5100 27064
L5600 27564
" />
<path d="M12115 30564
L13100 30564
" />
<path d="M3300 24564
L4400 24564
" />
<path d="M4400 24564
L4600 24764
" />
<path d="M4600 24764
L4600 25464
" />
<path d="M4600 25464
L6200 27064
" />
<path d="M6200 27064
L8615 27064
" />
<path d="M8615 27064
L12115 30564
" />
<path d="M3773 22564
L5273 21064
" />
<path d="M3300 22564
L3773 22564
" />
<path d="M12115 19364
L13100 19364
" />
<path d="M10415 21064
L12115 19364
" />
<path d="M5273 21064
L10415 21064
" />
<path d="M5300 30564
L5200 30664
" />
<path d="M8000 30564
L5300 30564
" />
<path d="M5600 19364
L5300 19664
" />
<path d="M8000 19364
L5600 19364
" />
<path d="M18200 20764
L17900 21064
" />
<path d="M16500 21064
L17900 21064
" />
<path d="M18200 20764
L18200 19364
" />
<path d="M3300 25564
L3800 25564
" />
<path d="M3800 25564
L4600 26364
" />
<path d="M3300 23564
L4100 23564
" />
<path d="M4100 23564
L5700 21964
" />
<path d="M12115 24864
L13100 24864
" />
<path d="M9215 21964
L12115 24864
" />
<path d="M5700 21964
L9215 21964
" />
<path d="M3300 21564
L4200 20664
" />
<path d="M4200 20664
L4200 16464
" />
<path d="M4200 16464
L5300 15364
" />
<path d="M12015 13664
L13000 13664
" />
<path d="M10315 15364
L12015 13664
" />
<path d="M5300 15364
L10315 15364
" />
<path d="M5400 24864
L5200 25064
" />
<path d="M8000 24864
L5400 24864
" />
<path d="M5500 13664
L5300 13864
" />
<path d="M8100 13664
L5500 13664
" />
<path d="M17620 9764
L17200 9764
" />
<path d="M18200 7964
L18200 9184
" />
<path d="M18200 9184
L17620 9764
" />
</g>
<g style="fill:#000000; fill-opacity:1.0; 
stroke:#000000; stroke-width:100; stroke-opacity:1; 
stroke-linecap:round; stroke-linejoin:round;">
<polyline style="fill-rule:evenodd;"
points="20187,4187
20438,4265
20669,4393
20869,4565
21030,4773
21147,5009
21214,5267
21230,5474
21230,37734
21202,38009
21123,38261
20995,38491
20824,38691
20616,38853
20379,38969
20121,39036
19914,39052
3403,39052
3127,39024
2876,38946
2645,38818
2445,38646
2284,38438
2167,38202
2100,37943
2084,37737
2084,35385
10763,35385
10808,35665
10937,35918
11137,36119
11390,36248
11671,36292
11951,36248
12204,36119
12405,35918
12534,35665
12578,35385
12534,35105
12405,34852
12204,34651
11951,34522
11671,34478
11390,34522
11137,34651
10937,34852
10808,35105
10763,35385
2084,35385
2084,30563
4694,30563
4694,30764
4771,30950
4913,31093
5099,31170
5300,31170
5486,31093
5628,30950
5636,30932
5776,30932
5776,31548
5796,31646
5851,31728
5933,31783
6031,31803
9968,31803
10066,31783
10148,31728
10203,31646
10223,31548
10223,29579
10203,29482
10148,29399
10066,29344
9968,29325
6031,29325
5933,29344
5851,29399
5796,29482
5776,29579
5776,30196
5391,30196
5300,30158
5099,30158
4913,30235
4771,30377
4694,30563
2084,30563
2084,27704
2732,27704
2799,27866
2953,28034
3159,28131
3250,28084
3250,27614
3350,27614
3350,28084
3440,28131
3646,28034
3800,27866
3867,27704
3819,27614
3350,27614
3250,27614
2780,27614
2732,27704
2084,27704
2084,17564
2703,17564
2749,17792
2878,17985
2995,18064
2878,18142
2749,18336
2703,18564
2749,18792
2878,18985
2995,19064
2878,19142
2749,19336
2703,19564
2749,19792
2878,19985
2995,20064
2878,20142
2749,20336
2703,20564
2749,20792
2878,20985
2995,21064
2878,21142
2749,21336
2703,21564
2749,21792
2878,21985
2995,22064
2878,22142
2749,22336
2703,22564
2749,22792
2878,22985
2995,23064
2878,23142
2749,23336
2703,23564
2749,23792
2878,23985
2995,24064
2878,24142
2749,24336
2703,24564
2749,24792
2878,24985
2995,25064
2878,25142
2749,25336
2703,25564
2749,25792
2878,25985
2995,26064
2878,26142
2749,26336
2703,26564
2749,26792
2878,26985
3004,27069
2953,27093
2799,27262
2732,27423
2780,27514
3250,27514
3250,27506
3350,27506
3350,27514
3819,27514
3867,27423
3800,27262
3646,27093
3595,27069
3709,26993
4014,27298
4034,27329
4156,27410
4263,27432
4263,27432
4299,27439
4336,27432
4947,27432
5094,27578
5094,27664
5171,27850
5313,27993
5499,28070
5700,28070
5886,27993
6028,27850
6105,27664
6105,27463
6086,27416
6200,27439
6236,27432
8463,27432
10876,29845
10876,31548
10896,31646
10951,31728
11033,31783
11131,31803
15068,31803
15166,31783
15248,31728
15303,31646
15323,31548
15323,29579
15303,29482
15248,29399
15166,29344
15068,29325
11397,29325
8901,26829
8881,26798
8759,26717
8652,26696
8615,26688
8579,26696
6352,26696
5226,25570
5300,25570
5486,25493
5628,25350
5677,25232
5776,25232
5776,25848
5796,25946
5851,26028
5933,26083
6031,26103
9968,26103
10066,26083
10148,26028
10203,25946
10223,25848
10223,23879
10203,23782
10148,23699
10066,23644
9968,23625
6031,23625
5933,23644
5851,23699
5796,23782
5776,23879
5776,24496
5436,24496
5399,24488
5363,24496
5363,24496
5256,24517
5195,24558
5099,24558
4946,24621
4946,24620
4865,24498
4834,24478
4685,24329
4665,24298
4543,24217
4436,24196
4400,24188
4363,24196
3757,24196
3721,24142
3604,24064
3721,23985
3757,23932
4063,23932
4100,23939
4136,23932
4243,23910
4365,23829
4385,23798
5852,22332
9063,22332
10876,24145
10876,25848
10896,25946
10951,26028
11033,26083
11131,26103
15068,26103
15166,26083
15248,26028
15303,25946
15323,25848
15323,23879
15976,23879
15976,25848
15996,25946
16051,26028
16133,26083
16231,26103
16290,26103
16213,26135
16071,26277
15994,26463
15994,26664
16071,26850
16213,26993
16399,27070
16600,27070
16786,26993
16847,26932
17863,26932
17900,26939
17936,26932
18043,26910
18165,26829
18185,26798
18434,26550
18465,26529
18546,26407
18568,26300
18568,26300
18575,26264
18568,26227
18568,26103
20168,26103
20266,26083
20348,26028
20403,25946
20423,25848
20423,23879
20403,23782
20348,23699
20266,23644
20168,23625
16231,23625
16133,23644
16051,23699
15996,23782
15976,23879
15323,23879
15303,23782
15248,23699
15166,23644
15068,23625
11397,23625
9501,21729
9481,21698
9359,21617
9252,21596
9215,21588
9179,21596
5736,21596
5700,21588
5663,21596
5556,21617
5434,21698
5414,21729
3947,23196
3757,23196
3721,23142
3604,23064
3721,22985
3754,22935
3773,22939
3809,22932
3916,22910
4038,22829
4059,22798
5425,21432
10379,21432
10415,21439
10452,21432
10559,21410
10681,21329
10701,21298
11397,20603
15068,20603
15166,20583
15248,20528
15303,20446
15323,20348
15323,18379
15976,18379
15976,20348
15996,20446
16051,20528
16133,20583
16231,20603
16290,20603
16213,20635
16071,20777
15994,20963
15994,21164
16071,21350
16213,21493
16399,21570
16600,21570
16786,21493
16847,21432
17863,21432
17900,21439
17936,21432
18043,21410
18165,21329
18185,21298
18434,21050
18465,21029
18546,20907
18568,20800
18568,20800
18575,20764
18568,20727
18568,20603
20168,20603
20266,20583
20348,20528
20403,20446
20423,20348
20423,18379
20403,18282
20348,18199
20266,18144
20168,18125
16231,18125
16133,18144
16051,18199
15996,18282
15976,18379
15323,18379
15303,18282
15248,18199
15166,18144
15068,18125
11131,18125
11033,18144
10951,18199
10896,18282
10876,18379
10876,20082
10263,20696
5309,20696
5273,20688
5237,20696
5129,20717
5007,20798
4987,20829
3693,22123
3604,22064
3721,21985
3850,21792
3896,21564
3883,21501
4434,20950
4465,20929
4546,20807
4568,20700
4568,20700
4575,20664
4568,20627
4568,19563
4794,19563
4794,19764
4871,19950
5013,20093
5199,20170
5400,20170
5586,20093
5728,19950
5776,19835
5776,20348
5796,20446
5851,20528
5933,20583
6031,20603
9968,20603
10066,20583
10148,20528
10203,20446
10223,20348
10223,18379
10203,18282
10148,18199
10066,18144
9968,18125
6031,18125
5933,18144
5851,18199
5796,18282
5776,18379
5776,18996
5636,18996
5600,18988
5563,18996
5456,19017
5334,19098
5314,19129
5285,19158
5199,19158
5013,19235
4871,19377
4794,19563
4568,19563
4568,16616
5452,15732
10279,15732
10315,15739
10352,15732
10459,15710
10581,15629
10601,15598
11297,14903
14968,14903
15066,14883
15148,14828
15203,14746
15223,14648
15223,12679
15203,12582
15148,12499
15066,12444
14968,12425
11031,12425
10933,12444
10851,12499
10796,12582
10776,12679
10776,14382
10163,14996
5336,14996
5300,14988
5263,14996
5156,15017
5034,15098
5014,15129
3965,16178
3934,16198
3914,16229
3914,16229
3889,16266
3889,16229
3870,16132
3814,16049
3732,15994
3634,15974
2965,15974
2867,15994
2785,16049
2729,16132
2710,16229
2710,16898
2729,16996
2785,17079
2867,17134
2885,17137
2878,17142
2749,17336
2703,17564
2084,17564
2084,13763
4794,13763
4794,13964
4871,14150
5013,14293
5199,14370
5400,14370
5586,14293
5728,14150
5777,14032
5876,14032
5876,14648
5896,14746
5951,14828
6033,14883
6131,14903
10068,14903
10166,14883
10248,14828
10303,14746
10323,14648
10323,12679
10303,12582
10248,12499
10166,12444
10068,12425
6131,12425
6033,12444
5951,12499
5896,12582
5876,12679
5876,13296
5536,13296
5499,13288
5463,13296
5463,13296
5356,13317
5295,13358
5199,13358
5013,13435
4871,13577
4794,13763
2084,13763
2084,7826
10763,7826
10808,8106
10937,8359
11137,8560
11390,8689
11671,8733
11951,8689
12204,8560
12405,8359
12534,8106
12578,7826
12534,7546
12405,7293
12204,7092
11984,6979
15976,6979
15976,8948
15996,9046
16051,9128
16133,9183
16231,9203
17660,9203
17507,9356
17486,9335
17300,9258
17099,9258
16913,9335
16771,9477
16694,9663
16694,9864
16771,10050
16913,10193
17099,10270
17300,10270
17486,10193
17547,10132
17584,10132
17620,10139
17656,10132
17764,10110
17885,10029
17906,9998
18434,9470
18465,9450
18546,9328
18568,9220
18568,9220
18571,9203
20168,9203
20266,9183
20348,9128
20403,9046
20423,8948
20423,6979
20403,6882
20348,6799
20266,6744
20168,6725
16231,6725
16133,6744
16051,6799
15996,6882
15976,6979
11984,6979
11951,6963
11671,6918
11390,6963
11137,7092
10937,7293
10808,7546
10763,7826
2084,7826
2084,5477
2112,5202
2191,4950
2319,4720
2490,4520
2698,4358
2935,4242
3193,4175
3400,4159
19911,4159
20187,4187
" /> 
</g>
<g style="fill:#FFFFFF; fill-opacity:1.0; 
stroke:#FFFFFF; stroke-width:100; stroke-opacity:1; 
stroke-linecap:round; stroke-linejoin:round;">
</g>
<g style="fill:#FFFFFF; fill-opacity:1.0; 
stroke:#FFFFFF; stroke-width:0; stroke-opacity:1; 
stroke-linecap:round; stroke-linejoin:round;">
<circle cx="16500" cy="26564.2" r="118.11" /> 
</g>
<g style="fill:#FFFFFF; fill-opacity:1.0; 
stroke:#FFFFFF; stroke-width:39.3701; stroke-opacity:1; 
stroke-linecap:round; stroke-linejoin:round;">
</g>
<g style="fill:#FFFFFF; fill-opacity:1.0; 
stroke:#FFFFFF; stroke-width:0; stroke-opacity:1; 
stroke-linecap:round; stroke-linejoin:round;">
<circle cx="5600" cy="27564.2" r="118.11" /> 
</g>
<g style="fill:#FFFFFF; fill-opacity:1.0; 
stroke:#FFFFFF; stroke-width:39.3701; stroke-opacity:1; 
stroke-linecap:round; stroke-linejoin:round;">
</g>
<g style="fill:#FFFFFF; fill-opacity:1.0; 
stroke:#FFFFFF; stroke-width:0; stroke-opacity:1; 
stroke-linecap:round; stroke-linejoin:round;">
<circle cx="13100" cy="30564.2" r="118.11" /> 
</g>
<g style="fill:#FFFFFF; fill-opacity:1.0; 
stroke:#FFFFFF; stroke-width:39.3701; stroke-opacity:1; 
stroke-linecap:round; stroke-linejoin:round;">
</g>
<g style="fill:#FFFFFF; fill-opacity:1.0; 
stroke:#FFFFFF; stroke-width:0; stroke-opacity:1; 
stroke-linecap:round; stroke-linejoin:round;">
<circle cx="13100" cy="19364.2" r="118.11" /> 
</g>
<g style="fill:#FFFFFF; fill-opacity:1.0; 
stroke:#FFFFFF; stroke-width:39.3701; stroke-opacity:1; 
stroke-linecap:round; stroke-linejoin:round;">
</g>
<g style="fill:#FFFFFF; fill-opacity:1.0; 
stroke:#FFFFFF; stroke-width:0; stroke-opacity:1; 
stroke-linecap:round; stroke-linejoin:round;">
<circle cx="5200" cy="30664.2" r="118.11" /> 
</g>
<g style="fill:#FFFFFF; fill-opacity:1.0; 
stroke:#FFFFFF; stroke-width:39.3701; stroke-opacity:1; 
stroke-linecap:round; stroke-linejoin:round;">
</g>
<g style="fill:#FFFFFF; fill-opacity:1.0; 
stroke:#FFFFFF; stroke-width:0; stroke-opacity:1; 
stroke-linecap:round; stroke-linejoin:round;">
<circle cx="5300" cy="19664.2" r="118.11" /> 
</g>
<g style="fill:#FFFFFF; fill-opacity:1.0; 
stroke:#FFFFFF; stroke-width:39.3701; stroke-opacity:1; 
stroke-linecap:round; stroke-linejoin:round;">
</g>
<g style="fill:#FFFFFF; fill-opacity:1.0; 
stroke:#FFFFFF; stroke-width:0; stroke-opacity:1; 
stroke-linecap:round; stroke-linejoin:round;">
<circle cx="16500" cy="21064.2" r="118.11" /> 
</g>
<g style="fill:#FFFFFF; fill-opacity:1.0; 
stroke:#FFFFFF; stroke-width:39.3701; stroke-opacity:1; 
stroke-linecap:round; stroke-linejoin:round;">
</g>
<g style="fill:#FFFFFF; fill-opacity:1.0; 
stroke:#FFFFFF; stroke-width:0; stroke-opacity:1; 
stroke-linecap:round; stroke-linejoin:round;">
<circle cx="4600" cy="26364.2" r="118.11" /> 
</g>
<g style="fill:#FFFFFF; fill-opacity:1.0; 
stroke:#FFFFFF; stroke-width:39.3701; stroke-opacity:1; 
stroke-linecap:round; stroke-linejoin:round;">
</g>
<g style="fill:#FFFFFF; fill-opacity:1.0; 
stroke:#FFFFFF; stroke-width:0; stroke-opacity:1; 
stroke-linecap:round; stroke-linejoin:round;">
<circle cx="13100" cy="24861.4" r="118.11" /> 
</g>
<g style="fill:#FFFFFF; fill-opacity:1.0; 
stroke:#FFFFFF; stroke-width:39.3701; stroke-opacity:1; 
stroke-linecap:round; stroke-linejoin:round;">
</g>
<g style="fill:#FFFFFF; fill-opacity:1.0; 
stroke:#FFFFFF; stroke-width:0; stroke-opacity:1; 
stroke-linecap:round; stroke-linejoin:round;">
<circle cx="13000" cy="13650.3" r="118.11" /> 
</g>
<g style="fill:#FFFFFF; fill-opacity:1.0; 
stroke:#FFFFFF; stroke-width:39.3701; stroke-opacity:1; 
stroke-linecap:round; stroke-linejoin:round;">
</g>
<g style="fill:#FFFFFF; fill-opacity:1.0; 
stroke:#FFFFFF; stroke-width:0; stroke-opacity:1; 
stroke-linecap:round; stroke-linejoin:round;">
<circle cx="5200" cy="25064.2" r="118.11" /> 
</g>
<g style="fill:#FFFFFF; fill-opacity:1.0; 
stroke:#FFFFFF; stroke-width:39.3701; stroke-opacity:1; 
stroke-linecap:round; stroke-linejoin:round;">
</g>
<g style="fill:#FFFFFF; fill-opacity:1.0; 
stroke:#FFFFFF; stroke-width:0; stroke-opacity:1; 
stroke-linecap:round; stroke-linejoin:round;">
<circle cx="5300" cy="13864.2" r="118.11" /> 
</g>
<g style="fill:#FFFFFF; fill-opacity:1.0; 
stroke:#FFFFFF; stroke-width:39.3701; stroke-opacity:1; 
stroke-linecap:round; stroke-linejoin:round;">
</g>
<g style="fill:#FFFFFF; fill-opacity:1.0; 
stroke:#FFFFFF; stroke-width:0; stroke-opacity:1; 
stroke-linecap:round; stroke-linejoin:round;">
<circle cx="17200" cy="9764.23" r="118.11" /> 
</g>
<g style="fill:#FFFFFF; fill-opacity:1.0; 
stroke:#FFFFFF; stroke-width:39.3701; stroke-opacity:1; 
stroke-linecap:round; stroke-linejoin:round;">
</g>
<g style="fill:#FFFFFF; fill-opacity:1.0; 
stroke:#FFFFFF; stroke-width:0; stroke-opacity:1; 
stroke-linecap:round; stroke-linejoin:round;">
<circle cx="12600" cy="23164.2" r="118.11" /> 
</g>
<g style="fill:#FFFFFF; fill-opacity:1.0; 
stroke:#FFFFFF; stroke-width:39.3701; stroke-opacity:1; 
stroke-linecap:round; stroke-linejoin:round;">
</g>
<g style="fill:#FFFFFF; fill-opacity:1.0; 
stroke:#FFFFFF; stroke-width:0; stroke-opacity:1; 
stroke-linecap:round; stroke-linejoin:round;">
<circle cx="12600" cy="11864.2" r="118.11" /> 
</g>
<g style="fill:#FFFFFF; fill-opacity:1.0; 
stroke:#FFFFFF; stroke-width:39.3701; stroke-opacity:1; 
stroke-linecap:round; stroke-linejoin:round;">
</g>
<g style="fill:#FFFFFF; fill-opacity:1.0; 
stroke:#FFFFFF; stroke-width:0; stroke-opacity:1; 
stroke-linecap:round; stroke-linejoin:round;">
<circle cx="6400" cy="11364.2" r="118.11" /> 
</g>
<g style="fill:#FFFFFF; fill-opacity:1.0; 
stroke:#FFFFFF; stroke-width:39.3701; stroke-opacity:1; 
stroke-linecap:round; stroke-linejoin:round;">
</g>
<g style="fill:#FFFFFF; fill-opacity:1.0; 
stroke:#FFFFFF; stroke-width:0; stroke-opacity:1; 
stroke-linecap:round; stroke-linejoin:round;">
<circle cx="6400" cy="17164.2" r="118.11" /> 
</g>
<g style="fill:#FFFFFF; fill-opacity:1.0; 
stroke:#FFFFFF; stroke-width:39.3701; stroke-opacity:1; 
stroke-linecap:round; stroke-linejoin:round;">
</g>
<g style="fill:#FFFFFF; fill-opacity:1.0; 
stroke:#FFFFFF; stroke-width:0; stroke-opacity:1; 
stroke-linecap:round; stroke-linejoin:round;">
<circle cx="6400" cy="22664.2" r="118.11" /> 
</g>
<g style="fill:#FFFFFF; fill-opacity:1.0; 
stroke:#FFFFFF; stroke-width:39.3701; stroke-opacity:1; 
stroke-linecap:round; stroke-linejoin:round;">
</g>
<g style="fill:#FFFFFF; fill-opacity:1.0; 
stroke:#FFFFFF; stroke-width:0; stroke-opacity:1; 
stroke-linecap:round; stroke-linejoin:round;">
<circle cx="6400" cy="28464.2" r="118.11" /> 
</g>
<g style="fill:#FFFFFF; fill-opacity:1.0; 
stroke:#FFFFFF; stroke-width:39.3701; stroke-opacity:1; 
stroke-linecap:round; stroke-linejoin:round;">
</g>
<g style="fill:#FFFFFF; fill-opacity:1.0; 
stroke:#FFFFFF; stroke-width:0; stroke-opacity:1; 
stroke-linecap:round; stroke-linejoin:round;">
<circle cx="12600" cy="28864.2" r="118.11" /> 
</g>
<g style="fill:#FFFFFF; fill-opacity:1.0; 
stroke:#FFFFFF; stroke-width:39.3701; stroke-opacity:1; 
stroke-linecap:round; stroke-linejoin:round;">
</g>
<g style="fill:#FFFFFF; fill-opacity:1.0; 
stroke:#FFFFFF; stroke-width:0; stroke-opacity:1; 
stroke-linecap:round; stroke-linejoin:round;">
<circle cx="16100" cy="22764.2" r="118.11" /> 
</g>
<g style="fill:#FFFFFF; fill-opacity:1.0; 
stroke:#FFFFFF; stroke-width:39.3701; stroke-opacity:1; 
stroke-linecap:round; stroke-linejoin:round;">
</g>
<g style="fill:#FFFFFF; fill-opacity:1.0; 
stroke:#FFFFFF; stroke-width:0; stroke-opacity:1; 
stroke-linecap:round; stroke-linejoin:round;">
<circle cx="12600" cy="17664.2" r="118.11" /> 
</g>
<g style="fill:#FFFFFF; fill-opacity:1.0; 
stroke:#FFFFFF; stroke-width:39.3701; stroke-opacity:1; 
stroke-linecap:round; stroke-linejoin:round;">
</g>
<g style="fill:#FFFFFF; fill-opacity:1.0; 
stroke:#FFFFFF; stroke-width:0; stroke-opacity:1; 
stroke-linecap:round; stroke-linejoin:round;">
<circle cx="16100" cy="17164.2" r="118.11" /> 
</g>
<g style="fill:#FFFFFF; fill-opacity:1.0; 
stroke:#FFFFFF; stroke-width:39.3701; stroke-opacity:1; 
stroke-linecap:round; stroke-linejoin:round;">
</g>
<g style="fill:#FFFFFF; fill-opacity:1.0; 
stroke:#FFFFFF; stroke-width:0; stroke-opacity:1; 
stroke-linecap:round; stroke-linejoin:round;">
<circle cx="3300" cy="27564.2" r="196.85" /> 
</g>
<g style="fill:#FFFFFF; fill-opacity:1.0; 
stroke:#FFFFFF; stroke-width:39.3701; stroke-opacity:1; 
stroke-linecap:round; stroke-linejoin:round;">
</g>
<g style="fill:#FFFFFF; fill-opacity:1.0; 
stroke:#FFFFFF; stroke-width:0; stroke-opacity:1; 
stroke-linecap:round; stroke-linejoin:round;">
<circle cx="3300" cy="26564.2" r="196.85" /> 
</g>
<g style="fill:#FFFFFF; fill-opacity:1.0; 
stroke:#FFFFFF; stroke-width:39.3701; stroke-opacity:1; 
stroke-linecap:round; stroke-linejoin:round;">
</g>
<g style="fill:#FFFFFF; fill-opacity:1.0; 
stroke:#FFFFFF; stroke-width:0; stroke-opacity:1; 
stroke-linecap:round; stroke-linejoin:round;">
<circle cx="3300" cy="25564.2" r="196.85" /> 
</g>
<g style="fill:#FFFFFF; fill-opacity:1.0; 
stroke:#FFFFFF; stroke-width:39.3701; stroke-opacity:1; 
stroke-linecap:round; stroke-linejoin:round;">
</g>
<g style="fill:#FFFFFF; fill-opacity:1.0; 
stroke:#FFFFFF; stroke-width:0; stroke-opacity:1; 
stroke-linecap:round; stroke-linejoin:round;">
<circle cx="3300" cy="24564.2" r="196.85" /> 
</g>
<g style="fill:#FFFFFF; fill-opacity:1.0; 
stroke:#FFFFFF; stroke-width:39.3701; stroke-opacity:1; 
stroke-linecap:round; stroke-linejoin:round;">
</g>
<g style="fill:#FFFFFF; fill-opacity:1.0; 
stroke:#FFFFFF; stroke-width:0; stroke-opacity:1; 
stroke-linecap:round; stroke-linejoin:round;">
<circle cx="3300" cy="23564.2" r="196.85" /> 
</g>
<g style="fill:#FFFFFF; fill-opacity:1.0; 
stroke:#FFFFFF; stroke-width:39.3701; stroke-opacity:1; 
stroke-linecap:round; stroke-linejoin:round;">
</g>
<g style="fill:#FFFFFF; fill-opacity:1.0; 
stroke:#FFFFFF; stroke-width:0; stroke-opacity:1; 
stroke-linecap:round; stroke-linejoin:round;">
<circle cx="3300" cy="22564.2" r="196.85" /> 
</g>
<g style="fill:#FFFFFF; fill-opacity:1.0; 
stroke:#FFFFFF; stroke-width:39.3701; stroke-opacity:1; 
stroke-linecap:round; stroke-linejoin:round;">
</g>
<g style="fill:#FFFFFF; fill-opacity:1.0; 
stroke:#FFFFFF; stroke-width:0; stroke-opacity:1; 
stroke-linecap:round; stroke-linejoin:round;">
<circle cx="3300" cy="21564.2" r="196.85" /> 
</g>
<g style="fill:#FFFFFF; fill-opacity:1.0; 
stroke:#FFFFFF; stroke-width:39.3701; stroke-opacity:1; 
stroke-linecap:round; stroke-linejoin:round;">
</g>
<g style="fill:#FFFFFF; fill-opacity:1.0; 
stroke:#FFFFFF; stroke-width:0; stroke-opacity:1; 
stroke-linecap:round; stroke-linejoin:round;">
<circle cx="3300" cy="20564.2" r="196.85" /> 
</g>
<g style="fill:#FFFFFF; fill-opacity:1.0; 
stroke:#FFFFFF; stroke-width:39.3701; stroke-opacity:1; 
stroke-linecap:round; stroke-linejoin:round;">
</g>
<g style="fill:#FFFFFF; fill-opacity:1.0; 
stroke:#FFFFFF; stroke-width:0; stroke-opacity:1; 
stroke-linecap:round; stroke-linejoin:round;">
<circle cx="3300" cy="19564.2" r="196.85" /> 
</g>
<g style="fill:#FFFFFF; fill-opacity:1.0; 
stroke:#FFFFFF; stroke-width:39.3701; stroke-opacity:1; 
stroke-linecap:round; stroke-linejoin:round;">
</g>
<g style="fill:#FFFFFF; fill-opacity:1.0; 
stroke:#FFFFFF; stroke-width:0; stroke-opacity:1; 
stroke-linecap:round; stroke-linejoin:round;">
<circle cx="3300" cy="18564.2" r="196.85" /> 
</g>
<g style="fill:#FFFFFF; fill-opacity:1.0; 
stroke:#FFFFFF; stroke-width:39.3701; stroke-opacity:1; 
stroke-linecap:round; stroke-linejoin:round;">
</g>
<g style="fill:#FFFFFF; fill-opacity:1.0; 
stroke:#FFFFFF; stroke-width:0; stroke-opacity:1; 
stroke-linecap:round; stroke-linejoin:round;">
<circle cx="3300" cy="17564.2" r="196.85" /> 
</g>
<g style="fill:#FFFFFF; fill-opacity:1.0; 
stroke:#FFFFFF; stroke-width:39.3701; stroke-opacity:1; 
stroke-linecap:round; stroke-linejoin:round;">
</g>
<g style="fill:#FFFFFF; fill-opacity:1.0; 
stroke:#FFFFFF; stroke-width:0; stroke-opacity:1; 
stroke-linecap:round; stroke-linejoin:round;">
<circle cx="3300" cy="16564.2" r="196.85" /> 
</g>
<g style="fill:#FFFFFF; fill-opacity:1.0; 
stroke:#FFFFFF; stroke-width:39.3701; stroke-opacity:1; 
stroke-linecap:round; stroke-linejoin:round;">
</g>
<g style="fill:#000000; fill-opacity:1.0; 
stroke:#000000; stroke-width:39.3701; stroke-opacity:1; 
stroke-linecap:round; stroke-linejoin:round;">
</g>
<g style="fill:#000000; fill-opacity:0.0; 
stroke:#000000; stroke-width:39.3701; stroke-opacity:1; 
stroke-linecap:round; stroke-linejoin:round;">
<path d="M19925 39322
L3389 39322
" />
<path d="M19925 3889
L3389 3889
" />
<path d="M1814 5464
L1814 37747
" />
<path d="M19925.2 39322.5 A1574.8 1574.8 0.0 0 0 21500 37747.7 " />
<path d="M21500 37747
L21500 5464
" />
<path d="M21500 5464.23 A1574.8 1574.8 0.0 0 0 19925.2 3889.43 " />
<path d="M3389.76 3889.43 A1574.8 1574.8 0.0 0 0 1814.96 5464.23 " />
<circle cx="11671.4" cy="7826.44" r="629.922" /> 
<circle cx="11671.4" cy="35385.5" r="629.921" /> 
<path d="M1814.96 37747.7 A1574.8 1574.8 0.0 0 0 3389.76 39322.5 " />
</g> 
</svg>
