G04 #@! TF.FileFunction,Soldermask,Top*
%FSLAX46Y46*%
G04 Gerber Fmt 4.6, Leading zero omitted, Abs format (unit mm)*
G04 Created by KiCad (PCBNEW 201611211049+7371~55~ubuntu16.10.1-product) date Thu Dec 29 13:08:53 2016*
%MOMM*%
%LPD*%
G01*
G04 APERTURE LIST*
%ADD10C,0.100000*%
%ADD11C,4.210000*%
%ADD12R,1.924000X1.924000*%
%ADD13C,1.924000*%
%ADD14R,1.650000X1.900000*%
%ADD15R,1.900000X1.650000*%
%ADD16R,2.432000X2.127200*%
%ADD17O,2.432000X2.127200*%
%ADD18O,2.700000X2.000000*%
%ADD19R,1.650000X1.400000*%
%ADD20R,1.400000X1.650000*%
G04 APERTURE END LIST*
D10*
D11*
X153543000Y-100330000D03*
X153543000Y-74930000D03*
D12*
X151003000Y-82042000D03*
D13*
X151003000Y-84836000D03*
X151003000Y-87503000D03*
X151003000Y-90297000D03*
X151003000Y-93091000D03*
X153543000Y-83439000D03*
X153543000Y-86233000D03*
X153543000Y-88900000D03*
X153543000Y-91694000D03*
D14*
X134143750Y-81776250D03*
X134143750Y-84276250D03*
X134080250Y-89991250D03*
X134080250Y-87491250D03*
D15*
X142736250Y-75342750D03*
X145236250Y-75342750D03*
D14*
X134080250Y-95134750D03*
X134080250Y-92634750D03*
X133985000Y-77831000D03*
X133985000Y-75331000D03*
D16*
X127508000Y-91313000D03*
D17*
X127508000Y-88773000D03*
X127508000Y-86233000D03*
X127508000Y-83693000D03*
D18*
X138271250Y-79787750D03*
X138271250Y-82327750D03*
X138271250Y-84867750D03*
X138271250Y-87407750D03*
X138271250Y-89947750D03*
X138271250Y-92487750D03*
X138271250Y-95027750D03*
X138271250Y-97567750D03*
X145891250Y-97567750D03*
X145891250Y-95027750D03*
X145891250Y-92487750D03*
X145891250Y-89947750D03*
X145891250Y-87407750D03*
X145891250Y-84867750D03*
X145891250Y-82327750D03*
X145891250Y-79787750D03*
D19*
X131191000Y-78089000D03*
X131191000Y-76089000D03*
X130302000Y-94504000D03*
X130302000Y-96504000D03*
X127127000Y-96504000D03*
X127127000Y-94504000D03*
X128778000Y-76089000D03*
X128778000Y-78089000D03*
D20*
X130699000Y-99441000D03*
X132699000Y-99441000D03*
X126889000Y-99441000D03*
X128889000Y-99441000D03*
M02*
