G04 #@! TF.GenerationSoftware,KiCad,Pcbnew,5.0.1*
G04 #@! TF.CreationDate,2019-03-20T13:16:04+05:30*
G04 #@! TF.ProjectId,switches,73776974636865732E6B696361645F70,rev?*
G04 #@! TF.SameCoordinates,Original*
G04 #@! TF.FileFunction,Legend,Top*
G04 #@! TF.FilePolarity,Positive*
%FSLAX46Y46*%
G04 Gerber Fmt 4.6, Leading zero omitted, Abs format (unit mm)*
G04 Created by KiCad (PCBNEW 5.0.1) date Wed 20 Mar 2019 01:16:04 PM IST*
%MOMM*%
%LPD*%
G01*
G04 APERTURE LIST*
%ADD10C,0.100000*%
%ADD11C,0.300000*%
%ADD12C,0.500000*%
%ADD13C,0.120000*%
%ADD14C,0.150000*%
G04 APERTURE END LIST*
D10*
X100958666Y-111818904D02*
X100577714Y-111818904D01*
X100577714Y-111018904D01*
X101187238Y-111095095D02*
X101225333Y-111057000D01*
X101301523Y-111018904D01*
X101492000Y-111018904D01*
X101568190Y-111057000D01*
X101606285Y-111095095D01*
X101644380Y-111171285D01*
X101644380Y-111247476D01*
X101606285Y-111361761D01*
X101149142Y-111818904D01*
X101644380Y-111818904D01*
X100958666Y-109278904D02*
X100577714Y-109278904D01*
X100577714Y-108478904D01*
X101644380Y-109278904D02*
X101187238Y-109278904D01*
X101415809Y-109278904D02*
X101415809Y-108478904D01*
X101339619Y-108593190D01*
X101263428Y-108669380D01*
X101187238Y-108707476D01*
X100082476Y-106738904D02*
X100082476Y-105938904D01*
X100539619Y-106738904D01*
X100539619Y-105938904D01*
X101377714Y-106662714D02*
X101339619Y-106700809D01*
X101225333Y-106738904D01*
X101149142Y-106738904D01*
X101034857Y-106700809D01*
X100958666Y-106624619D01*
X100920571Y-106548428D01*
X100882476Y-106396047D01*
X100882476Y-106281761D01*
X100920571Y-106129380D01*
X100958666Y-106053190D01*
X101034857Y-105977000D01*
X101149142Y-105938904D01*
X101225333Y-105938904D01*
X101339619Y-105977000D01*
X101377714Y-106015095D01*
X102063428Y-106205571D02*
X102063428Y-106738904D01*
X101872952Y-105900809D02*
X101682476Y-106472238D01*
X102177714Y-106472238D01*
X100082476Y-104198904D02*
X100082476Y-103398904D01*
X100539619Y-104198904D01*
X100539619Y-103398904D01*
X101377714Y-104122714D02*
X101339619Y-104160809D01*
X101225333Y-104198904D01*
X101149142Y-104198904D01*
X101034857Y-104160809D01*
X100958666Y-104084619D01*
X100920571Y-104008428D01*
X100882476Y-103856047D01*
X100882476Y-103741761D01*
X100920571Y-103589380D01*
X100958666Y-103513190D01*
X101034857Y-103437000D01*
X101149142Y-103398904D01*
X101225333Y-103398904D01*
X101339619Y-103437000D01*
X101377714Y-103475095D01*
X101644380Y-103398904D02*
X102139619Y-103398904D01*
X101872952Y-103703666D01*
X101987238Y-103703666D01*
X102063428Y-103741761D01*
X102101523Y-103779857D01*
X102139619Y-103856047D01*
X102139619Y-104046523D01*
X102101523Y-104122714D01*
X102063428Y-104160809D01*
X101987238Y-104198904D01*
X101758666Y-104198904D01*
X101682476Y-104160809D01*
X101644380Y-104122714D01*
X100082476Y-101658904D02*
X100082476Y-100858904D01*
X100539619Y-101658904D01*
X100539619Y-100858904D01*
X101377714Y-101582714D02*
X101339619Y-101620809D01*
X101225333Y-101658904D01*
X101149142Y-101658904D01*
X101034857Y-101620809D01*
X100958666Y-101544619D01*
X100920571Y-101468428D01*
X100882476Y-101316047D01*
X100882476Y-101201761D01*
X100920571Y-101049380D01*
X100958666Y-100973190D01*
X101034857Y-100897000D01*
X101149142Y-100858904D01*
X101225333Y-100858904D01*
X101339619Y-100897000D01*
X101377714Y-100935095D01*
X101682476Y-100935095D02*
X101720571Y-100897000D01*
X101796761Y-100858904D01*
X101987238Y-100858904D01*
X102063428Y-100897000D01*
X102101523Y-100935095D01*
X102139619Y-101011285D01*
X102139619Y-101087476D01*
X102101523Y-101201761D01*
X101644380Y-101658904D01*
X102139619Y-101658904D01*
X100082476Y-99118904D02*
X100082476Y-98318904D01*
X100539619Y-99118904D01*
X100539619Y-98318904D01*
X101377714Y-99042714D02*
X101339619Y-99080809D01*
X101225333Y-99118904D01*
X101149142Y-99118904D01*
X101034857Y-99080809D01*
X100958666Y-99004619D01*
X100920571Y-98928428D01*
X100882476Y-98776047D01*
X100882476Y-98661761D01*
X100920571Y-98509380D01*
X100958666Y-98433190D01*
X101034857Y-98357000D01*
X101149142Y-98318904D01*
X101225333Y-98318904D01*
X101339619Y-98357000D01*
X101377714Y-98395095D01*
X102139619Y-99118904D02*
X101682476Y-99118904D01*
X101911047Y-99118904D02*
X101911047Y-98318904D01*
X101834857Y-98433190D01*
X101758666Y-98509380D01*
X101682476Y-98547476D01*
X100063428Y-96578904D02*
X100063428Y-95778904D01*
X100520571Y-96578904D01*
X100520571Y-95778904D01*
X101053904Y-95778904D02*
X101206285Y-95778904D01*
X101282476Y-95817000D01*
X101358666Y-95893190D01*
X101396761Y-96045571D01*
X101396761Y-96312238D01*
X101358666Y-96464619D01*
X101282476Y-96540809D01*
X101206285Y-96578904D01*
X101053904Y-96578904D01*
X100977714Y-96540809D01*
X100901523Y-96464619D01*
X100863428Y-96312238D01*
X100863428Y-96045571D01*
X100901523Y-95893190D01*
X100977714Y-95817000D01*
X101053904Y-95778904D01*
X102082476Y-96045571D02*
X102082476Y-96578904D01*
X101892000Y-95740809D02*
X101701523Y-96312238D01*
X102196761Y-96312238D01*
X100063428Y-94038904D02*
X100063428Y-93238904D01*
X100520571Y-94038904D01*
X100520571Y-93238904D01*
X101053904Y-93238904D02*
X101206285Y-93238904D01*
X101282476Y-93277000D01*
X101358666Y-93353190D01*
X101396761Y-93505571D01*
X101396761Y-93772238D01*
X101358666Y-93924619D01*
X101282476Y-94000809D01*
X101206285Y-94038904D01*
X101053904Y-94038904D01*
X100977714Y-94000809D01*
X100901523Y-93924619D01*
X100863428Y-93772238D01*
X100863428Y-93505571D01*
X100901523Y-93353190D01*
X100977714Y-93277000D01*
X101053904Y-93238904D01*
X101663428Y-93238904D02*
X102158666Y-93238904D01*
X101892000Y-93543666D01*
X102006285Y-93543666D01*
X102082476Y-93581761D01*
X102120571Y-93619857D01*
X102158666Y-93696047D01*
X102158666Y-93886523D01*
X102120571Y-93962714D01*
X102082476Y-94000809D01*
X102006285Y-94038904D01*
X101777714Y-94038904D01*
X101701523Y-94000809D01*
X101663428Y-93962714D01*
X100063428Y-91498904D02*
X100063428Y-90698904D01*
X100520571Y-91498904D01*
X100520571Y-90698904D01*
X101053904Y-90698904D02*
X101206285Y-90698904D01*
X101282476Y-90737000D01*
X101358666Y-90813190D01*
X101396761Y-90965571D01*
X101396761Y-91232238D01*
X101358666Y-91384619D01*
X101282476Y-91460809D01*
X101206285Y-91498904D01*
X101053904Y-91498904D01*
X100977714Y-91460809D01*
X100901523Y-91384619D01*
X100863428Y-91232238D01*
X100863428Y-90965571D01*
X100901523Y-90813190D01*
X100977714Y-90737000D01*
X101053904Y-90698904D01*
X101701523Y-90775095D02*
X101739619Y-90737000D01*
X101815809Y-90698904D01*
X102006285Y-90698904D01*
X102082476Y-90737000D01*
X102120571Y-90775095D01*
X102158666Y-90851285D01*
X102158666Y-90927476D01*
X102120571Y-91041761D01*
X101663428Y-91498904D01*
X102158666Y-91498904D01*
X100063428Y-88958904D02*
X100063428Y-88158904D01*
X100520571Y-88958904D01*
X100520571Y-88158904D01*
X101053904Y-88158904D02*
X101206285Y-88158904D01*
X101282476Y-88197000D01*
X101358666Y-88273190D01*
X101396761Y-88425571D01*
X101396761Y-88692238D01*
X101358666Y-88844619D01*
X101282476Y-88920809D01*
X101206285Y-88958904D01*
X101053904Y-88958904D01*
X100977714Y-88920809D01*
X100901523Y-88844619D01*
X100863428Y-88692238D01*
X100863428Y-88425571D01*
X100901523Y-88273190D01*
X100977714Y-88197000D01*
X101053904Y-88158904D01*
X102158666Y-88958904D02*
X101701523Y-88958904D01*
X101930095Y-88958904D02*
X101930095Y-88158904D01*
X101853904Y-88273190D01*
X101777714Y-88349380D01*
X101701523Y-88387476D01*
X100063428Y-86114142D02*
X100672952Y-86114142D01*
X100368190Y-86418904D02*
X100368190Y-85809380D01*
X101434857Y-85618904D02*
X101053904Y-85618904D01*
X101015809Y-85999857D01*
X101053904Y-85961761D01*
X101130095Y-85923666D01*
X101320571Y-85923666D01*
X101396761Y-85961761D01*
X101434857Y-85999857D01*
X101472952Y-86076047D01*
X101472952Y-86266523D01*
X101434857Y-86342714D01*
X101396761Y-86380809D01*
X101320571Y-86418904D01*
X101130095Y-86418904D01*
X101053904Y-86380809D01*
X101015809Y-86342714D01*
X101701523Y-85618904D02*
X101968190Y-86418904D01*
X102234857Y-85618904D01*
X100482476Y-83117000D02*
X100406285Y-83078904D01*
X100292000Y-83078904D01*
X100177714Y-83117000D01*
X100101523Y-83193190D01*
X100063428Y-83269380D01*
X100025333Y-83421761D01*
X100025333Y-83536047D01*
X100063428Y-83688428D01*
X100101523Y-83764619D01*
X100177714Y-83840809D01*
X100292000Y-83878904D01*
X100368190Y-83878904D01*
X100482476Y-83840809D01*
X100520571Y-83802714D01*
X100520571Y-83536047D01*
X100368190Y-83536047D01*
X100863428Y-83878904D02*
X100863428Y-83078904D01*
X101320571Y-83878904D01*
X101320571Y-83078904D01*
X101701523Y-83878904D02*
X101701523Y-83078904D01*
X101892000Y-83078904D01*
X102006285Y-83117000D01*
X102082476Y-83193190D01*
X102120571Y-83269380D01*
X102158666Y-83421761D01*
X102158666Y-83536047D01*
X102120571Y-83688428D01*
X102082476Y-83764619D01*
X102006285Y-83840809D01*
X101892000Y-83878904D01*
X101701523Y-83878904D01*
D11*
X137259142Y-131432285D02*
X137330571Y-131289428D01*
X137330571Y-131003714D01*
X137259142Y-130860857D01*
X137116285Y-130789428D01*
X137044857Y-130789428D01*
X136902000Y-130860857D01*
X136830571Y-131003714D01*
X136830571Y-131218000D01*
X136759142Y-131360857D01*
X136616285Y-131432285D01*
X136544857Y-131432285D01*
X136402000Y-131360857D01*
X136330571Y-131218000D01*
X136330571Y-131003714D01*
X136402000Y-130860857D01*
X136330571Y-130289428D02*
X137330571Y-130003714D01*
X136616285Y-129718000D01*
X137330571Y-129432285D01*
X136330571Y-129146571D01*
X137330571Y-128575142D02*
X136330571Y-128575142D01*
X135830571Y-128575142D02*
X135902000Y-128646571D01*
X135973428Y-128575142D01*
X135902000Y-128503714D01*
X135830571Y-128575142D01*
X135973428Y-128575142D01*
X136330571Y-128075142D02*
X136330571Y-127503714D01*
X135830571Y-127860857D02*
X137116285Y-127860857D01*
X137259142Y-127789428D01*
X137330571Y-127646571D01*
X137330571Y-127503714D01*
X137259142Y-126360857D02*
X137330571Y-126503714D01*
X137330571Y-126789428D01*
X137259142Y-126932285D01*
X137187714Y-127003714D01*
X137044857Y-127075142D01*
X136616285Y-127075142D01*
X136473428Y-127003714D01*
X136402000Y-126932285D01*
X136330571Y-126789428D01*
X136330571Y-126503714D01*
X136402000Y-126360857D01*
X137330571Y-125718000D02*
X135830571Y-125718000D01*
X137330571Y-125075142D02*
X136544857Y-125075142D01*
X136402000Y-125146571D01*
X136330571Y-125289428D01*
X136330571Y-125503714D01*
X136402000Y-125646571D01*
X136473428Y-125718000D01*
X136544857Y-123860857D02*
X136616285Y-123646571D01*
X136687714Y-123575142D01*
X136830571Y-123503714D01*
X137044857Y-123503714D01*
X137187714Y-123575142D01*
X137259142Y-123646571D01*
X137330571Y-123789428D01*
X137330571Y-124360857D01*
X135830571Y-124360857D01*
X135830571Y-123860857D01*
X135902000Y-123718000D01*
X135973428Y-123646571D01*
X136116285Y-123575142D01*
X136259142Y-123575142D01*
X136402000Y-123646571D01*
X136473428Y-123718000D01*
X136544857Y-123860857D01*
X136544857Y-124360857D01*
X137330571Y-122646571D02*
X137259142Y-122789428D01*
X137187714Y-122860857D01*
X137044857Y-122932285D01*
X136616285Y-122932285D01*
X136473428Y-122860857D01*
X136402000Y-122789428D01*
X136330571Y-122646571D01*
X136330571Y-122432285D01*
X136402000Y-122289428D01*
X136473428Y-122218000D01*
X136616285Y-122146571D01*
X137044857Y-122146571D01*
X137187714Y-122218000D01*
X137259142Y-122289428D01*
X137330571Y-122432285D01*
X137330571Y-122646571D01*
X137330571Y-120860857D02*
X136544857Y-120860857D01*
X136402000Y-120932285D01*
X136330571Y-121075142D01*
X136330571Y-121360857D01*
X136402000Y-121503714D01*
X137259142Y-120860857D02*
X137330571Y-121003714D01*
X137330571Y-121360857D01*
X137259142Y-121503714D01*
X137116285Y-121575142D01*
X136973428Y-121575142D01*
X136830571Y-121503714D01*
X136759142Y-121360857D01*
X136759142Y-121003714D01*
X136687714Y-120860857D01*
X137330571Y-120146571D02*
X136330571Y-120146571D01*
X136616285Y-120146571D02*
X136473428Y-120075142D01*
X136402000Y-120003714D01*
X136330571Y-119860857D01*
X136330571Y-119718000D01*
X137330571Y-118575142D02*
X135830571Y-118575142D01*
X137259142Y-118575142D02*
X137330571Y-118718000D01*
X137330571Y-119003714D01*
X137259142Y-119146571D01*
X137187714Y-119218000D01*
X137044857Y-119289428D01*
X136616285Y-119289428D01*
X136473428Y-119218000D01*
X136402000Y-119146571D01*
X136330571Y-119003714D01*
X136330571Y-118718000D01*
X136402000Y-118575142D01*
D12*
X137549142Y-70476000D02*
X137549142Y-69904571D01*
X137692000Y-69618857D01*
X137977714Y-69333142D01*
X138549142Y-69190285D01*
X139549142Y-69190285D01*
X140120571Y-69333142D01*
X140406285Y-69618857D01*
X140549142Y-69904571D01*
X140549142Y-70476000D01*
X140406285Y-70761714D01*
X140120571Y-71047428D01*
X139549142Y-71190285D01*
X138549142Y-71190285D01*
X137977714Y-71047428D01*
X137692000Y-70761714D01*
X137549142Y-70476000D01*
X138549142Y-67904571D02*
X141549142Y-67904571D01*
X138692000Y-67904571D02*
X138549142Y-67618857D01*
X138549142Y-67047428D01*
X138692000Y-66761714D01*
X138834857Y-66618857D01*
X139120571Y-66476000D01*
X139977714Y-66476000D01*
X140263428Y-66618857D01*
X140406285Y-66761714D01*
X140549142Y-67047428D01*
X140549142Y-67618857D01*
X140406285Y-67904571D01*
X140406285Y-64047428D02*
X140549142Y-64333142D01*
X140549142Y-64904571D01*
X140406285Y-65190285D01*
X140120571Y-65333142D01*
X138977714Y-65333142D01*
X138692000Y-65190285D01*
X138549142Y-64904571D01*
X138549142Y-64333142D01*
X138692000Y-64047428D01*
X138977714Y-63904571D01*
X139263428Y-63904571D01*
X139549142Y-65333142D01*
X138549142Y-62618857D02*
X140549142Y-62618857D01*
X138834857Y-62618857D02*
X138692000Y-62476000D01*
X138549142Y-62190285D01*
X138549142Y-61761714D01*
X138692000Y-61476000D01*
X138977714Y-61333142D01*
X140549142Y-61333142D01*
X140549142Y-59904571D02*
X137549142Y-59904571D01*
X137549142Y-58761714D01*
X137692000Y-58476000D01*
X137834857Y-58333142D01*
X138120571Y-58190285D01*
X138549142Y-58190285D01*
X138834857Y-58333142D01*
X138977714Y-58476000D01*
X139120571Y-58761714D01*
X139120571Y-59904571D01*
X140549142Y-55476000D02*
X140549142Y-56904571D01*
X137549142Y-56904571D01*
X140263428Y-52761714D02*
X140406285Y-52904571D01*
X140549142Y-53333142D01*
X140549142Y-53618857D01*
X140406285Y-54047428D01*
X140120571Y-54333142D01*
X139834857Y-54476000D01*
X139263428Y-54618857D01*
X138834857Y-54618857D01*
X138263428Y-54476000D01*
X137977714Y-54333142D01*
X137692000Y-54047428D01*
X137549142Y-53618857D01*
X137549142Y-53333142D01*
X137692000Y-52904571D01*
X137834857Y-52761714D01*
X129579714Y-68690285D02*
X129579714Y-69690285D01*
X131151142Y-69690285D02*
X128151142Y-69690285D01*
X128151142Y-68261714D01*
X128151142Y-66547428D02*
X128151142Y-65976000D01*
X128294000Y-65690285D01*
X128579714Y-65404571D01*
X129151142Y-65261714D01*
X130151142Y-65261714D01*
X130722571Y-65404571D01*
X131008285Y-65690285D01*
X131151142Y-65976000D01*
X131151142Y-66547428D01*
X131008285Y-66833142D01*
X130722571Y-67118857D01*
X130151142Y-67261714D01*
X129151142Y-67261714D01*
X128579714Y-67118857D01*
X128294000Y-66833142D01*
X128151142Y-66547428D01*
X131008285Y-64118857D02*
X131151142Y-63690285D01*
X131151142Y-62976000D01*
X131008285Y-62690285D01*
X130865428Y-62547428D01*
X130579714Y-62404571D01*
X130294000Y-62404571D01*
X130008285Y-62547428D01*
X129865428Y-62690285D01*
X129722571Y-62976000D01*
X129579714Y-63547428D01*
X129436857Y-63833142D01*
X129294000Y-63976000D01*
X129008285Y-64118857D01*
X128722571Y-64118857D01*
X128436857Y-63976000D01*
X128294000Y-63833142D01*
X128151142Y-63547428D01*
X128151142Y-62833142D01*
X128294000Y-62404571D01*
X131008285Y-61261714D02*
X131151142Y-60833142D01*
X131151142Y-60118857D01*
X131008285Y-59833142D01*
X130865428Y-59690285D01*
X130579714Y-59547428D01*
X130294000Y-59547428D01*
X130008285Y-59690285D01*
X129865428Y-59833142D01*
X129722571Y-60118857D01*
X129579714Y-60690285D01*
X129436857Y-60976000D01*
X129294000Y-61118857D01*
X129008285Y-61261714D01*
X128722571Y-61261714D01*
X128436857Y-61118857D01*
X128294000Y-60976000D01*
X128151142Y-60690285D01*
X128151142Y-59976000D01*
X128294000Y-59547428D01*
X129579714Y-58261714D02*
X129579714Y-57261714D01*
X131151142Y-56833142D02*
X131151142Y-58261714D01*
X128151142Y-58261714D01*
X128151142Y-56833142D01*
X129579714Y-55547428D02*
X129579714Y-54547428D01*
X131151142Y-54118857D02*
X131151142Y-55547428D01*
X128151142Y-55547428D01*
X128151142Y-54118857D01*
D13*
G04 #@! TO.C,D10*
X124199514Y-116109815D02*
X122299514Y-116109815D01*
X122299514Y-116109815D02*
X122299514Y-120809815D01*
X124199514Y-116109815D02*
X124199514Y-120809815D01*
G04 #@! TO.C,D9*
X124189730Y-101490725D02*
X124189730Y-106190725D01*
X122289730Y-101490725D02*
X122289730Y-106190725D01*
X124189730Y-101490725D02*
X122289730Y-101490725D01*
G04 #@! TO.C,D8*
X124132653Y-87633635D02*
X122232653Y-87633635D01*
X122232653Y-87633635D02*
X122232653Y-92333635D01*
X124132653Y-87633635D02*
X124132653Y-92333635D01*
G04 #@! TO.C,D7*
X124007679Y-73014545D02*
X124007679Y-77714545D01*
X122107679Y-73014545D02*
X122107679Y-77714545D01*
X124007679Y-73014545D02*
X122107679Y-73014545D01*
G04 #@! TO.C,D6*
X136910000Y-107678000D02*
X138810000Y-107678000D01*
X138810000Y-107678000D02*
X138810000Y-102978000D01*
X136910000Y-107678000D02*
X136910000Y-102978000D01*
G04 #@! TO.C,D5*
X136910000Y-93566905D02*
X136910000Y-88866905D01*
X138810000Y-93566905D02*
X138810000Y-88866905D01*
X136910000Y-93566905D02*
X138810000Y-93566905D01*
G04 #@! TO.C,D4*
X112694000Y-122309815D02*
X114594000Y-122309815D01*
X114594000Y-122309815D02*
X114594000Y-117609815D01*
X112694000Y-122309815D02*
X112694000Y-117609815D01*
G04 #@! TO.C,D3*
X112724000Y-107690725D02*
X112724000Y-102990725D01*
X114624000Y-107690725D02*
X114624000Y-102990725D01*
X112724000Y-107690725D02*
X114624000Y-107690725D01*
G04 #@! TO.C,D2*
X112724000Y-93833635D02*
X114624000Y-93833635D01*
X114624000Y-93833635D02*
X114624000Y-89133635D01*
X112724000Y-93833635D02*
X112724000Y-89133635D01*
G04 #@! TO.C,D1*
X112724000Y-79214545D02*
X112724000Y-74514545D01*
X114624000Y-79214545D02*
X114624000Y-74514545D01*
X112724000Y-79214545D02*
X114624000Y-79214545D01*
G04 #@! TO.C,R16*
X118813514Y-119809815D02*
X118813514Y-118609815D01*
X120573514Y-118609815D02*
X120573514Y-119809815D01*
G04 #@! TO.C,R13*
X120381679Y-75514545D02*
X120381679Y-76714545D01*
X118621679Y-76714545D02*
X118621679Y-75514545D01*
G04 #@! TO.C,R14*
X118746653Y-91333635D02*
X118746653Y-90133635D01*
X120506653Y-90133635D02*
X120506653Y-91333635D01*
G04 #@! TO.C,R15*
X120563730Y-103990725D02*
X120563730Y-105190725D01*
X118803730Y-105190725D02*
X118803730Y-103990725D01*
G04 #@! TO.C,R12*
X130742000Y-104068000D02*
X130742000Y-105268000D01*
X128982000Y-105268000D02*
X128982000Y-104068000D01*
G04 #@! TO.C,R7*
X104816000Y-76714545D02*
X104816000Y-75514545D01*
X106576000Y-75514545D02*
X106576000Y-76714545D01*
G04 #@! TO.C,R8*
X106576000Y-90133635D02*
X106576000Y-91333635D01*
X104816000Y-91333635D02*
X104816000Y-90133635D01*
G04 #@! TO.C,R9*
X104816000Y-105190725D02*
X104816000Y-103990725D01*
X106576000Y-103990725D02*
X106576000Y-105190725D01*
G04 #@! TO.C,R10*
X106506000Y-118609815D02*
X106506000Y-119809815D01*
X104746000Y-119809815D02*
X104746000Y-118609815D01*
G04 #@! TO.C,R11*
X128982000Y-91066905D02*
X128982000Y-89866905D01*
X130742000Y-89866905D02*
X130742000Y-91066905D01*
G04 #@! TO.C,R6*
X134750000Y-110608000D02*
X133550000Y-110608000D01*
X133550000Y-108848000D02*
X134750000Y-108848000D01*
G04 #@! TO.C,R5*
X134750000Y-96638000D02*
X133550000Y-96638000D01*
X133550000Y-94878000D02*
X134750000Y-94878000D01*
G04 #@! TO.C,R4*
X110564000Y-125086000D02*
X109364000Y-125086000D01*
X109364000Y-123326000D02*
X110564000Y-123326000D01*
G04 #@! TO.C,R3*
X109364000Y-108848000D02*
X110564000Y-108848000D01*
X110564000Y-110608000D02*
X109364000Y-110608000D01*
G04 #@! TO.C,R2*
X110564000Y-96638000D02*
X109364000Y-96638000D01*
X109364000Y-94878000D02*
X110564000Y-94878000D01*
G04 #@! TO.C,R1*
X109364000Y-80400000D02*
X110564000Y-80400000D01*
X110564000Y-82160000D02*
X109364000Y-82160000D01*
G04 #@! TO.C,J1*
X96460000Y-82236000D02*
X97790000Y-82236000D01*
X96460000Y-83566000D02*
X96460000Y-82236000D01*
X99120000Y-84836000D02*
X96460000Y-84836000D01*
X99120000Y-112836000D02*
X99120000Y-84836000D01*
X96460000Y-112836000D02*
X99120000Y-112836000D01*
X96460000Y-84836000D02*
X96460000Y-112836000D01*
G04 #@! TO.C,Q6*
X134560000Y-106158000D02*
X134560000Y-105228000D01*
X134560000Y-102998000D02*
X134560000Y-103928000D01*
X134560000Y-102998000D02*
X132400000Y-102998000D01*
X134560000Y-106158000D02*
X133100000Y-106158000D01*
G04 #@! TO.C,Q1*
X110374000Y-77694545D02*
X108914000Y-77694545D01*
X110374000Y-74534545D02*
X108214000Y-74534545D01*
X110374000Y-74534545D02*
X110374000Y-75464545D01*
X110374000Y-77694545D02*
X110374000Y-76764545D01*
G04 #@! TO.C,Q2*
X110374000Y-92059635D02*
X110374000Y-91129635D01*
X110374000Y-88899635D02*
X110374000Y-89829635D01*
X110374000Y-88899635D02*
X108214000Y-88899635D01*
X110374000Y-92059635D02*
X108914000Y-92059635D01*
G04 #@! TO.C,Q3*
X110374000Y-106424725D02*
X108914000Y-106424725D01*
X110374000Y-103264725D02*
X108214000Y-103264725D01*
X110374000Y-103264725D02*
X110374000Y-104194725D01*
X110374000Y-106424725D02*
X110374000Y-105494725D01*
G04 #@! TO.C,Q5*
X134560000Y-92046905D02*
X134560000Y-91116905D01*
X134560000Y-88886905D02*
X134560000Y-89816905D01*
X134560000Y-88886905D02*
X132400000Y-88886905D01*
X134560000Y-92046905D02*
X133100000Y-92046905D01*
G04 #@! TO.C,Q4*
X110374000Y-120789815D02*
X108914000Y-120789815D01*
X110374000Y-117629815D02*
X108214000Y-117629815D01*
X110374000Y-117629815D02*
X110374000Y-118559815D01*
X110374000Y-120789815D02*
X110374000Y-119859815D01*
G04 #@! TO.C,D10*
D14*
X125928380Y-120387904D02*
X124928380Y-120387904D01*
X125928380Y-119816476D01*
X124928380Y-119816476D01*
X125833142Y-118768857D02*
X125880761Y-118816476D01*
X125928380Y-118959333D01*
X125928380Y-119054571D01*
X125880761Y-119197428D01*
X125785523Y-119292666D01*
X125690285Y-119340285D01*
X125499809Y-119387904D01*
X125356952Y-119387904D01*
X125166476Y-119340285D01*
X125071238Y-119292666D01*
X124976000Y-119197428D01*
X124928380Y-119054571D01*
X124928380Y-118959333D01*
X124976000Y-118816476D01*
X125023619Y-118768857D01*
X125261714Y-117911714D02*
X125928380Y-117911714D01*
X124880761Y-118149809D02*
X125595047Y-118387904D01*
X125595047Y-117768857D01*
G04 #@! TO.C,D9*
X125928380Y-105909904D02*
X124928380Y-105909904D01*
X125928380Y-105338476D01*
X124928380Y-105338476D01*
X125833142Y-104290857D02*
X125880761Y-104338476D01*
X125928380Y-104481333D01*
X125928380Y-104576571D01*
X125880761Y-104719428D01*
X125785523Y-104814666D01*
X125690285Y-104862285D01*
X125499809Y-104909904D01*
X125356952Y-104909904D01*
X125166476Y-104862285D01*
X125071238Y-104814666D01*
X124976000Y-104719428D01*
X124928380Y-104576571D01*
X124928380Y-104481333D01*
X124976000Y-104338476D01*
X125023619Y-104290857D01*
X124928380Y-103957523D02*
X124928380Y-103338476D01*
X125309333Y-103671809D01*
X125309333Y-103528952D01*
X125356952Y-103433714D01*
X125404571Y-103386095D01*
X125499809Y-103338476D01*
X125737904Y-103338476D01*
X125833142Y-103386095D01*
X125880761Y-103433714D01*
X125928380Y-103528952D01*
X125928380Y-103814666D01*
X125880761Y-103909904D01*
X125833142Y-103957523D01*
G04 #@! TO.C,D8*
X125928380Y-91939904D02*
X124928380Y-91939904D01*
X125928380Y-91368476D01*
X124928380Y-91368476D01*
X125833142Y-90320857D02*
X125880761Y-90368476D01*
X125928380Y-90511333D01*
X125928380Y-90606571D01*
X125880761Y-90749428D01*
X125785523Y-90844666D01*
X125690285Y-90892285D01*
X125499809Y-90939904D01*
X125356952Y-90939904D01*
X125166476Y-90892285D01*
X125071238Y-90844666D01*
X124976000Y-90749428D01*
X124928380Y-90606571D01*
X124928380Y-90511333D01*
X124976000Y-90368476D01*
X125023619Y-90320857D01*
X125023619Y-89939904D02*
X124976000Y-89892285D01*
X124928380Y-89797047D01*
X124928380Y-89558952D01*
X124976000Y-89463714D01*
X125023619Y-89416095D01*
X125118857Y-89368476D01*
X125214095Y-89368476D01*
X125356952Y-89416095D01*
X125928380Y-89987523D01*
X125928380Y-89368476D01*
G04 #@! TO.C,D7*
X125928380Y-77461904D02*
X124928380Y-77461904D01*
X125928380Y-76890476D01*
X124928380Y-76890476D01*
X125833142Y-75842857D02*
X125880761Y-75890476D01*
X125928380Y-76033333D01*
X125928380Y-76128571D01*
X125880761Y-76271428D01*
X125785523Y-76366666D01*
X125690285Y-76414285D01*
X125499809Y-76461904D01*
X125356952Y-76461904D01*
X125166476Y-76414285D01*
X125071238Y-76366666D01*
X124976000Y-76271428D01*
X124928380Y-76128571D01*
X124928380Y-76033333D01*
X124976000Y-75890476D01*
X125023619Y-75842857D01*
X125928380Y-74890476D02*
X125928380Y-75461904D01*
X125928380Y-75176190D02*
X124928380Y-75176190D01*
X125071238Y-75271428D01*
X125166476Y-75366666D01*
X125214095Y-75461904D01*
G04 #@! TO.C,D6*
X140212380Y-104744666D02*
X140212380Y-105220857D01*
X139212380Y-105220857D01*
X139307619Y-104458952D02*
X139260000Y-104411333D01*
X139212380Y-104316095D01*
X139212380Y-104078000D01*
X139260000Y-103982761D01*
X139307619Y-103935142D01*
X139402857Y-103887523D01*
X139498095Y-103887523D01*
X139640952Y-103935142D01*
X140212380Y-104506571D01*
X140212380Y-103887523D01*
G04 #@! TO.C,D5*
X140212380Y-90633571D02*
X140212380Y-91109762D01*
X139212380Y-91109762D01*
X140212380Y-89776428D02*
X140212380Y-90347857D01*
X140212380Y-90062143D02*
X139212380Y-90062143D01*
X139355238Y-90157381D01*
X139450476Y-90252619D01*
X139498095Y-90347857D01*
G04 #@! TO.C,D4*
X115996380Y-120495529D02*
X114996380Y-120495529D01*
X115996380Y-119924100D01*
X114996380Y-119924100D01*
X114996380Y-119257434D02*
X114996380Y-119066957D01*
X115044000Y-118971719D01*
X115139238Y-118876481D01*
X115329714Y-118828862D01*
X115663047Y-118828862D01*
X115853523Y-118876481D01*
X115948761Y-118971719D01*
X115996380Y-119066957D01*
X115996380Y-119257434D01*
X115948761Y-119352672D01*
X115853523Y-119447910D01*
X115663047Y-119495529D01*
X115329714Y-119495529D01*
X115139238Y-119447910D01*
X115044000Y-119352672D01*
X114996380Y-119257434D01*
X115329714Y-117971719D02*
X115996380Y-117971719D01*
X114948761Y-118209815D02*
X115663047Y-118447910D01*
X115663047Y-117828862D01*
G04 #@! TO.C,D3*
X116026380Y-105876439D02*
X115026380Y-105876439D01*
X116026380Y-105305010D01*
X115026380Y-105305010D01*
X115026380Y-104638344D02*
X115026380Y-104447867D01*
X115074000Y-104352629D01*
X115169238Y-104257391D01*
X115359714Y-104209772D01*
X115693047Y-104209772D01*
X115883523Y-104257391D01*
X115978761Y-104352629D01*
X116026380Y-104447867D01*
X116026380Y-104638344D01*
X115978761Y-104733582D01*
X115883523Y-104828820D01*
X115693047Y-104876439D01*
X115359714Y-104876439D01*
X115169238Y-104828820D01*
X115074000Y-104733582D01*
X115026380Y-104638344D01*
X115026380Y-103876439D02*
X115026380Y-103257391D01*
X115407333Y-103590725D01*
X115407333Y-103447867D01*
X115454952Y-103352629D01*
X115502571Y-103305010D01*
X115597809Y-103257391D01*
X115835904Y-103257391D01*
X115931142Y-103305010D01*
X115978761Y-103352629D01*
X116026380Y-103447867D01*
X116026380Y-103733582D01*
X115978761Y-103828820D01*
X115931142Y-103876439D01*
G04 #@! TO.C,D2*
X116026380Y-92019349D02*
X115026380Y-92019349D01*
X116026380Y-91447920D01*
X115026380Y-91447920D01*
X115026380Y-90781254D02*
X115026380Y-90590777D01*
X115074000Y-90495539D01*
X115169238Y-90400301D01*
X115359714Y-90352682D01*
X115693047Y-90352682D01*
X115883523Y-90400301D01*
X115978761Y-90495539D01*
X116026380Y-90590777D01*
X116026380Y-90781254D01*
X115978761Y-90876492D01*
X115883523Y-90971730D01*
X115693047Y-91019349D01*
X115359714Y-91019349D01*
X115169238Y-90971730D01*
X115074000Y-90876492D01*
X115026380Y-90781254D01*
X115121619Y-89971730D02*
X115074000Y-89924111D01*
X115026380Y-89828873D01*
X115026380Y-89590777D01*
X115074000Y-89495539D01*
X115121619Y-89447920D01*
X115216857Y-89400301D01*
X115312095Y-89400301D01*
X115454952Y-89447920D01*
X116026380Y-90019349D01*
X116026380Y-89400301D01*
G04 #@! TO.C,D1*
X116026380Y-77400259D02*
X115026380Y-77400259D01*
X116026380Y-76828830D01*
X115026380Y-76828830D01*
X115026380Y-76162164D02*
X115026380Y-75971687D01*
X115074000Y-75876449D01*
X115169238Y-75781211D01*
X115359714Y-75733592D01*
X115693047Y-75733592D01*
X115883523Y-75781211D01*
X115978761Y-75876449D01*
X116026380Y-75971687D01*
X116026380Y-76162164D01*
X115978761Y-76257402D01*
X115883523Y-76352640D01*
X115693047Y-76400259D01*
X115359714Y-76400259D01*
X115169238Y-76352640D01*
X115074000Y-76257402D01*
X115026380Y-76162164D01*
X116026380Y-74781211D02*
X116026380Y-75352640D01*
X116026380Y-75066925D02*
X115026380Y-75066925D01*
X115169238Y-75162164D01*
X115264476Y-75257402D01*
X115312095Y-75352640D01*
G04 #@! TO.C,R16*
X121845894Y-119852672D02*
X121369704Y-120186005D01*
X121845894Y-120424100D02*
X120845894Y-120424100D01*
X120845894Y-120043148D01*
X120893514Y-119947910D01*
X120941133Y-119900291D01*
X121036371Y-119852672D01*
X121179228Y-119852672D01*
X121274466Y-119900291D01*
X121322085Y-119947910D01*
X121369704Y-120043148D01*
X121369704Y-120424100D01*
X121845894Y-118900291D02*
X121845894Y-119471719D01*
X121845894Y-119186005D02*
X120845894Y-119186005D01*
X120988752Y-119281243D01*
X121083990Y-119376481D01*
X121131609Y-119471719D01*
X120845894Y-118043148D02*
X120845894Y-118233624D01*
X120893514Y-118328862D01*
X120941133Y-118376481D01*
X121083990Y-118471719D01*
X121274466Y-118519338D01*
X121655418Y-118519338D01*
X121750656Y-118471719D01*
X121798275Y-118424100D01*
X121845894Y-118328862D01*
X121845894Y-118138386D01*
X121798275Y-118043148D01*
X121750656Y-117995529D01*
X121655418Y-117947910D01*
X121417323Y-117947910D01*
X121322085Y-117995529D01*
X121274466Y-118043148D01*
X121226847Y-118138386D01*
X121226847Y-118328862D01*
X121274466Y-118424100D01*
X121322085Y-118471719D01*
X121417323Y-118519338D01*
G04 #@! TO.C,R13*
X121654059Y-76757402D02*
X121177869Y-77090735D01*
X121654059Y-77328830D02*
X120654059Y-77328830D01*
X120654059Y-76947878D01*
X120701679Y-76852640D01*
X120749298Y-76805021D01*
X120844536Y-76757402D01*
X120987393Y-76757402D01*
X121082631Y-76805021D01*
X121130250Y-76852640D01*
X121177869Y-76947878D01*
X121177869Y-77328830D01*
X121654059Y-75805021D02*
X121654059Y-76376449D01*
X121654059Y-76090735D02*
X120654059Y-76090735D01*
X120796917Y-76185973D01*
X120892155Y-76281211D01*
X120939774Y-76376449D01*
X120654059Y-75471687D02*
X120654059Y-74852640D01*
X121035012Y-75185973D01*
X121035012Y-75043116D01*
X121082631Y-74947878D01*
X121130250Y-74900259D01*
X121225488Y-74852640D01*
X121463583Y-74852640D01*
X121558821Y-74900259D01*
X121606440Y-74947878D01*
X121654059Y-75043116D01*
X121654059Y-75328830D01*
X121606440Y-75424068D01*
X121558821Y-75471687D01*
G04 #@! TO.C,R14*
X121779033Y-91376492D02*
X121302843Y-91709825D01*
X121779033Y-91947920D02*
X120779033Y-91947920D01*
X120779033Y-91566968D01*
X120826653Y-91471730D01*
X120874272Y-91424111D01*
X120969510Y-91376492D01*
X121112367Y-91376492D01*
X121207605Y-91424111D01*
X121255224Y-91471730D01*
X121302843Y-91566968D01*
X121302843Y-91947920D01*
X121779033Y-90424111D02*
X121779033Y-90995539D01*
X121779033Y-90709825D02*
X120779033Y-90709825D01*
X120921891Y-90805063D01*
X121017129Y-90900301D01*
X121064748Y-90995539D01*
X121112367Y-89566968D02*
X121779033Y-89566968D01*
X120731414Y-89805063D02*
X121445700Y-90043158D01*
X121445700Y-89424111D01*
G04 #@! TO.C,R15*
X121836110Y-105233582D02*
X121359920Y-105566915D01*
X121836110Y-105805010D02*
X120836110Y-105805010D01*
X120836110Y-105424058D01*
X120883730Y-105328820D01*
X120931349Y-105281201D01*
X121026587Y-105233582D01*
X121169444Y-105233582D01*
X121264682Y-105281201D01*
X121312301Y-105328820D01*
X121359920Y-105424058D01*
X121359920Y-105805010D01*
X121836110Y-104281201D02*
X121836110Y-104852629D01*
X121836110Y-104566915D02*
X120836110Y-104566915D01*
X120978968Y-104662153D01*
X121074206Y-104757391D01*
X121121825Y-104852629D01*
X120836110Y-103376439D02*
X120836110Y-103852629D01*
X121312301Y-103900248D01*
X121264682Y-103852629D01*
X121217063Y-103757391D01*
X121217063Y-103519296D01*
X121264682Y-103424058D01*
X121312301Y-103376439D01*
X121407539Y-103328820D01*
X121645634Y-103328820D01*
X121740872Y-103376439D01*
X121788491Y-103424058D01*
X121836110Y-103519296D01*
X121836110Y-103757391D01*
X121788491Y-103852629D01*
X121740872Y-103900248D01*
G04 #@! TO.C,R12*
X128214380Y-105544857D02*
X127738190Y-105878190D01*
X128214380Y-106116285D02*
X127214380Y-106116285D01*
X127214380Y-105735333D01*
X127262000Y-105640095D01*
X127309619Y-105592476D01*
X127404857Y-105544857D01*
X127547714Y-105544857D01*
X127642952Y-105592476D01*
X127690571Y-105640095D01*
X127738190Y-105735333D01*
X127738190Y-106116285D01*
X128214380Y-104592476D02*
X128214380Y-105163904D01*
X128214380Y-104878190D02*
X127214380Y-104878190D01*
X127357238Y-104973428D01*
X127452476Y-105068666D01*
X127500095Y-105163904D01*
X127309619Y-104211523D02*
X127262000Y-104163904D01*
X127214380Y-104068666D01*
X127214380Y-103830571D01*
X127262000Y-103735333D01*
X127309619Y-103687714D01*
X127404857Y-103640095D01*
X127500095Y-103640095D01*
X127642952Y-103687714D01*
X128214380Y-104259142D01*
X128214380Y-103640095D01*
G04 #@! TO.C,R7*
X104448380Y-76281211D02*
X103972190Y-76614545D01*
X104448380Y-76852640D02*
X103448380Y-76852640D01*
X103448380Y-76471687D01*
X103496000Y-76376449D01*
X103543619Y-76328830D01*
X103638857Y-76281211D01*
X103781714Y-76281211D01*
X103876952Y-76328830D01*
X103924571Y-76376449D01*
X103972190Y-76471687D01*
X103972190Y-76852640D01*
X103448380Y-75947878D02*
X103448380Y-75281211D01*
X104448380Y-75709783D01*
G04 #@! TO.C,R8*
X104448380Y-90900301D02*
X103972190Y-91233635D01*
X104448380Y-91471730D02*
X103448380Y-91471730D01*
X103448380Y-91090777D01*
X103496000Y-90995539D01*
X103543619Y-90947920D01*
X103638857Y-90900301D01*
X103781714Y-90900301D01*
X103876952Y-90947920D01*
X103924571Y-90995539D01*
X103972190Y-91090777D01*
X103972190Y-91471730D01*
X103876952Y-90328873D02*
X103829333Y-90424111D01*
X103781714Y-90471730D01*
X103686476Y-90519349D01*
X103638857Y-90519349D01*
X103543619Y-90471730D01*
X103496000Y-90424111D01*
X103448380Y-90328873D01*
X103448380Y-90138396D01*
X103496000Y-90043158D01*
X103543619Y-89995539D01*
X103638857Y-89947920D01*
X103686476Y-89947920D01*
X103781714Y-89995539D01*
X103829333Y-90043158D01*
X103876952Y-90138396D01*
X103876952Y-90328873D01*
X103924571Y-90424111D01*
X103972190Y-90471730D01*
X104067428Y-90519349D01*
X104257904Y-90519349D01*
X104353142Y-90471730D01*
X104400761Y-90424111D01*
X104448380Y-90328873D01*
X104448380Y-90138396D01*
X104400761Y-90043158D01*
X104353142Y-89995539D01*
X104257904Y-89947920D01*
X104067428Y-89947920D01*
X103972190Y-89995539D01*
X103924571Y-90043158D01*
X103876952Y-90138396D01*
G04 #@! TO.C,R9*
X104448380Y-104757391D02*
X103972190Y-105090725D01*
X104448380Y-105328820D02*
X103448380Y-105328820D01*
X103448380Y-104947867D01*
X103496000Y-104852629D01*
X103543619Y-104805010D01*
X103638857Y-104757391D01*
X103781714Y-104757391D01*
X103876952Y-104805010D01*
X103924571Y-104852629D01*
X103972190Y-104947867D01*
X103972190Y-105328820D01*
X104448380Y-104281201D02*
X104448380Y-104090725D01*
X104400761Y-103995486D01*
X104353142Y-103947867D01*
X104210285Y-103852629D01*
X104019809Y-103805010D01*
X103638857Y-103805010D01*
X103543619Y-103852629D01*
X103496000Y-103900248D01*
X103448380Y-103995486D01*
X103448380Y-104185963D01*
X103496000Y-104281201D01*
X103543619Y-104328820D01*
X103638857Y-104376439D01*
X103876952Y-104376439D01*
X103972190Y-104328820D01*
X104019809Y-104281201D01*
X104067428Y-104185963D01*
X104067428Y-103995486D01*
X104019809Y-103900248D01*
X103972190Y-103852629D01*
X103876952Y-103805010D01*
G04 #@! TO.C,R10*
X104378380Y-119852672D02*
X103902190Y-120186005D01*
X104378380Y-120424100D02*
X103378380Y-120424100D01*
X103378380Y-120043148D01*
X103426000Y-119947910D01*
X103473619Y-119900291D01*
X103568857Y-119852672D01*
X103711714Y-119852672D01*
X103806952Y-119900291D01*
X103854571Y-119947910D01*
X103902190Y-120043148D01*
X103902190Y-120424100D01*
X104378380Y-118900291D02*
X104378380Y-119471719D01*
X104378380Y-119186005D02*
X103378380Y-119186005D01*
X103521238Y-119281243D01*
X103616476Y-119376481D01*
X103664095Y-119471719D01*
X103378380Y-118281243D02*
X103378380Y-118186005D01*
X103426000Y-118090767D01*
X103473619Y-118043148D01*
X103568857Y-117995529D01*
X103759333Y-117947910D01*
X103997428Y-117947910D01*
X104187904Y-117995529D01*
X104283142Y-118043148D01*
X104330761Y-118090767D01*
X104378380Y-118186005D01*
X104378380Y-118281243D01*
X104330761Y-118376481D01*
X104283142Y-118424100D01*
X104187904Y-118471719D01*
X103997428Y-118519338D01*
X103759333Y-118519338D01*
X103568857Y-118471719D01*
X103473619Y-118424100D01*
X103426000Y-118376481D01*
X103378380Y-118281243D01*
G04 #@! TO.C,R11*
X128214380Y-91066857D02*
X127738190Y-91400190D01*
X128214380Y-91638285D02*
X127214380Y-91638285D01*
X127214380Y-91257333D01*
X127262000Y-91162095D01*
X127309619Y-91114476D01*
X127404857Y-91066857D01*
X127547714Y-91066857D01*
X127642952Y-91114476D01*
X127690571Y-91162095D01*
X127738190Y-91257333D01*
X127738190Y-91638285D01*
X128214380Y-90114476D02*
X128214380Y-90685904D01*
X128214380Y-90400190D02*
X127214380Y-90400190D01*
X127357238Y-90495428D01*
X127452476Y-90590666D01*
X127500095Y-90685904D01*
X128214380Y-89162095D02*
X128214380Y-89733523D01*
X128214380Y-89447809D02*
X127214380Y-89447809D01*
X127357238Y-89543047D01*
X127452476Y-89638285D01*
X127500095Y-89733523D01*
G04 #@! TO.C,R6*
X133945333Y-111958380D02*
X133612000Y-111482190D01*
X133373904Y-111958380D02*
X133373904Y-110958380D01*
X133754857Y-110958380D01*
X133850095Y-111006000D01*
X133897714Y-111053619D01*
X133945333Y-111148857D01*
X133945333Y-111291714D01*
X133897714Y-111386952D01*
X133850095Y-111434571D01*
X133754857Y-111482190D01*
X133373904Y-111482190D01*
X134802476Y-110958380D02*
X134612000Y-110958380D01*
X134516761Y-111006000D01*
X134469142Y-111053619D01*
X134373904Y-111196476D01*
X134326285Y-111386952D01*
X134326285Y-111767904D01*
X134373904Y-111863142D01*
X134421523Y-111910761D01*
X134516761Y-111958380D01*
X134707238Y-111958380D01*
X134802476Y-111910761D01*
X134850095Y-111863142D01*
X134897714Y-111767904D01*
X134897714Y-111529809D01*
X134850095Y-111434571D01*
X134802476Y-111386952D01*
X134707238Y-111339333D01*
X134516761Y-111339333D01*
X134421523Y-111386952D01*
X134373904Y-111434571D01*
X134326285Y-111529809D01*
G04 #@! TO.C,R5*
X133983333Y-97988380D02*
X133650000Y-97512190D01*
X133411904Y-97988380D02*
X133411904Y-96988380D01*
X133792857Y-96988380D01*
X133888095Y-97036000D01*
X133935714Y-97083619D01*
X133983333Y-97178857D01*
X133983333Y-97321714D01*
X133935714Y-97416952D01*
X133888095Y-97464571D01*
X133792857Y-97512190D01*
X133411904Y-97512190D01*
X134888095Y-96988380D02*
X134411904Y-96988380D01*
X134364285Y-97464571D01*
X134411904Y-97416952D01*
X134507142Y-97369333D01*
X134745238Y-97369333D01*
X134840476Y-97416952D01*
X134888095Y-97464571D01*
X134935714Y-97559809D01*
X134935714Y-97797904D01*
X134888095Y-97893142D01*
X134840476Y-97940761D01*
X134745238Y-97988380D01*
X134507142Y-97988380D01*
X134411904Y-97940761D01*
X134364285Y-97893142D01*
G04 #@! TO.C,R4*
X109623333Y-126436380D02*
X109290000Y-125960190D01*
X109051904Y-126436380D02*
X109051904Y-125436380D01*
X109432857Y-125436380D01*
X109528095Y-125484000D01*
X109575714Y-125531619D01*
X109623333Y-125626857D01*
X109623333Y-125769714D01*
X109575714Y-125864952D01*
X109528095Y-125912571D01*
X109432857Y-125960190D01*
X109051904Y-125960190D01*
X110480476Y-125769714D02*
X110480476Y-126436380D01*
X110242380Y-125388761D02*
X110004285Y-126103047D01*
X110623333Y-126103047D01*
G04 #@! TO.C,R3*
X109797333Y-111958380D02*
X109464000Y-111482190D01*
X109225904Y-111958380D02*
X109225904Y-110958380D01*
X109606857Y-110958380D01*
X109702095Y-111006000D01*
X109749714Y-111053619D01*
X109797333Y-111148857D01*
X109797333Y-111291714D01*
X109749714Y-111386952D01*
X109702095Y-111434571D01*
X109606857Y-111482190D01*
X109225904Y-111482190D01*
X110130666Y-110958380D02*
X110749714Y-110958380D01*
X110416380Y-111339333D01*
X110559238Y-111339333D01*
X110654476Y-111386952D01*
X110702095Y-111434571D01*
X110749714Y-111529809D01*
X110749714Y-111767904D01*
X110702095Y-111863142D01*
X110654476Y-111910761D01*
X110559238Y-111958380D01*
X110273523Y-111958380D01*
X110178285Y-111910761D01*
X110130666Y-111863142D01*
G04 #@! TO.C,R2*
X109797333Y-97988380D02*
X109464000Y-97512190D01*
X109225904Y-97988380D02*
X109225904Y-96988380D01*
X109606857Y-96988380D01*
X109702095Y-97036000D01*
X109749714Y-97083619D01*
X109797333Y-97178857D01*
X109797333Y-97321714D01*
X109749714Y-97416952D01*
X109702095Y-97464571D01*
X109606857Y-97512190D01*
X109225904Y-97512190D01*
X110178285Y-97083619D02*
X110225904Y-97036000D01*
X110321142Y-96988380D01*
X110559238Y-96988380D01*
X110654476Y-97036000D01*
X110702095Y-97083619D01*
X110749714Y-97178857D01*
X110749714Y-97274095D01*
X110702095Y-97416952D01*
X110130666Y-97988380D01*
X110749714Y-97988380D01*
G04 #@! TO.C,R1*
X109797333Y-80032380D02*
X109464000Y-79556190D01*
X109225904Y-80032380D02*
X109225904Y-79032380D01*
X109606857Y-79032380D01*
X109702095Y-79080000D01*
X109749714Y-79127619D01*
X109797333Y-79222857D01*
X109797333Y-79365714D01*
X109749714Y-79460952D01*
X109702095Y-79508571D01*
X109606857Y-79556190D01*
X109225904Y-79556190D01*
X110749714Y-80032380D02*
X110178285Y-80032380D01*
X110464000Y-80032380D02*
X110464000Y-79032380D01*
X110368761Y-79175238D01*
X110273523Y-79270476D01*
X110178285Y-79318095D01*
G04 #@! TO.C,J1*
X97456666Y-80688380D02*
X97456666Y-81402666D01*
X97409047Y-81545523D01*
X97313809Y-81640761D01*
X97170952Y-81688380D01*
X97075714Y-81688380D01*
X98456666Y-81688380D02*
X97885238Y-81688380D01*
X98170952Y-81688380D02*
X98170952Y-80688380D01*
X98075714Y-80831238D01*
X97980476Y-80926476D01*
X97885238Y-80974095D01*
G04 #@! TO.C,Q6*
X133704761Y-102625619D02*
X133609523Y-102578000D01*
X133514285Y-102482761D01*
X133371428Y-102339904D01*
X133276190Y-102292285D01*
X133180952Y-102292285D01*
X133228571Y-102530380D02*
X133133333Y-102482761D01*
X133038095Y-102387523D01*
X132990476Y-102197047D01*
X132990476Y-101863714D01*
X133038095Y-101673238D01*
X133133333Y-101578000D01*
X133228571Y-101530380D01*
X133419047Y-101530380D01*
X133514285Y-101578000D01*
X133609523Y-101673238D01*
X133657142Y-101863714D01*
X133657142Y-102197047D01*
X133609523Y-102387523D01*
X133514285Y-102482761D01*
X133419047Y-102530380D01*
X133228571Y-102530380D01*
X134514285Y-101530380D02*
X134323809Y-101530380D01*
X134228571Y-101578000D01*
X134180952Y-101625619D01*
X134085714Y-101768476D01*
X134038095Y-101958952D01*
X134038095Y-102339904D01*
X134085714Y-102435142D01*
X134133333Y-102482761D01*
X134228571Y-102530380D01*
X134419047Y-102530380D01*
X134514285Y-102482761D01*
X134561904Y-102435142D01*
X134609523Y-102339904D01*
X134609523Y-102101809D01*
X134561904Y-102006571D01*
X134514285Y-101958952D01*
X134419047Y-101911333D01*
X134228571Y-101911333D01*
X134133333Y-101958952D01*
X134085714Y-102006571D01*
X134038095Y-102101809D01*
G04 #@! TO.C,Q1*
X109518761Y-74162164D02*
X109423523Y-74114545D01*
X109328285Y-74019306D01*
X109185428Y-73876449D01*
X109090190Y-73828830D01*
X108994952Y-73828830D01*
X109042571Y-74066925D02*
X108947333Y-74019306D01*
X108852095Y-73924068D01*
X108804476Y-73733592D01*
X108804476Y-73400259D01*
X108852095Y-73209783D01*
X108947333Y-73114545D01*
X109042571Y-73066925D01*
X109233047Y-73066925D01*
X109328285Y-73114545D01*
X109423523Y-73209783D01*
X109471142Y-73400259D01*
X109471142Y-73733592D01*
X109423523Y-73924068D01*
X109328285Y-74019306D01*
X109233047Y-74066925D01*
X109042571Y-74066925D01*
X110423523Y-74066925D02*
X109852095Y-74066925D01*
X110137809Y-74066925D02*
X110137809Y-73066925D01*
X110042571Y-73209783D01*
X109947333Y-73305021D01*
X109852095Y-73352640D01*
G04 #@! TO.C,Q2*
X109518761Y-88527254D02*
X109423523Y-88479635D01*
X109328285Y-88384396D01*
X109185428Y-88241539D01*
X109090190Y-88193920D01*
X108994952Y-88193920D01*
X109042571Y-88432015D02*
X108947333Y-88384396D01*
X108852095Y-88289158D01*
X108804476Y-88098682D01*
X108804476Y-87765349D01*
X108852095Y-87574873D01*
X108947333Y-87479635D01*
X109042571Y-87432015D01*
X109233047Y-87432015D01*
X109328285Y-87479635D01*
X109423523Y-87574873D01*
X109471142Y-87765349D01*
X109471142Y-88098682D01*
X109423523Y-88289158D01*
X109328285Y-88384396D01*
X109233047Y-88432015D01*
X109042571Y-88432015D01*
X109852095Y-87527254D02*
X109899714Y-87479635D01*
X109994952Y-87432015D01*
X110233047Y-87432015D01*
X110328285Y-87479635D01*
X110375904Y-87527254D01*
X110423523Y-87622492D01*
X110423523Y-87717730D01*
X110375904Y-87860587D01*
X109804476Y-88432015D01*
X110423523Y-88432015D01*
G04 #@! TO.C,Q3*
X109518761Y-102892344D02*
X109423523Y-102844725D01*
X109328285Y-102749486D01*
X109185428Y-102606629D01*
X109090190Y-102559010D01*
X108994952Y-102559010D01*
X109042571Y-102797105D02*
X108947333Y-102749486D01*
X108852095Y-102654248D01*
X108804476Y-102463772D01*
X108804476Y-102130439D01*
X108852095Y-101939963D01*
X108947333Y-101844725D01*
X109042571Y-101797105D01*
X109233047Y-101797105D01*
X109328285Y-101844725D01*
X109423523Y-101939963D01*
X109471142Y-102130439D01*
X109471142Y-102463772D01*
X109423523Y-102654248D01*
X109328285Y-102749486D01*
X109233047Y-102797105D01*
X109042571Y-102797105D01*
X109804476Y-101797105D02*
X110423523Y-101797105D01*
X110090190Y-102178058D01*
X110233047Y-102178058D01*
X110328285Y-102225677D01*
X110375904Y-102273296D01*
X110423523Y-102368534D01*
X110423523Y-102606629D01*
X110375904Y-102701867D01*
X110328285Y-102749486D01*
X110233047Y-102797105D01*
X109947333Y-102797105D01*
X109852095Y-102749486D01*
X109804476Y-102701867D01*
G04 #@! TO.C,Q5*
X133704761Y-88514524D02*
X133609523Y-88466905D01*
X133514285Y-88371666D01*
X133371428Y-88228809D01*
X133276190Y-88181190D01*
X133180952Y-88181190D01*
X133228571Y-88419285D02*
X133133333Y-88371666D01*
X133038095Y-88276428D01*
X132990476Y-88085952D01*
X132990476Y-87752619D01*
X133038095Y-87562143D01*
X133133333Y-87466905D01*
X133228571Y-87419285D01*
X133419047Y-87419285D01*
X133514285Y-87466905D01*
X133609523Y-87562143D01*
X133657142Y-87752619D01*
X133657142Y-88085952D01*
X133609523Y-88276428D01*
X133514285Y-88371666D01*
X133419047Y-88419285D01*
X133228571Y-88419285D01*
X134561904Y-87419285D02*
X134085714Y-87419285D01*
X134038095Y-87895476D01*
X134085714Y-87847857D01*
X134180952Y-87800238D01*
X134419047Y-87800238D01*
X134514285Y-87847857D01*
X134561904Y-87895476D01*
X134609523Y-87990714D01*
X134609523Y-88228809D01*
X134561904Y-88324047D01*
X134514285Y-88371666D01*
X134419047Y-88419285D01*
X134180952Y-88419285D01*
X134085714Y-88371666D01*
X134038095Y-88324047D01*
G04 #@! TO.C,Q4*
X109518761Y-117257434D02*
X109423523Y-117209815D01*
X109328285Y-117114576D01*
X109185428Y-116971719D01*
X109090190Y-116924100D01*
X108994952Y-116924100D01*
X109042571Y-117162195D02*
X108947333Y-117114576D01*
X108852095Y-117019338D01*
X108804476Y-116828862D01*
X108804476Y-116495529D01*
X108852095Y-116305053D01*
X108947333Y-116209815D01*
X109042571Y-116162195D01*
X109233047Y-116162195D01*
X109328285Y-116209815D01*
X109423523Y-116305053D01*
X109471142Y-116495529D01*
X109471142Y-116828862D01*
X109423523Y-117019338D01*
X109328285Y-117114576D01*
X109233047Y-117162195D01*
X109042571Y-117162195D01*
X110328285Y-116495529D02*
X110328285Y-117162195D01*
X110090190Y-116114576D02*
X109852095Y-116828862D01*
X110471142Y-116828862D01*
G04 #@! TD*
M02*
