G04 #@! TF.GenerationSoftware,KiCad,Pcbnew,5.0.1*
G04 #@! TF.CreationDate,2019-01-22T15:06:49+05:30*
G04 #@! TF.ProjectId,switches,73776974636865732E6B696361645F70,rev?*
G04 #@! TF.SameCoordinates,Original*
G04 #@! TF.FileFunction,Paste,Top*
G04 #@! TF.FilePolarity,Positive*
%FSLAX46Y46*%
G04 Gerber Fmt 4.6, Leading zero omitted, Abs format (unit mm)*
G04 Created by KiCad (PCBNEW 5.0.1) date Tue 22 Jan 2019 03:06:49 PM IST*
%MOMM*%
%LPD*%
G01*
G04 APERTURE LIST*
%ADD10R,1.700000X2.000000*%
%ADD11R,1.300000X1.500000*%
%ADD12R,1.500000X1.300000*%
%ADD13R,0.900000X0.800000*%
G04 APERTURE END LIST*
D10*
G04 #@! TO.C,D10*
X123249514Y-117209815D03*
X123249514Y-121209815D03*
G04 #@! TD*
G04 #@! TO.C,D9*
X123239730Y-106590725D03*
X123239730Y-102590725D03*
G04 #@! TD*
G04 #@! TO.C,D8*
X123182653Y-88733635D03*
X123182653Y-92733635D03*
G04 #@! TD*
G04 #@! TO.C,D7*
X123057679Y-78114545D03*
X123057679Y-74114545D03*
G04 #@! TD*
G04 #@! TO.C,D6*
X137860000Y-106578000D03*
X137860000Y-102578000D03*
G04 #@! TD*
G04 #@! TO.C,D5*
X137860000Y-88466905D03*
X137860000Y-92466905D03*
G04 #@! TD*
G04 #@! TO.C,D4*
X113644000Y-121209815D03*
X113644000Y-117209815D03*
G04 #@! TD*
G04 #@! TO.C,D3*
X113674000Y-102590725D03*
X113674000Y-106590725D03*
G04 #@! TD*
G04 #@! TO.C,D2*
X113674000Y-92733635D03*
X113674000Y-88733635D03*
G04 #@! TD*
G04 #@! TO.C,D1*
X113674000Y-74114545D03*
X113674000Y-78114545D03*
G04 #@! TD*
D11*
G04 #@! TO.C,R16*
X119693514Y-117859815D03*
X119693514Y-120559815D03*
G04 #@! TD*
G04 #@! TO.C,R13*
X119501679Y-77464545D03*
X119501679Y-74764545D03*
G04 #@! TD*
G04 #@! TO.C,R14*
X119626653Y-89383635D03*
X119626653Y-92083635D03*
G04 #@! TD*
G04 #@! TO.C,R15*
X119683730Y-105940725D03*
X119683730Y-103240725D03*
G04 #@! TD*
G04 #@! TO.C,R12*
X129862000Y-106018000D03*
X129862000Y-103318000D03*
G04 #@! TD*
G04 #@! TO.C,R7*
X105696000Y-74764545D03*
X105696000Y-77464545D03*
G04 #@! TD*
G04 #@! TO.C,R8*
X105696000Y-92083635D03*
X105696000Y-89383635D03*
G04 #@! TD*
G04 #@! TO.C,R9*
X105696000Y-103240725D03*
X105696000Y-105940725D03*
G04 #@! TD*
G04 #@! TO.C,R10*
X105626000Y-120559815D03*
X105626000Y-117859815D03*
G04 #@! TD*
G04 #@! TO.C,R11*
X129862000Y-89116905D03*
X129862000Y-91816905D03*
G04 #@! TD*
D12*
G04 #@! TO.C,R6*
X132450000Y-100443450D03*
X135150000Y-100443450D03*
G04 #@! TD*
G04 #@! TO.C,R5*
X132508000Y-86360000D03*
X135208000Y-86360000D03*
G04 #@! TD*
G04 #@! TO.C,R4*
X108264000Y-115075270D03*
X110964000Y-115075270D03*
G04 #@! TD*
G04 #@! TO.C,R3*
X110964000Y-100456180D03*
X108264000Y-100456180D03*
G04 #@! TD*
G04 #@! TO.C,R2*
X108264000Y-86599090D03*
X110964000Y-86599090D03*
G04 #@! TD*
G04 #@! TO.C,R1*
X110964000Y-71980000D03*
X108264000Y-71980000D03*
G04 #@! TD*
D13*
G04 #@! TO.C,Q6*
X132800000Y-103628000D03*
X132800000Y-105528000D03*
X134800000Y-104578000D03*
G04 #@! TD*
G04 #@! TO.C,Q1*
X110614000Y-76114545D03*
X108614000Y-77064545D03*
X108614000Y-75164545D03*
G04 #@! TD*
G04 #@! TO.C,Q2*
X108614000Y-89529635D03*
X108614000Y-91429635D03*
X110614000Y-90479635D03*
G04 #@! TD*
G04 #@! TO.C,Q3*
X110614000Y-104844725D03*
X108614000Y-105794725D03*
X108614000Y-103894725D03*
G04 #@! TD*
G04 #@! TO.C,Q5*
X132800000Y-89516905D03*
X132800000Y-91416905D03*
X134800000Y-90466905D03*
G04 #@! TD*
G04 #@! TO.C,Q4*
X110614000Y-119209815D03*
X108614000Y-120159815D03*
X108614000Y-118259815D03*
G04 #@! TD*
M02*
