G04 #@! TF.GenerationSoftware,KiCad,Pcbnew,5.0.1*
G04 #@! TF.CreationDate,2019-01-22T15:06:49+05:30*
G04 #@! TF.ProjectId,switches,73776974636865732E6B696361645F70,rev?*
G04 #@! TF.SameCoordinates,Original*
G04 #@! TF.FileFunction,Legend,Bot*
G04 #@! TF.FilePolarity,Positive*
%FSLAX46Y46*%
G04 Gerber Fmt 4.6, Leading zero omitted, Abs format (unit mm)*
G04 Created by KiCad (PCBNEW 5.0.1) date Tue 22 Jan 2019 03:06:49 PM IST*
%MOMM*%
%LPD*%
G01*
G04 APERTURE LIST*
%ADD10C,0.150000*%
G04 APERTURE END LIST*
G04 #@! TO.C,J12*
D10*
X138898380Y-103838476D02*
X139612666Y-103838476D01*
X139755523Y-103790857D01*
X139850761Y-103695619D01*
X139898380Y-103552761D01*
X139898380Y-103457523D01*
X139898380Y-104838476D02*
X139898380Y-104267047D01*
X139898380Y-104552761D02*
X138898380Y-104552761D01*
X139041238Y-104457523D01*
X139136476Y-104362285D01*
X139184095Y-104267047D01*
X138993619Y-105219428D02*
X138946000Y-105267047D01*
X138898380Y-105362285D01*
X138898380Y-105600380D01*
X138946000Y-105695619D01*
X138993619Y-105743238D01*
X139088857Y-105790857D01*
X139184095Y-105790857D01*
X139326952Y-105743238D01*
X139898380Y-105171809D01*
X139898380Y-105790857D01*
G04 #@! TO.C,J11*
X138898380Y-89868476D02*
X139612666Y-89868476D01*
X139755523Y-89820857D01*
X139850761Y-89725619D01*
X139898380Y-89582761D01*
X139898380Y-89487523D01*
X139898380Y-90868476D02*
X139898380Y-90297047D01*
X139898380Y-90582761D02*
X138898380Y-90582761D01*
X139041238Y-90487523D01*
X139136476Y-90392285D01*
X139184095Y-90297047D01*
X139898380Y-91820857D02*
X139898380Y-91249428D01*
X139898380Y-91535142D02*
X138898380Y-91535142D01*
X139041238Y-91439904D01*
X139136476Y-91344666D01*
X139184095Y-91249428D01*
G04 #@! TO.C,J10*
X125944380Y-118316476D02*
X126658666Y-118316476D01*
X126801523Y-118268857D01*
X126896761Y-118173619D01*
X126944380Y-118030761D01*
X126944380Y-117935523D01*
X126944380Y-119316476D02*
X126944380Y-118745047D01*
X126944380Y-119030761D02*
X125944380Y-119030761D01*
X126087238Y-118935523D01*
X126182476Y-118840285D01*
X126230095Y-118745047D01*
X125944380Y-119935523D02*
X125944380Y-120030761D01*
X125992000Y-120126000D01*
X126039619Y-120173619D01*
X126134857Y-120221238D01*
X126325333Y-120268857D01*
X126563428Y-120268857D01*
X126753904Y-120221238D01*
X126849142Y-120173619D01*
X126896761Y-120126000D01*
X126944380Y-120030761D01*
X126944380Y-119935523D01*
X126896761Y-119840285D01*
X126849142Y-119792666D01*
X126753904Y-119745047D01*
X126563428Y-119697428D01*
X126325333Y-119697428D01*
X126134857Y-119745047D01*
X126039619Y-119792666D01*
X125992000Y-119840285D01*
X125944380Y-119935523D01*
G04 #@! TO.C,J9*
X125944380Y-104314666D02*
X126658666Y-104314666D01*
X126801523Y-104267047D01*
X126896761Y-104171809D01*
X126944380Y-104028952D01*
X126944380Y-103933714D01*
X126944380Y-104838476D02*
X126944380Y-105028952D01*
X126896761Y-105124190D01*
X126849142Y-105171809D01*
X126706285Y-105267047D01*
X126515809Y-105314666D01*
X126134857Y-105314666D01*
X126039619Y-105267047D01*
X125992000Y-105219428D01*
X125944380Y-105124190D01*
X125944380Y-104933714D01*
X125992000Y-104838476D01*
X126039619Y-104790857D01*
X126134857Y-104743238D01*
X126372952Y-104743238D01*
X126468190Y-104790857D01*
X126515809Y-104838476D01*
X126563428Y-104933714D01*
X126563428Y-105124190D01*
X126515809Y-105219428D01*
X126468190Y-105267047D01*
X126372952Y-105314666D01*
G04 #@! TO.C,J8*
X125944380Y-90344666D02*
X126658666Y-90344666D01*
X126801523Y-90297047D01*
X126896761Y-90201809D01*
X126944380Y-90058952D01*
X126944380Y-89963714D01*
X126372952Y-90963714D02*
X126325333Y-90868476D01*
X126277714Y-90820857D01*
X126182476Y-90773238D01*
X126134857Y-90773238D01*
X126039619Y-90820857D01*
X125992000Y-90868476D01*
X125944380Y-90963714D01*
X125944380Y-91154190D01*
X125992000Y-91249428D01*
X126039619Y-91297047D01*
X126134857Y-91344666D01*
X126182476Y-91344666D01*
X126277714Y-91297047D01*
X126325333Y-91249428D01*
X126372952Y-91154190D01*
X126372952Y-90963714D01*
X126420571Y-90868476D01*
X126468190Y-90820857D01*
X126563428Y-90773238D01*
X126753904Y-90773238D01*
X126849142Y-90820857D01*
X126896761Y-90868476D01*
X126944380Y-90963714D01*
X126944380Y-91154190D01*
X126896761Y-91249428D01*
X126849142Y-91297047D01*
X126753904Y-91344666D01*
X126563428Y-91344666D01*
X126468190Y-91297047D01*
X126420571Y-91249428D01*
X126372952Y-91154190D01*
G04 #@! TO.C,J7*
X125690380Y-75866666D02*
X126404666Y-75866666D01*
X126547523Y-75819047D01*
X126642761Y-75723809D01*
X126690380Y-75580952D01*
X126690380Y-75485714D01*
X125690380Y-76247619D02*
X125690380Y-76914285D01*
X126690380Y-76485714D01*
G04 #@! TO.C,J6*
X112990380Y-118792666D02*
X113704666Y-118792666D01*
X113847523Y-118745047D01*
X113942761Y-118649809D01*
X113990380Y-118506952D01*
X113990380Y-118411714D01*
X112990380Y-119697428D02*
X112990380Y-119506952D01*
X113038000Y-119411714D01*
X113085619Y-119364095D01*
X113228476Y-119268857D01*
X113418952Y-119221238D01*
X113799904Y-119221238D01*
X113895142Y-119268857D01*
X113942761Y-119316476D01*
X113990380Y-119411714D01*
X113990380Y-119602190D01*
X113942761Y-119697428D01*
X113895142Y-119745047D01*
X113799904Y-119792666D01*
X113561809Y-119792666D01*
X113466571Y-119745047D01*
X113418952Y-119697428D01*
X113371333Y-119602190D01*
X113371333Y-119411714D01*
X113418952Y-119316476D01*
X113466571Y-119268857D01*
X113561809Y-119221238D01*
G04 #@! TO.C,J5*
X112990380Y-104314666D02*
X113704666Y-104314666D01*
X113847523Y-104267047D01*
X113942761Y-104171809D01*
X113990380Y-104028952D01*
X113990380Y-103933714D01*
X112990380Y-105267047D02*
X112990380Y-104790857D01*
X113466571Y-104743238D01*
X113418952Y-104790857D01*
X113371333Y-104886095D01*
X113371333Y-105124190D01*
X113418952Y-105219428D01*
X113466571Y-105267047D01*
X113561809Y-105314666D01*
X113799904Y-105314666D01*
X113895142Y-105267047D01*
X113942761Y-105219428D01*
X113990380Y-105124190D01*
X113990380Y-104886095D01*
X113942761Y-104790857D01*
X113895142Y-104743238D01*
G04 #@! TO.C,J4*
X112990380Y-90344666D02*
X113704666Y-90344666D01*
X113847523Y-90297047D01*
X113942761Y-90201809D01*
X113990380Y-90058952D01*
X113990380Y-89963714D01*
X113323714Y-91249428D02*
X113990380Y-91249428D01*
X112942761Y-91011333D02*
X113657047Y-90773238D01*
X113657047Y-91392285D01*
G04 #@! TO.C,J3*
X113244380Y-75866666D02*
X113958666Y-75866666D01*
X114101523Y-75819047D01*
X114196761Y-75723809D01*
X114244380Y-75580952D01*
X114244380Y-75485714D01*
X113244380Y-76247619D02*
X113244380Y-76866666D01*
X113625333Y-76533333D01*
X113625333Y-76676190D01*
X113672952Y-76771428D01*
X113720571Y-76819047D01*
X113815809Y-76866666D01*
X114053904Y-76866666D01*
X114149142Y-76819047D01*
X114196761Y-76771428D01*
X114244380Y-76676190D01*
X114244380Y-76390476D01*
X114196761Y-76295238D01*
X114149142Y-76247619D01*
G04 #@! TO.C,J2*
X138898380Y-61388666D02*
X139612666Y-61388666D01*
X139755523Y-61341047D01*
X139850761Y-61245809D01*
X139898380Y-61102952D01*
X139898380Y-61007714D01*
X138993619Y-61817238D02*
X138946000Y-61864857D01*
X138898380Y-61960095D01*
X138898380Y-62198190D01*
X138946000Y-62293428D01*
X138993619Y-62341047D01*
X139088857Y-62388666D01*
X139184095Y-62388666D01*
X139326952Y-62341047D01*
X139898380Y-61769619D01*
X139898380Y-62388666D01*
G04 #@! TD*
M02*
