M48
;DRILL file {KiCad 5.0.1} date Wed 20 Mar 2019 01:16:09 PM IST
;FORMAT={-:-/ absolute / metric / decimal}
FMAT,2
METRIC,TZ
T1C0.600
T2C1.000
%
G90
G05
M71
T1
X102.362Y-109.728
X102.616Y-105.156
X102.616Y-119.38
X102.87Y-76.708
X102.87Y-91.44
X103.967Y-113.062
X121.412Y-71.628
X121.412Y-86.36
X121.412Y-100.33
X121.412Y-114.808
X122.428Y-76.165
X122.682Y-90.678
X122.682Y-104.641
X122.682Y-119.126
X130.302Y-94.996
X130.302Y-108.966
X133.096Y-66.294
X135.89Y-86.36
X135.89Y-100.33
T2
X97.79Y-83.566
X97.79Y-86.106
X97.79Y-88.646
X97.79Y-91.186
X97.79Y-93.726
X97.79Y-96.266
X97.79Y-98.806
X97.79Y-101.346
X97.79Y-103.886
X97.79Y-106.426
X97.79Y-108.966
X97.79Y-111.506
T0
M30
