G04 #@! TF.FileFunction,Other,User*
%FSLAX46Y46*%
G04 Gerber Fmt 4.6, Leading zero omitted, Abs format (unit mm)*
G04 Created by KiCad (PCBNEW 201611211049+7371~55~ubuntu16.10.1-product) date Mon Dec 19 15:07:25 2016*
%MOMM*%
%LPD*%
G01*
G04 APERTURE LIST*
%ADD10C,0.100000*%
%ADD11C,0.050000*%
G04 APERTURE END LIST*
D10*
D11*
X112274000Y-103906000D02*
G75*
G03X112274000Y-103906000I-2800000J0D01*
G01*
X112147000Y-94849000D02*
G75*
G03X112147000Y-94849000I-2800000J0D01*
G01*
X204043000Y-72120000D02*
X204043000Y-92970000D01*
X204043000Y-92970000D02*
X194443000Y-92970000D01*
X194443000Y-92970000D02*
X194443000Y-72120000D01*
X194443000Y-72120000D02*
X204043000Y-72120000D01*
X94766000Y-120249000D02*
X94766000Y-107599000D01*
X97766000Y-120249000D02*
X94766000Y-120249000D01*
X94766000Y-107599000D02*
X97766000Y-107599000D01*
X97766000Y-120249000D02*
X97766000Y-107599000D01*
X139663000Y-93475000D02*
X192863000Y-93475000D01*
X139663000Y-75425000D02*
X192863000Y-75425000D01*
X139663000Y-93475000D02*
X139663000Y-75425000D01*
X192863000Y-93475000D02*
X192863000Y-75425000D01*
X166442000Y-110838000D02*
X175442000Y-110838000D01*
X175442000Y-110838000D02*
X175442000Y-103538000D01*
X175442000Y-103538000D02*
X166442000Y-103538000D01*
X166442000Y-103538000D02*
X166442000Y-110838000D01*
X163973000Y-102257000D02*
X163973000Y-98657000D01*
X165973000Y-102257000D02*
X165973000Y-98657000D01*
X163973000Y-102257000D02*
X165973000Y-102257000D01*
X163973000Y-98657000D02*
X165973000Y-98657000D01*
X167618000Y-100600000D02*
X171218000Y-100600000D01*
X167618000Y-102600000D02*
X171218000Y-102600000D01*
X167618000Y-100600000D02*
X167618000Y-102600000D01*
X171218000Y-100600000D02*
X171218000Y-102600000D01*
X165846000Y-94212000D02*
X165846000Y-97812000D01*
X163846000Y-94212000D02*
X163846000Y-97812000D01*
X165846000Y-94212000D02*
X163846000Y-94212000D01*
X165846000Y-97812000D02*
X163846000Y-97812000D01*
X94747000Y-90231000D02*
X94747000Y-88331000D01*
X94747000Y-88331000D02*
X98547000Y-88331000D01*
X98547000Y-88331000D02*
X98547000Y-90231000D01*
X98547000Y-90231000D02*
X94747000Y-90231000D01*
X101374000Y-52352000D02*
X101374000Y-58402000D01*
X112524000Y-52352000D02*
X112524000Y-58402000D01*
X101374000Y-52352000D02*
X112524000Y-52352000D01*
X101374000Y-58402000D02*
X112524000Y-58402000D01*
X99873000Y-88408000D02*
X103073000Y-88408000D01*
X99873000Y-90408000D02*
X103073000Y-90408000D01*
X99873000Y-88408000D02*
X99873000Y-90408000D01*
X103073000Y-88408000D02*
X103073000Y-90408000D01*
X179435000Y-98222000D02*
X179435000Y-101422000D01*
X177435000Y-98222000D02*
X177435000Y-101422000D01*
X179435000Y-98222000D02*
X177435000Y-98222000D01*
X179435000Y-101422000D02*
X177435000Y-101422000D01*
X182102000Y-98222000D02*
X182102000Y-101422000D01*
X180102000Y-98222000D02*
X180102000Y-101422000D01*
X182102000Y-98222000D02*
X180102000Y-98222000D01*
X182102000Y-101422000D02*
X180102000Y-101422000D01*
X184896000Y-98222000D02*
X184896000Y-101422000D01*
X182896000Y-98222000D02*
X182896000Y-101422000D01*
X184896000Y-98222000D02*
X182896000Y-98222000D01*
X184896000Y-101422000D02*
X182896000Y-101422000D01*
X187690000Y-98222000D02*
X187690000Y-101422000D01*
X185690000Y-98222000D02*
X185690000Y-101422000D01*
X187690000Y-98222000D02*
X185690000Y-98222000D01*
X187690000Y-101422000D02*
X185690000Y-101422000D01*
X190484000Y-98222000D02*
X190484000Y-101422000D01*
X188484000Y-98222000D02*
X188484000Y-101422000D01*
X190484000Y-98222000D02*
X188484000Y-98222000D01*
X190484000Y-101422000D02*
X188484000Y-101422000D01*
X193278000Y-98222000D02*
X193278000Y-101422000D01*
X191278000Y-98222000D02*
X191278000Y-101422000D01*
X193278000Y-98222000D02*
X191278000Y-98222000D01*
X193278000Y-101422000D02*
X191278000Y-101422000D01*
X196072000Y-98222000D02*
X196072000Y-101422000D01*
X194072000Y-98222000D02*
X194072000Y-101422000D01*
X196072000Y-98222000D02*
X194072000Y-98222000D01*
X196072000Y-101422000D02*
X194072000Y-101422000D01*
X198866000Y-98222000D02*
X198866000Y-101422000D01*
X196866000Y-98222000D02*
X196866000Y-101422000D01*
X198866000Y-98222000D02*
X196866000Y-98222000D01*
X198866000Y-101422000D02*
X196866000Y-101422000D01*
X139208000Y-65989000D02*
X139208000Y-62789000D01*
X141208000Y-65989000D02*
X141208000Y-62789000D01*
X139208000Y-65989000D02*
X141208000Y-65989000D01*
X139208000Y-62789000D02*
X141208000Y-62789000D01*
X142002000Y-65989000D02*
X142002000Y-62789000D01*
X144002000Y-65989000D02*
X144002000Y-62789000D01*
X142002000Y-65989000D02*
X144002000Y-65989000D01*
X142002000Y-62789000D02*
X144002000Y-62789000D01*
X144796000Y-65989000D02*
X144796000Y-62789000D01*
X146796000Y-65989000D02*
X146796000Y-62789000D01*
X144796000Y-65989000D02*
X146796000Y-65989000D01*
X144796000Y-62789000D02*
X146796000Y-62789000D01*
X147590000Y-65989000D02*
X147590000Y-62789000D01*
X149590000Y-65989000D02*
X149590000Y-62789000D01*
X147590000Y-65989000D02*
X149590000Y-65989000D01*
X147590000Y-62789000D02*
X149590000Y-62789000D01*
X150384000Y-65989000D02*
X150384000Y-62789000D01*
X152384000Y-65989000D02*
X152384000Y-62789000D01*
X150384000Y-65989000D02*
X152384000Y-65989000D01*
X150384000Y-62789000D02*
X152384000Y-62789000D01*
X153178000Y-65989000D02*
X153178000Y-62789000D01*
X155178000Y-65989000D02*
X155178000Y-62789000D01*
X153178000Y-65989000D02*
X155178000Y-65989000D01*
X153178000Y-62789000D02*
X155178000Y-62789000D01*
X155972000Y-65989000D02*
X155972000Y-62789000D01*
X157972000Y-65989000D02*
X157972000Y-62789000D01*
X155972000Y-65989000D02*
X157972000Y-65989000D01*
X155972000Y-62789000D02*
X157972000Y-62789000D01*
X158766000Y-65989000D02*
X158766000Y-62789000D01*
X160766000Y-65989000D02*
X160766000Y-62789000D01*
X158766000Y-65989000D02*
X160766000Y-65989000D01*
X158766000Y-62789000D02*
X160766000Y-62789000D01*
X141716000Y-98730000D02*
X141716000Y-101930000D01*
X139716000Y-98730000D02*
X139716000Y-101930000D01*
X141716000Y-98730000D02*
X139716000Y-98730000D01*
X141716000Y-101930000D02*
X139716000Y-101930000D01*
X144510000Y-98730000D02*
X144510000Y-101930000D01*
X142510000Y-98730000D02*
X142510000Y-101930000D01*
X144510000Y-98730000D02*
X142510000Y-98730000D01*
X144510000Y-101930000D02*
X142510000Y-101930000D01*
X147304000Y-98730000D02*
X147304000Y-101930000D01*
X145304000Y-98730000D02*
X145304000Y-101930000D01*
X147304000Y-98730000D02*
X145304000Y-98730000D01*
X147304000Y-101930000D02*
X145304000Y-101930000D01*
X150098000Y-98730000D02*
X150098000Y-101930000D01*
X148098000Y-98730000D02*
X148098000Y-101930000D01*
X150098000Y-98730000D02*
X148098000Y-98730000D01*
X150098000Y-101930000D02*
X148098000Y-101930000D01*
X152892000Y-98730000D02*
X152892000Y-101930000D01*
X150892000Y-98730000D02*
X150892000Y-101930000D01*
X152892000Y-98730000D02*
X150892000Y-98730000D01*
X152892000Y-101930000D02*
X150892000Y-101930000D01*
X155686000Y-98730000D02*
X155686000Y-101930000D01*
X153686000Y-98730000D02*
X153686000Y-101930000D01*
X155686000Y-98730000D02*
X153686000Y-98730000D01*
X155686000Y-101930000D02*
X153686000Y-101930000D01*
X158480000Y-98730000D02*
X158480000Y-101930000D01*
X156480000Y-98730000D02*
X156480000Y-101930000D01*
X158480000Y-98730000D02*
X156480000Y-98730000D01*
X158480000Y-101930000D02*
X156480000Y-101930000D01*
X161274000Y-98730000D02*
X161274000Y-101930000D01*
X159274000Y-98730000D02*
X159274000Y-101930000D01*
X161274000Y-98730000D02*
X159274000Y-98730000D01*
X161274000Y-101930000D02*
X159274000Y-101930000D01*
X168799000Y-66751000D02*
X168799000Y-63551000D01*
X170799000Y-66751000D02*
X170799000Y-63551000D01*
X168799000Y-66751000D02*
X170799000Y-66751000D01*
X168799000Y-63551000D02*
X170799000Y-63551000D01*
X188357000Y-66751000D02*
X188357000Y-63551000D01*
X190357000Y-66751000D02*
X190357000Y-63551000D01*
X188357000Y-66751000D02*
X190357000Y-66751000D01*
X188357000Y-63551000D02*
X190357000Y-63551000D01*
X185563000Y-66751000D02*
X185563000Y-63551000D01*
X187563000Y-66751000D02*
X187563000Y-63551000D01*
X185563000Y-66751000D02*
X187563000Y-66751000D01*
X185563000Y-63551000D02*
X187563000Y-63551000D01*
X182769000Y-66751000D02*
X182769000Y-63551000D01*
X184769000Y-66751000D02*
X184769000Y-63551000D01*
X182769000Y-66751000D02*
X184769000Y-66751000D01*
X182769000Y-63551000D02*
X184769000Y-63551000D01*
X179975000Y-66751000D02*
X179975000Y-63551000D01*
X181975000Y-66751000D02*
X181975000Y-63551000D01*
X179975000Y-66751000D02*
X181975000Y-66751000D01*
X179975000Y-63551000D02*
X181975000Y-63551000D01*
X177181000Y-66751000D02*
X177181000Y-63551000D01*
X179181000Y-66751000D02*
X179181000Y-63551000D01*
X177181000Y-66751000D02*
X179181000Y-66751000D01*
X177181000Y-63551000D02*
X179181000Y-63551000D01*
X174387000Y-66751000D02*
X174387000Y-63551000D01*
X176387000Y-66751000D02*
X176387000Y-63551000D01*
X174387000Y-66751000D02*
X176387000Y-66751000D01*
X174387000Y-63551000D02*
X176387000Y-63551000D01*
X171593000Y-66751000D02*
X171593000Y-63551000D01*
X173593000Y-66751000D02*
X173593000Y-63551000D01*
X171593000Y-66751000D02*
X173593000Y-66751000D01*
X171593000Y-63551000D02*
X173593000Y-63551000D01*
X203741000Y-50231000D02*
X163341000Y-50231000D01*
X163341000Y-50231000D02*
X163341000Y-40031000D01*
X163341000Y-40031000D02*
X203741000Y-40031000D01*
X203741000Y-40031000D02*
X203741000Y-50231000D01*
X163289000Y-125069000D02*
X163289000Y-114869000D01*
X203689000Y-125069000D02*
X163289000Y-125069000D01*
X203689000Y-114869000D02*
X203689000Y-125069000D01*
X163289000Y-114869000D02*
X203689000Y-114869000D01*
X160942000Y-50231000D02*
X100542000Y-50231000D01*
X160942000Y-40031000D02*
X160942000Y-50231000D01*
X100542000Y-40031000D02*
X160942000Y-40031000D01*
X100542000Y-50231000D02*
X100542000Y-40031000D01*
X122141000Y-125196000D02*
X122141000Y-114996000D01*
X162541000Y-125196000D02*
X122141000Y-125196000D01*
X162541000Y-114996000D02*
X162541000Y-125196000D01*
X122141000Y-114996000D02*
X162541000Y-114996000D01*
X160881000Y-109573000D02*
X160881000Y-106073000D01*
X139581000Y-109573000D02*
X139581000Y-106073000D01*
X160881000Y-109573000D02*
X139581000Y-109573000D01*
X160881000Y-106073000D02*
X139581000Y-106073000D01*
X129314000Y-55146000D02*
X129314000Y-58646000D01*
X160764000Y-55146000D02*
X160764000Y-58646000D01*
X129314000Y-55146000D02*
X160764000Y-55146000D01*
X129314000Y-58646000D02*
X160764000Y-58646000D01*
X168684000Y-59154000D02*
X189984000Y-59154000D01*
X168684000Y-55654000D02*
X189984000Y-55654000D01*
X189984000Y-55654000D02*
X189984000Y-59154000D01*
X168684000Y-55654000D02*
X168684000Y-59154000D01*
X197838000Y-109446000D02*
X197838000Y-105946000D01*
X176538000Y-109446000D02*
X176538000Y-105946000D01*
X197838000Y-109446000D02*
X176538000Y-109446000D01*
X197838000Y-105946000D02*
X176538000Y-105946000D01*
X129187000Y-54582000D02*
X160637000Y-54582000D01*
X129187000Y-51082000D02*
X160637000Y-51082000D01*
X129187000Y-54582000D02*
X129187000Y-51082000D01*
X160637000Y-54582000D02*
X160637000Y-51082000D01*
X160881000Y-110518000D02*
X139581000Y-110518000D01*
X160881000Y-114018000D02*
X139581000Y-114018000D01*
X160881000Y-110518000D02*
X160881000Y-114018000D01*
X139581000Y-110518000D02*
X139581000Y-114018000D01*
X189984000Y-55344000D02*
X189984000Y-51844000D01*
X168684000Y-55344000D02*
X168684000Y-51844000D01*
X168684000Y-51844000D02*
X189984000Y-51844000D01*
X168684000Y-55344000D02*
X189984000Y-55344000D01*
X197838000Y-110518000D02*
X176538000Y-110518000D01*
X197838000Y-114018000D02*
X176538000Y-114018000D01*
X197838000Y-110518000D02*
X197838000Y-114018000D01*
X176538000Y-110518000D02*
X176538000Y-114018000D01*
X139474000Y-71148000D02*
X139474000Y-74648000D01*
X160774000Y-71148000D02*
X160774000Y-74648000D01*
X139474000Y-71148000D02*
X160774000Y-71148000D01*
X139474000Y-74648000D02*
X160774000Y-74648000D01*
X194715000Y-68044000D02*
X206815000Y-68044000D01*
X194715000Y-56894000D02*
X206815000Y-56894000D01*
X194715000Y-68044000D02*
X194715000Y-56894000D01*
X206815000Y-68044000D02*
X206815000Y-56894000D01*
M02*
