G04 #@! TF.GenerationSoftware,KiCad,Pcbnew,5.0.1*
G04 #@! TF.CreationDate,2019-03-20T11:26:10+05:30*
G04 #@! TF.ProjectId,traffic,747261666669632E6B696361645F7063,rev?*
G04 #@! TF.SameCoordinates,Original*
G04 #@! TF.FileFunction,Soldermask,Top*
G04 #@! TF.FilePolarity,Negative*
%FSLAX46Y46*%
G04 Gerber Fmt 4.6, Leading zero omitted, Abs format (unit mm)*
G04 Created by KiCad (PCBNEW 5.0.1) date Wed 20 Mar 2019 11:26:10 AM IST*
%MOMM*%
%LPD*%
G01*
G04 APERTURE LIST*
%ADD10C,0.100000*%
G04 APERTURE END LIST*
D10*
G36*
X141617000Y-106565000D02*
X139815000Y-106565000D01*
X139815000Y-104763000D01*
X141617000Y-104763000D01*
X141617000Y-106565000D01*
X141617000Y-106565000D01*
G37*
G36*
X143366442Y-104769518D02*
X143432627Y-104776037D01*
X143545853Y-104810384D01*
X143602467Y-104827557D01*
X143741087Y-104901652D01*
X143758991Y-104911222D01*
X143794729Y-104940552D01*
X143896186Y-105023814D01*
X143979448Y-105125271D01*
X144008778Y-105161009D01*
X144008779Y-105161011D01*
X144092443Y-105317533D01*
X144092443Y-105317534D01*
X144143963Y-105487373D01*
X144161359Y-105664000D01*
X144143963Y-105840627D01*
X144109616Y-105953853D01*
X144092443Y-106010467D01*
X144018348Y-106149087D01*
X144008778Y-106166991D01*
X143979448Y-106202729D01*
X143896186Y-106304186D01*
X143794729Y-106387448D01*
X143758991Y-106416778D01*
X143758989Y-106416779D01*
X143602467Y-106500443D01*
X143545853Y-106517616D01*
X143432627Y-106551963D01*
X143366442Y-106558482D01*
X143300260Y-106565000D01*
X143211740Y-106565000D01*
X143145558Y-106558482D01*
X143079373Y-106551963D01*
X142966147Y-106517616D01*
X142909533Y-106500443D01*
X142753011Y-106416779D01*
X142753009Y-106416778D01*
X142717271Y-106387448D01*
X142615814Y-106304186D01*
X142532552Y-106202729D01*
X142503222Y-106166991D01*
X142493652Y-106149087D01*
X142419557Y-106010467D01*
X142402384Y-105953853D01*
X142368037Y-105840627D01*
X142350641Y-105664000D01*
X142368037Y-105487373D01*
X142419557Y-105317534D01*
X142419557Y-105317533D01*
X142503221Y-105161011D01*
X142503222Y-105161009D01*
X142532552Y-105125271D01*
X142615814Y-105023814D01*
X142717271Y-104940552D01*
X142753009Y-104911222D01*
X142770913Y-104901652D01*
X142909533Y-104827557D01*
X142966147Y-104810384D01*
X143079373Y-104776037D01*
X143145558Y-104769518D01*
X143211740Y-104763000D01*
X143300260Y-104763000D01*
X143366442Y-104769518D01*
X143366442Y-104769518D01*
G37*
G36*
X145906442Y-104769518D02*
X145972627Y-104776037D01*
X146085853Y-104810384D01*
X146142467Y-104827557D01*
X146281087Y-104901652D01*
X146298991Y-104911222D01*
X146334729Y-104940552D01*
X146436186Y-105023814D01*
X146519448Y-105125271D01*
X146548778Y-105161009D01*
X146548779Y-105161011D01*
X146632443Y-105317533D01*
X146632443Y-105317534D01*
X146683963Y-105487373D01*
X146701359Y-105664000D01*
X146683963Y-105840627D01*
X146649616Y-105953853D01*
X146632443Y-106010467D01*
X146558348Y-106149087D01*
X146548778Y-106166991D01*
X146519448Y-106202729D01*
X146436186Y-106304186D01*
X146334729Y-106387448D01*
X146298991Y-106416778D01*
X146298989Y-106416779D01*
X146142467Y-106500443D01*
X146085853Y-106517616D01*
X145972627Y-106551963D01*
X145906442Y-106558482D01*
X145840260Y-106565000D01*
X145751740Y-106565000D01*
X145685558Y-106558482D01*
X145619373Y-106551963D01*
X145506147Y-106517616D01*
X145449533Y-106500443D01*
X145293011Y-106416779D01*
X145293009Y-106416778D01*
X145257271Y-106387448D01*
X145155814Y-106304186D01*
X145072552Y-106202729D01*
X145043222Y-106166991D01*
X145033652Y-106149087D01*
X144959557Y-106010467D01*
X144942384Y-105953853D01*
X144908037Y-105840627D01*
X144890641Y-105664000D01*
X144908037Y-105487373D01*
X144959557Y-105317534D01*
X144959557Y-105317533D01*
X145043221Y-105161011D01*
X145043222Y-105161009D01*
X145072552Y-105125271D01*
X145155814Y-105023814D01*
X145257271Y-104940552D01*
X145293009Y-104911222D01*
X145310913Y-104901652D01*
X145449533Y-104827557D01*
X145506147Y-104810384D01*
X145619373Y-104776037D01*
X145685558Y-104769518D01*
X145751740Y-104763000D01*
X145840260Y-104763000D01*
X145906442Y-104769518D01*
X145906442Y-104769518D01*
G37*
G36*
X148446442Y-104769518D02*
X148512627Y-104776037D01*
X148625853Y-104810384D01*
X148682467Y-104827557D01*
X148821087Y-104901652D01*
X148838991Y-104911222D01*
X148874729Y-104940552D01*
X148976186Y-105023814D01*
X149059448Y-105125271D01*
X149088778Y-105161009D01*
X149088779Y-105161011D01*
X149172443Y-105317533D01*
X149172443Y-105317534D01*
X149223963Y-105487373D01*
X149241359Y-105664000D01*
X149223963Y-105840627D01*
X149189616Y-105953853D01*
X149172443Y-106010467D01*
X149098348Y-106149087D01*
X149088778Y-106166991D01*
X149059448Y-106202729D01*
X148976186Y-106304186D01*
X148874729Y-106387448D01*
X148838991Y-106416778D01*
X148838989Y-106416779D01*
X148682467Y-106500443D01*
X148625853Y-106517616D01*
X148512627Y-106551963D01*
X148446442Y-106558482D01*
X148380260Y-106565000D01*
X148291740Y-106565000D01*
X148225558Y-106558482D01*
X148159373Y-106551963D01*
X148046147Y-106517616D01*
X147989533Y-106500443D01*
X147833011Y-106416779D01*
X147833009Y-106416778D01*
X147797271Y-106387448D01*
X147695814Y-106304186D01*
X147612552Y-106202729D01*
X147583222Y-106166991D01*
X147573652Y-106149087D01*
X147499557Y-106010467D01*
X147482384Y-105953853D01*
X147448037Y-105840627D01*
X147430641Y-105664000D01*
X147448037Y-105487373D01*
X147499557Y-105317534D01*
X147499557Y-105317533D01*
X147583221Y-105161011D01*
X147583222Y-105161009D01*
X147612552Y-105125271D01*
X147695814Y-105023814D01*
X147797271Y-104940552D01*
X147833009Y-104911222D01*
X147850913Y-104901652D01*
X147989533Y-104827557D01*
X148046147Y-104810384D01*
X148159373Y-104776037D01*
X148225558Y-104769518D01*
X148291740Y-104763000D01*
X148380260Y-104763000D01*
X148446442Y-104769518D01*
X148446442Y-104769518D01*
G37*
G36*
X153526442Y-104769518D02*
X153592627Y-104776037D01*
X153705853Y-104810384D01*
X153762467Y-104827557D01*
X153901087Y-104901652D01*
X153918991Y-104911222D01*
X153954729Y-104940552D01*
X154056186Y-105023814D01*
X154139448Y-105125271D01*
X154168778Y-105161009D01*
X154168779Y-105161011D01*
X154252443Y-105317533D01*
X154252443Y-105317534D01*
X154303963Y-105487373D01*
X154321359Y-105664000D01*
X154303963Y-105840627D01*
X154269616Y-105953853D01*
X154252443Y-106010467D01*
X154178348Y-106149087D01*
X154168778Y-106166991D01*
X154139448Y-106202729D01*
X154056186Y-106304186D01*
X153954729Y-106387448D01*
X153918991Y-106416778D01*
X153918989Y-106416779D01*
X153762467Y-106500443D01*
X153705853Y-106517616D01*
X153592627Y-106551963D01*
X153526442Y-106558482D01*
X153460260Y-106565000D01*
X153371740Y-106565000D01*
X153305558Y-106558482D01*
X153239373Y-106551963D01*
X153126147Y-106517616D01*
X153069533Y-106500443D01*
X152913011Y-106416779D01*
X152913009Y-106416778D01*
X152877271Y-106387448D01*
X152775814Y-106304186D01*
X152692552Y-106202729D01*
X152663222Y-106166991D01*
X152653652Y-106149087D01*
X152579557Y-106010467D01*
X152562384Y-105953853D01*
X152528037Y-105840627D01*
X152510641Y-105664000D01*
X152528037Y-105487373D01*
X152579557Y-105317534D01*
X152579557Y-105317533D01*
X152663221Y-105161011D01*
X152663222Y-105161009D01*
X152692552Y-105125271D01*
X152775814Y-105023814D01*
X152877271Y-104940552D01*
X152913009Y-104911222D01*
X152930913Y-104901652D01*
X153069533Y-104827557D01*
X153126147Y-104810384D01*
X153239373Y-104776037D01*
X153305558Y-104769518D01*
X153371740Y-104763000D01*
X153460260Y-104763000D01*
X153526442Y-104769518D01*
X153526442Y-104769518D01*
G37*
G36*
X150986442Y-104769518D02*
X151052627Y-104776037D01*
X151165853Y-104810384D01*
X151222467Y-104827557D01*
X151361087Y-104901652D01*
X151378991Y-104911222D01*
X151414729Y-104940552D01*
X151516186Y-105023814D01*
X151599448Y-105125271D01*
X151628778Y-105161009D01*
X151628779Y-105161011D01*
X151712443Y-105317533D01*
X151712443Y-105317534D01*
X151763963Y-105487373D01*
X151781359Y-105664000D01*
X151763963Y-105840627D01*
X151729616Y-105953853D01*
X151712443Y-106010467D01*
X151638348Y-106149087D01*
X151628778Y-106166991D01*
X151599448Y-106202729D01*
X151516186Y-106304186D01*
X151414729Y-106387448D01*
X151378991Y-106416778D01*
X151378989Y-106416779D01*
X151222467Y-106500443D01*
X151165853Y-106517616D01*
X151052627Y-106551963D01*
X150986442Y-106558482D01*
X150920260Y-106565000D01*
X150831740Y-106565000D01*
X150765558Y-106558482D01*
X150699373Y-106551963D01*
X150586147Y-106517616D01*
X150529533Y-106500443D01*
X150373011Y-106416779D01*
X150373009Y-106416778D01*
X150337271Y-106387448D01*
X150235814Y-106304186D01*
X150152552Y-106202729D01*
X150123222Y-106166991D01*
X150113652Y-106149087D01*
X150039557Y-106010467D01*
X150022384Y-105953853D01*
X149988037Y-105840627D01*
X149970641Y-105664000D01*
X149988037Y-105487373D01*
X150039557Y-105317534D01*
X150039557Y-105317533D01*
X150123221Y-105161011D01*
X150123222Y-105161009D01*
X150152552Y-105125271D01*
X150235814Y-105023814D01*
X150337271Y-104940552D01*
X150373009Y-104911222D01*
X150390913Y-104901652D01*
X150529533Y-104827557D01*
X150586147Y-104810384D01*
X150699373Y-104776037D01*
X150765558Y-104769518D01*
X150831740Y-104763000D01*
X150920260Y-104763000D01*
X150986442Y-104769518D01*
X150986442Y-104769518D01*
G37*
G36*
X155851000Y-102351000D02*
X153949000Y-102351000D01*
X153949000Y-100449000D01*
X155851000Y-100449000D01*
X155851000Y-102351000D01*
X155851000Y-102351000D01*
G37*
G36*
X148271000Y-102297000D02*
X146369000Y-102297000D01*
X146369000Y-100395000D01*
X148271000Y-100395000D01*
X148271000Y-102297000D01*
X148271000Y-102297000D01*
G37*
G36*
X139851000Y-102251000D02*
X137949000Y-102251000D01*
X137949000Y-100349000D01*
X139851000Y-100349000D01*
X139851000Y-102251000D01*
X139851000Y-102251000D01*
G37*
G36*
X155177396Y-97945546D02*
X155350466Y-98017234D01*
X155506230Y-98121312D01*
X155638688Y-98253770D01*
X155742766Y-98409534D01*
X155814454Y-98582604D01*
X155851000Y-98766333D01*
X155851000Y-98953667D01*
X155814454Y-99137396D01*
X155742766Y-99310466D01*
X155638688Y-99466230D01*
X155506230Y-99598688D01*
X155350466Y-99702766D01*
X155177396Y-99774454D01*
X154993667Y-99811000D01*
X154806333Y-99811000D01*
X154622604Y-99774454D01*
X154449534Y-99702766D01*
X154293770Y-99598688D01*
X154161312Y-99466230D01*
X154057234Y-99310466D01*
X153985546Y-99137396D01*
X153949000Y-98953667D01*
X153949000Y-98766333D01*
X153985546Y-98582604D01*
X154057234Y-98409534D01*
X154161312Y-98253770D01*
X154293770Y-98121312D01*
X154449534Y-98017234D01*
X154622604Y-97945546D01*
X154806333Y-97909000D01*
X154993667Y-97909000D01*
X155177396Y-97945546D01*
X155177396Y-97945546D01*
G37*
G36*
X147597396Y-97891546D02*
X147770466Y-97963234D01*
X147926230Y-98067312D01*
X148058688Y-98199770D01*
X148162766Y-98355534D01*
X148234454Y-98528604D01*
X148271000Y-98712333D01*
X148271000Y-98899667D01*
X148234454Y-99083396D01*
X148162766Y-99256466D01*
X148058688Y-99412230D01*
X147926230Y-99544688D01*
X147770466Y-99648766D01*
X147597396Y-99720454D01*
X147413667Y-99757000D01*
X147226333Y-99757000D01*
X147042604Y-99720454D01*
X146869534Y-99648766D01*
X146713770Y-99544688D01*
X146581312Y-99412230D01*
X146477234Y-99256466D01*
X146405546Y-99083396D01*
X146369000Y-98899667D01*
X146369000Y-98712333D01*
X146405546Y-98528604D01*
X146477234Y-98355534D01*
X146581312Y-98199770D01*
X146713770Y-98067312D01*
X146869534Y-97963234D01*
X147042604Y-97891546D01*
X147226333Y-97855000D01*
X147413667Y-97855000D01*
X147597396Y-97891546D01*
X147597396Y-97891546D01*
G37*
G36*
X139177396Y-97845546D02*
X139350466Y-97917234D01*
X139506230Y-98021312D01*
X139638688Y-98153770D01*
X139742766Y-98309534D01*
X139814454Y-98482604D01*
X139851000Y-98666333D01*
X139851000Y-98853667D01*
X139814454Y-99037396D01*
X139742766Y-99210466D01*
X139638688Y-99366230D01*
X139506230Y-99498688D01*
X139350466Y-99602766D01*
X139177396Y-99674454D01*
X138993667Y-99711000D01*
X138806333Y-99711000D01*
X138622604Y-99674454D01*
X138449534Y-99602766D01*
X138293770Y-99498688D01*
X138161312Y-99366230D01*
X138057234Y-99210466D01*
X137985546Y-99037396D01*
X137949000Y-98853667D01*
X137949000Y-98666333D01*
X137985546Y-98482604D01*
X138057234Y-98309534D01*
X138161312Y-98153770D01*
X138293770Y-98021312D01*
X138449534Y-97917234D01*
X138622604Y-97845546D01*
X138806333Y-97809000D01*
X138993667Y-97809000D01*
X139177396Y-97845546D01*
X139177396Y-97845546D01*
G37*
G36*
X148271000Y-95947000D02*
X146369000Y-95947000D01*
X146369000Y-94045000D01*
X148271000Y-94045000D01*
X148271000Y-95947000D01*
X148271000Y-95947000D01*
G37*
G36*
X138301000Y-95601000D02*
X136499000Y-95601000D01*
X136499000Y-93799000D01*
X138301000Y-93799000D01*
X138301000Y-95601000D01*
X138301000Y-95601000D01*
G37*
G36*
X147597396Y-91541546D02*
X147770466Y-91613234D01*
X147926230Y-91717312D01*
X148058688Y-91849770D01*
X148162766Y-92005534D01*
X148234454Y-92178604D01*
X148271000Y-92362333D01*
X148271000Y-92549667D01*
X148234454Y-92733396D01*
X148162766Y-92906466D01*
X148058688Y-93062230D01*
X147926230Y-93194688D01*
X147770466Y-93298766D01*
X147597396Y-93370454D01*
X147413667Y-93407000D01*
X147226333Y-93407000D01*
X147042604Y-93370454D01*
X146869534Y-93298766D01*
X146713770Y-93194688D01*
X146581312Y-93062230D01*
X146477234Y-92906466D01*
X146405546Y-92733396D01*
X146369000Y-92549667D01*
X146369000Y-92362333D01*
X146405546Y-92178604D01*
X146477234Y-92005534D01*
X146581312Y-91849770D01*
X146713770Y-91717312D01*
X146869534Y-91613234D01*
X147042604Y-91541546D01*
X147226333Y-91505000D01*
X147413667Y-91505000D01*
X147597396Y-91541546D01*
X147597396Y-91541546D01*
G37*
G36*
X156468207Y-88392000D02*
X155194000Y-89666207D01*
X153919793Y-88392000D01*
X155194000Y-87117793D01*
X156468207Y-88392000D01*
X156468207Y-88392000D01*
G37*
G36*
X148271000Y-89597000D02*
X146369000Y-89597000D01*
X146369000Y-87695000D01*
X148271000Y-87695000D01*
X148271000Y-89597000D01*
X148271000Y-89597000D01*
G37*
G36*
X153508391Y-85701467D02*
X153574576Y-85707986D01*
X153687802Y-85742333D01*
X153744416Y-85759506D01*
X153873687Y-85828604D01*
X153900940Y-85843171D01*
X153936678Y-85872501D01*
X154038135Y-85955763D01*
X154121397Y-86057220D01*
X154150727Y-86092958D01*
X154150728Y-86092960D01*
X154234392Y-86249482D01*
X154234392Y-86249483D01*
X154285912Y-86419322D01*
X154303308Y-86595949D01*
X154285912Y-86772576D01*
X154264037Y-86844688D01*
X154234392Y-86942416D01*
X154192679Y-87020454D01*
X154150727Y-87098940D01*
X154135254Y-87117794D01*
X154038135Y-87236135D01*
X153936678Y-87319397D01*
X153900940Y-87348727D01*
X153900938Y-87348728D01*
X153744416Y-87432392D01*
X153687802Y-87449565D01*
X153574576Y-87483912D01*
X153508392Y-87490430D01*
X153442209Y-87496949D01*
X153353689Y-87496949D01*
X153287506Y-87490430D01*
X153221322Y-87483912D01*
X153108096Y-87449565D01*
X153051482Y-87432392D01*
X152894960Y-87348728D01*
X152894958Y-87348727D01*
X152859220Y-87319397D01*
X152757763Y-87236135D01*
X152660644Y-87117794D01*
X152645171Y-87098940D01*
X152603219Y-87020454D01*
X152561506Y-86942416D01*
X152531861Y-86844688D01*
X152509986Y-86772576D01*
X152492590Y-86595949D01*
X152509986Y-86419322D01*
X152561506Y-86249483D01*
X152561506Y-86249482D01*
X152645170Y-86092960D01*
X152645171Y-86092958D01*
X152674501Y-86057220D01*
X152757763Y-85955763D01*
X152859220Y-85872501D01*
X152894958Y-85843171D01*
X152922211Y-85828604D01*
X153051482Y-85759506D01*
X153108096Y-85742333D01*
X153221322Y-85707986D01*
X153287507Y-85701467D01*
X153353689Y-85694949D01*
X153442209Y-85694949D01*
X153508391Y-85701467D01*
X153508391Y-85701467D01*
G37*
G36*
X147597396Y-85191546D02*
X147770466Y-85263234D01*
X147926230Y-85367312D01*
X148058688Y-85499770D01*
X148162766Y-85655534D01*
X148234454Y-85828604D01*
X148271000Y-86012333D01*
X148271000Y-86199667D01*
X148234454Y-86383396D01*
X148162766Y-86556466D01*
X148058688Y-86712230D01*
X147926230Y-86844688D01*
X147770466Y-86948766D01*
X147597396Y-87020454D01*
X147413667Y-87057000D01*
X147226333Y-87057000D01*
X147042604Y-87020454D01*
X146869534Y-86948766D01*
X146713770Y-86844688D01*
X146581312Y-86712230D01*
X146477234Y-86556466D01*
X146405546Y-86383396D01*
X146369000Y-86199667D01*
X146369000Y-86012333D01*
X146405546Y-85828604D01*
X146477234Y-85655534D01*
X146581312Y-85499770D01*
X146713770Y-85367312D01*
X146869534Y-85263234D01*
X147042604Y-85191546D01*
X147226333Y-85155000D01*
X147413667Y-85155000D01*
X147597396Y-85191546D01*
X147597396Y-85191546D01*
G37*
M02*
