M48
;DRILL file {KiCad 5.0.1} date Tue 22 Jan 2019 03:04:34 PM IST
;FORMAT={-:-/ absolute / metric / decimal}
FMAT,2
METRIC,TZ
T1C0.800
T2C0.900
T3C1.097
%
G90
G05
M71
T1
X93.98Y-112.522
X99.06Y-112.522
X109.474Y-90.932
X109.474Y-93.472
X109.474Y-96.012
X109.474Y-98.552
X109.474Y-101.092
X109.474Y-103.632
X109.474Y-106.172
X109.474Y-108.712
X117.094Y-90.932
X117.094Y-93.472
X117.094Y-96.012
X117.094Y-98.552
X117.094Y-101.092
X117.094Y-103.632
X117.094Y-106.172
X117.094Y-108.712
X93.726Y-101.092
X98.806Y-101.092
X96.774Y-93.766
X96.774Y-96.266
X102.108Y-93.726
X102.108Y-96.226
X120.5Y-91.5
X125.58Y-91.5
X93.726Y-106.934
X98.806Y-106.934
T2
X102.362Y-112.522
X104.902Y-112.522
X120.65Y-84.328
X123.19Y-84.328
X123.525Y-96.675
X123.525Y-99.175
X123.525Y-101.675
X123.525Y-104.175
X123.525Y-106.675
X87.884Y-104.26
X87.884Y-106.76
X87.884Y-109.26
X87.884Y-111.76
X102.362Y-101.092
X104.902Y-101.092
X102.362Y-106.934
X104.902Y-106.934
X87.884Y-88.004
X87.884Y-90.504
X87.884Y-93.004
X87.884Y-95.504
T3
X98.298Y-88.138
X100.838Y-88.138
T0
M30
