G04 #@! TF.GenerationSoftware,KiCad,Pcbnew,5.0.1*
G04 #@! TF.CreationDate,2019-01-22T15:04:32+05:30*
G04 #@! TF.ProjectId,motor,6D6F746F722E6B696361645F70636200,rev?*
G04 #@! TF.SameCoordinates,Original*
G04 #@! TF.FileFunction,Copper,L2,Bot,Signal*
G04 #@! TF.FilePolarity,Positive*
%FSLAX46Y46*%
G04 Gerber Fmt 4.6, Leading zero omitted, Abs format (unit mm)*
G04 Created by KiCad (PCBNEW 5.0.1) date Tue 22 Jan 2019 03:04:32 PM IST*
%MOMM*%
%LPD*%
G01*
G04 APERTURE LIST*
G04 #@! TA.AperFunction,ComponentPad*
%ADD10C,1.850000*%
G04 #@! TD*
G04 #@! TA.AperFunction,ComponentPad*
%ADD11R,1.850000X1.850000*%
G04 #@! TD*
G04 #@! TA.AperFunction,ComponentPad*
%ADD12C,1.800000*%
G04 #@! TD*
G04 #@! TA.AperFunction,ComponentPad*
%ADD13R,1.800000X1.800000*%
G04 #@! TD*
G04 #@! TA.AperFunction,ComponentPad*
%ADD14O,1.600000X1.600000*%
G04 #@! TD*
G04 #@! TA.AperFunction,ComponentPad*
%ADD15C,1.600000*%
G04 #@! TD*
G04 #@! TA.AperFunction,ComponentPad*
%ADD16O,2.400000X1.600000*%
G04 #@! TD*
G04 #@! TA.AperFunction,ComponentPad*
%ADD17R,2.400000X1.600000*%
G04 #@! TD*
G04 #@! TA.AperFunction,ComponentPad*
%ADD18R,1.998980X1.998980*%
G04 #@! TD*
G04 #@! TA.AperFunction,ComponentPad*
%ADD19O,1.998980X1.998980*%
G04 #@! TD*
G04 #@! TA.AperFunction,Conductor*
%ADD20C,0.800000*%
G04 #@! TD*
G04 #@! TA.AperFunction,Conductor*
%ADD21C,0.600000*%
G04 #@! TD*
G04 APERTURE END LIST*
D10*
G04 #@! TO.P,J4,5*
G04 #@! TO.N,/2a*
X123525000Y-96675000D03*
G04 #@! TO.P,J4,4*
G04 #@! TO.N,/1a*
X123525000Y-99175000D03*
G04 #@! TO.P,J4,3*
G04 #@! TO.N,/sw1*
X123525000Y-101675000D03*
G04 #@! TO.P,J4,2*
G04 #@! TO.N,/sw2*
X123525000Y-104175000D03*
D11*
G04 #@! TO.P,J4,1*
G04 #@! TO.N,/sw3*
X123525000Y-106675000D03*
G04 #@! TD*
D12*
G04 #@! TO.P,D4,2*
G04 #@! TO.N,Net-(D4-Pad2)*
X123190000Y-84328000D03*
D13*
G04 #@! TO.P,D4,1*
G04 #@! TO.N,GND*
X120650000Y-84328000D03*
G04 #@! TD*
D14*
G04 #@! TO.P,R4,2*
G04 #@! TO.N,Net-(D4-Pad2)*
X125580000Y-91500000D03*
D15*
G04 #@! TO.P,R4,1*
G04 #@! TO.N,Net-(R4-Pad1)*
X120500000Y-91500000D03*
G04 #@! TD*
G04 #@! TO.P,C2,1*
G04 #@! TO.N,Net-(C2-Pad1)*
X102108000Y-93726000D03*
G04 #@! TO.P,C2,2*
G04 #@! TO.N,GND*
X102108000Y-96226000D03*
G04 #@! TD*
G04 #@! TO.P,C1,2*
G04 #@! TO.N,Net-(C1-Pad2)*
X96774000Y-93766000D03*
G04 #@! TO.P,C1,1*
G04 #@! TO.N,GND*
X96774000Y-96266000D03*
G04 #@! TD*
D14*
G04 #@! TO.P,R3,2*
G04 #@! TO.N,Net-(D3-Pad1)*
X99060000Y-112522000D03*
D15*
G04 #@! TO.P,R3,1*
G04 #@! TO.N,/sw3*
X93980000Y-112522000D03*
G04 #@! TD*
G04 #@! TO.P,R2,1*
G04 #@! TO.N,/sw2*
X93726000Y-106934000D03*
D14*
G04 #@! TO.P,R2,2*
G04 #@! TO.N,Net-(D2-Pad1)*
X98806000Y-106934000D03*
G04 #@! TD*
G04 #@! TO.P,R1,2*
G04 #@! TO.N,Net-(D1-Pad1)*
X98806000Y-101092000D03*
D15*
G04 #@! TO.P,R1,1*
G04 #@! TO.N,/sw1*
X93726000Y-101092000D03*
G04 #@! TD*
D12*
G04 #@! TO.P,D3,2*
G04 #@! TO.N,+5V*
X104902000Y-112522000D03*
D13*
G04 #@! TO.P,D3,1*
G04 #@! TO.N,Net-(D3-Pad1)*
X102362000Y-112522000D03*
G04 #@! TD*
G04 #@! TO.P,D2,1*
G04 #@! TO.N,Net-(D2-Pad1)*
X102362000Y-106934000D03*
D12*
G04 #@! TO.P,D2,2*
G04 #@! TO.N,+5V*
X104902000Y-106934000D03*
G04 #@! TD*
G04 #@! TO.P,D1,2*
G04 #@! TO.N,+5V*
X104902000Y-101092000D03*
D13*
G04 #@! TO.P,D1,1*
G04 #@! TO.N,Net-(D1-Pad1)*
X102362000Y-101092000D03*
G04 #@! TD*
D16*
G04 #@! TO.P,U1,16*
G04 #@! TO.N,+5V*
X117094000Y-90932000D03*
G04 #@! TO.P,U1,8*
G04 #@! TO.N,+12V*
X109474000Y-108712000D03*
G04 #@! TO.P,U1,15*
G04 #@! TO.N,/2a*
X117094000Y-93472000D03*
G04 #@! TO.P,U1,7*
X109474000Y-106172000D03*
G04 #@! TO.P,U1,14*
G04 #@! TO.N,Net-(R4-Pad1)*
X117094000Y-96012000D03*
G04 #@! TO.P,U1,6*
G04 #@! TO.N,Net-(C2-Pad1)*
X109474000Y-103632000D03*
G04 #@! TO.P,U1,13*
G04 #@! TO.N,GND*
X117094000Y-98552000D03*
G04 #@! TO.P,U1,5*
X109474000Y-101092000D03*
G04 #@! TO.P,U1,12*
X117094000Y-101092000D03*
G04 #@! TO.P,U1,4*
X109474000Y-98552000D03*
G04 #@! TO.P,U1,11*
G04 #@! TO.N,Net-(U1-Pad11)*
X117094000Y-103632000D03*
G04 #@! TO.P,U1,3*
G04 #@! TO.N,Net-(C1-Pad2)*
X109474000Y-96012000D03*
G04 #@! TO.P,U1,10*
G04 #@! TO.N,Net-(U1-Pad10)*
X117094000Y-106172000D03*
G04 #@! TO.P,U1,2*
G04 #@! TO.N,/1a*
X109474000Y-93472000D03*
G04 #@! TO.P,U1,9*
X117094000Y-108712000D03*
D17*
G04 #@! TO.P,U1,1*
G04 #@! TO.N,+5V*
X109474000Y-90932000D03*
G04 #@! TD*
D10*
G04 #@! TO.P,J1,4*
G04 #@! TO.N,GND*
X87884000Y-88004000D03*
G04 #@! TO.P,J1,3*
G04 #@! TO.N,+5V*
X87884000Y-90504000D03*
G04 #@! TO.P,J1,2*
G04 #@! TO.N,+12V*
X87884000Y-93004000D03*
D11*
G04 #@! TO.P,J1,1*
G04 #@! TO.N,Net-(J1-Pad1)*
X87884000Y-95504000D03*
G04 #@! TD*
G04 #@! TO.P,J2,1*
G04 #@! TO.N,/sw3*
X87884000Y-111760000D03*
D10*
G04 #@! TO.P,J2,2*
G04 #@! TO.N,/sw2*
X87884000Y-109260000D03*
G04 #@! TO.P,J2,3*
G04 #@! TO.N,/sw1*
X87884000Y-106760000D03*
G04 #@! TO.P,J2,4*
G04 #@! TO.N,GND*
X87884000Y-104260000D03*
G04 #@! TD*
D18*
G04 #@! TO.P,J3,1*
G04 #@! TO.N,Net-(C1-Pad2)*
X98298000Y-88138000D03*
D19*
G04 #@! TO.P,J3,2*
G04 #@! TO.N,Net-(C2-Pad1)*
X100838000Y-88138000D03*
G04 #@! TD*
D20*
G04 #@! TO.N,+5V*
X104902000Y-112522000D02*
X104902000Y-106934000D01*
X104902000Y-106934000D02*
X104902000Y-101092000D01*
X104902000Y-99819208D02*
X105918000Y-98803208D01*
X104902000Y-101092000D02*
X104902000Y-99819208D01*
X105918000Y-98803208D02*
X105918000Y-91948000D01*
X106934000Y-90932000D02*
X109474000Y-90932000D01*
X105918000Y-91948000D02*
X106934000Y-90932000D01*
X106174792Y-112522000D02*
X106252792Y-112600000D01*
X104902000Y-112522000D02*
X106174792Y-112522000D01*
X106252792Y-112600000D02*
X109300000Y-112600000D01*
X109300000Y-112600000D02*
X113900000Y-108000000D01*
X113900000Y-108000000D02*
X113900000Y-91900000D01*
X114868000Y-90932000D02*
X117094000Y-90932000D01*
X113900000Y-91900000D02*
X114868000Y-90932000D01*
X92675000Y-91948000D02*
X89328000Y-91948000D01*
X89328000Y-91948000D02*
X87884000Y-90504000D01*
X92675000Y-91948000D02*
X105918000Y-91948000D01*
X90248147Y-91948000D02*
X92675000Y-91948000D01*
D21*
G04 #@! TO.N,GND*
X96814000Y-96226000D02*
X96774000Y-96266000D01*
X102108000Y-96226000D02*
X96814000Y-96226000D01*
G04 #@! TO.N,/sw3*
X88646000Y-112522000D02*
X87884000Y-111760000D01*
X93980000Y-112522000D02*
X88646000Y-112522000D01*
X115570000Y-115570000D02*
X121412000Y-109728000D01*
X93980000Y-112522000D02*
X97028000Y-115570000D01*
X97028000Y-115570000D02*
X115570000Y-115570000D01*
X123425000Y-106775000D02*
X123525000Y-106675000D01*
X123425000Y-107715000D02*
X123425000Y-106775000D01*
X121412000Y-109728000D02*
X123425000Y-107715000D01*
G04 #@! TO.N,/sw2*
X87884000Y-109260000D02*
X89368000Y-109260000D01*
X91694000Y-106934000D02*
X93726000Y-106934000D01*
X89368000Y-109260000D02*
X91694000Y-106934000D01*
X93726000Y-109474000D02*
X93726000Y-106934000D01*
X115062000Y-114554000D02*
X98806000Y-114554000D01*
X98806000Y-114554000D02*
X93726000Y-109474000D01*
X121450000Y-104941853D02*
X121450000Y-108166000D01*
X122216853Y-104175000D02*
X121450000Y-104941853D01*
X123525000Y-104175000D02*
X122216853Y-104175000D01*
X121450000Y-108166000D02*
X115062000Y-114554000D01*
G04 #@! TO.N,/sw1*
X88058000Y-106760000D02*
X87884000Y-106760000D01*
X93726000Y-101092000D02*
X88058000Y-106760000D01*
G04 #@! TO.N,/1a*
X118618000Y-87122000D02*
X120650000Y-89154000D01*
X111274000Y-93472000D02*
X112522000Y-92224000D01*
X120650000Y-97790000D02*
X122040000Y-99180000D01*
X112522000Y-92224000D02*
X112522000Y-88138000D01*
X113538000Y-87122000D02*
X118618000Y-87122000D01*
X109474000Y-93472000D02*
X111274000Y-93472000D01*
X112522000Y-88138000D02*
X113538000Y-87122000D01*
X120650000Y-89154000D02*
X122254000Y-89154000D01*
X122254000Y-89154000D02*
X123500000Y-90400000D01*
X123500000Y-90400000D02*
X123500000Y-92600000D01*
X120650000Y-95450000D02*
X120650000Y-97790000D01*
X123500000Y-92600000D02*
X120650000Y-95450000D01*
X118894000Y-108712000D02*
X120600000Y-107006000D01*
X117094000Y-108712000D02*
X118894000Y-108712000D01*
X120600000Y-100620000D02*
X122040000Y-99180000D01*
X120600000Y-107006000D02*
X120600000Y-100620000D01*
X122045000Y-99175000D02*
X123525000Y-99175000D01*
X122040000Y-99180000D02*
X122045000Y-99175000D01*
G04 #@! TO.N,Net-(D1-Pad1)*
X98806000Y-101092000D02*
X102362000Y-101092000D01*
G04 #@! TO.N,Net-(D2-Pad1)*
X98806000Y-106934000D02*
X102362000Y-106934000D01*
G04 #@! TO.N,Net-(D3-Pad1)*
X99060000Y-112522000D02*
X102362000Y-112522000D01*
G04 #@! TO.N,Net-(D4-Pad2)*
X123190000Y-87526000D02*
X125580000Y-89916000D01*
X123190000Y-84328000D02*
X123190000Y-87526000D01*
X125580000Y-91500000D02*
X125580000Y-89916000D01*
G04 #@! TD*
M02*
