G04 #@! TF.GenerationSoftware,KiCad,Pcbnew,5.0.1*
G04 #@! TF.CreationDate,2019-01-22T15:04:32+05:30*
G04 #@! TF.ProjectId,motor,6D6F746F722E6B696361645F70636200,rev?*
G04 #@! TF.SameCoordinates,Original*
G04 #@! TF.FileFunction,Soldermask,Top*
G04 #@! TF.FilePolarity,Negative*
%FSLAX46Y46*%
G04 Gerber Fmt 4.6, Leading zero omitted, Abs format (unit mm)*
G04 Created by KiCad (PCBNEW 5.0.1) date Tue 22 Jan 2019 03:04:32 PM IST*
%MOMM*%
%LPD*%
G01*
G04 APERTURE LIST*
%ADD10C,0.100000*%
G04 APERTURE END LIST*
D10*
G36*
X105179396Y-111607546D02*
X105352466Y-111679234D01*
X105508230Y-111783312D01*
X105640688Y-111915770D01*
X105744766Y-112071534D01*
X105816454Y-112244604D01*
X105853000Y-112428333D01*
X105853000Y-112615667D01*
X105816454Y-112799396D01*
X105744766Y-112972466D01*
X105640688Y-113128230D01*
X105508230Y-113260688D01*
X105352466Y-113364766D01*
X105179396Y-113436454D01*
X104995667Y-113473000D01*
X104808333Y-113473000D01*
X104624604Y-113436454D01*
X104451534Y-113364766D01*
X104295770Y-113260688D01*
X104163312Y-113128230D01*
X104059234Y-112972466D01*
X103987546Y-112799396D01*
X103951000Y-112615667D01*
X103951000Y-112428333D01*
X103987546Y-112244604D01*
X104059234Y-112071534D01*
X104163312Y-111915770D01*
X104295770Y-111783312D01*
X104451534Y-111679234D01*
X104624604Y-111607546D01*
X104808333Y-111571000D01*
X104995667Y-111571000D01*
X105179396Y-111607546D01*
X105179396Y-111607546D01*
G37*
G36*
X103313000Y-113473000D02*
X101411000Y-113473000D01*
X101411000Y-111571000D01*
X103313000Y-111571000D01*
X103313000Y-113473000D01*
X103313000Y-113473000D01*
G37*
G36*
X99226821Y-111683313D02*
X99226824Y-111683314D01*
X99226825Y-111683314D01*
X99387239Y-111731975D01*
X99387241Y-111731976D01*
X99387244Y-111731977D01*
X99535078Y-111810995D01*
X99664659Y-111917341D01*
X99771005Y-112046922D01*
X99850023Y-112194756D01*
X99850024Y-112194759D01*
X99850025Y-112194761D01*
X99898686Y-112355175D01*
X99898687Y-112355179D01*
X99915117Y-112522000D01*
X99898687Y-112688821D01*
X99898686Y-112688824D01*
X99898686Y-112688825D01*
X99865145Y-112799396D01*
X99850023Y-112849244D01*
X99771005Y-112997078D01*
X99664659Y-113126659D01*
X99535078Y-113233005D01*
X99387244Y-113312023D01*
X99387241Y-113312024D01*
X99387239Y-113312025D01*
X99226825Y-113360686D01*
X99226824Y-113360686D01*
X99226821Y-113360687D01*
X99101804Y-113373000D01*
X99018196Y-113373000D01*
X98893179Y-113360687D01*
X98893176Y-113360686D01*
X98893175Y-113360686D01*
X98732761Y-113312025D01*
X98732759Y-113312024D01*
X98732756Y-113312023D01*
X98584922Y-113233005D01*
X98455341Y-113126659D01*
X98348995Y-112997078D01*
X98269977Y-112849244D01*
X98254856Y-112799396D01*
X98221314Y-112688825D01*
X98221314Y-112688824D01*
X98221313Y-112688821D01*
X98204883Y-112522000D01*
X98221313Y-112355179D01*
X98221314Y-112355175D01*
X98269975Y-112194761D01*
X98269976Y-112194759D01*
X98269977Y-112194756D01*
X98348995Y-112046922D01*
X98455341Y-111917341D01*
X98584922Y-111810995D01*
X98732756Y-111731977D01*
X98732759Y-111731976D01*
X98732761Y-111731975D01*
X98893175Y-111683314D01*
X98893176Y-111683314D01*
X98893179Y-111683313D01*
X99018196Y-111671000D01*
X99101804Y-111671000D01*
X99226821Y-111683313D01*
X99226821Y-111683313D01*
G37*
G36*
X94228228Y-111703703D02*
X94383100Y-111767853D01*
X94522481Y-111860985D01*
X94641015Y-111979519D01*
X94734147Y-112118900D01*
X94798297Y-112273772D01*
X94831000Y-112438184D01*
X94831000Y-112605816D01*
X94798297Y-112770228D01*
X94734147Y-112925100D01*
X94641015Y-113064481D01*
X94522481Y-113183015D01*
X94383100Y-113276147D01*
X94228228Y-113340297D01*
X94063816Y-113373000D01*
X93896184Y-113373000D01*
X93731772Y-113340297D01*
X93576900Y-113276147D01*
X93437519Y-113183015D01*
X93318985Y-113064481D01*
X93225853Y-112925100D01*
X93161703Y-112770228D01*
X93129000Y-112605816D01*
X93129000Y-112438184D01*
X93161703Y-112273772D01*
X93225853Y-112118900D01*
X93318985Y-111979519D01*
X93437519Y-111860985D01*
X93576900Y-111767853D01*
X93731772Y-111703703D01*
X93896184Y-111671000D01*
X94063816Y-111671000D01*
X94228228Y-111703703D01*
X94228228Y-111703703D01*
G37*
G36*
X88860000Y-112736000D02*
X86908000Y-112736000D01*
X86908000Y-110784000D01*
X88860000Y-110784000D01*
X88860000Y-112736000D01*
X88860000Y-112736000D01*
G37*
G36*
X88168686Y-108321507D02*
X88168688Y-108321508D01*
X88168689Y-108321508D01*
X88346309Y-108395080D01*
X88346310Y-108395081D01*
X88506166Y-108501894D01*
X88642106Y-108637834D01*
X88642108Y-108637837D01*
X88748920Y-108797691D01*
X88822492Y-108975311D01*
X88822493Y-108975314D01*
X88860000Y-109163871D01*
X88860000Y-109356128D01*
X88822492Y-109544689D01*
X88748920Y-109722309D01*
X88748919Y-109722310D01*
X88642106Y-109882166D01*
X88506166Y-110018106D01*
X88506163Y-110018108D01*
X88346309Y-110124920D01*
X88168689Y-110198492D01*
X88168688Y-110198492D01*
X88168686Y-110198493D01*
X87980129Y-110236000D01*
X87787871Y-110236000D01*
X87599314Y-110198493D01*
X87599312Y-110198492D01*
X87599311Y-110198492D01*
X87421691Y-110124920D01*
X87261837Y-110018108D01*
X87261834Y-110018106D01*
X87125894Y-109882166D01*
X87019081Y-109722310D01*
X87019080Y-109722309D01*
X86945508Y-109544689D01*
X86908000Y-109356128D01*
X86908000Y-109163871D01*
X86945507Y-108975314D01*
X86945508Y-108975311D01*
X87019080Y-108797691D01*
X87125892Y-108637837D01*
X87125894Y-108637834D01*
X87261834Y-108501894D01*
X87421690Y-108395081D01*
X87421691Y-108395080D01*
X87599311Y-108321508D01*
X87599312Y-108321508D01*
X87599314Y-108321507D01*
X87787871Y-108284000D01*
X87980129Y-108284000D01*
X88168686Y-108321507D01*
X88168686Y-108321507D01*
G37*
G36*
X110040821Y-107873313D02*
X110040824Y-107873314D01*
X110040825Y-107873314D01*
X110201239Y-107921975D01*
X110201241Y-107921976D01*
X110201244Y-107921977D01*
X110349078Y-108000995D01*
X110478659Y-108107341D01*
X110585005Y-108236922D01*
X110664023Y-108384756D01*
X110664024Y-108384759D01*
X110664025Y-108384761D01*
X110699556Y-108501892D01*
X110712687Y-108545179D01*
X110729117Y-108712000D01*
X110712687Y-108878821D01*
X110664023Y-109039244D01*
X110585005Y-109187078D01*
X110478659Y-109316659D01*
X110349078Y-109423005D01*
X110201244Y-109502023D01*
X110201241Y-109502024D01*
X110201239Y-109502025D01*
X110040825Y-109550686D01*
X110040824Y-109550686D01*
X110040821Y-109550687D01*
X109915804Y-109563000D01*
X109032196Y-109563000D01*
X108907179Y-109550687D01*
X108907176Y-109550686D01*
X108907175Y-109550686D01*
X108746761Y-109502025D01*
X108746759Y-109502024D01*
X108746756Y-109502023D01*
X108598922Y-109423005D01*
X108469341Y-109316659D01*
X108362995Y-109187078D01*
X108283977Y-109039244D01*
X108235313Y-108878821D01*
X108218883Y-108712000D01*
X108235313Y-108545179D01*
X108248444Y-108501892D01*
X108283975Y-108384761D01*
X108283976Y-108384759D01*
X108283977Y-108384756D01*
X108362995Y-108236922D01*
X108469341Y-108107341D01*
X108598922Y-108000995D01*
X108746756Y-107921977D01*
X108746759Y-107921976D01*
X108746761Y-107921975D01*
X108907175Y-107873314D01*
X108907176Y-107873314D01*
X108907179Y-107873313D01*
X109032196Y-107861000D01*
X109915804Y-107861000D01*
X110040821Y-107873313D01*
X110040821Y-107873313D01*
G37*
G36*
X117660821Y-107873313D02*
X117660824Y-107873314D01*
X117660825Y-107873314D01*
X117821239Y-107921975D01*
X117821241Y-107921976D01*
X117821244Y-107921977D01*
X117969078Y-108000995D01*
X118098659Y-108107341D01*
X118205005Y-108236922D01*
X118284023Y-108384756D01*
X118284024Y-108384759D01*
X118284025Y-108384761D01*
X118319556Y-108501892D01*
X118332687Y-108545179D01*
X118349117Y-108712000D01*
X118332687Y-108878821D01*
X118284023Y-109039244D01*
X118205005Y-109187078D01*
X118098659Y-109316659D01*
X117969078Y-109423005D01*
X117821244Y-109502023D01*
X117821241Y-109502024D01*
X117821239Y-109502025D01*
X117660825Y-109550686D01*
X117660824Y-109550686D01*
X117660821Y-109550687D01*
X117535804Y-109563000D01*
X116652196Y-109563000D01*
X116527179Y-109550687D01*
X116527176Y-109550686D01*
X116527175Y-109550686D01*
X116366761Y-109502025D01*
X116366759Y-109502024D01*
X116366756Y-109502023D01*
X116218922Y-109423005D01*
X116089341Y-109316659D01*
X115982995Y-109187078D01*
X115903977Y-109039244D01*
X115855313Y-108878821D01*
X115838883Y-108712000D01*
X115855313Y-108545179D01*
X115868444Y-108501892D01*
X115903975Y-108384761D01*
X115903976Y-108384759D01*
X115903977Y-108384756D01*
X115982995Y-108236922D01*
X116089341Y-108107341D01*
X116218922Y-108000995D01*
X116366756Y-107921977D01*
X116366759Y-107921976D01*
X116366761Y-107921975D01*
X116527175Y-107873314D01*
X116527176Y-107873314D01*
X116527179Y-107873313D01*
X116652196Y-107861000D01*
X117535804Y-107861000D01*
X117660821Y-107873313D01*
X117660821Y-107873313D01*
G37*
G36*
X103313000Y-107885000D02*
X101411000Y-107885000D01*
X101411000Y-105983000D01*
X103313000Y-105983000D01*
X103313000Y-107885000D01*
X103313000Y-107885000D01*
G37*
G36*
X105179396Y-106019546D02*
X105352466Y-106091234D01*
X105508230Y-106195312D01*
X105640688Y-106327770D01*
X105744766Y-106483534D01*
X105816454Y-106656604D01*
X105853000Y-106840333D01*
X105853000Y-107027667D01*
X105816454Y-107211396D01*
X105744766Y-107384466D01*
X105640688Y-107540230D01*
X105508230Y-107672688D01*
X105352466Y-107776766D01*
X105179396Y-107848454D01*
X104995667Y-107885000D01*
X104808333Y-107885000D01*
X104624604Y-107848454D01*
X104451534Y-107776766D01*
X104295770Y-107672688D01*
X104163312Y-107540230D01*
X104059234Y-107384466D01*
X103987546Y-107211396D01*
X103951000Y-107027667D01*
X103951000Y-106840333D01*
X103987546Y-106656604D01*
X104059234Y-106483534D01*
X104163312Y-106327770D01*
X104295770Y-106195312D01*
X104451534Y-106091234D01*
X104624604Y-106019546D01*
X104808333Y-105983000D01*
X104995667Y-105983000D01*
X105179396Y-106019546D01*
X105179396Y-106019546D01*
G37*
G36*
X98972821Y-106095313D02*
X98972824Y-106095314D01*
X98972825Y-106095314D01*
X99133239Y-106143975D01*
X99133241Y-106143976D01*
X99133244Y-106143977D01*
X99281078Y-106222995D01*
X99410659Y-106329341D01*
X99517005Y-106458922D01*
X99596023Y-106606756D01*
X99596024Y-106606759D01*
X99596025Y-106606761D01*
X99644686Y-106767175D01*
X99644687Y-106767179D01*
X99661117Y-106934000D01*
X99644687Y-107100821D01*
X99644686Y-107100824D01*
X99644686Y-107100825D01*
X99611145Y-107211396D01*
X99596023Y-107261244D01*
X99517005Y-107409078D01*
X99410659Y-107538659D01*
X99281078Y-107645005D01*
X99133244Y-107724023D01*
X99133241Y-107724024D01*
X99133239Y-107724025D01*
X98972825Y-107772686D01*
X98972824Y-107772686D01*
X98972821Y-107772687D01*
X98847804Y-107785000D01*
X98764196Y-107785000D01*
X98639179Y-107772687D01*
X98639176Y-107772686D01*
X98639175Y-107772686D01*
X98478761Y-107724025D01*
X98478759Y-107724024D01*
X98478756Y-107724023D01*
X98330922Y-107645005D01*
X98201341Y-107538659D01*
X98094995Y-107409078D01*
X98015977Y-107261244D01*
X98000856Y-107211396D01*
X97967314Y-107100825D01*
X97967314Y-107100824D01*
X97967313Y-107100821D01*
X97950883Y-106934000D01*
X97967313Y-106767179D01*
X97967314Y-106767175D01*
X98015975Y-106606761D01*
X98015976Y-106606759D01*
X98015977Y-106606756D01*
X98094995Y-106458922D01*
X98201341Y-106329341D01*
X98330922Y-106222995D01*
X98478756Y-106143977D01*
X98478759Y-106143976D01*
X98478761Y-106143975D01*
X98639175Y-106095314D01*
X98639176Y-106095314D01*
X98639179Y-106095313D01*
X98764196Y-106083000D01*
X98847804Y-106083000D01*
X98972821Y-106095313D01*
X98972821Y-106095313D01*
G37*
G36*
X93974228Y-106115703D02*
X94129100Y-106179853D01*
X94268481Y-106272985D01*
X94387015Y-106391519D01*
X94480147Y-106530900D01*
X94544297Y-106685772D01*
X94577000Y-106850184D01*
X94577000Y-107017816D01*
X94544297Y-107182228D01*
X94480147Y-107337100D01*
X94387015Y-107476481D01*
X94268481Y-107595015D01*
X94129100Y-107688147D01*
X93974228Y-107752297D01*
X93809816Y-107785000D01*
X93642184Y-107785000D01*
X93477772Y-107752297D01*
X93322900Y-107688147D01*
X93183519Y-107595015D01*
X93064985Y-107476481D01*
X92971853Y-107337100D01*
X92907703Y-107182228D01*
X92875000Y-107017816D01*
X92875000Y-106850184D01*
X92907703Y-106685772D01*
X92971853Y-106530900D01*
X93064985Y-106391519D01*
X93183519Y-106272985D01*
X93322900Y-106179853D01*
X93477772Y-106115703D01*
X93642184Y-106083000D01*
X93809816Y-106083000D01*
X93974228Y-106115703D01*
X93974228Y-106115703D01*
G37*
G36*
X88168686Y-105821507D02*
X88168688Y-105821508D01*
X88168689Y-105821508D01*
X88346309Y-105895080D01*
X88346310Y-105895081D01*
X88506166Y-106001894D01*
X88642106Y-106137834D01*
X88642108Y-106137837D01*
X88748920Y-106297691D01*
X88822492Y-106475311D01*
X88822493Y-106475314D01*
X88860000Y-106663871D01*
X88860000Y-106856129D01*
X88825879Y-107027665D01*
X88822492Y-107044689D01*
X88748920Y-107222309D01*
X88722904Y-107261244D01*
X88642106Y-107382166D01*
X88506166Y-107518106D01*
X88506163Y-107518108D01*
X88346309Y-107624920D01*
X88168689Y-107698492D01*
X88168688Y-107698492D01*
X88168686Y-107698493D01*
X87980129Y-107736000D01*
X87787871Y-107736000D01*
X87599314Y-107698493D01*
X87599312Y-107698492D01*
X87599311Y-107698492D01*
X87421691Y-107624920D01*
X87261837Y-107518108D01*
X87261834Y-107518106D01*
X87125894Y-107382166D01*
X87045096Y-107261244D01*
X87019080Y-107222309D01*
X86945508Y-107044689D01*
X86942122Y-107027665D01*
X86908000Y-106856129D01*
X86908000Y-106663871D01*
X86945507Y-106475314D01*
X86945508Y-106475311D01*
X87019080Y-106297691D01*
X87125892Y-106137837D01*
X87125894Y-106137834D01*
X87261834Y-106001894D01*
X87421690Y-105895081D01*
X87421691Y-105895080D01*
X87599311Y-105821508D01*
X87599312Y-105821508D01*
X87599314Y-105821507D01*
X87787871Y-105784000D01*
X87980129Y-105784000D01*
X88168686Y-105821507D01*
X88168686Y-105821507D01*
G37*
G36*
X124501000Y-107651000D02*
X122549000Y-107651000D01*
X122549000Y-105699000D01*
X124501000Y-105699000D01*
X124501000Y-107651000D01*
X124501000Y-107651000D01*
G37*
G36*
X110040821Y-105333313D02*
X110040824Y-105333314D01*
X110040825Y-105333314D01*
X110201239Y-105381975D01*
X110201241Y-105381976D01*
X110201244Y-105381977D01*
X110349078Y-105460995D01*
X110478659Y-105567341D01*
X110585005Y-105696922D01*
X110664023Y-105844756D01*
X110712687Y-106005179D01*
X110729117Y-106172000D01*
X110712687Y-106338821D01*
X110712686Y-106338824D01*
X110712686Y-106338825D01*
X110671283Y-106475314D01*
X110664023Y-106499244D01*
X110585005Y-106647078D01*
X110478659Y-106776659D01*
X110349078Y-106883005D01*
X110201244Y-106962023D01*
X110201241Y-106962024D01*
X110201239Y-106962025D01*
X110040825Y-107010686D01*
X110040824Y-107010686D01*
X110040821Y-107010687D01*
X109915804Y-107023000D01*
X109032196Y-107023000D01*
X108907179Y-107010687D01*
X108907176Y-107010686D01*
X108907175Y-107010686D01*
X108746761Y-106962025D01*
X108746759Y-106962024D01*
X108746756Y-106962023D01*
X108598922Y-106883005D01*
X108469341Y-106776659D01*
X108362995Y-106647078D01*
X108283977Y-106499244D01*
X108276718Y-106475314D01*
X108235314Y-106338825D01*
X108235314Y-106338824D01*
X108235313Y-106338821D01*
X108218883Y-106172000D01*
X108235313Y-106005179D01*
X108283977Y-105844756D01*
X108362995Y-105696922D01*
X108469341Y-105567341D01*
X108598922Y-105460995D01*
X108746756Y-105381977D01*
X108746759Y-105381976D01*
X108746761Y-105381975D01*
X108907175Y-105333314D01*
X108907176Y-105333314D01*
X108907179Y-105333313D01*
X109032196Y-105321000D01*
X109915804Y-105321000D01*
X110040821Y-105333313D01*
X110040821Y-105333313D01*
G37*
G36*
X117660821Y-105333313D02*
X117660824Y-105333314D01*
X117660825Y-105333314D01*
X117821239Y-105381975D01*
X117821241Y-105381976D01*
X117821244Y-105381977D01*
X117969078Y-105460995D01*
X118098659Y-105567341D01*
X118205005Y-105696922D01*
X118284023Y-105844756D01*
X118332687Y-106005179D01*
X118349117Y-106172000D01*
X118332687Y-106338821D01*
X118332686Y-106338824D01*
X118332686Y-106338825D01*
X118291283Y-106475314D01*
X118284023Y-106499244D01*
X118205005Y-106647078D01*
X118098659Y-106776659D01*
X117969078Y-106883005D01*
X117821244Y-106962023D01*
X117821241Y-106962024D01*
X117821239Y-106962025D01*
X117660825Y-107010686D01*
X117660824Y-107010686D01*
X117660821Y-107010687D01*
X117535804Y-107023000D01*
X116652196Y-107023000D01*
X116527179Y-107010687D01*
X116527176Y-107010686D01*
X116527175Y-107010686D01*
X116366761Y-106962025D01*
X116366759Y-106962024D01*
X116366756Y-106962023D01*
X116218922Y-106883005D01*
X116089341Y-106776659D01*
X115982995Y-106647078D01*
X115903977Y-106499244D01*
X115896718Y-106475314D01*
X115855314Y-106338825D01*
X115855314Y-106338824D01*
X115855313Y-106338821D01*
X115838883Y-106172000D01*
X115855313Y-106005179D01*
X115903977Y-105844756D01*
X115982995Y-105696922D01*
X116089341Y-105567341D01*
X116218922Y-105460995D01*
X116366756Y-105381977D01*
X116366759Y-105381976D01*
X116366761Y-105381975D01*
X116527175Y-105333314D01*
X116527176Y-105333314D01*
X116527179Y-105333313D01*
X116652196Y-105321000D01*
X117535804Y-105321000D01*
X117660821Y-105333313D01*
X117660821Y-105333313D01*
G37*
G36*
X88168686Y-103321507D02*
X88168688Y-103321508D01*
X88168689Y-103321508D01*
X88346309Y-103395080D01*
X88504002Y-103500448D01*
X88506166Y-103501894D01*
X88642106Y-103637834D01*
X88642108Y-103637837D01*
X88748920Y-103797691D01*
X88787284Y-103890311D01*
X88822493Y-103975314D01*
X88860000Y-104163871D01*
X88860000Y-104356129D01*
X88837213Y-104470687D01*
X88822492Y-104544689D01*
X88748920Y-104722309D01*
X88748919Y-104722310D01*
X88642106Y-104882166D01*
X88506166Y-105018106D01*
X88506163Y-105018108D01*
X88346309Y-105124920D01*
X88168689Y-105198492D01*
X88168688Y-105198492D01*
X88168686Y-105198493D01*
X87980129Y-105236000D01*
X87787871Y-105236000D01*
X87599314Y-105198493D01*
X87599312Y-105198492D01*
X87599311Y-105198492D01*
X87421691Y-105124920D01*
X87261837Y-105018108D01*
X87261834Y-105018106D01*
X87125894Y-104882166D01*
X87019081Y-104722310D01*
X87019080Y-104722309D01*
X86945508Y-104544689D01*
X86930788Y-104470687D01*
X86908000Y-104356129D01*
X86908000Y-104163871D01*
X86945507Y-103975314D01*
X86980716Y-103890311D01*
X87019080Y-103797691D01*
X87125892Y-103637837D01*
X87125894Y-103637834D01*
X87261834Y-103501894D01*
X87263998Y-103500448D01*
X87421691Y-103395080D01*
X87599311Y-103321508D01*
X87599312Y-103321508D01*
X87599314Y-103321507D01*
X87787871Y-103284000D01*
X87980129Y-103284000D01*
X88168686Y-103321507D01*
X88168686Y-103321507D01*
G37*
G36*
X123809686Y-103236507D02*
X123809688Y-103236508D01*
X123809689Y-103236508D01*
X123987309Y-103310080D01*
X124004412Y-103321508D01*
X124147166Y-103416894D01*
X124283106Y-103552834D01*
X124283108Y-103552837D01*
X124389920Y-103712691D01*
X124463492Y-103890311D01*
X124463493Y-103890314D01*
X124501000Y-104078871D01*
X124501000Y-104271129D01*
X124470985Y-104422023D01*
X124463492Y-104459689D01*
X124389920Y-104637309D01*
X124284552Y-104795002D01*
X124283106Y-104797166D01*
X124147166Y-104933106D01*
X124147163Y-104933108D01*
X123987309Y-105039920D01*
X123809689Y-105113492D01*
X123809688Y-105113492D01*
X123809686Y-105113493D01*
X123621129Y-105151000D01*
X123428871Y-105151000D01*
X123240314Y-105113493D01*
X123240312Y-105113492D01*
X123240311Y-105113492D01*
X123062691Y-105039920D01*
X122902837Y-104933108D01*
X122902834Y-104933106D01*
X122766894Y-104797166D01*
X122765448Y-104795002D01*
X122660080Y-104637309D01*
X122586508Y-104459689D01*
X122579016Y-104422023D01*
X122549000Y-104271129D01*
X122549000Y-104078871D01*
X122586507Y-103890314D01*
X122586508Y-103890311D01*
X122660080Y-103712691D01*
X122766892Y-103552837D01*
X122766894Y-103552834D01*
X122902834Y-103416894D01*
X123045588Y-103321508D01*
X123062691Y-103310080D01*
X123240311Y-103236508D01*
X123240312Y-103236508D01*
X123240314Y-103236507D01*
X123428871Y-103199000D01*
X123621129Y-103199000D01*
X123809686Y-103236507D01*
X123809686Y-103236507D01*
G37*
G36*
X117660821Y-102793313D02*
X117660824Y-102793314D01*
X117660825Y-102793314D01*
X117821239Y-102841975D01*
X117821241Y-102841976D01*
X117821244Y-102841977D01*
X117969078Y-102920995D01*
X118098659Y-103027341D01*
X118205005Y-103156922D01*
X118284023Y-103304756D01*
X118284024Y-103304759D01*
X118284025Y-103304761D01*
X118318040Y-103416894D01*
X118332687Y-103465179D01*
X118349117Y-103632000D01*
X118332687Y-103798821D01*
X118284023Y-103959244D01*
X118205005Y-104107078D01*
X118098659Y-104236659D01*
X117969078Y-104343005D01*
X117821244Y-104422023D01*
X117821241Y-104422024D01*
X117821239Y-104422025D01*
X117660825Y-104470686D01*
X117660824Y-104470686D01*
X117660821Y-104470687D01*
X117535804Y-104483000D01*
X116652196Y-104483000D01*
X116527179Y-104470687D01*
X116527176Y-104470686D01*
X116527175Y-104470686D01*
X116366761Y-104422025D01*
X116366759Y-104422024D01*
X116366756Y-104422023D01*
X116218922Y-104343005D01*
X116089341Y-104236659D01*
X115982995Y-104107078D01*
X115903977Y-103959244D01*
X115855313Y-103798821D01*
X115838883Y-103632000D01*
X115855313Y-103465179D01*
X115869960Y-103416894D01*
X115903975Y-103304761D01*
X115903976Y-103304759D01*
X115903977Y-103304756D01*
X115982995Y-103156922D01*
X116089341Y-103027341D01*
X116218922Y-102920995D01*
X116366756Y-102841977D01*
X116366759Y-102841976D01*
X116366761Y-102841975D01*
X116527175Y-102793314D01*
X116527176Y-102793314D01*
X116527179Y-102793313D01*
X116652196Y-102781000D01*
X117535804Y-102781000D01*
X117660821Y-102793313D01*
X117660821Y-102793313D01*
G37*
G36*
X110040821Y-102793313D02*
X110040824Y-102793314D01*
X110040825Y-102793314D01*
X110201239Y-102841975D01*
X110201241Y-102841976D01*
X110201244Y-102841977D01*
X110349078Y-102920995D01*
X110478659Y-103027341D01*
X110585005Y-103156922D01*
X110664023Y-103304756D01*
X110664024Y-103304759D01*
X110664025Y-103304761D01*
X110698040Y-103416894D01*
X110712687Y-103465179D01*
X110729117Y-103632000D01*
X110712687Y-103798821D01*
X110664023Y-103959244D01*
X110585005Y-104107078D01*
X110478659Y-104236659D01*
X110349078Y-104343005D01*
X110201244Y-104422023D01*
X110201241Y-104422024D01*
X110201239Y-104422025D01*
X110040825Y-104470686D01*
X110040824Y-104470686D01*
X110040821Y-104470687D01*
X109915804Y-104483000D01*
X109032196Y-104483000D01*
X108907179Y-104470687D01*
X108907176Y-104470686D01*
X108907175Y-104470686D01*
X108746761Y-104422025D01*
X108746759Y-104422024D01*
X108746756Y-104422023D01*
X108598922Y-104343005D01*
X108469341Y-104236659D01*
X108362995Y-104107078D01*
X108283977Y-103959244D01*
X108235313Y-103798821D01*
X108218883Y-103632000D01*
X108235313Y-103465179D01*
X108249960Y-103416894D01*
X108283975Y-103304761D01*
X108283976Y-103304759D01*
X108283977Y-103304756D01*
X108362995Y-103156922D01*
X108469341Y-103027341D01*
X108598922Y-102920995D01*
X108746756Y-102841977D01*
X108746759Y-102841976D01*
X108746761Y-102841975D01*
X108907175Y-102793314D01*
X108907176Y-102793314D01*
X108907179Y-102793313D01*
X109032196Y-102781000D01*
X109915804Y-102781000D01*
X110040821Y-102793313D01*
X110040821Y-102793313D01*
G37*
G36*
X123809686Y-100736507D02*
X123809688Y-100736508D01*
X123809689Y-100736508D01*
X123987309Y-100810080D01*
X124037732Y-100843772D01*
X124147166Y-100916894D01*
X124283106Y-101052834D01*
X124283108Y-101052837D01*
X124389920Y-101212691D01*
X124409029Y-101258825D01*
X124463493Y-101390314D01*
X124501000Y-101578871D01*
X124501000Y-101771129D01*
X124469262Y-101930686D01*
X124463492Y-101959689D01*
X124389920Y-102137309D01*
X124389919Y-102137310D01*
X124283106Y-102297166D01*
X124147166Y-102433106D01*
X124147163Y-102433108D01*
X123987309Y-102539920D01*
X123809689Y-102613492D01*
X123809688Y-102613492D01*
X123809686Y-102613493D01*
X123621129Y-102651000D01*
X123428871Y-102651000D01*
X123240314Y-102613493D01*
X123240312Y-102613492D01*
X123240311Y-102613492D01*
X123062691Y-102539920D01*
X122902837Y-102433108D01*
X122902834Y-102433106D01*
X122766894Y-102297166D01*
X122660081Y-102137310D01*
X122660080Y-102137309D01*
X122586508Y-101959689D01*
X122580739Y-101930686D01*
X122549000Y-101771129D01*
X122549000Y-101578871D01*
X122586507Y-101390314D01*
X122640971Y-101258825D01*
X122660080Y-101212691D01*
X122766892Y-101052837D01*
X122766894Y-101052834D01*
X122902834Y-100916894D01*
X123012268Y-100843772D01*
X123062691Y-100810080D01*
X123240311Y-100736508D01*
X123240312Y-100736508D01*
X123240314Y-100736507D01*
X123428871Y-100699000D01*
X123621129Y-100699000D01*
X123809686Y-100736507D01*
X123809686Y-100736507D01*
G37*
G36*
X103313000Y-102043000D02*
X101411000Y-102043000D01*
X101411000Y-100141000D01*
X103313000Y-100141000D01*
X103313000Y-102043000D01*
X103313000Y-102043000D01*
G37*
G36*
X105179396Y-100177546D02*
X105352466Y-100249234D01*
X105508230Y-100353312D01*
X105640688Y-100485770D01*
X105744766Y-100641534D01*
X105816454Y-100814604D01*
X105853000Y-100998333D01*
X105853000Y-101185667D01*
X105816454Y-101369396D01*
X105744766Y-101542466D01*
X105640688Y-101698230D01*
X105508230Y-101830688D01*
X105352466Y-101934766D01*
X105179396Y-102006454D01*
X104995667Y-102043000D01*
X104808333Y-102043000D01*
X104624604Y-102006454D01*
X104451534Y-101934766D01*
X104295770Y-101830688D01*
X104163312Y-101698230D01*
X104059234Y-101542466D01*
X103987546Y-101369396D01*
X103951000Y-101185667D01*
X103951000Y-100998333D01*
X103987546Y-100814604D01*
X104059234Y-100641534D01*
X104163312Y-100485770D01*
X104295770Y-100353312D01*
X104451534Y-100249234D01*
X104624604Y-100177546D01*
X104808333Y-100141000D01*
X104995667Y-100141000D01*
X105179396Y-100177546D01*
X105179396Y-100177546D01*
G37*
G36*
X110040821Y-100253313D02*
X110040824Y-100253314D01*
X110040825Y-100253314D01*
X110201239Y-100301975D01*
X110201241Y-100301976D01*
X110201244Y-100301977D01*
X110349078Y-100380995D01*
X110478659Y-100487341D01*
X110585005Y-100616922D01*
X110664023Y-100764756D01*
X110664024Y-100764759D01*
X110664025Y-100764761D01*
X110710173Y-100916892D01*
X110712687Y-100925179D01*
X110729117Y-101092000D01*
X110712687Y-101258821D01*
X110712686Y-101258824D01*
X110712686Y-101258825D01*
X110679145Y-101369396D01*
X110664023Y-101419244D01*
X110585005Y-101567078D01*
X110478659Y-101696659D01*
X110349078Y-101803005D01*
X110201244Y-101882023D01*
X110201241Y-101882024D01*
X110201239Y-101882025D01*
X110040825Y-101930686D01*
X110040824Y-101930686D01*
X110040821Y-101930687D01*
X109915804Y-101943000D01*
X109032196Y-101943000D01*
X108907179Y-101930687D01*
X108907176Y-101930686D01*
X108907175Y-101930686D01*
X108746761Y-101882025D01*
X108746759Y-101882024D01*
X108746756Y-101882023D01*
X108598922Y-101803005D01*
X108469341Y-101696659D01*
X108362995Y-101567078D01*
X108283977Y-101419244D01*
X108268856Y-101369396D01*
X108235314Y-101258825D01*
X108235314Y-101258824D01*
X108235313Y-101258821D01*
X108218883Y-101092000D01*
X108235313Y-100925179D01*
X108237827Y-100916892D01*
X108283975Y-100764761D01*
X108283976Y-100764759D01*
X108283977Y-100764756D01*
X108362995Y-100616922D01*
X108469341Y-100487341D01*
X108598922Y-100380995D01*
X108746756Y-100301977D01*
X108746759Y-100301976D01*
X108746761Y-100301975D01*
X108907175Y-100253314D01*
X108907176Y-100253314D01*
X108907179Y-100253313D01*
X109032196Y-100241000D01*
X109915804Y-100241000D01*
X110040821Y-100253313D01*
X110040821Y-100253313D01*
G37*
G36*
X117660821Y-100253313D02*
X117660824Y-100253314D01*
X117660825Y-100253314D01*
X117821239Y-100301975D01*
X117821241Y-100301976D01*
X117821244Y-100301977D01*
X117969078Y-100380995D01*
X118098659Y-100487341D01*
X118205005Y-100616922D01*
X118284023Y-100764756D01*
X118284024Y-100764759D01*
X118284025Y-100764761D01*
X118330173Y-100916892D01*
X118332687Y-100925179D01*
X118349117Y-101092000D01*
X118332687Y-101258821D01*
X118332686Y-101258824D01*
X118332686Y-101258825D01*
X118299145Y-101369396D01*
X118284023Y-101419244D01*
X118205005Y-101567078D01*
X118098659Y-101696659D01*
X117969078Y-101803005D01*
X117821244Y-101882023D01*
X117821241Y-101882024D01*
X117821239Y-101882025D01*
X117660825Y-101930686D01*
X117660824Y-101930686D01*
X117660821Y-101930687D01*
X117535804Y-101943000D01*
X116652196Y-101943000D01*
X116527179Y-101930687D01*
X116527176Y-101930686D01*
X116527175Y-101930686D01*
X116366761Y-101882025D01*
X116366759Y-101882024D01*
X116366756Y-101882023D01*
X116218922Y-101803005D01*
X116089341Y-101696659D01*
X115982995Y-101567078D01*
X115903977Y-101419244D01*
X115888856Y-101369396D01*
X115855314Y-101258825D01*
X115855314Y-101258824D01*
X115855313Y-101258821D01*
X115838883Y-101092000D01*
X115855313Y-100925179D01*
X115857827Y-100916892D01*
X115903975Y-100764761D01*
X115903976Y-100764759D01*
X115903977Y-100764756D01*
X115982995Y-100616922D01*
X116089341Y-100487341D01*
X116218922Y-100380995D01*
X116366756Y-100301977D01*
X116366759Y-100301976D01*
X116366761Y-100301975D01*
X116527175Y-100253314D01*
X116527176Y-100253314D01*
X116527179Y-100253313D01*
X116652196Y-100241000D01*
X117535804Y-100241000D01*
X117660821Y-100253313D01*
X117660821Y-100253313D01*
G37*
G36*
X98972821Y-100253313D02*
X98972824Y-100253314D01*
X98972825Y-100253314D01*
X99133239Y-100301975D01*
X99133241Y-100301976D01*
X99133244Y-100301977D01*
X99281078Y-100380995D01*
X99410659Y-100487341D01*
X99517005Y-100616922D01*
X99596023Y-100764756D01*
X99596024Y-100764759D01*
X99596025Y-100764761D01*
X99642173Y-100916892D01*
X99644687Y-100925179D01*
X99661117Y-101092000D01*
X99644687Y-101258821D01*
X99644686Y-101258824D01*
X99644686Y-101258825D01*
X99611145Y-101369396D01*
X99596023Y-101419244D01*
X99517005Y-101567078D01*
X99410659Y-101696659D01*
X99281078Y-101803005D01*
X99133244Y-101882023D01*
X99133241Y-101882024D01*
X99133239Y-101882025D01*
X98972825Y-101930686D01*
X98972824Y-101930686D01*
X98972821Y-101930687D01*
X98847804Y-101943000D01*
X98764196Y-101943000D01*
X98639179Y-101930687D01*
X98639176Y-101930686D01*
X98639175Y-101930686D01*
X98478761Y-101882025D01*
X98478759Y-101882024D01*
X98478756Y-101882023D01*
X98330922Y-101803005D01*
X98201341Y-101696659D01*
X98094995Y-101567078D01*
X98015977Y-101419244D01*
X98000856Y-101369396D01*
X97967314Y-101258825D01*
X97967314Y-101258824D01*
X97967313Y-101258821D01*
X97950883Y-101092000D01*
X97967313Y-100925179D01*
X97969827Y-100916892D01*
X98015975Y-100764761D01*
X98015976Y-100764759D01*
X98015977Y-100764756D01*
X98094995Y-100616922D01*
X98201341Y-100487341D01*
X98330922Y-100380995D01*
X98478756Y-100301977D01*
X98478759Y-100301976D01*
X98478761Y-100301975D01*
X98639175Y-100253314D01*
X98639176Y-100253314D01*
X98639179Y-100253313D01*
X98764196Y-100241000D01*
X98847804Y-100241000D01*
X98972821Y-100253313D01*
X98972821Y-100253313D01*
G37*
G36*
X93974228Y-100273703D02*
X94129100Y-100337853D01*
X94268481Y-100430985D01*
X94387015Y-100549519D01*
X94480147Y-100688900D01*
X94544297Y-100843772D01*
X94577000Y-101008184D01*
X94577000Y-101175816D01*
X94544297Y-101340228D01*
X94480147Y-101495100D01*
X94387015Y-101634481D01*
X94268481Y-101753015D01*
X94129100Y-101846147D01*
X93974228Y-101910297D01*
X93809816Y-101943000D01*
X93642184Y-101943000D01*
X93477772Y-101910297D01*
X93322900Y-101846147D01*
X93183519Y-101753015D01*
X93064985Y-101634481D01*
X92971853Y-101495100D01*
X92907703Y-101340228D01*
X92875000Y-101175816D01*
X92875000Y-101008184D01*
X92907703Y-100843772D01*
X92971853Y-100688900D01*
X93064985Y-100549519D01*
X93183519Y-100430985D01*
X93322900Y-100337853D01*
X93477772Y-100273703D01*
X93642184Y-100241000D01*
X93809816Y-100241000D01*
X93974228Y-100273703D01*
X93974228Y-100273703D01*
G37*
G36*
X123809686Y-98236507D02*
X123809688Y-98236508D01*
X123809689Y-98236508D01*
X123987309Y-98310080D01*
X124145002Y-98415448D01*
X124147166Y-98416894D01*
X124283106Y-98552834D01*
X124283108Y-98552837D01*
X124389920Y-98712691D01*
X124458906Y-98879239D01*
X124463493Y-98890314D01*
X124501000Y-99078871D01*
X124501000Y-99271129D01*
X124474769Y-99403000D01*
X124463492Y-99459689D01*
X124389920Y-99637309D01*
X124389919Y-99637310D01*
X124283106Y-99797166D01*
X124147166Y-99933106D01*
X124147163Y-99933108D01*
X123987309Y-100039920D01*
X123809689Y-100113492D01*
X123809688Y-100113492D01*
X123809686Y-100113493D01*
X123621129Y-100151000D01*
X123428871Y-100151000D01*
X123240314Y-100113493D01*
X123240312Y-100113492D01*
X123240311Y-100113492D01*
X123062691Y-100039920D01*
X122902837Y-99933108D01*
X122902834Y-99933106D01*
X122766894Y-99797166D01*
X122660081Y-99637310D01*
X122660080Y-99637309D01*
X122586508Y-99459689D01*
X122575232Y-99403000D01*
X122549000Y-99271129D01*
X122549000Y-99078871D01*
X122586507Y-98890314D01*
X122591094Y-98879239D01*
X122660080Y-98712691D01*
X122766892Y-98552837D01*
X122766894Y-98552834D01*
X122902834Y-98416894D01*
X122904998Y-98415448D01*
X123062691Y-98310080D01*
X123240311Y-98236508D01*
X123240312Y-98236508D01*
X123240314Y-98236507D01*
X123428871Y-98199000D01*
X123621129Y-98199000D01*
X123809686Y-98236507D01*
X123809686Y-98236507D01*
G37*
G36*
X117660821Y-97713313D02*
X117660824Y-97713314D01*
X117660825Y-97713314D01*
X117821239Y-97761975D01*
X117821241Y-97761976D01*
X117821244Y-97761977D01*
X117969078Y-97840995D01*
X118098659Y-97947341D01*
X118205005Y-98076922D01*
X118284023Y-98224756D01*
X118284024Y-98224759D01*
X118284025Y-98224761D01*
X118332686Y-98385175D01*
X118332687Y-98385179D01*
X118349117Y-98552000D01*
X118332687Y-98718821D01*
X118284023Y-98879244D01*
X118205005Y-99027078D01*
X118098659Y-99156659D01*
X117969078Y-99263005D01*
X117821244Y-99342023D01*
X117821241Y-99342024D01*
X117821239Y-99342025D01*
X117660825Y-99390686D01*
X117660824Y-99390686D01*
X117660821Y-99390687D01*
X117535804Y-99403000D01*
X116652196Y-99403000D01*
X116527179Y-99390687D01*
X116527176Y-99390686D01*
X116527175Y-99390686D01*
X116366761Y-99342025D01*
X116366759Y-99342024D01*
X116366756Y-99342023D01*
X116218922Y-99263005D01*
X116089341Y-99156659D01*
X115982995Y-99027078D01*
X115903977Y-98879244D01*
X115855313Y-98718821D01*
X115838883Y-98552000D01*
X115855313Y-98385179D01*
X115855314Y-98385175D01*
X115903975Y-98224761D01*
X115903976Y-98224759D01*
X115903977Y-98224756D01*
X115982995Y-98076922D01*
X116089341Y-97947341D01*
X116218922Y-97840995D01*
X116366756Y-97761977D01*
X116366759Y-97761976D01*
X116366761Y-97761975D01*
X116527175Y-97713314D01*
X116527176Y-97713314D01*
X116527179Y-97713313D01*
X116652196Y-97701000D01*
X117535804Y-97701000D01*
X117660821Y-97713313D01*
X117660821Y-97713313D01*
G37*
G36*
X110040821Y-97713313D02*
X110040824Y-97713314D01*
X110040825Y-97713314D01*
X110201239Y-97761975D01*
X110201241Y-97761976D01*
X110201244Y-97761977D01*
X110349078Y-97840995D01*
X110478659Y-97947341D01*
X110585005Y-98076922D01*
X110664023Y-98224756D01*
X110664024Y-98224759D01*
X110664025Y-98224761D01*
X110712686Y-98385175D01*
X110712687Y-98385179D01*
X110729117Y-98552000D01*
X110712687Y-98718821D01*
X110664023Y-98879244D01*
X110585005Y-99027078D01*
X110478659Y-99156659D01*
X110349078Y-99263005D01*
X110201244Y-99342023D01*
X110201241Y-99342024D01*
X110201239Y-99342025D01*
X110040825Y-99390686D01*
X110040824Y-99390686D01*
X110040821Y-99390687D01*
X109915804Y-99403000D01*
X109032196Y-99403000D01*
X108907179Y-99390687D01*
X108907176Y-99390686D01*
X108907175Y-99390686D01*
X108746761Y-99342025D01*
X108746759Y-99342024D01*
X108746756Y-99342023D01*
X108598922Y-99263005D01*
X108469341Y-99156659D01*
X108362995Y-99027078D01*
X108283977Y-98879244D01*
X108235313Y-98718821D01*
X108218883Y-98552000D01*
X108235313Y-98385179D01*
X108235314Y-98385175D01*
X108283975Y-98224761D01*
X108283976Y-98224759D01*
X108283977Y-98224756D01*
X108362995Y-98076922D01*
X108469341Y-97947341D01*
X108598922Y-97840995D01*
X108746756Y-97761977D01*
X108746759Y-97761976D01*
X108746761Y-97761975D01*
X108907175Y-97713314D01*
X108907176Y-97713314D01*
X108907179Y-97713313D01*
X109032196Y-97701000D01*
X109915804Y-97701000D01*
X110040821Y-97713313D01*
X110040821Y-97713313D01*
G37*
G36*
X123809686Y-95736507D02*
X123809688Y-95736508D01*
X123809689Y-95736508D01*
X123987309Y-95810080D01*
X123987310Y-95810081D01*
X124147166Y-95916894D01*
X124283106Y-96052834D01*
X124283108Y-96052837D01*
X124389920Y-96212691D01*
X124463492Y-96390311D01*
X124463493Y-96390314D01*
X124501000Y-96578871D01*
X124501000Y-96771129D01*
X124469992Y-96927015D01*
X124463492Y-96959689D01*
X124389920Y-97137309D01*
X124389919Y-97137310D01*
X124283106Y-97297166D01*
X124147166Y-97433106D01*
X124147163Y-97433108D01*
X123987309Y-97539920D01*
X123809689Y-97613492D01*
X123809688Y-97613492D01*
X123809686Y-97613493D01*
X123621129Y-97651000D01*
X123428871Y-97651000D01*
X123240314Y-97613493D01*
X123240312Y-97613492D01*
X123240311Y-97613492D01*
X123062691Y-97539920D01*
X122902837Y-97433108D01*
X122902834Y-97433106D01*
X122766894Y-97297166D01*
X122660081Y-97137310D01*
X122660080Y-97137309D01*
X122586508Y-96959689D01*
X122580009Y-96927015D01*
X122549000Y-96771129D01*
X122549000Y-96578871D01*
X122586507Y-96390314D01*
X122586508Y-96390311D01*
X122660080Y-96212691D01*
X122766892Y-96052837D01*
X122766894Y-96052834D01*
X122902834Y-95916894D01*
X123062690Y-95810081D01*
X123062691Y-95810080D01*
X123240311Y-95736508D01*
X123240312Y-95736508D01*
X123240314Y-95736507D01*
X123428871Y-95699000D01*
X123621129Y-95699000D01*
X123809686Y-95736507D01*
X123809686Y-95736507D01*
G37*
G36*
X97022228Y-95447703D02*
X97177100Y-95511853D01*
X97316481Y-95604985D01*
X97435015Y-95723519D01*
X97528147Y-95862900D01*
X97592297Y-96017772D01*
X97625000Y-96182184D01*
X97625000Y-96349816D01*
X97592297Y-96514228D01*
X97528147Y-96669100D01*
X97435015Y-96808481D01*
X97316481Y-96927015D01*
X97177100Y-97020147D01*
X97022228Y-97084297D01*
X96857816Y-97117000D01*
X96690184Y-97117000D01*
X96525772Y-97084297D01*
X96370900Y-97020147D01*
X96231519Y-96927015D01*
X96112985Y-96808481D01*
X96019853Y-96669100D01*
X95955703Y-96514228D01*
X95923000Y-96349816D01*
X95923000Y-96182184D01*
X95955703Y-96017772D01*
X96019853Y-95862900D01*
X96112985Y-95723519D01*
X96231519Y-95604985D01*
X96370900Y-95511853D01*
X96525772Y-95447703D01*
X96690184Y-95415000D01*
X96857816Y-95415000D01*
X97022228Y-95447703D01*
X97022228Y-95447703D01*
G37*
G36*
X102356228Y-95407703D02*
X102511100Y-95471853D01*
X102650481Y-95564985D01*
X102769015Y-95683519D01*
X102862147Y-95822900D01*
X102926297Y-95977772D01*
X102959000Y-96142184D01*
X102959000Y-96309816D01*
X102926297Y-96474228D01*
X102862147Y-96629100D01*
X102769015Y-96768481D01*
X102650481Y-96887015D01*
X102511100Y-96980147D01*
X102356228Y-97044297D01*
X102191816Y-97077000D01*
X102024184Y-97077000D01*
X101859772Y-97044297D01*
X101704900Y-96980147D01*
X101565519Y-96887015D01*
X101446985Y-96768481D01*
X101353853Y-96629100D01*
X101289703Y-96474228D01*
X101257000Y-96309816D01*
X101257000Y-96142184D01*
X101289703Y-95977772D01*
X101353853Y-95822900D01*
X101446985Y-95683519D01*
X101565519Y-95564985D01*
X101704900Y-95471853D01*
X101859772Y-95407703D01*
X102024184Y-95375000D01*
X102191816Y-95375000D01*
X102356228Y-95407703D01*
X102356228Y-95407703D01*
G37*
G36*
X110040821Y-95173313D02*
X110040824Y-95173314D01*
X110040825Y-95173314D01*
X110201239Y-95221975D01*
X110201241Y-95221976D01*
X110201244Y-95221977D01*
X110349078Y-95300995D01*
X110478659Y-95407341D01*
X110585005Y-95536922D01*
X110664023Y-95684756D01*
X110712687Y-95845179D01*
X110729117Y-96012000D01*
X110712687Y-96178821D01*
X110664023Y-96339244D01*
X110585005Y-96487078D01*
X110478659Y-96616659D01*
X110349078Y-96723005D01*
X110201244Y-96802023D01*
X110201241Y-96802024D01*
X110201239Y-96802025D01*
X110040825Y-96850686D01*
X110040824Y-96850686D01*
X110040821Y-96850687D01*
X109915804Y-96863000D01*
X109032196Y-96863000D01*
X108907179Y-96850687D01*
X108907176Y-96850686D01*
X108907175Y-96850686D01*
X108746761Y-96802025D01*
X108746759Y-96802024D01*
X108746756Y-96802023D01*
X108598922Y-96723005D01*
X108469341Y-96616659D01*
X108362995Y-96487078D01*
X108283977Y-96339244D01*
X108235313Y-96178821D01*
X108218883Y-96012000D01*
X108235313Y-95845179D01*
X108283977Y-95684756D01*
X108362995Y-95536922D01*
X108469341Y-95407341D01*
X108598922Y-95300995D01*
X108746756Y-95221977D01*
X108746759Y-95221976D01*
X108746761Y-95221975D01*
X108907175Y-95173314D01*
X108907176Y-95173314D01*
X108907179Y-95173313D01*
X109032196Y-95161000D01*
X109915804Y-95161000D01*
X110040821Y-95173313D01*
X110040821Y-95173313D01*
G37*
G36*
X117660821Y-95173313D02*
X117660824Y-95173314D01*
X117660825Y-95173314D01*
X117821239Y-95221975D01*
X117821241Y-95221976D01*
X117821244Y-95221977D01*
X117969078Y-95300995D01*
X118098659Y-95407341D01*
X118205005Y-95536922D01*
X118284023Y-95684756D01*
X118332687Y-95845179D01*
X118349117Y-96012000D01*
X118332687Y-96178821D01*
X118284023Y-96339244D01*
X118205005Y-96487078D01*
X118098659Y-96616659D01*
X117969078Y-96723005D01*
X117821244Y-96802023D01*
X117821241Y-96802024D01*
X117821239Y-96802025D01*
X117660825Y-96850686D01*
X117660824Y-96850686D01*
X117660821Y-96850687D01*
X117535804Y-96863000D01*
X116652196Y-96863000D01*
X116527179Y-96850687D01*
X116527176Y-96850686D01*
X116527175Y-96850686D01*
X116366761Y-96802025D01*
X116366759Y-96802024D01*
X116366756Y-96802023D01*
X116218922Y-96723005D01*
X116089341Y-96616659D01*
X115982995Y-96487078D01*
X115903977Y-96339244D01*
X115855313Y-96178821D01*
X115838883Y-96012000D01*
X115855313Y-95845179D01*
X115903977Y-95684756D01*
X115982995Y-95536922D01*
X116089341Y-95407341D01*
X116218922Y-95300995D01*
X116366756Y-95221977D01*
X116366759Y-95221976D01*
X116366761Y-95221975D01*
X116527175Y-95173314D01*
X116527176Y-95173314D01*
X116527179Y-95173313D01*
X116652196Y-95161000D01*
X117535804Y-95161000D01*
X117660821Y-95173313D01*
X117660821Y-95173313D01*
G37*
G36*
X88860000Y-96480000D02*
X86908000Y-96480000D01*
X86908000Y-94528000D01*
X88860000Y-94528000D01*
X88860000Y-96480000D01*
X88860000Y-96480000D01*
G37*
G36*
X97022228Y-92947703D02*
X97177100Y-93011853D01*
X97316481Y-93104985D01*
X97435015Y-93223519D01*
X97528147Y-93362900D01*
X97592297Y-93517772D01*
X97625000Y-93682184D01*
X97625000Y-93849816D01*
X97592297Y-94014228D01*
X97528147Y-94169100D01*
X97435015Y-94308481D01*
X97316481Y-94427015D01*
X97177100Y-94520147D01*
X97022228Y-94584297D01*
X96857816Y-94617000D01*
X96690184Y-94617000D01*
X96525772Y-94584297D01*
X96370900Y-94520147D01*
X96231519Y-94427015D01*
X96112985Y-94308481D01*
X96019853Y-94169100D01*
X95955703Y-94014228D01*
X95923000Y-93849816D01*
X95923000Y-93682184D01*
X95955703Y-93517772D01*
X96019853Y-93362900D01*
X96112985Y-93223519D01*
X96231519Y-93104985D01*
X96370900Y-93011853D01*
X96525772Y-92947703D01*
X96690184Y-92915000D01*
X96857816Y-92915000D01*
X97022228Y-92947703D01*
X97022228Y-92947703D01*
G37*
G36*
X102356228Y-92907703D02*
X102511100Y-92971853D01*
X102650481Y-93064985D01*
X102769015Y-93183519D01*
X102862147Y-93322900D01*
X102926297Y-93477772D01*
X102959000Y-93642184D01*
X102959000Y-93809816D01*
X102926297Y-93974228D01*
X102862147Y-94129100D01*
X102769015Y-94268481D01*
X102650481Y-94387015D01*
X102511100Y-94480147D01*
X102356228Y-94544297D01*
X102191816Y-94577000D01*
X102024184Y-94577000D01*
X101859772Y-94544297D01*
X101704900Y-94480147D01*
X101565519Y-94387015D01*
X101446985Y-94268481D01*
X101353853Y-94129100D01*
X101289703Y-93974228D01*
X101257000Y-93809816D01*
X101257000Y-93642184D01*
X101289703Y-93477772D01*
X101353853Y-93322900D01*
X101446985Y-93183519D01*
X101565519Y-93064985D01*
X101704900Y-92971853D01*
X101859772Y-92907703D01*
X102024184Y-92875000D01*
X102191816Y-92875000D01*
X102356228Y-92907703D01*
X102356228Y-92907703D01*
G37*
G36*
X117660821Y-92633313D02*
X117660824Y-92633314D01*
X117660825Y-92633314D01*
X117821239Y-92681975D01*
X117821241Y-92681976D01*
X117821244Y-92681977D01*
X117969078Y-92760995D01*
X118098659Y-92867341D01*
X118205005Y-92996922D01*
X118284023Y-93144756D01*
X118332687Y-93305179D01*
X118349117Y-93472000D01*
X118332687Y-93638821D01*
X118332686Y-93638824D01*
X118332686Y-93638825D01*
X118295289Y-93762108D01*
X118284023Y-93799244D01*
X118205005Y-93947078D01*
X118098659Y-94076659D01*
X117969078Y-94183005D01*
X117821244Y-94262023D01*
X117821241Y-94262024D01*
X117821239Y-94262025D01*
X117660825Y-94310686D01*
X117660824Y-94310686D01*
X117660821Y-94310687D01*
X117535804Y-94323000D01*
X116652196Y-94323000D01*
X116527179Y-94310687D01*
X116527176Y-94310686D01*
X116527175Y-94310686D01*
X116366761Y-94262025D01*
X116366759Y-94262024D01*
X116366756Y-94262023D01*
X116218922Y-94183005D01*
X116089341Y-94076659D01*
X115982995Y-93947078D01*
X115903977Y-93799244D01*
X115892712Y-93762108D01*
X115855314Y-93638825D01*
X115855314Y-93638824D01*
X115855313Y-93638821D01*
X115838883Y-93472000D01*
X115855313Y-93305179D01*
X115903977Y-93144756D01*
X115982995Y-92996922D01*
X116089341Y-92867341D01*
X116218922Y-92760995D01*
X116366756Y-92681977D01*
X116366759Y-92681976D01*
X116366761Y-92681975D01*
X116527175Y-92633314D01*
X116527176Y-92633314D01*
X116527179Y-92633313D01*
X116652196Y-92621000D01*
X117535804Y-92621000D01*
X117660821Y-92633313D01*
X117660821Y-92633313D01*
G37*
G36*
X110040821Y-92633313D02*
X110040824Y-92633314D01*
X110040825Y-92633314D01*
X110201239Y-92681975D01*
X110201241Y-92681976D01*
X110201244Y-92681977D01*
X110349078Y-92760995D01*
X110478659Y-92867341D01*
X110585005Y-92996922D01*
X110664023Y-93144756D01*
X110712687Y-93305179D01*
X110729117Y-93472000D01*
X110712687Y-93638821D01*
X110712686Y-93638824D01*
X110712686Y-93638825D01*
X110675289Y-93762108D01*
X110664023Y-93799244D01*
X110585005Y-93947078D01*
X110478659Y-94076659D01*
X110349078Y-94183005D01*
X110201244Y-94262023D01*
X110201241Y-94262024D01*
X110201239Y-94262025D01*
X110040825Y-94310686D01*
X110040824Y-94310686D01*
X110040821Y-94310687D01*
X109915804Y-94323000D01*
X109032196Y-94323000D01*
X108907179Y-94310687D01*
X108907176Y-94310686D01*
X108907175Y-94310686D01*
X108746761Y-94262025D01*
X108746759Y-94262024D01*
X108746756Y-94262023D01*
X108598922Y-94183005D01*
X108469341Y-94076659D01*
X108362995Y-93947078D01*
X108283977Y-93799244D01*
X108272712Y-93762108D01*
X108235314Y-93638825D01*
X108235314Y-93638824D01*
X108235313Y-93638821D01*
X108218883Y-93472000D01*
X108235313Y-93305179D01*
X108283977Y-93144756D01*
X108362995Y-92996922D01*
X108469341Y-92867341D01*
X108598922Y-92760995D01*
X108746756Y-92681977D01*
X108746759Y-92681976D01*
X108746761Y-92681975D01*
X108907175Y-92633314D01*
X108907176Y-92633314D01*
X108907179Y-92633313D01*
X109032196Y-92621000D01*
X109915804Y-92621000D01*
X110040821Y-92633313D01*
X110040821Y-92633313D01*
G37*
G36*
X88168686Y-92065507D02*
X88168688Y-92065508D01*
X88168689Y-92065508D01*
X88346309Y-92139080D01*
X88453950Y-92211004D01*
X88506166Y-92245894D01*
X88642106Y-92381834D01*
X88642108Y-92381837D01*
X88748920Y-92541691D01*
X88786871Y-92633314D01*
X88822493Y-92719314D01*
X88860000Y-92907871D01*
X88860000Y-93100129D01*
X88835456Y-93223519D01*
X88822492Y-93288689D01*
X88748920Y-93466309D01*
X88714533Y-93517772D01*
X88642106Y-93626166D01*
X88506166Y-93762106D01*
X88506163Y-93762108D01*
X88346309Y-93868920D01*
X88168689Y-93942492D01*
X88168688Y-93942492D01*
X88168686Y-93942493D01*
X87980129Y-93980000D01*
X87787871Y-93980000D01*
X87599314Y-93942493D01*
X87599312Y-93942492D01*
X87599311Y-93942492D01*
X87421691Y-93868920D01*
X87261837Y-93762108D01*
X87261834Y-93762106D01*
X87125894Y-93626166D01*
X87053467Y-93517772D01*
X87019080Y-93466309D01*
X86945508Y-93288689D01*
X86932545Y-93223519D01*
X86908000Y-93100129D01*
X86908000Y-92907871D01*
X86945507Y-92719314D01*
X86981129Y-92633314D01*
X87019080Y-92541691D01*
X87125892Y-92381837D01*
X87125894Y-92381834D01*
X87261834Y-92245894D01*
X87314050Y-92211004D01*
X87421691Y-92139080D01*
X87599311Y-92065508D01*
X87599312Y-92065508D01*
X87599314Y-92065507D01*
X87787871Y-92028000D01*
X87980129Y-92028000D01*
X88168686Y-92065507D01*
X88168686Y-92065507D01*
G37*
G36*
X125746821Y-90661313D02*
X125746824Y-90661314D01*
X125746825Y-90661314D01*
X125907239Y-90709975D01*
X125907241Y-90709976D01*
X125907244Y-90709977D01*
X126055078Y-90788995D01*
X126184659Y-90895341D01*
X126291005Y-91024922D01*
X126370023Y-91172756D01*
X126370024Y-91172759D01*
X126370025Y-91172761D01*
X126396259Y-91259244D01*
X126418687Y-91333179D01*
X126435117Y-91500000D01*
X126418687Y-91666821D01*
X126418686Y-91666824D01*
X126418686Y-91666825D01*
X126383445Y-91783000D01*
X126370023Y-91827244D01*
X126291005Y-91975078D01*
X126184659Y-92104659D01*
X126055078Y-92211005D01*
X125907244Y-92290023D01*
X125907241Y-92290024D01*
X125907239Y-92290025D01*
X125746825Y-92338686D01*
X125746824Y-92338686D01*
X125746821Y-92338687D01*
X125621804Y-92351000D01*
X125538196Y-92351000D01*
X125413179Y-92338687D01*
X125413176Y-92338686D01*
X125413175Y-92338686D01*
X125252761Y-92290025D01*
X125252759Y-92290024D01*
X125252756Y-92290023D01*
X125104922Y-92211005D01*
X124975341Y-92104659D01*
X124868995Y-91975078D01*
X124789977Y-91827244D01*
X124776556Y-91783000D01*
X124741314Y-91666825D01*
X124741314Y-91666824D01*
X124741313Y-91666821D01*
X124724883Y-91500000D01*
X124741313Y-91333179D01*
X124763741Y-91259244D01*
X124789975Y-91172761D01*
X124789976Y-91172759D01*
X124789977Y-91172756D01*
X124868995Y-91024922D01*
X124975341Y-90895341D01*
X125104922Y-90788995D01*
X125252756Y-90709977D01*
X125252759Y-90709976D01*
X125252761Y-90709975D01*
X125413175Y-90661314D01*
X125413176Y-90661314D01*
X125413179Y-90661313D01*
X125538196Y-90649000D01*
X125621804Y-90649000D01*
X125746821Y-90661313D01*
X125746821Y-90661313D01*
G37*
G36*
X120748228Y-90681703D02*
X120903100Y-90745853D01*
X121042481Y-90838985D01*
X121161015Y-90957519D01*
X121254147Y-91096900D01*
X121318297Y-91251772D01*
X121351000Y-91416184D01*
X121351000Y-91583816D01*
X121318297Y-91748228D01*
X121254147Y-91903100D01*
X121161015Y-92042481D01*
X121042481Y-92161015D01*
X120903100Y-92254147D01*
X120748228Y-92318297D01*
X120583816Y-92351000D01*
X120416184Y-92351000D01*
X120251772Y-92318297D01*
X120096900Y-92254147D01*
X119957519Y-92161015D01*
X119838985Y-92042481D01*
X119745853Y-91903100D01*
X119681703Y-91748228D01*
X119649000Y-91583816D01*
X119649000Y-91416184D01*
X119681703Y-91251772D01*
X119745853Y-91096900D01*
X119838985Y-90957519D01*
X119957519Y-90838985D01*
X120096900Y-90745853D01*
X120251772Y-90681703D01*
X120416184Y-90649000D01*
X120583816Y-90649000D01*
X120748228Y-90681703D01*
X120748228Y-90681703D01*
G37*
G36*
X117660821Y-90093313D02*
X117660824Y-90093314D01*
X117660825Y-90093314D01*
X117821239Y-90141975D01*
X117821241Y-90141976D01*
X117821244Y-90141977D01*
X117969078Y-90220995D01*
X118098659Y-90327341D01*
X118205005Y-90456922D01*
X118284023Y-90604756D01*
X118284024Y-90604759D01*
X118284025Y-90604761D01*
X118326825Y-90745854D01*
X118332687Y-90765179D01*
X118349117Y-90932000D01*
X118332687Y-91098821D01*
X118332686Y-91098824D01*
X118332686Y-91098825D01*
X118285037Y-91255904D01*
X118284023Y-91259244D01*
X118205005Y-91407078D01*
X118098659Y-91536659D01*
X117969078Y-91643005D01*
X117821244Y-91722023D01*
X117821241Y-91722024D01*
X117821239Y-91722025D01*
X117660825Y-91770686D01*
X117660824Y-91770686D01*
X117660821Y-91770687D01*
X117535804Y-91783000D01*
X116652196Y-91783000D01*
X116527179Y-91770687D01*
X116527176Y-91770686D01*
X116527175Y-91770686D01*
X116366761Y-91722025D01*
X116366759Y-91722024D01*
X116366756Y-91722023D01*
X116218922Y-91643005D01*
X116089341Y-91536659D01*
X115982995Y-91407078D01*
X115903977Y-91259244D01*
X115902964Y-91255904D01*
X115855314Y-91098825D01*
X115855314Y-91098824D01*
X115855313Y-91098821D01*
X115838883Y-90932000D01*
X115855313Y-90765179D01*
X115861175Y-90745854D01*
X115903975Y-90604761D01*
X115903976Y-90604759D01*
X115903977Y-90604756D01*
X115982995Y-90456922D01*
X116089341Y-90327341D01*
X116218922Y-90220995D01*
X116366756Y-90141977D01*
X116366759Y-90141976D01*
X116366761Y-90141975D01*
X116527175Y-90093314D01*
X116527176Y-90093314D01*
X116527179Y-90093313D01*
X116652196Y-90081000D01*
X117535804Y-90081000D01*
X117660821Y-90093313D01*
X117660821Y-90093313D01*
G37*
G36*
X110725000Y-91783000D02*
X108223000Y-91783000D01*
X108223000Y-90081000D01*
X110725000Y-90081000D01*
X110725000Y-91783000D01*
X110725000Y-91783000D01*
G37*
G36*
X88168686Y-89565507D02*
X88168688Y-89565508D01*
X88168689Y-89565508D01*
X88346309Y-89639080D01*
X88346310Y-89639081D01*
X88506166Y-89745894D01*
X88642106Y-89881834D01*
X88642108Y-89881837D01*
X88748920Y-90041691D01*
X88819121Y-90211173D01*
X88822493Y-90219314D01*
X88860000Y-90407871D01*
X88860000Y-90600129D01*
X88827170Y-90765175D01*
X88822492Y-90788689D01*
X88748920Y-90966309D01*
X88660375Y-91098825D01*
X88642106Y-91126166D01*
X88506166Y-91262106D01*
X88506163Y-91262108D01*
X88346309Y-91368920D01*
X88168689Y-91442492D01*
X88168688Y-91442492D01*
X88168686Y-91442493D01*
X87980129Y-91480000D01*
X87787871Y-91480000D01*
X87599314Y-91442493D01*
X87599312Y-91442492D01*
X87599311Y-91442492D01*
X87421691Y-91368920D01*
X87261837Y-91262108D01*
X87261834Y-91262106D01*
X87125894Y-91126166D01*
X87107625Y-91098825D01*
X87019080Y-90966309D01*
X86945508Y-90788689D01*
X86940831Y-90765175D01*
X86908000Y-90600129D01*
X86908000Y-90407871D01*
X86945507Y-90219314D01*
X86948879Y-90211173D01*
X87019080Y-90041691D01*
X87125892Y-89881837D01*
X87125894Y-89881834D01*
X87261834Y-89745894D01*
X87421690Y-89639081D01*
X87421691Y-89639080D01*
X87599311Y-89565508D01*
X87599312Y-89565508D01*
X87599314Y-89565507D01*
X87787871Y-89528000D01*
X87980129Y-89528000D01*
X88168686Y-89565507D01*
X88168686Y-89565507D01*
G37*
G36*
X101013305Y-90100096D02*
X101122680Y-90145400D01*
X101221118Y-90211175D01*
X101304825Y-90294882D01*
X101370600Y-90393320D01*
X101415904Y-90502695D01*
X101439000Y-90618806D01*
X101439000Y-90737194D01*
X101415904Y-90853305D01*
X101370600Y-90962680D01*
X101304825Y-91061118D01*
X101221118Y-91144825D01*
X101122680Y-91210600D01*
X101013305Y-91255904D01*
X100897194Y-91279000D01*
X100778806Y-91279000D01*
X100662695Y-91255904D01*
X100553320Y-91210600D01*
X100454882Y-91144825D01*
X100371175Y-91061118D01*
X100305400Y-90962680D01*
X100260096Y-90853305D01*
X100237000Y-90737194D01*
X100237000Y-90618806D01*
X100260096Y-90502695D01*
X100305400Y-90393320D01*
X100371175Y-90294882D01*
X100454882Y-90211175D01*
X100553320Y-90145400D01*
X100662695Y-90100096D01*
X100778806Y-90077000D01*
X100897194Y-90077000D01*
X101013305Y-90100096D01*
X101013305Y-90100096D01*
G37*
G36*
X98473305Y-90100096D02*
X98582680Y-90145400D01*
X98681118Y-90211175D01*
X98764825Y-90294882D01*
X98830600Y-90393320D01*
X98875904Y-90502695D01*
X98899000Y-90618806D01*
X98899000Y-90737194D01*
X98875904Y-90853305D01*
X98830600Y-90962680D01*
X98764825Y-91061118D01*
X98681118Y-91144825D01*
X98582680Y-91210600D01*
X98473305Y-91255904D01*
X98357194Y-91279000D01*
X98238806Y-91279000D01*
X98122695Y-91255904D01*
X98013320Y-91210600D01*
X97914882Y-91144825D01*
X97831175Y-91061118D01*
X97765400Y-90962680D01*
X97720096Y-90853305D01*
X97697000Y-90737194D01*
X97697000Y-90618806D01*
X97720096Y-90502695D01*
X97765400Y-90393320D01*
X97831175Y-90294882D01*
X97914882Y-90211175D01*
X98013320Y-90145400D01*
X98122695Y-90100096D01*
X98238806Y-90077000D01*
X98357194Y-90077000D01*
X98473305Y-90100096D01*
X98473305Y-90100096D01*
G37*
G36*
X101043928Y-87102710D02*
X101043931Y-87102711D01*
X101043932Y-87102711D01*
X101241950Y-87162779D01*
X101241952Y-87162780D01*
X101241955Y-87162781D01*
X101424445Y-87260323D01*
X101584402Y-87391598D01*
X101715677Y-87551555D01*
X101813219Y-87734045D01*
X101873290Y-87932072D01*
X101893572Y-88138000D01*
X101873290Y-88343928D01*
X101813219Y-88541955D01*
X101715677Y-88724445D01*
X101584402Y-88884402D01*
X101424445Y-89015677D01*
X101241955Y-89113219D01*
X101241952Y-89113220D01*
X101241950Y-89113221D01*
X101043932Y-89173289D01*
X101043931Y-89173289D01*
X101043928Y-89173290D01*
X100889601Y-89188490D01*
X100786399Y-89188490D01*
X100632072Y-89173290D01*
X100632069Y-89173289D01*
X100632068Y-89173289D01*
X100434050Y-89113221D01*
X100434048Y-89113220D01*
X100434045Y-89113219D01*
X100251555Y-89015677D01*
X100091598Y-88884402D01*
X99960323Y-88724445D01*
X99862781Y-88541955D01*
X99802710Y-88343928D01*
X99782428Y-88138000D01*
X99802710Y-87932072D01*
X99862781Y-87734045D01*
X99960323Y-87551555D01*
X100091598Y-87391598D01*
X100251555Y-87260323D01*
X100434045Y-87162781D01*
X100434048Y-87162780D01*
X100434050Y-87162779D01*
X100632068Y-87102711D01*
X100632069Y-87102711D01*
X100632072Y-87102710D01*
X100786399Y-87087510D01*
X100889601Y-87087510D01*
X101043928Y-87102710D01*
X101043928Y-87102710D01*
G37*
G36*
X99348490Y-89188490D02*
X97247510Y-89188490D01*
X97247510Y-87087510D01*
X99348490Y-87087510D01*
X99348490Y-89188490D01*
X99348490Y-89188490D01*
G37*
G36*
X88168686Y-87065507D02*
X88168688Y-87065508D01*
X88168689Y-87065508D01*
X88346309Y-87139080D01*
X88504002Y-87244448D01*
X88506166Y-87245894D01*
X88642106Y-87381834D01*
X88642108Y-87381837D01*
X88748920Y-87541691D01*
X88822492Y-87719311D01*
X88860000Y-87907872D01*
X88860000Y-88100128D01*
X88822492Y-88288689D01*
X88748920Y-88466309D01*
X88748919Y-88466310D01*
X88642106Y-88626166D01*
X88506166Y-88762106D01*
X88506163Y-88762108D01*
X88346309Y-88868920D01*
X88168689Y-88942492D01*
X88168688Y-88942492D01*
X88168686Y-88942493D01*
X87980129Y-88980000D01*
X87787871Y-88980000D01*
X87599314Y-88942493D01*
X87599312Y-88942492D01*
X87599311Y-88942492D01*
X87421691Y-88868920D01*
X87261837Y-88762108D01*
X87261834Y-88762106D01*
X87125894Y-88626166D01*
X87019081Y-88466310D01*
X87019080Y-88466309D01*
X86945508Y-88288689D01*
X86908000Y-88100128D01*
X86908000Y-87907872D01*
X86945508Y-87719311D01*
X87019080Y-87541691D01*
X87125892Y-87381837D01*
X87125894Y-87381834D01*
X87261834Y-87245894D01*
X87263998Y-87244448D01*
X87421691Y-87139080D01*
X87599311Y-87065508D01*
X87599312Y-87065508D01*
X87599314Y-87065507D01*
X87787871Y-87028000D01*
X87980129Y-87028000D01*
X88168686Y-87065507D01*
X88168686Y-87065507D01*
G37*
G36*
X121601000Y-85279000D02*
X119699000Y-85279000D01*
X119699000Y-83377000D01*
X121601000Y-83377000D01*
X121601000Y-85279000D01*
X121601000Y-85279000D01*
G37*
G36*
X123467396Y-83413546D02*
X123640466Y-83485234D01*
X123796230Y-83589312D01*
X123928688Y-83721770D01*
X124032766Y-83877534D01*
X124104454Y-84050604D01*
X124141000Y-84234333D01*
X124141000Y-84421667D01*
X124104454Y-84605396D01*
X124032766Y-84778466D01*
X123928688Y-84934230D01*
X123796230Y-85066688D01*
X123640466Y-85170766D01*
X123467396Y-85242454D01*
X123283667Y-85279000D01*
X123096333Y-85279000D01*
X122912604Y-85242454D01*
X122739534Y-85170766D01*
X122583770Y-85066688D01*
X122451312Y-84934230D01*
X122347234Y-84778466D01*
X122275546Y-84605396D01*
X122239000Y-84421667D01*
X122239000Y-84234333D01*
X122275546Y-84050604D01*
X122347234Y-83877534D01*
X122451312Y-83721770D01*
X122583770Y-83589312D01*
X122739534Y-83485234D01*
X122912604Y-83413546D01*
X123096333Y-83377000D01*
X123283667Y-83377000D01*
X123467396Y-83413546D01*
X123467396Y-83413546D01*
G37*
M02*
