G04 #@! TF.GenerationSoftware,KiCad,Pcbnew,5.0.1*
G04 #@! TF.CreationDate,2019-03-20T13:16:31+05:30*
G04 #@! TF.ProjectId,motor,6D6F746F722E6B696361645F70636200,rev?*
G04 #@! TF.SameCoordinates,Original*
G04 #@! TF.FileFunction,Legend,Top*
G04 #@! TF.FilePolarity,Positive*
%FSLAX46Y46*%
G04 Gerber Fmt 4.6, Leading zero omitted, Abs format (unit mm)*
G04 Created by KiCad (PCBNEW 5.0.1) date Wed 20 Mar 2019 01:16:31 PM IST*
%MOMM*%
%LPD*%
G01*
G04 APERTURE LIST*
%ADD10C,0.100000*%
%ADD11C,0.300000*%
%ADD12C,0.120000*%
%ADD13C,0.150000*%
%ADD14C,0.010000*%
G04 APERTURE END LIST*
D10*
X119365476Y-102048809D02*
X119479761Y-102086904D01*
X119670238Y-102086904D01*
X119746428Y-102048809D01*
X119784523Y-102010714D01*
X119822619Y-101934523D01*
X119822619Y-101858333D01*
X119784523Y-101782142D01*
X119746428Y-101744047D01*
X119670238Y-101705952D01*
X119517857Y-101667857D01*
X119441666Y-101629761D01*
X119403571Y-101591666D01*
X119365476Y-101515476D01*
X119365476Y-101439285D01*
X119403571Y-101363095D01*
X119441666Y-101325000D01*
X119517857Y-101286904D01*
X119708333Y-101286904D01*
X119822619Y-101325000D01*
X120584523Y-102086904D02*
X120127380Y-102086904D01*
X120355952Y-102086904D02*
X120355952Y-101286904D01*
X120279761Y-101401190D01*
X120203571Y-101477380D01*
X120127380Y-101515476D01*
X119365476Y-104548809D02*
X119479761Y-104586904D01*
X119670238Y-104586904D01*
X119746428Y-104548809D01*
X119784523Y-104510714D01*
X119822619Y-104434523D01*
X119822619Y-104358333D01*
X119784523Y-104282142D01*
X119746428Y-104244047D01*
X119670238Y-104205952D01*
X119517857Y-104167857D01*
X119441666Y-104129761D01*
X119403571Y-104091666D01*
X119365476Y-104015476D01*
X119365476Y-103939285D01*
X119403571Y-103863095D01*
X119441666Y-103825000D01*
X119517857Y-103786904D01*
X119708333Y-103786904D01*
X119822619Y-103825000D01*
X120127380Y-103863095D02*
X120165476Y-103825000D01*
X120241666Y-103786904D01*
X120432142Y-103786904D01*
X120508333Y-103825000D01*
X120546428Y-103863095D01*
X120584523Y-103939285D01*
X120584523Y-104015476D01*
X120546428Y-104129761D01*
X120089285Y-104586904D01*
X120584523Y-104586904D01*
X119365476Y-106973809D02*
X119479761Y-107011904D01*
X119670238Y-107011904D01*
X119746428Y-106973809D01*
X119784523Y-106935714D01*
X119822619Y-106859523D01*
X119822619Y-106783333D01*
X119784523Y-106707142D01*
X119746428Y-106669047D01*
X119670238Y-106630952D01*
X119517857Y-106592857D01*
X119441666Y-106554761D01*
X119403571Y-106516666D01*
X119365476Y-106440476D01*
X119365476Y-106364285D01*
X119403571Y-106288095D01*
X119441666Y-106250000D01*
X119517857Y-106211904D01*
X119708333Y-106211904D01*
X119822619Y-106250000D01*
X120089285Y-106211904D02*
X120584523Y-106211904D01*
X120317857Y-106516666D01*
X120432142Y-106516666D01*
X120508333Y-106554761D01*
X120546428Y-106592857D01*
X120584523Y-106669047D01*
X120584523Y-106859523D01*
X120546428Y-106935714D01*
X120508333Y-106973809D01*
X120432142Y-107011904D01*
X120203571Y-107011904D01*
X120127380Y-106973809D01*
X120089285Y-106935714D01*
X85123809Y-96228523D02*
X85161904Y-96114238D01*
X85161904Y-95923761D01*
X85123809Y-95847571D01*
X85085714Y-95809476D01*
X85009523Y-95771380D01*
X84933333Y-95771380D01*
X84857142Y-95809476D01*
X84819047Y-95847571D01*
X84780952Y-95923761D01*
X84742857Y-96076142D01*
X84704761Y-96152333D01*
X84666666Y-96190428D01*
X84590476Y-96228523D01*
X84514285Y-96228523D01*
X84438095Y-96190428D01*
X84400000Y-96152333D01*
X84361904Y-96076142D01*
X84361904Y-95885666D01*
X84400000Y-95771380D01*
X84361904Y-95504714D02*
X84361904Y-95009476D01*
X84666666Y-95276142D01*
X84666666Y-95161857D01*
X84704761Y-95085666D01*
X84742857Y-95047571D01*
X84819047Y-95009476D01*
X85009523Y-95009476D01*
X85085714Y-95047571D01*
X85123809Y-95085666D01*
X85161904Y-95161857D01*
X85161904Y-95390428D01*
X85123809Y-95466619D01*
X85085714Y-95504714D01*
X85123809Y-93653523D02*
X85161904Y-93539238D01*
X85161904Y-93348761D01*
X85123809Y-93272571D01*
X85085714Y-93234476D01*
X85009523Y-93196380D01*
X84933333Y-93196380D01*
X84857142Y-93234476D01*
X84819047Y-93272571D01*
X84780952Y-93348761D01*
X84742857Y-93501142D01*
X84704761Y-93577333D01*
X84666666Y-93615428D01*
X84590476Y-93653523D01*
X84514285Y-93653523D01*
X84438095Y-93615428D01*
X84400000Y-93577333D01*
X84361904Y-93501142D01*
X84361904Y-93310666D01*
X84400000Y-93196380D01*
X84438095Y-92891619D02*
X84400000Y-92853523D01*
X84361904Y-92777333D01*
X84361904Y-92586857D01*
X84400000Y-92510666D01*
X84438095Y-92472571D01*
X84514285Y-92434476D01*
X84590476Y-92434476D01*
X84704761Y-92472571D01*
X85161904Y-92929714D01*
X85161904Y-92434476D01*
X85123809Y-91153523D02*
X85161904Y-91039238D01*
X85161904Y-90848761D01*
X85123809Y-90772571D01*
X85085714Y-90734476D01*
X85009523Y-90696380D01*
X84933333Y-90696380D01*
X84857142Y-90734476D01*
X84819047Y-90772571D01*
X84780952Y-90848761D01*
X84742857Y-91001142D01*
X84704761Y-91077333D01*
X84666666Y-91115428D01*
X84590476Y-91153523D01*
X84514285Y-91153523D01*
X84438095Y-91115428D01*
X84400000Y-91077333D01*
X84361904Y-91001142D01*
X84361904Y-90810666D01*
X84400000Y-90696380D01*
X85161904Y-89934476D02*
X85161904Y-90391619D01*
X85161904Y-90163047D02*
X84361904Y-90163047D01*
X84476190Y-90239238D01*
X84552380Y-90315428D01*
X84590476Y-90391619D01*
X84400000Y-88528523D02*
X84361904Y-88604714D01*
X84361904Y-88719000D01*
X84400000Y-88833285D01*
X84476190Y-88909476D01*
X84552380Y-88947571D01*
X84704761Y-88985666D01*
X84819047Y-88985666D01*
X84971428Y-88947571D01*
X85047619Y-88909476D01*
X85123809Y-88833285D01*
X85161904Y-88719000D01*
X85161904Y-88642809D01*
X85123809Y-88528523D01*
X85085714Y-88490428D01*
X84819047Y-88490428D01*
X84819047Y-88642809D01*
X85161904Y-88147571D02*
X84361904Y-88147571D01*
X85161904Y-87690428D01*
X84361904Y-87690428D01*
X85161904Y-87309476D02*
X84361904Y-87309476D01*
X84361904Y-87119000D01*
X84400000Y-87004714D01*
X84476190Y-86928523D01*
X84552380Y-86890428D01*
X84704761Y-86852333D01*
X84819047Y-86852333D01*
X84971428Y-86890428D01*
X85047619Y-86928523D01*
X85123809Y-87004714D01*
X85161904Y-87119000D01*
X85161904Y-87309476D01*
X85336904Y-109701238D02*
X85336904Y-110158380D01*
X85336904Y-109929809D02*
X84536904Y-109929809D01*
X84651190Y-110006000D01*
X84727380Y-110082190D01*
X84765476Y-110158380D01*
X84613095Y-109396476D02*
X84575000Y-109358380D01*
X84536904Y-109282190D01*
X84536904Y-109091714D01*
X84575000Y-109015523D01*
X84613095Y-108977428D01*
X84689285Y-108939333D01*
X84765476Y-108939333D01*
X84879761Y-108977428D01*
X85336904Y-109434571D01*
X85336904Y-108939333D01*
X84536904Y-108710761D02*
X85336904Y-108444095D01*
X84536904Y-108177428D01*
X84461904Y-106958380D02*
X84461904Y-107339333D01*
X84842857Y-107377428D01*
X84804761Y-107339333D01*
X84766666Y-107263142D01*
X84766666Y-107072666D01*
X84804761Y-106996476D01*
X84842857Y-106958380D01*
X84919047Y-106920285D01*
X85109523Y-106920285D01*
X85185714Y-106958380D01*
X85223809Y-106996476D01*
X85261904Y-107072666D01*
X85261904Y-107263142D01*
X85223809Y-107339333D01*
X85185714Y-107377428D01*
X84461904Y-106691714D02*
X85261904Y-106425047D01*
X84461904Y-106158380D01*
X84375000Y-104690523D02*
X84336904Y-104766714D01*
X84336904Y-104881000D01*
X84375000Y-104995285D01*
X84451190Y-105071476D01*
X84527380Y-105109571D01*
X84679761Y-105147666D01*
X84794047Y-105147666D01*
X84946428Y-105109571D01*
X85022619Y-105071476D01*
X85098809Y-104995285D01*
X85136904Y-104881000D01*
X85136904Y-104804809D01*
X85098809Y-104690523D01*
X85060714Y-104652428D01*
X84794047Y-104652428D01*
X84794047Y-104804809D01*
X85136904Y-104309571D02*
X84336904Y-104309571D01*
X85136904Y-103852428D01*
X84336904Y-103852428D01*
X85136904Y-103471476D02*
X84336904Y-103471476D01*
X84336904Y-103281000D01*
X84375000Y-103166714D01*
X84451190Y-103090523D01*
X84527380Y-103052428D01*
X84679761Y-103014333D01*
X84794047Y-103014333D01*
X84946428Y-103052428D01*
X85022619Y-103090523D01*
X85098809Y-103166714D01*
X85136904Y-103281000D01*
X85136904Y-103471476D01*
D11*
X101636571Y-82212571D02*
X101636571Y-81212571D01*
X101636571Y-81355428D02*
X101708000Y-81284000D01*
X101850857Y-81212571D01*
X102065142Y-81212571D01*
X102208000Y-81284000D01*
X102279428Y-81426857D01*
X102279428Y-82212571D01*
X102279428Y-81426857D02*
X102350857Y-81284000D01*
X102493714Y-81212571D01*
X102708000Y-81212571D01*
X102850857Y-81284000D01*
X102922285Y-81426857D01*
X102922285Y-82212571D01*
X103850857Y-82212571D02*
X103708000Y-82141142D01*
X103636571Y-82069714D01*
X103565142Y-81926857D01*
X103565142Y-81498285D01*
X103636571Y-81355428D01*
X103708000Y-81284000D01*
X103850857Y-81212571D01*
X104065142Y-81212571D01*
X104208000Y-81284000D01*
X104279428Y-81355428D01*
X104350857Y-81498285D01*
X104350857Y-81926857D01*
X104279428Y-82069714D01*
X104208000Y-82141142D01*
X104065142Y-82212571D01*
X103850857Y-82212571D01*
X104779428Y-81212571D02*
X105350857Y-81212571D01*
X104993714Y-80712571D02*
X104993714Y-81998285D01*
X105065142Y-82141142D01*
X105208000Y-82212571D01*
X105350857Y-82212571D01*
X106065142Y-82212571D02*
X105922285Y-82141142D01*
X105850857Y-82069714D01*
X105779428Y-81926857D01*
X105779428Y-81498285D01*
X105850857Y-81355428D01*
X105922285Y-81284000D01*
X106065142Y-81212571D01*
X106279428Y-81212571D01*
X106422285Y-81284000D01*
X106493714Y-81355428D01*
X106565142Y-81498285D01*
X106565142Y-81926857D01*
X106493714Y-82069714D01*
X106422285Y-82141142D01*
X106279428Y-82212571D01*
X106065142Y-82212571D01*
X107208000Y-82212571D02*
X107208000Y-81212571D01*
X107208000Y-81498285D02*
X107279428Y-81355428D01*
X107350857Y-81284000D01*
X107493714Y-81212571D01*
X107636571Y-81212571D01*
X108136571Y-82212571D02*
X108136571Y-80712571D01*
X108636571Y-81784000D01*
X109136571Y-80712571D01*
X109136571Y-82212571D01*
X110065142Y-82212571D02*
X109922285Y-82141142D01*
X109850857Y-82069714D01*
X109779428Y-81926857D01*
X109779428Y-81498285D01*
X109850857Y-81355428D01*
X109922285Y-81284000D01*
X110065142Y-81212571D01*
X110279428Y-81212571D01*
X110422285Y-81284000D01*
X110493714Y-81355428D01*
X110565142Y-81498285D01*
X110565142Y-81926857D01*
X110493714Y-82069714D01*
X110422285Y-82141142D01*
X110279428Y-82212571D01*
X110065142Y-82212571D01*
X111850857Y-82212571D02*
X111850857Y-80712571D01*
X111850857Y-82141142D02*
X111708000Y-82212571D01*
X111422285Y-82212571D01*
X111279428Y-82141142D01*
X111208000Y-82069714D01*
X111136571Y-81926857D01*
X111136571Y-81498285D01*
X111208000Y-81355428D01*
X111279428Y-81284000D01*
X111422285Y-81212571D01*
X111708000Y-81212571D01*
X111850857Y-81284000D01*
X113208000Y-81212571D02*
X113208000Y-82212571D01*
X112565142Y-81212571D02*
X112565142Y-81998285D01*
X112636571Y-82141142D01*
X112779428Y-82212571D01*
X112993714Y-82212571D01*
X113136571Y-82141142D01*
X113208000Y-82069714D01*
X114136571Y-82212571D02*
X113993714Y-82141142D01*
X113922285Y-81998285D01*
X113922285Y-80712571D01*
X115279428Y-82141142D02*
X115136571Y-82212571D01*
X114850857Y-82212571D01*
X114708000Y-82141142D01*
X114636571Y-81998285D01*
X114636571Y-81426857D01*
X114708000Y-81284000D01*
X114850857Y-81212571D01*
X115136571Y-81212571D01*
X115279428Y-81284000D01*
X115350857Y-81426857D01*
X115350857Y-81569714D01*
X114636571Y-81712571D01*
X105608857Y-84728857D02*
X105108857Y-84728857D01*
X105108857Y-85514571D02*
X105108857Y-84014571D01*
X105823142Y-84014571D01*
X106680285Y-84014571D02*
X106966000Y-84014571D01*
X107108857Y-84086000D01*
X107251714Y-84228857D01*
X107323142Y-84514571D01*
X107323142Y-85014571D01*
X107251714Y-85300285D01*
X107108857Y-85443142D01*
X106966000Y-85514571D01*
X106680285Y-85514571D01*
X106537428Y-85443142D01*
X106394571Y-85300285D01*
X106323142Y-85014571D01*
X106323142Y-84514571D01*
X106394571Y-84228857D01*
X106537428Y-84086000D01*
X106680285Y-84014571D01*
X107894571Y-85443142D02*
X108108857Y-85514571D01*
X108466000Y-85514571D01*
X108608857Y-85443142D01*
X108680285Y-85371714D01*
X108751714Y-85228857D01*
X108751714Y-85086000D01*
X108680285Y-84943142D01*
X108608857Y-84871714D01*
X108466000Y-84800285D01*
X108180285Y-84728857D01*
X108037428Y-84657428D01*
X107966000Y-84586000D01*
X107894571Y-84443142D01*
X107894571Y-84300285D01*
X107966000Y-84157428D01*
X108037428Y-84086000D01*
X108180285Y-84014571D01*
X108537428Y-84014571D01*
X108751714Y-84086000D01*
X109323142Y-85443142D02*
X109537428Y-85514571D01*
X109894571Y-85514571D01*
X110037428Y-85443142D01*
X110108857Y-85371714D01*
X110180285Y-85228857D01*
X110180285Y-85086000D01*
X110108857Y-84943142D01*
X110037428Y-84871714D01*
X109894571Y-84800285D01*
X109608857Y-84728857D01*
X109466000Y-84657428D01*
X109394571Y-84586000D01*
X109323142Y-84443142D01*
X109323142Y-84300285D01*
X109394571Y-84157428D01*
X109466000Y-84086000D01*
X109608857Y-84014571D01*
X109966000Y-84014571D01*
X110180285Y-84086000D01*
X110823142Y-84728857D02*
X111323142Y-84728857D01*
X111537428Y-85514571D02*
X110823142Y-85514571D01*
X110823142Y-84014571D01*
X111537428Y-84014571D01*
X112180285Y-84728857D02*
X112680285Y-84728857D01*
X112894571Y-85514571D02*
X112180285Y-85514571D01*
X112180285Y-84014571D01*
X112894571Y-84014571D01*
X89730000Y-80966571D02*
X90015714Y-80966571D01*
X90158571Y-81038000D01*
X90301428Y-81180857D01*
X90372857Y-81466571D01*
X90372857Y-81966571D01*
X90301428Y-82252285D01*
X90158571Y-82395142D01*
X90015714Y-82466571D01*
X89730000Y-82466571D01*
X89587142Y-82395142D01*
X89444285Y-82252285D01*
X89372857Y-81966571D01*
X89372857Y-81466571D01*
X89444285Y-81180857D01*
X89587142Y-81038000D01*
X89730000Y-80966571D01*
X91015714Y-81466571D02*
X91015714Y-82966571D01*
X91015714Y-81538000D02*
X91158571Y-81466571D01*
X91444285Y-81466571D01*
X91587142Y-81538000D01*
X91658571Y-81609428D01*
X91730000Y-81752285D01*
X91730000Y-82180857D01*
X91658571Y-82323714D01*
X91587142Y-82395142D01*
X91444285Y-82466571D01*
X91158571Y-82466571D01*
X91015714Y-82395142D01*
X92944285Y-82395142D02*
X92801428Y-82466571D01*
X92515714Y-82466571D01*
X92372857Y-82395142D01*
X92301428Y-82252285D01*
X92301428Y-81680857D01*
X92372857Y-81538000D01*
X92515714Y-81466571D01*
X92801428Y-81466571D01*
X92944285Y-81538000D01*
X93015714Y-81680857D01*
X93015714Y-81823714D01*
X92301428Y-81966571D01*
X93658571Y-81466571D02*
X93658571Y-82466571D01*
X93658571Y-81609428D02*
X93730000Y-81538000D01*
X93872857Y-81466571D01*
X94087142Y-81466571D01*
X94230000Y-81538000D01*
X94301428Y-81680857D01*
X94301428Y-82466571D01*
X95015714Y-82466571D02*
X95015714Y-80966571D01*
X95587142Y-80966571D01*
X95730000Y-81038000D01*
X95801428Y-81109428D01*
X95872857Y-81252285D01*
X95872857Y-81466571D01*
X95801428Y-81609428D01*
X95730000Y-81680857D01*
X95587142Y-81752285D01*
X95015714Y-81752285D01*
X97230000Y-82466571D02*
X96515714Y-82466571D01*
X96515714Y-80966571D01*
X98587142Y-82323714D02*
X98515714Y-82395142D01*
X98301428Y-82466571D01*
X98158571Y-82466571D01*
X97944285Y-82395142D01*
X97801428Y-82252285D01*
X97730000Y-82109428D01*
X97658571Y-81823714D01*
X97658571Y-81609428D01*
X97730000Y-81323714D01*
X97801428Y-81180857D01*
X97944285Y-81038000D01*
X98158571Y-80966571D01*
X98301428Y-80966571D01*
X98515714Y-81038000D01*
X98587142Y-81109428D01*
D12*
G04 #@! TO.C,J4*
X126175000Y-109625000D02*
X126175000Y-107125000D01*
X123675000Y-109625000D02*
X126175000Y-109625000D01*
X124375000Y-95025000D02*
X125875000Y-95025000D01*
X124375000Y-94025000D02*
X124375000Y-95025000D01*
X124375000Y-108325000D02*
X125875000Y-108325000D01*
X124375000Y-109325000D02*
X124375000Y-108325000D01*
X123525000Y-94525000D02*
X123525000Y-94025000D01*
X122275000Y-94525000D02*
X123525000Y-94525000D01*
X122275000Y-108825000D02*
X122275000Y-94525000D01*
X123525000Y-108825000D02*
X122275000Y-108825000D01*
X123525000Y-109325000D02*
X123525000Y-108825000D01*
X121775000Y-94025000D02*
X121775000Y-109325000D01*
X125875000Y-94025000D02*
X121775000Y-94025000D01*
X125875000Y-109325000D02*
X125875000Y-94025000D01*
X121775000Y-109325000D02*
X125875000Y-109325000D01*
G04 #@! TO.C,D4*
X119360000Y-82783000D02*
X119360000Y-85873000D01*
X124420000Y-84328000D02*
G75*
G03X124420000Y-84328000I-2500000J0D01*
G01*
X124910000Y-84327538D02*
G75*
G02X119360000Y-85872830I-2990000J-462D01*
G01*
X124910000Y-84328462D02*
G75*
G03X119360000Y-82783170I-2990000J462D01*
G01*
G04 #@! TO.C,R4*
X121810000Y-91500000D02*
X124480000Y-91500000D01*
X121810000Y-91500000D02*
G75*
G03X121810000Y-91500000I-1310000J0D01*
G01*
G04 #@! TO.C,C2*
X103468000Y-93016000D02*
X103468000Y-96936000D01*
X100748000Y-93016000D02*
X100748000Y-96936000D01*
X103468000Y-93016000D02*
X102858000Y-93016000D01*
X101358000Y-93016000D02*
X100748000Y-93016000D01*
X103468000Y-96936000D02*
X102858000Y-96936000D01*
X101358000Y-96936000D02*
X100748000Y-96936000D01*
G04 #@! TO.C,C1*
X97524000Y-93056000D02*
X98134000Y-93056000D01*
X95414000Y-93056000D02*
X96024000Y-93056000D01*
X97524000Y-96976000D02*
X98134000Y-96976000D01*
X95414000Y-96976000D02*
X96024000Y-96976000D01*
X98134000Y-96976000D02*
X98134000Y-93056000D01*
X95414000Y-96976000D02*
X95414000Y-93056000D01*
G04 #@! TO.C,R3*
X95290000Y-112522000D02*
X97960000Y-112522000D01*
X95290000Y-112522000D02*
G75*
G03X95290000Y-112522000I-1310000J0D01*
G01*
G04 #@! TO.C,R2*
X95036000Y-106934000D02*
G75*
G03X95036000Y-106934000I-1310000J0D01*
G01*
X95036000Y-106934000D02*
X97706000Y-106934000D01*
G04 #@! TO.C,R1*
X95036000Y-101092000D02*
X97706000Y-101092000D01*
X95036000Y-101092000D02*
G75*
G03X95036000Y-101092000I-1310000J0D01*
G01*
G04 #@! TO.C,D3*
X102072000Y-113602000D02*
X102072000Y-113758000D01*
X102072000Y-111286000D02*
X102072000Y-111442000D01*
X104673130Y-113601837D02*
G75*
G02X102591039Y-113602000I-1041130J1079837D01*
G01*
X104673130Y-111442163D02*
G75*
G03X102591039Y-111442000I-1041130J-1079837D01*
G01*
X105304335Y-113600608D02*
G75*
G02X102072000Y-113757516I-1672335J1078608D01*
G01*
X105304335Y-111443392D02*
G75*
G03X102072000Y-111286484I-1672335J-1078608D01*
G01*
G04 #@! TO.C,D2*
X105304335Y-105855392D02*
G75*
G03X102072000Y-105698484I-1672335J-1078608D01*
G01*
X105304335Y-108012608D02*
G75*
G02X102072000Y-108169516I-1672335J1078608D01*
G01*
X104673130Y-105854163D02*
G75*
G03X102591039Y-105854000I-1041130J-1079837D01*
G01*
X104673130Y-108013837D02*
G75*
G02X102591039Y-108014000I-1041130J1079837D01*
G01*
X102072000Y-105698000D02*
X102072000Y-105854000D01*
X102072000Y-108014000D02*
X102072000Y-108170000D01*
G04 #@! TO.C,D1*
X102072000Y-102172000D02*
X102072000Y-102328000D01*
X102072000Y-99856000D02*
X102072000Y-100012000D01*
X104673130Y-102171837D02*
G75*
G02X102591039Y-102172000I-1041130J1079837D01*
G01*
X104673130Y-100012163D02*
G75*
G03X102591039Y-100012000I-1041130J-1079837D01*
G01*
X105304335Y-102170608D02*
G75*
G02X102072000Y-102327516I-1672335J1078608D01*
G01*
X105304335Y-100013392D02*
G75*
G03X102072000Y-99856484I-1672335J-1078608D01*
G01*
G04 #@! TO.C,U1*
X118534000Y-89542000D02*
X108034000Y-89542000D01*
X118534000Y-110102000D02*
X118534000Y-89542000D01*
X108034000Y-110102000D02*
X118534000Y-110102000D01*
X108034000Y-89542000D02*
X108034000Y-110102000D01*
X115534000Y-89602000D02*
X114284000Y-89602000D01*
X115534000Y-110042000D02*
X115534000Y-89602000D01*
X111034000Y-110042000D02*
X115534000Y-110042000D01*
X111034000Y-89602000D02*
X111034000Y-110042000D01*
X112284000Y-89602000D02*
X111034000Y-89602000D01*
X114284000Y-89602000D02*
G75*
G02X112284000Y-89602000I-1000000J0D01*
G01*
G04 #@! TO.C,J1*
X90534000Y-114710000D02*
X90534000Y-112210000D01*
X88034000Y-114710000D02*
X90534000Y-114710000D01*
X88734000Y-102610000D02*
X90234000Y-102610000D01*
X88734000Y-101610000D02*
X88734000Y-102610000D01*
X88734000Y-113410000D02*
X90234000Y-113410000D01*
X88734000Y-114410000D02*
X88734000Y-113410000D01*
X87884000Y-102110000D02*
X87884000Y-101610000D01*
X86634000Y-102110000D02*
X87884000Y-102110000D01*
X86634000Y-113910000D02*
X86634000Y-102110000D01*
X87884000Y-113910000D02*
X86634000Y-113910000D01*
X87884000Y-114410000D02*
X87884000Y-113910000D01*
X86134000Y-101610000D02*
X86134000Y-114410000D01*
X90234000Y-101610000D02*
X86134000Y-101610000D01*
X90234000Y-114410000D02*
X90234000Y-101610000D01*
X86134000Y-114410000D02*
X90234000Y-114410000D01*
G04 #@! TO.C,J2*
X90534000Y-98454000D02*
X90534000Y-95954000D01*
X88034000Y-98454000D02*
X90534000Y-98454000D01*
X88734000Y-86354000D02*
X90234000Y-86354000D01*
X88734000Y-85354000D02*
X88734000Y-86354000D01*
X88734000Y-97154000D02*
X90234000Y-97154000D01*
X88734000Y-98154000D02*
X88734000Y-97154000D01*
X87884000Y-85854000D02*
X87884000Y-85354000D01*
X86634000Y-85854000D02*
X87884000Y-85854000D01*
X86634000Y-97654000D02*
X86634000Y-85854000D01*
X87884000Y-97654000D02*
X86634000Y-97654000D01*
X87884000Y-98154000D02*
X87884000Y-97654000D01*
X86134000Y-85354000D02*
X86134000Y-98154000D01*
X90234000Y-85354000D02*
X86134000Y-85354000D01*
X90234000Y-98154000D02*
X90234000Y-85354000D01*
X86134000Y-98154000D02*
X90234000Y-98154000D01*
D13*
G04 #@! TO.C,J3*
X96768920Y-85039200D02*
X96768920Y-91236800D01*
X102367080Y-85039200D02*
X96768920Y-85039200D01*
X102367080Y-91236800D02*
X102367080Y-85039200D01*
X96768920Y-91236800D02*
X102367080Y-91236800D01*
X96768920Y-85437980D02*
X102367080Y-85437980D01*
X99568000Y-91236800D02*
X99568000Y-90738960D01*
X102168960Y-90738960D02*
X102168960Y-91236800D01*
X96967040Y-91236800D02*
X96967040Y-90738960D01*
X102367080Y-90738960D02*
X96768920Y-90738960D01*
D14*
G04 #@! TO.C,REF\002A\002A\002A*
G36*
X113169744Y-116727918D02*
X113225201Y-116755568D01*
X113274148Y-116806480D01*
X113287629Y-116825338D01*
X113302314Y-116850015D01*
X113311842Y-116876816D01*
X113317293Y-116912587D01*
X113319747Y-116964169D01*
X113320286Y-117032267D01*
X113317852Y-117125588D01*
X113309394Y-117195657D01*
X113293174Y-117247931D01*
X113267454Y-117287869D01*
X113230497Y-117320929D01*
X113227782Y-117322886D01*
X113191360Y-117342908D01*
X113147502Y-117352815D01*
X113091724Y-117355257D01*
X113001048Y-117355257D01*
X113001010Y-117443283D01*
X113000166Y-117492308D01*
X112995024Y-117521065D01*
X112981587Y-117538311D01*
X112955858Y-117552808D01*
X112949679Y-117555769D01*
X112920764Y-117569648D01*
X112898376Y-117578414D01*
X112881729Y-117579171D01*
X112870036Y-117569023D01*
X112862510Y-117545073D01*
X112858366Y-117504426D01*
X112856815Y-117444186D01*
X112857071Y-117361455D01*
X112858349Y-117253339D01*
X112858748Y-117221000D01*
X112860185Y-117109524D01*
X112861472Y-117036603D01*
X113000971Y-117036603D01*
X113001755Y-117098499D01*
X113005240Y-117138997D01*
X113013124Y-117165708D01*
X113027105Y-117186244D01*
X113036597Y-117196260D01*
X113075404Y-117225567D01*
X113109763Y-117227952D01*
X113145216Y-117203750D01*
X113146114Y-117202857D01*
X113160539Y-117184153D01*
X113169313Y-117158732D01*
X113173739Y-117119584D01*
X113175118Y-117059697D01*
X113175143Y-117046430D01*
X113171812Y-116963901D01*
X113160969Y-116906691D01*
X113141340Y-116871766D01*
X113111650Y-116856094D01*
X113094491Y-116854514D01*
X113053766Y-116861926D01*
X113025832Y-116886330D01*
X113009017Y-116930980D01*
X113001650Y-116999130D01*
X113000971Y-117036603D01*
X112861472Y-117036603D01*
X112861708Y-117023245D01*
X112863677Y-116958333D01*
X112866450Y-116910958D01*
X112870388Y-116877290D01*
X112875849Y-116853498D01*
X112883192Y-116835753D01*
X112892777Y-116820224D01*
X112896887Y-116814381D01*
X112951405Y-116759185D01*
X113020336Y-116727890D01*
X113100072Y-116719165D01*
X113169744Y-116727918D01*
X113169744Y-116727918D01*
G37*
X113169744Y-116727918D02*
X113225201Y-116755568D01*
X113274148Y-116806480D01*
X113287629Y-116825338D01*
X113302314Y-116850015D01*
X113311842Y-116876816D01*
X113317293Y-116912587D01*
X113319747Y-116964169D01*
X113320286Y-117032267D01*
X113317852Y-117125588D01*
X113309394Y-117195657D01*
X113293174Y-117247931D01*
X113267454Y-117287869D01*
X113230497Y-117320929D01*
X113227782Y-117322886D01*
X113191360Y-117342908D01*
X113147502Y-117352815D01*
X113091724Y-117355257D01*
X113001048Y-117355257D01*
X113001010Y-117443283D01*
X113000166Y-117492308D01*
X112995024Y-117521065D01*
X112981587Y-117538311D01*
X112955858Y-117552808D01*
X112949679Y-117555769D01*
X112920764Y-117569648D01*
X112898376Y-117578414D01*
X112881729Y-117579171D01*
X112870036Y-117569023D01*
X112862510Y-117545073D01*
X112858366Y-117504426D01*
X112856815Y-117444186D01*
X112857071Y-117361455D01*
X112858349Y-117253339D01*
X112858748Y-117221000D01*
X112860185Y-117109524D01*
X112861472Y-117036603D01*
X113000971Y-117036603D01*
X113001755Y-117098499D01*
X113005240Y-117138997D01*
X113013124Y-117165708D01*
X113027105Y-117186244D01*
X113036597Y-117196260D01*
X113075404Y-117225567D01*
X113109763Y-117227952D01*
X113145216Y-117203750D01*
X113146114Y-117202857D01*
X113160539Y-117184153D01*
X113169313Y-117158732D01*
X113173739Y-117119584D01*
X113175118Y-117059697D01*
X113175143Y-117046430D01*
X113171812Y-116963901D01*
X113160969Y-116906691D01*
X113141340Y-116871766D01*
X113111650Y-116856094D01*
X113094491Y-116854514D01*
X113053766Y-116861926D01*
X113025832Y-116886330D01*
X113009017Y-116930980D01*
X113001650Y-116999130D01*
X113000971Y-117036603D01*
X112861472Y-117036603D01*
X112861708Y-117023245D01*
X112863677Y-116958333D01*
X112866450Y-116910958D01*
X112870388Y-116877290D01*
X112875849Y-116853498D01*
X112883192Y-116835753D01*
X112892777Y-116820224D01*
X112896887Y-116814381D01*
X112951405Y-116759185D01*
X113020336Y-116727890D01*
X113100072Y-116719165D01*
X113169744Y-116727918D01*
G36*
X114286093Y-116735780D02*
X114332672Y-116762723D01*
X114365057Y-116789466D01*
X114388742Y-116817484D01*
X114405059Y-116851748D01*
X114415339Y-116897227D01*
X114420914Y-116958892D01*
X114423116Y-117041711D01*
X114423371Y-117101246D01*
X114423371Y-117320391D01*
X114361686Y-117348044D01*
X114300000Y-117375697D01*
X114292743Y-117135670D01*
X114289744Y-117046028D01*
X114286598Y-116980962D01*
X114282701Y-116936026D01*
X114277447Y-116906770D01*
X114270231Y-116888748D01*
X114260450Y-116877511D01*
X114257312Y-116875079D01*
X114209761Y-116856083D01*
X114161697Y-116863600D01*
X114133086Y-116883543D01*
X114121447Y-116897675D01*
X114113391Y-116916220D01*
X114108271Y-116944334D01*
X114105441Y-116987173D01*
X114104256Y-117049895D01*
X114104057Y-117115261D01*
X114104018Y-117197268D01*
X114102614Y-117255316D01*
X114097914Y-117294465D01*
X114087987Y-117319780D01*
X114070903Y-117336323D01*
X114044732Y-117349156D01*
X114009775Y-117362491D01*
X113971596Y-117377007D01*
X113976141Y-117119389D01*
X113977971Y-117026519D01*
X113980112Y-116957889D01*
X113983181Y-116908711D01*
X113987794Y-116874198D01*
X113994568Y-116849562D01*
X114004119Y-116830016D01*
X114015634Y-116812770D01*
X114071190Y-116757680D01*
X114138980Y-116725822D01*
X114212713Y-116718191D01*
X114286093Y-116735780D01*
X114286093Y-116735780D01*
G37*
X114286093Y-116735780D02*
X114332672Y-116762723D01*
X114365057Y-116789466D01*
X114388742Y-116817484D01*
X114405059Y-116851748D01*
X114415339Y-116897227D01*
X114420914Y-116958892D01*
X114423116Y-117041711D01*
X114423371Y-117101246D01*
X114423371Y-117320391D01*
X114361686Y-117348044D01*
X114300000Y-117375697D01*
X114292743Y-117135670D01*
X114289744Y-117046028D01*
X114286598Y-116980962D01*
X114282701Y-116936026D01*
X114277447Y-116906770D01*
X114270231Y-116888748D01*
X114260450Y-116877511D01*
X114257312Y-116875079D01*
X114209761Y-116856083D01*
X114161697Y-116863600D01*
X114133086Y-116883543D01*
X114121447Y-116897675D01*
X114113391Y-116916220D01*
X114108271Y-116944334D01*
X114105441Y-116987173D01*
X114104256Y-117049895D01*
X114104057Y-117115261D01*
X114104018Y-117197268D01*
X114102614Y-117255316D01*
X114097914Y-117294465D01*
X114087987Y-117319780D01*
X114070903Y-117336323D01*
X114044732Y-117349156D01*
X114009775Y-117362491D01*
X113971596Y-117377007D01*
X113976141Y-117119389D01*
X113977971Y-117026519D01*
X113980112Y-116957889D01*
X113983181Y-116908711D01*
X113987794Y-116874198D01*
X113994568Y-116849562D01*
X114004119Y-116830016D01*
X114015634Y-116812770D01*
X114071190Y-116757680D01*
X114138980Y-116725822D01*
X114212713Y-116718191D01*
X114286093Y-116735780D01*
G36*
X112611115Y-116729962D02*
X112679145Y-116765733D01*
X112729351Y-116823301D01*
X112747185Y-116860312D01*
X112761063Y-116915882D01*
X112768167Y-116986096D01*
X112768840Y-117062727D01*
X112763427Y-117137552D01*
X112752270Y-117202342D01*
X112735714Y-117248873D01*
X112730626Y-117256887D01*
X112670355Y-117316707D01*
X112598769Y-117352535D01*
X112521092Y-117363020D01*
X112442548Y-117346810D01*
X112420689Y-117337092D01*
X112378122Y-117307143D01*
X112340763Y-117267433D01*
X112337232Y-117262397D01*
X112322881Y-117238124D01*
X112313394Y-117212178D01*
X112307790Y-117178022D01*
X112305086Y-117129119D01*
X112304299Y-117058935D01*
X112304286Y-117043200D01*
X112304322Y-117038192D01*
X112449429Y-117038192D01*
X112450273Y-117104430D01*
X112453596Y-117148386D01*
X112460583Y-117176779D01*
X112472416Y-117196325D01*
X112478457Y-117202857D01*
X112513186Y-117227680D01*
X112546903Y-117226548D01*
X112580995Y-117205016D01*
X112601329Y-117182029D01*
X112613371Y-117148478D01*
X112620134Y-117095569D01*
X112620598Y-117089399D01*
X112621752Y-116993513D01*
X112609688Y-116922299D01*
X112584570Y-116876194D01*
X112546560Y-116855635D01*
X112532992Y-116854514D01*
X112497364Y-116860152D01*
X112472994Y-116879686D01*
X112458093Y-116917042D01*
X112450875Y-116976150D01*
X112449429Y-117038192D01*
X112304322Y-117038192D01*
X112304826Y-116968413D01*
X112307096Y-116916159D01*
X112312068Y-116879949D01*
X112320713Y-116853299D01*
X112334005Y-116829722D01*
X112336943Y-116825338D01*
X112386313Y-116766249D01*
X112440109Y-116731947D01*
X112505602Y-116718331D01*
X112527842Y-116717665D01*
X112611115Y-116729962D01*
X112611115Y-116729962D01*
G37*
X112611115Y-116729962D02*
X112679145Y-116765733D01*
X112729351Y-116823301D01*
X112747185Y-116860312D01*
X112761063Y-116915882D01*
X112768167Y-116986096D01*
X112768840Y-117062727D01*
X112763427Y-117137552D01*
X112752270Y-117202342D01*
X112735714Y-117248873D01*
X112730626Y-117256887D01*
X112670355Y-117316707D01*
X112598769Y-117352535D01*
X112521092Y-117363020D01*
X112442548Y-117346810D01*
X112420689Y-117337092D01*
X112378122Y-117307143D01*
X112340763Y-117267433D01*
X112337232Y-117262397D01*
X112322881Y-117238124D01*
X112313394Y-117212178D01*
X112307790Y-117178022D01*
X112305086Y-117129119D01*
X112304299Y-117058935D01*
X112304286Y-117043200D01*
X112304322Y-117038192D01*
X112449429Y-117038192D01*
X112450273Y-117104430D01*
X112453596Y-117148386D01*
X112460583Y-117176779D01*
X112472416Y-117196325D01*
X112478457Y-117202857D01*
X112513186Y-117227680D01*
X112546903Y-117226548D01*
X112580995Y-117205016D01*
X112601329Y-117182029D01*
X112613371Y-117148478D01*
X112620134Y-117095569D01*
X112620598Y-117089399D01*
X112621752Y-116993513D01*
X112609688Y-116922299D01*
X112584570Y-116876194D01*
X112546560Y-116855635D01*
X112532992Y-116854514D01*
X112497364Y-116860152D01*
X112472994Y-116879686D01*
X112458093Y-116917042D01*
X112450875Y-116976150D01*
X112449429Y-117038192D01*
X112304322Y-117038192D01*
X112304826Y-116968413D01*
X112307096Y-116916159D01*
X112312068Y-116879949D01*
X112320713Y-116853299D01*
X112334005Y-116829722D01*
X112336943Y-116825338D01*
X112386313Y-116766249D01*
X112440109Y-116731947D01*
X112505602Y-116718331D01*
X112527842Y-116717665D01*
X112611115Y-116729962D01*
G36*
X113738303Y-116739239D02*
X113795527Y-116777735D01*
X113839749Y-116833335D01*
X113866167Y-116904086D01*
X113871510Y-116956162D01*
X113870903Y-116977893D01*
X113865822Y-116994531D01*
X113851855Y-117009437D01*
X113824589Y-117025973D01*
X113779612Y-117047498D01*
X113712511Y-117077374D01*
X113712171Y-117077524D01*
X113650407Y-117105813D01*
X113599759Y-117130933D01*
X113565404Y-117150179D01*
X113552518Y-117160848D01*
X113552514Y-117160934D01*
X113563872Y-117184166D01*
X113590431Y-117209774D01*
X113620923Y-117228221D01*
X113636370Y-117231886D01*
X113678515Y-117219212D01*
X113714808Y-117187471D01*
X113732517Y-117152572D01*
X113749552Y-117126845D01*
X113782922Y-117097546D01*
X113822149Y-117072235D01*
X113856756Y-117058471D01*
X113863993Y-117057714D01*
X113872139Y-117070160D01*
X113872630Y-117101972D01*
X113866643Y-117144866D01*
X113855357Y-117190558D01*
X113839950Y-117230761D01*
X113839171Y-117232322D01*
X113792804Y-117297062D01*
X113732711Y-117341097D01*
X113664465Y-117362711D01*
X113593638Y-117360185D01*
X113525804Y-117331804D01*
X113522788Y-117329808D01*
X113469427Y-117281448D01*
X113434340Y-117218352D01*
X113414922Y-117135387D01*
X113412316Y-117112078D01*
X113407701Y-117002055D01*
X113413233Y-116950748D01*
X113552514Y-116950748D01*
X113554324Y-116982753D01*
X113564222Y-116992093D01*
X113588898Y-116985105D01*
X113627795Y-116968587D01*
X113671275Y-116947881D01*
X113672356Y-116947333D01*
X113709209Y-116927949D01*
X113724000Y-116915013D01*
X113720353Y-116901451D01*
X113704995Y-116883632D01*
X113665923Y-116857845D01*
X113623846Y-116855950D01*
X113586103Y-116874717D01*
X113560034Y-116910915D01*
X113552514Y-116950748D01*
X113413233Y-116950748D01*
X113417194Y-116914027D01*
X113441550Y-116844212D01*
X113475456Y-116795302D01*
X113536653Y-116745878D01*
X113604063Y-116721359D01*
X113672880Y-116719797D01*
X113738303Y-116739239D01*
X113738303Y-116739239D01*
G37*
X113738303Y-116739239D02*
X113795527Y-116777735D01*
X113839749Y-116833335D01*
X113866167Y-116904086D01*
X113871510Y-116956162D01*
X113870903Y-116977893D01*
X113865822Y-116994531D01*
X113851855Y-117009437D01*
X113824589Y-117025973D01*
X113779612Y-117047498D01*
X113712511Y-117077374D01*
X113712171Y-117077524D01*
X113650407Y-117105813D01*
X113599759Y-117130933D01*
X113565404Y-117150179D01*
X113552518Y-117160848D01*
X113552514Y-117160934D01*
X113563872Y-117184166D01*
X113590431Y-117209774D01*
X113620923Y-117228221D01*
X113636370Y-117231886D01*
X113678515Y-117219212D01*
X113714808Y-117187471D01*
X113732517Y-117152572D01*
X113749552Y-117126845D01*
X113782922Y-117097546D01*
X113822149Y-117072235D01*
X113856756Y-117058471D01*
X113863993Y-117057714D01*
X113872139Y-117070160D01*
X113872630Y-117101972D01*
X113866643Y-117144866D01*
X113855357Y-117190558D01*
X113839950Y-117230761D01*
X113839171Y-117232322D01*
X113792804Y-117297062D01*
X113732711Y-117341097D01*
X113664465Y-117362711D01*
X113593638Y-117360185D01*
X113525804Y-117331804D01*
X113522788Y-117329808D01*
X113469427Y-117281448D01*
X113434340Y-117218352D01*
X113414922Y-117135387D01*
X113412316Y-117112078D01*
X113407701Y-117002055D01*
X113413233Y-116950748D01*
X113552514Y-116950748D01*
X113554324Y-116982753D01*
X113564222Y-116992093D01*
X113588898Y-116985105D01*
X113627795Y-116968587D01*
X113671275Y-116947881D01*
X113672356Y-116947333D01*
X113709209Y-116927949D01*
X113724000Y-116915013D01*
X113720353Y-116901451D01*
X113704995Y-116883632D01*
X113665923Y-116857845D01*
X113623846Y-116855950D01*
X113586103Y-116874717D01*
X113560034Y-116910915D01*
X113552514Y-116950748D01*
X113413233Y-116950748D01*
X113417194Y-116914027D01*
X113441550Y-116844212D01*
X113475456Y-116795302D01*
X113536653Y-116745878D01*
X113604063Y-116721359D01*
X113672880Y-116719797D01*
X113738303Y-116739239D01*
G36*
X114945886Y-116659289D02*
X114950139Y-116718613D01*
X114955025Y-116753572D01*
X114961795Y-116768820D01*
X114971702Y-116769015D01*
X114974914Y-116767195D01*
X115017644Y-116754015D01*
X115073227Y-116754785D01*
X115129737Y-116768333D01*
X115165082Y-116785861D01*
X115201321Y-116813861D01*
X115227813Y-116845549D01*
X115245999Y-116885813D01*
X115257322Y-116939543D01*
X115263222Y-117011626D01*
X115265143Y-117106951D01*
X115265177Y-117125237D01*
X115265200Y-117330646D01*
X115219491Y-117346580D01*
X115187027Y-117357420D01*
X115169215Y-117362468D01*
X115168691Y-117362514D01*
X115166937Y-117348828D01*
X115165444Y-117311076D01*
X115164326Y-117254224D01*
X115163697Y-117183234D01*
X115163600Y-117140073D01*
X115163398Y-117054973D01*
X115162358Y-116993981D01*
X115159831Y-116952177D01*
X115155164Y-116924642D01*
X115147707Y-116906456D01*
X115136811Y-116892698D01*
X115130007Y-116886073D01*
X115083272Y-116859375D01*
X115032272Y-116857375D01*
X114986001Y-116879955D01*
X114977444Y-116888107D01*
X114964893Y-116903436D01*
X114956188Y-116921618D01*
X114950631Y-116947909D01*
X114947526Y-116987562D01*
X114946176Y-117045832D01*
X114945886Y-117126173D01*
X114945886Y-117330646D01*
X114900177Y-117346580D01*
X114867713Y-117357420D01*
X114849901Y-117362468D01*
X114849377Y-117362514D01*
X114848037Y-117348623D01*
X114846828Y-117309439D01*
X114845801Y-117248700D01*
X114845002Y-117170141D01*
X114844481Y-117077498D01*
X114844286Y-116974509D01*
X114844286Y-116577342D01*
X114891457Y-116557444D01*
X114938629Y-116537547D01*
X114945886Y-116659289D01*
X114945886Y-116659289D01*
G37*
X114945886Y-116659289D02*
X114950139Y-116718613D01*
X114955025Y-116753572D01*
X114961795Y-116768820D01*
X114971702Y-116769015D01*
X114974914Y-116767195D01*
X115017644Y-116754015D01*
X115073227Y-116754785D01*
X115129737Y-116768333D01*
X115165082Y-116785861D01*
X115201321Y-116813861D01*
X115227813Y-116845549D01*
X115245999Y-116885813D01*
X115257322Y-116939543D01*
X115263222Y-117011626D01*
X115265143Y-117106951D01*
X115265177Y-117125237D01*
X115265200Y-117330646D01*
X115219491Y-117346580D01*
X115187027Y-117357420D01*
X115169215Y-117362468D01*
X115168691Y-117362514D01*
X115166937Y-117348828D01*
X115165444Y-117311076D01*
X115164326Y-117254224D01*
X115163697Y-117183234D01*
X115163600Y-117140073D01*
X115163398Y-117054973D01*
X115162358Y-116993981D01*
X115159831Y-116952177D01*
X115155164Y-116924642D01*
X115147707Y-116906456D01*
X115136811Y-116892698D01*
X115130007Y-116886073D01*
X115083272Y-116859375D01*
X115032272Y-116857375D01*
X114986001Y-116879955D01*
X114977444Y-116888107D01*
X114964893Y-116903436D01*
X114956188Y-116921618D01*
X114950631Y-116947909D01*
X114947526Y-116987562D01*
X114946176Y-117045832D01*
X114945886Y-117126173D01*
X114945886Y-117330646D01*
X114900177Y-117346580D01*
X114867713Y-117357420D01*
X114849901Y-117362468D01*
X114849377Y-117362514D01*
X114848037Y-117348623D01*
X114846828Y-117309439D01*
X114845801Y-117248700D01*
X114845002Y-117170141D01*
X114844481Y-117077498D01*
X114844286Y-116974509D01*
X114844286Y-116577342D01*
X114891457Y-116557444D01*
X114938629Y-116537547D01*
X114945886Y-116659289D01*
G36*
X115609744Y-116758968D02*
X115666616Y-116780087D01*
X115667267Y-116780493D01*
X115702440Y-116806380D01*
X115728407Y-116836633D01*
X115746670Y-116876058D01*
X115758732Y-116929462D01*
X115766096Y-117001651D01*
X115770264Y-117097432D01*
X115770629Y-117111078D01*
X115775876Y-117316842D01*
X115731716Y-117339678D01*
X115699763Y-117355110D01*
X115680470Y-117362423D01*
X115679578Y-117362514D01*
X115676239Y-117349022D01*
X115673587Y-117312626D01*
X115671956Y-117259452D01*
X115671600Y-117216393D01*
X115671592Y-117146641D01*
X115668403Y-117102837D01*
X115657288Y-117081944D01*
X115633501Y-117080925D01*
X115592296Y-117096741D01*
X115530086Y-117125815D01*
X115484341Y-117149963D01*
X115460813Y-117170913D01*
X115453896Y-117193747D01*
X115453886Y-117194877D01*
X115465299Y-117234212D01*
X115499092Y-117255462D01*
X115550809Y-117258539D01*
X115588061Y-117258006D01*
X115607703Y-117268735D01*
X115619952Y-117294505D01*
X115627002Y-117327337D01*
X115616842Y-117345966D01*
X115613017Y-117348632D01*
X115577001Y-117359340D01*
X115526566Y-117360856D01*
X115474626Y-117353759D01*
X115437822Y-117340788D01*
X115386938Y-117297585D01*
X115358014Y-117237446D01*
X115352286Y-117190462D01*
X115356657Y-117148082D01*
X115372475Y-117113488D01*
X115403797Y-117082763D01*
X115454678Y-117051990D01*
X115529176Y-117017252D01*
X115533714Y-117015288D01*
X115600821Y-116984287D01*
X115642232Y-116958862D01*
X115659981Y-116936014D01*
X115656107Y-116912745D01*
X115632643Y-116886056D01*
X115625627Y-116879914D01*
X115578630Y-116856100D01*
X115529933Y-116857103D01*
X115487522Y-116880451D01*
X115459384Y-116923675D01*
X115456769Y-116932160D01*
X115431308Y-116973308D01*
X115399001Y-116993128D01*
X115352286Y-117012770D01*
X115352286Y-116961950D01*
X115366496Y-116888082D01*
X115408675Y-116820327D01*
X115430624Y-116797661D01*
X115480517Y-116768569D01*
X115543967Y-116755400D01*
X115609744Y-116758968D01*
X115609744Y-116758968D01*
G37*
X115609744Y-116758968D02*
X115666616Y-116780087D01*
X115667267Y-116780493D01*
X115702440Y-116806380D01*
X115728407Y-116836633D01*
X115746670Y-116876058D01*
X115758732Y-116929462D01*
X115766096Y-117001651D01*
X115770264Y-117097432D01*
X115770629Y-117111078D01*
X115775876Y-117316842D01*
X115731716Y-117339678D01*
X115699763Y-117355110D01*
X115680470Y-117362423D01*
X115679578Y-117362514D01*
X115676239Y-117349022D01*
X115673587Y-117312626D01*
X115671956Y-117259452D01*
X115671600Y-117216393D01*
X115671592Y-117146641D01*
X115668403Y-117102837D01*
X115657288Y-117081944D01*
X115633501Y-117080925D01*
X115592296Y-117096741D01*
X115530086Y-117125815D01*
X115484341Y-117149963D01*
X115460813Y-117170913D01*
X115453896Y-117193747D01*
X115453886Y-117194877D01*
X115465299Y-117234212D01*
X115499092Y-117255462D01*
X115550809Y-117258539D01*
X115588061Y-117258006D01*
X115607703Y-117268735D01*
X115619952Y-117294505D01*
X115627002Y-117327337D01*
X115616842Y-117345966D01*
X115613017Y-117348632D01*
X115577001Y-117359340D01*
X115526566Y-117360856D01*
X115474626Y-117353759D01*
X115437822Y-117340788D01*
X115386938Y-117297585D01*
X115358014Y-117237446D01*
X115352286Y-117190462D01*
X115356657Y-117148082D01*
X115372475Y-117113488D01*
X115403797Y-117082763D01*
X115454678Y-117051990D01*
X115529176Y-117017252D01*
X115533714Y-117015288D01*
X115600821Y-116984287D01*
X115642232Y-116958862D01*
X115659981Y-116936014D01*
X115656107Y-116912745D01*
X115632643Y-116886056D01*
X115625627Y-116879914D01*
X115578630Y-116856100D01*
X115529933Y-116857103D01*
X115487522Y-116880451D01*
X115459384Y-116923675D01*
X115456769Y-116932160D01*
X115431308Y-116973308D01*
X115399001Y-116993128D01*
X115352286Y-117012770D01*
X115352286Y-116961950D01*
X115366496Y-116888082D01*
X115408675Y-116820327D01*
X115430624Y-116797661D01*
X115480517Y-116768569D01*
X115543967Y-116755400D01*
X115609744Y-116758968D01*
G36*
X116099926Y-116757755D02*
X116165858Y-116782084D01*
X116219273Y-116825117D01*
X116240164Y-116855409D01*
X116262939Y-116910994D01*
X116262466Y-116951186D01*
X116238562Y-116978217D01*
X116229717Y-116982813D01*
X116191530Y-116997144D01*
X116172028Y-116993472D01*
X116165422Y-116969407D01*
X116165086Y-116956114D01*
X116152992Y-116907210D01*
X116121471Y-116872999D01*
X116077659Y-116856476D01*
X116028695Y-116860634D01*
X115988894Y-116882227D01*
X115975450Y-116894544D01*
X115965921Y-116909487D01*
X115959485Y-116932075D01*
X115955317Y-116967328D01*
X115952597Y-117020266D01*
X115950502Y-117095907D01*
X115949960Y-117119857D01*
X115947981Y-117201790D01*
X115945731Y-117259455D01*
X115942357Y-117297608D01*
X115937006Y-117321004D01*
X115928824Y-117334398D01*
X115916959Y-117342545D01*
X115909362Y-117346144D01*
X115877102Y-117358452D01*
X115858111Y-117362514D01*
X115851836Y-117348948D01*
X115848006Y-117307934D01*
X115846600Y-117238999D01*
X115847598Y-117141669D01*
X115847908Y-117126657D01*
X115850101Y-117037859D01*
X115852693Y-116973019D01*
X115856382Y-116927067D01*
X115861864Y-116894935D01*
X115869835Y-116871553D01*
X115880993Y-116851852D01*
X115886830Y-116843410D01*
X115920296Y-116806057D01*
X115957727Y-116777003D01*
X115962309Y-116774467D01*
X116029426Y-116754443D01*
X116099926Y-116757755D01*
X116099926Y-116757755D01*
G37*
X116099926Y-116757755D02*
X116165858Y-116782084D01*
X116219273Y-116825117D01*
X116240164Y-116855409D01*
X116262939Y-116910994D01*
X116262466Y-116951186D01*
X116238562Y-116978217D01*
X116229717Y-116982813D01*
X116191530Y-116997144D01*
X116172028Y-116993472D01*
X116165422Y-116969407D01*
X116165086Y-116956114D01*
X116152992Y-116907210D01*
X116121471Y-116872999D01*
X116077659Y-116856476D01*
X116028695Y-116860634D01*
X115988894Y-116882227D01*
X115975450Y-116894544D01*
X115965921Y-116909487D01*
X115959485Y-116932075D01*
X115955317Y-116967328D01*
X115952597Y-117020266D01*
X115950502Y-117095907D01*
X115949960Y-117119857D01*
X115947981Y-117201790D01*
X115945731Y-117259455D01*
X115942357Y-117297608D01*
X115937006Y-117321004D01*
X115928824Y-117334398D01*
X115916959Y-117342545D01*
X115909362Y-117346144D01*
X115877102Y-117358452D01*
X115858111Y-117362514D01*
X115851836Y-117348948D01*
X115848006Y-117307934D01*
X115846600Y-117238999D01*
X115847598Y-117141669D01*
X115847908Y-117126657D01*
X115850101Y-117037859D01*
X115852693Y-116973019D01*
X115856382Y-116927067D01*
X115861864Y-116894935D01*
X115869835Y-116871553D01*
X115880993Y-116851852D01*
X115886830Y-116843410D01*
X115920296Y-116806057D01*
X115957727Y-116777003D01*
X115962309Y-116774467D01*
X116029426Y-116754443D01*
X116099926Y-116757755D01*
G36*
X116760117Y-116873358D02*
X116759933Y-116981837D01*
X116759219Y-117065287D01*
X116757675Y-117127704D01*
X116755001Y-117173085D01*
X116750894Y-117205429D01*
X116745055Y-117228733D01*
X116737182Y-117246995D01*
X116731221Y-117257418D01*
X116681855Y-117313945D01*
X116619264Y-117349377D01*
X116550013Y-117362090D01*
X116480668Y-117350463D01*
X116439375Y-117329568D01*
X116396025Y-117293422D01*
X116366481Y-117249276D01*
X116348655Y-117191462D01*
X116340463Y-117114313D01*
X116339302Y-117057714D01*
X116339458Y-117053647D01*
X116440857Y-117053647D01*
X116441476Y-117118550D01*
X116444314Y-117161514D01*
X116450840Y-117189622D01*
X116462523Y-117209953D01*
X116476483Y-117225288D01*
X116523365Y-117254890D01*
X116573701Y-117257419D01*
X116621276Y-117232705D01*
X116624979Y-117229356D01*
X116640783Y-117211935D01*
X116650693Y-117191209D01*
X116656058Y-117160362D01*
X116658228Y-117112577D01*
X116658571Y-117059748D01*
X116657827Y-116993381D01*
X116654748Y-116949106D01*
X116648061Y-116920009D01*
X116636496Y-116899173D01*
X116627013Y-116888107D01*
X116582960Y-116860198D01*
X116532224Y-116856843D01*
X116483796Y-116878159D01*
X116474450Y-116886073D01*
X116458540Y-116903647D01*
X116448610Y-116924587D01*
X116443278Y-116955782D01*
X116441163Y-117004122D01*
X116440857Y-117053647D01*
X116339458Y-117053647D01*
X116342810Y-116966568D01*
X116354726Y-116898086D01*
X116377135Y-116846600D01*
X116412124Y-116806443D01*
X116439375Y-116785861D01*
X116488907Y-116763625D01*
X116546316Y-116753304D01*
X116599682Y-116756067D01*
X116629543Y-116767212D01*
X116641261Y-116770383D01*
X116649037Y-116758557D01*
X116654465Y-116726866D01*
X116658571Y-116678593D01*
X116663067Y-116624829D01*
X116669313Y-116592482D01*
X116680676Y-116573985D01*
X116700528Y-116561770D01*
X116713000Y-116556362D01*
X116760171Y-116536601D01*
X116760117Y-116873358D01*
X116760117Y-116873358D01*
G37*
X116760117Y-116873358D02*
X116759933Y-116981837D01*
X116759219Y-117065287D01*
X116757675Y-117127704D01*
X116755001Y-117173085D01*
X116750894Y-117205429D01*
X116745055Y-117228733D01*
X116737182Y-117246995D01*
X116731221Y-117257418D01*
X116681855Y-117313945D01*
X116619264Y-117349377D01*
X116550013Y-117362090D01*
X116480668Y-117350463D01*
X116439375Y-117329568D01*
X116396025Y-117293422D01*
X116366481Y-117249276D01*
X116348655Y-117191462D01*
X116340463Y-117114313D01*
X116339302Y-117057714D01*
X116339458Y-117053647D01*
X116440857Y-117053647D01*
X116441476Y-117118550D01*
X116444314Y-117161514D01*
X116450840Y-117189622D01*
X116462523Y-117209953D01*
X116476483Y-117225288D01*
X116523365Y-117254890D01*
X116573701Y-117257419D01*
X116621276Y-117232705D01*
X116624979Y-117229356D01*
X116640783Y-117211935D01*
X116650693Y-117191209D01*
X116656058Y-117160362D01*
X116658228Y-117112577D01*
X116658571Y-117059748D01*
X116657827Y-116993381D01*
X116654748Y-116949106D01*
X116648061Y-116920009D01*
X116636496Y-116899173D01*
X116627013Y-116888107D01*
X116582960Y-116860198D01*
X116532224Y-116856843D01*
X116483796Y-116878159D01*
X116474450Y-116886073D01*
X116458540Y-116903647D01*
X116448610Y-116924587D01*
X116443278Y-116955782D01*
X116441163Y-117004122D01*
X116440857Y-117053647D01*
X116339458Y-117053647D01*
X116342810Y-116966568D01*
X116354726Y-116898086D01*
X116377135Y-116846600D01*
X116412124Y-116806443D01*
X116439375Y-116785861D01*
X116488907Y-116763625D01*
X116546316Y-116753304D01*
X116599682Y-116756067D01*
X116629543Y-116767212D01*
X116641261Y-116770383D01*
X116649037Y-116758557D01*
X116654465Y-116726866D01*
X116658571Y-116678593D01*
X116663067Y-116624829D01*
X116669313Y-116592482D01*
X116680676Y-116573985D01*
X116700528Y-116561770D01*
X116713000Y-116556362D01*
X116760171Y-116536601D01*
X116760117Y-116873358D01*
G36*
X117349833Y-116766663D02*
X117352048Y-116804850D01*
X117353784Y-116862886D01*
X117354899Y-116936180D01*
X117355257Y-117013055D01*
X117355257Y-117273196D01*
X117309326Y-117319127D01*
X117277675Y-117347429D01*
X117249890Y-117358893D01*
X117211915Y-117358168D01*
X117196840Y-117356321D01*
X117149726Y-117350948D01*
X117110756Y-117347869D01*
X117101257Y-117347585D01*
X117069233Y-117349445D01*
X117023432Y-117354114D01*
X117005674Y-117356321D01*
X116962057Y-117359735D01*
X116932745Y-117352320D01*
X116903680Y-117329427D01*
X116893188Y-117319127D01*
X116847257Y-117273196D01*
X116847257Y-116786602D01*
X116884226Y-116769758D01*
X116916059Y-116757282D01*
X116934683Y-116752914D01*
X116939458Y-116766718D01*
X116943921Y-116805286D01*
X116947775Y-116864356D01*
X116950722Y-116939663D01*
X116952143Y-117003286D01*
X116956114Y-117253657D01*
X116990759Y-117258556D01*
X117022268Y-117255131D01*
X117037708Y-117244041D01*
X117042023Y-117223308D01*
X117045708Y-117179145D01*
X117048469Y-117117146D01*
X117050012Y-117042909D01*
X117050235Y-117004706D01*
X117050457Y-116784783D01*
X117096166Y-116768849D01*
X117128518Y-116758015D01*
X117146115Y-116752962D01*
X117146623Y-116752914D01*
X117148388Y-116766648D01*
X117150329Y-116804730D01*
X117152282Y-116862482D01*
X117154084Y-116935227D01*
X117155343Y-117003286D01*
X117159314Y-117253657D01*
X117246400Y-117253657D01*
X117250396Y-117025240D01*
X117254392Y-116796822D01*
X117296847Y-116774868D01*
X117328192Y-116759793D01*
X117346744Y-116752951D01*
X117347279Y-116752914D01*
X117349833Y-116766663D01*
X117349833Y-116766663D01*
G37*
X117349833Y-116766663D02*
X117352048Y-116804850D01*
X117353784Y-116862886D01*
X117354899Y-116936180D01*
X117355257Y-117013055D01*
X117355257Y-117273196D01*
X117309326Y-117319127D01*
X117277675Y-117347429D01*
X117249890Y-117358893D01*
X117211915Y-117358168D01*
X117196840Y-117356321D01*
X117149726Y-117350948D01*
X117110756Y-117347869D01*
X117101257Y-117347585D01*
X117069233Y-117349445D01*
X117023432Y-117354114D01*
X117005674Y-117356321D01*
X116962057Y-117359735D01*
X116932745Y-117352320D01*
X116903680Y-117329427D01*
X116893188Y-117319127D01*
X116847257Y-117273196D01*
X116847257Y-116786602D01*
X116884226Y-116769758D01*
X116916059Y-116757282D01*
X116934683Y-116752914D01*
X116939458Y-116766718D01*
X116943921Y-116805286D01*
X116947775Y-116864356D01*
X116950722Y-116939663D01*
X116952143Y-117003286D01*
X116956114Y-117253657D01*
X116990759Y-117258556D01*
X117022268Y-117255131D01*
X117037708Y-117244041D01*
X117042023Y-117223308D01*
X117045708Y-117179145D01*
X117048469Y-117117146D01*
X117050012Y-117042909D01*
X117050235Y-117004706D01*
X117050457Y-116784783D01*
X117096166Y-116768849D01*
X117128518Y-116758015D01*
X117146115Y-116752962D01*
X117146623Y-116752914D01*
X117148388Y-116766648D01*
X117150329Y-116804730D01*
X117152282Y-116862482D01*
X117154084Y-116935227D01*
X117155343Y-117003286D01*
X117159314Y-117253657D01*
X117246400Y-117253657D01*
X117250396Y-117025240D01*
X117254392Y-116796822D01*
X117296847Y-116774868D01*
X117328192Y-116759793D01*
X117346744Y-116752951D01*
X117347279Y-116752914D01*
X117349833Y-116766663D01*
G36*
X117714876Y-116764335D02*
X117756667Y-116783344D01*
X117789469Y-116806378D01*
X117813503Y-116832133D01*
X117830097Y-116865358D01*
X117840577Y-116910800D01*
X117846271Y-116973207D01*
X117848507Y-117057327D01*
X117848743Y-117112721D01*
X117848743Y-117328826D01*
X117811774Y-117345670D01*
X117782656Y-117357981D01*
X117768231Y-117362514D01*
X117765472Y-117349025D01*
X117763282Y-117312653D01*
X117761942Y-117259542D01*
X117761657Y-117217372D01*
X117760434Y-117156447D01*
X117757136Y-117108115D01*
X117752321Y-117078518D01*
X117748496Y-117072229D01*
X117722783Y-117078652D01*
X117682418Y-117095125D01*
X117635679Y-117117458D01*
X117590845Y-117141457D01*
X117556193Y-117162930D01*
X117540002Y-117177685D01*
X117539938Y-117177845D01*
X117541330Y-117205152D01*
X117553818Y-117231219D01*
X117575743Y-117252392D01*
X117607743Y-117259474D01*
X117635092Y-117258649D01*
X117673826Y-117258042D01*
X117694158Y-117267116D01*
X117706369Y-117291092D01*
X117707909Y-117295613D01*
X117713203Y-117329806D01*
X117699047Y-117350568D01*
X117662148Y-117360462D01*
X117622289Y-117362292D01*
X117550562Y-117348727D01*
X117513432Y-117329355D01*
X117467576Y-117283845D01*
X117443256Y-117227983D01*
X117441073Y-117168957D01*
X117461629Y-117113953D01*
X117492549Y-117079486D01*
X117523420Y-117060189D01*
X117571942Y-117035759D01*
X117628485Y-117010985D01*
X117637910Y-117007199D01*
X117700019Y-116979791D01*
X117735822Y-116955634D01*
X117747337Y-116931619D01*
X117736580Y-116904635D01*
X117718114Y-116883543D01*
X117674469Y-116857572D01*
X117626446Y-116855624D01*
X117582406Y-116875637D01*
X117550709Y-116915551D01*
X117546549Y-116925848D01*
X117522327Y-116963724D01*
X117486965Y-116991842D01*
X117442343Y-117014917D01*
X117442343Y-116949485D01*
X117444969Y-116909506D01*
X117456230Y-116877997D01*
X117481199Y-116844378D01*
X117505169Y-116818484D01*
X117542441Y-116781817D01*
X117571401Y-116762121D01*
X117602505Y-116754220D01*
X117637713Y-116752914D01*
X117714876Y-116764335D01*
X117714876Y-116764335D01*
G37*
X117714876Y-116764335D02*
X117756667Y-116783344D01*
X117789469Y-116806378D01*
X117813503Y-116832133D01*
X117830097Y-116865358D01*
X117840577Y-116910800D01*
X117846271Y-116973207D01*
X117848507Y-117057327D01*
X117848743Y-117112721D01*
X117848743Y-117328826D01*
X117811774Y-117345670D01*
X117782656Y-117357981D01*
X117768231Y-117362514D01*
X117765472Y-117349025D01*
X117763282Y-117312653D01*
X117761942Y-117259542D01*
X117761657Y-117217372D01*
X117760434Y-117156447D01*
X117757136Y-117108115D01*
X117752321Y-117078518D01*
X117748496Y-117072229D01*
X117722783Y-117078652D01*
X117682418Y-117095125D01*
X117635679Y-117117458D01*
X117590845Y-117141457D01*
X117556193Y-117162930D01*
X117540002Y-117177685D01*
X117539938Y-117177845D01*
X117541330Y-117205152D01*
X117553818Y-117231219D01*
X117575743Y-117252392D01*
X117607743Y-117259474D01*
X117635092Y-117258649D01*
X117673826Y-117258042D01*
X117694158Y-117267116D01*
X117706369Y-117291092D01*
X117707909Y-117295613D01*
X117713203Y-117329806D01*
X117699047Y-117350568D01*
X117662148Y-117360462D01*
X117622289Y-117362292D01*
X117550562Y-117348727D01*
X117513432Y-117329355D01*
X117467576Y-117283845D01*
X117443256Y-117227983D01*
X117441073Y-117168957D01*
X117461629Y-117113953D01*
X117492549Y-117079486D01*
X117523420Y-117060189D01*
X117571942Y-117035759D01*
X117628485Y-117010985D01*
X117637910Y-117007199D01*
X117700019Y-116979791D01*
X117735822Y-116955634D01*
X117747337Y-116931619D01*
X117736580Y-116904635D01*
X117718114Y-116883543D01*
X117674469Y-116857572D01*
X117626446Y-116855624D01*
X117582406Y-116875637D01*
X117550709Y-116915551D01*
X117546549Y-116925848D01*
X117522327Y-116963724D01*
X117486965Y-116991842D01*
X117442343Y-117014917D01*
X117442343Y-116949485D01*
X117444969Y-116909506D01*
X117456230Y-116877997D01*
X117481199Y-116844378D01*
X117505169Y-116818484D01*
X117542441Y-116781817D01*
X117571401Y-116762121D01*
X117602505Y-116754220D01*
X117637713Y-116752914D01*
X117714876Y-116764335D01*
G36*
X118222600Y-116766752D02*
X118239948Y-116774334D01*
X118281356Y-116807128D01*
X118316765Y-116854547D01*
X118338664Y-116905151D01*
X118342229Y-116930098D01*
X118330279Y-116964927D01*
X118304067Y-116983357D01*
X118275964Y-116994516D01*
X118263095Y-116996572D01*
X118256829Y-116981649D01*
X118244456Y-116949175D01*
X118239028Y-116934502D01*
X118208590Y-116883744D01*
X118164520Y-116858427D01*
X118108010Y-116859206D01*
X118103825Y-116860203D01*
X118073655Y-116874507D01*
X118051476Y-116902393D01*
X118036327Y-116947287D01*
X118027250Y-117012615D01*
X118023286Y-117101804D01*
X118022914Y-117149261D01*
X118022730Y-117224071D01*
X118021522Y-117275069D01*
X118018309Y-117307471D01*
X118012109Y-117326495D01*
X118001940Y-117337356D01*
X117986819Y-117345272D01*
X117985946Y-117345670D01*
X117956828Y-117357981D01*
X117942403Y-117362514D01*
X117940186Y-117348809D01*
X117938289Y-117310925D01*
X117936847Y-117253715D01*
X117935998Y-117182027D01*
X117935829Y-117129565D01*
X117936692Y-117028047D01*
X117940070Y-116951032D01*
X117947142Y-116894023D01*
X117959088Y-116852526D01*
X117977090Y-116822043D01*
X118002327Y-116798080D01*
X118027247Y-116781355D01*
X118087171Y-116759097D01*
X118156911Y-116754076D01*
X118222600Y-116766752D01*
X118222600Y-116766752D01*
G37*
X118222600Y-116766752D02*
X118239948Y-116774334D01*
X118281356Y-116807128D01*
X118316765Y-116854547D01*
X118338664Y-116905151D01*
X118342229Y-116930098D01*
X118330279Y-116964927D01*
X118304067Y-116983357D01*
X118275964Y-116994516D01*
X118263095Y-116996572D01*
X118256829Y-116981649D01*
X118244456Y-116949175D01*
X118239028Y-116934502D01*
X118208590Y-116883744D01*
X118164520Y-116858427D01*
X118108010Y-116859206D01*
X118103825Y-116860203D01*
X118073655Y-116874507D01*
X118051476Y-116902393D01*
X118036327Y-116947287D01*
X118027250Y-117012615D01*
X118023286Y-117101804D01*
X118022914Y-117149261D01*
X118022730Y-117224071D01*
X118021522Y-117275069D01*
X118018309Y-117307471D01*
X118012109Y-117326495D01*
X118001940Y-117337356D01*
X117986819Y-117345272D01*
X117985946Y-117345670D01*
X117956828Y-117357981D01*
X117942403Y-117362514D01*
X117940186Y-117348809D01*
X117938289Y-117310925D01*
X117936847Y-117253715D01*
X117935998Y-117182027D01*
X117935829Y-117129565D01*
X117936692Y-117028047D01*
X117940070Y-116951032D01*
X117947142Y-116894023D01*
X117959088Y-116852526D01*
X117977090Y-116822043D01*
X118002327Y-116798080D01*
X118027247Y-116781355D01*
X118087171Y-116759097D01*
X118156911Y-116754076D01*
X118222600Y-116766752D01*
G36*
X118723595Y-116774966D02*
X118781021Y-116812497D01*
X118808719Y-116846096D01*
X118830662Y-116907064D01*
X118832405Y-116955308D01*
X118828457Y-117019816D01*
X118679686Y-117084934D01*
X118607349Y-117118202D01*
X118560084Y-117144964D01*
X118535507Y-117168144D01*
X118531237Y-117190667D01*
X118544889Y-117215455D01*
X118559943Y-117231886D01*
X118603746Y-117258235D01*
X118651389Y-117260081D01*
X118695145Y-117239546D01*
X118727289Y-117198752D01*
X118733038Y-117184347D01*
X118760576Y-117139356D01*
X118792258Y-117120182D01*
X118835714Y-117103779D01*
X118835714Y-117165966D01*
X118831872Y-117208283D01*
X118816823Y-117243969D01*
X118785280Y-117284943D01*
X118780592Y-117290267D01*
X118745506Y-117326720D01*
X118715347Y-117346283D01*
X118677615Y-117355283D01*
X118646335Y-117358230D01*
X118590385Y-117358965D01*
X118550555Y-117349660D01*
X118525708Y-117335846D01*
X118486656Y-117305467D01*
X118459625Y-117272613D01*
X118442517Y-117231294D01*
X118433238Y-117175521D01*
X118429693Y-117099305D01*
X118429410Y-117060622D01*
X118430372Y-117014247D01*
X118518007Y-117014247D01*
X118519023Y-117039126D01*
X118521556Y-117043200D01*
X118538274Y-117037665D01*
X118574249Y-117023017D01*
X118622331Y-117002190D01*
X118632386Y-116997714D01*
X118693152Y-116966814D01*
X118726632Y-116939657D01*
X118733990Y-116914220D01*
X118716391Y-116888481D01*
X118701856Y-116877109D01*
X118649410Y-116854364D01*
X118600322Y-116858122D01*
X118559227Y-116885884D01*
X118530758Y-116935152D01*
X118521631Y-116974257D01*
X118518007Y-117014247D01*
X118430372Y-117014247D01*
X118431285Y-116970249D01*
X118438196Y-116903384D01*
X118451884Y-116854695D01*
X118474096Y-116818849D01*
X118506574Y-116790513D01*
X118520733Y-116781355D01*
X118585053Y-116757507D01*
X118655473Y-116756006D01*
X118723595Y-116774966D01*
X118723595Y-116774966D01*
G37*
X118723595Y-116774966D02*
X118781021Y-116812497D01*
X118808719Y-116846096D01*
X118830662Y-116907064D01*
X118832405Y-116955308D01*
X118828457Y-117019816D01*
X118679686Y-117084934D01*
X118607349Y-117118202D01*
X118560084Y-117144964D01*
X118535507Y-117168144D01*
X118531237Y-117190667D01*
X118544889Y-117215455D01*
X118559943Y-117231886D01*
X118603746Y-117258235D01*
X118651389Y-117260081D01*
X118695145Y-117239546D01*
X118727289Y-117198752D01*
X118733038Y-117184347D01*
X118760576Y-117139356D01*
X118792258Y-117120182D01*
X118835714Y-117103779D01*
X118835714Y-117165966D01*
X118831872Y-117208283D01*
X118816823Y-117243969D01*
X118785280Y-117284943D01*
X118780592Y-117290267D01*
X118745506Y-117326720D01*
X118715347Y-117346283D01*
X118677615Y-117355283D01*
X118646335Y-117358230D01*
X118590385Y-117358965D01*
X118550555Y-117349660D01*
X118525708Y-117335846D01*
X118486656Y-117305467D01*
X118459625Y-117272613D01*
X118442517Y-117231294D01*
X118433238Y-117175521D01*
X118429693Y-117099305D01*
X118429410Y-117060622D01*
X118430372Y-117014247D01*
X118518007Y-117014247D01*
X118519023Y-117039126D01*
X118521556Y-117043200D01*
X118538274Y-117037665D01*
X118574249Y-117023017D01*
X118622331Y-117002190D01*
X118632386Y-116997714D01*
X118693152Y-116966814D01*
X118726632Y-116939657D01*
X118733990Y-116914220D01*
X118716391Y-116888481D01*
X118701856Y-116877109D01*
X118649410Y-116854364D01*
X118600322Y-116858122D01*
X118559227Y-116885884D01*
X118530758Y-116935152D01*
X118521631Y-116974257D01*
X118518007Y-117014247D01*
X118430372Y-117014247D01*
X118431285Y-116970249D01*
X118438196Y-116903384D01*
X118451884Y-116854695D01*
X118474096Y-116818849D01*
X118506574Y-116790513D01*
X118520733Y-116781355D01*
X118585053Y-116757507D01*
X118655473Y-116756006D01*
X118723595Y-116774966D01*
G36*
X115673910Y-112050348D02*
X115752454Y-112050778D01*
X115809298Y-112051942D01*
X115848105Y-112054207D01*
X115872538Y-112057940D01*
X115886262Y-112063506D01*
X115892940Y-112071273D01*
X115896236Y-112081605D01*
X115896556Y-112082943D01*
X115901562Y-112107079D01*
X115910829Y-112154701D01*
X115923392Y-112220741D01*
X115938287Y-112300128D01*
X115954551Y-112387796D01*
X115955119Y-112390875D01*
X115971410Y-112476789D01*
X115986652Y-112552696D01*
X115999861Y-112614045D01*
X116010054Y-112656282D01*
X116016248Y-112674855D01*
X116016543Y-112675184D01*
X116034788Y-112684253D01*
X116072405Y-112699367D01*
X116121271Y-112717262D01*
X116121543Y-112717358D01*
X116183093Y-112740493D01*
X116255657Y-112769965D01*
X116324057Y-112799597D01*
X116327294Y-112801062D01*
X116438702Y-112851626D01*
X116685399Y-112683160D01*
X116761077Y-112631803D01*
X116829631Y-112585889D01*
X116887088Y-112548030D01*
X116929476Y-112520837D01*
X116952825Y-112506921D01*
X116955042Y-112505889D01*
X116972010Y-112510484D01*
X117003701Y-112532655D01*
X117051352Y-112573447D01*
X117116198Y-112633905D01*
X117182397Y-112698227D01*
X117246214Y-112761612D01*
X117303329Y-112819451D01*
X117350305Y-112868175D01*
X117383703Y-112904210D01*
X117400085Y-112923984D01*
X117400694Y-112925002D01*
X117402505Y-112938572D01*
X117395683Y-112960733D01*
X117378540Y-112994478D01*
X117349393Y-113042800D01*
X117306555Y-113108692D01*
X117249448Y-113193517D01*
X117198766Y-113268177D01*
X117153461Y-113335140D01*
X117116150Y-113390516D01*
X117089452Y-113430420D01*
X117075985Y-113450962D01*
X117075137Y-113452356D01*
X117076781Y-113472038D01*
X117089245Y-113510293D01*
X117110048Y-113559889D01*
X117117462Y-113575728D01*
X117149814Y-113646290D01*
X117184328Y-113726353D01*
X117212365Y-113795629D01*
X117232568Y-113847045D01*
X117248615Y-113886119D01*
X117257888Y-113906541D01*
X117259041Y-113908114D01*
X117276096Y-113910721D01*
X117316298Y-113917863D01*
X117374302Y-113928523D01*
X117444763Y-113941685D01*
X117522335Y-113956333D01*
X117601672Y-113971449D01*
X117677431Y-113986018D01*
X117744264Y-113999022D01*
X117796828Y-114009445D01*
X117829776Y-114016270D01*
X117837857Y-114018199D01*
X117846205Y-114022962D01*
X117852506Y-114033718D01*
X117857045Y-114054098D01*
X117860104Y-114087734D01*
X117861967Y-114138255D01*
X117862918Y-114209292D01*
X117863240Y-114304476D01*
X117863257Y-114343492D01*
X117863257Y-114660799D01*
X117787057Y-114675839D01*
X117744663Y-114683995D01*
X117681400Y-114695899D01*
X117604962Y-114710116D01*
X117523043Y-114725210D01*
X117500400Y-114729355D01*
X117424806Y-114744053D01*
X117358953Y-114758505D01*
X117308366Y-114771375D01*
X117278574Y-114781322D01*
X117273612Y-114784287D01*
X117261426Y-114805283D01*
X117243953Y-114845967D01*
X117224577Y-114898322D01*
X117220734Y-114909600D01*
X117195339Y-114979523D01*
X117163817Y-115058418D01*
X117132969Y-115129266D01*
X117132817Y-115129595D01*
X117081447Y-115240733D01*
X117250399Y-115489253D01*
X117419352Y-115737772D01*
X117202429Y-115955058D01*
X117136819Y-116019726D01*
X117076979Y-116076733D01*
X117026267Y-116123033D01*
X116988046Y-116155584D01*
X116965675Y-116171343D01*
X116962466Y-116172343D01*
X116943626Y-116164469D01*
X116905180Y-116142578D01*
X116851330Y-116109267D01*
X116786276Y-116067131D01*
X116715940Y-116019943D01*
X116644555Y-115971810D01*
X116580908Y-115929928D01*
X116529041Y-115896871D01*
X116492995Y-115875218D01*
X116476867Y-115867543D01*
X116457189Y-115874037D01*
X116419875Y-115891150D01*
X116372621Y-115915326D01*
X116367612Y-115918013D01*
X116303977Y-115949927D01*
X116260341Y-115965579D01*
X116233202Y-115965745D01*
X116219057Y-115951204D01*
X116218975Y-115951000D01*
X116211905Y-115933779D01*
X116195042Y-115892899D01*
X116169695Y-115831525D01*
X116137171Y-115752819D01*
X116098778Y-115659947D01*
X116055822Y-115556072D01*
X116014222Y-115455502D01*
X115968504Y-115344516D01*
X115926526Y-115241703D01*
X115889548Y-115150215D01*
X115858827Y-115073201D01*
X115835622Y-115013815D01*
X115821190Y-114975209D01*
X115816743Y-114960800D01*
X115827896Y-114944272D01*
X115857069Y-114917930D01*
X115895971Y-114888887D01*
X116006757Y-114797039D01*
X116093351Y-114691759D01*
X116154716Y-114575266D01*
X116189815Y-114449776D01*
X116197608Y-114317507D01*
X116191943Y-114256457D01*
X116161078Y-114129795D01*
X116107920Y-114017941D01*
X116035767Y-113922001D01*
X115947917Y-113843076D01*
X115847665Y-113782270D01*
X115738310Y-113740687D01*
X115623147Y-113719428D01*
X115505475Y-113719599D01*
X115388590Y-113742301D01*
X115275789Y-113788638D01*
X115170369Y-113859713D01*
X115126368Y-113899911D01*
X115041979Y-114003129D01*
X114983222Y-114115925D01*
X114949704Y-114235010D01*
X114941035Y-114357095D01*
X114956823Y-114478893D01*
X114996678Y-114597116D01*
X115060207Y-114708475D01*
X115147021Y-114809684D01*
X115244029Y-114888887D01*
X115284437Y-114919162D01*
X115312982Y-114945219D01*
X115323257Y-114960825D01*
X115317877Y-114977843D01*
X115302575Y-115018500D01*
X115278612Y-115079642D01*
X115247244Y-115158119D01*
X115209732Y-115250780D01*
X115167333Y-115354472D01*
X115125663Y-115455526D01*
X115079690Y-115566607D01*
X115037107Y-115669541D01*
X114999221Y-115761165D01*
X114967340Y-115838316D01*
X114942771Y-115897831D01*
X114926820Y-115936544D01*
X114920910Y-115951000D01*
X114906948Y-115965685D01*
X114879940Y-115965642D01*
X114836413Y-115950099D01*
X114772890Y-115918284D01*
X114772388Y-115918013D01*
X114724560Y-115893323D01*
X114685897Y-115875338D01*
X114664095Y-115867614D01*
X114663133Y-115867543D01*
X114646721Y-115875378D01*
X114610487Y-115897165D01*
X114558474Y-115930328D01*
X114494725Y-115972291D01*
X114424060Y-116019943D01*
X114352116Y-116068191D01*
X114287274Y-116110151D01*
X114233735Y-116143227D01*
X114195697Y-116164821D01*
X114177533Y-116172343D01*
X114160808Y-116162457D01*
X114127180Y-116134826D01*
X114080010Y-116092495D01*
X114022658Y-116038505D01*
X113958484Y-115975899D01*
X113937497Y-115954983D01*
X113720499Y-115737623D01*
X113885668Y-115495220D01*
X113935864Y-115420781D01*
X113979919Y-115353972D01*
X114015362Y-115298665D01*
X114039719Y-115258729D01*
X114050522Y-115238036D01*
X114050838Y-115236563D01*
X114045143Y-115217058D01*
X114029826Y-115177822D01*
X114007537Y-115125430D01*
X113991893Y-115090355D01*
X113962641Y-115023201D01*
X113935094Y-114955358D01*
X113913737Y-114898034D01*
X113907935Y-114880572D01*
X113891452Y-114833938D01*
X113875340Y-114797905D01*
X113866490Y-114784287D01*
X113846960Y-114775952D01*
X113804334Y-114764137D01*
X113744145Y-114750181D01*
X113671922Y-114735422D01*
X113639600Y-114729355D01*
X113557522Y-114714273D01*
X113478795Y-114699669D01*
X113411109Y-114686980D01*
X113362160Y-114677642D01*
X113352943Y-114675839D01*
X113276743Y-114660799D01*
X113276743Y-114343492D01*
X113276914Y-114239154D01*
X113277616Y-114160213D01*
X113279134Y-114103038D01*
X113281749Y-114063999D01*
X113285746Y-114039465D01*
X113291409Y-114025805D01*
X113299020Y-114019389D01*
X113302143Y-114018199D01*
X113320978Y-114013980D01*
X113362588Y-114005562D01*
X113421630Y-113993961D01*
X113492757Y-113980195D01*
X113570625Y-113965280D01*
X113649887Y-113950232D01*
X113725198Y-113936069D01*
X113791213Y-113923806D01*
X113842587Y-113914461D01*
X113873975Y-113909050D01*
X113880959Y-113908114D01*
X113887285Y-113895596D01*
X113901290Y-113862246D01*
X113920355Y-113814377D01*
X113927634Y-113795629D01*
X113956996Y-113723195D01*
X113991571Y-113643170D01*
X114022537Y-113575728D01*
X114045323Y-113524159D01*
X114060482Y-113481785D01*
X114065542Y-113455834D01*
X114064736Y-113452356D01*
X114054041Y-113435936D01*
X114029620Y-113399417D01*
X113994095Y-113346687D01*
X113950087Y-113281635D01*
X113900217Y-113208151D01*
X113890356Y-113193645D01*
X113832492Y-113107704D01*
X113789956Y-113042261D01*
X113761054Y-112994304D01*
X113744090Y-112960820D01*
X113737367Y-112938795D01*
X113739190Y-112925217D01*
X113739236Y-112925131D01*
X113753586Y-112907297D01*
X113785323Y-112872817D01*
X113831010Y-112825268D01*
X113887204Y-112768222D01*
X113950468Y-112705255D01*
X113957602Y-112698227D01*
X114037330Y-112621020D01*
X114098857Y-112564330D01*
X114143421Y-112527110D01*
X114172257Y-112508315D01*
X114184958Y-112505889D01*
X114203494Y-112516471D01*
X114241961Y-112540916D01*
X114296386Y-112576612D01*
X114362798Y-112620947D01*
X114437225Y-112671311D01*
X114454601Y-112683160D01*
X114701297Y-112851626D01*
X114812706Y-112801062D01*
X114880457Y-112771595D01*
X114953183Y-112741959D01*
X115015703Y-112718330D01*
X115018457Y-112717358D01*
X115067360Y-112699457D01*
X115105057Y-112684320D01*
X115123425Y-112675210D01*
X115123456Y-112675184D01*
X115129285Y-112658717D01*
X115139192Y-112618219D01*
X115152195Y-112558242D01*
X115167309Y-112483340D01*
X115183552Y-112398064D01*
X115184881Y-112390875D01*
X115201175Y-112303014D01*
X115216133Y-112223260D01*
X115228791Y-112156681D01*
X115238186Y-112108347D01*
X115243354Y-112083325D01*
X115243444Y-112082943D01*
X115246589Y-112072299D01*
X115252704Y-112064262D01*
X115265453Y-112058467D01*
X115288500Y-112054547D01*
X115325509Y-112052135D01*
X115380144Y-112050865D01*
X115456067Y-112050371D01*
X115556944Y-112050286D01*
X115570000Y-112050286D01*
X115673910Y-112050348D01*
X115673910Y-112050348D01*
G37*
X115673910Y-112050348D02*
X115752454Y-112050778D01*
X115809298Y-112051942D01*
X115848105Y-112054207D01*
X115872538Y-112057940D01*
X115886262Y-112063506D01*
X115892940Y-112071273D01*
X115896236Y-112081605D01*
X115896556Y-112082943D01*
X115901562Y-112107079D01*
X115910829Y-112154701D01*
X115923392Y-112220741D01*
X115938287Y-112300128D01*
X115954551Y-112387796D01*
X115955119Y-112390875D01*
X115971410Y-112476789D01*
X115986652Y-112552696D01*
X115999861Y-112614045D01*
X116010054Y-112656282D01*
X116016248Y-112674855D01*
X116016543Y-112675184D01*
X116034788Y-112684253D01*
X116072405Y-112699367D01*
X116121271Y-112717262D01*
X116121543Y-112717358D01*
X116183093Y-112740493D01*
X116255657Y-112769965D01*
X116324057Y-112799597D01*
X116327294Y-112801062D01*
X116438702Y-112851626D01*
X116685399Y-112683160D01*
X116761077Y-112631803D01*
X116829631Y-112585889D01*
X116887088Y-112548030D01*
X116929476Y-112520837D01*
X116952825Y-112506921D01*
X116955042Y-112505889D01*
X116972010Y-112510484D01*
X117003701Y-112532655D01*
X117051352Y-112573447D01*
X117116198Y-112633905D01*
X117182397Y-112698227D01*
X117246214Y-112761612D01*
X117303329Y-112819451D01*
X117350305Y-112868175D01*
X117383703Y-112904210D01*
X117400085Y-112923984D01*
X117400694Y-112925002D01*
X117402505Y-112938572D01*
X117395683Y-112960733D01*
X117378540Y-112994478D01*
X117349393Y-113042800D01*
X117306555Y-113108692D01*
X117249448Y-113193517D01*
X117198766Y-113268177D01*
X117153461Y-113335140D01*
X117116150Y-113390516D01*
X117089452Y-113430420D01*
X117075985Y-113450962D01*
X117075137Y-113452356D01*
X117076781Y-113472038D01*
X117089245Y-113510293D01*
X117110048Y-113559889D01*
X117117462Y-113575728D01*
X117149814Y-113646290D01*
X117184328Y-113726353D01*
X117212365Y-113795629D01*
X117232568Y-113847045D01*
X117248615Y-113886119D01*
X117257888Y-113906541D01*
X117259041Y-113908114D01*
X117276096Y-113910721D01*
X117316298Y-113917863D01*
X117374302Y-113928523D01*
X117444763Y-113941685D01*
X117522335Y-113956333D01*
X117601672Y-113971449D01*
X117677431Y-113986018D01*
X117744264Y-113999022D01*
X117796828Y-114009445D01*
X117829776Y-114016270D01*
X117837857Y-114018199D01*
X117846205Y-114022962D01*
X117852506Y-114033718D01*
X117857045Y-114054098D01*
X117860104Y-114087734D01*
X117861967Y-114138255D01*
X117862918Y-114209292D01*
X117863240Y-114304476D01*
X117863257Y-114343492D01*
X117863257Y-114660799D01*
X117787057Y-114675839D01*
X117744663Y-114683995D01*
X117681400Y-114695899D01*
X117604962Y-114710116D01*
X117523043Y-114725210D01*
X117500400Y-114729355D01*
X117424806Y-114744053D01*
X117358953Y-114758505D01*
X117308366Y-114771375D01*
X117278574Y-114781322D01*
X117273612Y-114784287D01*
X117261426Y-114805283D01*
X117243953Y-114845967D01*
X117224577Y-114898322D01*
X117220734Y-114909600D01*
X117195339Y-114979523D01*
X117163817Y-115058418D01*
X117132969Y-115129266D01*
X117132817Y-115129595D01*
X117081447Y-115240733D01*
X117250399Y-115489253D01*
X117419352Y-115737772D01*
X117202429Y-115955058D01*
X117136819Y-116019726D01*
X117076979Y-116076733D01*
X117026267Y-116123033D01*
X116988046Y-116155584D01*
X116965675Y-116171343D01*
X116962466Y-116172343D01*
X116943626Y-116164469D01*
X116905180Y-116142578D01*
X116851330Y-116109267D01*
X116786276Y-116067131D01*
X116715940Y-116019943D01*
X116644555Y-115971810D01*
X116580908Y-115929928D01*
X116529041Y-115896871D01*
X116492995Y-115875218D01*
X116476867Y-115867543D01*
X116457189Y-115874037D01*
X116419875Y-115891150D01*
X116372621Y-115915326D01*
X116367612Y-115918013D01*
X116303977Y-115949927D01*
X116260341Y-115965579D01*
X116233202Y-115965745D01*
X116219057Y-115951204D01*
X116218975Y-115951000D01*
X116211905Y-115933779D01*
X116195042Y-115892899D01*
X116169695Y-115831525D01*
X116137171Y-115752819D01*
X116098778Y-115659947D01*
X116055822Y-115556072D01*
X116014222Y-115455502D01*
X115968504Y-115344516D01*
X115926526Y-115241703D01*
X115889548Y-115150215D01*
X115858827Y-115073201D01*
X115835622Y-115013815D01*
X115821190Y-114975209D01*
X115816743Y-114960800D01*
X115827896Y-114944272D01*
X115857069Y-114917930D01*
X115895971Y-114888887D01*
X116006757Y-114797039D01*
X116093351Y-114691759D01*
X116154716Y-114575266D01*
X116189815Y-114449776D01*
X116197608Y-114317507D01*
X116191943Y-114256457D01*
X116161078Y-114129795D01*
X116107920Y-114017941D01*
X116035767Y-113922001D01*
X115947917Y-113843076D01*
X115847665Y-113782270D01*
X115738310Y-113740687D01*
X115623147Y-113719428D01*
X115505475Y-113719599D01*
X115388590Y-113742301D01*
X115275789Y-113788638D01*
X115170369Y-113859713D01*
X115126368Y-113899911D01*
X115041979Y-114003129D01*
X114983222Y-114115925D01*
X114949704Y-114235010D01*
X114941035Y-114357095D01*
X114956823Y-114478893D01*
X114996678Y-114597116D01*
X115060207Y-114708475D01*
X115147021Y-114809684D01*
X115244029Y-114888887D01*
X115284437Y-114919162D01*
X115312982Y-114945219D01*
X115323257Y-114960825D01*
X115317877Y-114977843D01*
X115302575Y-115018500D01*
X115278612Y-115079642D01*
X115247244Y-115158119D01*
X115209732Y-115250780D01*
X115167333Y-115354472D01*
X115125663Y-115455526D01*
X115079690Y-115566607D01*
X115037107Y-115669541D01*
X114999221Y-115761165D01*
X114967340Y-115838316D01*
X114942771Y-115897831D01*
X114926820Y-115936544D01*
X114920910Y-115951000D01*
X114906948Y-115965685D01*
X114879940Y-115965642D01*
X114836413Y-115950099D01*
X114772890Y-115918284D01*
X114772388Y-115918013D01*
X114724560Y-115893323D01*
X114685897Y-115875338D01*
X114664095Y-115867614D01*
X114663133Y-115867543D01*
X114646721Y-115875378D01*
X114610487Y-115897165D01*
X114558474Y-115930328D01*
X114494725Y-115972291D01*
X114424060Y-116019943D01*
X114352116Y-116068191D01*
X114287274Y-116110151D01*
X114233735Y-116143227D01*
X114195697Y-116164821D01*
X114177533Y-116172343D01*
X114160808Y-116162457D01*
X114127180Y-116134826D01*
X114080010Y-116092495D01*
X114022658Y-116038505D01*
X113958484Y-115975899D01*
X113937497Y-115954983D01*
X113720499Y-115737623D01*
X113885668Y-115495220D01*
X113935864Y-115420781D01*
X113979919Y-115353972D01*
X114015362Y-115298665D01*
X114039719Y-115258729D01*
X114050522Y-115238036D01*
X114050838Y-115236563D01*
X114045143Y-115217058D01*
X114029826Y-115177822D01*
X114007537Y-115125430D01*
X113991893Y-115090355D01*
X113962641Y-115023201D01*
X113935094Y-114955358D01*
X113913737Y-114898034D01*
X113907935Y-114880572D01*
X113891452Y-114833938D01*
X113875340Y-114797905D01*
X113866490Y-114784287D01*
X113846960Y-114775952D01*
X113804334Y-114764137D01*
X113744145Y-114750181D01*
X113671922Y-114735422D01*
X113639600Y-114729355D01*
X113557522Y-114714273D01*
X113478795Y-114699669D01*
X113411109Y-114686980D01*
X113362160Y-114677642D01*
X113352943Y-114675839D01*
X113276743Y-114660799D01*
X113276743Y-114343492D01*
X113276914Y-114239154D01*
X113277616Y-114160213D01*
X113279134Y-114103038D01*
X113281749Y-114063999D01*
X113285746Y-114039465D01*
X113291409Y-114025805D01*
X113299020Y-114019389D01*
X113302143Y-114018199D01*
X113320978Y-114013980D01*
X113362588Y-114005562D01*
X113421630Y-113993961D01*
X113492757Y-113980195D01*
X113570625Y-113965280D01*
X113649887Y-113950232D01*
X113725198Y-113936069D01*
X113791213Y-113923806D01*
X113842587Y-113914461D01*
X113873975Y-113909050D01*
X113880959Y-113908114D01*
X113887285Y-113895596D01*
X113901290Y-113862246D01*
X113920355Y-113814377D01*
X113927634Y-113795629D01*
X113956996Y-113723195D01*
X113991571Y-113643170D01*
X114022537Y-113575728D01*
X114045323Y-113524159D01*
X114060482Y-113481785D01*
X114065542Y-113455834D01*
X114064736Y-113452356D01*
X114054041Y-113435936D01*
X114029620Y-113399417D01*
X113994095Y-113346687D01*
X113950087Y-113281635D01*
X113900217Y-113208151D01*
X113890356Y-113193645D01*
X113832492Y-113107704D01*
X113789956Y-113042261D01*
X113761054Y-112994304D01*
X113744090Y-112960820D01*
X113737367Y-112938795D01*
X113739190Y-112925217D01*
X113739236Y-112925131D01*
X113753586Y-112907297D01*
X113785323Y-112872817D01*
X113831010Y-112825268D01*
X113887204Y-112768222D01*
X113950468Y-112705255D01*
X113957602Y-112698227D01*
X114037330Y-112621020D01*
X114098857Y-112564330D01*
X114143421Y-112527110D01*
X114172257Y-112508315D01*
X114184958Y-112505889D01*
X114203494Y-112516471D01*
X114241961Y-112540916D01*
X114296386Y-112576612D01*
X114362798Y-112620947D01*
X114437225Y-112671311D01*
X114454601Y-112683160D01*
X114701297Y-112851626D01*
X114812706Y-112801062D01*
X114880457Y-112771595D01*
X114953183Y-112741959D01*
X115015703Y-112718330D01*
X115018457Y-112717358D01*
X115067360Y-112699457D01*
X115105057Y-112684320D01*
X115123425Y-112675210D01*
X115123456Y-112675184D01*
X115129285Y-112658717D01*
X115139192Y-112618219D01*
X115152195Y-112558242D01*
X115167309Y-112483340D01*
X115183552Y-112398064D01*
X115184881Y-112390875D01*
X115201175Y-112303014D01*
X115216133Y-112223260D01*
X115228791Y-112156681D01*
X115238186Y-112108347D01*
X115243354Y-112083325D01*
X115243444Y-112082943D01*
X115246589Y-112072299D01*
X115252704Y-112064262D01*
X115265453Y-112058467D01*
X115288500Y-112054547D01*
X115325509Y-112052135D01*
X115380144Y-112050865D01*
X115456067Y-112050371D01*
X115556944Y-112050286D01*
X115570000Y-112050286D01*
X115673910Y-112050348D01*
G04 #@! TO.C,J4*
D13*
X119492380Y-95003333D02*
X120206666Y-95003333D01*
X120349523Y-95050952D01*
X120444761Y-95146190D01*
X120492380Y-95289047D01*
X120492380Y-95384285D01*
X119825714Y-94098571D02*
X120492380Y-94098571D01*
X119444761Y-94336666D02*
X120159047Y-94574761D01*
X120159047Y-93955714D01*
X119505952Y-110285714D02*
X119886904Y-110285714D01*
X119648809Y-109952380D02*
X119648809Y-110809523D01*
X119696428Y-110904761D01*
X119791666Y-110952380D01*
X119886904Y-110952380D01*
X120363095Y-110952380D02*
X120267857Y-110904761D01*
X120220238Y-110857142D01*
X120172619Y-110761904D01*
X120172619Y-110476190D01*
X120220238Y-110380952D01*
X120267857Y-110333333D01*
X120363095Y-110285714D01*
X120505952Y-110285714D01*
X120601190Y-110333333D01*
X120648809Y-110380952D01*
X120696428Y-110476190D01*
X120696428Y-110761904D01*
X120648809Y-110857142D01*
X120601190Y-110904761D01*
X120505952Y-110952380D01*
X120363095Y-110952380D01*
X121029761Y-110285714D02*
X121220238Y-110952380D01*
X121410714Y-110476190D01*
X121601190Y-110952380D01*
X121791666Y-110285714D01*
X122601190Y-110952380D02*
X122601190Y-110428571D01*
X122553571Y-110333333D01*
X122458333Y-110285714D01*
X122267857Y-110285714D01*
X122172619Y-110333333D01*
X122601190Y-110904761D02*
X122505952Y-110952380D01*
X122267857Y-110952380D01*
X122172619Y-110904761D01*
X122125000Y-110809523D01*
X122125000Y-110714285D01*
X122172619Y-110619047D01*
X122267857Y-110571428D01*
X122505952Y-110571428D01*
X122601190Y-110523809D01*
X123077380Y-110952380D02*
X123077380Y-110285714D01*
X123077380Y-110476190D02*
X123125000Y-110380952D01*
X123172619Y-110333333D01*
X123267857Y-110285714D01*
X123363095Y-110285714D01*
X124125000Y-110952380D02*
X124125000Y-109952380D01*
X124125000Y-110904761D02*
X124029761Y-110952380D01*
X123839285Y-110952380D01*
X123744047Y-110904761D01*
X123696428Y-110857142D01*
X123648809Y-110761904D01*
X123648809Y-110476190D01*
X123696428Y-110380952D01*
X123744047Y-110333333D01*
X123839285Y-110285714D01*
X124029761Y-110285714D01*
X124125000Y-110333333D01*
X124553571Y-110904761D02*
X124648809Y-110952380D01*
X124839285Y-110952380D01*
X124934523Y-110904761D01*
X124982142Y-110809523D01*
X124982142Y-110761904D01*
X124934523Y-110666666D01*
X124839285Y-110619047D01*
X124696428Y-110619047D01*
X124601190Y-110571428D01*
X124553571Y-110476190D01*
X124553571Y-110428571D01*
X124601190Y-110333333D01*
X124696428Y-110285714D01*
X124839285Y-110285714D01*
X124934523Y-110333333D01*
X126601190Y-110285714D02*
X126601190Y-110952380D01*
X126172619Y-110285714D02*
X126172619Y-110809523D01*
X126220238Y-110904761D01*
X126315476Y-110952380D01*
X126458333Y-110952380D01*
X126553571Y-110904761D01*
X126601190Y-110857142D01*
X127648809Y-110857142D02*
X127601190Y-110904761D01*
X127458333Y-110952380D01*
X127363095Y-110952380D01*
X127220238Y-110904761D01*
X127125000Y-110809523D01*
X127077380Y-110714285D01*
X127029761Y-110523809D01*
X127029761Y-110380952D01*
X127077380Y-110190476D01*
X127125000Y-110095238D01*
X127220238Y-110000000D01*
X127363095Y-109952380D01*
X127458333Y-109952380D01*
X127601190Y-110000000D01*
X127648809Y-110047619D01*
G04 #@! TO.C,D4*
X116511904Y-82380380D02*
X116511904Y-81380380D01*
X116750000Y-81380380D01*
X116892857Y-81428000D01*
X116988095Y-81523238D01*
X117035714Y-81618476D01*
X117083333Y-81808952D01*
X117083333Y-81951809D01*
X117035714Y-82142285D01*
X116988095Y-82237523D01*
X116892857Y-82332761D01*
X116750000Y-82380380D01*
X116511904Y-82380380D01*
X117940476Y-81713714D02*
X117940476Y-82380380D01*
X117702380Y-81332761D02*
X117464285Y-82047047D01*
X118083333Y-82047047D01*
X116059523Y-85032761D02*
X115964285Y-85080380D01*
X115773809Y-85080380D01*
X115678571Y-85032761D01*
X115630952Y-84937523D01*
X115630952Y-84556571D01*
X115678571Y-84461333D01*
X115773809Y-84413714D01*
X115964285Y-84413714D01*
X116059523Y-84461333D01*
X116107142Y-84556571D01*
X116107142Y-84651809D01*
X115630952Y-84747047D01*
X116535714Y-85080380D02*
X116535714Y-84413714D01*
X116535714Y-84604190D02*
X116583333Y-84508952D01*
X116630952Y-84461333D01*
X116726190Y-84413714D01*
X116821428Y-84413714D01*
X117154761Y-85080380D02*
X117154761Y-84413714D01*
X117154761Y-84604190D02*
X117202380Y-84508952D01*
X117250000Y-84461333D01*
X117345238Y-84413714D01*
X117440476Y-84413714D01*
X117916666Y-85080380D02*
X117821428Y-85032761D01*
X117773809Y-84985142D01*
X117726190Y-84889904D01*
X117726190Y-84604190D01*
X117773809Y-84508952D01*
X117821428Y-84461333D01*
X117916666Y-84413714D01*
X118059523Y-84413714D01*
X118154761Y-84461333D01*
X118202380Y-84508952D01*
X118250000Y-84604190D01*
X118250000Y-84889904D01*
X118202380Y-84985142D01*
X118154761Y-85032761D01*
X118059523Y-85080380D01*
X117916666Y-85080380D01*
X118678571Y-85080380D02*
X118678571Y-84413714D01*
X118678571Y-84604190D02*
X118726190Y-84508952D01*
X118773809Y-84461333D01*
X118869047Y-84413714D01*
X118964285Y-84413714D01*
G04 #@! TO.C,R4*
X127533333Y-91152380D02*
X127200000Y-90676190D01*
X126961904Y-91152380D02*
X126961904Y-90152380D01*
X127342857Y-90152380D01*
X127438095Y-90200000D01*
X127485714Y-90247619D01*
X127533333Y-90342857D01*
X127533333Y-90485714D01*
X127485714Y-90580952D01*
X127438095Y-90628571D01*
X127342857Y-90676190D01*
X126961904Y-90676190D01*
X128390476Y-90485714D02*
X128390476Y-91152380D01*
X128152380Y-90104761D02*
X127914285Y-90819047D01*
X128533333Y-90819047D01*
X127485714Y-92852380D02*
X126914285Y-92852380D01*
X127200000Y-92852380D02*
X127200000Y-91852380D01*
X127104761Y-91995238D01*
X127009523Y-92090476D01*
X126914285Y-92138095D01*
X127914285Y-92852380D02*
X127914285Y-91852380D01*
X128485714Y-92852380D02*
X128057142Y-92280952D01*
X128485714Y-91852380D02*
X127914285Y-92423809D01*
G04 #@! TO.C,C2*
X104832142Y-93641666D02*
X104879761Y-93689285D01*
X104927380Y-93832142D01*
X104927380Y-93927380D01*
X104879761Y-94070238D01*
X104784523Y-94165476D01*
X104689285Y-94213095D01*
X104498809Y-94260714D01*
X104355952Y-94260714D01*
X104165476Y-94213095D01*
X104070238Y-94165476D01*
X103975000Y-94070238D01*
X103927380Y-93927380D01*
X103927380Y-93832142D01*
X103975000Y-93689285D01*
X104022619Y-93641666D01*
X104022619Y-93260714D02*
X103975000Y-93213095D01*
X103927380Y-93117857D01*
X103927380Y-92879761D01*
X103975000Y-92784523D01*
X104022619Y-92736904D01*
X104117857Y-92689285D01*
X104213095Y-92689285D01*
X104355952Y-92736904D01*
X104927380Y-93308333D01*
X104927380Y-92689285D01*
X99577380Y-96802380D02*
X99577380Y-97373809D01*
X99577380Y-97088095D02*
X98577380Y-97088095D01*
X98720238Y-97183333D01*
X98815476Y-97278571D01*
X98863095Y-97373809D01*
X98910714Y-95945238D02*
X99577380Y-95945238D01*
X98910714Y-96373809D02*
X99434523Y-96373809D01*
X99529761Y-96326190D01*
X99577380Y-96230952D01*
X99577380Y-96088095D01*
X99529761Y-95992857D01*
X99482142Y-95945238D01*
X98910714Y-95611904D02*
X98910714Y-95230952D01*
X99577380Y-95469047D02*
X98720238Y-95469047D01*
X98625000Y-95421428D01*
X98577380Y-95326190D01*
X98577380Y-95230952D01*
G04 #@! TO.C,C1*
X99482142Y-93641666D02*
X99529761Y-93689285D01*
X99577380Y-93832142D01*
X99577380Y-93927380D01*
X99529761Y-94070238D01*
X99434523Y-94165476D01*
X99339285Y-94213095D01*
X99148809Y-94260714D01*
X99005952Y-94260714D01*
X98815476Y-94213095D01*
X98720238Y-94165476D01*
X98625000Y-94070238D01*
X98577380Y-93927380D01*
X98577380Y-93832142D01*
X98625000Y-93689285D01*
X98672619Y-93641666D01*
X99577380Y-92689285D02*
X99577380Y-93260714D01*
X99577380Y-92975000D02*
X98577380Y-92975000D01*
X98720238Y-93070238D01*
X98815476Y-93165476D01*
X98863095Y-93260714D01*
X104877380Y-96827380D02*
X104877380Y-97398809D01*
X104877380Y-97113095D02*
X103877380Y-97113095D01*
X104020238Y-97208333D01*
X104115476Y-97303571D01*
X104163095Y-97398809D01*
X104210714Y-95970238D02*
X104877380Y-95970238D01*
X104210714Y-96398809D02*
X104734523Y-96398809D01*
X104829761Y-96351190D01*
X104877380Y-96255952D01*
X104877380Y-96113095D01*
X104829761Y-96017857D01*
X104782142Y-95970238D01*
X104210714Y-95636904D02*
X104210714Y-95255952D01*
X104877380Y-95494047D02*
X104020238Y-95494047D01*
X103925000Y-95446428D01*
X103877380Y-95351190D01*
X103877380Y-95255952D01*
G04 #@! TO.C,R3*
X93833333Y-110752380D02*
X93500000Y-110276190D01*
X93261904Y-110752380D02*
X93261904Y-109752380D01*
X93642857Y-109752380D01*
X93738095Y-109800000D01*
X93785714Y-109847619D01*
X93833333Y-109942857D01*
X93833333Y-110085714D01*
X93785714Y-110180952D01*
X93738095Y-110228571D01*
X93642857Y-110276190D01*
X93261904Y-110276190D01*
X94166666Y-109752380D02*
X94785714Y-109752380D01*
X94452380Y-110133333D01*
X94595238Y-110133333D01*
X94690476Y-110180952D01*
X94738095Y-110228571D01*
X94785714Y-110323809D01*
X94785714Y-110561904D01*
X94738095Y-110657142D01*
X94690476Y-110704761D01*
X94595238Y-110752380D01*
X94309523Y-110752380D01*
X94214285Y-110704761D01*
X94166666Y-110657142D01*
X97938095Y-110085714D02*
X97938095Y-110752380D01*
X97700000Y-109704761D02*
X97461904Y-110419047D01*
X98080952Y-110419047D01*
X98366666Y-109752380D02*
X99033333Y-109752380D01*
X98604761Y-110752380D01*
X99604761Y-109752380D02*
X99700000Y-109752380D01*
X99795238Y-109800000D01*
X99842857Y-109847619D01*
X99890476Y-109942857D01*
X99938095Y-110133333D01*
X99938095Y-110371428D01*
X99890476Y-110561904D01*
X99842857Y-110657142D01*
X99795238Y-110704761D01*
X99700000Y-110752380D01*
X99604761Y-110752380D01*
X99509523Y-110704761D01*
X99461904Y-110657142D01*
X99414285Y-110561904D01*
X99366666Y-110371428D01*
X99366666Y-110133333D01*
X99414285Y-109942857D01*
X99461904Y-109847619D01*
X99509523Y-109800000D01*
X99604761Y-109752380D01*
G04 #@! TO.C,R2*
X94483333Y-105152380D02*
X94150000Y-104676190D01*
X93911904Y-105152380D02*
X93911904Y-104152380D01*
X94292857Y-104152380D01*
X94388095Y-104200000D01*
X94435714Y-104247619D01*
X94483333Y-104342857D01*
X94483333Y-104485714D01*
X94435714Y-104580952D01*
X94388095Y-104628571D01*
X94292857Y-104676190D01*
X93911904Y-104676190D01*
X94864285Y-104247619D02*
X94911904Y-104200000D01*
X95007142Y-104152380D01*
X95245238Y-104152380D01*
X95340476Y-104200000D01*
X95388095Y-104247619D01*
X95435714Y-104342857D01*
X95435714Y-104438095D01*
X95388095Y-104580952D01*
X94816666Y-105152380D01*
X95435714Y-105152380D01*
X97838095Y-104485714D02*
X97838095Y-105152380D01*
X97600000Y-104104761D02*
X97361904Y-104819047D01*
X97980952Y-104819047D01*
X98266666Y-104152380D02*
X98933333Y-104152380D01*
X98504761Y-105152380D01*
X99504761Y-104152380D02*
X99600000Y-104152380D01*
X99695238Y-104200000D01*
X99742857Y-104247619D01*
X99790476Y-104342857D01*
X99838095Y-104533333D01*
X99838095Y-104771428D01*
X99790476Y-104961904D01*
X99742857Y-105057142D01*
X99695238Y-105104761D01*
X99600000Y-105152380D01*
X99504761Y-105152380D01*
X99409523Y-105104761D01*
X99361904Y-105057142D01*
X99314285Y-104961904D01*
X99266666Y-104771428D01*
X99266666Y-104533333D01*
X99314285Y-104342857D01*
X99361904Y-104247619D01*
X99409523Y-104200000D01*
X99504761Y-104152380D01*
G04 #@! TO.C,R1*
X93633333Y-99252380D02*
X93300000Y-98776190D01*
X93061904Y-99252380D02*
X93061904Y-98252380D01*
X93442857Y-98252380D01*
X93538095Y-98300000D01*
X93585714Y-98347619D01*
X93633333Y-98442857D01*
X93633333Y-98585714D01*
X93585714Y-98680952D01*
X93538095Y-98728571D01*
X93442857Y-98776190D01*
X93061904Y-98776190D01*
X94585714Y-99252380D02*
X94014285Y-99252380D01*
X94300000Y-99252380D02*
X94300000Y-98252380D01*
X94204761Y-98395238D01*
X94109523Y-98490476D01*
X94014285Y-98538095D01*
X97738095Y-98585714D02*
X97738095Y-99252380D01*
X97500000Y-98204761D02*
X97261904Y-98919047D01*
X97880952Y-98919047D01*
X98166666Y-98252380D02*
X98833333Y-98252380D01*
X98404761Y-99252380D01*
X99404761Y-98252380D02*
X99500000Y-98252380D01*
X99595238Y-98300000D01*
X99642857Y-98347619D01*
X99690476Y-98442857D01*
X99738095Y-98633333D01*
X99738095Y-98871428D01*
X99690476Y-99061904D01*
X99642857Y-99157142D01*
X99595238Y-99204761D01*
X99500000Y-99252380D01*
X99404761Y-99252380D01*
X99309523Y-99204761D01*
X99261904Y-99157142D01*
X99214285Y-99061904D01*
X99166666Y-98871428D01*
X99166666Y-98633333D01*
X99214285Y-98442857D01*
X99261904Y-98347619D01*
X99309523Y-98300000D01*
X99404761Y-98252380D01*
G04 #@! TO.C,D3*
X101203428Y-110132761D02*
X101298666Y-110180380D01*
X101489142Y-110180380D01*
X101584380Y-110132761D01*
X101632000Y-110037523D01*
X101632000Y-109989904D01*
X101584380Y-109894666D01*
X101489142Y-109847047D01*
X101346285Y-109847047D01*
X101251047Y-109799428D01*
X101203428Y-109704190D01*
X101203428Y-109656571D01*
X101251047Y-109561333D01*
X101346285Y-109513714D01*
X101489142Y-109513714D01*
X101584380Y-109561333D01*
X102441523Y-110132761D02*
X102346285Y-110180380D01*
X102155809Y-110180380D01*
X102060571Y-110132761D01*
X102012952Y-110037523D01*
X102012952Y-109656571D01*
X102060571Y-109561333D01*
X102155809Y-109513714D01*
X102346285Y-109513714D01*
X102441523Y-109561333D01*
X102489142Y-109656571D01*
X102489142Y-109751809D01*
X102012952Y-109847047D01*
X103346285Y-110132761D02*
X103251047Y-110180380D01*
X103060571Y-110180380D01*
X102965333Y-110132761D01*
X102917714Y-110085142D01*
X102870095Y-109989904D01*
X102870095Y-109704190D01*
X102917714Y-109608952D01*
X102965333Y-109561333D01*
X103060571Y-109513714D01*
X103251047Y-109513714D01*
X103346285Y-109561333D01*
X103917714Y-110180380D02*
X103822476Y-110132761D01*
X103774857Y-110085142D01*
X103727238Y-109989904D01*
X103727238Y-109704190D01*
X103774857Y-109608952D01*
X103822476Y-109561333D01*
X103917714Y-109513714D01*
X104060571Y-109513714D01*
X104155809Y-109561333D01*
X104203428Y-109608952D01*
X104251047Y-109704190D01*
X104251047Y-109989904D01*
X104203428Y-110085142D01*
X104155809Y-110132761D01*
X104060571Y-110180380D01*
X103917714Y-110180380D01*
X104679619Y-109513714D02*
X104679619Y-110180380D01*
X104679619Y-109608952D02*
X104727238Y-109561333D01*
X104822476Y-109513714D01*
X104965333Y-109513714D01*
X105060571Y-109561333D01*
X105108190Y-109656571D01*
X105108190Y-110180380D01*
X106012952Y-110180380D02*
X106012952Y-109180380D01*
X106012952Y-110132761D02*
X105917714Y-110180380D01*
X105727238Y-110180380D01*
X105632000Y-110132761D01*
X105584380Y-110085142D01*
X105536761Y-109989904D01*
X105536761Y-109704190D01*
X105584380Y-109608952D01*
X105632000Y-109561333D01*
X105727238Y-109513714D01*
X105917714Y-109513714D01*
X106012952Y-109561333D01*
G04 #@! TO.C,D2*
X102203428Y-103885714D02*
X102584380Y-103885714D01*
X102346285Y-104552380D02*
X102346285Y-103695238D01*
X102393904Y-103600000D01*
X102489142Y-103552380D01*
X102584380Y-103552380D01*
X102917714Y-104552380D02*
X102917714Y-103885714D01*
X102917714Y-103552380D02*
X102870095Y-103600000D01*
X102917714Y-103647619D01*
X102965333Y-103600000D01*
X102917714Y-103552380D01*
X102917714Y-103647619D01*
X103393904Y-104552380D02*
X103393904Y-103885714D01*
X103393904Y-104076190D02*
X103441523Y-103980952D01*
X103489142Y-103933333D01*
X103584380Y-103885714D01*
X103679619Y-103885714D01*
X103965333Y-104504761D02*
X104060571Y-104552380D01*
X104251047Y-104552380D01*
X104346285Y-104504761D01*
X104393904Y-104409523D01*
X104393904Y-104361904D01*
X104346285Y-104266666D01*
X104251047Y-104219047D01*
X104108190Y-104219047D01*
X104012952Y-104171428D01*
X103965333Y-104076190D01*
X103965333Y-104028571D01*
X104012952Y-103933333D01*
X104108190Y-103885714D01*
X104251047Y-103885714D01*
X104346285Y-103933333D01*
X104679619Y-103885714D02*
X105060571Y-103885714D01*
X104822476Y-103552380D02*
X104822476Y-104409523D01*
X104870095Y-104504761D01*
X104965333Y-104552380D01*
X105060571Y-104552380D01*
G04 #@! TO.C,D1*
X101727238Y-98083714D02*
X101727238Y-98893238D01*
X101679619Y-98988476D01*
X101632000Y-99036095D01*
X101536761Y-99083714D01*
X101393904Y-99083714D01*
X101298666Y-99036095D01*
X101727238Y-98702761D02*
X101632000Y-98750380D01*
X101441523Y-98750380D01*
X101346285Y-98702761D01*
X101298666Y-98655142D01*
X101251047Y-98559904D01*
X101251047Y-98274190D01*
X101298666Y-98178952D01*
X101346285Y-98131333D01*
X101441523Y-98083714D01*
X101632000Y-98083714D01*
X101727238Y-98131333D01*
X102203428Y-98750380D02*
X102203428Y-98083714D01*
X102203428Y-98274190D02*
X102251047Y-98178952D01*
X102298666Y-98131333D01*
X102393904Y-98083714D01*
X102489142Y-98083714D01*
X102965333Y-98750380D02*
X102870095Y-98702761D01*
X102822476Y-98655142D01*
X102774857Y-98559904D01*
X102774857Y-98274190D01*
X102822476Y-98178952D01*
X102870095Y-98131333D01*
X102965333Y-98083714D01*
X103108190Y-98083714D01*
X103203428Y-98131333D01*
X103251047Y-98178952D01*
X103298666Y-98274190D01*
X103298666Y-98559904D01*
X103251047Y-98655142D01*
X103203428Y-98702761D01*
X103108190Y-98750380D01*
X102965333Y-98750380D01*
X104155809Y-98083714D02*
X104155809Y-98750380D01*
X103727238Y-98083714D02*
X103727238Y-98607523D01*
X103774857Y-98702761D01*
X103870095Y-98750380D01*
X104012952Y-98750380D01*
X104108190Y-98702761D01*
X104155809Y-98655142D01*
X104632000Y-98083714D02*
X104632000Y-98750380D01*
X104632000Y-98178952D02*
X104679619Y-98131333D01*
X104774857Y-98083714D01*
X104917714Y-98083714D01*
X105012952Y-98131333D01*
X105060571Y-98226571D01*
X105060571Y-98750380D01*
X105965333Y-98750380D02*
X105965333Y-97750380D01*
X105965333Y-98702761D02*
X105870095Y-98750380D01*
X105679619Y-98750380D01*
X105584380Y-98702761D01*
X105536761Y-98655142D01*
X105489142Y-98559904D01*
X105489142Y-98274190D01*
X105536761Y-98178952D01*
X105584380Y-98131333D01*
X105679619Y-98083714D01*
X105870095Y-98083714D01*
X105965333Y-98131333D01*
G04 #@! TO.C,U1*
X108838095Y-88052380D02*
X108838095Y-88861904D01*
X108885714Y-88957142D01*
X108933333Y-89004761D01*
X109028571Y-89052380D01*
X109219047Y-89052380D01*
X109314285Y-89004761D01*
X109361904Y-88957142D01*
X109409523Y-88861904D01*
X109409523Y-88052380D01*
X110409523Y-89052380D02*
X109838095Y-89052380D01*
X110123809Y-89052380D02*
X110123809Y-88052380D01*
X110028571Y-88195238D01*
X109933333Y-88290476D01*
X109838095Y-88338095D01*
X114880952Y-89052380D02*
X114404761Y-89052380D01*
X114404761Y-88052380D01*
X115166666Y-88147619D02*
X115214285Y-88100000D01*
X115309523Y-88052380D01*
X115547619Y-88052380D01*
X115642857Y-88100000D01*
X115690476Y-88147619D01*
X115738095Y-88242857D01*
X115738095Y-88338095D01*
X115690476Y-88480952D01*
X115119047Y-89052380D01*
X115738095Y-89052380D01*
X116214285Y-89052380D02*
X116404761Y-89052380D01*
X116500000Y-89004761D01*
X116547619Y-88957142D01*
X116642857Y-88814285D01*
X116690476Y-88623809D01*
X116690476Y-88242857D01*
X116642857Y-88147619D01*
X116595238Y-88100000D01*
X116500000Y-88052380D01*
X116309523Y-88052380D01*
X116214285Y-88100000D01*
X116166666Y-88147619D01*
X116119047Y-88242857D01*
X116119047Y-88480952D01*
X116166666Y-88576190D01*
X116214285Y-88623809D01*
X116309523Y-88671428D01*
X116500000Y-88671428D01*
X116595238Y-88623809D01*
X116642857Y-88576190D01*
X116690476Y-88480952D01*
X117023809Y-88052380D02*
X117642857Y-88052380D01*
X117309523Y-88433333D01*
X117452380Y-88433333D01*
X117547619Y-88480952D01*
X117595238Y-88528571D01*
X117642857Y-88623809D01*
X117642857Y-88861904D01*
X117595238Y-88957142D01*
X117547619Y-89004761D01*
X117452380Y-89052380D01*
X117166666Y-89052380D01*
X117071428Y-89004761D01*
X117023809Y-88957142D01*
X118071428Y-89052380D02*
X118071428Y-88052380D01*
X118309523Y-88052380D01*
X118452380Y-88100000D01*
X118547619Y-88195238D01*
X118595238Y-88290476D01*
X118642857Y-88480952D01*
X118642857Y-88623809D01*
X118595238Y-88814285D01*
X118547619Y-88909523D01*
X118452380Y-89004761D01*
X118309523Y-89052380D01*
X118071428Y-89052380D01*
G04 #@! TO.C,J1*
X91177380Y-102439333D02*
X91891666Y-102439333D01*
X92034523Y-102486952D01*
X92129761Y-102582190D01*
X92177380Y-102725047D01*
X92177380Y-102820285D01*
X92177380Y-101439333D02*
X92177380Y-102010761D01*
X92177380Y-101725047D02*
X91177380Y-101725047D01*
X91320238Y-101820285D01*
X91415476Y-101915523D01*
X91463095Y-102010761D01*
X82335714Y-109878571D02*
X83335714Y-109878571D01*
X82383333Y-109878571D02*
X82335714Y-109783333D01*
X82335714Y-109592857D01*
X82383333Y-109497619D01*
X82430952Y-109450000D01*
X82526190Y-109402380D01*
X82811904Y-109402380D01*
X82907142Y-109450000D01*
X82954761Y-109497619D01*
X83002380Y-109592857D01*
X83002380Y-109783333D01*
X82954761Y-109878571D01*
X83002380Y-108830952D02*
X82954761Y-108926190D01*
X82907142Y-108973809D01*
X82811904Y-109021428D01*
X82526190Y-109021428D01*
X82430952Y-108973809D01*
X82383333Y-108926190D01*
X82335714Y-108830952D01*
X82335714Y-108688095D01*
X82383333Y-108592857D01*
X82430952Y-108545238D01*
X82526190Y-108497619D01*
X82811904Y-108497619D01*
X82907142Y-108545238D01*
X82954761Y-108592857D01*
X83002380Y-108688095D01*
X83002380Y-108830952D01*
X82335714Y-108164285D02*
X83002380Y-107973809D01*
X82526190Y-107783333D01*
X83002380Y-107592857D01*
X82335714Y-107402380D01*
X82954761Y-106640476D02*
X83002380Y-106735714D01*
X83002380Y-106926190D01*
X82954761Y-107021428D01*
X82859523Y-107069047D01*
X82478571Y-107069047D01*
X82383333Y-107021428D01*
X82335714Y-106926190D01*
X82335714Y-106735714D01*
X82383333Y-106640476D01*
X82478571Y-106592857D01*
X82573809Y-106592857D01*
X82669047Y-107069047D01*
X83002380Y-106164285D02*
X82335714Y-106164285D01*
X82526190Y-106164285D02*
X82430952Y-106116666D01*
X82383333Y-106069047D01*
X82335714Y-105973809D01*
X82335714Y-105878571D01*
G04 #@! TO.C,J2*
X87727380Y-84177333D02*
X88441666Y-84177333D01*
X88584523Y-84224952D01*
X88679761Y-84320190D01*
X88727380Y-84463047D01*
X88727380Y-84558285D01*
X87822619Y-83748761D02*
X87775000Y-83701142D01*
X87727380Y-83605904D01*
X87727380Y-83367809D01*
X87775000Y-83272571D01*
X87822619Y-83224952D01*
X87917857Y-83177333D01*
X88013095Y-83177333D01*
X88155952Y-83224952D01*
X88727380Y-83796380D01*
X88727380Y-83177333D01*
X82335714Y-96860666D02*
X82335714Y-96479714D01*
X83002380Y-96717809D02*
X82145238Y-96717809D01*
X82050000Y-96670190D01*
X82002380Y-96574952D01*
X82002380Y-96479714D01*
X83002380Y-96146380D02*
X82335714Y-96146380D01*
X82526190Y-96146380D02*
X82430952Y-96098761D01*
X82383333Y-96051142D01*
X82335714Y-95955904D01*
X82335714Y-95860666D01*
X83002380Y-95384476D02*
X82954761Y-95479714D01*
X82907142Y-95527333D01*
X82811904Y-95574952D01*
X82526190Y-95574952D01*
X82430952Y-95527333D01*
X82383333Y-95479714D01*
X82335714Y-95384476D01*
X82335714Y-95241619D01*
X82383333Y-95146380D01*
X82430952Y-95098761D01*
X82526190Y-95051142D01*
X82811904Y-95051142D01*
X82907142Y-95098761D01*
X82954761Y-95146380D01*
X83002380Y-95241619D01*
X83002380Y-95384476D01*
X83002380Y-94622571D02*
X82335714Y-94622571D01*
X82430952Y-94622571D02*
X82383333Y-94574952D01*
X82335714Y-94479714D01*
X82335714Y-94336857D01*
X82383333Y-94241619D01*
X82478571Y-94194000D01*
X83002380Y-94194000D01*
X82478571Y-94194000D02*
X82383333Y-94146380D01*
X82335714Y-94051142D01*
X82335714Y-93908285D01*
X82383333Y-93813047D01*
X82478571Y-93765428D01*
X83002380Y-93765428D01*
X82954761Y-92574952D02*
X83002380Y-92479714D01*
X83002380Y-92289238D01*
X82954761Y-92194000D01*
X82859523Y-92146380D01*
X82811904Y-92146380D01*
X82716666Y-92194000D01*
X82669047Y-92289238D01*
X82669047Y-92432095D01*
X82621428Y-92527333D01*
X82526190Y-92574952D01*
X82478571Y-92574952D01*
X82383333Y-92527333D01*
X82335714Y-92432095D01*
X82335714Y-92289238D01*
X82383333Y-92194000D01*
X82335714Y-91813047D02*
X83002380Y-91622571D01*
X82526190Y-91432095D01*
X83002380Y-91241619D01*
X82335714Y-91051142D01*
X83002380Y-90670190D02*
X82335714Y-90670190D01*
X82002380Y-90670190D02*
X82050000Y-90717809D01*
X82097619Y-90670190D01*
X82050000Y-90622571D01*
X82002380Y-90670190D01*
X82097619Y-90670190D01*
X82335714Y-90336857D02*
X82335714Y-89955904D01*
X82002380Y-90194000D02*
X82859523Y-90194000D01*
X82954761Y-90146380D01*
X83002380Y-90051142D01*
X83002380Y-89955904D01*
X82954761Y-89194000D02*
X83002380Y-89289238D01*
X83002380Y-89479714D01*
X82954761Y-89574952D01*
X82907142Y-89622571D01*
X82811904Y-89670190D01*
X82526190Y-89670190D01*
X82430952Y-89622571D01*
X82383333Y-89574952D01*
X82335714Y-89479714D01*
X82335714Y-89289238D01*
X82383333Y-89194000D01*
X83002380Y-88765428D02*
X82002380Y-88765428D01*
X83002380Y-88336857D02*
X82478571Y-88336857D01*
X82383333Y-88384476D01*
X82335714Y-88479714D01*
X82335714Y-88622571D01*
X82383333Y-88717809D01*
X82430952Y-88765428D01*
X82954761Y-87479714D02*
X83002380Y-87574952D01*
X83002380Y-87765428D01*
X82954761Y-87860666D01*
X82859523Y-87908285D01*
X82478571Y-87908285D01*
X82383333Y-87860666D01*
X82335714Y-87765428D01*
X82335714Y-87574952D01*
X82383333Y-87479714D01*
X82478571Y-87432095D01*
X82573809Y-87432095D01*
X82669047Y-87908285D01*
X82954761Y-87051142D02*
X83002380Y-86955904D01*
X83002380Y-86765428D01*
X82954761Y-86670190D01*
X82859523Y-86622571D01*
X82811904Y-86622571D01*
X82716666Y-86670190D01*
X82669047Y-86765428D01*
X82669047Y-86908285D01*
X82621428Y-87003523D01*
X82526190Y-87051142D01*
X82478571Y-87051142D01*
X82383333Y-87003523D01*
X82335714Y-86908285D01*
X82335714Y-86765428D01*
X82383333Y-86670190D01*
G04 #@! TO.C,J3*
X99234666Y-83089500D02*
X99234666Y-83803786D01*
X99187047Y-83946643D01*
X99091809Y-84041881D01*
X98948952Y-84089500D01*
X98853714Y-84089500D01*
X99615619Y-83089500D02*
X100234666Y-83089500D01*
X99901333Y-83470453D01*
X100044190Y-83470453D01*
X100139428Y-83518072D01*
X100187047Y-83565691D01*
X100234666Y-83660929D01*
X100234666Y-83899024D01*
X100187047Y-83994262D01*
X100139428Y-84041881D01*
X100044190Y-84089500D01*
X99758476Y-84089500D01*
X99663238Y-84041881D01*
X99615619Y-83994262D01*
X103852380Y-90128571D02*
X103185714Y-90128571D01*
X103280952Y-90128571D02*
X103233333Y-90080952D01*
X103185714Y-89985714D01*
X103185714Y-89842857D01*
X103233333Y-89747619D01*
X103328571Y-89700000D01*
X103852380Y-89700000D01*
X103328571Y-89700000D02*
X103233333Y-89652380D01*
X103185714Y-89557142D01*
X103185714Y-89414285D01*
X103233333Y-89319047D01*
X103328571Y-89271428D01*
X103852380Y-89271428D01*
X103852380Y-88652380D02*
X103804761Y-88747619D01*
X103757142Y-88795238D01*
X103661904Y-88842857D01*
X103376190Y-88842857D01*
X103280952Y-88795238D01*
X103233333Y-88747619D01*
X103185714Y-88652380D01*
X103185714Y-88509523D01*
X103233333Y-88414285D01*
X103280952Y-88366666D01*
X103376190Y-88319047D01*
X103661904Y-88319047D01*
X103757142Y-88366666D01*
X103804761Y-88414285D01*
X103852380Y-88509523D01*
X103852380Y-88652380D01*
X103185714Y-88033333D02*
X103185714Y-87652380D01*
X102852380Y-87890476D02*
X103709523Y-87890476D01*
X103804761Y-87842857D01*
X103852380Y-87747619D01*
X103852380Y-87652380D01*
X103852380Y-87176190D02*
X103804761Y-87271428D01*
X103757142Y-87319047D01*
X103661904Y-87366666D01*
X103376190Y-87366666D01*
X103280952Y-87319047D01*
X103233333Y-87271428D01*
X103185714Y-87176190D01*
X103185714Y-87033333D01*
X103233333Y-86938095D01*
X103280952Y-86890476D01*
X103376190Y-86842857D01*
X103661904Y-86842857D01*
X103757142Y-86890476D01*
X103804761Y-86938095D01*
X103852380Y-87033333D01*
X103852380Y-87176190D01*
X103852380Y-86414285D02*
X103185714Y-86414285D01*
X103376190Y-86414285D02*
X103280952Y-86366666D01*
X103233333Y-86319047D01*
X103185714Y-86223809D01*
X103185714Y-86128571D01*
G04 #@! TD*
M02*
