G04 #@! TF.GenerationSoftware,KiCad,Pcbnew,5.0.1*
G04 #@! TF.CreationDate,2019-01-22T15:03:27+05:30*
G04 #@! TF.ProjectId,OpenPLC_V2,4F70656E504C435F56322E6B69636164,rev?*
G04 #@! TF.SameCoordinates,Original*
G04 #@! TF.FileFunction,Legend,Top*
G04 #@! TF.FilePolarity,Positive*
%FSLAX46Y46*%
G04 Gerber Fmt 4.6, Leading zero omitted, Abs format (unit mm)*
G04 Created by KiCad (PCBNEW 5.0.1) date Tue 22 Jan 2019 03:03:27 PM IST*
%MOMM*%
%LPD*%
G01*
G04 APERTURE LIST*
%ADD10C,0.150000*%
%ADD11C,0.300000*%
%ADD12C,0.200000*%
%ADD13C,0.125000*%
%ADD14C,0.250000*%
%ADD15C,0.120000*%
G04 APERTURE END LIST*
D10*
X117590476Y-51800000D02*
X117514285Y-51761904D01*
X117400000Y-51761904D01*
X117285714Y-51800000D01*
X117209523Y-51876190D01*
X117171428Y-51952380D01*
X117133333Y-52104761D01*
X117133333Y-52219047D01*
X117171428Y-52371428D01*
X117209523Y-52447619D01*
X117285714Y-52523809D01*
X117400000Y-52561904D01*
X117476190Y-52561904D01*
X117590476Y-52523809D01*
X117628571Y-52485714D01*
X117628571Y-52219047D01*
X117476190Y-52219047D01*
X117971428Y-52561904D02*
X117971428Y-51761904D01*
X118428571Y-52561904D01*
X118428571Y-51761904D01*
X118809523Y-52561904D02*
X118809523Y-51761904D01*
X119000000Y-51761904D01*
X119114285Y-51800000D01*
X119190476Y-51876190D01*
X119228571Y-51952380D01*
X119266666Y-52104761D01*
X119266666Y-52219047D01*
X119228571Y-52371428D01*
X119190476Y-52447619D01*
X119114285Y-52523809D01*
X119000000Y-52561904D01*
X118809523Y-52561904D01*
X113147619Y-51761904D02*
X112766666Y-51761904D01*
X112728571Y-52142857D01*
X112766666Y-52104761D01*
X112842857Y-52066666D01*
X113033333Y-52066666D01*
X113109523Y-52104761D01*
X113147619Y-52142857D01*
X113185714Y-52219047D01*
X113185714Y-52409523D01*
X113147619Y-52485714D01*
X113109523Y-52523809D01*
X113033333Y-52561904D01*
X112842857Y-52561904D01*
X112766666Y-52523809D01*
X112728571Y-52485714D01*
X113414285Y-51761904D02*
X113680952Y-52561904D01*
X113947619Y-51761904D01*
X107804761Y-52561904D02*
X107347619Y-52561904D01*
X107576190Y-52561904D02*
X107576190Y-51761904D01*
X107500000Y-51876190D01*
X107423809Y-51952380D01*
X107347619Y-51990476D01*
X108109523Y-51838095D02*
X108147619Y-51800000D01*
X108223809Y-51761904D01*
X108414285Y-51761904D01*
X108490476Y-51800000D01*
X108528571Y-51838095D01*
X108566666Y-51914285D01*
X108566666Y-51990476D01*
X108528571Y-52104761D01*
X108071428Y-52561904D01*
X108566666Y-52561904D01*
X108795238Y-51761904D02*
X109061904Y-52561904D01*
X109328571Y-51761904D01*
X102547619Y-51838095D02*
X102585714Y-51800000D01*
X102661904Y-51761904D01*
X102852380Y-51761904D01*
X102928571Y-51800000D01*
X102966666Y-51838095D01*
X103004761Y-51914285D01*
X103004761Y-51990476D01*
X102966666Y-52104761D01*
X102509523Y-52561904D01*
X103004761Y-52561904D01*
X103690476Y-52028571D02*
X103690476Y-52561904D01*
X103500000Y-51723809D02*
X103309523Y-52295238D01*
X103804761Y-52295238D01*
X103995238Y-51761904D02*
X104261904Y-52561904D01*
X104528571Y-51761904D01*
X115219047Y-115923809D02*
X115333333Y-115961904D01*
X115523809Y-115961904D01*
X115600000Y-115923809D01*
X115638095Y-115885714D01*
X115676190Y-115809523D01*
X115676190Y-115733333D01*
X115638095Y-115657142D01*
X115600000Y-115619047D01*
X115523809Y-115580952D01*
X115371428Y-115542857D01*
X115295238Y-115504761D01*
X115257142Y-115466666D01*
X115219047Y-115390476D01*
X115219047Y-115314285D01*
X115257142Y-115238095D01*
X115295238Y-115200000D01*
X115371428Y-115161904D01*
X115561904Y-115161904D01*
X115676190Y-115200000D01*
X116361904Y-115923809D02*
X116285714Y-115961904D01*
X116133333Y-115961904D01*
X116057142Y-115923809D01*
X116019047Y-115885714D01*
X115980952Y-115809523D01*
X115980952Y-115580952D01*
X116019047Y-115504761D01*
X116057142Y-115466666D01*
X116133333Y-115428571D01*
X116285714Y-115428571D01*
X116361904Y-115466666D01*
X116704761Y-115961904D02*
X116704761Y-115161904D01*
X117047619Y-115961904D02*
X117047619Y-115542857D01*
X117009523Y-115466666D01*
X116933333Y-115428571D01*
X116819047Y-115428571D01*
X116742857Y-115466666D01*
X116704761Y-115504761D01*
X117542857Y-115961904D02*
X117466666Y-115923809D01*
X117428571Y-115885714D01*
X117390476Y-115809523D01*
X117390476Y-115580952D01*
X117428571Y-115504761D01*
X117466666Y-115466666D01*
X117542857Y-115428571D01*
X117657142Y-115428571D01*
X117733333Y-115466666D01*
X117771428Y-115504761D01*
X117809523Y-115580952D01*
X117809523Y-115809523D01*
X117771428Y-115885714D01*
X117733333Y-115923809D01*
X117657142Y-115961904D01*
X117542857Y-115961904D01*
X118038095Y-115428571D02*
X118342857Y-115428571D01*
X118152380Y-115161904D02*
X118152380Y-115847619D01*
X118190476Y-115923809D01*
X118266666Y-115961904D01*
X118342857Y-115961904D01*
X118495238Y-115428571D02*
X118800000Y-115428571D01*
X118609523Y-115161904D02*
X118609523Y-115847619D01*
X118647619Y-115923809D01*
X118723809Y-115961904D01*
X118800000Y-115961904D01*
X119066666Y-115961904D02*
X119066666Y-115161904D01*
X119142857Y-115657142D02*
X119371428Y-115961904D01*
X119371428Y-115428571D02*
X119066666Y-115733333D01*
X119638095Y-115428571D02*
X119828571Y-115961904D01*
X120019047Y-115428571D02*
X119828571Y-115961904D01*
X119752380Y-116152380D01*
X119714285Y-116190476D01*
X119638095Y-116228571D01*
D11*
X94957142Y-111650000D02*
X94814285Y-111578571D01*
X94600000Y-111578571D01*
X94385714Y-111650000D01*
X94242857Y-111792857D01*
X94171428Y-111935714D01*
X94100000Y-112221428D01*
X94100000Y-112435714D01*
X94171428Y-112721428D01*
X94242857Y-112864285D01*
X94385714Y-113007142D01*
X94600000Y-113078571D01*
X94742857Y-113078571D01*
X94957142Y-113007142D01*
X95028571Y-112935714D01*
X95028571Y-112435714D01*
X94742857Y-112435714D01*
X95671428Y-113078571D02*
X95671428Y-111578571D01*
X96528571Y-113078571D01*
X96528571Y-111578571D01*
X97242857Y-113078571D02*
X97242857Y-111578571D01*
X97600000Y-111578571D01*
X97814285Y-111650000D01*
X97957142Y-111792857D01*
X98028571Y-111935714D01*
X98100000Y-112221428D01*
X98100000Y-112435714D01*
X98028571Y-112721428D01*
X97957142Y-112864285D01*
X97814285Y-113007142D01*
X97600000Y-113078571D01*
X97242857Y-113078571D01*
X99414285Y-111721428D02*
X99485714Y-111650000D01*
X99628571Y-111578571D01*
X99985714Y-111578571D01*
X100128571Y-111650000D01*
X100200000Y-111721428D01*
X100271428Y-111864285D01*
X100271428Y-112007142D01*
X100200000Y-112221428D01*
X99342857Y-113078571D01*
X100271428Y-113078571D01*
X101557142Y-112078571D02*
X101557142Y-113078571D01*
X101200000Y-111507142D02*
X100842857Y-112578571D01*
X101771428Y-112578571D01*
X102128571Y-111578571D02*
X102628571Y-113078571D01*
X103128571Y-111578571D01*
D10*
X109890476Y-69000000D02*
X109814285Y-68961904D01*
X109700000Y-68961904D01*
X109585714Y-69000000D01*
X109509523Y-69076190D01*
X109471428Y-69152380D01*
X109433333Y-69304761D01*
X109433333Y-69419047D01*
X109471428Y-69571428D01*
X109509523Y-69647619D01*
X109585714Y-69723809D01*
X109700000Y-69761904D01*
X109776190Y-69761904D01*
X109890476Y-69723809D01*
X109928571Y-69685714D01*
X109928571Y-69419047D01*
X109776190Y-69419047D01*
X110271428Y-69761904D02*
X110271428Y-68961904D01*
X110728571Y-69761904D01*
X110728571Y-68961904D01*
X111109523Y-69761904D02*
X111109523Y-68961904D01*
X111300000Y-68961904D01*
X111414285Y-69000000D01*
X111490476Y-69076190D01*
X111528571Y-69152380D01*
X111566666Y-69304761D01*
X111566666Y-69419047D01*
X111528571Y-69571428D01*
X111490476Y-69647619D01*
X111414285Y-69723809D01*
X111300000Y-69761904D01*
X111109523Y-69761904D01*
X124690476Y-69000000D02*
X124614285Y-68961904D01*
X124500000Y-68961904D01*
X124385714Y-69000000D01*
X124309523Y-69076190D01*
X124271428Y-69152380D01*
X124233333Y-69304761D01*
X124233333Y-69419047D01*
X124271428Y-69571428D01*
X124309523Y-69647619D01*
X124385714Y-69723809D01*
X124500000Y-69761904D01*
X124576190Y-69761904D01*
X124690476Y-69723809D01*
X124728571Y-69685714D01*
X124728571Y-69419047D01*
X124576190Y-69419047D01*
X125071428Y-69761904D02*
X125071428Y-68961904D01*
X125528571Y-69761904D01*
X125528571Y-68961904D01*
X125909523Y-69761904D02*
X125909523Y-68961904D01*
X126100000Y-68961904D01*
X126214285Y-69000000D01*
X126290476Y-69076190D01*
X126328571Y-69152380D01*
X126366666Y-69304761D01*
X126366666Y-69419047D01*
X126328571Y-69571428D01*
X126290476Y-69647619D01*
X126214285Y-69723809D01*
X126100000Y-69761904D01*
X125909523Y-69761904D01*
X104504761Y-69761904D02*
X104047619Y-69761904D01*
X104276190Y-69761904D02*
X104276190Y-68961904D01*
X104200000Y-69076190D01*
X104123809Y-69152380D01*
X104047619Y-69190476D01*
X104809523Y-69038095D02*
X104847619Y-69000000D01*
X104923809Y-68961904D01*
X105114285Y-68961904D01*
X105190476Y-69000000D01*
X105228571Y-69038095D01*
X105266666Y-69114285D01*
X105266666Y-69190476D01*
X105228571Y-69304761D01*
X104771428Y-69761904D01*
X105266666Y-69761904D01*
X105495238Y-68961904D02*
X105761904Y-69761904D01*
X106028571Y-68961904D01*
X122547619Y-68961904D02*
X122166666Y-68961904D01*
X122128571Y-69342857D01*
X122166666Y-69304761D01*
X122242857Y-69266666D01*
X122433333Y-69266666D01*
X122509523Y-69304761D01*
X122547619Y-69342857D01*
X122585714Y-69419047D01*
X122585714Y-69609523D01*
X122547619Y-69685714D01*
X122509523Y-69723809D01*
X122433333Y-69761904D01*
X122242857Y-69761904D01*
X122166666Y-69723809D01*
X122128571Y-69685714D01*
X122814285Y-68961904D02*
X123080952Y-69761904D01*
X123347619Y-68961904D01*
X107747619Y-68961904D02*
X107366666Y-68961904D01*
X107328571Y-69342857D01*
X107366666Y-69304761D01*
X107442857Y-69266666D01*
X107633333Y-69266666D01*
X107709523Y-69304761D01*
X107747619Y-69342857D01*
X107785714Y-69419047D01*
X107785714Y-69609523D01*
X107747619Y-69685714D01*
X107709523Y-69723809D01*
X107633333Y-69761904D01*
X107442857Y-69761904D01*
X107366666Y-69723809D01*
X107328571Y-69685714D01*
X108014285Y-68961904D02*
X108280952Y-69761904D01*
X108547619Y-68961904D01*
X101347619Y-69038095D02*
X101385714Y-69000000D01*
X101461904Y-68961904D01*
X101652380Y-68961904D01*
X101728571Y-69000000D01*
X101766666Y-69038095D01*
X101804761Y-69114285D01*
X101804761Y-69190476D01*
X101766666Y-69304761D01*
X101309523Y-69761904D01*
X101804761Y-69761904D01*
X102490476Y-69228571D02*
X102490476Y-69761904D01*
X102300000Y-68923809D02*
X102109523Y-69495238D01*
X102604761Y-69495238D01*
X102795238Y-68961904D02*
X103061904Y-69761904D01*
X103328571Y-68961904D01*
X119604761Y-69761904D02*
X119147619Y-69761904D01*
X119376190Y-69761904D02*
X119376190Y-68961904D01*
X119300000Y-69076190D01*
X119223809Y-69152380D01*
X119147619Y-69190476D01*
X119909523Y-69038095D02*
X119947619Y-69000000D01*
X120023809Y-68961904D01*
X120214285Y-68961904D01*
X120290476Y-69000000D01*
X120328571Y-69038095D01*
X120366666Y-69114285D01*
X120366666Y-69190476D01*
X120328571Y-69304761D01*
X119871428Y-69761904D01*
X120366666Y-69761904D01*
X120595238Y-68961904D02*
X120861904Y-69761904D01*
X121128571Y-68961904D01*
X116547619Y-69038095D02*
X116585714Y-69000000D01*
X116661904Y-68961904D01*
X116852380Y-68961904D01*
X116928571Y-69000000D01*
X116966666Y-69038095D01*
X117004761Y-69114285D01*
X117004761Y-69190476D01*
X116966666Y-69304761D01*
X116509523Y-69761904D01*
X117004761Y-69761904D01*
X117690476Y-69228571D02*
X117690476Y-69761904D01*
X117500000Y-68923809D02*
X117309523Y-69495238D01*
X117804761Y-69495238D01*
X117995238Y-68961904D02*
X118261904Y-69761904D01*
X118528571Y-68961904D01*
X124490476Y-60700000D02*
X124414285Y-60661904D01*
X124300000Y-60661904D01*
X124185714Y-60700000D01*
X124109523Y-60776190D01*
X124071428Y-60852380D01*
X124033333Y-61004761D01*
X124033333Y-61119047D01*
X124071428Y-61271428D01*
X124109523Y-61347619D01*
X124185714Y-61423809D01*
X124300000Y-61461904D01*
X124376190Y-61461904D01*
X124490476Y-61423809D01*
X124528571Y-61385714D01*
X124528571Y-61119047D01*
X124376190Y-61119047D01*
X124871428Y-61461904D02*
X124871428Y-60661904D01*
X125328571Y-61461904D01*
X125328571Y-60661904D01*
X125709523Y-61461904D02*
X125709523Y-60661904D01*
X125900000Y-60661904D01*
X126014285Y-60700000D01*
X126090476Y-60776190D01*
X126128571Y-60852380D01*
X126166666Y-61004761D01*
X126166666Y-61119047D01*
X126128571Y-61271428D01*
X126090476Y-61347619D01*
X126014285Y-61423809D01*
X125900000Y-61461904D01*
X125709523Y-61461904D01*
X119404761Y-61461904D02*
X118947619Y-61461904D01*
X119176190Y-61461904D02*
X119176190Y-60661904D01*
X119100000Y-60776190D01*
X119023809Y-60852380D01*
X118947619Y-60890476D01*
X119709523Y-60738095D02*
X119747619Y-60700000D01*
X119823809Y-60661904D01*
X120014285Y-60661904D01*
X120090476Y-60700000D01*
X120128571Y-60738095D01*
X120166666Y-60814285D01*
X120166666Y-60890476D01*
X120128571Y-61004761D01*
X119671428Y-61461904D01*
X120166666Y-61461904D01*
X120395238Y-60661904D02*
X120661904Y-61461904D01*
X120928571Y-60661904D01*
X122347619Y-60661904D02*
X121966666Y-60661904D01*
X121928571Y-61042857D01*
X121966666Y-61004761D01*
X122042857Y-60966666D01*
X122233333Y-60966666D01*
X122309523Y-61004761D01*
X122347619Y-61042857D01*
X122385714Y-61119047D01*
X122385714Y-61309523D01*
X122347619Y-61385714D01*
X122309523Y-61423809D01*
X122233333Y-61461904D01*
X122042857Y-61461904D01*
X121966666Y-61423809D01*
X121928571Y-61385714D01*
X122614285Y-60661904D02*
X122880952Y-61461904D01*
X123147619Y-60661904D01*
X116347619Y-60738095D02*
X116385714Y-60700000D01*
X116461904Y-60661904D01*
X116652380Y-60661904D01*
X116728571Y-60700000D01*
X116766666Y-60738095D01*
X116804761Y-60814285D01*
X116804761Y-60890476D01*
X116766666Y-61004761D01*
X116309523Y-61461904D01*
X116804761Y-61461904D01*
X117490476Y-60928571D02*
X117490476Y-61461904D01*
X117300000Y-60623809D02*
X117109523Y-61195238D01*
X117604761Y-61195238D01*
X117795238Y-60661904D02*
X118061904Y-61461904D01*
X118328571Y-60661904D01*
X109990476Y-60700000D02*
X109914285Y-60661904D01*
X109800000Y-60661904D01*
X109685714Y-60700000D01*
X109609523Y-60776190D01*
X109571428Y-60852380D01*
X109533333Y-61004761D01*
X109533333Y-61119047D01*
X109571428Y-61271428D01*
X109609523Y-61347619D01*
X109685714Y-61423809D01*
X109800000Y-61461904D01*
X109876190Y-61461904D01*
X109990476Y-61423809D01*
X110028571Y-61385714D01*
X110028571Y-61119047D01*
X109876190Y-61119047D01*
X110371428Y-61461904D02*
X110371428Y-60661904D01*
X110828571Y-61461904D01*
X110828571Y-60661904D01*
X111209523Y-61461904D02*
X111209523Y-60661904D01*
X111400000Y-60661904D01*
X111514285Y-60700000D01*
X111590476Y-60776190D01*
X111628571Y-60852380D01*
X111666666Y-61004761D01*
X111666666Y-61119047D01*
X111628571Y-61271428D01*
X111590476Y-61347619D01*
X111514285Y-61423809D01*
X111400000Y-61461904D01*
X111209523Y-61461904D01*
X107765078Y-60661904D02*
X107384125Y-60661904D01*
X107346030Y-61042857D01*
X107384125Y-61004761D01*
X107460316Y-60966666D01*
X107650792Y-60966666D01*
X107726982Y-61004761D01*
X107765078Y-61042857D01*
X107803173Y-61119047D01*
X107803173Y-61309523D01*
X107765078Y-61385714D01*
X107726982Y-61423809D01*
X107650792Y-61461904D01*
X107460316Y-61461904D01*
X107384125Y-61423809D01*
X107346030Y-61385714D01*
X108031744Y-60661904D02*
X108298411Y-61461904D01*
X108565078Y-60661904D01*
X104853967Y-61461904D02*
X104396825Y-61461904D01*
X104625396Y-61461904D02*
X104625396Y-60661904D01*
X104549206Y-60776190D01*
X104473015Y-60852380D01*
X104396825Y-60890476D01*
X105158729Y-60738095D02*
X105196825Y-60700000D01*
X105273015Y-60661904D01*
X105463491Y-60661904D01*
X105539682Y-60700000D01*
X105577777Y-60738095D01*
X105615872Y-60814285D01*
X105615872Y-60890476D01*
X105577777Y-61004761D01*
X105120634Y-61461904D01*
X105615872Y-61461904D01*
X105844444Y-60661904D02*
X106111110Y-61461904D01*
X106377777Y-60661904D01*
X101447619Y-60738095D02*
X101485714Y-60700000D01*
X101561904Y-60661904D01*
X101752380Y-60661904D01*
X101828571Y-60700000D01*
X101866666Y-60738095D01*
X101904761Y-60814285D01*
X101904761Y-60890476D01*
X101866666Y-61004761D01*
X101409523Y-61461904D01*
X101904761Y-61461904D01*
X102590476Y-60928571D02*
X102590476Y-61461904D01*
X102400000Y-60623809D02*
X102209523Y-61195238D01*
X102704761Y-61195238D01*
X102895238Y-60661904D02*
X103161904Y-61461904D01*
X103428571Y-60661904D01*
D12*
X205752380Y-83676190D02*
X204752380Y-83676190D01*
X205704761Y-83247619D02*
X205752380Y-83104761D01*
X205752380Y-82866666D01*
X205704761Y-82771428D01*
X205657142Y-82723809D01*
X205561904Y-82676190D01*
X205466666Y-82676190D01*
X205371428Y-82723809D01*
X205323809Y-82771428D01*
X205276190Y-82866666D01*
X205228571Y-83057142D01*
X205180952Y-83152380D01*
X205133333Y-83200000D01*
X205038095Y-83247619D01*
X204942857Y-83247619D01*
X204847619Y-83200000D01*
X204800000Y-83152380D01*
X204752380Y-83057142D01*
X204752380Y-82819047D01*
X204800000Y-82676190D01*
X205752380Y-82247619D02*
X204752380Y-82247619D01*
X204752380Y-81866666D01*
X204800000Y-81771428D01*
X204847619Y-81723809D01*
X204942857Y-81676190D01*
X205085714Y-81676190D01*
X205180952Y-81723809D01*
X205228571Y-81771428D01*
X205276190Y-81866666D01*
X205276190Y-82247619D01*
X104108571Y-114355619D02*
X104156190Y-114308000D01*
X104251428Y-114260380D01*
X104489523Y-114260380D01*
X104584761Y-114308000D01*
X104632380Y-114355619D01*
X104680000Y-114450857D01*
X104680000Y-114546095D01*
X104632380Y-114688952D01*
X104060952Y-115260380D01*
X104680000Y-115260380D01*
X105537142Y-114593714D02*
X105537142Y-115260380D01*
X105299047Y-114212761D02*
X105060952Y-114927047D01*
X105680000Y-114927047D01*
X105918095Y-114260380D02*
X106251428Y-115260380D01*
X106584761Y-114260380D01*
X107680000Y-115260380D02*
X107680000Y-114260380D01*
X107918095Y-114260380D01*
X108060952Y-114308000D01*
X108156190Y-114403238D01*
X108203809Y-114498476D01*
X108251428Y-114688952D01*
X108251428Y-114831809D01*
X108203809Y-115022285D01*
X108156190Y-115117523D01*
X108060952Y-115212761D01*
X107918095Y-115260380D01*
X107680000Y-115260380D01*
X109251428Y-115165142D02*
X109203809Y-115212761D01*
X109060952Y-115260380D01*
X108965714Y-115260380D01*
X108822857Y-115212761D01*
X108727619Y-115117523D01*
X108680000Y-115022285D01*
X108632380Y-114831809D01*
X108632380Y-114688952D01*
X108680000Y-114498476D01*
X108727619Y-114403238D01*
X108822857Y-114308000D01*
X108965714Y-114260380D01*
X109060952Y-114260380D01*
X109203809Y-114308000D01*
X109251428Y-114355619D01*
D10*
X198091381Y-114152380D02*
X198091381Y-113152380D01*
X198472334Y-113152380D01*
X198567572Y-113200000D01*
X198615191Y-113247619D01*
X198662810Y-113342857D01*
X198662810Y-113485714D01*
X198615191Y-113580952D01*
X198567572Y-113628571D01*
X198472334Y-113676190D01*
X198091381Y-113676190D01*
X199281858Y-113152380D02*
X199472334Y-113152380D01*
X199567572Y-113200000D01*
X199662810Y-113295238D01*
X199710429Y-113485714D01*
X199710429Y-113819047D01*
X199662810Y-114009523D01*
X199567572Y-114104761D01*
X199472334Y-114152380D01*
X199281858Y-114152380D01*
X199186620Y-114104761D01*
X199091381Y-114009523D01*
X199043762Y-113819047D01*
X199043762Y-113485714D01*
X199091381Y-113295238D01*
X199186620Y-113200000D01*
X199281858Y-113152380D01*
X200710429Y-114152380D02*
X200377096Y-113676190D01*
X200139001Y-114152380D02*
X200139001Y-113152380D01*
X200519953Y-113152380D01*
X200615191Y-113200000D01*
X200662810Y-113247619D01*
X200710429Y-113342857D01*
X200710429Y-113485714D01*
X200662810Y-113580952D01*
X200615191Y-113628571D01*
X200519953Y-113676190D01*
X200139001Y-113676190D01*
X200996143Y-113152380D02*
X201567572Y-113152380D01*
X201281858Y-114152380D02*
X201281858Y-113152380D01*
X202662810Y-114152380D02*
X202662810Y-113152380D01*
X202900905Y-113152380D01*
X203043762Y-113200000D01*
X203139001Y-113295238D01*
X203186620Y-113390476D01*
X203234239Y-113580952D01*
X203234239Y-113723809D01*
X203186620Y-113914285D01*
X203139001Y-114009523D01*
X203043762Y-114104761D01*
X202900905Y-114152380D01*
X202662810Y-114152380D01*
X122039380Y-114371380D02*
X122039380Y-113371380D01*
X122420333Y-113371380D01*
X122515571Y-113419000D01*
X122563190Y-113466619D01*
X122610809Y-113561857D01*
X122610809Y-113704714D01*
X122563190Y-113799952D01*
X122515571Y-113847571D01*
X122420333Y-113895190D01*
X122039380Y-113895190D01*
X123229857Y-113371380D02*
X123420333Y-113371380D01*
X123515571Y-113419000D01*
X123610809Y-113514238D01*
X123658428Y-113704714D01*
X123658428Y-114038047D01*
X123610809Y-114228523D01*
X123515571Y-114323761D01*
X123420333Y-114371380D01*
X123229857Y-114371380D01*
X123134619Y-114323761D01*
X123039380Y-114228523D01*
X122991761Y-114038047D01*
X122991761Y-113704714D01*
X123039380Y-113514238D01*
X123134619Y-113419000D01*
X123229857Y-113371380D01*
X124658428Y-114371380D02*
X124325095Y-113895190D01*
X124087000Y-114371380D02*
X124087000Y-113371380D01*
X124467952Y-113371380D01*
X124563190Y-113419000D01*
X124610809Y-113466619D01*
X124658428Y-113561857D01*
X124658428Y-113704714D01*
X124610809Y-113799952D01*
X124563190Y-113847571D01*
X124467952Y-113895190D01*
X124087000Y-113895190D01*
X124944142Y-113371380D02*
X125515571Y-113371380D01*
X125229857Y-114371380D02*
X125229857Y-113371380D01*
X126944142Y-113847571D02*
X127087000Y-113895190D01*
X127134619Y-113942809D01*
X127182238Y-114038047D01*
X127182238Y-114180904D01*
X127134619Y-114276142D01*
X127087000Y-114323761D01*
X126991761Y-114371380D01*
X126610809Y-114371380D01*
X126610809Y-113371380D01*
X126944142Y-113371380D01*
X127039380Y-113419000D01*
X127087000Y-113466619D01*
X127134619Y-113561857D01*
X127134619Y-113657095D01*
X127087000Y-113752333D01*
X127039380Y-113799952D01*
X126944142Y-113847571D01*
X126610809Y-113847571D01*
X198234238Y-51887380D02*
X198234238Y-50887380D01*
X198615191Y-50887380D01*
X198710429Y-50935000D01*
X198758048Y-50982619D01*
X198805667Y-51077857D01*
X198805667Y-51220714D01*
X198758048Y-51315952D01*
X198710429Y-51363571D01*
X198615191Y-51411190D01*
X198234238Y-51411190D01*
X199424715Y-50887380D02*
X199615191Y-50887380D01*
X199710429Y-50935000D01*
X199805667Y-51030238D01*
X199853286Y-51220714D01*
X199853286Y-51554047D01*
X199805667Y-51744523D01*
X199710429Y-51839761D01*
X199615191Y-51887380D01*
X199424715Y-51887380D01*
X199329477Y-51839761D01*
X199234238Y-51744523D01*
X199186619Y-51554047D01*
X199186619Y-51220714D01*
X199234238Y-51030238D01*
X199329477Y-50935000D01*
X199424715Y-50887380D01*
X200853286Y-51887380D02*
X200519953Y-51411190D01*
X200281858Y-51887380D02*
X200281858Y-50887380D01*
X200662810Y-50887380D01*
X200758048Y-50935000D01*
X200805667Y-50982619D01*
X200853286Y-51077857D01*
X200853286Y-51220714D01*
X200805667Y-51315952D01*
X200758048Y-51363571D01*
X200662810Y-51411190D01*
X200281858Y-51411190D01*
X201139000Y-50887380D02*
X201710429Y-50887380D01*
X201424715Y-51887380D02*
X201424715Y-50887380D01*
X203377096Y-51792142D02*
X203329477Y-51839761D01*
X203186619Y-51887380D01*
X203091381Y-51887380D01*
X202948524Y-51839761D01*
X202853286Y-51744523D01*
X202805667Y-51649285D01*
X202758048Y-51458809D01*
X202758048Y-51315952D01*
X202805667Y-51125476D01*
X202853286Y-51030238D01*
X202948524Y-50935000D01*
X203091381Y-50887380D01*
X203186619Y-50887380D01*
X203329477Y-50935000D01*
X203377096Y-50982619D01*
D13*
X193014666Y-65783666D02*
X193414666Y-65783666D01*
X193214666Y-66483666D02*
X193214666Y-65783666D01*
X193581333Y-65783666D02*
X194048000Y-66483666D01*
X194048000Y-65783666D02*
X193581333Y-66483666D01*
X193431333Y-64197666D02*
X193198000Y-63864333D01*
X193031333Y-64197666D02*
X193031333Y-63497666D01*
X193298000Y-63497666D01*
X193364666Y-63531000D01*
X193398000Y-63564333D01*
X193431333Y-63631000D01*
X193431333Y-63731000D01*
X193398000Y-63797666D01*
X193364666Y-63831000D01*
X193298000Y-63864333D01*
X193031333Y-63864333D01*
X193664666Y-63497666D02*
X194131333Y-64197666D01*
X194131333Y-63497666D02*
X193664666Y-64197666D01*
X192887666Y-60864000D02*
X192821000Y-60830666D01*
X192721000Y-60830666D01*
X192621000Y-60864000D01*
X192554333Y-60930666D01*
X192521000Y-60997333D01*
X192487666Y-61130666D01*
X192487666Y-61230666D01*
X192521000Y-61364000D01*
X192554333Y-61430666D01*
X192621000Y-61497333D01*
X192721000Y-61530666D01*
X192787666Y-61530666D01*
X192887666Y-61497333D01*
X192921000Y-61464000D01*
X192921000Y-61230666D01*
X192787666Y-61230666D01*
X193221000Y-61530666D02*
X193221000Y-60830666D01*
X193621000Y-61530666D01*
X193621000Y-60830666D01*
X193954333Y-61530666D02*
X193954333Y-60830666D01*
X194121000Y-60830666D01*
X194221000Y-60864000D01*
X194287666Y-60930666D01*
X194321000Y-60997333D01*
X194354333Y-61130666D01*
X194354333Y-61230666D01*
X194321000Y-61364000D01*
X194287666Y-61430666D01*
X194221000Y-61497333D01*
X194121000Y-61530666D01*
X193954333Y-61530666D01*
X193541666Y-58290666D02*
X193208333Y-58290666D01*
X193175000Y-58624000D01*
X193208333Y-58590666D01*
X193275000Y-58557333D01*
X193441666Y-58557333D01*
X193508333Y-58590666D01*
X193541666Y-58624000D01*
X193575000Y-58690666D01*
X193575000Y-58857333D01*
X193541666Y-58924000D01*
X193508333Y-58957333D01*
X193441666Y-58990666D01*
X193275000Y-58990666D01*
X193208333Y-58957333D01*
X193175000Y-58924000D01*
X193775000Y-58290666D02*
X194008333Y-58990666D01*
X194241666Y-58290666D01*
D14*
X120253904Y-77317380D02*
X120444380Y-77317380D01*
X120539619Y-77365000D01*
X120634857Y-77460238D01*
X120682476Y-77650714D01*
X120682476Y-77984047D01*
X120634857Y-78174523D01*
X120539619Y-78269761D01*
X120444380Y-78317380D01*
X120253904Y-78317380D01*
X120158666Y-78269761D01*
X120063428Y-78174523D01*
X120015809Y-77984047D01*
X120015809Y-77650714D01*
X120063428Y-77460238D01*
X120158666Y-77365000D01*
X120253904Y-77317380D01*
X121111047Y-77650714D02*
X121111047Y-78650714D01*
X121111047Y-77698333D02*
X121206285Y-77650714D01*
X121396761Y-77650714D01*
X121492000Y-77698333D01*
X121539619Y-77745952D01*
X121587238Y-77841190D01*
X121587238Y-78126904D01*
X121539619Y-78222142D01*
X121492000Y-78269761D01*
X121396761Y-78317380D01*
X121206285Y-78317380D01*
X121111047Y-78269761D01*
X122396761Y-78269761D02*
X122301523Y-78317380D01*
X122111047Y-78317380D01*
X122015809Y-78269761D01*
X121968190Y-78174523D01*
X121968190Y-77793571D01*
X122015809Y-77698333D01*
X122111047Y-77650714D01*
X122301523Y-77650714D01*
X122396761Y-77698333D01*
X122444380Y-77793571D01*
X122444380Y-77888809D01*
X121968190Y-77984047D01*
X122872952Y-77650714D02*
X122872952Y-78317380D01*
X122872952Y-77745952D02*
X122920571Y-77698333D01*
X123015809Y-77650714D01*
X123158666Y-77650714D01*
X123253904Y-77698333D01*
X123301523Y-77793571D01*
X123301523Y-78317380D01*
X124539619Y-78317380D02*
X124539619Y-77317380D01*
X124920571Y-77317380D01*
X125015809Y-77365000D01*
X125063428Y-77412619D01*
X125111047Y-77507857D01*
X125111047Y-77650714D01*
X125063428Y-77745952D01*
X125015809Y-77793571D01*
X124920571Y-77841190D01*
X124539619Y-77841190D01*
X126015809Y-78317380D02*
X125539619Y-78317380D01*
X125539619Y-77317380D01*
X126920571Y-78222142D02*
X126872952Y-78269761D01*
X126730095Y-78317380D01*
X126634857Y-78317380D01*
X126492000Y-78269761D01*
X126396761Y-78174523D01*
X126349142Y-78079285D01*
X126301523Y-77888809D01*
X126301523Y-77745952D01*
X126349142Y-77555476D01*
X126396761Y-77460238D01*
X126492000Y-77365000D01*
X126634857Y-77317380D01*
X126730095Y-77317380D01*
X126872952Y-77365000D01*
X126920571Y-77412619D01*
X128111047Y-78317380D02*
X128111047Y-77317380D01*
X128492000Y-77317380D01*
X128587238Y-77365000D01*
X128634857Y-77412619D01*
X128682476Y-77507857D01*
X128682476Y-77650714D01*
X128634857Y-77745952D01*
X128587238Y-77793571D01*
X128492000Y-77841190D01*
X128111047Y-77841190D01*
X129111047Y-78317380D02*
X129111047Y-77650714D01*
X129111047Y-77841190D02*
X129158666Y-77745952D01*
X129206285Y-77698333D01*
X129301523Y-77650714D01*
X129396761Y-77650714D01*
X129872952Y-78317380D02*
X129777714Y-78269761D01*
X129730095Y-78222142D01*
X129682476Y-78126904D01*
X129682476Y-77841190D01*
X129730095Y-77745952D01*
X129777714Y-77698333D01*
X129872952Y-77650714D01*
X130015809Y-77650714D01*
X130111047Y-77698333D01*
X130158666Y-77745952D01*
X130206285Y-77841190D01*
X130206285Y-78126904D01*
X130158666Y-78222142D01*
X130111047Y-78269761D01*
X130015809Y-78317380D01*
X129872952Y-78317380D01*
X130634857Y-77650714D02*
X130634857Y-78507857D01*
X130587238Y-78603095D01*
X130492000Y-78650714D01*
X130444380Y-78650714D01*
X130634857Y-77317380D02*
X130587238Y-77365000D01*
X130634857Y-77412619D01*
X130682476Y-77365000D01*
X130634857Y-77317380D01*
X130634857Y-77412619D01*
X131492000Y-78269761D02*
X131396761Y-78317380D01*
X131206285Y-78317380D01*
X131111047Y-78269761D01*
X131063428Y-78174523D01*
X131063428Y-77793571D01*
X131111047Y-77698333D01*
X131206285Y-77650714D01*
X131396761Y-77650714D01*
X131492000Y-77698333D01*
X131539619Y-77793571D01*
X131539619Y-77888809D01*
X131063428Y-77984047D01*
X132396761Y-78269761D02*
X132301523Y-78317380D01*
X132111047Y-78317380D01*
X132015809Y-78269761D01*
X131968190Y-78222142D01*
X131920571Y-78126904D01*
X131920571Y-77841190D01*
X131968190Y-77745952D01*
X132015809Y-77698333D01*
X132111047Y-77650714D01*
X132301523Y-77650714D01*
X132396761Y-77698333D01*
X132682476Y-77650714D02*
X133063428Y-77650714D01*
X132825333Y-77317380D02*
X132825333Y-78174523D01*
X132872952Y-78269761D01*
X132968190Y-78317380D01*
X133063428Y-78317380D01*
X122587238Y-80067380D02*
X122587238Y-79067380D01*
X123063428Y-80067380D02*
X123063428Y-79067380D01*
X123396761Y-79067380D02*
X123968190Y-79067380D01*
X123682476Y-80067380D02*
X123682476Y-79067380D01*
X125396761Y-79543571D02*
X125539619Y-79591190D01*
X125587238Y-79638809D01*
X125634857Y-79734047D01*
X125634857Y-79876904D01*
X125587238Y-79972142D01*
X125539619Y-80019761D01*
X125444380Y-80067380D01*
X125063428Y-80067380D01*
X125063428Y-79067380D01*
X125396761Y-79067380D01*
X125492000Y-79115000D01*
X125539619Y-79162619D01*
X125587238Y-79257857D01*
X125587238Y-79353095D01*
X125539619Y-79448333D01*
X125492000Y-79495952D01*
X125396761Y-79543571D01*
X125063428Y-79543571D01*
X126206285Y-80067380D02*
X126111047Y-80019761D01*
X126063428Y-79972142D01*
X126015809Y-79876904D01*
X126015809Y-79591190D01*
X126063428Y-79495952D01*
X126111047Y-79448333D01*
X126206285Y-79400714D01*
X126349142Y-79400714D01*
X126444380Y-79448333D01*
X126492000Y-79495952D01*
X126539619Y-79591190D01*
X126539619Y-79876904D01*
X126492000Y-79972142D01*
X126444380Y-80019761D01*
X126349142Y-80067380D01*
X126206285Y-80067380D01*
X126968190Y-80067380D02*
X126968190Y-79400714D01*
X126968190Y-79495952D02*
X127015809Y-79448333D01*
X127111047Y-79400714D01*
X127253904Y-79400714D01*
X127349142Y-79448333D01*
X127396761Y-79543571D01*
X127396761Y-80067380D01*
X127396761Y-79543571D02*
X127444380Y-79448333D01*
X127539619Y-79400714D01*
X127682476Y-79400714D01*
X127777714Y-79448333D01*
X127825333Y-79543571D01*
X127825333Y-80067380D01*
X128301523Y-80067380D02*
X128301523Y-79067380D01*
X128301523Y-79448333D02*
X128396761Y-79400714D01*
X128587238Y-79400714D01*
X128682476Y-79448333D01*
X128730095Y-79495952D01*
X128777714Y-79591190D01*
X128777714Y-79876904D01*
X128730095Y-79972142D01*
X128682476Y-80019761D01*
X128587238Y-80067380D01*
X128396761Y-80067380D01*
X128301523Y-80019761D01*
X129634857Y-80067380D02*
X129634857Y-79543571D01*
X129587238Y-79448333D01*
X129492000Y-79400714D01*
X129301523Y-79400714D01*
X129206285Y-79448333D01*
X129634857Y-80019761D02*
X129539619Y-80067380D01*
X129301523Y-80067380D01*
X129206285Y-80019761D01*
X129158666Y-79924523D01*
X129158666Y-79829285D01*
X129206285Y-79734047D01*
X129301523Y-79686428D01*
X129539619Y-79686428D01*
X129634857Y-79638809D01*
X130015809Y-79400714D02*
X130253904Y-80067380D01*
X130492000Y-79400714D02*
X130253904Y-80067380D01*
X130158666Y-80305476D01*
X130111047Y-80353095D01*
X130015809Y-80400714D01*
X168219619Y-113228380D02*
X167886285Y-112752190D01*
X167648190Y-113228380D02*
X167648190Y-112228380D01*
X168029142Y-112228380D01*
X168124380Y-112276000D01*
X168172000Y-112323619D01*
X168219619Y-112418857D01*
X168219619Y-112561714D01*
X168172000Y-112656952D01*
X168124380Y-112704571D01*
X168029142Y-112752190D01*
X167648190Y-112752190D01*
X168648190Y-112704571D02*
X168981523Y-112704571D01*
X169124380Y-113228380D02*
X168648190Y-113228380D01*
X168648190Y-112228380D01*
X169124380Y-112228380D01*
X169505333Y-113180761D02*
X169648190Y-113228380D01*
X169886285Y-113228380D01*
X169981523Y-113180761D01*
X170029142Y-113133142D01*
X170076761Y-113037904D01*
X170076761Y-112942666D01*
X170029142Y-112847428D01*
X169981523Y-112799809D01*
X169886285Y-112752190D01*
X169695809Y-112704571D01*
X169600571Y-112656952D01*
X169552952Y-112609333D01*
X169505333Y-112514095D01*
X169505333Y-112418857D01*
X169552952Y-112323619D01*
X169600571Y-112276000D01*
X169695809Y-112228380D01*
X169933904Y-112228380D01*
X170076761Y-112276000D01*
X170505333Y-112704571D02*
X170838666Y-112704571D01*
X170981523Y-113228380D02*
X170505333Y-113228380D01*
X170505333Y-112228380D01*
X170981523Y-112228380D01*
X171267238Y-112228380D02*
X171838666Y-112228380D01*
X171552952Y-113228380D02*
X171552952Y-112228380D01*
D10*
G04 #@! TO.C,P3*
X160242000Y-44731000D02*
G75*
G03X160242000Y-44731000I-2000000J0D01*
G01*
X155242000Y-44731000D02*
G75*
G03X155242000Y-44731000I-2000000J0D01*
G01*
X150242000Y-44731000D02*
G75*
G03X150242000Y-44731000I-2000000J0D01*
G01*
X145242000Y-44731000D02*
G75*
G03X145242000Y-44731000I-2000000J0D01*
G01*
X140242000Y-44731000D02*
G75*
G03X140242000Y-44731000I-2000000J0D01*
G01*
X135242000Y-44731000D02*
G75*
G03X135242000Y-44731000I-2000000J0D01*
G01*
X130242000Y-44731000D02*
G75*
G03X130242000Y-44731000I-2000000J0D01*
G01*
X125242000Y-44731000D02*
G75*
G03X125242000Y-44731000I-2000000J0D01*
G01*
X120242000Y-44731000D02*
G75*
G03X120242000Y-44731000I-2000000J0D01*
G01*
X115242000Y-44731000D02*
G75*
G03X115242000Y-44731000I-2000000J0D01*
G01*
X110242000Y-44731000D02*
G75*
G03X110242000Y-44731000I-2000000J0D01*
G01*
X105242000Y-44731000D02*
G75*
G03X105242000Y-44731000I-2000000J0D01*
G01*
X160742000Y-50031000D02*
X160742000Y-40231000D01*
X100742000Y-50031000D02*
X160742000Y-50031000D01*
X100742000Y-40231000D02*
X100742000Y-50031000D01*
X160742000Y-40231000D02*
X100742000Y-40231000D01*
X160742000Y-40731000D02*
X100742000Y-40731000D01*
X160742000Y-47131000D02*
X100742000Y-47131000D01*
X160742000Y-42231000D02*
X100742000Y-42231000D01*
X155742000Y-40731000D02*
X155742000Y-40231000D01*
X150742000Y-40731000D02*
X150742000Y-40231000D01*
X145742000Y-40731000D02*
X145742000Y-40231000D01*
X140742000Y-40731000D02*
X140742000Y-40231000D01*
X135742000Y-40731000D02*
X135742000Y-40231000D01*
X130742000Y-40731000D02*
X130742000Y-40231000D01*
X125742000Y-40731000D02*
X125742000Y-40231000D01*
X120742000Y-40731000D02*
X120742000Y-40231000D01*
X115742000Y-40731000D02*
X115742000Y-40231000D01*
X110742000Y-40731000D02*
X110742000Y-40231000D01*
X105742000Y-40731000D02*
X105742000Y-40231000D01*
G04 #@! TO.C,P5*
X168541000Y-40731000D02*
X168541000Y-40231000D01*
X173541000Y-40731000D02*
X173541000Y-40231000D01*
X178541000Y-40731000D02*
X178541000Y-40231000D01*
X183541000Y-40731000D02*
X183541000Y-40231000D01*
X188541000Y-40731000D02*
X188541000Y-40231000D01*
X193541000Y-40731000D02*
X193541000Y-40231000D01*
X198541000Y-40731000D02*
X198541000Y-40231000D01*
X203541000Y-42231000D02*
X163541000Y-42231000D01*
X203541000Y-47131000D02*
X163541000Y-47131000D01*
X203541000Y-40731000D02*
X163541000Y-40731000D01*
X203541000Y-40231000D02*
X163541000Y-40231000D01*
X163541000Y-40231000D02*
X163541000Y-50031000D01*
X163541000Y-50031000D02*
X203541000Y-50031000D01*
X203541000Y-50031000D02*
X203541000Y-40231000D01*
X168041000Y-44731000D02*
G75*
G03X168041000Y-44731000I-2000000J0D01*
G01*
X173041000Y-44731000D02*
G75*
G03X173041000Y-44731000I-2000000J0D01*
G01*
X178041000Y-44731000D02*
G75*
G03X178041000Y-44731000I-2000000J0D01*
G01*
X183041000Y-44731000D02*
G75*
G03X183041000Y-44731000I-2000000J0D01*
G01*
X188041000Y-44731000D02*
G75*
G03X188041000Y-44731000I-2000000J0D01*
G01*
X193041000Y-44731000D02*
G75*
G03X193041000Y-44731000I-2000000J0D01*
G01*
X198041000Y-44731000D02*
G75*
G03X198041000Y-44731000I-2000000J0D01*
G01*
X203041000Y-44731000D02*
G75*
G03X203041000Y-44731000I-2000000J0D01*
G01*
G04 #@! TO.C,D37*
X203022000Y-54114000D02*
X200322000Y-54114000D01*
X203022000Y-55614000D02*
X200322000Y-55614000D01*
X201522000Y-54714000D02*
X201522000Y-54964000D01*
X201522000Y-54964000D02*
X201672000Y-54814000D01*
X201772000Y-55214000D02*
X201772000Y-54514000D01*
X201422000Y-54864000D02*
X201072000Y-54864000D01*
X201772000Y-54864000D02*
X201422000Y-55214000D01*
X201422000Y-55214000D02*
X201422000Y-54514000D01*
X201422000Y-54514000D02*
X201772000Y-54864000D01*
G04 #@! TO.C,P6*
X167989000Y-120369000D02*
G75*
G03X167989000Y-120369000I-2000000J0D01*
G01*
X172989000Y-120369000D02*
G75*
G03X172989000Y-120369000I-2000000J0D01*
G01*
X177989000Y-120369000D02*
G75*
G03X177989000Y-120369000I-2000000J0D01*
G01*
X182989000Y-120369000D02*
G75*
G03X182989000Y-120369000I-2000000J0D01*
G01*
X187989000Y-120369000D02*
G75*
G03X187989000Y-120369000I-2000000J0D01*
G01*
X192989000Y-120369000D02*
G75*
G03X192989000Y-120369000I-2000000J0D01*
G01*
X197989000Y-120369000D02*
G75*
G03X197989000Y-120369000I-2000000J0D01*
G01*
X202989000Y-120369000D02*
G75*
G03X202989000Y-120369000I-2000000J0D01*
G01*
X163489000Y-115069000D02*
X163489000Y-124869000D01*
X203489000Y-115069000D02*
X163489000Y-115069000D01*
X203489000Y-124869000D02*
X203489000Y-115069000D01*
X163489000Y-124869000D02*
X203489000Y-124869000D01*
X163489000Y-124369000D02*
X203489000Y-124369000D01*
X163489000Y-117969000D02*
X203489000Y-117969000D01*
X163489000Y-122869000D02*
X203489000Y-122869000D01*
X168489000Y-124369000D02*
X168489000Y-124869000D01*
X173489000Y-124369000D02*
X173489000Y-124869000D01*
X178489000Y-124369000D02*
X178489000Y-124869000D01*
X183489000Y-124369000D02*
X183489000Y-124869000D01*
X188489000Y-124369000D02*
X188489000Y-124869000D01*
X193489000Y-124369000D02*
X193489000Y-124869000D01*
X198489000Y-124369000D02*
X198489000Y-124869000D01*
G04 #@! TO.C,C9*
X165696000Y-96512000D02*
X165696000Y-95512000D01*
X163996000Y-95512000D02*
X163996000Y-96512000D01*
G04 #@! TO.C,C7*
X164123000Y-99957000D02*
X164123000Y-100957000D01*
X165823000Y-100957000D02*
X165823000Y-99957000D01*
G04 #@! TO.C,Y1*
X176276000Y-96662240D02*
X176476660Y-97063560D01*
X176476660Y-97063560D02*
X176578260Y-97663000D01*
X176578260Y-97663000D02*
X176476660Y-98163380D01*
X176476660Y-98163380D02*
X176077880Y-98861880D01*
X176077880Y-98861880D02*
X175475900Y-99263200D01*
X175475900Y-99263200D02*
X174876460Y-99463860D01*
X174876460Y-99463860D02*
X168277540Y-99463860D01*
X168277540Y-99463860D02*
X167576500Y-99263200D01*
X167576500Y-99263200D02*
X167177720Y-98963480D01*
X167177720Y-98963480D02*
X166776400Y-98463100D01*
X166776400Y-98463100D02*
X166575740Y-97863660D01*
X166575740Y-97863660D02*
X166575740Y-97363280D01*
X166575740Y-97363280D02*
X166776400Y-96862900D01*
X166776400Y-96862900D02*
X167276780Y-96263460D01*
X167276780Y-96263460D02*
X167777160Y-95963740D01*
X167777160Y-95963740D02*
X168277540Y-95862140D01*
X168376600Y-95862140D02*
X174978060Y-95862140D01*
X174978060Y-95862140D02*
X175376840Y-95963740D01*
X175376840Y-95963740D02*
X175877220Y-96263460D01*
X175877220Y-96263460D02*
X176377600Y-96763840D01*
X168386760Y-95333820D02*
X167927020Y-95382080D01*
X167927020Y-95382080D02*
X167528240Y-95493840D01*
X167528240Y-95493840D02*
X167096440Y-95712280D01*
X167096440Y-95712280D02*
X166806880Y-95943420D01*
X166806880Y-95943420D02*
X166476680Y-96293940D01*
X166476680Y-96293940D02*
X166187120Y-96832420D01*
X166187120Y-96832420D02*
X166057580Y-97431860D01*
X166057580Y-97431860D02*
X166057580Y-97942400D01*
X166057580Y-97942400D02*
X166227760Y-98643440D01*
X166227760Y-98643440D02*
X166626540Y-99232720D01*
X166626540Y-99232720D02*
X167086280Y-99603560D01*
X167086280Y-99603560D02*
X167507920Y-99811840D01*
X167507920Y-99811840D02*
X167957500Y-99971860D01*
X167957500Y-99971860D02*
X168396920Y-100002340D01*
X175737520Y-99783900D02*
X176115980Y-99562920D01*
X176115980Y-99562920D02*
X176436020Y-99283520D01*
X176436020Y-99283520D02*
X176687480Y-98953320D01*
X176687480Y-98953320D02*
X176987200Y-98402140D01*
X176987200Y-98402140D02*
X177096420Y-97932240D01*
X177096420Y-97932240D02*
X177116740Y-97472500D01*
X177116740Y-97472500D02*
X177027840Y-97012760D01*
X177027840Y-97012760D02*
X176837340Y-96563180D01*
X176837340Y-96563180D02*
X176476660Y-96093280D01*
X176476660Y-96093280D02*
X176126140Y-95773240D01*
X176126140Y-95773240D02*
X175737520Y-95542100D01*
X175737520Y-95542100D02*
X175308260Y-95402400D01*
X175308260Y-95402400D02*
X174866300Y-95333820D01*
X168376600Y-99992180D02*
X174828200Y-99992180D01*
X174828200Y-99992180D02*
X175247300Y-99954080D01*
X175247300Y-99954080D02*
X175737520Y-99783900D01*
X168376600Y-95333820D02*
X174828200Y-95333820D01*
G04 #@! TO.C,powerIn1*
X98012000Y-118972000D02*
G75*
G03X98012000Y-118972000I-2000000J0D01*
G01*
X103012000Y-118972000D02*
G75*
G03X103012000Y-118972000I-2000000J0D01*
G01*
X93512000Y-113672000D02*
X93512000Y-123472000D01*
X103512000Y-113672000D02*
X93512000Y-113672000D01*
X103512000Y-123472000D02*
X103512000Y-113672000D01*
X93512000Y-123472000D02*
X103512000Y-123472000D01*
X93512000Y-122972000D02*
X103512000Y-122972000D01*
X93512000Y-116572000D02*
X103512000Y-116572000D01*
X93512000Y-121472000D02*
X103512000Y-121472000D01*
X98512000Y-122972000D02*
X98512000Y-123472000D01*
D15*
G04 #@! TO.C,C2*
X113755277Y-81784278D02*
G75*
G03X113755000Y-86395580I1179723J-2305722D01*
G01*
X116114723Y-81784278D02*
G75*
G02X116115000Y-86395580I-1179723J-2305722D01*
G01*
X116114723Y-81784278D02*
G75*
G03X113755000Y-81784420I-1179723J-2305722D01*
G01*
X112385000Y-84090000D02*
X117485000Y-84090000D01*
X112385000Y-84050000D02*
X113955000Y-84050000D01*
X115915000Y-84050000D02*
X117485000Y-84050000D01*
X112386000Y-84010000D02*
X113955000Y-84010000D01*
X115915000Y-84010000D02*
X117484000Y-84010000D01*
X112387000Y-83970000D02*
X113955000Y-83970000D01*
X115915000Y-83970000D02*
X117483000Y-83970000D01*
X112389000Y-83930000D02*
X113955000Y-83930000D01*
X115915000Y-83930000D02*
X117481000Y-83930000D01*
X112392000Y-83890000D02*
X113955000Y-83890000D01*
X115915000Y-83890000D02*
X117478000Y-83890000D01*
X112396000Y-83850000D02*
X113955000Y-83850000D01*
X115915000Y-83850000D02*
X117474000Y-83850000D01*
X112400000Y-83810000D02*
X113955000Y-83810000D01*
X115915000Y-83810000D02*
X117470000Y-83810000D01*
X112404000Y-83770000D02*
X113955000Y-83770000D01*
X115915000Y-83770000D02*
X117466000Y-83770000D01*
X112410000Y-83730000D02*
X113955000Y-83730000D01*
X115915000Y-83730000D02*
X117460000Y-83730000D01*
X112416000Y-83690000D02*
X113955000Y-83690000D01*
X115915000Y-83690000D02*
X117454000Y-83690000D01*
X112422000Y-83650000D02*
X113955000Y-83650000D01*
X115915000Y-83650000D02*
X117448000Y-83650000D01*
X112429000Y-83610000D02*
X113955000Y-83610000D01*
X115915000Y-83610000D02*
X117441000Y-83610000D01*
X112437000Y-83570000D02*
X113955000Y-83570000D01*
X115915000Y-83570000D02*
X117433000Y-83570000D01*
X112446000Y-83530000D02*
X113955000Y-83530000D01*
X115915000Y-83530000D02*
X117424000Y-83530000D01*
X112455000Y-83490000D02*
X113955000Y-83490000D01*
X115915000Y-83490000D02*
X117415000Y-83490000D01*
X112465000Y-83450000D02*
X113955000Y-83450000D01*
X115915000Y-83450000D02*
X117405000Y-83450000D01*
X112475000Y-83410000D02*
X113955000Y-83410000D01*
X115915000Y-83410000D02*
X117395000Y-83410000D01*
X112487000Y-83369000D02*
X113955000Y-83369000D01*
X115915000Y-83369000D02*
X117383000Y-83369000D01*
X112499000Y-83329000D02*
X113955000Y-83329000D01*
X115915000Y-83329000D02*
X117371000Y-83329000D01*
X112511000Y-83289000D02*
X113955000Y-83289000D01*
X115915000Y-83289000D02*
X117359000Y-83289000D01*
X112525000Y-83249000D02*
X113955000Y-83249000D01*
X115915000Y-83249000D02*
X117345000Y-83249000D01*
X112539000Y-83209000D02*
X113955000Y-83209000D01*
X115915000Y-83209000D02*
X117331000Y-83209000D01*
X112553000Y-83169000D02*
X113955000Y-83169000D01*
X115915000Y-83169000D02*
X117317000Y-83169000D01*
X112569000Y-83129000D02*
X113955000Y-83129000D01*
X115915000Y-83129000D02*
X117301000Y-83129000D01*
X112585000Y-83089000D02*
X113955000Y-83089000D01*
X115915000Y-83089000D02*
X117285000Y-83089000D01*
X112602000Y-83049000D02*
X113955000Y-83049000D01*
X115915000Y-83049000D02*
X117268000Y-83049000D01*
X112620000Y-83009000D02*
X113955000Y-83009000D01*
X115915000Y-83009000D02*
X117250000Y-83009000D01*
X112639000Y-82969000D02*
X113955000Y-82969000D01*
X115915000Y-82969000D02*
X117231000Y-82969000D01*
X112659000Y-82929000D02*
X113955000Y-82929000D01*
X115915000Y-82929000D02*
X117211000Y-82929000D01*
X112679000Y-82889000D02*
X113955000Y-82889000D01*
X115915000Y-82889000D02*
X117191000Y-82889000D01*
X112701000Y-82849000D02*
X113955000Y-82849000D01*
X115915000Y-82849000D02*
X117169000Y-82849000D01*
X112723000Y-82809000D02*
X113955000Y-82809000D01*
X115915000Y-82809000D02*
X117147000Y-82809000D01*
X112746000Y-82769000D02*
X113955000Y-82769000D01*
X115915000Y-82769000D02*
X117124000Y-82769000D01*
X112770000Y-82729000D02*
X113955000Y-82729000D01*
X115915000Y-82729000D02*
X117100000Y-82729000D01*
X112795000Y-82689000D02*
X113955000Y-82689000D01*
X115915000Y-82689000D02*
X117075000Y-82689000D01*
X112822000Y-82649000D02*
X113955000Y-82649000D01*
X115915000Y-82649000D02*
X117048000Y-82649000D01*
X112849000Y-82609000D02*
X113955000Y-82609000D01*
X115915000Y-82609000D02*
X117021000Y-82609000D01*
X112877000Y-82569000D02*
X113955000Y-82569000D01*
X115915000Y-82569000D02*
X116993000Y-82569000D01*
X112907000Y-82529000D02*
X113955000Y-82529000D01*
X115915000Y-82529000D02*
X116963000Y-82529000D01*
X112938000Y-82489000D02*
X113955000Y-82489000D01*
X115915000Y-82489000D02*
X116932000Y-82489000D01*
X112970000Y-82449000D02*
X113955000Y-82449000D01*
X115915000Y-82449000D02*
X116900000Y-82449000D01*
X113003000Y-82409000D02*
X113955000Y-82409000D01*
X115915000Y-82409000D02*
X116867000Y-82409000D01*
X113038000Y-82369000D02*
X113955000Y-82369000D01*
X115915000Y-82369000D02*
X116832000Y-82369000D01*
X113074000Y-82329000D02*
X113955000Y-82329000D01*
X115915000Y-82329000D02*
X116796000Y-82329000D01*
X113112000Y-82289000D02*
X113955000Y-82289000D01*
X115915000Y-82289000D02*
X116758000Y-82289000D01*
X113152000Y-82249000D02*
X113955000Y-82249000D01*
X115915000Y-82249000D02*
X116718000Y-82249000D01*
X113193000Y-82209000D02*
X113955000Y-82209000D01*
X115915000Y-82209000D02*
X116677000Y-82209000D01*
X113236000Y-82169000D02*
X113955000Y-82169000D01*
X115915000Y-82169000D02*
X116634000Y-82169000D01*
X113281000Y-82129000D02*
X113955000Y-82129000D01*
X115915000Y-82129000D02*
X116589000Y-82129000D01*
X113329000Y-82089000D02*
X116541000Y-82089000D01*
X113379000Y-82049000D02*
X116491000Y-82049000D01*
X113431000Y-82009000D02*
X116439000Y-82009000D01*
X113487000Y-81969000D02*
X116383000Y-81969000D01*
X113545000Y-81929000D02*
X116325000Y-81929000D01*
X113608000Y-81889000D02*
X116262000Y-81889000D01*
X113674000Y-81849000D02*
X116196000Y-81849000D01*
X113746000Y-81809000D02*
X116124000Y-81809000D01*
X113823000Y-81769000D02*
X116047000Y-81769000D01*
X113907000Y-81729000D02*
X115963000Y-81729000D01*
X114001000Y-81689000D02*
X115869000Y-81689000D01*
X114106000Y-81649000D02*
X115764000Y-81649000D01*
X114228000Y-81609000D02*
X115642000Y-81609000D01*
X114376000Y-81569000D02*
X115494000Y-81569000D01*
X114581000Y-81529000D02*
X115289000Y-81529000D01*
X114935000Y-87290000D02*
X114935000Y-86090000D01*
X114285000Y-86690000D02*
X115585000Y-86690000D01*
G04 #@! TO.C,D1*
X99641960Y-79777500D02*
X96821960Y-79777500D01*
X98231960Y-85397500D02*
X98231960Y-84257500D01*
X98231960Y-77797500D02*
X98231960Y-78937500D01*
X99641960Y-84257500D02*
X99641960Y-78937500D01*
X96821960Y-84257500D02*
X99641960Y-84257500D01*
X96821960Y-78937500D02*
X96821960Y-84257500D01*
X99641960Y-78937500D02*
X96821960Y-78937500D01*
G04 #@! TO.C,CON2*
X203938000Y-72120000D02*
X203938000Y-92980000D01*
X203938000Y-92980000D02*
X194588000Y-92980000D01*
X194588000Y-92980000D02*
X194588000Y-72120000D01*
X194588000Y-72120000D02*
X203938000Y-72120000D01*
X194338000Y-71870000D02*
X194338000Y-74410000D01*
X194338000Y-71870000D02*
X196878000Y-71870000D01*
G04 #@! TO.C,P14*
X189798000Y-60258000D02*
X189798000Y-57598000D01*
X171958000Y-60258000D02*
X189798000Y-60258000D01*
X171958000Y-57598000D02*
X189798000Y-57598000D01*
X171958000Y-60258000D02*
X171958000Y-57598000D01*
X170688000Y-60258000D02*
X169358000Y-60258000D01*
X169358000Y-60258000D02*
X169358000Y-58928000D01*
G04 #@! TO.C,P15*
X197418000Y-108398000D02*
X197418000Y-109728000D01*
X196088000Y-108398000D02*
X197418000Y-108398000D01*
X194818000Y-108398000D02*
X194818000Y-111058000D01*
X194818000Y-111058000D02*
X176978000Y-111058000D01*
X194818000Y-108398000D02*
X176978000Y-108398000D01*
X176978000Y-108398000D02*
X176978000Y-111058000D01*
G04 #@! TO.C,P9*
X132782000Y-68386000D02*
X132782000Y-67056000D01*
X134112000Y-68386000D02*
X132782000Y-68386000D01*
X135382000Y-65726000D02*
X135382000Y-68386000D01*
X163382000Y-65726000D02*
X135382000Y-65726000D01*
X163382000Y-68386000D02*
X163382000Y-65726000D01*
X135382000Y-68386000D02*
X163382000Y-68386000D01*
G04 #@! TO.C,P8*
X160486400Y-99762000D02*
X160486400Y-101092000D01*
X159156400Y-99762000D02*
X160486400Y-99762000D01*
X157886400Y-102422000D02*
X157886400Y-99762000D01*
X140046400Y-102422000D02*
X157886400Y-102422000D01*
X140046400Y-99762000D02*
X140046400Y-102422000D01*
X157886400Y-99762000D02*
X140046400Y-99762000D01*
G04 #@! TO.C,P12*
X132782000Y-59750000D02*
X132782000Y-58420000D01*
X134112000Y-59750000D02*
X132782000Y-59750000D01*
X135382000Y-59750000D02*
X135382000Y-57090000D01*
X135382000Y-57090000D02*
X163382000Y-57090000D01*
X135382000Y-59750000D02*
X163382000Y-59750000D01*
X163382000Y-59750000D02*
X163382000Y-57090000D01*
G04 #@! TO.C,U1*
X108284000Y-83131000D02*
X106774000Y-83131000D01*
X108284000Y-79430000D02*
X106774000Y-79430000D01*
X106774000Y-76160000D02*
X106774000Y-86400000D01*
X108284000Y-86400000D02*
X103643000Y-86400000D01*
X108284000Y-76160000D02*
X103643000Y-76160000D01*
X103643000Y-76160000D02*
X103643000Y-86400000D01*
X108284000Y-76160000D02*
X108284000Y-86400000D01*
G04 #@! TO.C,P7*
X194945000Y-67564000D02*
X194945000Y-66294000D01*
X196215000Y-67564000D02*
X194945000Y-67564000D01*
X197245000Y-58294000D02*
X197675000Y-58294000D01*
X197245000Y-59054000D02*
X197675000Y-59054000D01*
X206305000Y-59944000D02*
X197675000Y-59944000D01*
X206305000Y-57344000D02*
X206305000Y-59944000D01*
X197675000Y-57344000D02*
X206305000Y-57344000D01*
X197675000Y-59944000D02*
X197675000Y-57344000D01*
X197245000Y-60834000D02*
X197675000Y-60834000D01*
X197245000Y-61594000D02*
X197675000Y-61594000D01*
X206305000Y-62484000D02*
X197675000Y-62484000D01*
X206305000Y-59944000D02*
X206305000Y-62484000D01*
X197675000Y-59944000D02*
X206305000Y-59944000D01*
X197675000Y-62484000D02*
X197675000Y-59944000D01*
X197245000Y-63374000D02*
X197675000Y-63374000D01*
X197245000Y-64134000D02*
X197675000Y-64134000D01*
X206305000Y-65024000D02*
X197675000Y-65024000D01*
X206305000Y-62484000D02*
X206305000Y-65024000D01*
X197675000Y-62484000D02*
X206305000Y-62484000D01*
X197675000Y-65024000D02*
X197675000Y-62484000D01*
X197675000Y-64924000D02*
X206305000Y-64924000D01*
X197675000Y-65044000D02*
X206305000Y-65044000D01*
X197675000Y-65164000D02*
X206305000Y-65164000D01*
X197675000Y-65284000D02*
X206305000Y-65284000D01*
X197675000Y-65404000D02*
X206305000Y-65404000D01*
X197675000Y-65524000D02*
X206305000Y-65524000D01*
X197675000Y-65644000D02*
X206305000Y-65644000D01*
X197675000Y-65764000D02*
X206305000Y-65764000D01*
X197675000Y-65884000D02*
X206305000Y-65884000D01*
X197675000Y-66004000D02*
X206305000Y-66004000D01*
X197675000Y-66124000D02*
X206305000Y-66124000D01*
X197675000Y-66244000D02*
X206305000Y-66244000D01*
X197675000Y-66364000D02*
X206305000Y-66364000D01*
X197675000Y-66484000D02*
X206305000Y-66484000D01*
X197675000Y-66604000D02*
X206305000Y-66604000D01*
X197675000Y-66724000D02*
X206305000Y-66724000D01*
X197675000Y-66844000D02*
X206305000Y-66844000D01*
X197675000Y-66964000D02*
X206305000Y-66964000D01*
X197675000Y-67084000D02*
X206305000Y-67084000D01*
X197675000Y-67204000D02*
X206305000Y-67204000D01*
X197675000Y-67324000D02*
X206305000Y-67324000D01*
X197675000Y-67444000D02*
X206305000Y-67444000D01*
X197245000Y-65914000D02*
X197675000Y-65914000D01*
X197245000Y-66674000D02*
X197675000Y-66674000D01*
X206305000Y-67624000D02*
X197675000Y-67624000D01*
X206305000Y-65024000D02*
X206305000Y-67624000D01*
X197675000Y-65024000D02*
X206305000Y-65024000D01*
X197675000Y-67624000D02*
X197675000Y-65024000D01*
G04 #@! TO.C,D3*
X125707000Y-105036000D02*
X125707000Y-110356000D01*
X134872000Y-107696000D02*
X133842000Y-107696000D01*
X123192000Y-107696000D02*
X124222000Y-107696000D01*
X133842000Y-105036000D02*
X124222000Y-105036000D01*
X133842000Y-110356000D02*
X133842000Y-105036000D01*
X124222000Y-110356000D02*
X133842000Y-110356000D01*
X124222000Y-105036000D02*
X124222000Y-110356000D01*
G04 #@! TO.C,P10*
X171958000Y-68386000D02*
X189798000Y-68386000D01*
X189798000Y-68386000D02*
X189798000Y-65726000D01*
X189798000Y-65726000D02*
X171958000Y-65726000D01*
X171958000Y-65726000D02*
X171958000Y-68386000D01*
X170688000Y-68386000D02*
X169358000Y-68386000D01*
X169358000Y-68386000D02*
X169358000Y-67056000D01*
G04 #@! TO.C,L1*
X134233379Y-97985503D02*
G75*
G03X134024000Y-87714000I-5709379J5021503D01*
G01*
X122814621Y-87942497D02*
G75*
G03X123024000Y-98214000I5709379J-5021503D01*
G01*
X125924000Y-83664000D02*
X126424000Y-83664000D01*
X122824000Y-87964000D02*
X125924000Y-83664000D01*
X131124000Y-83664000D02*
X130624000Y-83664000D01*
X131124000Y-83664000D02*
X134724000Y-88564000D01*
X131124000Y-102264000D02*
X130624000Y-102264000D01*
X134624000Y-97564000D02*
X131124000Y-102264000D01*
X125924000Y-102264000D02*
X126424000Y-102264000D01*
X122124000Y-97064000D02*
X125924000Y-102264000D01*
G04 #@! TO.C,Cout1*
X100318000Y-89490000D02*
X98818000Y-89490000D01*
X99568000Y-88740000D02*
X99568000Y-90240000D01*
X99847000Y-99021000D02*
X99289000Y-99021000D01*
X100240000Y-98981000D02*
X98896000Y-98981000D01*
X100481000Y-98941000D02*
X98655000Y-98941000D01*
X100672000Y-98901000D02*
X98464000Y-98901000D01*
X100833000Y-98861000D02*
X98303000Y-98861000D01*
X100975000Y-98821000D02*
X98161000Y-98821000D01*
X101104000Y-98781000D02*
X98032000Y-98781000D01*
X101222000Y-98741000D02*
X97914000Y-98741000D01*
X101331000Y-98701000D02*
X97805000Y-98701000D01*
X101434000Y-98661000D02*
X97702000Y-98661000D01*
X101530000Y-98621000D02*
X97606000Y-98621000D01*
X101621000Y-98581000D02*
X97515000Y-98581000D01*
X101708000Y-98541000D02*
X97428000Y-98541000D01*
X101790000Y-98501000D02*
X97346000Y-98501000D01*
X101869000Y-98461000D02*
X97267000Y-98461000D01*
X101945000Y-98421000D02*
X97191000Y-98421000D01*
X102017000Y-98381000D02*
X97119000Y-98381000D01*
X102087000Y-98341000D02*
X97049000Y-98341000D01*
X102155000Y-98301000D02*
X96981000Y-98301000D01*
X102220000Y-98261000D02*
X96916000Y-98261000D01*
X102283000Y-98221000D02*
X96853000Y-98221000D01*
X102345000Y-98181000D02*
X96791000Y-98181000D01*
X102404000Y-98141000D02*
X96732000Y-98141000D01*
X102462000Y-98101000D02*
X96674000Y-98101000D01*
X102517000Y-98061000D02*
X96619000Y-98061000D01*
X102572000Y-98021000D02*
X96564000Y-98021000D01*
X102625000Y-97981000D02*
X96511000Y-97981000D01*
X102676000Y-97941000D02*
X96460000Y-97941000D01*
X102726000Y-97901000D02*
X96410000Y-97901000D01*
X102775000Y-97861000D02*
X96361000Y-97861000D01*
X102823000Y-97821000D02*
X96313000Y-97821000D01*
X102870000Y-97781000D02*
X96266000Y-97781000D01*
X102915000Y-97741000D02*
X96221000Y-97741000D01*
X102959000Y-97701000D02*
X96177000Y-97701000D01*
X103003000Y-97661000D02*
X96133000Y-97661000D01*
X103045000Y-97621000D02*
X96091000Y-97621000D01*
X98387000Y-97581000D02*
X96050000Y-97581000D01*
X103086000Y-97581000D02*
X100749000Y-97581000D01*
X98387000Y-97541000D02*
X96009000Y-97541000D01*
X103127000Y-97541000D02*
X100749000Y-97541000D01*
X98387000Y-97501000D02*
X95970000Y-97501000D01*
X103166000Y-97501000D02*
X100749000Y-97501000D01*
X98387000Y-97461000D02*
X95931000Y-97461000D01*
X103205000Y-97461000D02*
X100749000Y-97461000D01*
X98387000Y-97421000D02*
X95893000Y-97421000D01*
X103243000Y-97421000D02*
X100749000Y-97421000D01*
X98387000Y-97381000D02*
X95856000Y-97381000D01*
X103280000Y-97381000D02*
X100749000Y-97381000D01*
X98387000Y-97341000D02*
X95820000Y-97341000D01*
X103316000Y-97341000D02*
X100749000Y-97341000D01*
X98387000Y-97301000D02*
X95784000Y-97301000D01*
X103352000Y-97301000D02*
X100749000Y-97301000D01*
X98387000Y-97261000D02*
X95749000Y-97261000D01*
X103387000Y-97261000D02*
X100749000Y-97261000D01*
X98387000Y-97221000D02*
X95715000Y-97221000D01*
X103421000Y-97221000D02*
X100749000Y-97221000D01*
X98387000Y-97181000D02*
X95682000Y-97181000D01*
X103454000Y-97181000D02*
X100749000Y-97181000D01*
X98387000Y-97141000D02*
X95649000Y-97141000D01*
X103487000Y-97141000D02*
X100749000Y-97141000D01*
X98387000Y-97101000D02*
X95617000Y-97101000D01*
X103519000Y-97101000D02*
X100749000Y-97101000D01*
X98387000Y-97061000D02*
X95586000Y-97061000D01*
X103550000Y-97061000D02*
X100749000Y-97061000D01*
X98387000Y-97021000D02*
X95555000Y-97021000D01*
X103581000Y-97021000D02*
X100749000Y-97021000D01*
X98387000Y-96981000D02*
X95525000Y-96981000D01*
X103611000Y-96981000D02*
X100749000Y-96981000D01*
X98387000Y-96941000D02*
X95496000Y-96941000D01*
X103640000Y-96941000D02*
X100749000Y-96941000D01*
X98387000Y-96901000D02*
X95467000Y-96901000D01*
X103669000Y-96901000D02*
X100749000Y-96901000D01*
X98387000Y-96861000D02*
X95438000Y-96861000D01*
X103698000Y-96861000D02*
X100749000Y-96861000D01*
X98387000Y-96821000D02*
X95411000Y-96821000D01*
X103725000Y-96821000D02*
X100749000Y-96821000D01*
X98387000Y-96781000D02*
X95383000Y-96781000D01*
X103753000Y-96781000D02*
X100749000Y-96781000D01*
X98387000Y-96741000D02*
X95357000Y-96741000D01*
X103779000Y-96741000D02*
X100749000Y-96741000D01*
X98387000Y-96701000D02*
X95331000Y-96701000D01*
X103805000Y-96701000D02*
X100749000Y-96701000D01*
X98387000Y-96661000D02*
X95305000Y-96661000D01*
X103831000Y-96661000D02*
X100749000Y-96661000D01*
X98387000Y-96621000D02*
X95280000Y-96621000D01*
X103856000Y-96621000D02*
X100749000Y-96621000D01*
X98387000Y-96581000D02*
X95256000Y-96581000D01*
X103880000Y-96581000D02*
X100749000Y-96581000D01*
X98387000Y-96541000D02*
X95232000Y-96541000D01*
X103904000Y-96541000D02*
X100749000Y-96541000D01*
X98387000Y-96501000D02*
X95208000Y-96501000D01*
X103928000Y-96501000D02*
X100749000Y-96501000D01*
X98387000Y-96461000D02*
X95185000Y-96461000D01*
X103951000Y-96461000D02*
X100749000Y-96461000D01*
X98387000Y-96421000D02*
X95163000Y-96421000D01*
X103973000Y-96421000D02*
X100749000Y-96421000D01*
X98387000Y-96381000D02*
X95140000Y-96381000D01*
X103996000Y-96381000D02*
X100749000Y-96381000D01*
X98387000Y-96341000D02*
X95119000Y-96341000D01*
X104017000Y-96341000D02*
X100749000Y-96341000D01*
X98387000Y-96301000D02*
X95098000Y-96301000D01*
X104038000Y-96301000D02*
X100749000Y-96301000D01*
X98387000Y-96261000D02*
X95077000Y-96261000D01*
X104059000Y-96261000D02*
X100749000Y-96261000D01*
X98387000Y-96221000D02*
X95057000Y-96221000D01*
X104079000Y-96221000D02*
X100749000Y-96221000D01*
X98387000Y-96181000D02*
X95037000Y-96181000D01*
X104099000Y-96181000D02*
X100749000Y-96181000D01*
X98387000Y-96141000D02*
X95018000Y-96141000D01*
X104118000Y-96141000D02*
X100749000Y-96141000D01*
X98387000Y-96101000D02*
X94999000Y-96101000D01*
X104137000Y-96101000D02*
X100749000Y-96101000D01*
X98387000Y-96061000D02*
X94980000Y-96061000D01*
X104156000Y-96061000D02*
X100749000Y-96061000D01*
X98387000Y-96021000D02*
X94962000Y-96021000D01*
X104174000Y-96021000D02*
X100749000Y-96021000D01*
X98387000Y-95981000D02*
X94944000Y-95981000D01*
X104192000Y-95981000D02*
X100749000Y-95981000D01*
X98387000Y-95941000D02*
X94927000Y-95941000D01*
X104209000Y-95941000D02*
X100749000Y-95941000D01*
X98387000Y-95901000D02*
X94910000Y-95901000D01*
X104226000Y-95901000D02*
X100749000Y-95901000D01*
X98387000Y-95861000D02*
X94894000Y-95861000D01*
X104242000Y-95861000D02*
X100749000Y-95861000D01*
X98387000Y-95821000D02*
X94877000Y-95821000D01*
X104259000Y-95821000D02*
X100749000Y-95821000D01*
X98387000Y-95781000D02*
X94862000Y-95781000D01*
X104274000Y-95781000D02*
X100749000Y-95781000D01*
X98387000Y-95741000D02*
X94846000Y-95741000D01*
X104290000Y-95741000D02*
X100749000Y-95741000D01*
X98387000Y-95701000D02*
X94831000Y-95701000D01*
X104305000Y-95701000D02*
X100749000Y-95701000D01*
X98387000Y-95661000D02*
X94817000Y-95661000D01*
X104319000Y-95661000D02*
X100749000Y-95661000D01*
X98387000Y-95621000D02*
X94803000Y-95621000D01*
X104333000Y-95621000D02*
X100749000Y-95621000D01*
X98387000Y-95581000D02*
X94789000Y-95581000D01*
X104347000Y-95581000D02*
X100749000Y-95581000D01*
X98387000Y-95541000D02*
X94776000Y-95541000D01*
X104360000Y-95541000D02*
X100749000Y-95541000D01*
X98387000Y-95501000D02*
X94762000Y-95501000D01*
X104374000Y-95501000D02*
X100749000Y-95501000D01*
X98387000Y-95461000D02*
X94750000Y-95461000D01*
X104386000Y-95461000D02*
X100749000Y-95461000D01*
X98387000Y-95421000D02*
X94737000Y-95421000D01*
X104399000Y-95421000D02*
X100749000Y-95421000D01*
X98387000Y-95381000D02*
X94725000Y-95381000D01*
X104411000Y-95381000D02*
X100749000Y-95381000D01*
X98387000Y-95341000D02*
X94714000Y-95341000D01*
X104422000Y-95341000D02*
X100749000Y-95341000D01*
X98387000Y-95301000D02*
X94703000Y-95301000D01*
X104433000Y-95301000D02*
X100749000Y-95301000D01*
X98387000Y-95261000D02*
X94692000Y-95261000D01*
X104444000Y-95261000D02*
X100749000Y-95261000D01*
X104455000Y-95221000D02*
X94681000Y-95221000D01*
X104465000Y-95181000D02*
X94671000Y-95181000D01*
X104475000Y-95141000D02*
X94661000Y-95141000D01*
X104485000Y-95101000D02*
X94651000Y-95101000D01*
X104494000Y-95061000D02*
X94642000Y-95061000D01*
X104503000Y-95021000D02*
X94633000Y-95021000D01*
X104511000Y-94981000D02*
X94625000Y-94981000D01*
X104519000Y-94941000D02*
X94617000Y-94941000D01*
X104527000Y-94901000D02*
X94609000Y-94901000D01*
X104535000Y-94861000D02*
X94601000Y-94861000D01*
X104542000Y-94821000D02*
X94594000Y-94821000D01*
X104549000Y-94781000D02*
X94587000Y-94781000D01*
X104555000Y-94741000D02*
X94581000Y-94741000D01*
X104561000Y-94701000D02*
X94575000Y-94701000D01*
X104567000Y-94661000D02*
X94569000Y-94661000D01*
X104573000Y-94620000D02*
X94563000Y-94620000D01*
X104578000Y-94580000D02*
X94558000Y-94580000D01*
X104583000Y-94540000D02*
X94553000Y-94540000D01*
X104588000Y-94500000D02*
X94548000Y-94500000D01*
X104592000Y-94460000D02*
X94544000Y-94460000D01*
X104596000Y-94420000D02*
X94540000Y-94420000D01*
X104599000Y-94380000D02*
X94537000Y-94380000D01*
X104603000Y-94340000D02*
X94533000Y-94340000D01*
X104606000Y-94300000D02*
X94530000Y-94300000D01*
X104608000Y-94260000D02*
X94528000Y-94260000D01*
X104611000Y-94220000D02*
X94525000Y-94220000D01*
X104613000Y-94180000D02*
X94523000Y-94180000D01*
X104615000Y-94140000D02*
X94521000Y-94140000D01*
X104616000Y-94100000D02*
X94520000Y-94100000D01*
X104617000Y-94060000D02*
X94519000Y-94060000D01*
X104618000Y-94020000D02*
X94518000Y-94020000D01*
X104618000Y-93980000D02*
X94518000Y-93980000D01*
X104618000Y-93940000D02*
X94518000Y-93940000D01*
X98184736Y-98838437D02*
G75*
G03X100948000Y-98839357I1383264J4898437D01*
G01*
X98184736Y-98838437D02*
G75*
G02X98188000Y-89040643I1383264J4898437D01*
G01*
X100951264Y-98838437D02*
G75*
G03X100948000Y-89040643I-1383264J4898437D01*
G01*
G04 #@! TO.C,R3*
X101828000Y-71002000D02*
X103028000Y-71002000D01*
X103028000Y-72762000D02*
X101828000Y-72762000D01*
D10*
G04 #@! TO.C,P4*
X126841000Y-120496000D02*
G75*
G03X126841000Y-120496000I-2000000J0D01*
G01*
X131841000Y-120496000D02*
G75*
G03X131841000Y-120496000I-2000000J0D01*
G01*
X136841000Y-120496000D02*
G75*
G03X136841000Y-120496000I-2000000J0D01*
G01*
X141841000Y-120496000D02*
G75*
G03X141841000Y-120496000I-2000000J0D01*
G01*
X146841000Y-120496000D02*
G75*
G03X146841000Y-120496000I-2000000J0D01*
G01*
X151841000Y-120496000D02*
G75*
G03X151841000Y-120496000I-2000000J0D01*
G01*
X156841000Y-120496000D02*
G75*
G03X156841000Y-120496000I-2000000J0D01*
G01*
X161841000Y-120496000D02*
G75*
G03X161841000Y-120496000I-2000000J0D01*
G01*
X122341000Y-115196000D02*
X122341000Y-124996000D01*
X162341000Y-115196000D02*
X122341000Y-115196000D01*
X162341000Y-124996000D02*
X162341000Y-115196000D01*
X122341000Y-124996000D02*
X162341000Y-124996000D01*
X122341000Y-124496000D02*
X162341000Y-124496000D01*
X122341000Y-118096000D02*
X162341000Y-118096000D01*
X122341000Y-122996000D02*
X162341000Y-122996000D01*
X127341000Y-124496000D02*
X127341000Y-124996000D01*
X132341000Y-124496000D02*
X132341000Y-124996000D01*
X137341000Y-124496000D02*
X137341000Y-124996000D01*
X142341000Y-124496000D02*
X142341000Y-124996000D01*
X147341000Y-124496000D02*
X147341000Y-124996000D01*
X152341000Y-124496000D02*
X152341000Y-124996000D01*
X157341000Y-124496000D02*
X157341000Y-124996000D01*
D15*
G04 #@! TO.C,C3*
X116178223Y-78267722D02*
G75*
G03X116178500Y-73656420I-1179723J2305722D01*
G01*
X113818777Y-78267722D02*
G75*
G02X113818500Y-73656420I1179723J2305722D01*
G01*
X113818777Y-78267722D02*
G75*
G03X116178500Y-78267580I1179723J2305722D01*
G01*
X117548500Y-75962000D02*
X112448500Y-75962000D01*
X117548500Y-76002000D02*
X115978500Y-76002000D01*
X114018500Y-76002000D02*
X112448500Y-76002000D01*
X117547500Y-76042000D02*
X115978500Y-76042000D01*
X114018500Y-76042000D02*
X112449500Y-76042000D01*
X117546500Y-76082000D02*
X115978500Y-76082000D01*
X114018500Y-76082000D02*
X112450500Y-76082000D01*
X117544500Y-76122000D02*
X115978500Y-76122000D01*
X114018500Y-76122000D02*
X112452500Y-76122000D01*
X117541500Y-76162000D02*
X115978500Y-76162000D01*
X114018500Y-76162000D02*
X112455500Y-76162000D01*
X117537500Y-76202000D02*
X115978500Y-76202000D01*
X114018500Y-76202000D02*
X112459500Y-76202000D01*
X117533500Y-76242000D02*
X115978500Y-76242000D01*
X114018500Y-76242000D02*
X112463500Y-76242000D01*
X117529500Y-76282000D02*
X115978500Y-76282000D01*
X114018500Y-76282000D02*
X112467500Y-76282000D01*
X117523500Y-76322000D02*
X115978500Y-76322000D01*
X114018500Y-76322000D02*
X112473500Y-76322000D01*
X117517500Y-76362000D02*
X115978500Y-76362000D01*
X114018500Y-76362000D02*
X112479500Y-76362000D01*
X117511500Y-76402000D02*
X115978500Y-76402000D01*
X114018500Y-76402000D02*
X112485500Y-76402000D01*
X117504500Y-76442000D02*
X115978500Y-76442000D01*
X114018500Y-76442000D02*
X112492500Y-76442000D01*
X117496500Y-76482000D02*
X115978500Y-76482000D01*
X114018500Y-76482000D02*
X112500500Y-76482000D01*
X117487500Y-76522000D02*
X115978500Y-76522000D01*
X114018500Y-76522000D02*
X112509500Y-76522000D01*
X117478500Y-76562000D02*
X115978500Y-76562000D01*
X114018500Y-76562000D02*
X112518500Y-76562000D01*
X117468500Y-76602000D02*
X115978500Y-76602000D01*
X114018500Y-76602000D02*
X112528500Y-76602000D01*
X117458500Y-76642000D02*
X115978500Y-76642000D01*
X114018500Y-76642000D02*
X112538500Y-76642000D01*
X117446500Y-76683000D02*
X115978500Y-76683000D01*
X114018500Y-76683000D02*
X112550500Y-76683000D01*
X117434500Y-76723000D02*
X115978500Y-76723000D01*
X114018500Y-76723000D02*
X112562500Y-76723000D01*
X117422500Y-76763000D02*
X115978500Y-76763000D01*
X114018500Y-76763000D02*
X112574500Y-76763000D01*
X117408500Y-76803000D02*
X115978500Y-76803000D01*
X114018500Y-76803000D02*
X112588500Y-76803000D01*
X117394500Y-76843000D02*
X115978500Y-76843000D01*
X114018500Y-76843000D02*
X112602500Y-76843000D01*
X117380500Y-76883000D02*
X115978500Y-76883000D01*
X114018500Y-76883000D02*
X112616500Y-76883000D01*
X117364500Y-76923000D02*
X115978500Y-76923000D01*
X114018500Y-76923000D02*
X112632500Y-76923000D01*
X117348500Y-76963000D02*
X115978500Y-76963000D01*
X114018500Y-76963000D02*
X112648500Y-76963000D01*
X117331500Y-77003000D02*
X115978500Y-77003000D01*
X114018500Y-77003000D02*
X112665500Y-77003000D01*
X117313500Y-77043000D02*
X115978500Y-77043000D01*
X114018500Y-77043000D02*
X112683500Y-77043000D01*
X117294500Y-77083000D02*
X115978500Y-77083000D01*
X114018500Y-77083000D02*
X112702500Y-77083000D01*
X117274500Y-77123000D02*
X115978500Y-77123000D01*
X114018500Y-77123000D02*
X112722500Y-77123000D01*
X117254500Y-77163000D02*
X115978500Y-77163000D01*
X114018500Y-77163000D02*
X112742500Y-77163000D01*
X117232500Y-77203000D02*
X115978500Y-77203000D01*
X114018500Y-77203000D02*
X112764500Y-77203000D01*
X117210500Y-77243000D02*
X115978500Y-77243000D01*
X114018500Y-77243000D02*
X112786500Y-77243000D01*
X117187500Y-77283000D02*
X115978500Y-77283000D01*
X114018500Y-77283000D02*
X112809500Y-77283000D01*
X117163500Y-77323000D02*
X115978500Y-77323000D01*
X114018500Y-77323000D02*
X112833500Y-77323000D01*
X117138500Y-77363000D02*
X115978500Y-77363000D01*
X114018500Y-77363000D02*
X112858500Y-77363000D01*
X117111500Y-77403000D02*
X115978500Y-77403000D01*
X114018500Y-77403000D02*
X112885500Y-77403000D01*
X117084500Y-77443000D02*
X115978500Y-77443000D01*
X114018500Y-77443000D02*
X112912500Y-77443000D01*
X117056500Y-77483000D02*
X115978500Y-77483000D01*
X114018500Y-77483000D02*
X112940500Y-77483000D01*
X117026500Y-77523000D02*
X115978500Y-77523000D01*
X114018500Y-77523000D02*
X112970500Y-77523000D01*
X116995500Y-77563000D02*
X115978500Y-77563000D01*
X114018500Y-77563000D02*
X113001500Y-77563000D01*
X116963500Y-77603000D02*
X115978500Y-77603000D01*
X114018500Y-77603000D02*
X113033500Y-77603000D01*
X116930500Y-77643000D02*
X115978500Y-77643000D01*
X114018500Y-77643000D02*
X113066500Y-77643000D01*
X116895500Y-77683000D02*
X115978500Y-77683000D01*
X114018500Y-77683000D02*
X113101500Y-77683000D01*
X116859500Y-77723000D02*
X115978500Y-77723000D01*
X114018500Y-77723000D02*
X113137500Y-77723000D01*
X116821500Y-77763000D02*
X115978500Y-77763000D01*
X114018500Y-77763000D02*
X113175500Y-77763000D01*
X116781500Y-77803000D02*
X115978500Y-77803000D01*
X114018500Y-77803000D02*
X113215500Y-77803000D01*
X116740500Y-77843000D02*
X115978500Y-77843000D01*
X114018500Y-77843000D02*
X113256500Y-77843000D01*
X116697500Y-77883000D02*
X115978500Y-77883000D01*
X114018500Y-77883000D02*
X113299500Y-77883000D01*
X116652500Y-77923000D02*
X115978500Y-77923000D01*
X114018500Y-77923000D02*
X113344500Y-77923000D01*
X116604500Y-77963000D02*
X113392500Y-77963000D01*
X116554500Y-78003000D02*
X113442500Y-78003000D01*
X116502500Y-78043000D02*
X113494500Y-78043000D01*
X116446500Y-78083000D02*
X113550500Y-78083000D01*
X116388500Y-78123000D02*
X113608500Y-78123000D01*
X116325500Y-78163000D02*
X113671500Y-78163000D01*
X116259500Y-78203000D02*
X113737500Y-78203000D01*
X116187500Y-78243000D02*
X113809500Y-78243000D01*
X116110500Y-78283000D02*
X113886500Y-78283000D01*
X116026500Y-78323000D02*
X113970500Y-78323000D01*
X115932500Y-78363000D02*
X114064500Y-78363000D01*
X115827500Y-78403000D02*
X114169500Y-78403000D01*
X115705500Y-78443000D02*
X114291500Y-78443000D01*
X115557500Y-78483000D02*
X114439500Y-78483000D01*
X115352500Y-78523000D02*
X114644500Y-78523000D01*
X114998500Y-72762000D02*
X114998500Y-73962000D01*
X115648500Y-73362000D02*
X114348500Y-73362000D01*
D10*
G04 #@! TO.C,C8*
X169918000Y-100750000D02*
X168918000Y-100750000D01*
X168918000Y-102450000D02*
X169918000Y-102450000D01*
G04 #@! TO.C,D2*
X107302500Y-72632000D02*
X110002500Y-72632000D01*
X107302500Y-71132000D02*
X110002500Y-71132000D01*
X108802500Y-72032000D02*
X108802500Y-71782000D01*
X108802500Y-71782000D02*
X108652500Y-71932000D01*
X108552500Y-71532000D02*
X108552500Y-72232000D01*
X108902500Y-71882000D02*
X109252500Y-71882000D01*
X108552500Y-71882000D02*
X108902500Y-71532000D01*
X108902500Y-71532000D02*
X108902500Y-72232000D01*
X108902500Y-72232000D02*
X108552500Y-71882000D01*
D15*
G04 #@! TO.C,D4*
X109705000Y-116720000D02*
X109705000Y-122040000D01*
X117840000Y-122040000D02*
X117840000Y-121160000D01*
X108220000Y-122040000D02*
X117840000Y-122040000D01*
X108220000Y-121160000D02*
X108220000Y-122040000D01*
X117840000Y-116720000D02*
X117840000Y-117600000D01*
X108220000Y-116720000D02*
X117840000Y-116720000D01*
X108220000Y-117600000D02*
X108220000Y-116720000D01*
G04 #@! TO.C,Cin1*
X116866000Y-93754000D02*
G75*
G03X116866000Y-93754000I-4090000J0D01*
G01*
X108726000Y-93754000D02*
X116826000Y-93754000D01*
X108726000Y-93714000D02*
X116826000Y-93714000D01*
X108726000Y-93674000D02*
X116826000Y-93674000D01*
X108727000Y-93634000D02*
X116825000Y-93634000D01*
X108729000Y-93594000D02*
X116823000Y-93594000D01*
X108730000Y-93554000D02*
X116822000Y-93554000D01*
X108733000Y-93514000D02*
X116819000Y-93514000D01*
X108735000Y-93474000D02*
X116817000Y-93474000D01*
X108738000Y-93434000D02*
X116814000Y-93434000D01*
X108741000Y-93394000D02*
X116811000Y-93394000D01*
X108745000Y-93354000D02*
X116807000Y-93354000D01*
X108749000Y-93314000D02*
X116803000Y-93314000D01*
X108754000Y-93274000D02*
X116798000Y-93274000D01*
X108759000Y-93234000D02*
X116793000Y-93234000D01*
X108764000Y-93194000D02*
X116788000Y-93194000D01*
X108770000Y-93154000D02*
X116782000Y-93154000D01*
X108776000Y-93114000D02*
X116776000Y-93114000D01*
X108782000Y-93074000D02*
X116770000Y-93074000D01*
X108789000Y-93033000D02*
X116763000Y-93033000D01*
X108797000Y-92993000D02*
X116755000Y-92993000D01*
X108805000Y-92953000D02*
X111796000Y-92953000D01*
X113756000Y-92953000D02*
X116747000Y-92953000D01*
X108813000Y-92913000D02*
X111796000Y-92913000D01*
X113756000Y-92913000D02*
X116739000Y-92913000D01*
X108821000Y-92873000D02*
X111796000Y-92873000D01*
X113756000Y-92873000D02*
X116731000Y-92873000D01*
X108830000Y-92833000D02*
X111796000Y-92833000D01*
X113756000Y-92833000D02*
X116722000Y-92833000D01*
X108840000Y-92793000D02*
X111796000Y-92793000D01*
X113756000Y-92793000D02*
X116712000Y-92793000D01*
X108850000Y-92753000D02*
X111796000Y-92753000D01*
X113756000Y-92753000D02*
X116702000Y-92753000D01*
X108860000Y-92713000D02*
X111796000Y-92713000D01*
X113756000Y-92713000D02*
X116692000Y-92713000D01*
X108871000Y-92673000D02*
X111796000Y-92673000D01*
X113756000Y-92673000D02*
X116681000Y-92673000D01*
X108882000Y-92633000D02*
X111796000Y-92633000D01*
X113756000Y-92633000D02*
X116670000Y-92633000D01*
X108893000Y-92593000D02*
X111796000Y-92593000D01*
X113756000Y-92593000D02*
X116659000Y-92593000D01*
X108906000Y-92553000D02*
X111796000Y-92553000D01*
X113756000Y-92553000D02*
X116646000Y-92553000D01*
X108918000Y-92513000D02*
X111796000Y-92513000D01*
X113756000Y-92513000D02*
X116634000Y-92513000D01*
X108931000Y-92473000D02*
X111796000Y-92473000D01*
X113756000Y-92473000D02*
X116621000Y-92473000D01*
X108944000Y-92433000D02*
X111796000Y-92433000D01*
X113756000Y-92433000D02*
X116608000Y-92433000D01*
X108958000Y-92393000D02*
X111796000Y-92393000D01*
X113756000Y-92393000D02*
X116594000Y-92393000D01*
X108973000Y-92353000D02*
X111796000Y-92353000D01*
X113756000Y-92353000D02*
X116579000Y-92353000D01*
X108987000Y-92313000D02*
X111796000Y-92313000D01*
X113756000Y-92313000D02*
X116565000Y-92313000D01*
X109003000Y-92273000D02*
X111796000Y-92273000D01*
X113756000Y-92273000D02*
X116549000Y-92273000D01*
X109018000Y-92233000D02*
X111796000Y-92233000D01*
X113756000Y-92233000D02*
X116534000Y-92233000D01*
X109035000Y-92193000D02*
X111796000Y-92193000D01*
X113756000Y-92193000D02*
X116517000Y-92193000D01*
X109051000Y-92153000D02*
X111796000Y-92153000D01*
X113756000Y-92153000D02*
X116501000Y-92153000D01*
X109069000Y-92113000D02*
X111796000Y-92113000D01*
X113756000Y-92113000D02*
X116483000Y-92113000D01*
X109086000Y-92073000D02*
X111796000Y-92073000D01*
X113756000Y-92073000D02*
X116466000Y-92073000D01*
X109105000Y-92033000D02*
X111796000Y-92033000D01*
X113756000Y-92033000D02*
X116447000Y-92033000D01*
X109124000Y-91993000D02*
X111796000Y-91993000D01*
X113756000Y-91993000D02*
X116428000Y-91993000D01*
X109143000Y-91953000D02*
X111796000Y-91953000D01*
X113756000Y-91953000D02*
X116409000Y-91953000D01*
X109163000Y-91913000D02*
X111796000Y-91913000D01*
X113756000Y-91913000D02*
X116389000Y-91913000D01*
X109183000Y-91873000D02*
X111796000Y-91873000D01*
X113756000Y-91873000D02*
X116369000Y-91873000D01*
X109204000Y-91833000D02*
X111796000Y-91833000D01*
X113756000Y-91833000D02*
X116348000Y-91833000D01*
X109226000Y-91793000D02*
X111796000Y-91793000D01*
X113756000Y-91793000D02*
X116326000Y-91793000D01*
X109248000Y-91753000D02*
X111796000Y-91753000D01*
X113756000Y-91753000D02*
X116304000Y-91753000D01*
X109271000Y-91713000D02*
X111796000Y-91713000D01*
X113756000Y-91713000D02*
X116281000Y-91713000D01*
X109294000Y-91673000D02*
X111796000Y-91673000D01*
X113756000Y-91673000D02*
X116258000Y-91673000D01*
X109318000Y-91633000D02*
X111796000Y-91633000D01*
X113756000Y-91633000D02*
X116234000Y-91633000D01*
X109342000Y-91593000D02*
X111796000Y-91593000D01*
X113756000Y-91593000D02*
X116210000Y-91593000D01*
X109368000Y-91553000D02*
X111796000Y-91553000D01*
X113756000Y-91553000D02*
X116184000Y-91553000D01*
X109393000Y-91513000D02*
X111796000Y-91513000D01*
X113756000Y-91513000D02*
X116159000Y-91513000D01*
X109420000Y-91473000D02*
X111796000Y-91473000D01*
X113756000Y-91473000D02*
X116132000Y-91473000D01*
X109447000Y-91433000D02*
X111796000Y-91433000D01*
X113756000Y-91433000D02*
X116105000Y-91433000D01*
X109475000Y-91393000D02*
X111796000Y-91393000D01*
X113756000Y-91393000D02*
X116077000Y-91393000D01*
X109504000Y-91353000D02*
X111796000Y-91353000D01*
X113756000Y-91353000D02*
X116048000Y-91353000D01*
X109533000Y-91313000D02*
X111796000Y-91313000D01*
X113756000Y-91313000D02*
X116019000Y-91313000D01*
X109563000Y-91273000D02*
X111796000Y-91273000D01*
X113756000Y-91273000D02*
X115989000Y-91273000D01*
X109594000Y-91233000D02*
X111796000Y-91233000D01*
X113756000Y-91233000D02*
X115958000Y-91233000D01*
X109626000Y-91193000D02*
X111796000Y-91193000D01*
X113756000Y-91193000D02*
X115926000Y-91193000D01*
X109658000Y-91153000D02*
X111796000Y-91153000D01*
X113756000Y-91153000D02*
X115894000Y-91153000D01*
X109692000Y-91113000D02*
X111796000Y-91113000D01*
X113756000Y-91113000D02*
X115860000Y-91113000D01*
X109726000Y-91073000D02*
X111796000Y-91073000D01*
X113756000Y-91073000D02*
X115826000Y-91073000D01*
X109761000Y-91033000D02*
X111796000Y-91033000D01*
X113756000Y-91033000D02*
X115791000Y-91033000D01*
X109797000Y-90993000D02*
X115755000Y-90993000D01*
X109834000Y-90953000D02*
X115718000Y-90953000D01*
X109872000Y-90913000D02*
X115680000Y-90913000D01*
X109911000Y-90873000D02*
X115641000Y-90873000D01*
X109952000Y-90833000D02*
X115600000Y-90833000D01*
X109993000Y-90793000D02*
X115559000Y-90793000D01*
X110036000Y-90753000D02*
X115516000Y-90753000D01*
X110079000Y-90713000D02*
X115473000Y-90713000D01*
X110124000Y-90673000D02*
X115428000Y-90673000D01*
X110171000Y-90633000D02*
X115381000Y-90633000D01*
X110219000Y-90593000D02*
X115333000Y-90593000D01*
X110268000Y-90553000D02*
X115284000Y-90553000D01*
X110319000Y-90513000D02*
X115233000Y-90513000D01*
X110372000Y-90473000D02*
X115180000Y-90473000D01*
X110427000Y-90433000D02*
X115125000Y-90433000D01*
X110483000Y-90393000D02*
X115069000Y-90393000D01*
X110542000Y-90353000D02*
X115010000Y-90353000D01*
X110603000Y-90313000D02*
X114949000Y-90313000D01*
X110667000Y-90273000D02*
X114885000Y-90273000D01*
X110733000Y-90233000D02*
X114819000Y-90233000D01*
X110802000Y-90193000D02*
X114750000Y-90193000D01*
X110874000Y-90153000D02*
X114678000Y-90153000D01*
X110950000Y-90113000D02*
X114602000Y-90113000D01*
X111031000Y-90073000D02*
X114521000Y-90073000D01*
X111116000Y-90033000D02*
X114436000Y-90033000D01*
X111206000Y-89993000D02*
X114346000Y-89993000D01*
X111303000Y-89953000D02*
X114249000Y-89953000D01*
X111407000Y-89913000D02*
X114145000Y-89913000D01*
X111522000Y-89873000D02*
X114030000Y-89873000D01*
X111649000Y-89833000D02*
X113903000Y-89833000D01*
X111793000Y-89793000D02*
X113759000Y-89793000D01*
X111962000Y-89753000D02*
X113590000Y-89753000D01*
X112178000Y-89713000D02*
X113374000Y-89713000D01*
X112530000Y-89673000D02*
X113022000Y-89673000D01*
X112776000Y-97704000D02*
X112776000Y-96504000D01*
X112126000Y-97104000D02*
X113426000Y-97104000D01*
D10*
G04 #@! TO.C,SW1*
X170414000Y-107188000D02*
G75*
G03X170414000Y-107188000I-1250000J0D01*
G01*
X172414000Y-109938000D02*
X172414000Y-110588000D01*
X172414000Y-110588000D02*
X165914000Y-110588000D01*
X165914000Y-110588000D02*
X165914000Y-109938000D01*
X172414000Y-104438000D02*
X172414000Y-103788000D01*
X172414000Y-103788000D02*
X165914000Y-103788000D01*
X165914000Y-103788000D02*
X165914000Y-104438000D01*
X172414000Y-105938000D02*
X172414000Y-108438000D01*
X165914000Y-105938000D02*
X165914000Y-108438000D01*
D15*
G04 #@! TO.C,Regulator1*
X111626000Y-102420000D02*
X114266000Y-102420000D01*
X111626000Y-104120000D02*
X114266000Y-104120000D01*
X111626000Y-105820000D02*
X114266000Y-105820000D01*
X111626000Y-107520000D02*
X114266000Y-107520000D01*
X111626000Y-109220000D02*
X114266000Y-109220000D01*
X95736000Y-100700000D02*
X111626000Y-100700000D01*
X95736000Y-110941000D02*
X111626000Y-110941000D01*
X95736000Y-110941000D02*
X95736000Y-100700000D01*
X111626000Y-110941000D02*
X111626000Y-100700000D01*
D10*
G04 #@! TO.C,IC1*
X139818000Y-91940000D02*
X141088000Y-91940000D01*
X139818000Y-76970000D02*
X141088000Y-76970000D01*
X192668000Y-76970000D02*
X191398000Y-76970000D01*
X192668000Y-91940000D02*
X191398000Y-91940000D01*
X139818000Y-91940000D02*
X139818000Y-76970000D01*
X192668000Y-91940000D02*
X192668000Y-76970000D01*
X141088000Y-91940000D02*
X141088000Y-93225000D01*
D15*
G04 #@! TO.C,J4*
X114850400Y-63553400D02*
X114850400Y-67653400D01*
X114850400Y-67653400D02*
X127650400Y-67653400D01*
X127650400Y-67653400D02*
X127650400Y-63553400D01*
X127650400Y-63553400D02*
X114850400Y-63553400D01*
X114850400Y-65303400D02*
X115350400Y-65303400D01*
X115350400Y-65303400D02*
X115350400Y-64053400D01*
X115350400Y-64053400D02*
X127150400Y-64053400D01*
X127150400Y-64053400D02*
X127150400Y-65303400D01*
X127150400Y-65303400D02*
X127650400Y-65303400D01*
X114850400Y-66153400D02*
X115850400Y-66153400D01*
X115850400Y-66153400D02*
X115850400Y-67653400D01*
X127650400Y-66153400D02*
X126650400Y-66153400D01*
X126650400Y-66153400D02*
X126650400Y-67653400D01*
X114550400Y-65453400D02*
X114550400Y-67953400D01*
X114550400Y-67953400D02*
X117050400Y-67953400D01*
G04 #@! TO.C,J3*
X100220000Y-63553400D02*
X100220000Y-67653400D01*
X100220000Y-67653400D02*
X113020000Y-67653400D01*
X113020000Y-67653400D02*
X113020000Y-63553400D01*
X113020000Y-63553400D02*
X100220000Y-63553400D01*
X100220000Y-65303400D02*
X100720000Y-65303400D01*
X100720000Y-65303400D02*
X100720000Y-64053400D01*
X100720000Y-64053400D02*
X112520000Y-64053400D01*
X112520000Y-64053400D02*
X112520000Y-65303400D01*
X112520000Y-65303400D02*
X113020000Y-65303400D01*
X100220000Y-66153400D02*
X101220000Y-66153400D01*
X101220000Y-66153400D02*
X101220000Y-67653400D01*
X113020000Y-66153400D02*
X112020000Y-66153400D01*
X112020000Y-66153400D02*
X112020000Y-67653400D01*
X99920000Y-65453400D02*
X99920000Y-67953400D01*
X99920000Y-67953400D02*
X102420000Y-67953400D01*
G04 #@! TO.C,P11*
X197418000Y-99762000D02*
X197418000Y-101092000D01*
X196088000Y-99762000D02*
X197418000Y-99762000D01*
X194818000Y-102422000D02*
X194818000Y-99762000D01*
X176978000Y-102422000D02*
X194818000Y-102422000D01*
X176978000Y-99762000D02*
X176978000Y-102422000D01*
X194818000Y-99762000D02*
X176978000Y-99762000D01*
G04 #@! TO.C,P13*
X160486400Y-108398000D02*
X160486400Y-109728000D01*
X159156400Y-108398000D02*
X160486400Y-108398000D01*
X157886400Y-108398000D02*
X157886400Y-111058000D01*
X157886400Y-111058000D02*
X140046400Y-111058000D01*
X157886400Y-108398000D02*
X140046400Y-108398000D01*
X140046400Y-108398000D02*
X140046400Y-111058000D01*
G04 #@! TO.C,J1*
X100220000Y-55577800D02*
X100220000Y-59677800D01*
X100220000Y-59677800D02*
X113020000Y-59677800D01*
X113020000Y-59677800D02*
X113020000Y-55577800D01*
X113020000Y-55577800D02*
X100220000Y-55577800D01*
X100220000Y-57327800D02*
X100720000Y-57327800D01*
X100720000Y-57327800D02*
X100720000Y-56077800D01*
X100720000Y-56077800D02*
X112520000Y-56077800D01*
X112520000Y-56077800D02*
X112520000Y-57327800D01*
X112520000Y-57327800D02*
X113020000Y-57327800D01*
X100220000Y-58177800D02*
X101220000Y-58177800D01*
X101220000Y-58177800D02*
X101220000Y-59677800D01*
X113020000Y-58177800D02*
X112020000Y-58177800D01*
X112020000Y-58177800D02*
X112020000Y-59677800D01*
X99920000Y-57477800D02*
X99920000Y-59977800D01*
X99920000Y-59977800D02*
X102420000Y-59977800D01*
G04 #@! TO.C,J2*
X114550400Y-59977800D02*
X117050400Y-59977800D01*
X114550400Y-57477800D02*
X114550400Y-59977800D01*
X126650400Y-58177800D02*
X126650400Y-59677800D01*
X127650400Y-58177800D02*
X126650400Y-58177800D01*
X115850400Y-58177800D02*
X115850400Y-59677800D01*
X114850400Y-58177800D02*
X115850400Y-58177800D01*
X127150400Y-57327800D02*
X127650400Y-57327800D01*
X127150400Y-56077800D02*
X127150400Y-57327800D01*
X115350400Y-56077800D02*
X127150400Y-56077800D01*
X115350400Y-57327800D02*
X115350400Y-56077800D01*
X114850400Y-57327800D02*
X115350400Y-57327800D01*
X127650400Y-55577800D02*
X114850400Y-55577800D01*
X127650400Y-59677800D02*
X127650400Y-55577800D01*
X114850400Y-59677800D02*
X127650400Y-59677800D01*
X114850400Y-55577800D02*
X114850400Y-59677800D01*
D10*
G04 #@! TO.C,D36*
X197104000Y-54514000D02*
X197454000Y-54864000D01*
X197104000Y-55214000D02*
X197104000Y-54514000D01*
X197454000Y-54864000D02*
X197104000Y-55214000D01*
X197104000Y-54864000D02*
X196754000Y-54864000D01*
X197454000Y-55214000D02*
X197454000Y-54514000D01*
X197204000Y-54964000D02*
X197354000Y-54814000D01*
X197204000Y-54714000D02*
X197204000Y-54964000D01*
X198704000Y-55614000D02*
X196004000Y-55614000D01*
X198704000Y-54114000D02*
X196004000Y-54114000D01*
G04 #@! TO.C,P3*
X96161904Y-45552380D02*
X96161904Y-44552380D01*
X96542857Y-44552380D01*
X96638095Y-44600000D01*
X96685714Y-44647619D01*
X96733333Y-44742857D01*
X96733333Y-44885714D01*
X96685714Y-44980952D01*
X96638095Y-45028571D01*
X96542857Y-45076190D01*
X96161904Y-45076190D01*
X97066666Y-44552380D02*
X97685714Y-44552380D01*
X97352380Y-44933333D01*
X97495238Y-44933333D01*
X97590476Y-44980952D01*
X97638095Y-45028571D01*
X97685714Y-45123809D01*
X97685714Y-45361904D01*
X97638095Y-45457142D01*
X97590476Y-45504761D01*
X97495238Y-45552380D01*
X97209523Y-45552380D01*
X97114285Y-45504761D01*
X97066666Y-45457142D01*
X129003904Y-51883380D02*
X129003904Y-50883380D01*
X129384857Y-50883380D01*
X129480095Y-50931000D01*
X129527714Y-50978619D01*
X129575333Y-51073857D01*
X129575333Y-51216714D01*
X129527714Y-51311952D01*
X129480095Y-51359571D01*
X129384857Y-51407190D01*
X129003904Y-51407190D01*
X130146761Y-51883380D02*
X130051523Y-51835761D01*
X130003904Y-51788142D01*
X129956285Y-51692904D01*
X129956285Y-51407190D01*
X130003904Y-51311952D01*
X130051523Y-51264333D01*
X130146761Y-51216714D01*
X130289619Y-51216714D01*
X130384857Y-51264333D01*
X130432476Y-51311952D01*
X130480095Y-51407190D01*
X130480095Y-51692904D01*
X130432476Y-51788142D01*
X130384857Y-51835761D01*
X130289619Y-51883380D01*
X130146761Y-51883380D01*
X130908666Y-51883380D02*
X130908666Y-51216714D01*
X130908666Y-51407190D02*
X130956285Y-51311952D01*
X131003904Y-51264333D01*
X131099142Y-51216714D01*
X131194380Y-51216714D01*
X131384857Y-51216714D02*
X131765809Y-51216714D01*
X131527714Y-50883380D02*
X131527714Y-51740523D01*
X131575333Y-51835761D01*
X131670571Y-51883380D01*
X131765809Y-51883380D01*
X132051523Y-51597666D02*
X132527714Y-51597666D01*
X131956285Y-51883380D02*
X132289619Y-50883380D01*
X132622952Y-51883380D01*
G04 #@! TO.C,P5*
X204661904Y-45552380D02*
X204661904Y-44552380D01*
X205042857Y-44552380D01*
X205138095Y-44600000D01*
X205185714Y-44647619D01*
X205233333Y-44742857D01*
X205233333Y-44885714D01*
X205185714Y-44980952D01*
X205138095Y-45028571D01*
X205042857Y-45076190D01*
X204661904Y-45076190D01*
X206138095Y-44552380D02*
X205661904Y-44552380D01*
X205614285Y-45028571D01*
X205661904Y-44980952D01*
X205757142Y-44933333D01*
X205995238Y-44933333D01*
X206090476Y-44980952D01*
X206138095Y-45028571D01*
X206185714Y-45123809D01*
X206185714Y-45361904D01*
X206138095Y-45457142D01*
X206090476Y-45504761D01*
X205995238Y-45552380D01*
X205757142Y-45552380D01*
X205661904Y-45504761D01*
X205614285Y-45457142D01*
G04 #@! TO.C,D37*
D13*
X203620000Y-55180666D02*
X203620000Y-54480666D01*
X203786666Y-54480666D01*
X203886666Y-54514000D01*
X203953333Y-54580666D01*
X203986666Y-54647333D01*
X204020000Y-54780666D01*
X204020000Y-54880666D01*
X203986666Y-55014000D01*
X203953333Y-55080666D01*
X203886666Y-55147333D01*
X203786666Y-55180666D01*
X203620000Y-55180666D01*
X204253333Y-54480666D02*
X204686666Y-54480666D01*
X204453333Y-54747333D01*
X204553333Y-54747333D01*
X204620000Y-54780666D01*
X204653333Y-54814000D01*
X204686666Y-54880666D01*
X204686666Y-55047333D01*
X204653333Y-55114000D01*
X204620000Y-55147333D01*
X204553333Y-55180666D01*
X204353333Y-55180666D01*
X204286666Y-55147333D01*
X204253333Y-55114000D01*
X204920000Y-54480666D02*
X205386666Y-54480666D01*
X205086666Y-55180666D01*
X200888666Y-52730666D02*
X201288666Y-52730666D01*
X201088666Y-53430666D02*
X201088666Y-52730666D01*
X201455333Y-52730666D02*
X201922000Y-53430666D01*
X201922000Y-52730666D02*
X201455333Y-53430666D01*
G04 #@! TO.C,P6*
D10*
X166393904Y-116752380D02*
X166393904Y-115752380D01*
X166774857Y-115752380D01*
X166870095Y-115800000D01*
X166917714Y-115847619D01*
X166965333Y-115942857D01*
X166965333Y-116085714D01*
X166917714Y-116180952D01*
X166870095Y-116228571D01*
X166774857Y-116276190D01*
X166393904Y-116276190D01*
X167822476Y-115752380D02*
X167632000Y-115752380D01*
X167536761Y-115800000D01*
X167489142Y-115847619D01*
X167393904Y-115990476D01*
X167346285Y-116180952D01*
X167346285Y-116561904D01*
X167393904Y-116657142D01*
X167441523Y-116704761D01*
X167536761Y-116752380D01*
X167727238Y-116752380D01*
X167822476Y-116704761D01*
X167870095Y-116657142D01*
X167917714Y-116561904D01*
X167917714Y-116323809D01*
X167870095Y-116228571D01*
X167822476Y-116180952D01*
X167727238Y-116133333D01*
X167536761Y-116133333D01*
X167441523Y-116180952D01*
X167393904Y-116228571D01*
X167346285Y-116323809D01*
G04 #@! TO.C,C9*
D13*
X163238666Y-97714571D02*
X163214857Y-97738380D01*
X163143428Y-97762190D01*
X163095809Y-97762190D01*
X163024380Y-97738380D01*
X162976761Y-97690761D01*
X162952952Y-97643142D01*
X162929142Y-97547904D01*
X162929142Y-97476476D01*
X162952952Y-97381238D01*
X162976761Y-97333619D01*
X163024380Y-97286000D01*
X163095809Y-97262190D01*
X163143428Y-97262190D01*
X163214857Y-97286000D01*
X163238666Y-97309809D01*
X163476761Y-97762190D02*
X163572000Y-97762190D01*
X163619619Y-97738380D01*
X163643428Y-97714571D01*
X163691047Y-97643142D01*
X163714857Y-97547904D01*
X163714857Y-97357428D01*
X163691047Y-97309809D01*
X163667238Y-97286000D01*
X163619619Y-97262190D01*
X163524380Y-97262190D01*
X163476761Y-97286000D01*
X163452952Y-97309809D01*
X163429142Y-97357428D01*
X163429142Y-97476476D01*
X163452952Y-97524095D01*
X163476761Y-97547904D01*
X163524380Y-97571714D01*
X163619619Y-97571714D01*
X163667238Y-97547904D01*
X163691047Y-97524095D01*
X163714857Y-97476476D01*
G04 #@! TO.C,C7*
X163492666Y-102921571D02*
X163468857Y-102945380D01*
X163397428Y-102969190D01*
X163349809Y-102969190D01*
X163278380Y-102945380D01*
X163230761Y-102897761D01*
X163206952Y-102850142D01*
X163183142Y-102754904D01*
X163183142Y-102683476D01*
X163206952Y-102588238D01*
X163230761Y-102540619D01*
X163278380Y-102493000D01*
X163349809Y-102469190D01*
X163397428Y-102469190D01*
X163468857Y-102493000D01*
X163492666Y-102516809D01*
X163659333Y-102469190D02*
X163992666Y-102469190D01*
X163778380Y-102969190D01*
G04 #@! TO.C,Y1*
X171211904Y-94603095D02*
X171211904Y-94841190D01*
X171045238Y-94341190D02*
X171211904Y-94603095D01*
X171378571Y-94341190D01*
X171807142Y-94841190D02*
X171521428Y-94841190D01*
X171664285Y-94841190D02*
X171664285Y-94341190D01*
X171616666Y-94412619D01*
X171569047Y-94460238D01*
X171521428Y-94484047D01*
G04 #@! TO.C,powerIn1*
D10*
X106785714Y-108495238D02*
X107785714Y-108495238D01*
X106833333Y-108495238D02*
X106785714Y-108400000D01*
X106785714Y-108209523D01*
X106833333Y-108114285D01*
X106880952Y-108066666D01*
X106976190Y-108019047D01*
X107261904Y-108019047D01*
X107357142Y-108066666D01*
X107404761Y-108114285D01*
X107452380Y-108209523D01*
X107452380Y-108400000D01*
X107404761Y-108495238D01*
X107452380Y-107447619D02*
X107404761Y-107542857D01*
X107357142Y-107590476D01*
X107261904Y-107638095D01*
X106976190Y-107638095D01*
X106880952Y-107590476D01*
X106833333Y-107542857D01*
X106785714Y-107447619D01*
X106785714Y-107304761D01*
X106833333Y-107209523D01*
X106880952Y-107161904D01*
X106976190Y-107114285D01*
X107261904Y-107114285D01*
X107357142Y-107161904D01*
X107404761Y-107209523D01*
X107452380Y-107304761D01*
X107452380Y-107447619D01*
X106785714Y-106780952D02*
X107452380Y-106590476D01*
X106976190Y-106400000D01*
X107452380Y-106209523D01*
X106785714Y-106019047D01*
X107404761Y-105257142D02*
X107452380Y-105352380D01*
X107452380Y-105542857D01*
X107404761Y-105638095D01*
X107309523Y-105685714D01*
X106928571Y-105685714D01*
X106833333Y-105638095D01*
X106785714Y-105542857D01*
X106785714Y-105352380D01*
X106833333Y-105257142D01*
X106928571Y-105209523D01*
X107023809Y-105209523D01*
X107119047Y-105685714D01*
X107452380Y-104780952D02*
X106785714Y-104780952D01*
X106976190Y-104780952D02*
X106880952Y-104733333D01*
X106833333Y-104685714D01*
X106785714Y-104590476D01*
X106785714Y-104495238D01*
X107452380Y-104161904D02*
X106452380Y-104161904D01*
X106785714Y-103685714D02*
X107452380Y-103685714D01*
X106880952Y-103685714D02*
X106833333Y-103638095D01*
X106785714Y-103542857D01*
X106785714Y-103400000D01*
X106833333Y-103304761D01*
X106928571Y-103257142D01*
X107452380Y-103257142D01*
X107452380Y-102257142D02*
X107452380Y-102828571D01*
X107452380Y-102542857D02*
X106452380Y-102542857D01*
X106595238Y-102638095D01*
X106690476Y-102733333D01*
X106738095Y-102828571D01*
G04 #@! TO.C,C2*
X111482142Y-84256666D02*
X111529761Y-84304285D01*
X111577380Y-84447142D01*
X111577380Y-84542380D01*
X111529761Y-84685238D01*
X111434523Y-84780476D01*
X111339285Y-84828095D01*
X111148809Y-84875714D01*
X111005952Y-84875714D01*
X110815476Y-84828095D01*
X110720238Y-84780476D01*
X110625000Y-84685238D01*
X110577380Y-84542380D01*
X110577380Y-84447142D01*
X110625000Y-84304285D01*
X110672619Y-84256666D01*
X110672619Y-83875714D02*
X110625000Y-83828095D01*
X110577380Y-83732857D01*
X110577380Y-83494761D01*
X110625000Y-83399523D01*
X110672619Y-83351904D01*
X110767857Y-83304285D01*
X110863095Y-83304285D01*
X111005952Y-83351904D01*
X111577380Y-83923333D01*
X111577380Y-83304285D01*
G04 #@! TO.C,D1*
X101094340Y-82335595D02*
X100094340Y-82335595D01*
X100094340Y-82097500D01*
X100141960Y-81954642D01*
X100237198Y-81859404D01*
X100332436Y-81811785D01*
X100522912Y-81764166D01*
X100665769Y-81764166D01*
X100856245Y-81811785D01*
X100951483Y-81859404D01*
X101046721Y-81954642D01*
X101094340Y-82097500D01*
X101094340Y-82335595D01*
X101094340Y-80811785D02*
X101094340Y-81383214D01*
X101094340Y-81097500D02*
X100094340Y-81097500D01*
X100237198Y-81192738D01*
X100332436Y-81287976D01*
X100380055Y-81383214D01*
G04 #@! TO.C,CON2*
X198048714Y-71223142D02*
X198001095Y-71270761D01*
X197858238Y-71318380D01*
X197763000Y-71318380D01*
X197620142Y-71270761D01*
X197524904Y-71175523D01*
X197477285Y-71080285D01*
X197429666Y-70889809D01*
X197429666Y-70746952D01*
X197477285Y-70556476D01*
X197524904Y-70461238D01*
X197620142Y-70366000D01*
X197763000Y-70318380D01*
X197858238Y-70318380D01*
X198001095Y-70366000D01*
X198048714Y-70413619D01*
X198667761Y-70318380D02*
X198858238Y-70318380D01*
X198953476Y-70366000D01*
X199048714Y-70461238D01*
X199096333Y-70651714D01*
X199096333Y-70985047D01*
X199048714Y-71175523D01*
X198953476Y-71270761D01*
X198858238Y-71318380D01*
X198667761Y-71318380D01*
X198572523Y-71270761D01*
X198477285Y-71175523D01*
X198429666Y-70985047D01*
X198429666Y-70651714D01*
X198477285Y-70461238D01*
X198572523Y-70366000D01*
X198667761Y-70318380D01*
X199524904Y-71318380D02*
X199524904Y-70318380D01*
X200096333Y-71318380D01*
X200096333Y-70318380D01*
X200524904Y-70413619D02*
X200572523Y-70366000D01*
X200667761Y-70318380D01*
X200905857Y-70318380D01*
X201001095Y-70366000D01*
X201048714Y-70413619D01*
X201096333Y-70508857D01*
X201096333Y-70604095D01*
X201048714Y-70746952D01*
X200477285Y-71318380D01*
X201096333Y-71318380D01*
G04 #@! TO.C,P14*
X168810380Y-60142285D02*
X167810380Y-60142285D01*
X167810380Y-59761333D01*
X167858000Y-59666095D01*
X167905619Y-59618476D01*
X168000857Y-59570857D01*
X168143714Y-59570857D01*
X168238952Y-59618476D01*
X168286571Y-59666095D01*
X168334190Y-59761333D01*
X168334190Y-60142285D01*
X168810380Y-58618476D02*
X168810380Y-59189904D01*
X168810380Y-58904190D02*
X167810380Y-58904190D01*
X167953238Y-58999428D01*
X168048476Y-59094666D01*
X168096095Y-59189904D01*
X168143714Y-57761333D02*
X168810380Y-57761333D01*
X167762761Y-57999428D02*
X168477047Y-58237523D01*
X168477047Y-57618476D01*
G04 #@! TO.C,P15*
X199424715Y-110352380D02*
X199424715Y-109352380D01*
X199805667Y-109352380D01*
X199900905Y-109400000D01*
X199948524Y-109447619D01*
X199996143Y-109542857D01*
X199996143Y-109685714D01*
X199948524Y-109780952D01*
X199900905Y-109828571D01*
X199805667Y-109876190D01*
X199424715Y-109876190D01*
X200948524Y-110352380D02*
X200377096Y-110352380D01*
X200662810Y-110352380D02*
X200662810Y-109352380D01*
X200567572Y-109495238D01*
X200472334Y-109590476D01*
X200377096Y-109638095D01*
X201853286Y-109352380D02*
X201377096Y-109352380D01*
X201329477Y-109828571D01*
X201377096Y-109780952D01*
X201472334Y-109733333D01*
X201710429Y-109733333D01*
X201805667Y-109780952D01*
X201853286Y-109828571D01*
X201900905Y-109923809D01*
X201900905Y-110161904D01*
X201853286Y-110257142D01*
X201805667Y-110304761D01*
X201710429Y-110352380D01*
X201472334Y-110352380D01*
X201377096Y-110304761D01*
X201329477Y-110257142D01*
X197877096Y-107452380D02*
X197877096Y-106452380D01*
X198258048Y-106452380D01*
X198353286Y-106500000D01*
X198400905Y-106547619D01*
X198448524Y-106642857D01*
X198448524Y-106785714D01*
X198400905Y-106880952D01*
X198353286Y-106928571D01*
X198258048Y-106976190D01*
X197877096Y-106976190D01*
X199019953Y-107452380D02*
X198924715Y-107404761D01*
X198877096Y-107357142D01*
X198829477Y-107261904D01*
X198829477Y-106976190D01*
X198877096Y-106880952D01*
X198924715Y-106833333D01*
X199019953Y-106785714D01*
X199162810Y-106785714D01*
X199258048Y-106833333D01*
X199305667Y-106880952D01*
X199353286Y-106976190D01*
X199353286Y-107261904D01*
X199305667Y-107357142D01*
X199258048Y-107404761D01*
X199162810Y-107452380D01*
X199019953Y-107452380D01*
X199781858Y-107452380D02*
X199781858Y-106785714D01*
X199781858Y-106976190D02*
X199829477Y-106880952D01*
X199877096Y-106833333D01*
X199972334Y-106785714D01*
X200067572Y-106785714D01*
X200258048Y-106785714D02*
X200639001Y-106785714D01*
X200400905Y-106452380D02*
X200400905Y-107309523D01*
X200448524Y-107404761D01*
X200543762Y-107452380D01*
X200639001Y-107452380D01*
X200972334Y-107452380D02*
X200972334Y-106452380D01*
X201210429Y-106452380D01*
X201353286Y-106500000D01*
X201448524Y-106595238D01*
X201496143Y-106690476D01*
X201543762Y-106880952D01*
X201543762Y-107023809D01*
X201496143Y-107214285D01*
X201448524Y-107309523D01*
X201353286Y-107404761D01*
X201210429Y-107452380D01*
X200972334Y-107452380D01*
X201734239Y-107547619D02*
X202496143Y-107547619D01*
X202734239Y-107452380D02*
X202734239Y-106452380D01*
X203067572Y-107166666D01*
X203400905Y-106452380D01*
X203400905Y-107452380D01*
G04 #@! TO.C,P9*
X132234380Y-67794095D02*
X131234380Y-67794095D01*
X131234380Y-67413142D01*
X131282000Y-67317904D01*
X131329619Y-67270285D01*
X131424857Y-67222666D01*
X131567714Y-67222666D01*
X131662952Y-67270285D01*
X131710571Y-67317904D01*
X131758190Y-67413142D01*
X131758190Y-67794095D01*
X132234380Y-66746476D02*
X132234380Y-66556000D01*
X132186761Y-66460761D01*
X132139142Y-66413142D01*
X131996285Y-66317904D01*
X131805809Y-66270285D01*
X131424857Y-66270285D01*
X131329619Y-66317904D01*
X131282000Y-66365523D01*
X131234380Y-66460761D01*
X131234380Y-66651238D01*
X131282000Y-66746476D01*
X131329619Y-66794095D01*
X131424857Y-66841714D01*
X131662952Y-66841714D01*
X131758190Y-66794095D01*
X131805809Y-66746476D01*
X131853428Y-66651238D01*
X131853428Y-66460761D01*
X131805809Y-66365523D01*
X131758190Y-66317904D01*
X131662952Y-66270285D01*
G04 #@! TO.C,P8*
X158361904Y-104052380D02*
X158361904Y-103052380D01*
X158742857Y-103052380D01*
X158838095Y-103100000D01*
X158885714Y-103147619D01*
X158933333Y-103242857D01*
X158933333Y-103385714D01*
X158885714Y-103480952D01*
X158838095Y-103528571D01*
X158742857Y-103576190D01*
X158361904Y-103576190D01*
X159504761Y-103480952D02*
X159409523Y-103433333D01*
X159361904Y-103385714D01*
X159314285Y-103290476D01*
X159314285Y-103242857D01*
X159361904Y-103147619D01*
X159409523Y-103100000D01*
X159504761Y-103052380D01*
X159695238Y-103052380D01*
X159790476Y-103100000D01*
X159838095Y-103147619D01*
X159885714Y-103242857D01*
X159885714Y-103290476D01*
X159838095Y-103385714D01*
X159790476Y-103433333D01*
X159695238Y-103480952D01*
X159504761Y-103480952D01*
X159409523Y-103528571D01*
X159361904Y-103576190D01*
X159314285Y-103671428D01*
X159314285Y-103861904D01*
X159361904Y-103957142D01*
X159409523Y-104004761D01*
X159504761Y-104052380D01*
X159695238Y-104052380D01*
X159790476Y-104004761D01*
X159838095Y-103957142D01*
X159885714Y-103861904D01*
X159885714Y-103671428D01*
X159838095Y-103576190D01*
X159790476Y-103528571D01*
X159695238Y-103480952D01*
X156928570Y-98752380D02*
X156928570Y-97752380D01*
X157309523Y-97752380D01*
X157404761Y-97800000D01*
X157452380Y-97847619D01*
X157499999Y-97942857D01*
X157499999Y-98085714D01*
X157452380Y-98180952D01*
X157404761Y-98228571D01*
X157309523Y-98276190D01*
X156928570Y-98276190D01*
X158071427Y-98752380D02*
X157976189Y-98704761D01*
X157928570Y-98657142D01*
X157880951Y-98561904D01*
X157880951Y-98276190D01*
X157928570Y-98180952D01*
X157976189Y-98133333D01*
X158071427Y-98085714D01*
X158214285Y-98085714D01*
X158309523Y-98133333D01*
X158357142Y-98180952D01*
X158404761Y-98276190D01*
X158404761Y-98561904D01*
X158357142Y-98657142D01*
X158309523Y-98704761D01*
X158214285Y-98752380D01*
X158071427Y-98752380D01*
X158833332Y-98752380D02*
X158833332Y-98085714D01*
X158833332Y-98276190D02*
X158880951Y-98180952D01*
X158928570Y-98133333D01*
X159023808Y-98085714D01*
X159119047Y-98085714D01*
X159309523Y-98085714D02*
X159690475Y-98085714D01*
X159452380Y-97752380D02*
X159452380Y-98609523D01*
X159499999Y-98704761D01*
X159595237Y-98752380D01*
X159690475Y-98752380D01*
X160357142Y-98228571D02*
X160499999Y-98276190D01*
X160547618Y-98323809D01*
X160595237Y-98419047D01*
X160595237Y-98561904D01*
X160547618Y-98657142D01*
X160499999Y-98704761D01*
X160404761Y-98752380D01*
X160023808Y-98752380D01*
X160023808Y-97752380D01*
X160357142Y-97752380D01*
X160452380Y-97800000D01*
X160499999Y-97847619D01*
X160547618Y-97942857D01*
X160547618Y-98038095D01*
X160499999Y-98133333D01*
X160452380Y-98180952D01*
X160357142Y-98228571D01*
X160023808Y-98228571D01*
X160785713Y-98847619D02*
X161547618Y-98847619D01*
X162119047Y-98228571D02*
X162261904Y-98276190D01*
X162309523Y-98323809D01*
X162357142Y-98419047D01*
X162357142Y-98561904D01*
X162309523Y-98657142D01*
X162261904Y-98704761D01*
X162166666Y-98752380D01*
X161785713Y-98752380D01*
X161785713Y-97752380D01*
X162119047Y-97752380D01*
X162214285Y-97800000D01*
X162261904Y-97847619D01*
X162309523Y-97942857D01*
X162309523Y-98038095D01*
X162261904Y-98133333D01*
X162214285Y-98180952D01*
X162119047Y-98228571D01*
X161785713Y-98228571D01*
G04 #@! TO.C,P12*
X132234380Y-59634285D02*
X131234380Y-59634285D01*
X131234380Y-59253333D01*
X131282000Y-59158095D01*
X131329619Y-59110476D01*
X131424857Y-59062857D01*
X131567714Y-59062857D01*
X131662952Y-59110476D01*
X131710571Y-59158095D01*
X131758190Y-59253333D01*
X131758190Y-59634285D01*
X132234380Y-58110476D02*
X132234380Y-58681904D01*
X132234380Y-58396190D02*
X131234380Y-58396190D01*
X131377238Y-58491428D01*
X131472476Y-58586666D01*
X131520095Y-58681904D01*
X131329619Y-57729523D02*
X131282000Y-57681904D01*
X131234380Y-57586666D01*
X131234380Y-57348571D01*
X131282000Y-57253333D01*
X131329619Y-57205714D01*
X131424857Y-57158095D01*
X131520095Y-57158095D01*
X131662952Y-57205714D01*
X132234380Y-57777142D01*
X132234380Y-57158095D01*
G04 #@! TO.C,U1*
X108736380Y-82041904D02*
X109545904Y-82041904D01*
X109641142Y-81994285D01*
X109688761Y-81946666D01*
X109736380Y-81851428D01*
X109736380Y-81660952D01*
X109688761Y-81565714D01*
X109641142Y-81518095D01*
X109545904Y-81470476D01*
X108736380Y-81470476D01*
X109736380Y-80470476D02*
X109736380Y-81041904D01*
X109736380Y-80756190D02*
X108736380Y-80756190D01*
X108879238Y-80851428D01*
X108974476Y-80946666D01*
X109022095Y-81041904D01*
G04 #@! TO.C,P7*
X200661904Y-69652380D02*
X200661904Y-68652380D01*
X201042857Y-68652380D01*
X201138095Y-68700000D01*
X201185714Y-68747619D01*
X201233333Y-68842857D01*
X201233333Y-68985714D01*
X201185714Y-69080952D01*
X201138095Y-69128571D01*
X201042857Y-69176190D01*
X200661904Y-69176190D01*
X201566666Y-68652380D02*
X202233333Y-68652380D01*
X201804761Y-69652380D01*
G04 #@! TO.C,D3*
X128293904Y-104488380D02*
X128293904Y-103488380D01*
X128532000Y-103488380D01*
X128674857Y-103536000D01*
X128770095Y-103631238D01*
X128817714Y-103726476D01*
X128865333Y-103916952D01*
X128865333Y-104059809D01*
X128817714Y-104250285D01*
X128770095Y-104345523D01*
X128674857Y-104440761D01*
X128532000Y-104488380D01*
X128293904Y-104488380D01*
X129198666Y-103488380D02*
X129817714Y-103488380D01*
X129484380Y-103869333D01*
X129627238Y-103869333D01*
X129722476Y-103916952D01*
X129770095Y-103964571D01*
X129817714Y-104059809D01*
X129817714Y-104297904D01*
X129770095Y-104393142D01*
X129722476Y-104440761D01*
X129627238Y-104488380D01*
X129341523Y-104488380D01*
X129246285Y-104440761D01*
X129198666Y-104393142D01*
X126270095Y-111808380D02*
X126270095Y-110808380D01*
X126603428Y-111522666D01*
X126936761Y-110808380D01*
X126936761Y-111808380D01*
X127746285Y-111284571D02*
X127889142Y-111332190D01*
X127936761Y-111379809D01*
X127984380Y-111475047D01*
X127984380Y-111617904D01*
X127936761Y-111713142D01*
X127889142Y-111760761D01*
X127793904Y-111808380D01*
X127412952Y-111808380D01*
X127412952Y-110808380D01*
X127746285Y-110808380D01*
X127841523Y-110856000D01*
X127889142Y-110903619D01*
X127936761Y-110998857D01*
X127936761Y-111094095D01*
X127889142Y-111189333D01*
X127841523Y-111236952D01*
X127746285Y-111284571D01*
X127412952Y-111284571D01*
X128984380Y-111808380D02*
X128651047Y-111332190D01*
X128412952Y-111808380D02*
X128412952Y-110808380D01*
X128793904Y-110808380D01*
X128889142Y-110856000D01*
X128936761Y-110903619D01*
X128984380Y-110998857D01*
X128984380Y-111141714D01*
X128936761Y-111236952D01*
X128889142Y-111284571D01*
X128793904Y-111332190D01*
X128412952Y-111332190D01*
X129317714Y-110808380D02*
X129936761Y-110808380D01*
X129603428Y-111189333D01*
X129746285Y-111189333D01*
X129841523Y-111236952D01*
X129889142Y-111284571D01*
X129936761Y-111379809D01*
X129936761Y-111617904D01*
X129889142Y-111713142D01*
X129841523Y-111760761D01*
X129746285Y-111808380D01*
X129460571Y-111808380D01*
X129365333Y-111760761D01*
X129317714Y-111713142D01*
X130793904Y-111141714D02*
X130793904Y-111808380D01*
X130555809Y-110760761D02*
X130317714Y-111475047D01*
X130936761Y-111475047D01*
X131508190Y-110808380D02*
X131603428Y-110808380D01*
X131698666Y-110856000D01*
X131746285Y-110903619D01*
X131793904Y-110998857D01*
X131841523Y-111189333D01*
X131841523Y-111427428D01*
X131793904Y-111617904D01*
X131746285Y-111713142D01*
X131698666Y-111760761D01*
X131603428Y-111808380D01*
X131508190Y-111808380D01*
X131412952Y-111760761D01*
X131365333Y-111713142D01*
X131317714Y-111617904D01*
X131270095Y-111427428D01*
X131270095Y-111189333D01*
X131317714Y-110998857D01*
X131365333Y-110903619D01*
X131412952Y-110856000D01*
X131508190Y-110808380D01*
G04 #@! TO.C,P10*
X168810380Y-68270285D02*
X167810380Y-68270285D01*
X167810380Y-67889333D01*
X167858000Y-67794095D01*
X167905619Y-67746476D01*
X168000857Y-67698857D01*
X168143714Y-67698857D01*
X168238952Y-67746476D01*
X168286571Y-67794095D01*
X168334190Y-67889333D01*
X168334190Y-68270285D01*
X168810380Y-66746476D02*
X168810380Y-67317904D01*
X168810380Y-67032190D02*
X167810380Y-67032190D01*
X167953238Y-67127428D01*
X168048476Y-67222666D01*
X168096095Y-67317904D01*
X167810380Y-66127428D02*
X167810380Y-66032190D01*
X167858000Y-65936952D01*
X167905619Y-65889333D01*
X168000857Y-65841714D01*
X168191333Y-65794095D01*
X168429428Y-65794095D01*
X168619904Y-65841714D01*
X168715142Y-65889333D01*
X168762761Y-65936952D01*
X168810380Y-66032190D01*
X168810380Y-66127428D01*
X168762761Y-66222666D01*
X168715142Y-66270285D01*
X168619904Y-66317904D01*
X168429428Y-66365523D01*
X168191333Y-66365523D01*
X168000857Y-66317904D01*
X167905619Y-66270285D01*
X167858000Y-66222666D01*
X167810380Y-66127428D01*
G04 #@! TO.C,L1*
X137866380Y-93130666D02*
X137866380Y-93606857D01*
X136866380Y-93606857D01*
X137866380Y-92273523D02*
X137866380Y-92844952D01*
X137866380Y-92559238D02*
X136866380Y-92559238D01*
X137009238Y-92654476D01*
X137104476Y-92749714D01*
X137152095Y-92844952D01*
X119976380Y-96416380D02*
X118976380Y-96416380D01*
X119976380Y-95940190D02*
X118976380Y-95940190D01*
X119976380Y-95368761D01*
X118976380Y-95368761D01*
X119976380Y-94892571D02*
X118976380Y-94892571D01*
X118976380Y-94654476D01*
X119024000Y-94511619D01*
X119119238Y-94416380D01*
X119214476Y-94368761D01*
X119404952Y-94321142D01*
X119547809Y-94321142D01*
X119738285Y-94368761D01*
X119833523Y-94416380D01*
X119928761Y-94511619D01*
X119976380Y-94654476D01*
X119976380Y-94892571D01*
X118976380Y-93892571D02*
X119785904Y-93892571D01*
X119881142Y-93844952D01*
X119928761Y-93797333D01*
X119976380Y-93702095D01*
X119976380Y-93511619D01*
X119928761Y-93416380D01*
X119881142Y-93368761D01*
X119785904Y-93321142D01*
X118976380Y-93321142D01*
X119881142Y-92273523D02*
X119928761Y-92321142D01*
X119976380Y-92464000D01*
X119976380Y-92559238D01*
X119928761Y-92702095D01*
X119833523Y-92797333D01*
X119738285Y-92844952D01*
X119547809Y-92892571D01*
X119404952Y-92892571D01*
X119214476Y-92844952D01*
X119119238Y-92797333D01*
X119024000Y-92702095D01*
X118976380Y-92559238D01*
X118976380Y-92464000D01*
X119024000Y-92321142D01*
X119071619Y-92273523D01*
X118976380Y-91987809D02*
X118976380Y-91416380D01*
X119976380Y-91702095D02*
X118976380Y-91702095D01*
X118976380Y-90892571D02*
X118976380Y-90702095D01*
X119024000Y-90606857D01*
X119119238Y-90511619D01*
X119309714Y-90464000D01*
X119643047Y-90464000D01*
X119833523Y-90511619D01*
X119928761Y-90606857D01*
X119976380Y-90702095D01*
X119976380Y-90892571D01*
X119928761Y-90987809D01*
X119833523Y-91083047D01*
X119643047Y-91130666D01*
X119309714Y-91130666D01*
X119119238Y-91083047D01*
X119024000Y-90987809D01*
X118976380Y-90892571D01*
X119976380Y-89464000D02*
X119500190Y-89797333D01*
X119976380Y-90035428D02*
X118976380Y-90035428D01*
X118976380Y-89654476D01*
X119024000Y-89559238D01*
X119071619Y-89511619D01*
X119166857Y-89464000D01*
X119309714Y-89464000D01*
X119404952Y-89511619D01*
X119452571Y-89559238D01*
X119500190Y-89654476D01*
X119500190Y-90035428D01*
G04 #@! TO.C,Cout1*
X106235142Y-95297142D02*
X106282761Y-95344761D01*
X106330380Y-95487619D01*
X106330380Y-95582857D01*
X106282761Y-95725714D01*
X106187523Y-95820952D01*
X106092285Y-95868571D01*
X105901809Y-95916190D01*
X105758952Y-95916190D01*
X105568476Y-95868571D01*
X105473238Y-95820952D01*
X105378000Y-95725714D01*
X105330380Y-95582857D01*
X105330380Y-95487619D01*
X105378000Y-95344761D01*
X105425619Y-95297142D01*
X106330380Y-94725714D02*
X106282761Y-94820952D01*
X106235142Y-94868571D01*
X106139904Y-94916190D01*
X105854190Y-94916190D01*
X105758952Y-94868571D01*
X105711333Y-94820952D01*
X105663714Y-94725714D01*
X105663714Y-94582857D01*
X105711333Y-94487619D01*
X105758952Y-94440000D01*
X105854190Y-94392380D01*
X106139904Y-94392380D01*
X106235142Y-94440000D01*
X106282761Y-94487619D01*
X106330380Y-94582857D01*
X106330380Y-94725714D01*
X105663714Y-93535238D02*
X106330380Y-93535238D01*
X105663714Y-93963809D02*
X106187523Y-93963809D01*
X106282761Y-93916190D01*
X106330380Y-93820952D01*
X106330380Y-93678095D01*
X106282761Y-93582857D01*
X106235142Y-93535238D01*
X105663714Y-93201904D02*
X105663714Y-92820952D01*
X105330380Y-93059047D02*
X106187523Y-93059047D01*
X106282761Y-93011428D01*
X106330380Y-92916190D01*
X106330380Y-92820952D01*
X106330380Y-91963809D02*
X106330380Y-92535238D01*
X106330380Y-92249523D02*
X105330380Y-92249523D01*
X105473238Y-92344761D01*
X105568476Y-92440000D01*
X105616095Y-92535238D01*
G04 #@! TO.C,R3*
X102261333Y-73984380D02*
X101928000Y-73508190D01*
X101689904Y-73984380D02*
X101689904Y-72984380D01*
X102070857Y-72984380D01*
X102166095Y-73032000D01*
X102213714Y-73079619D01*
X102261333Y-73174857D01*
X102261333Y-73317714D01*
X102213714Y-73412952D01*
X102166095Y-73460571D01*
X102070857Y-73508190D01*
X101689904Y-73508190D01*
X102594666Y-72984380D02*
X103213714Y-72984380D01*
X102880380Y-73365333D01*
X103023238Y-73365333D01*
X103118476Y-73412952D01*
X103166095Y-73460571D01*
X103213714Y-73555809D01*
X103213714Y-73793904D01*
X103166095Y-73889142D01*
X103118476Y-73936761D01*
X103023238Y-73984380D01*
X102737523Y-73984380D01*
X102642285Y-73936761D01*
X102594666Y-73889142D01*
G04 #@! TO.C,P4*
X160061904Y-116752380D02*
X160061904Y-115752380D01*
X160442857Y-115752380D01*
X160538095Y-115800000D01*
X160585714Y-115847619D01*
X160633333Y-115942857D01*
X160633333Y-116085714D01*
X160585714Y-116180952D01*
X160538095Y-116228571D01*
X160442857Y-116276190D01*
X160061904Y-116276190D01*
X161490476Y-116085714D02*
X161490476Y-116752380D01*
X161252380Y-115704761D02*
X161014285Y-116419047D01*
X161633333Y-116419047D01*
G04 #@! TO.C,C3*
X119165642Y-76128666D02*
X119213261Y-76176285D01*
X119260880Y-76319142D01*
X119260880Y-76414380D01*
X119213261Y-76557238D01*
X119118023Y-76652476D01*
X119022785Y-76700095D01*
X118832309Y-76747714D01*
X118689452Y-76747714D01*
X118498976Y-76700095D01*
X118403738Y-76652476D01*
X118308500Y-76557238D01*
X118260880Y-76414380D01*
X118260880Y-76319142D01*
X118308500Y-76176285D01*
X118356119Y-76128666D01*
X118260880Y-75795333D02*
X118260880Y-75176285D01*
X118641833Y-75509619D01*
X118641833Y-75366761D01*
X118689452Y-75271523D01*
X118737071Y-75223904D01*
X118832309Y-75176285D01*
X119070404Y-75176285D01*
X119165642Y-75223904D01*
X119213261Y-75271523D01*
X119260880Y-75366761D01*
X119260880Y-75652476D01*
X119213261Y-75747714D01*
X119165642Y-75795333D01*
G04 #@! TO.C,C8*
D13*
X171747666Y-102794571D02*
X171723857Y-102818380D01*
X171652428Y-102842190D01*
X171604809Y-102842190D01*
X171533380Y-102818380D01*
X171485761Y-102770761D01*
X171461952Y-102723142D01*
X171438142Y-102627904D01*
X171438142Y-102556476D01*
X171461952Y-102461238D01*
X171485761Y-102413619D01*
X171533380Y-102366000D01*
X171604809Y-102342190D01*
X171652428Y-102342190D01*
X171723857Y-102366000D01*
X171747666Y-102389809D01*
X172033380Y-102556476D02*
X171985761Y-102532666D01*
X171961952Y-102508857D01*
X171938142Y-102461238D01*
X171938142Y-102437428D01*
X171961952Y-102389809D01*
X171985761Y-102366000D01*
X172033380Y-102342190D01*
X172128619Y-102342190D01*
X172176238Y-102366000D01*
X172200047Y-102389809D01*
X172223857Y-102437428D01*
X172223857Y-102461238D01*
X172200047Y-102508857D01*
X172176238Y-102532666D01*
X172128619Y-102556476D01*
X172033380Y-102556476D01*
X171985761Y-102580285D01*
X171961952Y-102604095D01*
X171938142Y-102651714D01*
X171938142Y-102746952D01*
X171961952Y-102794571D01*
X171985761Y-102818380D01*
X172033380Y-102842190D01*
X172128619Y-102842190D01*
X172176238Y-102818380D01*
X172200047Y-102794571D01*
X172223857Y-102746952D01*
X172223857Y-102651714D01*
X172200047Y-102604095D01*
X172176238Y-102580285D01*
X172128619Y-102556476D01*
G04 #@! TO.C,D2*
D10*
X109782833Y-74230666D02*
X109782833Y-73530666D01*
X109949500Y-73530666D01*
X110049500Y-73564000D01*
X110116166Y-73630666D01*
X110149500Y-73697333D01*
X110182833Y-73830666D01*
X110182833Y-73930666D01*
X110149500Y-74064000D01*
X110116166Y-74130666D01*
X110049500Y-74197333D01*
X109949500Y-74230666D01*
X109782833Y-74230666D01*
X110449500Y-73597333D02*
X110482833Y-73564000D01*
X110549500Y-73530666D01*
X110716166Y-73530666D01*
X110782833Y-73564000D01*
X110816166Y-73597333D01*
X110849500Y-73664000D01*
X110849500Y-73730666D01*
X110816166Y-73830666D01*
X110416166Y-74230666D01*
X110849500Y-74230666D01*
G04 #@! TO.C,D4*
X112291904Y-116172380D02*
X112291904Y-115172380D01*
X112530000Y-115172380D01*
X112672857Y-115220000D01*
X112768095Y-115315238D01*
X112815714Y-115410476D01*
X112863333Y-115600952D01*
X112863333Y-115743809D01*
X112815714Y-115934285D01*
X112768095Y-116029523D01*
X112672857Y-116124761D01*
X112530000Y-116172380D01*
X112291904Y-116172380D01*
X113720476Y-115505714D02*
X113720476Y-116172380D01*
X113482380Y-115124761D02*
X113244285Y-115839047D01*
X113863333Y-115839047D01*
G04 #@! TO.C,Cin1*
X107823142Y-94611142D02*
X107870761Y-94658761D01*
X107918380Y-94801619D01*
X107918380Y-94896857D01*
X107870761Y-95039714D01*
X107775523Y-95134952D01*
X107680285Y-95182571D01*
X107489809Y-95230190D01*
X107346952Y-95230190D01*
X107156476Y-95182571D01*
X107061238Y-95134952D01*
X106966000Y-95039714D01*
X106918380Y-94896857D01*
X106918380Y-94801619D01*
X106966000Y-94658761D01*
X107013619Y-94611142D01*
X107918380Y-94182571D02*
X107251714Y-94182571D01*
X106918380Y-94182571D02*
X106966000Y-94230190D01*
X107013619Y-94182571D01*
X106966000Y-94134952D01*
X106918380Y-94182571D01*
X107013619Y-94182571D01*
X107251714Y-93706380D02*
X107918380Y-93706380D01*
X107346952Y-93706380D02*
X107299333Y-93658761D01*
X107251714Y-93563523D01*
X107251714Y-93420666D01*
X107299333Y-93325428D01*
X107394571Y-93277809D01*
X107918380Y-93277809D01*
X107918380Y-92277809D02*
X107918380Y-92849238D01*
X107918380Y-92563523D02*
X106918380Y-92563523D01*
X107061238Y-92658761D01*
X107156476Y-92754000D01*
X107204095Y-92849238D01*
G04 #@! TO.C,SW1*
D13*
X172434333Y-111835380D02*
X172505761Y-111859190D01*
X172624809Y-111859190D01*
X172672428Y-111835380D01*
X172696238Y-111811571D01*
X172720047Y-111763952D01*
X172720047Y-111716333D01*
X172696238Y-111668714D01*
X172672428Y-111644904D01*
X172624809Y-111621095D01*
X172529571Y-111597285D01*
X172481952Y-111573476D01*
X172458142Y-111549666D01*
X172434333Y-111502047D01*
X172434333Y-111454428D01*
X172458142Y-111406809D01*
X172481952Y-111383000D01*
X172529571Y-111359190D01*
X172648619Y-111359190D01*
X172720047Y-111383000D01*
X172886714Y-111359190D02*
X173005761Y-111859190D01*
X173101000Y-111502047D01*
X173196238Y-111859190D01*
X173315285Y-111359190D01*
X173767666Y-111859190D02*
X173481952Y-111859190D01*
X173624809Y-111859190D02*
X173624809Y-111359190D01*
X173577190Y-111430619D01*
X173529571Y-111478238D01*
X173481952Y-111502047D01*
G04 #@! TO.C,Regulator1*
D10*
X95188380Y-109081904D02*
X94712190Y-109415238D01*
X95188380Y-109653333D02*
X94188380Y-109653333D01*
X94188380Y-109272380D01*
X94236000Y-109177142D01*
X94283619Y-109129523D01*
X94378857Y-109081904D01*
X94521714Y-109081904D01*
X94616952Y-109129523D01*
X94664571Y-109177142D01*
X94712190Y-109272380D01*
X94712190Y-109653333D01*
X95140761Y-108272380D02*
X95188380Y-108367619D01*
X95188380Y-108558095D01*
X95140761Y-108653333D01*
X95045523Y-108700952D01*
X94664571Y-108700952D01*
X94569333Y-108653333D01*
X94521714Y-108558095D01*
X94521714Y-108367619D01*
X94569333Y-108272380D01*
X94664571Y-108224761D01*
X94759809Y-108224761D01*
X94855047Y-108700952D01*
X94521714Y-107367619D02*
X95331238Y-107367619D01*
X95426476Y-107415238D01*
X95474095Y-107462857D01*
X95521714Y-107558095D01*
X95521714Y-107700952D01*
X95474095Y-107796190D01*
X95140761Y-107367619D02*
X95188380Y-107462857D01*
X95188380Y-107653333D01*
X95140761Y-107748571D01*
X95093142Y-107796190D01*
X94997904Y-107843809D01*
X94712190Y-107843809D01*
X94616952Y-107796190D01*
X94569333Y-107748571D01*
X94521714Y-107653333D01*
X94521714Y-107462857D01*
X94569333Y-107367619D01*
X94521714Y-106462857D02*
X95188380Y-106462857D01*
X94521714Y-106891428D02*
X95045523Y-106891428D01*
X95140761Y-106843809D01*
X95188380Y-106748571D01*
X95188380Y-106605714D01*
X95140761Y-106510476D01*
X95093142Y-106462857D01*
X95188380Y-105843809D02*
X95140761Y-105939047D01*
X95045523Y-105986666D01*
X94188380Y-105986666D01*
X95188380Y-105034285D02*
X94664571Y-105034285D01*
X94569333Y-105081904D01*
X94521714Y-105177142D01*
X94521714Y-105367619D01*
X94569333Y-105462857D01*
X95140761Y-105034285D02*
X95188380Y-105129523D01*
X95188380Y-105367619D01*
X95140761Y-105462857D01*
X95045523Y-105510476D01*
X94950285Y-105510476D01*
X94855047Y-105462857D01*
X94807428Y-105367619D01*
X94807428Y-105129523D01*
X94759809Y-105034285D01*
X94521714Y-104700952D02*
X94521714Y-104320000D01*
X94188380Y-104558095D02*
X95045523Y-104558095D01*
X95140761Y-104510476D01*
X95188380Y-104415238D01*
X95188380Y-104320000D01*
X95188380Y-103843809D02*
X95140761Y-103939047D01*
X95093142Y-103986666D01*
X94997904Y-104034285D01*
X94712190Y-104034285D01*
X94616952Y-103986666D01*
X94569333Y-103939047D01*
X94521714Y-103843809D01*
X94521714Y-103700952D01*
X94569333Y-103605714D01*
X94616952Y-103558095D01*
X94712190Y-103510476D01*
X94997904Y-103510476D01*
X95093142Y-103558095D01*
X95140761Y-103605714D01*
X95188380Y-103700952D01*
X95188380Y-103843809D01*
X95188380Y-103081904D02*
X94521714Y-103081904D01*
X94712190Y-103081904D02*
X94616952Y-103034285D01*
X94569333Y-102986666D01*
X94521714Y-102891428D01*
X94521714Y-102796190D01*
X95188380Y-101939047D02*
X95188380Y-102510476D01*
X95188380Y-102224761D02*
X94188380Y-102224761D01*
X94331238Y-102320000D01*
X94426476Y-102415238D01*
X94474095Y-102510476D01*
G04 #@! TO.C,IC1*
X136818809Y-86304380D02*
X136818809Y-85304380D01*
X137866428Y-86209142D02*
X137818809Y-86256761D01*
X137675952Y-86304380D01*
X137580714Y-86304380D01*
X137437857Y-86256761D01*
X137342619Y-86161523D01*
X137295000Y-86066285D01*
X137247380Y-85875809D01*
X137247380Y-85732952D01*
X137295000Y-85542476D01*
X137342619Y-85447238D01*
X137437857Y-85352000D01*
X137580714Y-85304380D01*
X137675952Y-85304380D01*
X137818809Y-85352000D01*
X137866428Y-85399619D01*
X138818809Y-86304380D02*
X138247380Y-86304380D01*
X138533095Y-86304380D02*
X138533095Y-85304380D01*
X138437857Y-85447238D01*
X138342619Y-85542476D01*
X138247380Y-85590095D01*
G04 #@! TO.C,J4*
X129066666Y-64752380D02*
X129066666Y-65466666D01*
X129019047Y-65609523D01*
X128923809Y-65704761D01*
X128780952Y-65752380D01*
X128685714Y-65752380D01*
X129971428Y-65085714D02*
X129971428Y-65752380D01*
X129733333Y-64704761D02*
X129495238Y-65419047D01*
X130114285Y-65419047D01*
G04 #@! TO.C,J3*
X97966666Y-64752380D02*
X97966666Y-65466666D01*
X97919047Y-65609523D01*
X97823809Y-65704761D01*
X97680952Y-65752380D01*
X97585714Y-65752380D01*
X98347619Y-64752380D02*
X98966666Y-64752380D01*
X98633333Y-65133333D01*
X98776190Y-65133333D01*
X98871428Y-65180952D01*
X98919047Y-65228571D01*
X98966666Y-65323809D01*
X98966666Y-65561904D01*
X98919047Y-65657142D01*
X98871428Y-65704761D01*
X98776190Y-65752380D01*
X98490476Y-65752380D01*
X98395238Y-65704761D01*
X98347619Y-65657142D01*
G04 #@! TO.C,P11*
X199424715Y-101852380D02*
X199424715Y-100852380D01*
X199805667Y-100852380D01*
X199900905Y-100900000D01*
X199948524Y-100947619D01*
X199996143Y-101042857D01*
X199996143Y-101185714D01*
X199948524Y-101280952D01*
X199900905Y-101328571D01*
X199805667Y-101376190D01*
X199424715Y-101376190D01*
X200948524Y-101852380D02*
X200377096Y-101852380D01*
X200662810Y-101852380D02*
X200662810Y-100852380D01*
X200567572Y-100995238D01*
X200472334Y-101090476D01*
X200377096Y-101138095D01*
X201900905Y-101852380D02*
X201329477Y-101852380D01*
X201615191Y-101852380D02*
X201615191Y-100852380D01*
X201519953Y-100995238D01*
X201424715Y-101090476D01*
X201329477Y-101138095D01*
X197948524Y-98752380D02*
X197948524Y-97752380D01*
X198329477Y-97752380D01*
X198424715Y-97800000D01*
X198472334Y-97847619D01*
X198519953Y-97942857D01*
X198519953Y-98085714D01*
X198472334Y-98180952D01*
X198424715Y-98228571D01*
X198329477Y-98276190D01*
X197948524Y-98276190D01*
X199091381Y-98752380D02*
X198996143Y-98704761D01*
X198948524Y-98657142D01*
X198900905Y-98561904D01*
X198900905Y-98276190D01*
X198948524Y-98180952D01*
X198996143Y-98133333D01*
X199091381Y-98085714D01*
X199234239Y-98085714D01*
X199329477Y-98133333D01*
X199377096Y-98180952D01*
X199424715Y-98276190D01*
X199424715Y-98561904D01*
X199377096Y-98657142D01*
X199329477Y-98704761D01*
X199234239Y-98752380D01*
X199091381Y-98752380D01*
X199853286Y-98752380D02*
X199853286Y-98085714D01*
X199853286Y-98276190D02*
X199900905Y-98180952D01*
X199948524Y-98133333D01*
X200043762Y-98085714D01*
X200139001Y-98085714D01*
X200329477Y-98085714D02*
X200710429Y-98085714D01*
X200472334Y-97752380D02*
X200472334Y-98609523D01*
X200519953Y-98704761D01*
X200615191Y-98752380D01*
X200710429Y-98752380D01*
X201043762Y-98752380D02*
X201043762Y-97752380D01*
X201281858Y-97752380D01*
X201424715Y-97800000D01*
X201519953Y-97895238D01*
X201567572Y-97990476D01*
X201615191Y-98180952D01*
X201615191Y-98323809D01*
X201567572Y-98514285D01*
X201519953Y-98609523D01*
X201424715Y-98704761D01*
X201281858Y-98752380D01*
X201043762Y-98752380D01*
X201805667Y-98847619D02*
X202567572Y-98847619D01*
X203139001Y-98228571D02*
X203281858Y-98276190D01*
X203329477Y-98323809D01*
X203377096Y-98419047D01*
X203377096Y-98561904D01*
X203329477Y-98657142D01*
X203281858Y-98704761D01*
X203186620Y-98752380D01*
X202805667Y-98752380D01*
X202805667Y-97752380D01*
X203139001Y-97752380D01*
X203234239Y-97800000D01*
X203281858Y-97847619D01*
X203329477Y-97942857D01*
X203329477Y-98038095D01*
X203281858Y-98133333D01*
X203234239Y-98180952D01*
X203139001Y-98228571D01*
X202805667Y-98228571D01*
G04 #@! TO.C,P13*
X157985714Y-112652380D02*
X157985714Y-111652380D01*
X158366666Y-111652380D01*
X158461904Y-111700000D01*
X158509523Y-111747619D01*
X158557142Y-111842857D01*
X158557142Y-111985714D01*
X158509523Y-112080952D01*
X158461904Y-112128571D01*
X158366666Y-112176190D01*
X157985714Y-112176190D01*
X159509523Y-112652380D02*
X158938095Y-112652380D01*
X159223809Y-112652380D02*
X159223809Y-111652380D01*
X159128571Y-111795238D01*
X159033333Y-111890476D01*
X158938095Y-111938095D01*
X159842857Y-111652380D02*
X160461904Y-111652380D01*
X160128571Y-112033333D01*
X160271428Y-112033333D01*
X160366666Y-112080952D01*
X160414285Y-112128571D01*
X160461904Y-112223809D01*
X160461904Y-112461904D01*
X160414285Y-112557142D01*
X160366666Y-112604761D01*
X160271428Y-112652380D01*
X159985714Y-112652380D01*
X159890476Y-112604761D01*
X159842857Y-112557142D01*
X156785714Y-107452380D02*
X156785714Y-106452380D01*
X157166666Y-106452380D01*
X157261904Y-106500000D01*
X157309523Y-106547619D01*
X157357142Y-106642857D01*
X157357142Y-106785714D01*
X157309523Y-106880952D01*
X157261904Y-106928571D01*
X157166666Y-106976190D01*
X156785714Y-106976190D01*
X157928571Y-107452380D02*
X157833333Y-107404761D01*
X157785714Y-107357142D01*
X157738095Y-107261904D01*
X157738095Y-106976190D01*
X157785714Y-106880952D01*
X157833333Y-106833333D01*
X157928571Y-106785714D01*
X158071428Y-106785714D01*
X158166666Y-106833333D01*
X158214285Y-106880952D01*
X158261904Y-106976190D01*
X158261904Y-107261904D01*
X158214285Y-107357142D01*
X158166666Y-107404761D01*
X158071428Y-107452380D01*
X157928571Y-107452380D01*
X158690476Y-107452380D02*
X158690476Y-106785714D01*
X158690476Y-106976190D02*
X158738095Y-106880952D01*
X158785714Y-106833333D01*
X158880952Y-106785714D01*
X158976190Y-106785714D01*
X159166666Y-106785714D02*
X159547619Y-106785714D01*
X159309523Y-106452380D02*
X159309523Y-107309523D01*
X159357142Y-107404761D01*
X159452380Y-107452380D01*
X159547619Y-107452380D01*
X160214285Y-106928571D02*
X160357142Y-106976190D01*
X160404761Y-107023809D01*
X160452380Y-107119047D01*
X160452380Y-107261904D01*
X160404761Y-107357142D01*
X160357142Y-107404761D01*
X160261904Y-107452380D01*
X159880952Y-107452380D01*
X159880952Y-106452380D01*
X160214285Y-106452380D01*
X160309523Y-106500000D01*
X160357142Y-106547619D01*
X160404761Y-106642857D01*
X160404761Y-106738095D01*
X160357142Y-106833333D01*
X160309523Y-106880952D01*
X160214285Y-106928571D01*
X159880952Y-106928571D01*
X160642857Y-107547619D02*
X161404761Y-107547619D01*
X161642857Y-107452380D02*
X161642857Y-106452380D01*
X161976190Y-107166666D01*
X162309523Y-106452380D01*
X162309523Y-107452380D01*
G04 #@! TO.C,J1*
X97966666Y-56752380D02*
X97966666Y-57466666D01*
X97919047Y-57609523D01*
X97823809Y-57704761D01*
X97680952Y-57752380D01*
X97585714Y-57752380D01*
X98966666Y-57752380D02*
X98395238Y-57752380D01*
X98680952Y-57752380D02*
X98680952Y-56752380D01*
X98585714Y-56895238D01*
X98490476Y-56990476D01*
X98395238Y-57038095D01*
G04 #@! TO.C,J2*
X129066666Y-56752380D02*
X129066666Y-57466666D01*
X129019047Y-57609523D01*
X128923809Y-57704761D01*
X128780952Y-57752380D01*
X128685714Y-57752380D01*
X129495238Y-56847619D02*
X129542857Y-56800000D01*
X129638095Y-56752380D01*
X129876190Y-56752380D01*
X129971428Y-56800000D01*
X130019047Y-56847619D01*
X130066666Y-56942857D01*
X130066666Y-57038095D01*
X130019047Y-57180952D01*
X129447619Y-57752380D01*
X130066666Y-57752380D01*
G04 #@! TO.C,D36*
D13*
X193079000Y-55307666D02*
X193079000Y-54607666D01*
X193245666Y-54607666D01*
X193345666Y-54641000D01*
X193412333Y-54707666D01*
X193445666Y-54774333D01*
X193479000Y-54907666D01*
X193479000Y-55007666D01*
X193445666Y-55141000D01*
X193412333Y-55207666D01*
X193345666Y-55274333D01*
X193245666Y-55307666D01*
X193079000Y-55307666D01*
X193712333Y-54607666D02*
X194145666Y-54607666D01*
X193912333Y-54874333D01*
X194012333Y-54874333D01*
X194079000Y-54907666D01*
X194112333Y-54941000D01*
X194145666Y-55007666D01*
X194145666Y-55174333D01*
X194112333Y-55241000D01*
X194079000Y-55274333D01*
X194012333Y-55307666D01*
X193812333Y-55307666D01*
X193745666Y-55274333D01*
X193712333Y-55241000D01*
X194745666Y-54607666D02*
X194612333Y-54607666D01*
X194545666Y-54641000D01*
X194512333Y-54674333D01*
X194445666Y-54774333D01*
X194412333Y-54907666D01*
X194412333Y-55174333D01*
X194445666Y-55241000D01*
X194479000Y-55274333D01*
X194545666Y-55307666D01*
X194679000Y-55307666D01*
X194745666Y-55274333D01*
X194779000Y-55241000D01*
X194812333Y-55174333D01*
X194812333Y-55007666D01*
X194779000Y-54941000D01*
X194745666Y-54907666D01*
X194679000Y-54874333D01*
X194545666Y-54874333D01*
X194479000Y-54907666D01*
X194445666Y-54941000D01*
X194412333Y-55007666D01*
X196987333Y-53430666D02*
X196754000Y-53097333D01*
X196587333Y-53430666D02*
X196587333Y-52730666D01*
X196854000Y-52730666D01*
X196920666Y-52764000D01*
X196954000Y-52797333D01*
X196987333Y-52864000D01*
X196987333Y-52964000D01*
X196954000Y-53030666D01*
X196920666Y-53064000D01*
X196854000Y-53097333D01*
X196587333Y-53097333D01*
X197220666Y-52730666D02*
X197687333Y-53430666D01*
X197687333Y-52730666D02*
X197220666Y-53430666D01*
G04 #@! TD*
M02*
