M48
;DRILL file {KiCad 5.0.1} date Tue 22 Jan 2019 03:03:23 PM IST
;FORMAT={-:-/ absolute / metric / decimal}
FMAT,2
METRIC,TZ
T1C0.400
T2C0.800
T3C0.800
T4C0.900
T5C1.000
T6C1.016
T7C1.100
T8C1.300
T9C1.600
%
G90
G05
M71
T1
X161.163Y-89.789
X168.148Y-83.185
X187.452Y-79.883
X187.452Y-81.28
X192.278Y-85.217
X194.564Y-54.991
X200.533Y-56.642
T2
X112.776Y-92.004
X112.776Y-95.504
X114.998Y-74.962
X114.998Y-76.962
X114.935Y-83.09
X114.935Y-85.09
X142.113Y-76.835
X142.113Y-92.075
X144.653Y-76.835
X144.653Y-92.075
X147.193Y-76.835
X147.193Y-92.075
X149.733Y-76.835
X149.733Y-92.075
X152.273Y-76.835
X152.273Y-92.075
X154.813Y-76.835
X154.813Y-92.075
X157.353Y-76.835
X157.353Y-92.075
X159.893Y-76.835
X159.893Y-92.075
X162.433Y-76.835
X162.433Y-92.075
X164.973Y-76.835
X164.973Y-92.075
X167.513Y-76.835
X167.513Y-92.075
X170.053Y-76.835
X170.053Y-92.075
X172.593Y-76.835
X172.593Y-92.075
X175.133Y-76.835
X175.133Y-92.075
X177.673Y-76.835
X177.673Y-92.075
X180.213Y-76.835
X180.213Y-92.075
X182.753Y-76.835
X182.753Y-92.075
X185.293Y-76.835
X185.293Y-92.075
X187.833Y-76.835
X187.833Y-92.075
X190.373Y-76.835
X190.373Y-92.075
T3
X169.136Y-97.663
X174.018Y-97.663
T4
X102.87Y-65.303
X105.37Y-65.303
X107.87Y-65.303
X110.37Y-65.303
X117.5Y-57.328
X120.Y-57.328
X122.5Y-57.328
X125.Y-57.328
X102.87Y-57.328
X105.37Y-57.328
X107.87Y-57.328
X110.37Y-57.328
X117.5Y-65.303
X120.Y-65.303
X122.5Y-65.303
X125.Y-65.303
T5
X170.688Y-58.928
X173.228Y-58.928
X175.768Y-58.928
X178.308Y-58.928
X180.848Y-58.928
X183.388Y-58.928
X185.928Y-58.928
X188.468Y-58.928
X99.568Y-91.44
X99.568Y-96.44
X134.112Y-58.42
X136.652Y-58.42
X139.192Y-58.42
X141.732Y-58.42
X144.272Y-58.42
X146.812Y-58.42
X149.352Y-58.42
X151.892Y-58.42
X154.432Y-58.42
X156.972Y-58.42
X159.512Y-58.42
X162.052Y-58.42
X178.308Y-109.728
X180.848Y-109.728
X183.388Y-109.728
X185.928Y-109.728
X188.468Y-109.728
X191.008Y-109.728
X193.548Y-109.728
X196.088Y-109.728
X141.376Y-101.092
X143.916Y-101.092
X146.456Y-101.092
X148.996Y-101.092
X151.536Y-101.092
X154.076Y-101.092
X156.616Y-101.092
X159.156Y-101.092
X115.316Y-102.42
X115.316Y-104.12
X115.316Y-105.82
X115.316Y-107.52
X115.316Y-109.22
X196.215Y-58.674
X196.215Y-61.214
X196.215Y-63.754
X196.215Y-66.294
X178.308Y-101.092
X180.848Y-101.092
X183.388Y-101.092
X185.928Y-101.092
X188.468Y-101.092
X191.008Y-101.092
X193.548Y-101.092
X196.088Y-101.092
X141.376Y-109.728
X143.916Y-109.728
X146.456Y-109.728
X148.996Y-109.728
X151.536Y-109.728
X154.076Y-109.728
X156.616Y-109.728
X159.156Y-109.728
X170.688Y-67.056
X173.228Y-67.056
X175.768Y-67.056
X178.308Y-67.056
X180.848Y-67.056
X183.388Y-67.056
X185.928Y-67.056
X188.468Y-67.056
X134.112Y-67.056
X136.652Y-67.056
X139.192Y-67.056
X141.732Y-67.056
X144.272Y-67.056
X146.812Y-67.056
X149.352Y-67.056
X151.892Y-67.056
X154.432Y-67.056
X156.972Y-67.056
X159.512Y-67.056
X162.052Y-67.056
X105.664Y-78.74
X105.664Y-81.28
X105.664Y-83.82
T6
X197.993Y-77.47
X197.993Y-80.01
X197.993Y-82.55
X197.993Y-85.09
X197.993Y-87.63
X200.533Y-77.47
X200.533Y-80.01
X200.533Y-82.55
X200.533Y-85.09
X200.533Y-87.63
T7
X98.232Y-76.517
X98.232Y-86.677
T8
X124.841Y-120.396
X129.841Y-120.396
X134.841Y-120.396
X139.841Y-120.396
X144.841Y-120.396
X149.841Y-120.396
X154.841Y-120.396
X159.841Y-120.396
X165.989Y-120.269
X170.989Y-120.269
X175.989Y-120.269
X180.989Y-120.269
X185.989Y-120.269
X190.989Y-120.269
X195.989Y-120.269
X200.989Y-120.269
X103.242Y-44.831
X108.242Y-44.831
X113.242Y-44.831
X118.242Y-44.831
X123.242Y-44.831
X128.242Y-44.831
X133.242Y-44.831
X138.242Y-44.831
X143.242Y-44.831
X148.242Y-44.831
X153.242Y-44.831
X158.242Y-44.831
X96.012Y-118.872
X101.012Y-118.872
X166.041Y-44.831
X171.041Y-44.831
X176.041Y-44.831
X181.041Y-44.831
X186.041Y-44.831
X191.041Y-44.831
X196.041Y-44.831
X201.041Y-44.831
T9
X106.68Y-119.38
X119.38Y-119.38
X121.412Y-107.696
X136.652Y-107.696
T0
M30
