G04 #@! TF.GenerationSoftware,KiCad,Pcbnew,5.0.1*
G04 #@! TF.CreationDate,2019-01-22T15:03:27+05:30*
G04 #@! TF.ProjectId,OpenPLC_V2,4F70656E504C435F56322E6B69636164,rev?*
G04 #@! TF.SameCoordinates,Original*
G04 #@! TF.FileFunction,Copper,L2,Bot,Signal*
G04 #@! TF.FilePolarity,Positive*
%FSLAX46Y46*%
G04 Gerber Fmt 4.6, Leading zero omitted, Abs format (unit mm)*
G04 Created by KiCad (PCBNEW 5.0.1) date Tue 22 Jan 2019 03:03:27 PM IST*
%MOMM*%
%LPD*%
G01*
G04 APERTURE LIST*
G04 #@! TA.AperFunction,ComponentPad*
%ADD10C,2.500000*%
G04 #@! TD*
G04 #@! TA.AperFunction,ComponentPad*
%ADD11R,2.500000X2.500000*%
G04 #@! TD*
G04 #@! TA.AperFunction,ComponentPad*
%ADD12C,1.501140*%
G04 #@! TD*
G04 #@! TA.AperFunction,ComponentPad*
%ADD13R,1.600000X1.600000*%
G04 #@! TD*
G04 #@! TA.AperFunction,ComponentPad*
%ADD14C,1.600000*%
G04 #@! TD*
G04 #@! TA.AperFunction,ComponentPad*
%ADD15O,2.200000X2.200000*%
G04 #@! TD*
G04 #@! TA.AperFunction,ComponentPad*
%ADD16R,2.200000X2.200000*%
G04 #@! TD*
G04 #@! TA.AperFunction,ComponentPad*
%ADD17R,1.727200X1.727200*%
G04 #@! TD*
G04 #@! TA.AperFunction,ComponentPad*
%ADD18O,1.727200X1.727200*%
G04 #@! TD*
G04 #@! TA.AperFunction,ComponentPad*
%ADD19R,1.700000X1.700000*%
G04 #@! TD*
G04 #@! TA.AperFunction,ComponentPad*
%ADD20O,1.700000X1.700000*%
G04 #@! TD*
G04 #@! TA.AperFunction,ComponentPad*
%ADD21O,1.800000X1.800000*%
G04 #@! TD*
G04 #@! TA.AperFunction,ComponentPad*
%ADD22R,1.800000X1.800000*%
G04 #@! TD*
G04 #@! TA.AperFunction,ComponentPad*
%ADD23O,3.200000X3.200000*%
G04 #@! TD*
G04 #@! TA.AperFunction,ComponentPad*
%ADD24R,3.200000X3.200000*%
G04 #@! TD*
G04 #@! TA.AperFunction,ComponentPad*
%ADD25C,2.000000*%
G04 #@! TD*
G04 #@! TA.AperFunction,ComponentPad*
%ADD26R,2.000000X2.000000*%
G04 #@! TD*
G04 #@! TA.AperFunction,SMDPad,CuDef*
%ADD27R,0.700000X1.300000*%
G04 #@! TD*
G04 #@! TA.AperFunction,ComponentPad*
%ADD28O,1.800000X1.350000*%
G04 #@! TD*
G04 #@! TA.AperFunction,ComponentPad*
%ADD29R,1.800000X1.350000*%
G04 #@! TD*
G04 #@! TA.AperFunction,ComponentPad*
%ADD30O,1.600000X2.300000*%
G04 #@! TD*
G04 #@! TA.AperFunction,ComponentPad*
%ADD31R,1.850000X1.850000*%
G04 #@! TD*
G04 #@! TA.AperFunction,ComponentPad*
%ADD32C,1.850000*%
G04 #@! TD*
G04 #@! TA.AperFunction,ViaPad*
%ADD33C,0.600000*%
G04 #@! TD*
G04 #@! TA.AperFunction,Conductor*
%ADD34C,1.000000*%
G04 #@! TD*
G04 #@! TA.AperFunction,Conductor*
%ADD35C,0.600000*%
G04 #@! TD*
G04 #@! TA.AperFunction,Conductor*
%ADD36C,0.350000*%
G04 #@! TD*
G04 APERTURE END LIST*
D10*
G04 #@! TO.P,P3,2*
G04 #@! TO.N,/A6*
X153242000Y-44831000D03*
D11*
G04 #@! TO.P,P3,1*
G04 #@! TO.N,/A7*
X158242000Y-44831000D03*
D10*
G04 #@! TO.P,P3,3*
G04 #@! TO.N,/A5*
X148242000Y-44831000D03*
G04 #@! TO.P,P3,4*
G04 #@! TO.N,/A4*
X143242000Y-44831000D03*
G04 #@! TO.P,P3,5*
G04 #@! TO.N,/A3*
X138242000Y-44831000D03*
G04 #@! TO.P,P3,6*
G04 #@! TO.N,/A2*
X133242000Y-44831000D03*
G04 #@! TO.P,P3,7*
G04 #@! TO.N,/A1*
X128242000Y-44831000D03*
G04 #@! TO.P,P3,8*
G04 #@! TO.N,/A0*
X123242000Y-44831000D03*
G04 #@! TO.P,P3,9*
G04 #@! TO.N,GND*
X118242000Y-44831000D03*
G04 #@! TO.P,P3,10*
G04 #@! TO.N,5V*
X113242000Y-44831000D03*
G04 #@! TO.P,P3,11*
G04 #@! TO.N,12V*
X108242000Y-44831000D03*
G04 #@! TO.P,P3,12*
G04 #@! TO.N,24V*
X103242000Y-44831000D03*
G04 #@! TD*
G04 #@! TO.P,P5,8*
G04 #@! TO.N,/C7*
X166041000Y-44831000D03*
G04 #@! TO.P,P5,7*
G04 #@! TO.N,/C6*
X171041000Y-44831000D03*
G04 #@! TO.P,P5,6*
G04 #@! TO.N,/C5*
X176041000Y-44831000D03*
G04 #@! TO.P,P5,5*
G04 #@! TO.N,/C4*
X181041000Y-44831000D03*
G04 #@! TO.P,P5,4*
G04 #@! TO.N,/C3*
X186041000Y-44831000D03*
G04 #@! TO.P,P5,3*
G04 #@! TO.N,/C2*
X191041000Y-44831000D03*
D11*
G04 #@! TO.P,P5,1*
G04 #@! TO.N,/C0*
X201041000Y-44831000D03*
D10*
G04 #@! TO.P,P5,2*
G04 #@! TO.N,/C1*
X196041000Y-44831000D03*
G04 #@! TD*
G04 #@! TO.P,P6,2*
G04 #@! TO.N,/TX*
X170989000Y-120269000D03*
D11*
G04 #@! TO.P,P6,1*
G04 #@! TO.N,/RX*
X165989000Y-120269000D03*
D10*
G04 #@! TO.P,P6,3*
G04 #@! TO.N,/D2*
X175989000Y-120269000D03*
G04 #@! TO.P,P6,4*
G04 #@! TO.N,/D3*
X180989000Y-120269000D03*
G04 #@! TO.P,P6,5*
G04 #@! TO.N,/D4*
X185989000Y-120269000D03*
G04 #@! TO.P,P6,6*
G04 #@! TO.N,/D5*
X190989000Y-120269000D03*
G04 #@! TO.P,P6,7*
G04 #@! TO.N,/D6*
X195989000Y-120269000D03*
G04 #@! TO.P,P6,8*
G04 #@! TO.N,/D7*
X200989000Y-120269000D03*
G04 #@! TD*
D12*
G04 #@! TO.P,Y1,1*
G04 #@! TO.N,Net-(C7-Pad2)*
X169136060Y-97663000D03*
G04 #@! TO.P,Y1,2*
G04 #@! TO.N,Net-(C8-Pad2)*
X174017940Y-97663000D03*
G04 #@! TD*
D10*
G04 #@! TO.P,powerIn1,2*
G04 #@! TO.N,24V*
X101012000Y-118872000D03*
D11*
G04 #@! TO.P,powerIn1,1*
G04 #@! TO.N,GND*
X96012000Y-118872000D03*
G04 #@! TD*
D13*
G04 #@! TO.P,C2,1*
G04 #@! TO.N,12V*
X114935000Y-85090000D03*
D14*
G04 #@! TO.P,C2,2*
G04 #@! TO.N,GND*
X114935000Y-83090000D03*
G04 #@! TD*
D15*
G04 #@! TO.P,D1,2*
G04 #@! TO.N,5V*
X98231960Y-86677500D03*
D16*
G04 #@! TO.P,D1,1*
G04 #@! TO.N,12V*
X98231960Y-76517500D03*
G04 #@! TD*
D17*
G04 #@! TO.P,CON2,1*
G04 #@! TO.N,/MOSI*
X197993000Y-77470000D03*
D18*
G04 #@! TO.P,CON2,2*
G04 #@! TO.N,5V*
X200533000Y-77470000D03*
G04 #@! TO.P,CON2,3*
G04 #@! TO.N,Net-(CON2-Pad3)*
X197993000Y-80010000D03*
G04 #@! TO.P,CON2,4*
G04 #@! TO.N,GND*
X200533000Y-80010000D03*
G04 #@! TO.P,CON2,5*
G04 #@! TO.N,/RST*
X197993000Y-82550000D03*
G04 #@! TO.P,CON2,6*
G04 #@! TO.N,GND*
X200533000Y-82550000D03*
G04 #@! TO.P,CON2,7*
G04 #@! TO.N,/SCK*
X197993000Y-85090000D03*
G04 #@! TO.P,CON2,8*
G04 #@! TO.N,GND*
X200533000Y-85090000D03*
G04 #@! TO.P,CON2,9*
G04 #@! TO.N,/MISO*
X197993000Y-87630000D03*
G04 #@! TO.P,CON2,10*
G04 #@! TO.N,GND*
X200533000Y-87630000D03*
G04 #@! TD*
D19*
G04 #@! TO.P,P14,1*
G04 #@! TO.N,/C7*
X170688000Y-58928000D03*
D20*
G04 #@! TO.P,P14,2*
G04 #@! TO.N,/C6*
X173228000Y-58928000D03*
G04 #@! TO.P,P14,3*
G04 #@! TO.N,/C5*
X175768000Y-58928000D03*
G04 #@! TO.P,P14,4*
G04 #@! TO.N,/C4*
X178308000Y-58928000D03*
G04 #@! TO.P,P14,5*
G04 #@! TO.N,/C3*
X180848000Y-58928000D03*
G04 #@! TO.P,P14,6*
G04 #@! TO.N,/C2*
X183388000Y-58928000D03*
G04 #@! TO.P,P14,7*
G04 #@! TO.N,/C1*
X185928000Y-58928000D03*
G04 #@! TO.P,P14,8*
G04 #@! TO.N,/C0*
X188468000Y-58928000D03*
G04 #@! TD*
G04 #@! TO.P,P15,8*
G04 #@! TO.N,/RX*
X178308000Y-109728000D03*
G04 #@! TO.P,P15,7*
G04 #@! TO.N,/TX*
X180848000Y-109728000D03*
G04 #@! TO.P,P15,6*
G04 #@! TO.N,/D2*
X183388000Y-109728000D03*
G04 #@! TO.P,P15,5*
G04 #@! TO.N,/D3*
X185928000Y-109728000D03*
G04 #@! TO.P,P15,4*
G04 #@! TO.N,/D4*
X188468000Y-109728000D03*
G04 #@! TO.P,P15,3*
G04 #@! TO.N,/D5*
X191008000Y-109728000D03*
G04 #@! TO.P,P15,2*
G04 #@! TO.N,/D6*
X193548000Y-109728000D03*
D19*
G04 #@! TO.P,P15,1*
G04 #@! TO.N,/D7*
X196088000Y-109728000D03*
G04 #@! TD*
D20*
G04 #@! TO.P,P9,12*
G04 #@! TO.N,/A7*
X162052000Y-67056000D03*
G04 #@! TO.P,P9,11*
G04 #@! TO.N,/A6*
X159512000Y-67056000D03*
G04 #@! TO.P,P9,10*
G04 #@! TO.N,/A5*
X156972000Y-67056000D03*
G04 #@! TO.P,P9,9*
G04 #@! TO.N,/A4*
X154432000Y-67056000D03*
G04 #@! TO.P,P9,8*
G04 #@! TO.N,/A3*
X151892000Y-67056000D03*
G04 #@! TO.P,P9,7*
G04 #@! TO.N,/A2*
X149352000Y-67056000D03*
G04 #@! TO.P,P9,6*
G04 #@! TO.N,/A1*
X146812000Y-67056000D03*
G04 #@! TO.P,P9,5*
G04 #@! TO.N,/A0*
X144272000Y-67056000D03*
G04 #@! TO.P,P9,4*
G04 #@! TO.N,GND*
X141732000Y-67056000D03*
G04 #@! TO.P,P9,3*
G04 #@! TO.N,5V*
X139192000Y-67056000D03*
G04 #@! TO.P,P9,2*
G04 #@! TO.N,12V*
X136652000Y-67056000D03*
D19*
G04 #@! TO.P,P9,1*
G04 #@! TO.N,24V*
X134112000Y-67056000D03*
G04 #@! TD*
D20*
G04 #@! TO.P,P8,8*
G04 #@! TO.N,/B0*
X141376400Y-101092000D03*
G04 #@! TO.P,P8,7*
G04 #@! TO.N,/B1*
X143916400Y-101092000D03*
G04 #@! TO.P,P8,6*
G04 #@! TO.N,/B2*
X146456400Y-101092000D03*
G04 #@! TO.P,P8,5*
G04 #@! TO.N,/B3*
X148996400Y-101092000D03*
G04 #@! TO.P,P8,4*
G04 #@! TO.N,/B4*
X151536400Y-101092000D03*
G04 #@! TO.P,P8,3*
G04 #@! TO.N,/MOSI*
X154076400Y-101092000D03*
G04 #@! TO.P,P8,2*
G04 #@! TO.N,/MISO*
X156616400Y-101092000D03*
D19*
G04 #@! TO.P,P8,1*
G04 #@! TO.N,/SCK*
X159156400Y-101092000D03*
G04 #@! TD*
D20*
G04 #@! TO.P,P12,12*
G04 #@! TO.N,/A7*
X162052000Y-58420000D03*
G04 #@! TO.P,P12,11*
G04 #@! TO.N,/A6*
X159512000Y-58420000D03*
G04 #@! TO.P,P12,10*
G04 #@! TO.N,/A5*
X156972000Y-58420000D03*
G04 #@! TO.P,P12,9*
G04 #@! TO.N,/A4*
X154432000Y-58420000D03*
G04 #@! TO.P,P12,8*
G04 #@! TO.N,/A3*
X151892000Y-58420000D03*
G04 #@! TO.P,P12,7*
G04 #@! TO.N,/A2*
X149352000Y-58420000D03*
G04 #@! TO.P,P12,6*
G04 #@! TO.N,/A1*
X146812000Y-58420000D03*
G04 #@! TO.P,P12,5*
G04 #@! TO.N,/A0*
X144272000Y-58420000D03*
G04 #@! TO.P,P12,4*
G04 #@! TO.N,GND*
X141732000Y-58420000D03*
G04 #@! TO.P,P12,3*
G04 #@! TO.N,5V*
X139192000Y-58420000D03*
G04 #@! TO.P,P12,2*
G04 #@! TO.N,12V*
X136652000Y-58420000D03*
D19*
G04 #@! TO.P,P12,1*
G04 #@! TO.N,24V*
X134112000Y-58420000D03*
G04 #@! TD*
D21*
G04 #@! TO.P,U1,3*
G04 #@! TO.N,5V*
X105664000Y-83820000D03*
G04 #@! TO.P,U1,2*
G04 #@! TO.N,GND*
X105664000Y-81280000D03*
D22*
G04 #@! TO.P,U1,1*
G04 #@! TO.N,12V*
X105664000Y-78740000D03*
G04 #@! TD*
D20*
G04 #@! TO.P,P7,4*
G04 #@! TO.N,5V*
X196215000Y-58674000D03*
G04 #@! TO.P,P7,3*
G04 #@! TO.N,GND*
X196215000Y-61214000D03*
G04 #@! TO.P,P7,2*
G04 #@! TO.N,/RX*
X196215000Y-63754000D03*
D19*
G04 #@! TO.P,P7,1*
G04 #@! TO.N,/TX*
X196215000Y-66294000D03*
G04 #@! TD*
D23*
G04 #@! TO.P,D3,2*
G04 #@! TO.N,GND*
X136652000Y-107696000D03*
D24*
G04 #@! TO.P,D3,1*
G04 #@! TO.N,Net-(D3-Pad1)*
X121412000Y-107696000D03*
G04 #@! TD*
D19*
G04 #@! TO.P,P10,1*
G04 #@! TO.N,/C7*
X170688000Y-67056000D03*
D20*
G04 #@! TO.P,P10,2*
G04 #@! TO.N,/C6*
X173228000Y-67056000D03*
G04 #@! TO.P,P10,3*
G04 #@! TO.N,/C5*
X175768000Y-67056000D03*
G04 #@! TO.P,P10,4*
G04 #@! TO.N,/C4*
X178308000Y-67056000D03*
G04 #@! TO.P,P10,5*
G04 #@! TO.N,/C3*
X180848000Y-67056000D03*
G04 #@! TO.P,P10,6*
G04 #@! TO.N,/C2*
X183388000Y-67056000D03*
G04 #@! TO.P,P10,7*
G04 #@! TO.N,/C1*
X185928000Y-67056000D03*
G04 #@! TO.P,P10,8*
G04 #@! TO.N,/C0*
X188468000Y-67056000D03*
G04 #@! TD*
D25*
G04 #@! TO.P,Cout1,2*
G04 #@! TO.N,GND*
X99568000Y-96440000D03*
D26*
G04 #@! TO.P,Cout1,1*
G04 #@! TO.N,12V*
X99568000Y-91440000D03*
G04 #@! TD*
D10*
G04 #@! TO.P,P4,2*
G04 #@! TO.N,/B1*
X129841000Y-120396000D03*
D11*
G04 #@! TO.P,P4,1*
G04 #@! TO.N,/B0*
X124841000Y-120396000D03*
D10*
G04 #@! TO.P,P4,3*
G04 #@! TO.N,/B2*
X134841000Y-120396000D03*
G04 #@! TO.P,P4,4*
G04 #@! TO.N,/B3*
X139841000Y-120396000D03*
G04 #@! TO.P,P4,5*
G04 #@! TO.N,/B4*
X144841000Y-120396000D03*
G04 #@! TO.P,P4,6*
G04 #@! TO.N,/MOSI*
X149841000Y-120396000D03*
G04 #@! TO.P,P4,7*
G04 #@! TO.N,/MISO*
X154841000Y-120396000D03*
G04 #@! TO.P,P4,8*
G04 #@! TO.N,/SCK*
X159841000Y-120396000D03*
G04 #@! TD*
D13*
G04 #@! TO.P,C3,1*
G04 #@! TO.N,5V*
X114998500Y-74962000D03*
D14*
G04 #@! TO.P,C3,2*
G04 #@! TO.N,GND*
X114998500Y-76962000D03*
G04 #@! TD*
D27*
G04 #@! TO.P,R4,1*
G04 #@! TO.N,Net-(D36-Pad2)*
X193799500Y-55816500D03*
G04 #@! TO.P,R4,2*
G04 #@! TO.N,5V*
X191899500Y-55816500D03*
G04 #@! TD*
D23*
G04 #@! TO.P,D4,2*
G04 #@! TO.N,GND*
X119380000Y-119380000D03*
D24*
G04 #@! TO.P,D4,1*
G04 #@! TO.N,24V*
X106680000Y-119380000D03*
G04 #@! TD*
D13*
G04 #@! TO.P,Cin1,1*
G04 #@! TO.N,24V*
X112776000Y-95504000D03*
D14*
G04 #@! TO.P,Cin1,2*
G04 #@! TO.N,GND*
X112776000Y-92004000D03*
G04 #@! TD*
D28*
G04 #@! TO.P,Regulator1,5*
G04 #@! TO.N,GND*
X115316000Y-102420000D03*
G04 #@! TO.P,Regulator1,4*
G04 #@! TO.N,12V*
X115316000Y-104120000D03*
G04 #@! TO.P,Regulator1,3*
G04 #@! TO.N,GND*
X115316000Y-105820000D03*
G04 #@! TO.P,Regulator1,2*
G04 #@! TO.N,Net-(D3-Pad1)*
X115316000Y-107520000D03*
D29*
G04 #@! TO.P,Regulator1,1*
G04 #@! TO.N,24V*
X115316000Y-109220000D03*
G04 #@! TD*
D30*
G04 #@! TO.P,IC1,1*
G04 #@! TO.N,/B0*
X142113000Y-92075000D03*
G04 #@! TO.P,IC1,2*
G04 #@! TO.N,/B1*
X144653000Y-92075000D03*
G04 #@! TO.P,IC1,3*
G04 #@! TO.N,/B2*
X147193000Y-92075000D03*
G04 #@! TO.P,IC1,4*
G04 #@! TO.N,/B3*
X149733000Y-92075000D03*
G04 #@! TO.P,IC1,5*
G04 #@! TO.N,/B4*
X152273000Y-92075000D03*
G04 #@! TO.P,IC1,6*
G04 #@! TO.N,/MOSI*
X154813000Y-92075000D03*
G04 #@! TO.P,IC1,7*
G04 #@! TO.N,/MISO*
X157353000Y-92075000D03*
G04 #@! TO.P,IC1,8*
G04 #@! TO.N,/SCK*
X159893000Y-92075000D03*
G04 #@! TO.P,IC1,9*
G04 #@! TO.N,/RST*
X162433000Y-92075000D03*
G04 #@! TO.P,IC1,10*
G04 #@! TO.N,5V*
X164973000Y-92075000D03*
G04 #@! TO.P,IC1,11*
G04 #@! TO.N,GND*
X167513000Y-92075000D03*
G04 #@! TO.P,IC1,12*
G04 #@! TO.N,Net-(C7-Pad2)*
X170053000Y-92075000D03*
G04 #@! TO.P,IC1,13*
G04 #@! TO.N,Net-(C8-Pad2)*
X172593000Y-92075000D03*
G04 #@! TO.P,IC1,14*
G04 #@! TO.N,/RX*
X175133000Y-92075000D03*
G04 #@! TO.P,IC1,15*
G04 #@! TO.N,/TX*
X177673000Y-92075000D03*
G04 #@! TO.P,IC1,16*
G04 #@! TO.N,/D2*
X180213000Y-92075000D03*
G04 #@! TO.P,IC1,17*
G04 #@! TO.N,/D3*
X182753000Y-92075000D03*
G04 #@! TO.P,IC1,18*
G04 #@! TO.N,/D4*
X185293000Y-92075000D03*
G04 #@! TO.P,IC1,19*
G04 #@! TO.N,/D5*
X187833000Y-92075000D03*
G04 #@! TO.P,IC1,20*
G04 #@! TO.N,/D6*
X190373000Y-92075000D03*
G04 #@! TO.P,IC1,21*
G04 #@! TO.N,/D7*
X190373000Y-76835000D03*
G04 #@! TO.P,IC1,22*
G04 #@! TO.N,/C0*
X187833000Y-76835000D03*
G04 #@! TO.P,IC1,23*
G04 #@! TO.N,/C1*
X185293000Y-76835000D03*
G04 #@! TO.P,IC1,24*
G04 #@! TO.N,/C2*
X182753000Y-76835000D03*
G04 #@! TO.P,IC1,25*
G04 #@! TO.N,/C3*
X180213000Y-76835000D03*
G04 #@! TO.P,IC1,26*
G04 #@! TO.N,/C4*
X177673000Y-76835000D03*
G04 #@! TO.P,IC1,27*
G04 #@! TO.N,/C5*
X175133000Y-76835000D03*
G04 #@! TO.P,IC1,28*
G04 #@! TO.N,/C6*
X172593000Y-76835000D03*
G04 #@! TO.P,IC1,29*
G04 #@! TO.N,/C7*
X170053000Y-76835000D03*
G04 #@! TO.P,IC1,30*
G04 #@! TO.N,5V*
X167513000Y-76835000D03*
G04 #@! TO.P,IC1,31*
G04 #@! TO.N,GND*
X164973000Y-76835000D03*
G04 #@! TO.P,IC1,32*
G04 #@! TO.N,5V*
X162433000Y-76835000D03*
G04 #@! TO.P,IC1,33*
G04 #@! TO.N,/A7*
X159893000Y-76835000D03*
G04 #@! TO.P,IC1,34*
G04 #@! TO.N,/A6*
X157353000Y-76835000D03*
G04 #@! TO.P,IC1,35*
G04 #@! TO.N,/A5*
X154813000Y-76835000D03*
G04 #@! TO.P,IC1,36*
G04 #@! TO.N,/A4*
X152273000Y-76835000D03*
G04 #@! TO.P,IC1,37*
G04 #@! TO.N,/A3*
X149733000Y-76835000D03*
G04 #@! TO.P,IC1,38*
G04 #@! TO.N,/A2*
X147193000Y-76835000D03*
G04 #@! TO.P,IC1,39*
G04 #@! TO.N,/A1*
X144653000Y-76835000D03*
G04 #@! TO.P,IC1,40*
G04 #@! TO.N,/A0*
X142113000Y-76835000D03*
G04 #@! TD*
D31*
G04 #@! TO.P,J4,1*
G04 #@! TO.N,24V*
X117500400Y-65303400D03*
D32*
G04 #@! TO.P,J4,2*
G04 #@! TO.N,12V*
X120000400Y-65303400D03*
G04 #@! TO.P,J4,3*
G04 #@! TO.N,5V*
X122500400Y-65303400D03*
G04 #@! TO.P,J4,4*
G04 #@! TO.N,GND*
X125000400Y-65303400D03*
G04 #@! TD*
D31*
G04 #@! TO.P,J3,1*
G04 #@! TO.N,24V*
X102870000Y-65303400D03*
D32*
G04 #@! TO.P,J3,2*
G04 #@! TO.N,12V*
X105370000Y-65303400D03*
G04 #@! TO.P,J3,3*
G04 #@! TO.N,5V*
X107870000Y-65303400D03*
G04 #@! TO.P,J3,4*
G04 #@! TO.N,GND*
X110370000Y-65303400D03*
G04 #@! TD*
D20*
G04 #@! TO.P,P11,8*
G04 #@! TO.N,/RX*
X178308000Y-101092000D03*
G04 #@! TO.P,P11,7*
G04 #@! TO.N,/TX*
X180848000Y-101092000D03*
G04 #@! TO.P,P11,6*
G04 #@! TO.N,/D2*
X183388000Y-101092000D03*
G04 #@! TO.P,P11,5*
G04 #@! TO.N,/D3*
X185928000Y-101092000D03*
G04 #@! TO.P,P11,4*
G04 #@! TO.N,/D4*
X188468000Y-101092000D03*
G04 #@! TO.P,P11,3*
G04 #@! TO.N,/D5*
X191008000Y-101092000D03*
G04 #@! TO.P,P11,2*
G04 #@! TO.N,/D6*
X193548000Y-101092000D03*
D19*
G04 #@! TO.P,P11,1*
G04 #@! TO.N,/D7*
X196088000Y-101092000D03*
G04 #@! TD*
D20*
G04 #@! TO.P,P13,8*
G04 #@! TO.N,/B0*
X141376400Y-109728000D03*
G04 #@! TO.P,P13,7*
G04 #@! TO.N,/B1*
X143916400Y-109728000D03*
G04 #@! TO.P,P13,6*
G04 #@! TO.N,/B2*
X146456400Y-109728000D03*
G04 #@! TO.P,P13,5*
G04 #@! TO.N,/B3*
X148996400Y-109728000D03*
G04 #@! TO.P,P13,4*
G04 #@! TO.N,/B4*
X151536400Y-109728000D03*
G04 #@! TO.P,P13,3*
G04 #@! TO.N,/MOSI*
X154076400Y-109728000D03*
G04 #@! TO.P,P13,2*
G04 #@! TO.N,/MISO*
X156616400Y-109728000D03*
D19*
G04 #@! TO.P,P13,1*
G04 #@! TO.N,/SCK*
X159156400Y-109728000D03*
G04 #@! TD*
D31*
G04 #@! TO.P,J1,1*
G04 #@! TO.N,24V*
X102870000Y-57327800D03*
D32*
G04 #@! TO.P,J1,2*
G04 #@! TO.N,12V*
X105370000Y-57327800D03*
G04 #@! TO.P,J1,3*
G04 #@! TO.N,5V*
X107870000Y-57327800D03*
G04 #@! TO.P,J1,4*
G04 #@! TO.N,GND*
X110370000Y-57327800D03*
G04 #@! TD*
D27*
G04 #@! TO.P,R5,1*
G04 #@! TO.N,Net-(D37-Pad2)*
X200467000Y-58547000D03*
G04 #@! TO.P,R5,2*
G04 #@! TO.N,5V*
X198567000Y-58547000D03*
G04 #@! TD*
D32*
G04 #@! TO.P,J2,4*
G04 #@! TO.N,GND*
X125000400Y-57327800D03*
G04 #@! TO.P,J2,3*
G04 #@! TO.N,5V*
X122500400Y-57327800D03*
G04 #@! TO.P,J2,2*
G04 #@! TO.N,12V*
X120000400Y-57327800D03*
D31*
G04 #@! TO.P,J2,1*
G04 #@! TO.N,24V*
X117500400Y-57327800D03*
G04 #@! TD*
D33*
G04 #@! TO.N,5V*
X161163000Y-89789000D03*
G04 #@! TO.N,/RST*
X168148000Y-83185000D03*
G04 #@! TO.N,/SCK*
X192278000Y-85217000D03*
G04 #@! TO.N,/RX*
X187452000Y-79883000D03*
G04 #@! TO.N,/TX*
X187452000Y-81280000D03*
G04 #@! TO.N,Net-(D36-Pad2)*
X194564000Y-54991000D03*
G04 #@! TO.N,Net-(D37-Pad2)*
X200533000Y-56642000D03*
G04 #@! TD*
D34*
G04 #@! TO.N,12V*
X127000000Y-50774600D02*
X132054600Y-50774600D01*
X112417834Y-50774600D02*
X127000000Y-50774600D01*
X108242000Y-44831000D02*
X108242000Y-46598766D01*
X108242000Y-46598766D02*
X112417834Y-50774600D01*
X99568000Y-91440000D02*
X103568500Y-91440000D01*
X103568500Y-91440000D02*
X110744000Y-84264500D01*
X99568000Y-91440000D02*
X101568000Y-91440000D01*
X101568000Y-91440000D02*
X114248000Y-104120000D01*
X114248000Y-104120000D02*
X115316000Y-104120000D01*
X136652000Y-58420000D02*
X136652000Y-67056000D01*
X110744000Y-84264500D02*
X111569500Y-85090000D01*
X109664500Y-83185000D02*
X110744000Y-84264500D01*
X132054600Y-50774600D02*
X136652000Y-55372000D01*
X136652000Y-55372000D02*
X136652000Y-58420000D01*
D35*
X108242000Y-44831000D02*
X108242000Y-44488000D01*
D34*
X136779000Y-58547000D02*
X136652000Y-58420000D01*
D35*
X136779000Y-58547000D02*
X136652000Y-58420000D01*
D34*
X103759000Y-76517500D02*
X105600500Y-78359000D01*
X98234500Y-76517500D02*
X103759000Y-76517500D01*
X107909998Y-78359000D02*
X109664500Y-80113502D01*
X105600500Y-78359000D02*
X107909998Y-78359000D01*
X109664500Y-80113502D02*
X109664500Y-83185000D01*
X111569500Y-85090000D02*
X114935000Y-85090000D01*
X108242000Y-43063234D02*
X106453766Y-41275000D01*
X108242000Y-44831000D02*
X108242000Y-43063234D01*
X106453766Y-41275000D02*
X98856800Y-41275000D01*
X98234500Y-41897300D02*
X98234500Y-76517500D01*
X98856800Y-41275000D02*
X98234500Y-41897300D01*
X105370000Y-65303400D02*
X105370000Y-57327800D01*
X119898800Y-57683400D02*
X120000400Y-57581800D01*
X114871500Y-85153500D02*
X114935000Y-85090000D01*
X120000400Y-57327800D02*
X120000400Y-65303400D01*
D35*
G04 #@! TO.N,GND*
X141859000Y-58547000D02*
X141732000Y-58420000D01*
X141732000Y-67056000D02*
X141732000Y-58420000D01*
X110370000Y-57327800D02*
X110370000Y-65303400D01*
G04 #@! TO.N,5V*
X191899500Y-55816500D02*
X191899500Y-57066500D01*
X191899500Y-57066500D02*
X193507000Y-58674000D01*
X193507000Y-58674000D02*
X194599000Y-58674000D01*
X139192000Y-58420000D02*
X139192000Y-67056000D01*
X98234500Y-86677500D02*
X103712570Y-86677500D01*
X103712570Y-86677500D02*
X105600500Y-84789570D01*
X198567000Y-58547000D02*
X198567000Y-60899000D01*
X198567000Y-60899000D02*
X200533000Y-62865000D01*
X198567000Y-58547000D02*
X196342000Y-58547000D01*
X196342000Y-58547000D02*
X196215000Y-58674000D01*
X167513000Y-75057000D02*
X167513000Y-76835000D01*
X165989000Y-73533000D02*
X167513000Y-75057000D01*
X163830000Y-73533000D02*
X165989000Y-73533000D01*
X162433000Y-74930000D02*
X163830000Y-73533000D01*
X162433000Y-76835000D02*
X162433000Y-74930000D01*
X163957000Y-89789000D02*
X161163000Y-89789000D01*
X164973000Y-90805000D02*
X163957000Y-89789000D01*
X164973000Y-92075000D02*
X164973000Y-90805000D01*
X198440000Y-58674000D02*
X198567000Y-58547000D01*
X200533000Y-62865000D02*
X200533000Y-77470000D01*
X125120400Y-49301400D02*
X132588000Y-49301400D01*
X116747200Y-48336200D02*
X113242000Y-44831000D01*
X124155200Y-48336200D02*
X116747200Y-48336200D01*
X124155200Y-48336200D02*
X125120400Y-49301400D01*
X113242000Y-44831000D02*
X113242000Y-45043000D01*
X107870000Y-57327800D02*
X107870000Y-65303400D01*
X105600500Y-84789570D02*
X105600500Y-83883500D01*
X105600500Y-83883500D02*
X105664000Y-83820000D01*
X105600500Y-84789570D02*
X105600500Y-84762001D01*
X107870000Y-65303400D02*
X107870000Y-67534800D01*
X107870000Y-67534800D02*
X109016800Y-68681600D01*
X109016800Y-68681600D02*
X121107200Y-68681600D01*
X121107200Y-68681600D02*
X122398800Y-67390000D01*
X122398800Y-67390000D02*
X122398800Y-65252600D01*
X194599000Y-58674000D02*
X196215000Y-58674000D01*
X139192000Y-54864000D02*
X135128000Y-50800000D01*
X133629400Y-49301400D02*
X132588000Y-49301400D01*
X133629400Y-49301400D02*
X135128000Y-50800000D01*
X139192000Y-58420000D02*
X139192000Y-54864000D01*
X122500400Y-58635947D02*
X122500400Y-65303400D01*
X122500400Y-57327800D02*
X122500400Y-58635947D01*
D36*
G04 #@! TO.N,Net-(C7-Pad2)*
X170053000Y-92075000D02*
X170053000Y-96746060D01*
X170053000Y-96746060D02*
X169136060Y-97663000D01*
G04 #@! TO.N,Net-(C8-Pad2)*
X172593000Y-96238060D02*
X174017940Y-97663000D01*
X172593000Y-92075000D02*
X172593000Y-96238060D01*
G04 #@! TO.N,/MOSI*
X154813000Y-92075000D02*
X154813000Y-91821000D01*
X154813000Y-91821000D02*
X164465000Y-82169000D01*
X196779400Y-77470000D02*
X197993000Y-77470000D01*
X164465000Y-82169000D02*
X193507542Y-82169000D01*
X196088000Y-79588542D02*
X196088000Y-78161400D01*
X193507542Y-82169000D02*
X196088000Y-79588542D01*
X196088000Y-78161400D02*
X196779400Y-77470000D01*
X154076400Y-109728000D02*
X154076400Y-108362000D01*
X154076400Y-108362000D02*
X154076400Y-101092000D01*
X149841000Y-120396000D02*
X154076400Y-116160600D01*
X154076400Y-116160600D02*
X154076400Y-109728000D01*
G04 #@! TO.N,/RST*
X196596000Y-82550000D02*
X197993000Y-82550000D01*
X168275000Y-83058000D02*
X196088000Y-83058000D01*
X196088000Y-83058000D02*
X196596000Y-82550000D01*
X168148000Y-83185000D02*
X168275000Y-83058000D01*
G04 #@! TO.N,/SCK*
X159156400Y-111094000D02*
X159156400Y-109728000D01*
X159841000Y-120396000D02*
X159841000Y-111778600D01*
X159841000Y-111778600D02*
X159156400Y-111094000D01*
X159156400Y-109728000D02*
X159156400Y-101092000D01*
X164084000Y-85217000D02*
X192278000Y-85217000D01*
X159893000Y-89408000D02*
X164084000Y-85217000D01*
X159893000Y-92075000D02*
X159893000Y-89408000D01*
G04 #@! TO.N,/MISO*
X157353000Y-90170000D02*
X163449000Y-84074000D01*
X194437000Y-84074000D02*
X197993000Y-87630000D01*
X156365000Y-118872000D02*
X154841000Y-120396000D01*
X156591000Y-118646000D02*
X156365000Y-118872000D01*
X156616400Y-118620600D02*
X156365000Y-118872000D01*
X156616400Y-109728000D02*
X156616400Y-118620600D01*
X156616400Y-109728000D02*
X156616400Y-106680000D01*
X156616400Y-106045000D02*
X156616400Y-106680000D01*
X156616400Y-106680000D02*
X156616400Y-101092000D01*
X157353000Y-92075000D02*
X157353000Y-91186000D01*
X163449000Y-84074000D02*
X194437000Y-84074000D01*
X157353000Y-92075000D02*
X157353000Y-90170000D01*
G04 #@! TO.N,/RX*
X193040000Y-78740000D02*
X193040000Y-65024000D01*
X187452000Y-79883000D02*
X191897000Y-79883000D01*
X194310000Y-63754000D02*
X196215000Y-63754000D01*
X175133000Y-92075000D02*
X175133000Y-92329000D01*
X191897000Y-79883000D02*
X193040000Y-78740000D01*
X193040000Y-65024000D02*
X194310000Y-63754000D01*
X178308000Y-107772200D02*
X178308000Y-112268000D01*
X178308000Y-107696000D02*
X178308000Y-107772200D01*
X178308000Y-114046000D02*
X177165000Y-115189000D01*
X177165000Y-115189000D02*
X171069000Y-115189000D01*
X171069000Y-115189000D02*
X165989000Y-120269000D01*
X178308000Y-112268000D02*
X178308000Y-114046000D01*
X178308000Y-107772200D02*
X178308000Y-101092000D01*
G04 #@! TO.N,/TX*
X194691000Y-80137000D02*
X194691000Y-67818000D01*
X193548000Y-81280000D02*
X194691000Y-80137000D01*
X180848000Y-108432600D02*
X180848000Y-107696000D01*
X194691000Y-67818000D02*
X196215000Y-66294000D01*
X187452000Y-81280000D02*
X193548000Y-81280000D01*
X180848000Y-107873800D02*
X180848000Y-112268000D01*
X180848000Y-107696000D02*
X180848000Y-107873800D01*
X180848000Y-115824000D02*
X180467000Y-116205000D01*
X180467000Y-116205000D02*
X175053000Y-116205000D01*
X175053000Y-116205000D02*
X170989000Y-120269000D01*
X180848000Y-112268000D02*
X180848000Y-115824000D01*
X180848000Y-107873800D02*
X180848000Y-101092000D01*
D34*
G04 #@! TO.N,24V*
X134112000Y-67056000D02*
X134112000Y-104140000D01*
X115316000Y-110236000D02*
X115316000Y-109220000D01*
X115316000Y-111252000D02*
X115316000Y-110236000D01*
X106680000Y-119380000D02*
X109280000Y-119380000D01*
X115316000Y-113344000D02*
X115316000Y-110236000D01*
X109280000Y-119380000D02*
X115316000Y-113344000D01*
X116840000Y-112776000D02*
X115316000Y-111252000D01*
X134112000Y-58420000D02*
X134112000Y-67056000D01*
X108356400Y-51713166D02*
X109475234Y-52832000D01*
X129073400Y-52832000D02*
X134112000Y-58420000D01*
D35*
X134239000Y-58547000D02*
X134112000Y-58420000D01*
D34*
X102997000Y-44831000D02*
X103242000Y-44831000D01*
X103242000Y-44831000D02*
X103242000Y-45330000D01*
X109475234Y-52832000D02*
X129073400Y-52832000D01*
X103242000Y-44831000D02*
X103242000Y-46598766D01*
X103242000Y-46598766D02*
X108356400Y-51713166D01*
X102870000Y-65303400D02*
X102870000Y-57327800D01*
X117500400Y-65151000D02*
X117398800Y-65252600D01*
X102870000Y-57327800D02*
X102870000Y-52298600D01*
X134112000Y-104140000D02*
X125476000Y-112776000D01*
X125476000Y-112776000D02*
X116840000Y-112776000D01*
X102870000Y-52298600D02*
X103022400Y-52146200D01*
X108789434Y-52146200D02*
X109475234Y-52832000D01*
X103022400Y-52146200D02*
X108789434Y-52146200D01*
X117500400Y-65303400D02*
X117500400Y-57327800D01*
D36*
G04 #@! TO.N,Net-(D36-Pad2)*
X193736000Y-55819000D02*
X194564000Y-54991000D01*
X193736000Y-55880000D02*
X193736000Y-55819000D01*
G04 #@! TO.N,Net-(D37-Pad2)*
X200467000Y-56708000D02*
X200533000Y-56642000D01*
X200467000Y-58547000D02*
X200467000Y-56708000D01*
G04 #@! TO.N,/B0*
X141376400Y-106045000D02*
X141376400Y-106680000D01*
X141376400Y-106680000D02*
X141376400Y-111480600D01*
X141376400Y-106680000D02*
X141376400Y-101092000D01*
X133756400Y-111480600D02*
X124841000Y-120396000D01*
X141376400Y-111480600D02*
X133756400Y-111480600D01*
G04 #@! TO.N,/B1*
X143916400Y-107188000D02*
X143916400Y-109728000D01*
X135937000Y-114300000D02*
X143002000Y-114300000D01*
X129841000Y-120396000D02*
X135937000Y-114300000D01*
X143002000Y-114300000D02*
X143916400Y-113385600D01*
X143916400Y-113385600D02*
X143916400Y-109728000D01*
X143916400Y-106045000D02*
X143916400Y-107188000D01*
X143916400Y-107188000D02*
X143916400Y-101092000D01*
G04 #@! TO.N,/B2*
X140048000Y-115189000D02*
X145576998Y-115189000D01*
X134841000Y-120396000D02*
X140048000Y-115189000D01*
X146456400Y-114309598D02*
X146456400Y-109728000D01*
X145576998Y-115189000D02*
X146456400Y-114309598D01*
X146456400Y-106680000D02*
X146456400Y-109728000D01*
X146456400Y-106045000D02*
X146456400Y-106680000D01*
X146456400Y-106680000D02*
X146456400Y-101092000D01*
G04 #@! TO.N,/B3*
X148996400Y-109728000D02*
X148996400Y-101092000D01*
X148996400Y-109728000D02*
X148996400Y-115544600D01*
X148996400Y-115544600D02*
X148463000Y-116078000D01*
X148971000Y-115570000D02*
X148463000Y-116078000D01*
X148463000Y-116078000D02*
X144159000Y-116078000D01*
X144159000Y-116078000D02*
X139841000Y-120396000D01*
G04 #@! TO.N,/B4*
X151536400Y-116052600D02*
X150622000Y-116967000D01*
X151536400Y-109728000D02*
X151536400Y-116052600D01*
X150622000Y-116967000D02*
X148270000Y-116967000D01*
X148270000Y-116967000D02*
X144841000Y-120396000D01*
X151536400Y-109728000D02*
X151536400Y-107696000D01*
X151536400Y-107696000D02*
X151536400Y-106680000D01*
X151536400Y-106045000D02*
X151536400Y-106680000D01*
X151536400Y-106680000D02*
X151536400Y-101092000D01*
G04 #@! TO.N,/D2*
X183388000Y-108077000D02*
X183388000Y-101092000D01*
X183388000Y-101092000D02*
X183388000Y-112268000D01*
X183388000Y-115189000D02*
X181483000Y-117094000D01*
X181483000Y-117094000D02*
X179164000Y-117094000D01*
X179164000Y-117094000D02*
X175989000Y-120269000D01*
X183388000Y-112268000D02*
X183388000Y-115189000D01*
X180213000Y-92075000D02*
X180467000Y-92075000D01*
G04 #@! TO.N,/D3*
X185928000Y-101092000D02*
X185928000Y-112268000D01*
X185928000Y-115330000D02*
X180989000Y-120269000D01*
X185928000Y-112268000D02*
X185928000Y-115330000D01*
X182753000Y-92075000D02*
X182753000Y-92329000D01*
G04 #@! TO.N,/D4*
X188468000Y-101092000D02*
X188468000Y-112268000D01*
X188468000Y-117790000D02*
X185989000Y-120269000D01*
X188468000Y-112268000D02*
X188468000Y-117790000D01*
X185293000Y-92075000D02*
X185293000Y-92710000D01*
G04 #@! TO.N,/D5*
X191008000Y-111480600D02*
X190989000Y-111499600D01*
X191008000Y-107696000D02*
X191008000Y-101092000D01*
X191008000Y-101092000D02*
X191008000Y-111480600D01*
X187833000Y-92075000D02*
X187833000Y-92329000D01*
X190989000Y-111499600D02*
X191008000Y-111480600D01*
X190989000Y-120269000D02*
X190989000Y-111499600D01*
G04 #@! TO.N,/D6*
X190373000Y-92075000D02*
X190754000Y-92075000D01*
X193548000Y-101092000D02*
X193548000Y-111480600D01*
X193548000Y-117828000D02*
X195989000Y-120269000D01*
X193548000Y-111480600D02*
X193548000Y-117828000D01*
G04 #@! TO.N,/D7*
X196088000Y-101092000D02*
X196088000Y-112268000D01*
X200989000Y-117169000D02*
X196088000Y-112268000D01*
X200989000Y-120269000D02*
X200989000Y-117169000D01*
G04 #@! TO.N,/C0*
X187833000Y-76835000D02*
X187833000Y-75335000D01*
X199136000Y-49276000D02*
X201041000Y-47371000D01*
X201041000Y-47371000D02*
X201041000Y-44831000D01*
X194564000Y-49276000D02*
X199136000Y-49276000D01*
X188468000Y-55372000D02*
X194564000Y-49276000D01*
X188468000Y-58928000D02*
X188468000Y-55372000D01*
X188468000Y-74700000D02*
X188468000Y-67056000D01*
X187833000Y-75335000D02*
X188468000Y-74700000D01*
X188468000Y-58928000D02*
X188468000Y-67056000D01*
G04 #@! TO.N,/C1*
X193040000Y-48260000D02*
X185928000Y-55372000D01*
X185928000Y-55372000D02*
X185928000Y-58928000D01*
X194379766Y-48260000D02*
X193040000Y-48260000D01*
X196041000Y-44831000D02*
X196041000Y-46598766D01*
X196041000Y-46598766D02*
X194379766Y-48260000D01*
X185293000Y-74803000D02*
X185928000Y-74168000D01*
X185928000Y-74168000D02*
X185928000Y-67056000D01*
X185293000Y-76835000D02*
X185293000Y-74803000D01*
X185928000Y-67056000D02*
X185928000Y-58928000D01*
G04 #@! TO.N,/C2*
X191041000Y-44831000D02*
X191041000Y-46598766D01*
X191041000Y-46598766D02*
X183388000Y-54251766D01*
X183388000Y-54251766D02*
X183388000Y-55880000D01*
X183388000Y-58928000D02*
X183388000Y-55880000D01*
X182753000Y-74803000D02*
X183388000Y-74168000D01*
X183388000Y-74168000D02*
X183388000Y-67056000D01*
X182753000Y-76835000D02*
X182753000Y-74803000D01*
X183388000Y-67056000D02*
X183642000Y-67056000D01*
X183388000Y-67056000D02*
X183388000Y-58928000D01*
G04 #@! TO.N,/C3*
X186041000Y-44831000D02*
X186041000Y-46598766D01*
X186041000Y-46598766D02*
X180848000Y-51791766D01*
X180848000Y-51791766D02*
X180848000Y-53340000D01*
X180848000Y-58928000D02*
X180848000Y-53340000D01*
X180213000Y-75311000D02*
X180848000Y-74676000D01*
X180848000Y-74676000D02*
X180848000Y-67056000D01*
X180213000Y-76835000D02*
X180213000Y-75311000D01*
X180848000Y-67056000D02*
X180848000Y-58928000D01*
G04 #@! TO.N,/C4*
X178308000Y-58928000D02*
X178308000Y-47564000D01*
X178308000Y-47564000D02*
X181041000Y-44831000D01*
X177673000Y-75311000D02*
X178308000Y-74676000D01*
X178308000Y-74676000D02*
X178308000Y-67056000D01*
X177673000Y-76835000D02*
X177673000Y-75311000D01*
X178308000Y-67056000D02*
X178308000Y-58928000D01*
G04 #@! TO.N,/C5*
X175768000Y-58928000D02*
X175768000Y-45104000D01*
X175768000Y-45104000D02*
X176041000Y-44831000D01*
X175768000Y-74700000D02*
X175768000Y-67056000D01*
X175133000Y-76835000D02*
X175133000Y-75335000D01*
X175133000Y-75335000D02*
X175768000Y-74700000D01*
X175768000Y-67056000D02*
X175768000Y-58928000D01*
G04 #@! TO.N,/C6*
X173228000Y-53848000D02*
X173228000Y-58928000D01*
X171041000Y-51661000D02*
X173228000Y-53848000D01*
X171041000Y-44831000D02*
X171041000Y-51661000D01*
X172593000Y-76835000D02*
X172593000Y-75335000D01*
X173228000Y-67056000D02*
X173228000Y-74168000D01*
X173228000Y-74700000D02*
X173228000Y-74168000D01*
X172593000Y-75335000D02*
X173228000Y-74700000D01*
X173228000Y-67056000D02*
X173228000Y-58928000D01*
X172910500Y-76517500D02*
X172593000Y-76835000D01*
G04 #@! TO.N,/C7*
X170688000Y-74700000D02*
X170688000Y-67056000D01*
X170688000Y-53848000D02*
X166041000Y-49201000D01*
X166041000Y-49201000D02*
X166041000Y-44831000D01*
X170688000Y-58928000D02*
X170688000Y-53848000D01*
X170180000Y-67564000D02*
X170688000Y-67056000D01*
X170688000Y-67056000D02*
X170688000Y-58928000D01*
X170053000Y-75335000D02*
X170688000Y-74700000D01*
X170053000Y-76835000D02*
X170053000Y-75335000D01*
G04 #@! TO.N,/A7*
X162052000Y-67056000D02*
X162052000Y-58420000D01*
X162052000Y-52324000D02*
X158242000Y-48514000D01*
X162052000Y-58420000D02*
X162052000Y-52324000D01*
X158242000Y-48514000D02*
X158242000Y-44831000D01*
G04 #@! TO.N,/A6*
X159512000Y-58420000D02*
X159512000Y-67056000D01*
X159512000Y-54356000D02*
X153242000Y-48086000D01*
X159512000Y-58420000D02*
X159512000Y-54356000D01*
X153242000Y-48086000D02*
X153242000Y-44831000D01*
G04 #@! TO.N,/A5*
X156972000Y-55328766D02*
X148242000Y-46598766D01*
X156972000Y-58420000D02*
X156972000Y-55328766D01*
X148242000Y-46598766D02*
X148242000Y-44831000D01*
X156972000Y-67056000D02*
X156972000Y-58420000D01*
G04 #@! TO.N,/A4*
X154432000Y-58420000D02*
X154432000Y-67056000D01*
X154432000Y-57054000D02*
X154432000Y-58420000D01*
X143242000Y-44831000D02*
X143242000Y-46598766D01*
X143242000Y-46598766D02*
X144553234Y-47910000D01*
X144553234Y-47910000D02*
X145288000Y-47910000D01*
X145288000Y-47910000D02*
X154432000Y-57054000D01*
G04 #@! TO.N,/A3*
X151892000Y-58267600D02*
X151892000Y-58420000D01*
X141376400Y-47752000D02*
X151892000Y-58267600D01*
X151892000Y-67056000D02*
X151892000Y-58420000D01*
X139395234Y-47752000D02*
X141376400Y-47752000D01*
X138242000Y-44831000D02*
X138242000Y-46598766D01*
X138242000Y-46598766D02*
X139395234Y-47752000D01*
G04 #@! TO.N,/A2*
X149352000Y-58420000D02*
X149352000Y-67056000D01*
X133242000Y-44831000D02*
X134917001Y-46506001D01*
X139700000Y-48615600D02*
X149352000Y-58267600D01*
X134917001Y-46506001D02*
X136422001Y-46506001D01*
X136422001Y-46506001D02*
X138531600Y-48615600D01*
X138531600Y-48615600D02*
X139700000Y-48615600D01*
X149352000Y-58267600D02*
X149352000Y-58420000D01*
G04 #@! TO.N,/A1*
X146812000Y-67056000D02*
X146812000Y-58420000D01*
X137096500Y-49339500D02*
X138279970Y-49339500D01*
X138279970Y-49339500D02*
X146812000Y-57871530D01*
X132207000Y-47371000D02*
X135128000Y-47371000D01*
X135128000Y-47371000D02*
X137096500Y-49339500D01*
X129667000Y-44831000D02*
X132207000Y-47371000D01*
X128242000Y-44831000D02*
X129667000Y-44831000D01*
X146812000Y-57871530D02*
X146812000Y-58420000D01*
G04 #@! TO.N,/A0*
X144272000Y-58420000D02*
X144272000Y-57912000D01*
X144272000Y-57912000D02*
X142240000Y-55880000D01*
X144272000Y-67056000D02*
X144272000Y-58420000D01*
X142240000Y-55880000D02*
X134620000Y-48260000D01*
X134620000Y-48260000D02*
X126671000Y-48260000D01*
X126671000Y-48260000D02*
X123242000Y-44831000D01*
G04 #@! TD*
M02*
