G04 #@! TF.GenerationSoftware,KiCad,Pcbnew,5.1.1*
G04 #@! TF.CreationDate,2019-04-25T13:19:34+05:30*
G04 #@! TF.ProjectId,OpenPLC_V2,4f70656e-504c-4435-9f56-322e6b696361,rev?*
G04 #@! TF.SameCoordinates,Original*
G04 #@! TF.FileFunction,Copper,L2,Bot*
G04 #@! TF.FilePolarity,Positive*
%FSLAX46Y46*%
G04 Gerber Fmt 4.6, Leading zero omitted, Abs format (unit mm)*
G04 Created by KiCad (PCBNEW 5.1.1) date 2019-04-25 13:19:34*
%MOMM*%
%LPD*%
G04 APERTURE LIST*
%ADD10C,2.500000*%
%ADD11R,2.500000X2.500000*%
%ADD12O,1.600000X2.300000*%
%ADD13R,1.727200X1.727200*%
%ADD14O,1.727200X1.727200*%
%ADD15O,1.700000X1.700000*%
%ADD16R,1.700000X1.700000*%
%ADD17C,1.501140*%
%ADD18R,1.600000X1.600000*%
%ADD19C,1.600000*%
%ADD20O,2.200000X2.200000*%
%ADD21R,2.200000X2.200000*%
%ADD22O,1.800000X1.800000*%
%ADD23R,1.800000X1.800000*%
%ADD24O,3.200000X3.200000*%
%ADD25R,3.200000X3.200000*%
%ADD26C,2.000000*%
%ADD27R,2.000000X2.000000*%
%ADD28O,1.800000X1.350000*%
%ADD29R,1.800000X1.350000*%
%ADD30R,1.850000X1.850000*%
%ADD31C,1.850000*%
%ADD32C,0.600000*%
%ADD33C,1.000000*%
%ADD34C,0.600000*%
%ADD35C,0.350000*%
G04 APERTURE END LIST*
D10*
X121026500Y-44704000D03*
X126026500Y-44704000D03*
X131026500Y-44704000D03*
X136026500Y-44704000D03*
X141026500Y-44704000D03*
X146026500Y-44704000D03*
D11*
X156026500Y-44704000D03*
D10*
X151026500Y-44704000D03*
D12*
X142113000Y-92075000D03*
X144653000Y-92075000D03*
X147193000Y-92075000D03*
X149733000Y-92075000D03*
X152273000Y-92075000D03*
X154813000Y-92075000D03*
X157353000Y-92075000D03*
X159893000Y-92075000D03*
X162433000Y-92075000D03*
X164973000Y-92075000D03*
X167513000Y-92075000D03*
X170053000Y-92075000D03*
X172593000Y-92075000D03*
X175133000Y-92075000D03*
X177673000Y-92075000D03*
X180213000Y-92075000D03*
X182753000Y-92075000D03*
X185293000Y-92075000D03*
X187833000Y-92075000D03*
X190373000Y-92075000D03*
X190373000Y-76835000D03*
X187833000Y-76835000D03*
X185293000Y-76835000D03*
X182753000Y-76835000D03*
X180213000Y-76835000D03*
X177673000Y-76835000D03*
X175133000Y-76835000D03*
X172593000Y-76835000D03*
X170053000Y-76835000D03*
X167513000Y-76835000D03*
X164973000Y-76835000D03*
X162433000Y-76835000D03*
X159893000Y-76835000D03*
X157353000Y-76835000D03*
X154813000Y-76835000D03*
X152273000Y-76835000D03*
X149733000Y-76835000D03*
X147193000Y-76835000D03*
X144653000Y-76835000D03*
X142113000Y-76835000D03*
D13*
X199390000Y-94996000D03*
D14*
X201930000Y-94996000D03*
X199390000Y-97536000D03*
X201930000Y-97536000D03*
X199390000Y-100076000D03*
X201930000Y-100076000D03*
X199390000Y-102616000D03*
X201930000Y-102616000D03*
X199390000Y-105156000D03*
X201930000Y-105156000D03*
D15*
X170465430Y-101092000D03*
X173005430Y-101092000D03*
X175545430Y-101092000D03*
X178085430Y-101092000D03*
X180625430Y-101092000D03*
X183165430Y-101092000D03*
X185705430Y-101092000D03*
D16*
X188245430Y-101092000D03*
D10*
X96012000Y-44704000D03*
X101012000Y-44704000D03*
D11*
X111012000Y-44704000D03*
D10*
X106012000Y-44704000D03*
D17*
X166204900Y-96514920D03*
X171086780Y-96514920D03*
D10*
X166041000Y-44831000D03*
X171041000Y-44831000D03*
X176041000Y-44831000D03*
X181041000Y-44831000D03*
X186041000Y-44831000D03*
X191041000Y-44831000D03*
D11*
X201041000Y-44831000D03*
D10*
X196041000Y-44831000D03*
X171041000Y-120269000D03*
D11*
X166041000Y-120269000D03*
D10*
X176041000Y-120269000D03*
X181041000Y-120269000D03*
X186041000Y-120269000D03*
X191041000Y-120269000D03*
X196041000Y-120269000D03*
X201041000Y-120269000D03*
X101012000Y-118872000D03*
D11*
X96012000Y-118872000D03*
D18*
X114935000Y-85090000D03*
D19*
X114935000Y-83090000D03*
D20*
X98231960Y-86677500D03*
D21*
X98231960Y-76517500D03*
D16*
X170688000Y-58420000D03*
D15*
X173228000Y-58420000D03*
X175768000Y-58420000D03*
X178308000Y-58420000D03*
X180848000Y-58420000D03*
X183388000Y-58420000D03*
X185928000Y-58420000D03*
X188468000Y-58420000D03*
X170465430Y-109728000D03*
X173005430Y-109728000D03*
X175545430Y-109728000D03*
X178085430Y-109728000D03*
X180625430Y-109728000D03*
X183165430Y-109728000D03*
X185705430Y-109728000D03*
D16*
X188245430Y-109728000D03*
X134092000Y-67056000D03*
D15*
X136632000Y-67056000D03*
X139172000Y-67056000D03*
X141712000Y-67056000D03*
X144252000Y-67056000D03*
X146792000Y-67056000D03*
X149332000Y-67056000D03*
X151872000Y-67056000D03*
X154412000Y-67056000D03*
X156952000Y-67056000D03*
X159492000Y-67056000D03*
X162032000Y-67056000D03*
X144262000Y-101092000D03*
X146802000Y-101092000D03*
X149342000Y-101092000D03*
X151882000Y-101092000D03*
X154422000Y-101092000D03*
X156962000Y-101092000D03*
X159502000Y-101092000D03*
D16*
X162042000Y-101092000D03*
X134092000Y-58420000D03*
D15*
X136632000Y-58420000D03*
X139172000Y-58420000D03*
X141712000Y-58420000D03*
X144252000Y-58420000D03*
X146792000Y-58420000D03*
X149332000Y-58420000D03*
X151872000Y-58420000D03*
X154412000Y-58420000D03*
X156952000Y-58420000D03*
X159492000Y-58420000D03*
X162032000Y-58420000D03*
D22*
X106030000Y-79077500D03*
X106030000Y-81617500D03*
D23*
X106030000Y-84157500D03*
D16*
X196160000Y-66030000D03*
D15*
X196160000Y-63490000D03*
X196160000Y-60950000D03*
X196160000Y-58410000D03*
D24*
X135651200Y-107696000D03*
D25*
X120411200Y-107696000D03*
D15*
X188468000Y-67056000D03*
X185928000Y-67056000D03*
X183388000Y-67056000D03*
X180848000Y-67056000D03*
X178308000Y-67056000D03*
X175768000Y-67056000D03*
X173228000Y-67056000D03*
D16*
X170688000Y-67056000D03*
D26*
X99568000Y-96440000D03*
D27*
X99568000Y-91440000D03*
D10*
X129841000Y-120396000D03*
D11*
X124841000Y-120396000D03*
D10*
X134841000Y-120396000D03*
X139841000Y-120396000D03*
X144841000Y-120396000D03*
X149841000Y-120396000D03*
X154841000Y-120396000D03*
X159841000Y-120396000D03*
D18*
X114935000Y-74962000D03*
D19*
X114935000Y-76962000D03*
D24*
X119380000Y-119380000D03*
D25*
X106680000Y-119380000D03*
D18*
X112776000Y-95504000D03*
D19*
X112776000Y-92004000D03*
D28*
X115316000Y-102420000D03*
X115316000Y-104120000D03*
X115316000Y-105820000D03*
X115316000Y-107520000D03*
D29*
X115316000Y-109220000D03*
D30*
X117500400Y-65303400D03*
D31*
X120000400Y-65303400D03*
X122500400Y-65303400D03*
X125000400Y-65303400D03*
D30*
X102870000Y-65303400D03*
D31*
X105370000Y-65303400D03*
X107870000Y-65303400D03*
X110370000Y-65303400D03*
D15*
X144262000Y-109728000D03*
X146802000Y-109728000D03*
X149342000Y-109728000D03*
X151882000Y-109728000D03*
X154422000Y-109728000D03*
X156962000Y-109728000D03*
X159502000Y-109728000D03*
D16*
X162042000Y-109728000D03*
D30*
X102870000Y-57327800D03*
D31*
X105370000Y-57327800D03*
X107870000Y-57327800D03*
X110370000Y-57327800D03*
X125000400Y-57327800D03*
X122500400Y-57327800D03*
X120000400Y-57327800D03*
D30*
X117500400Y-57327800D03*
D32*
X181102000Y-85852000D03*
X194056000Y-89408000D03*
D33*
X99568000Y-91440000D02*
X101568000Y-91440000D01*
X136652000Y-58420000D02*
X136652000Y-67056000D01*
X110744000Y-84264500D02*
X111569500Y-85090000D01*
X109664500Y-83185000D02*
X110744000Y-84264500D01*
X136779000Y-58547000D02*
X136652000Y-58420000D01*
D34*
X136779000Y-58547000D02*
X136652000Y-58420000D01*
D33*
X111569500Y-85090000D02*
X114935000Y-85090000D01*
X119898800Y-57683400D02*
X120000400Y-57581800D01*
X114871500Y-85153500D02*
X114935000Y-85090000D01*
X120000400Y-57327800D02*
X120000400Y-65303400D01*
D34*
X105600500Y-84789570D02*
X105600500Y-83883500D01*
X105600500Y-83883500D02*
X105664000Y-83820000D01*
X105600500Y-84789570D02*
X105600500Y-84762001D01*
D33*
X109664500Y-80269998D02*
X109664500Y-81370000D01*
X105912002Y-76517500D02*
X109664500Y-80269998D01*
X98234500Y-76517500D02*
X105912002Y-76517500D01*
X109664500Y-81370000D02*
X109664500Y-83185000D01*
X109664500Y-82423000D02*
X109664500Y-80269998D01*
X107930000Y-84157500D02*
X109664500Y-82423000D01*
X106030000Y-84157500D02*
X107930000Y-84157500D01*
X99568000Y-91440000D02*
X103660000Y-91440000D01*
X106030000Y-89070000D02*
X106030000Y-84157500D01*
X103660000Y-91440000D02*
X106030000Y-89070000D01*
X113416000Y-104120000D02*
X105800000Y-96504000D01*
X115316000Y-104120000D02*
X113416000Y-104120000D01*
X105800000Y-93580000D02*
X103660000Y-91440000D01*
X105800000Y-96504000D02*
X105800000Y-93580000D01*
X105370000Y-65303400D02*
X105370000Y-57327800D01*
X98231960Y-74417500D02*
X98231960Y-76517500D01*
X93218000Y-42926000D02*
X93218000Y-69403540D01*
X94869000Y-41275000D02*
X93218000Y-42926000D01*
X93218000Y-69403540D02*
X95758000Y-71943540D01*
X95758000Y-71943540D02*
X98231960Y-74417500D01*
X94996000Y-71181540D02*
X95758000Y-71943540D01*
X99350766Y-41275000D02*
X98044000Y-41275000D01*
X101012000Y-42936234D02*
X99350766Y-41275000D01*
X101012000Y-44704000D02*
X101012000Y-42936234D01*
X98044000Y-41275000D02*
X94869000Y-41275000D01*
X126974600Y-50774600D02*
X107082600Y-50774600D01*
X135314081Y-55880000D02*
X132080000Y-55880000D01*
X107082600Y-50774600D02*
X101012000Y-44704000D01*
X136652000Y-58420000D02*
X136652000Y-57217919D01*
X132080000Y-55880000D02*
X126974600Y-50774600D01*
X136652000Y-57217919D02*
X135314081Y-55880000D01*
D34*
X141859000Y-58547000D02*
X141732000Y-58420000D01*
X110370000Y-57327800D02*
X110370000Y-65303400D01*
X141732000Y-67056000D02*
X141732000Y-58420000D01*
X139192000Y-58420000D02*
X139192000Y-67056000D01*
X167513000Y-75057000D02*
X167513000Y-76835000D01*
X165989000Y-73533000D02*
X167513000Y-75057000D01*
X163830000Y-73533000D02*
X165989000Y-73533000D01*
X162433000Y-74930000D02*
X163830000Y-73533000D01*
X162433000Y-76835000D02*
X162433000Y-74930000D01*
X107870000Y-65303400D02*
X107870000Y-67534800D01*
X107870000Y-67534800D02*
X109016800Y-68681600D01*
X109016800Y-68681600D02*
X121107200Y-68681600D01*
X121107200Y-68681600D02*
X122398800Y-67390000D01*
X122398800Y-67390000D02*
X122398800Y-65252600D01*
X122500400Y-58635947D02*
X122500400Y-65303400D01*
X122500400Y-57327800D02*
X122500400Y-58635947D01*
X99331959Y-85577501D02*
X98231960Y-86677500D01*
X99331959Y-81878041D02*
X99331959Y-85577501D01*
X102132500Y-79077500D02*
X99331959Y-81878041D01*
X106030000Y-79077500D02*
X102132500Y-79077500D01*
X137922000Y-54356000D02*
X139192000Y-55626000D01*
X133604000Y-54356000D02*
X137922000Y-54356000D01*
X128549400Y-49301400D02*
X133604000Y-54356000D01*
X139192000Y-55626000D02*
X139192000Y-58420000D01*
X107870000Y-57327800D02*
X107870000Y-65303400D01*
X200533000Y-62992000D02*
X200533000Y-63754000D01*
X196215000Y-58674000D02*
X200533000Y-62992000D01*
X200533000Y-92377686D02*
X200533000Y-75946000D01*
X201930000Y-93774686D02*
X200533000Y-92377686D01*
X201930000Y-94996000D02*
X201930000Y-93774686D01*
X200533000Y-63754000D02*
X200533000Y-75946000D01*
X200533000Y-75946000D02*
X200533000Y-77470000D01*
X106012000Y-46471766D02*
X108841634Y-49301400D01*
X106012000Y-44704000D02*
X106012000Y-46471766D01*
X108841634Y-49301400D02*
X110490000Y-49301400D01*
X109349634Y-49301400D02*
X110490000Y-49301400D01*
X110490000Y-49301400D02*
X128549400Y-49301400D01*
D35*
X170053000Y-92671900D02*
X170053000Y-92075000D01*
X166204900Y-96520000D02*
X170053000Y-92671900D01*
X172593000Y-95013780D02*
X172593000Y-92075000D01*
X171086780Y-96520000D02*
X172593000Y-95013780D01*
X154813000Y-98943000D02*
X156962000Y-101092000D01*
X154813000Y-92075000D02*
X154813000Y-98943000D01*
X156962000Y-108525919D02*
X156962000Y-101092000D01*
X156962000Y-109728000D02*
X156962000Y-108525919D01*
X156962000Y-113275000D02*
X156962000Y-109728000D01*
X149841000Y-120396000D02*
X156962000Y-113275000D01*
X181102000Y-85852000D02*
X158750000Y-85852000D01*
X154813000Y-89789000D02*
X154813000Y-92075000D01*
X158750000Y-85852000D02*
X154813000Y-89789000D01*
X194056000Y-89408000D02*
X193756001Y-89707999D01*
X193756001Y-96774000D02*
X193756001Y-97236001D01*
X193756001Y-89707999D02*
X193756001Y-96774000D01*
X193756001Y-96774000D02*
X193756001Y-96982001D01*
X193756001Y-97236001D02*
X196596000Y-100076000D01*
X196596000Y-100076000D02*
X199390000Y-100076000D01*
X159893000Y-98943000D02*
X162042000Y-101092000D01*
X159893000Y-92075000D02*
X159893000Y-98943000D01*
X162042000Y-108528000D02*
X162042000Y-101092000D01*
X162042000Y-109728000D02*
X162042000Y-108528000D01*
X162042000Y-118195000D02*
X162042000Y-109728000D01*
X159841000Y-120396000D02*
X162042000Y-118195000D01*
X157353000Y-92075000D02*
X157353000Y-91186000D01*
X157353000Y-98943000D02*
X159502000Y-101092000D01*
X157353000Y-92075000D02*
X157353000Y-98943000D01*
X159502000Y-108525919D02*
X159502000Y-101092000D01*
X159502000Y-109728000D02*
X159502000Y-108525919D01*
X159502000Y-115735000D02*
X159502000Y-109728000D01*
X154841000Y-120396000D02*
X159502000Y-115735000D01*
X175133000Y-92075000D02*
X175133000Y-92329000D01*
X175133000Y-96424430D02*
X175133000Y-92075000D01*
X170465430Y-101092000D02*
X175133000Y-96424430D01*
X170465430Y-109728000D02*
X170465430Y-101092000D01*
X166041000Y-114152430D02*
X170465430Y-109728000D01*
X166041000Y-120269000D02*
X166041000Y-114152430D01*
X196215000Y-66030000D02*
X196098000Y-66030000D01*
X194691000Y-67437000D02*
X194691000Y-68326000D01*
X196098000Y-66030000D02*
X194691000Y-67437000D01*
X194691000Y-68326000D02*
X194691000Y-67818000D01*
X177673000Y-96424430D02*
X177673000Y-92075000D01*
X173005430Y-101092000D02*
X177673000Y-96424430D01*
X173005430Y-109728000D02*
X173005430Y-101092000D01*
X171041000Y-111692430D02*
X173005430Y-109728000D01*
X171041000Y-120269000D02*
X171041000Y-111692430D01*
D33*
X134112000Y-67056000D02*
X134112000Y-104140000D01*
X115316000Y-110236000D02*
X115316000Y-109220000D01*
X115316000Y-111252000D02*
X115316000Y-110236000D01*
X106680000Y-119380000D02*
X109280000Y-119380000D01*
X115316000Y-113344000D02*
X115316000Y-110236000D01*
X109280000Y-119380000D02*
X115316000Y-113344000D01*
X116840000Y-112776000D02*
X115316000Y-111252000D01*
X134112000Y-58420000D02*
X134112000Y-67056000D01*
D34*
X134239000Y-58547000D02*
X134112000Y-58420000D01*
D33*
X117500400Y-65151000D02*
X117398800Y-65252600D01*
X134112000Y-104140000D02*
X125476000Y-112776000D01*
X125476000Y-112776000D02*
X116840000Y-112776000D01*
X117500400Y-65303400D02*
X117500400Y-57327800D01*
X102398000Y-52832000D02*
X104902000Y-52832000D01*
X104902000Y-52832000D02*
X125730000Y-52832000D01*
X131318000Y-58420000D02*
X134112000Y-58420000D01*
X125730000Y-52832000D02*
X131318000Y-58420000D01*
X102870000Y-53594000D02*
X102870000Y-57327800D01*
X104902000Y-52832000D02*
X103632000Y-52832000D01*
X103632000Y-52832000D02*
X102870000Y-53594000D01*
X102870000Y-57327800D02*
X102870000Y-65303400D01*
X96012000Y-46471766D02*
X98526234Y-48986000D01*
X98526234Y-48986000D02*
X98552000Y-48986000D01*
X96012000Y-44704000D02*
X96012000Y-46471766D01*
X97536000Y-47970000D02*
X98552000Y-48986000D01*
X98552000Y-48986000D02*
X102398000Y-52832000D01*
D35*
X142113000Y-98943000D02*
X144262000Y-101092000D01*
X142113000Y-92075000D02*
X142113000Y-98943000D01*
X144262000Y-101092000D02*
X144262000Y-109728000D01*
X126441000Y-120396000D02*
X124841000Y-120396000D01*
X143412001Y-110577999D02*
X136259001Y-110577999D01*
X136259001Y-110577999D02*
X126441000Y-120396000D01*
X144262000Y-109728000D02*
X143412001Y-110577999D01*
X144653000Y-98943000D02*
X146802000Y-101092000D01*
X144653000Y-92075000D02*
X144653000Y-98943000D01*
X146802000Y-109728000D02*
X146802000Y-101092000D01*
X131090999Y-119146001D02*
X129841000Y-120396000D01*
X137461000Y-112776000D02*
X131090999Y-119146001D01*
X143754000Y-112776000D02*
X137461000Y-112776000D01*
X146802000Y-109728000D02*
X143754000Y-112776000D01*
X147193000Y-98943000D02*
X149342000Y-101092000D01*
X147193000Y-92075000D02*
X147193000Y-98943000D01*
X149342000Y-101092000D02*
X149342000Y-109728000D01*
X144770000Y-114300000D02*
X140937000Y-114300000D01*
X136090999Y-119146001D02*
X134841000Y-120396000D01*
X140937000Y-114300000D02*
X136090999Y-119146001D01*
X149342000Y-109728000D02*
X144770000Y-114300000D01*
X149733000Y-98943000D02*
X151882000Y-101092000D01*
X149733000Y-92075000D02*
X149733000Y-98943000D01*
X151882000Y-109728000D02*
X151882000Y-101092000D01*
X142463999Y-119146001D02*
X151032001Y-110577999D01*
X151032001Y-110577999D02*
X151882000Y-109728000D01*
X141090999Y-119146001D02*
X142463999Y-119146001D01*
X139841000Y-120396000D02*
X141090999Y-119146001D01*
X152273000Y-98943000D02*
X154422000Y-101092000D01*
X152273000Y-92075000D02*
X152273000Y-98943000D01*
X154422000Y-102294081D02*
X154422000Y-109728000D01*
X154422000Y-101092000D02*
X154422000Y-102294081D01*
X144841000Y-119309000D02*
X144841000Y-120396000D01*
X154422000Y-109728000D02*
X144841000Y-119309000D01*
X180213000Y-92075000D02*
X180467000Y-92075000D01*
X180213000Y-96424430D02*
X175545430Y-101092000D01*
X180213000Y-92075000D02*
X180213000Y-96424430D01*
X175545430Y-101092000D02*
X175545430Y-109728000D01*
X176041000Y-110223570D02*
X175545430Y-109728000D01*
X176041000Y-120269000D02*
X176041000Y-110223570D01*
X182753000Y-92075000D02*
X182753000Y-92329000D01*
X182753000Y-96424430D02*
X178085430Y-101092000D01*
X182753000Y-92075000D02*
X182753000Y-96424430D01*
X178085430Y-109728000D02*
X178085430Y-101092000D01*
X178085430Y-117313430D02*
X178085430Y-109728000D01*
X181041000Y-120269000D02*
X178085430Y-117313430D01*
X185293000Y-92075000D02*
X185293000Y-92710000D01*
X185293000Y-96424430D02*
X180625430Y-101092000D01*
X185293000Y-92075000D02*
X185293000Y-96424430D01*
X180625430Y-102294081D02*
X180625430Y-109728000D01*
X180625430Y-101092000D02*
X180625430Y-102294081D01*
X180625430Y-114853430D02*
X186041000Y-120269000D01*
X180625430Y-109728000D02*
X180625430Y-114853430D01*
X187833000Y-92075000D02*
X187833000Y-92329000D01*
X187833000Y-96424430D02*
X183165430Y-101092000D01*
X187833000Y-92075000D02*
X187833000Y-96424430D01*
X183165430Y-108525919D02*
X183165430Y-101092000D01*
X183165430Y-109728000D02*
X183165430Y-108525919D01*
X183165430Y-112393430D02*
X191041000Y-120269000D01*
X183165430Y-109728000D02*
X183165430Y-112393430D01*
X190373000Y-92075000D02*
X190754000Y-92075000D01*
X190373000Y-96424430D02*
X185705430Y-101092000D01*
X190373000Y-92075000D02*
X190373000Y-96424430D01*
X185705430Y-102294081D02*
X185705430Y-109728000D01*
X185705430Y-101092000D02*
X185705430Y-102294081D01*
X185705430Y-109933430D02*
X185705430Y-109728000D01*
X196041000Y-120269000D02*
X185705430Y-109933430D01*
X188245430Y-108528000D02*
X188245430Y-101092000D01*
X188245430Y-109728000D02*
X188245430Y-108528000D01*
X190500000Y-109728000D02*
X201041000Y-120269000D01*
X188245430Y-109728000D02*
X190500000Y-109728000D01*
X189445430Y-101092000D02*
X192278000Y-98259430D01*
X188245430Y-101092000D02*
X189445430Y-101092000D01*
X190373000Y-78335000D02*
X190373000Y-76835000D01*
X192278000Y-80240000D02*
X190373000Y-78335000D01*
X192278000Y-98259430D02*
X192278000Y-80240000D01*
X187833000Y-76835000D02*
X187833000Y-75335000D01*
X199136000Y-49276000D02*
X201041000Y-47371000D01*
X201041000Y-47371000D02*
X201041000Y-44831000D01*
X194564000Y-49276000D02*
X199136000Y-49276000D01*
X188468000Y-55372000D02*
X194564000Y-49276000D01*
X188468000Y-58928000D02*
X188468000Y-55372000D01*
X188468000Y-74700000D02*
X188468000Y-67056000D01*
X187833000Y-75335000D02*
X188468000Y-74700000D01*
X188468000Y-58928000D02*
X188468000Y-67056000D01*
X193040000Y-48260000D02*
X185928000Y-55372000D01*
X185928000Y-55372000D02*
X185928000Y-58928000D01*
X194379766Y-48260000D02*
X193040000Y-48260000D01*
X196041000Y-44831000D02*
X196041000Y-46598766D01*
X196041000Y-46598766D02*
X194379766Y-48260000D01*
X185293000Y-74803000D02*
X185928000Y-74168000D01*
X185928000Y-74168000D02*
X185928000Y-67056000D01*
X185293000Y-76835000D02*
X185293000Y-74803000D01*
X185928000Y-67056000D02*
X185928000Y-58928000D01*
X191041000Y-44831000D02*
X191041000Y-46598766D01*
X191041000Y-46598766D02*
X183388000Y-54251766D01*
X183388000Y-54251766D02*
X183388000Y-55880000D01*
X183388000Y-58928000D02*
X183388000Y-55880000D01*
X182753000Y-74803000D02*
X183388000Y-74168000D01*
X183388000Y-74168000D02*
X183388000Y-67056000D01*
X182753000Y-76835000D02*
X182753000Y-74803000D01*
X183388000Y-67056000D02*
X183642000Y-67056000D01*
X183388000Y-67056000D02*
X183388000Y-58928000D01*
X186041000Y-44831000D02*
X186041000Y-46598766D01*
X186041000Y-46598766D02*
X180848000Y-51791766D01*
X180848000Y-51791766D02*
X180848000Y-53340000D01*
X180848000Y-58928000D02*
X180848000Y-53340000D01*
X180213000Y-75311000D02*
X180848000Y-74676000D01*
X180848000Y-74676000D02*
X180848000Y-67056000D01*
X180213000Y-76835000D02*
X180213000Y-75311000D01*
X180848000Y-59500000D02*
X180848000Y-58420000D01*
X180848000Y-59500000D02*
X180848000Y-58928000D01*
X180848000Y-67056000D02*
X180848000Y-59500000D01*
X178308000Y-58928000D02*
X178308000Y-47564000D01*
X178308000Y-47564000D02*
X181041000Y-44831000D01*
X177673000Y-75311000D02*
X178308000Y-74676000D01*
X178308000Y-74676000D02*
X178308000Y-67056000D01*
X177673000Y-76835000D02*
X177673000Y-75311000D01*
X178308000Y-59290000D02*
X178308000Y-58420000D01*
X178308000Y-59290000D02*
X178308000Y-58928000D01*
X178308000Y-67056000D02*
X178308000Y-59290000D01*
X175768000Y-58928000D02*
X175768000Y-45104000D01*
X175768000Y-45104000D02*
X176041000Y-44831000D01*
X175768000Y-74700000D02*
X175768000Y-67056000D01*
X175133000Y-76835000D02*
X175133000Y-75335000D01*
X175133000Y-75335000D02*
X175768000Y-74700000D01*
X175768000Y-59600000D02*
X175768000Y-58928000D01*
X175768000Y-59600000D02*
X175768000Y-58420000D01*
X175768000Y-67056000D02*
X175768000Y-59600000D01*
X173228000Y-53848000D02*
X173228000Y-58928000D01*
X171041000Y-51661000D02*
X173228000Y-53848000D01*
X171041000Y-44831000D02*
X171041000Y-51661000D01*
X172593000Y-76835000D02*
X172593000Y-75335000D01*
X173228000Y-67056000D02*
X173228000Y-74168000D01*
X173228000Y-74700000D02*
X173228000Y-74168000D01*
X172593000Y-75335000D02*
X173228000Y-74700000D01*
X172910500Y-76517500D02*
X172593000Y-76835000D01*
X173228000Y-59370000D02*
X173228000Y-58420000D01*
X173228000Y-59370000D02*
X173228000Y-58928000D01*
X173228000Y-67056000D02*
X173228000Y-59370000D01*
X170688000Y-74700000D02*
X170688000Y-67056000D01*
X170688000Y-53848000D02*
X166041000Y-49201000D01*
X166041000Y-49201000D02*
X166041000Y-44831000D01*
X170688000Y-58928000D02*
X170688000Y-53848000D01*
X170180000Y-67564000D02*
X170688000Y-67056000D01*
X170053000Y-75335000D02*
X170688000Y-74700000D01*
X170053000Y-76835000D02*
X170053000Y-75335000D01*
X170688000Y-59450000D02*
X170688000Y-58420000D01*
X170688000Y-59450000D02*
X170688000Y-58928000D01*
X170688000Y-67056000D02*
X170688000Y-59450000D01*
X162052000Y-67056000D02*
X162052000Y-58420000D01*
X156781500Y-46221000D02*
X156788500Y-46228000D01*
X156788500Y-45466000D02*
X156788500Y-46228000D01*
X156781500Y-44704000D02*
X156781500Y-46221000D01*
X156026500Y-44704000D02*
X156026500Y-46304000D01*
X162032000Y-58420000D02*
X162032000Y-52309500D01*
X162032000Y-52309500D02*
X161290000Y-51567500D01*
X156026500Y-46304000D02*
X161290000Y-51567500D01*
X161290000Y-51567500D02*
X162052000Y-52329500D01*
X159512000Y-58420000D02*
X159512000Y-67056000D01*
X159512000Y-54957266D02*
X159512000Y-58420000D01*
X151026500Y-46471766D02*
X159512000Y-54957266D01*
X151026500Y-44704000D02*
X151026500Y-46471766D01*
X156972000Y-58420000D02*
X156972000Y-67056000D01*
X156972000Y-55118000D02*
X156972000Y-58420000D01*
X153924000Y-52070000D02*
X156972000Y-55118000D01*
X151624734Y-52070000D02*
X153924000Y-52070000D01*
X146026500Y-46471766D02*
X151624734Y-52070000D01*
X146026500Y-44704000D02*
X146026500Y-46471766D01*
X154432000Y-58420000D02*
X154432000Y-67056000D01*
X148656734Y-54102000D02*
X152146000Y-54102000D01*
X154432000Y-56388000D02*
X154432000Y-58420000D01*
X152146000Y-54102000D02*
X154432000Y-56388000D01*
X141026500Y-46471766D02*
X148656734Y-54102000D01*
X141026500Y-44704000D02*
X141026500Y-46471766D01*
X151892000Y-67056000D02*
X151892000Y-58420000D01*
X150622000Y-55372000D02*
X146694500Y-55372000D01*
X151892000Y-56642000D02*
X150622000Y-55372000D01*
X151892000Y-58420000D02*
X151892000Y-56642000D01*
X136026500Y-44704000D02*
X145932500Y-54610000D01*
X146694500Y-55372000D02*
X145932500Y-54610000D01*
X145932500Y-54610000D02*
X145424500Y-54102000D01*
X149352000Y-58420000D02*
X149352000Y-67056000D01*
X131026500Y-44704000D02*
X138046490Y-51723990D01*
X138046490Y-51723990D02*
X141639990Y-51723990D01*
X141639990Y-51723990D02*
X146304000Y-56388000D01*
X146304000Y-56388000D02*
X148590000Y-56388000D01*
X148590000Y-56388000D02*
X149352000Y-57150000D01*
X149352000Y-57150000D02*
X149352000Y-58420000D01*
X146812000Y-67056000D02*
X146812000Y-58420000D01*
X140716000Y-52324000D02*
X146812000Y-58420000D01*
X133944542Y-52324000D02*
X137922000Y-52324000D01*
X127214724Y-47659990D02*
X129280533Y-47659991D01*
X126026500Y-44704000D02*
X126026500Y-46471766D01*
X129280533Y-47659991D02*
X133944542Y-52324000D01*
X137922000Y-52324000D02*
X140716000Y-52324000D01*
X126026500Y-46471766D02*
X127214724Y-47659990D01*
X135636000Y-52324000D02*
X137922000Y-52324000D01*
X144272000Y-58420000D02*
X144272000Y-57912000D01*
X144272000Y-57912000D02*
X142240000Y-55880000D01*
X144272000Y-67056000D02*
X144272000Y-58420000D01*
X127000000Y-48260000D02*
X126671000Y-48260000D01*
X122982500Y-48260000D02*
X121788500Y-47066000D01*
X125730000Y-48260000D02*
X122982500Y-48260000D01*
X127000000Y-48260000D02*
X125730000Y-48260000D01*
X129032000Y-48260000D02*
X134112000Y-53340000D01*
X139700000Y-53340000D02*
X141224000Y-54864000D01*
X134112000Y-53340000D02*
X139700000Y-53340000D01*
X142240000Y-55880000D02*
X141224000Y-54864000D01*
X121788500Y-44711000D02*
X121781500Y-44704000D01*
X122814734Y-48260000D02*
X128524000Y-48260000D01*
X121026500Y-44704000D02*
X121026500Y-46471766D01*
X121026500Y-46471766D02*
X122814734Y-48260000D01*
X125730000Y-48260000D02*
X128524000Y-48260000D01*
X128524000Y-48260000D02*
X129032000Y-48260000D01*
M02*
