G04 #@! TF.GenerationSoftware,KiCad,Pcbnew,5.1.1*
G04 #@! TF.CreationDate,2019-04-25T13:19:34+05:30*
G04 #@! TF.ProjectId,OpenPLC_V2,4f70656e-504c-4435-9f56-322e6b696361,rev?*
G04 #@! TF.SameCoordinates,Original*
G04 #@! TF.FileFunction,Other,User*
%FSLAX46Y46*%
G04 Gerber Fmt 4.6, Leading zero omitted, Abs format (unit mm)*
G04 Created by KiCad (PCBNEW 5.1.1) date 2019-04-25 13:19:34*
%MOMM*%
%LPD*%
G04 APERTURE LIST*
%ADD10C,0.300000*%
G04 APERTURE END LIST*
D10*
X220210571Y-76621428D02*
X220282000Y-76478571D01*
X220353428Y-76407142D01*
X220496285Y-76335714D01*
X220567714Y-76335714D01*
X220710571Y-76407142D01*
X220782000Y-76478571D01*
X220853428Y-76621428D01*
X220853428Y-76907142D01*
X220782000Y-77050000D01*
X220710571Y-77121428D01*
X220567714Y-77192857D01*
X220496285Y-77192857D01*
X220353428Y-77121428D01*
X220282000Y-77050000D01*
X220210571Y-76907142D01*
X220210571Y-76621428D01*
X220139142Y-76478571D01*
X220067714Y-76407142D01*
X219924857Y-76335714D01*
X219639142Y-76335714D01*
X219496285Y-76407142D01*
X219424857Y-76478571D01*
X219353428Y-76621428D01*
X219353428Y-76907142D01*
X219424857Y-77050000D01*
X219496285Y-77121428D01*
X219639142Y-77192857D01*
X219924857Y-77192857D01*
X220067714Y-77121428D01*
X220139142Y-77050000D01*
X220210571Y-76907142D01*
X220853428Y-78550000D02*
X220853428Y-77835714D01*
X220139142Y-77764285D01*
X220210571Y-77835714D01*
X220282000Y-77978571D01*
X220282000Y-78335714D01*
X220210571Y-78478571D01*
X220139142Y-78550000D01*
X219996285Y-78621428D01*
X219639142Y-78621428D01*
X219496285Y-78550000D01*
X219424857Y-78478571D01*
X219353428Y-78335714D01*
X219353428Y-77978571D01*
X219424857Y-77835714D01*
X219496285Y-77764285D01*
X219496285Y-79264285D02*
X219424857Y-79335714D01*
X219353428Y-79264285D01*
X219424857Y-79192857D01*
X219496285Y-79264285D01*
X219353428Y-79264285D01*
X220210571Y-80192857D02*
X220282000Y-80050000D01*
X220353428Y-79978571D01*
X220496285Y-79907142D01*
X220567714Y-79907142D01*
X220710571Y-79978571D01*
X220782000Y-80050000D01*
X220853428Y-80192857D01*
X220853428Y-80478571D01*
X220782000Y-80621428D01*
X220710571Y-80692857D01*
X220567714Y-80764285D01*
X220496285Y-80764285D01*
X220353428Y-80692857D01*
X220282000Y-80621428D01*
X220210571Y-80478571D01*
X220210571Y-80192857D01*
X220139142Y-80050000D01*
X220067714Y-79978571D01*
X219924857Y-79907142D01*
X219639142Y-79907142D01*
X219496285Y-79978571D01*
X219424857Y-80050000D01*
X219353428Y-80192857D01*
X219353428Y-80478571D01*
X219424857Y-80621428D01*
X219496285Y-80692857D01*
X219639142Y-80764285D01*
X219924857Y-80764285D01*
X220067714Y-80692857D01*
X220139142Y-80621428D01*
X220210571Y-80478571D01*
X220853428Y-82121428D02*
X220853428Y-81407142D01*
X220139142Y-81335714D01*
X220210571Y-81407142D01*
X220282000Y-81550000D01*
X220282000Y-81907142D01*
X220210571Y-82050000D01*
X220139142Y-82121428D01*
X219996285Y-82192857D01*
X219639142Y-82192857D01*
X219496285Y-82121428D01*
X219424857Y-82050000D01*
X219353428Y-81907142D01*
X219353428Y-81550000D01*
X219424857Y-81407142D01*
X219496285Y-81335714D01*
X220710571Y-82764285D02*
X220782000Y-82835714D01*
X220853428Y-82978571D01*
X220853428Y-83335714D01*
X220782000Y-83478571D01*
X220710571Y-83550000D01*
X220567714Y-83621428D01*
X220424857Y-83621428D01*
X220210571Y-83550000D01*
X219353428Y-82692857D01*
X219353428Y-83621428D01*
X219353428Y-85407142D02*
X220353428Y-85407142D01*
X220210571Y-85407142D02*
X220282000Y-85478571D01*
X220353428Y-85621428D01*
X220353428Y-85835714D01*
X220282000Y-85978571D01*
X220139142Y-86050000D01*
X219353428Y-86050000D01*
X220139142Y-86050000D02*
X220282000Y-86121428D01*
X220353428Y-86264285D01*
X220353428Y-86478571D01*
X220282000Y-86621428D01*
X220139142Y-86692857D01*
X219353428Y-86692857D01*
X219353428Y-87407142D02*
X220353428Y-87407142D01*
X220210571Y-87407142D02*
X220282000Y-87478571D01*
X220353428Y-87621428D01*
X220353428Y-87835714D01*
X220282000Y-87978571D01*
X220139142Y-88050000D01*
X219353428Y-88050000D01*
X220139142Y-88050000D02*
X220282000Y-88121428D01*
X220353428Y-88264285D01*
X220353428Y-88478571D01*
X220282000Y-88621428D01*
X220139142Y-88692857D01*
X219353428Y-88692857D01*
X217932000Y-39624000D02*
X217932000Y-125476000D01*
X206756000Y-39624000D02*
X218518421Y-39624000D01*
X206756000Y-125476000D02*
X218518421Y-125476000D01*
X217932000Y-125476000D02*
X217345579Y-124349496D01*
X217932000Y-125476000D02*
X218518421Y-124349496D01*
X217932000Y-39624000D02*
X217345579Y-40750504D01*
X217932000Y-39624000D02*
X218518421Y-40750504D01*
X143280571Y-139430571D02*
X142423428Y-139430571D01*
X142852000Y-139430571D02*
X142852000Y-137930571D01*
X142709142Y-138144857D01*
X142566285Y-138287714D01*
X142423428Y-138359142D01*
X144709142Y-139430571D02*
X143852000Y-139430571D01*
X144280571Y-139430571D02*
X144280571Y-137930571D01*
X144137714Y-138144857D01*
X143994857Y-138287714D01*
X143852000Y-138359142D01*
X145994857Y-138430571D02*
X145994857Y-139430571D01*
X145637714Y-137859142D02*
X145280571Y-138930571D01*
X146209142Y-138930571D01*
X146780571Y-139287714D02*
X146852000Y-139359142D01*
X146780571Y-139430571D01*
X146709142Y-139359142D01*
X146780571Y-139287714D01*
X146780571Y-139430571D01*
X147709142Y-138573428D02*
X147566285Y-138502000D01*
X147494857Y-138430571D01*
X147423428Y-138287714D01*
X147423428Y-138216285D01*
X147494857Y-138073428D01*
X147566285Y-138002000D01*
X147709142Y-137930571D01*
X147994857Y-137930571D01*
X148137714Y-138002000D01*
X148209142Y-138073428D01*
X148280571Y-138216285D01*
X148280571Y-138287714D01*
X148209142Y-138430571D01*
X148137714Y-138502000D01*
X147994857Y-138573428D01*
X147709142Y-138573428D01*
X147566285Y-138644857D01*
X147494857Y-138716285D01*
X147423428Y-138859142D01*
X147423428Y-139144857D01*
X147494857Y-139287714D01*
X147566285Y-139359142D01*
X147709142Y-139430571D01*
X147994857Y-139430571D01*
X148137714Y-139359142D01*
X148209142Y-139287714D01*
X148280571Y-139144857D01*
X148280571Y-138859142D01*
X148209142Y-138716285D01*
X148137714Y-138644857D01*
X147994857Y-138573428D01*
X149209142Y-137930571D02*
X149352000Y-137930571D01*
X149494857Y-138002000D01*
X149566285Y-138073428D01*
X149637714Y-138216285D01*
X149709142Y-138502000D01*
X149709142Y-138859142D01*
X149637714Y-139144857D01*
X149566285Y-139287714D01*
X149494857Y-139359142D01*
X149352000Y-139430571D01*
X149209142Y-139430571D01*
X149066285Y-139359142D01*
X148994857Y-139287714D01*
X148923428Y-139144857D01*
X148852000Y-138859142D01*
X148852000Y-138502000D01*
X148923428Y-138216285D01*
X148994857Y-138073428D01*
X149066285Y-138002000D01*
X149209142Y-137930571D01*
X150566285Y-138573428D02*
X150423428Y-138502000D01*
X150352000Y-138430571D01*
X150280571Y-138287714D01*
X150280571Y-138216285D01*
X150352000Y-138073428D01*
X150423428Y-138002000D01*
X150566285Y-137930571D01*
X150852000Y-137930571D01*
X150994857Y-138002000D01*
X151066285Y-138073428D01*
X151137714Y-138216285D01*
X151137714Y-138287714D01*
X151066285Y-138430571D01*
X150994857Y-138502000D01*
X150852000Y-138573428D01*
X150566285Y-138573428D01*
X150423428Y-138644857D01*
X150352000Y-138716285D01*
X150280571Y-138859142D01*
X150280571Y-139144857D01*
X150352000Y-139287714D01*
X150423428Y-139359142D01*
X150566285Y-139430571D01*
X150852000Y-139430571D01*
X150994857Y-139359142D01*
X151066285Y-139287714D01*
X151137714Y-139144857D01*
X151137714Y-138859142D01*
X151066285Y-138716285D01*
X150994857Y-138644857D01*
X150852000Y-138573428D01*
X152923428Y-139430571D02*
X152923428Y-138430571D01*
X152923428Y-138573428D02*
X152994857Y-138502000D01*
X153137714Y-138430571D01*
X153352000Y-138430571D01*
X153494857Y-138502000D01*
X153566285Y-138644857D01*
X153566285Y-139430571D01*
X153566285Y-138644857D02*
X153637714Y-138502000D01*
X153780571Y-138430571D01*
X153994857Y-138430571D01*
X154137714Y-138502000D01*
X154209142Y-138644857D01*
X154209142Y-139430571D01*
X154923428Y-139430571D02*
X154923428Y-138430571D01*
X154923428Y-138573428D02*
X154994857Y-138502000D01*
X155137714Y-138430571D01*
X155352000Y-138430571D01*
X155494857Y-138502000D01*
X155566285Y-138644857D01*
X155566285Y-139430571D01*
X155566285Y-138644857D02*
X155637714Y-138502000D01*
X155780571Y-138430571D01*
X155994857Y-138430571D01*
X156137714Y-138502000D01*
X156209142Y-138644857D01*
X156209142Y-139430571D01*
X91948000Y-136652000D02*
X206756000Y-136652000D01*
X91948000Y-124968000D02*
X91948000Y-137238421D01*
X206756000Y-124968000D02*
X206756000Y-137238421D01*
X206756000Y-136652000D02*
X205629496Y-137238421D01*
X206756000Y-136652000D02*
X205629496Y-136065579D01*
X91948000Y-136652000D02*
X93074504Y-137238421D01*
X91948000Y-136652000D02*
X93074504Y-136065579D01*
M02*
