%FSLAX45Y45*%
G04 Gerber Fmt 4.5, Leading zero omitted, Abs format (unit mm)*
G04 Created by KiCad (PCBNEW 5.1.1) date 2019-04-25 13:19:21*
%MOMM*%
%LPD*%
G04 APERTURE LIST*
%ADD10C,0.150000*%
%ADD11C,0.200000*%
%ADD12C,0.300000*%
G04 APERTURE END LIST*
D10*
X9207500Y-3987800D02*
X20675600Y-3987800D01*
X20675600Y-3987800D02*
X20675600Y-12509500D01*
X9194800Y-12509500D02*
X9194800Y-3987800D01*
X20675600Y-12509500D02*
X9194800Y-12509500D01*
X12407900Y-12103100D02*
X12382500Y-12103100D01*
X9194800Y-3987800D02*
X9207500Y-3987800D01*
D11*
X18090200Y-8565200D02*
X18130200Y-8605200D01*
X18130200Y-8565200D02*
X18090200Y-8605200D01*
X19385600Y-8920800D02*
X19425600Y-8960800D01*
X19425600Y-8920800D02*
X19385600Y-8960800D01*
X11533500Y-8309000D02*
G75*
G03X11533500Y-8309000I-40000J0D01*
G01*
X11533500Y-8509000D02*
G75*
G03X11533500Y-8509000I-40000J0D01*
G01*
X14251300Y-7683500D02*
G75*
G03X14251300Y-7683500I-40000J0D01*
G01*
X14251300Y-9207500D02*
G75*
G03X14251300Y-9207500I-40000J0D01*
G01*
X14505300Y-7683500D02*
G75*
G03X14505300Y-7683500I-40000J0D01*
G01*
X14505300Y-9207500D02*
G75*
G03X14505300Y-9207500I-40000J0D01*
G01*
X14759300Y-7683500D02*
G75*
G03X14759300Y-7683500I-40000J0D01*
G01*
X14759300Y-9207500D02*
G75*
G03X14759300Y-9207500I-40000J0D01*
G01*
X15013300Y-7683500D02*
G75*
G03X15013300Y-7683500I-40000J0D01*
G01*
X15013300Y-9207500D02*
G75*
G03X15013300Y-9207500I-40000J0D01*
G01*
X15267300Y-7683500D02*
G75*
G03X15267300Y-7683500I-40000J0D01*
G01*
X15267300Y-9207500D02*
G75*
G03X15267300Y-9207500I-40000J0D01*
G01*
X15521300Y-7683500D02*
G75*
G03X15521300Y-7683500I-40000J0D01*
G01*
X15521300Y-9207500D02*
G75*
G03X15521300Y-9207500I-40000J0D01*
G01*
X15775300Y-7683500D02*
G75*
G03X15775300Y-7683500I-40000J0D01*
G01*
X15775300Y-9207500D02*
G75*
G03X15775300Y-9207500I-40000J0D01*
G01*
X16029300Y-7683500D02*
G75*
G03X16029300Y-7683500I-40000J0D01*
G01*
X16029300Y-9207500D02*
G75*
G03X16029300Y-9207500I-40000J0D01*
G01*
X16283300Y-7683500D02*
G75*
G03X16283300Y-7683500I-40000J0D01*
G01*
X16283300Y-9207500D02*
G75*
G03X16283300Y-9207500I-40000J0D01*
G01*
X16537300Y-7683500D02*
G75*
G03X16537300Y-7683500I-40000J0D01*
G01*
X16537300Y-9207500D02*
G75*
G03X16537300Y-9207500I-40000J0D01*
G01*
X16791300Y-7683500D02*
G75*
G03X16791300Y-7683500I-40000J0D01*
G01*
X16791300Y-9207500D02*
G75*
G03X16791300Y-9207500I-40000J0D01*
G01*
X17045300Y-7683500D02*
G75*
G03X17045300Y-7683500I-40000J0D01*
G01*
X17045300Y-9207500D02*
G75*
G03X17045300Y-9207500I-40000J0D01*
G01*
X17299300Y-7683500D02*
G75*
G03X17299300Y-7683500I-40000J0D01*
G01*
X17299300Y-9207500D02*
G75*
G03X17299300Y-9207500I-40000J0D01*
G01*
X17553300Y-7683500D02*
G75*
G03X17553300Y-7683500I-40000J0D01*
G01*
X17553300Y-9207500D02*
G75*
G03X17553300Y-9207500I-40000J0D01*
G01*
X17807300Y-7683500D02*
G75*
G03X17807300Y-7683500I-40000J0D01*
G01*
X17807300Y-9207500D02*
G75*
G03X17807300Y-9207500I-40000J0D01*
G01*
X18061300Y-7683500D02*
G75*
G03X18061300Y-7683500I-40000J0D01*
G01*
X18061300Y-9207500D02*
G75*
G03X18061300Y-9207500I-40000J0D01*
G01*
X18315300Y-7683500D02*
G75*
G03X18315300Y-7683500I-40000J0D01*
G01*
X18315300Y-9207500D02*
G75*
G03X18315300Y-9207500I-40000J0D01*
G01*
X18569300Y-7683500D02*
G75*
G03X18569300Y-7683500I-40000J0D01*
G01*
X18569300Y-9207500D02*
G75*
G03X18569300Y-9207500I-40000J0D01*
G01*
X18823300Y-7683500D02*
G75*
G03X18823300Y-7683500I-40000J0D01*
G01*
X18823300Y-9207500D02*
G75*
G03X18823300Y-9207500I-40000J0D01*
G01*
X19077300Y-7683500D02*
G75*
G03X19077300Y-7683500I-40000J0D01*
G01*
X19077300Y-9207500D02*
G75*
G03X19077300Y-9207500I-40000J0D01*
G01*
X11533500Y-7496200D02*
G75*
G03X11533500Y-7496200I-40000J0D01*
G01*
X11533500Y-7696200D02*
G75*
G03X11533500Y-7696200I-40000J0D01*
G01*
X11317600Y-9200400D02*
G75*
G03X11317600Y-9200400I-40000J0D01*
G01*
X11317600Y-9550400D02*
G75*
G03X11317600Y-9550400I-40000J0D01*
G01*
X16620490Y-9611487D02*
X16620490Y-9691497D01*
X16580485Y-9651492D02*
X16660495Y-9651492D01*
X17108678Y-9611487D02*
X17108678Y-9691497D01*
X17068673Y-9651492D02*
X17148683Y-9651492D01*
X11781860Y-6562160D02*
X11781860Y-6498520D01*
X11718220Y-6498520D01*
X11718220Y-6562160D01*
X11781860Y-6562160D01*
X12031860Y-6562160D02*
X12031860Y-6498520D01*
X11968220Y-6498520D01*
X11968220Y-6562160D01*
X12031860Y-6562160D01*
X12281860Y-6562160D02*
X12281860Y-6498520D01*
X12218220Y-6498520D01*
X12218220Y-6562160D01*
X12281860Y-6562160D01*
X12531860Y-6562160D02*
X12531860Y-6498520D01*
X12468220Y-6498520D01*
X12468220Y-6562160D01*
X12531860Y-6562160D01*
X10318820Y-5764600D02*
X10318820Y-5700960D01*
X10255180Y-5700960D01*
X10255180Y-5764600D01*
X10318820Y-5764600D01*
X10568820Y-5764600D02*
X10568820Y-5700960D01*
X10505180Y-5700960D01*
X10505180Y-5764600D01*
X10568820Y-5764600D01*
X10818820Y-5764600D02*
X10818820Y-5700960D01*
X10755180Y-5700960D01*
X10755180Y-5764600D01*
X10818820Y-5764600D01*
X11068820Y-5764600D02*
X11068820Y-5700960D01*
X11005180Y-5700960D01*
X11005180Y-5764600D01*
X11068820Y-5764600D01*
X10318820Y-6562160D02*
X10318820Y-6498520D01*
X10255180Y-6498520D01*
X10255180Y-6562160D01*
X10318820Y-6562160D01*
X10568820Y-6562160D02*
X10568820Y-6498520D01*
X10505180Y-6498520D01*
X10505180Y-6562160D01*
X10568820Y-6562160D01*
X10818820Y-6562160D02*
X10818820Y-6498520D01*
X10755180Y-6498520D01*
X10755180Y-6562160D01*
X10818820Y-6562160D01*
X11068820Y-6562160D02*
X11068820Y-6498520D01*
X11005180Y-6498520D01*
X11005180Y-6562160D01*
X11068820Y-6562160D01*
X11781860Y-5764600D02*
X11781860Y-5700960D01*
X11718220Y-5700960D01*
X11718220Y-5764600D01*
X11781860Y-5764600D01*
X12031860Y-5764600D02*
X12031860Y-5700960D01*
X11968220Y-5700960D01*
X11968220Y-5764600D01*
X12031860Y-5764600D01*
X12281860Y-5764600D02*
X12281860Y-5700960D01*
X12218220Y-5700960D01*
X12218220Y-5764600D01*
X12281860Y-5764600D01*
X12531860Y-5764600D02*
X12531860Y-5700960D01*
X12468220Y-5700960D01*
X12468220Y-5764600D01*
X12531860Y-5764600D01*
X11531600Y-10292000D02*
X11581600Y-10242000D01*
X11531600Y-10192000D01*
X11481600Y-10242000D01*
X11531600Y-10292000D01*
X11531600Y-10462000D02*
X11581600Y-10412000D01*
X11531600Y-10362000D01*
X11481600Y-10412000D01*
X11531600Y-10462000D01*
X11531600Y-10632000D02*
X11581600Y-10582000D01*
X11531600Y-10532000D01*
X11481600Y-10582000D01*
X11531600Y-10632000D01*
X11531600Y-10802000D02*
X11581600Y-10752000D01*
X11531600Y-10702000D01*
X11481600Y-10752000D01*
X11531600Y-10802000D01*
X11531600Y-10972000D02*
X11581600Y-10922000D01*
X11531600Y-10872000D01*
X11481600Y-10922000D01*
X11531600Y-10972000D01*
X19616000Y-5891000D02*
X19666000Y-5841000D01*
X19616000Y-5791000D01*
X19566000Y-5841000D01*
X19616000Y-5891000D01*
X19616000Y-6145000D02*
X19666000Y-6095000D01*
X19616000Y-6045000D01*
X19566000Y-6095000D01*
X19616000Y-6145000D01*
X19616000Y-6399000D02*
X19666000Y-6349000D01*
X19616000Y-6299000D01*
X19566000Y-6349000D01*
X19616000Y-6399000D01*
X19616000Y-6653000D02*
X19666000Y-6603000D01*
X19616000Y-6553000D01*
X19566000Y-6603000D01*
X19616000Y-6653000D01*
X17068800Y-6755600D02*
X17118800Y-6705600D01*
X17068800Y-6655600D01*
X17018800Y-6705600D01*
X17068800Y-6755600D01*
X17322800Y-6755600D02*
X17372800Y-6705600D01*
X17322800Y-6655600D01*
X17272800Y-6705600D01*
X17322800Y-6755600D01*
X17576800Y-6755600D02*
X17626800Y-6705600D01*
X17576800Y-6655600D01*
X17526800Y-6705600D01*
X17576800Y-6755600D01*
X17830800Y-6755600D02*
X17880800Y-6705600D01*
X17830800Y-6655600D01*
X17780800Y-6705600D01*
X17830800Y-6755600D01*
X18084800Y-6755600D02*
X18134800Y-6705600D01*
X18084800Y-6655600D01*
X18034800Y-6705600D01*
X18084800Y-6755600D01*
X18338800Y-6755600D02*
X18388800Y-6705600D01*
X18338800Y-6655600D01*
X18288800Y-6705600D01*
X18338800Y-6755600D01*
X18592800Y-6755600D02*
X18642800Y-6705600D01*
X18592800Y-6655600D01*
X18542800Y-6705600D01*
X18592800Y-6755600D01*
X18846800Y-6755600D02*
X18896800Y-6705600D01*
X18846800Y-6655600D01*
X18796800Y-6705600D01*
X18846800Y-6755600D01*
X9956800Y-9194000D02*
X10006800Y-9144000D01*
X9956800Y-9094000D01*
X9906800Y-9144000D01*
X9956800Y-9194000D01*
X9956800Y-9694000D02*
X10006800Y-9644000D01*
X9956800Y-9594000D01*
X9906800Y-9644000D01*
X9956800Y-9694000D01*
X14426200Y-11022800D02*
X14476200Y-10972800D01*
X14426200Y-10922800D01*
X14376200Y-10972800D01*
X14426200Y-11022800D01*
X14680200Y-11022800D02*
X14730200Y-10972800D01*
X14680200Y-10922800D01*
X14630200Y-10972800D01*
X14680200Y-11022800D01*
X14934200Y-11022800D02*
X14984200Y-10972800D01*
X14934200Y-10922800D01*
X14884200Y-10972800D01*
X14934200Y-11022800D01*
X15188200Y-11022800D02*
X15238200Y-10972800D01*
X15188200Y-10922800D01*
X15138200Y-10972800D01*
X15188200Y-11022800D01*
X15442200Y-11022800D02*
X15492200Y-10972800D01*
X15442200Y-10922800D01*
X15392200Y-10972800D01*
X15442200Y-11022800D01*
X15696200Y-11022800D02*
X15746200Y-10972800D01*
X15696200Y-10922800D01*
X15646200Y-10972800D01*
X15696200Y-11022800D01*
X15950200Y-11022800D02*
X16000200Y-10972800D01*
X15950200Y-10922800D01*
X15900200Y-10972800D01*
X15950200Y-11022800D01*
X16204200Y-11022800D02*
X16254200Y-10972800D01*
X16204200Y-10922800D01*
X16154200Y-10972800D01*
X16204200Y-11022800D01*
X17068800Y-5892000D02*
X17118800Y-5842000D01*
X17068800Y-5792000D01*
X17018800Y-5842000D01*
X17068800Y-5892000D01*
X17322800Y-5892000D02*
X17372800Y-5842000D01*
X17322800Y-5792000D01*
X17272800Y-5842000D01*
X17322800Y-5892000D01*
X17576800Y-5892000D02*
X17626800Y-5842000D01*
X17576800Y-5792000D01*
X17526800Y-5842000D01*
X17576800Y-5892000D01*
X17830800Y-5892000D02*
X17880800Y-5842000D01*
X17830800Y-5792000D01*
X17780800Y-5842000D01*
X17830800Y-5892000D01*
X18084800Y-5892000D02*
X18134800Y-5842000D01*
X18084800Y-5792000D01*
X18034800Y-5842000D01*
X18084800Y-5892000D01*
X18338800Y-5892000D02*
X18388800Y-5842000D01*
X18338800Y-5792000D01*
X18288800Y-5842000D01*
X18338800Y-5892000D01*
X18592800Y-5892000D02*
X18642800Y-5842000D01*
X18592800Y-5792000D01*
X18542800Y-5842000D01*
X18592800Y-5892000D01*
X18846800Y-5892000D02*
X18896800Y-5842000D01*
X18846800Y-5792000D01*
X18796800Y-5842000D01*
X18846800Y-5892000D01*
X13409200Y-5892000D02*
X13459200Y-5842000D01*
X13409200Y-5792000D01*
X13359200Y-5842000D01*
X13409200Y-5892000D01*
X13663200Y-5892000D02*
X13713200Y-5842000D01*
X13663200Y-5792000D01*
X13613200Y-5842000D01*
X13663200Y-5892000D01*
X13917200Y-5892000D02*
X13967200Y-5842000D01*
X13917200Y-5792000D01*
X13867200Y-5842000D01*
X13917200Y-5892000D01*
X14171200Y-5892000D02*
X14221200Y-5842000D01*
X14171200Y-5792000D01*
X14121200Y-5842000D01*
X14171200Y-5892000D01*
X14425200Y-5892000D02*
X14475200Y-5842000D01*
X14425200Y-5792000D01*
X14375200Y-5842000D01*
X14425200Y-5892000D01*
X14679200Y-5892000D02*
X14729200Y-5842000D01*
X14679200Y-5792000D01*
X14629200Y-5842000D01*
X14679200Y-5892000D01*
X14933200Y-5892000D02*
X14983200Y-5842000D01*
X14933200Y-5792000D01*
X14883200Y-5842000D01*
X14933200Y-5892000D01*
X15187200Y-5892000D02*
X15237200Y-5842000D01*
X15187200Y-5792000D01*
X15137200Y-5842000D01*
X15187200Y-5892000D01*
X15441200Y-5892000D02*
X15491200Y-5842000D01*
X15441200Y-5792000D01*
X15391200Y-5842000D01*
X15441200Y-5892000D01*
X15695200Y-5892000D02*
X15745200Y-5842000D01*
X15695200Y-5792000D01*
X15645200Y-5842000D01*
X15695200Y-5892000D01*
X15949200Y-5892000D02*
X15999200Y-5842000D01*
X15949200Y-5792000D01*
X15899200Y-5842000D01*
X15949200Y-5892000D01*
X16203200Y-5892000D02*
X16253200Y-5842000D01*
X16203200Y-5792000D01*
X16153200Y-5842000D01*
X16203200Y-5892000D01*
X17046543Y-10159200D02*
X17096543Y-10109200D01*
X17046543Y-10059200D01*
X16996543Y-10109200D01*
X17046543Y-10159200D01*
X17300543Y-10159200D02*
X17350543Y-10109200D01*
X17300543Y-10059200D01*
X17250543Y-10109200D01*
X17300543Y-10159200D01*
X17554543Y-10159200D02*
X17604543Y-10109200D01*
X17554543Y-10059200D01*
X17504543Y-10109200D01*
X17554543Y-10159200D01*
X17808543Y-10159200D02*
X17858543Y-10109200D01*
X17808543Y-10059200D01*
X17758543Y-10109200D01*
X17808543Y-10159200D01*
X18062543Y-10159200D02*
X18112543Y-10109200D01*
X18062543Y-10059200D01*
X18012543Y-10109200D01*
X18062543Y-10159200D01*
X18316543Y-10159200D02*
X18366543Y-10109200D01*
X18316543Y-10059200D01*
X18266543Y-10109200D01*
X18316543Y-10159200D01*
X18570543Y-10159200D02*
X18620543Y-10109200D01*
X18570543Y-10059200D01*
X18520543Y-10109200D01*
X18570543Y-10159200D01*
X18824543Y-10159200D02*
X18874543Y-10109200D01*
X18824543Y-10059200D01*
X18774543Y-10109200D01*
X18824543Y-10159200D01*
X13409200Y-6755600D02*
X13459200Y-6705600D01*
X13409200Y-6655600D01*
X13359200Y-6705600D01*
X13409200Y-6755600D01*
X13663200Y-6755600D02*
X13713200Y-6705600D01*
X13663200Y-6655600D01*
X13613200Y-6705600D01*
X13663200Y-6755600D01*
X13917200Y-6755600D02*
X13967200Y-6705600D01*
X13917200Y-6655600D01*
X13867200Y-6705600D01*
X13917200Y-6755600D01*
X14171200Y-6755600D02*
X14221200Y-6705600D01*
X14171200Y-6655600D01*
X14121200Y-6705600D01*
X14171200Y-6755600D01*
X14425200Y-6755600D02*
X14475200Y-6705600D01*
X14425200Y-6655600D01*
X14375200Y-6705600D01*
X14425200Y-6755600D01*
X14679200Y-6755600D02*
X14729200Y-6705600D01*
X14679200Y-6655600D01*
X14629200Y-6705600D01*
X14679200Y-6755600D01*
X14933200Y-6755600D02*
X14983200Y-6705600D01*
X14933200Y-6655600D01*
X14883200Y-6705600D01*
X14933200Y-6755600D01*
X15187200Y-6755600D02*
X15237200Y-6705600D01*
X15187200Y-6655600D01*
X15137200Y-6705600D01*
X15187200Y-6755600D01*
X15441200Y-6755600D02*
X15491200Y-6705600D01*
X15441200Y-6655600D01*
X15391200Y-6705600D01*
X15441200Y-6755600D01*
X15695200Y-6755600D02*
X15745200Y-6705600D01*
X15695200Y-6655600D01*
X15645200Y-6705600D01*
X15695200Y-6755600D01*
X15949200Y-6755600D02*
X15999200Y-6705600D01*
X15949200Y-6655600D01*
X15899200Y-6705600D01*
X15949200Y-6755600D01*
X16203200Y-6755600D02*
X16253200Y-6705600D01*
X16203200Y-6655600D01*
X16153200Y-6705600D01*
X16203200Y-6755600D01*
X17046543Y-11022800D02*
X17096543Y-10972800D01*
X17046543Y-10922800D01*
X16996543Y-10972800D01*
X17046543Y-11022800D01*
X17300543Y-11022800D02*
X17350543Y-10972800D01*
X17300543Y-10922800D01*
X17250543Y-10972800D01*
X17300543Y-11022800D01*
X17554543Y-11022800D02*
X17604543Y-10972800D01*
X17554543Y-10922800D01*
X17504543Y-10972800D01*
X17554543Y-11022800D01*
X17808543Y-11022800D02*
X17858543Y-10972800D01*
X17808543Y-10922800D01*
X17758543Y-10972800D01*
X17808543Y-11022800D01*
X18062543Y-11022800D02*
X18112543Y-10972800D01*
X18062543Y-10922800D01*
X18012543Y-10972800D01*
X18062543Y-11022800D01*
X18316543Y-11022800D02*
X18366543Y-10972800D01*
X18316543Y-10922800D01*
X18266543Y-10972800D01*
X18316543Y-11022800D01*
X18570543Y-11022800D02*
X18620543Y-10972800D01*
X18570543Y-10922800D01*
X18520543Y-10972800D01*
X18570543Y-11022800D01*
X18824543Y-11022800D02*
X18874543Y-10972800D01*
X18824543Y-10922800D01*
X18774543Y-10972800D01*
X18824543Y-11022800D01*
X10603000Y-7957750D02*
X10653000Y-7907750D01*
X10603000Y-7857750D01*
X10553000Y-7907750D01*
X10603000Y-7957750D01*
X10603000Y-8211750D02*
X10653000Y-8161750D01*
X10603000Y-8111750D01*
X10553000Y-8161750D01*
X10603000Y-8211750D01*
X10603000Y-8465750D02*
X10653000Y-8415750D01*
X10603000Y-8365750D01*
X10553000Y-8415750D01*
X10603000Y-8465750D01*
X14426200Y-10159200D02*
X14476200Y-10109200D01*
X14426200Y-10059200D01*
X14376200Y-10109200D01*
X14426200Y-10159200D01*
X14680200Y-10159200D02*
X14730200Y-10109200D01*
X14680200Y-10059200D01*
X14630200Y-10109200D01*
X14680200Y-10159200D01*
X14934200Y-10159200D02*
X14984200Y-10109200D01*
X14934200Y-10059200D01*
X14884200Y-10109200D01*
X14934200Y-10159200D01*
X15188200Y-10159200D02*
X15238200Y-10109200D01*
X15188200Y-10059200D01*
X15138200Y-10109200D01*
X15188200Y-10159200D01*
X15442200Y-10159200D02*
X15492200Y-10109200D01*
X15442200Y-10059200D01*
X15392200Y-10109200D01*
X15442200Y-10159200D01*
X15696200Y-10159200D02*
X15746200Y-10109200D01*
X15696200Y-10059200D01*
X15646200Y-10109200D01*
X15696200Y-10159200D01*
X15950200Y-10159200D02*
X16000200Y-10109200D01*
X15950200Y-10059200D01*
X15900200Y-10109200D01*
X15950200Y-10159200D01*
X16204200Y-10159200D02*
X16254200Y-10109200D01*
X16204200Y-10059200D01*
X16154200Y-10109200D01*
X16204200Y-10159200D01*
X19888200Y-9448800D02*
X19989800Y-9550400D01*
X19989800Y-9448800D02*
X19888200Y-9550400D01*
X19989800Y-9499600D02*
G75*
G03X19989800Y-9499600I-50800J0D01*
G01*
X19888200Y-9702800D02*
X19989800Y-9804400D01*
X19989800Y-9702800D02*
X19888200Y-9804400D01*
X19989800Y-9753600D02*
G75*
G03X19989800Y-9753600I-50800J0D01*
G01*
X19888200Y-9956800D02*
X19989800Y-10058400D01*
X19989800Y-9956800D02*
X19888200Y-10058400D01*
X19989800Y-10007600D02*
G75*
G03X19989800Y-10007600I-50800J0D01*
G01*
X19888200Y-10210800D02*
X19989800Y-10312400D01*
X19989800Y-10210800D02*
X19888200Y-10312400D01*
X19989800Y-10261600D02*
G75*
G03X19989800Y-10261600I-50800J0D01*
G01*
X19888200Y-10464800D02*
X19989800Y-10566400D01*
X19989800Y-10464800D02*
X19888200Y-10566400D01*
X19989800Y-10515600D02*
G75*
G03X19989800Y-10515600I-50800J0D01*
G01*
X20142200Y-9448800D02*
X20243800Y-9550400D01*
X20243800Y-9448800D02*
X20142200Y-9550400D01*
X20243800Y-9499600D02*
G75*
G03X20243800Y-9499600I-50800J0D01*
G01*
X20142200Y-9702800D02*
X20243800Y-9804400D01*
X20243800Y-9702800D02*
X20142200Y-9804400D01*
X20243800Y-9753600D02*
G75*
G03X20243800Y-9753600I-50800J0D01*
G01*
X20142200Y-9956800D02*
X20243800Y-10058400D01*
X20243800Y-9956800D02*
X20142200Y-10058400D01*
X20243800Y-10007600D02*
G75*
G03X20243800Y-10007600I-50800J0D01*
G01*
X20142200Y-10210800D02*
X20243800Y-10312400D01*
X20243800Y-10210800D02*
X20142200Y-10312400D01*
X20243800Y-10261600D02*
G75*
G03X20243800Y-10261600I-50800J0D01*
G01*
X20142200Y-10464800D02*
X20243800Y-10566400D01*
X20243800Y-10464800D02*
X20142200Y-10566400D01*
X20243800Y-10515600D02*
G75*
G03X20243800Y-10515600I-50800J0D01*
G01*
X9768196Y-7596750D02*
X9878196Y-7706750D01*
X9878196Y-7596750D02*
X9768196Y-7706750D01*
X9823196Y-7596750D02*
X9823196Y-7706750D01*
X9768196Y-7651750D02*
X9878196Y-7651750D01*
X9768196Y-8612750D02*
X9878196Y-8722750D01*
X9878196Y-8612750D02*
X9768196Y-8722750D01*
X9823196Y-8612750D02*
X9823196Y-8722750D01*
X9768196Y-8667750D02*
X9878196Y-8667750D01*
X9536200Y-11822200D02*
X9666200Y-11952200D01*
X9666200Y-11822200D02*
X9536200Y-11952200D01*
X9647162Y-11933162D02*
X9647162Y-11841238D01*
X9555238Y-11841238D01*
X9555238Y-11933162D01*
X9647162Y-11933162D01*
X10036200Y-11822200D02*
X10166200Y-11952200D01*
X10166200Y-11822200D02*
X10036200Y-11952200D01*
X10147162Y-11933162D02*
X10147162Y-11841238D01*
X10055238Y-11841238D01*
X10055238Y-11933162D01*
X10147162Y-11933162D01*
X12419100Y-11974600D02*
X12549100Y-12104600D01*
X12549100Y-11974600D02*
X12419100Y-12104600D01*
X12530062Y-12085562D02*
X12530062Y-11993638D01*
X12438138Y-11993638D01*
X12438138Y-12085562D01*
X12530062Y-12085562D01*
X12919100Y-11974600D02*
X13049100Y-12104600D01*
X13049100Y-11974600D02*
X12919100Y-12104600D01*
X13030062Y-12085562D02*
X13030062Y-11993638D01*
X12938138Y-11993638D01*
X12938138Y-12085562D01*
X13030062Y-12085562D01*
X13419100Y-11974600D02*
X13549100Y-12104600D01*
X13549100Y-11974600D02*
X13419100Y-12104600D01*
X13530062Y-12085562D02*
X13530062Y-11993638D01*
X13438138Y-11993638D01*
X13438138Y-12085562D01*
X13530062Y-12085562D01*
X13919100Y-11974600D02*
X14049100Y-12104600D01*
X14049100Y-11974600D02*
X13919100Y-12104600D01*
X14030062Y-12085562D02*
X14030062Y-11993638D01*
X13938138Y-11993638D01*
X13938138Y-12085562D01*
X14030062Y-12085562D01*
X14419100Y-11974600D02*
X14549100Y-12104600D01*
X14549100Y-11974600D02*
X14419100Y-12104600D01*
X14530062Y-12085562D02*
X14530062Y-11993638D01*
X14438138Y-11993638D01*
X14438138Y-12085562D01*
X14530062Y-12085562D01*
X14919100Y-11974600D02*
X15049100Y-12104600D01*
X15049100Y-11974600D02*
X14919100Y-12104600D01*
X15030062Y-12085562D02*
X15030062Y-11993638D01*
X14938138Y-11993638D01*
X14938138Y-12085562D01*
X15030062Y-12085562D01*
X15419100Y-11974600D02*
X15549100Y-12104600D01*
X15549100Y-11974600D02*
X15419100Y-12104600D01*
X15530062Y-12085562D02*
X15530062Y-11993638D01*
X15438138Y-11993638D01*
X15438138Y-12085562D01*
X15530062Y-12085562D01*
X15919100Y-11974600D02*
X16049100Y-12104600D01*
X16049100Y-11974600D02*
X15919100Y-12104600D01*
X16030062Y-12085562D02*
X16030062Y-11993638D01*
X15938138Y-11993638D01*
X15938138Y-12085562D01*
X16030062Y-12085562D01*
X16539100Y-4418100D02*
X16669100Y-4548100D01*
X16669100Y-4418100D02*
X16539100Y-4548100D01*
X16650062Y-4529062D02*
X16650062Y-4437138D01*
X16558138Y-4437138D01*
X16558138Y-4529062D01*
X16650062Y-4529062D01*
X17039100Y-4418100D02*
X17169100Y-4548100D01*
X17169100Y-4418100D02*
X17039100Y-4548100D01*
X17150062Y-4529062D02*
X17150062Y-4437138D01*
X17058138Y-4437138D01*
X17058138Y-4529062D01*
X17150062Y-4529062D01*
X17539100Y-4418100D02*
X17669100Y-4548100D01*
X17669100Y-4418100D02*
X17539100Y-4548100D01*
X17650062Y-4529062D02*
X17650062Y-4437138D01*
X17558138Y-4437138D01*
X17558138Y-4529062D01*
X17650062Y-4529062D01*
X18039100Y-4418100D02*
X18169100Y-4548100D01*
X18169100Y-4418100D02*
X18039100Y-4548100D01*
X18150062Y-4529062D02*
X18150062Y-4437138D01*
X18058138Y-4437138D01*
X18058138Y-4529062D01*
X18150062Y-4529062D01*
X18539100Y-4418100D02*
X18669100Y-4548100D01*
X18669100Y-4418100D02*
X18539100Y-4548100D01*
X18650062Y-4529062D02*
X18650062Y-4437138D01*
X18558138Y-4437138D01*
X18558138Y-4529062D01*
X18650062Y-4529062D01*
X19039100Y-4418100D02*
X19169100Y-4548100D01*
X19169100Y-4418100D02*
X19039100Y-4548100D01*
X19150062Y-4529062D02*
X19150062Y-4437138D01*
X19058138Y-4437138D01*
X19058138Y-4529062D01*
X19150062Y-4529062D01*
X19539100Y-4418100D02*
X19669100Y-4548100D01*
X19669100Y-4418100D02*
X19539100Y-4548100D01*
X19650062Y-4529062D02*
X19650062Y-4437138D01*
X19558138Y-4437138D01*
X19558138Y-4529062D01*
X19650062Y-4529062D01*
X20039100Y-4418100D02*
X20169100Y-4548100D01*
X20169100Y-4418100D02*
X20039100Y-4548100D01*
X20150062Y-4529062D02*
X20150062Y-4437138D01*
X20058138Y-4437138D01*
X20058138Y-4529062D01*
X20150062Y-4529062D01*
X12037650Y-4405400D02*
X12167650Y-4535400D01*
X12167650Y-4405400D02*
X12037650Y-4535400D01*
X12148612Y-4516362D02*
X12148612Y-4424438D01*
X12056688Y-4424438D01*
X12056688Y-4516362D01*
X12148612Y-4516362D01*
X12537650Y-4405400D02*
X12667650Y-4535400D01*
X12667650Y-4405400D02*
X12537650Y-4535400D01*
X12648612Y-4516362D02*
X12648612Y-4424438D01*
X12556688Y-4424438D01*
X12556688Y-4516362D01*
X12648612Y-4516362D01*
X13037650Y-4405400D02*
X13167650Y-4535400D01*
X13167650Y-4405400D02*
X13037650Y-4535400D01*
X13148612Y-4516362D02*
X13148612Y-4424438D01*
X13056688Y-4424438D01*
X13056688Y-4516362D01*
X13148612Y-4516362D01*
X13537650Y-4405400D02*
X13667650Y-4535400D01*
X13667650Y-4405400D02*
X13537650Y-4535400D01*
X13648612Y-4516362D02*
X13648612Y-4424438D01*
X13556688Y-4424438D01*
X13556688Y-4516362D01*
X13648612Y-4516362D01*
X14037650Y-4405400D02*
X14167650Y-4535400D01*
X14167650Y-4405400D02*
X14037650Y-4535400D01*
X14148612Y-4516362D02*
X14148612Y-4424438D01*
X14056688Y-4424438D01*
X14056688Y-4516362D01*
X14148612Y-4516362D01*
X14537650Y-4405400D02*
X14667650Y-4535400D01*
X14667650Y-4405400D02*
X14537650Y-4535400D01*
X14648612Y-4516362D02*
X14648612Y-4424438D01*
X14556688Y-4424438D01*
X14556688Y-4516362D01*
X14648612Y-4516362D01*
X15037650Y-4405400D02*
X15167650Y-4535400D01*
X15167650Y-4405400D02*
X15037650Y-4535400D01*
X15148612Y-4516362D02*
X15148612Y-4424438D01*
X15056688Y-4424438D01*
X15056688Y-4516362D01*
X15148612Y-4516362D01*
X15537650Y-4405400D02*
X15667650Y-4535400D01*
X15667650Y-4405400D02*
X15537650Y-4535400D01*
X15648612Y-4516362D02*
X15648612Y-4424438D01*
X15556688Y-4424438D01*
X15556688Y-4516362D01*
X15648612Y-4516362D01*
X9536200Y-4405400D02*
X9666200Y-4535400D01*
X9666200Y-4405400D02*
X9536200Y-4535400D01*
X9647162Y-4516362D02*
X9647162Y-4424438D01*
X9555238Y-4424438D01*
X9555238Y-4516362D01*
X9647162Y-4516362D01*
X10036200Y-4405400D02*
X10166200Y-4535400D01*
X10166200Y-4405400D02*
X10036200Y-4535400D01*
X10147162Y-4516362D02*
X10147162Y-4424438D01*
X10055238Y-4424438D01*
X10055238Y-4516362D01*
X10147162Y-4516362D01*
X10536200Y-4405400D02*
X10666200Y-4535400D01*
X10666200Y-4405400D02*
X10536200Y-4535400D01*
X10647162Y-4516362D02*
X10647162Y-4424438D01*
X10555238Y-4424438D01*
X10555238Y-4516362D01*
X10647162Y-4516362D01*
X11036200Y-4405400D02*
X11166200Y-4535400D01*
X11166200Y-4405400D02*
X11036200Y-4535400D01*
X11147162Y-4516362D02*
X11147162Y-4424438D01*
X11055238Y-4424438D01*
X11055238Y-4516362D01*
X11147162Y-4516362D01*
X16539100Y-11961900D02*
X16669100Y-12091900D01*
X16669100Y-11961900D02*
X16539100Y-12091900D01*
X16650062Y-12072862D02*
X16650062Y-11980938D01*
X16558138Y-11980938D01*
X16558138Y-12072862D01*
X16650062Y-12072862D01*
X17039100Y-11961900D02*
X17169100Y-12091900D01*
X17169100Y-11961900D02*
X17039100Y-12091900D01*
X17150062Y-12072862D02*
X17150062Y-11980938D01*
X17058138Y-11980938D01*
X17058138Y-12072862D01*
X17150062Y-12072862D01*
X17539100Y-11961900D02*
X17669100Y-12091900D01*
X17669100Y-11961900D02*
X17539100Y-12091900D01*
X17650062Y-12072862D02*
X17650062Y-11980938D01*
X17558138Y-11980938D01*
X17558138Y-12072862D01*
X17650062Y-12072862D01*
X18039100Y-11961900D02*
X18169100Y-12091900D01*
X18169100Y-11961900D02*
X18039100Y-12091900D01*
X18150062Y-12072862D02*
X18150062Y-11980938D01*
X18058138Y-11980938D01*
X18058138Y-12072862D01*
X18150062Y-12072862D01*
X18539100Y-11961900D02*
X18669100Y-12091900D01*
X18669100Y-11961900D02*
X18539100Y-12091900D01*
X18650062Y-12072862D02*
X18650062Y-11980938D01*
X18558138Y-11980938D01*
X18558138Y-12072862D01*
X18650062Y-12072862D01*
X19039100Y-11961900D02*
X19169100Y-12091900D01*
X19169100Y-11961900D02*
X19039100Y-12091900D01*
X19150062Y-12072862D02*
X19150062Y-11980938D01*
X19058138Y-11980938D01*
X19058138Y-12072862D01*
X19150062Y-12072862D01*
X19539100Y-11961900D02*
X19669100Y-12091900D01*
X19669100Y-11961900D02*
X19539100Y-12091900D01*
X19650062Y-12072862D02*
X19650062Y-11980938D01*
X19558138Y-11980938D01*
X19558138Y-12072862D01*
X19650062Y-12072862D01*
X20039100Y-11961900D02*
X20169100Y-12091900D01*
X20169100Y-11961900D02*
X20039100Y-12091900D01*
X20150062Y-12072862D02*
X20150062Y-11980938D01*
X20058138Y-11980938D01*
X20058138Y-12072862D01*
X20150062Y-12072862D01*
X10588000Y-11858000D02*
X10748000Y-12018000D01*
X10748000Y-11858000D02*
X10588000Y-12018000D01*
X10668000Y-12018000D02*
X10748000Y-11938000D01*
X10668000Y-11858000D01*
X10588000Y-11938000D01*
X10668000Y-12018000D01*
X11858000Y-11858000D02*
X12018000Y-12018000D01*
X12018000Y-11858000D02*
X11858000Y-12018000D01*
X11938000Y-12018000D02*
X12018000Y-11938000D01*
X11938000Y-11858000D01*
X11858000Y-11938000D01*
X11938000Y-12018000D01*
X11961120Y-10689600D02*
X12121120Y-10849600D01*
X12121120Y-10689600D02*
X11961120Y-10849600D01*
X12041120Y-10849600D02*
X12121120Y-10769600D01*
X12041120Y-10689600D01*
X11961120Y-10769600D01*
X12041120Y-10849600D01*
X13485120Y-10689600D02*
X13645120Y-10849600D01*
X13645120Y-10689600D02*
X13485120Y-10849600D01*
X13565120Y-10849600D02*
X13645120Y-10769600D01*
X13565120Y-10689600D01*
X13485120Y-10769600D01*
X13565120Y-10849600D01*
D12*
X9473728Y-12982714D02*
X9473728Y-12682714D01*
X9545157Y-12682714D01*
X9588014Y-12697000D01*
X9616586Y-12725571D01*
X9630871Y-12754143D01*
X9645157Y-12811286D01*
X9645157Y-12854143D01*
X9630871Y-12911286D01*
X9616586Y-12939857D01*
X9588014Y-12968429D01*
X9545157Y-12982714D01*
X9473728Y-12982714D01*
X9773728Y-12982714D02*
X9773728Y-12782714D01*
X9773728Y-12839857D02*
X9788014Y-12811286D01*
X9802300Y-12797000D01*
X9830871Y-12782714D01*
X9859443Y-12782714D01*
X9959443Y-12982714D02*
X9959443Y-12782714D01*
X9959443Y-12682714D02*
X9945157Y-12697000D01*
X9959443Y-12711286D01*
X9973728Y-12697000D01*
X9959443Y-12682714D01*
X9959443Y-12711286D01*
X10145157Y-12982714D02*
X10116586Y-12968429D01*
X10102300Y-12939857D01*
X10102300Y-12682714D01*
X10302300Y-12982714D02*
X10273728Y-12968429D01*
X10259443Y-12939857D01*
X10259443Y-12682714D01*
X10645157Y-12982714D02*
X10645157Y-12682714D01*
X10745157Y-12897000D01*
X10845157Y-12682714D01*
X10845157Y-12982714D01*
X11116586Y-12982714D02*
X11116586Y-12825571D01*
X11102300Y-12797000D01*
X11073728Y-12782714D01*
X11016586Y-12782714D01*
X10988014Y-12797000D01*
X11116586Y-12968429D02*
X11088014Y-12982714D01*
X11016586Y-12982714D01*
X10988014Y-12968429D01*
X10973728Y-12939857D01*
X10973728Y-12911286D01*
X10988014Y-12882714D01*
X11016586Y-12868429D01*
X11088014Y-12868429D01*
X11116586Y-12854143D01*
X11259443Y-12782714D02*
X11259443Y-13082714D01*
X11259443Y-12797000D02*
X11288014Y-12782714D01*
X11345157Y-12782714D01*
X11373728Y-12797000D01*
X11388014Y-12811286D01*
X11402300Y-12839857D01*
X11402300Y-12925571D01*
X11388014Y-12954143D01*
X11373728Y-12968429D01*
X11345157Y-12982714D01*
X11288014Y-12982714D01*
X11259443Y-12968429D01*
X11530871Y-12954143D02*
X11545157Y-12968429D01*
X11530871Y-12982714D01*
X11516586Y-12968429D01*
X11530871Y-12954143D01*
X11530871Y-12982714D01*
X11530871Y-12797000D02*
X11545157Y-12811286D01*
X11530871Y-12825571D01*
X11516586Y-12811286D01*
X11530871Y-12797000D01*
X11530871Y-12825571D01*
X9147300Y-13457000D02*
X9187300Y-13497000D01*
X9187300Y-13457000D02*
X9147300Y-13497000D01*
X9530871Y-13312714D02*
X9559443Y-13312714D01*
X9588014Y-13327000D01*
X9602300Y-13341286D01*
X9616586Y-13369857D01*
X9630871Y-13427000D01*
X9630871Y-13498429D01*
X9616586Y-13555571D01*
X9602300Y-13584143D01*
X9588014Y-13598429D01*
X9559443Y-13612714D01*
X9530871Y-13612714D01*
X9502300Y-13598429D01*
X9488014Y-13584143D01*
X9473728Y-13555571D01*
X9459443Y-13498429D01*
X9459443Y-13427000D01*
X9473728Y-13369857D01*
X9488014Y-13341286D01*
X9502300Y-13327000D01*
X9530871Y-13312714D01*
X9759443Y-13584143D02*
X9773728Y-13598429D01*
X9759443Y-13612714D01*
X9745157Y-13598429D01*
X9759443Y-13584143D01*
X9759443Y-13612714D01*
X10030871Y-13412714D02*
X10030871Y-13612714D01*
X9959443Y-13298429D02*
X9888014Y-13512714D01*
X10073728Y-13512714D01*
X10245157Y-13312714D02*
X10273728Y-13312714D01*
X10302300Y-13327000D01*
X10316586Y-13341286D01*
X10330871Y-13369857D01*
X10345157Y-13427000D01*
X10345157Y-13498429D01*
X10330871Y-13555571D01*
X10316586Y-13584143D01*
X10302300Y-13598429D01*
X10273728Y-13612714D01*
X10245157Y-13612714D01*
X10216586Y-13598429D01*
X10202300Y-13584143D01*
X10188014Y-13555571D01*
X10173728Y-13498429D01*
X10173728Y-13427000D01*
X10188014Y-13369857D01*
X10202300Y-13341286D01*
X10216586Y-13327000D01*
X10245157Y-13312714D01*
X10473728Y-13612714D02*
X10473728Y-13412714D01*
X10473728Y-13441286D02*
X10488014Y-13427000D01*
X10516586Y-13412714D01*
X10559443Y-13412714D01*
X10588014Y-13427000D01*
X10602300Y-13455571D01*
X10602300Y-13612714D01*
X10602300Y-13455571D02*
X10616586Y-13427000D01*
X10645157Y-13412714D01*
X10688014Y-13412714D01*
X10716586Y-13427000D01*
X10730871Y-13455571D01*
X10730871Y-13612714D01*
X10873728Y-13612714D02*
X10873728Y-13412714D01*
X10873728Y-13441286D02*
X10888014Y-13427000D01*
X10916586Y-13412714D01*
X10959443Y-13412714D01*
X10988014Y-13427000D01*
X11002300Y-13455571D01*
X11002300Y-13612714D01*
X11002300Y-13455571D02*
X11016586Y-13427000D01*
X11045157Y-13412714D01*
X11088014Y-13412714D01*
X11116586Y-13427000D01*
X11130871Y-13455571D01*
X11130871Y-13612714D01*
X11716586Y-13298429D02*
X11459443Y-13684143D01*
X12102300Y-13312714D02*
X12130871Y-13312714D01*
X12159443Y-13327000D01*
X12173728Y-13341286D01*
X12188014Y-13369857D01*
X12202300Y-13427000D01*
X12202300Y-13498429D01*
X12188014Y-13555571D01*
X12173728Y-13584143D01*
X12159443Y-13598429D01*
X12130871Y-13612714D01*
X12102300Y-13612714D01*
X12073728Y-13598429D01*
X12059443Y-13584143D01*
X12045157Y-13555571D01*
X12030871Y-13498429D01*
X12030871Y-13427000D01*
X12045157Y-13369857D01*
X12059443Y-13341286D01*
X12073728Y-13327000D01*
X12102300Y-13312714D01*
X12330871Y-13584143D02*
X12345157Y-13598429D01*
X12330871Y-13612714D01*
X12316586Y-13598429D01*
X12330871Y-13584143D01*
X12330871Y-13612714D01*
X12530871Y-13312714D02*
X12559443Y-13312714D01*
X12588014Y-13327000D01*
X12602300Y-13341286D01*
X12616586Y-13369857D01*
X12630871Y-13427000D01*
X12630871Y-13498429D01*
X12616586Y-13555571D01*
X12602300Y-13584143D01*
X12588014Y-13598429D01*
X12559443Y-13612714D01*
X12530871Y-13612714D01*
X12502300Y-13598429D01*
X12488014Y-13584143D01*
X12473728Y-13555571D01*
X12459443Y-13498429D01*
X12459443Y-13427000D01*
X12473728Y-13369857D01*
X12488014Y-13341286D01*
X12502300Y-13327000D01*
X12530871Y-13312714D01*
X12916586Y-13612714D02*
X12745157Y-13612714D01*
X12830871Y-13612714D02*
X12830871Y-13312714D01*
X12802300Y-13355571D01*
X12773728Y-13384143D01*
X12745157Y-13398429D01*
X13173728Y-13312714D02*
X13116586Y-13312714D01*
X13088014Y-13327000D01*
X13073728Y-13341286D01*
X13045157Y-13384143D01*
X13030871Y-13441286D01*
X13030871Y-13555571D01*
X13045157Y-13584143D01*
X13059443Y-13598429D01*
X13088014Y-13612714D01*
X13145157Y-13612714D01*
X13173728Y-13598429D01*
X13188014Y-13584143D01*
X13202300Y-13555571D01*
X13202300Y-13484143D01*
X13188014Y-13455571D01*
X13173728Y-13441286D01*
X13145157Y-13427000D01*
X13088014Y-13427000D01*
X13059443Y-13441286D01*
X13045157Y-13455571D01*
X13030871Y-13484143D01*
X13316586Y-13312714D02*
X13316586Y-13369857D01*
X13430871Y-13312714D02*
X13430871Y-13369857D01*
X13873728Y-13727000D02*
X13859443Y-13712714D01*
X13830871Y-13669857D01*
X13816586Y-13641286D01*
X13802300Y-13598429D01*
X13788014Y-13527000D01*
X13788014Y-13469857D01*
X13802300Y-13398429D01*
X13816586Y-13355571D01*
X13830871Y-13327000D01*
X13859443Y-13284143D01*
X13873728Y-13269857D01*
X13973728Y-13341286D02*
X13988014Y-13327000D01*
X14016586Y-13312714D01*
X14088014Y-13312714D01*
X14116586Y-13327000D01*
X14130871Y-13341286D01*
X14145157Y-13369857D01*
X14145157Y-13398429D01*
X14130871Y-13441286D01*
X13959443Y-13612714D01*
X14145157Y-13612714D01*
X14502300Y-13612714D02*
X14502300Y-13312714D01*
X14630871Y-13612714D02*
X14630871Y-13455571D01*
X14616586Y-13427000D01*
X14588014Y-13412714D01*
X14545157Y-13412714D01*
X14516586Y-13427000D01*
X14502300Y-13441286D01*
X14816586Y-13612714D02*
X14788014Y-13598429D01*
X14773728Y-13584143D01*
X14759443Y-13555571D01*
X14759443Y-13469857D01*
X14773728Y-13441286D01*
X14788014Y-13427000D01*
X14816586Y-13412714D01*
X14859443Y-13412714D01*
X14888014Y-13427000D01*
X14902300Y-13441286D01*
X14916586Y-13469857D01*
X14916586Y-13555571D01*
X14902300Y-13584143D01*
X14888014Y-13598429D01*
X14859443Y-13612714D01*
X14816586Y-13612714D01*
X15088014Y-13612714D02*
X15059443Y-13598429D01*
X15045157Y-13569857D01*
X15045157Y-13312714D01*
X15316586Y-13598429D02*
X15288014Y-13612714D01*
X15230871Y-13612714D01*
X15202300Y-13598429D01*
X15188014Y-13569857D01*
X15188014Y-13455571D01*
X15202300Y-13427000D01*
X15230871Y-13412714D01*
X15288014Y-13412714D01*
X15316586Y-13427000D01*
X15330871Y-13455571D01*
X15330871Y-13484143D01*
X15188014Y-13512714D01*
X15445157Y-13598429D02*
X15473728Y-13612714D01*
X15530871Y-13612714D01*
X15559443Y-13598429D01*
X15573728Y-13569857D01*
X15573728Y-13555571D01*
X15559443Y-13527000D01*
X15530871Y-13512714D01*
X15488014Y-13512714D01*
X15459443Y-13498429D01*
X15445157Y-13469857D01*
X15445157Y-13455571D01*
X15459443Y-13427000D01*
X15488014Y-13412714D01*
X15530871Y-13412714D01*
X15559443Y-13427000D01*
X15673728Y-13727000D02*
X15688014Y-13712714D01*
X15716586Y-13669857D01*
X15730871Y-13641286D01*
X15745157Y-13598429D01*
X15759443Y-13527000D01*
X15759443Y-13469857D01*
X15745157Y-13398429D01*
X15730871Y-13355571D01*
X15716586Y-13327000D01*
X15688014Y-13284143D01*
X15673728Y-13269857D01*
X9187300Y-13873000D02*
G75*
G03X9187300Y-13873000I-40000J0D01*
G01*
X9530871Y-13708714D02*
X9559443Y-13708714D01*
X9588014Y-13723000D01*
X9602300Y-13737286D01*
X9616586Y-13765857D01*
X9630871Y-13823000D01*
X9630871Y-13894429D01*
X9616586Y-13951571D01*
X9602300Y-13980143D01*
X9588014Y-13994429D01*
X9559443Y-14008714D01*
X9530871Y-14008714D01*
X9502300Y-13994429D01*
X9488014Y-13980143D01*
X9473728Y-13951571D01*
X9459443Y-13894429D01*
X9459443Y-13823000D01*
X9473728Y-13765857D01*
X9488014Y-13737286D01*
X9502300Y-13723000D01*
X9530871Y-13708714D01*
X9759443Y-13980143D02*
X9773728Y-13994429D01*
X9759443Y-14008714D01*
X9745157Y-13994429D01*
X9759443Y-13980143D01*
X9759443Y-14008714D01*
X9945157Y-13837286D02*
X9916586Y-13823000D01*
X9902300Y-13808714D01*
X9888014Y-13780143D01*
X9888014Y-13765857D01*
X9902300Y-13737286D01*
X9916586Y-13723000D01*
X9945157Y-13708714D01*
X10002300Y-13708714D01*
X10030871Y-13723000D01*
X10045157Y-13737286D01*
X10059443Y-13765857D01*
X10059443Y-13780143D01*
X10045157Y-13808714D01*
X10030871Y-13823000D01*
X10002300Y-13837286D01*
X9945157Y-13837286D01*
X9916586Y-13851571D01*
X9902300Y-13865857D01*
X9888014Y-13894429D01*
X9888014Y-13951571D01*
X9902300Y-13980143D01*
X9916586Y-13994429D01*
X9945157Y-14008714D01*
X10002300Y-14008714D01*
X10030871Y-13994429D01*
X10045157Y-13980143D01*
X10059443Y-13951571D01*
X10059443Y-13894429D01*
X10045157Y-13865857D01*
X10030871Y-13851571D01*
X10002300Y-13837286D01*
X10245157Y-13708714D02*
X10273728Y-13708714D01*
X10302300Y-13723000D01*
X10316586Y-13737286D01*
X10330871Y-13765857D01*
X10345157Y-13823000D01*
X10345157Y-13894429D01*
X10330871Y-13951571D01*
X10316586Y-13980143D01*
X10302300Y-13994429D01*
X10273728Y-14008714D01*
X10245157Y-14008714D01*
X10216586Y-13994429D01*
X10202300Y-13980143D01*
X10188014Y-13951571D01*
X10173728Y-13894429D01*
X10173728Y-13823000D01*
X10188014Y-13765857D01*
X10202300Y-13737286D01*
X10216586Y-13723000D01*
X10245157Y-13708714D01*
X10473728Y-14008714D02*
X10473728Y-13808714D01*
X10473728Y-13837286D02*
X10488014Y-13823000D01*
X10516586Y-13808714D01*
X10559443Y-13808714D01*
X10588014Y-13823000D01*
X10602300Y-13851571D01*
X10602300Y-14008714D01*
X10602300Y-13851571D02*
X10616586Y-13823000D01*
X10645157Y-13808714D01*
X10688014Y-13808714D01*
X10716586Y-13823000D01*
X10730871Y-13851571D01*
X10730871Y-14008714D01*
X10873728Y-14008714D02*
X10873728Y-13808714D01*
X10873728Y-13837286D02*
X10888014Y-13823000D01*
X10916586Y-13808714D01*
X10959443Y-13808714D01*
X10988014Y-13823000D01*
X11002300Y-13851571D01*
X11002300Y-14008714D01*
X11002300Y-13851571D02*
X11016586Y-13823000D01*
X11045157Y-13808714D01*
X11088014Y-13808714D01*
X11116586Y-13823000D01*
X11130871Y-13851571D01*
X11130871Y-14008714D01*
X11716586Y-13694429D02*
X11459443Y-14080143D01*
X12102300Y-13708714D02*
X12130871Y-13708714D01*
X12159443Y-13723000D01*
X12173728Y-13737286D01*
X12188014Y-13765857D01*
X12202300Y-13823000D01*
X12202300Y-13894429D01*
X12188014Y-13951571D01*
X12173728Y-13980143D01*
X12159443Y-13994429D01*
X12130871Y-14008714D01*
X12102300Y-14008714D01*
X12073728Y-13994429D01*
X12059443Y-13980143D01*
X12045157Y-13951571D01*
X12030871Y-13894429D01*
X12030871Y-13823000D01*
X12045157Y-13765857D01*
X12059443Y-13737286D01*
X12073728Y-13723000D01*
X12102300Y-13708714D01*
X12330871Y-13980143D02*
X12345157Y-13994429D01*
X12330871Y-14008714D01*
X12316586Y-13994429D01*
X12330871Y-13980143D01*
X12330871Y-14008714D01*
X12530871Y-13708714D02*
X12559443Y-13708714D01*
X12588014Y-13723000D01*
X12602300Y-13737286D01*
X12616586Y-13765857D01*
X12630871Y-13823000D01*
X12630871Y-13894429D01*
X12616586Y-13951571D01*
X12602300Y-13980143D01*
X12588014Y-13994429D01*
X12559443Y-14008714D01*
X12530871Y-14008714D01*
X12502300Y-13994429D01*
X12488014Y-13980143D01*
X12473728Y-13951571D01*
X12459443Y-13894429D01*
X12459443Y-13823000D01*
X12473728Y-13765857D01*
X12488014Y-13737286D01*
X12502300Y-13723000D01*
X12530871Y-13708714D01*
X12730871Y-13708714D02*
X12916586Y-13708714D01*
X12816586Y-13823000D01*
X12859443Y-13823000D01*
X12888014Y-13837286D01*
X12902300Y-13851571D01*
X12916586Y-13880143D01*
X12916586Y-13951571D01*
X12902300Y-13980143D01*
X12888014Y-13994429D01*
X12859443Y-14008714D01*
X12773728Y-14008714D01*
X12745157Y-13994429D01*
X12730871Y-13980143D01*
X13202300Y-14008714D02*
X13030871Y-14008714D01*
X13116586Y-14008714D02*
X13116586Y-13708714D01*
X13088014Y-13751571D01*
X13059443Y-13780143D01*
X13030871Y-13794429D01*
X13316586Y-13708714D02*
X13316586Y-13765857D01*
X13430871Y-13708714D02*
X13430871Y-13765857D01*
X13873728Y-14123000D02*
X13859443Y-14108714D01*
X13830871Y-14065857D01*
X13816586Y-14037286D01*
X13802300Y-13994429D01*
X13788014Y-13923000D01*
X13788014Y-13865857D01*
X13802300Y-13794429D01*
X13816586Y-13751571D01*
X13830871Y-13723000D01*
X13859443Y-13680143D01*
X13873728Y-13665857D01*
X14116586Y-13808714D02*
X14116586Y-14008714D01*
X14045157Y-13694429D02*
X13973728Y-13908714D01*
X14159443Y-13908714D01*
X14402300Y-13708714D02*
X14345157Y-13708714D01*
X14316586Y-13723000D01*
X14302300Y-13737286D01*
X14273728Y-13780143D01*
X14259443Y-13837286D01*
X14259443Y-13951571D01*
X14273728Y-13980143D01*
X14288014Y-13994429D01*
X14316586Y-14008714D01*
X14373728Y-14008714D01*
X14402300Y-13994429D01*
X14416586Y-13980143D01*
X14430871Y-13951571D01*
X14430871Y-13880143D01*
X14416586Y-13851571D01*
X14402300Y-13837286D01*
X14373728Y-13823000D01*
X14316586Y-13823000D01*
X14288014Y-13837286D01*
X14273728Y-13851571D01*
X14259443Y-13880143D01*
X14788014Y-14008714D02*
X14788014Y-13708714D01*
X14916586Y-14008714D02*
X14916586Y-13851571D01*
X14902300Y-13823000D01*
X14873728Y-13808714D01*
X14830871Y-13808714D01*
X14802300Y-13823000D01*
X14788014Y-13837286D01*
X15102300Y-14008714D02*
X15073728Y-13994429D01*
X15059443Y-13980143D01*
X15045157Y-13951571D01*
X15045157Y-13865857D01*
X15059443Y-13837286D01*
X15073728Y-13823000D01*
X15102300Y-13808714D01*
X15145157Y-13808714D01*
X15173728Y-13823000D01*
X15188014Y-13837286D01*
X15202300Y-13865857D01*
X15202300Y-13951571D01*
X15188014Y-13980143D01*
X15173728Y-13994429D01*
X15145157Y-14008714D01*
X15102300Y-14008714D01*
X15373728Y-14008714D02*
X15345157Y-13994429D01*
X15330871Y-13965857D01*
X15330871Y-13708714D01*
X15602300Y-13994429D02*
X15573728Y-14008714D01*
X15516586Y-14008714D01*
X15488014Y-13994429D01*
X15473728Y-13965857D01*
X15473728Y-13851571D01*
X15488014Y-13823000D01*
X15516586Y-13808714D01*
X15573728Y-13808714D01*
X15602300Y-13823000D01*
X15616586Y-13851571D01*
X15616586Y-13880143D01*
X15473728Y-13908714D01*
X15730871Y-13994429D02*
X15759443Y-14008714D01*
X15816586Y-14008714D01*
X15845157Y-13994429D01*
X15859443Y-13965857D01*
X15859443Y-13951571D01*
X15845157Y-13923000D01*
X15816586Y-13908714D01*
X15773728Y-13908714D01*
X15745157Y-13894429D01*
X15730871Y-13865857D01*
X15730871Y-13851571D01*
X15745157Y-13823000D01*
X15773728Y-13808714D01*
X15816586Y-13808714D01*
X15845157Y-13823000D01*
X15959443Y-14123000D02*
X15973728Y-14108714D01*
X16002300Y-14065857D01*
X16016586Y-14037286D01*
X16030871Y-13994429D01*
X16045157Y-13923000D01*
X16045157Y-13865857D01*
X16030871Y-13794429D01*
X16016586Y-13751571D01*
X16002300Y-13723000D01*
X15973728Y-13680143D01*
X15959443Y-13665857D01*
X9147295Y-14228995D02*
X9147295Y-14309005D01*
X9107290Y-14269000D02*
X9187300Y-14269000D01*
X9530871Y-14104714D02*
X9559443Y-14104714D01*
X9588014Y-14119000D01*
X9602300Y-14133286D01*
X9616586Y-14161857D01*
X9630871Y-14219000D01*
X9630871Y-14290429D01*
X9616586Y-14347571D01*
X9602300Y-14376143D01*
X9588014Y-14390429D01*
X9559443Y-14404714D01*
X9530871Y-14404714D01*
X9502300Y-14390429D01*
X9488014Y-14376143D01*
X9473728Y-14347571D01*
X9459443Y-14290429D01*
X9459443Y-14219000D01*
X9473728Y-14161857D01*
X9488014Y-14133286D01*
X9502300Y-14119000D01*
X9530871Y-14104714D01*
X9759443Y-14376143D02*
X9773728Y-14390429D01*
X9759443Y-14404714D01*
X9745157Y-14390429D01*
X9759443Y-14376143D01*
X9759443Y-14404714D01*
X9945157Y-14233286D02*
X9916586Y-14219000D01*
X9902300Y-14204714D01*
X9888014Y-14176143D01*
X9888014Y-14161857D01*
X9902300Y-14133286D01*
X9916586Y-14119000D01*
X9945157Y-14104714D01*
X10002300Y-14104714D01*
X10030871Y-14119000D01*
X10045157Y-14133286D01*
X10059443Y-14161857D01*
X10059443Y-14176143D01*
X10045157Y-14204714D01*
X10030871Y-14219000D01*
X10002300Y-14233286D01*
X9945157Y-14233286D01*
X9916586Y-14247571D01*
X9902300Y-14261857D01*
X9888014Y-14290429D01*
X9888014Y-14347571D01*
X9902300Y-14376143D01*
X9916586Y-14390429D01*
X9945157Y-14404714D01*
X10002300Y-14404714D01*
X10030871Y-14390429D01*
X10045157Y-14376143D01*
X10059443Y-14347571D01*
X10059443Y-14290429D01*
X10045157Y-14261857D01*
X10030871Y-14247571D01*
X10002300Y-14233286D01*
X10245157Y-14104714D02*
X10273728Y-14104714D01*
X10302300Y-14119000D01*
X10316586Y-14133286D01*
X10330871Y-14161857D01*
X10345157Y-14219000D01*
X10345157Y-14290429D01*
X10330871Y-14347571D01*
X10316586Y-14376143D01*
X10302300Y-14390429D01*
X10273728Y-14404714D01*
X10245157Y-14404714D01*
X10216586Y-14390429D01*
X10202300Y-14376143D01*
X10188014Y-14347571D01*
X10173728Y-14290429D01*
X10173728Y-14219000D01*
X10188014Y-14161857D01*
X10202300Y-14133286D01*
X10216586Y-14119000D01*
X10245157Y-14104714D01*
X10473728Y-14404714D02*
X10473728Y-14204714D01*
X10473728Y-14233286D02*
X10488014Y-14219000D01*
X10516586Y-14204714D01*
X10559443Y-14204714D01*
X10588014Y-14219000D01*
X10602300Y-14247571D01*
X10602300Y-14404714D01*
X10602300Y-14247571D02*
X10616586Y-14219000D01*
X10645157Y-14204714D01*
X10688014Y-14204714D01*
X10716586Y-14219000D01*
X10730871Y-14247571D01*
X10730871Y-14404714D01*
X10873728Y-14404714D02*
X10873728Y-14204714D01*
X10873728Y-14233286D02*
X10888014Y-14219000D01*
X10916586Y-14204714D01*
X10959443Y-14204714D01*
X10988014Y-14219000D01*
X11002300Y-14247571D01*
X11002300Y-14404714D01*
X11002300Y-14247571D02*
X11016586Y-14219000D01*
X11045157Y-14204714D01*
X11088014Y-14204714D01*
X11116586Y-14219000D01*
X11130871Y-14247571D01*
X11130871Y-14404714D01*
X11716586Y-14090429D02*
X11459443Y-14476143D01*
X12102300Y-14104714D02*
X12130871Y-14104714D01*
X12159443Y-14119000D01*
X12173728Y-14133286D01*
X12188014Y-14161857D01*
X12202300Y-14219000D01*
X12202300Y-14290429D01*
X12188014Y-14347571D01*
X12173728Y-14376143D01*
X12159443Y-14390429D01*
X12130871Y-14404714D01*
X12102300Y-14404714D01*
X12073728Y-14390429D01*
X12059443Y-14376143D01*
X12045157Y-14347571D01*
X12030871Y-14290429D01*
X12030871Y-14219000D01*
X12045157Y-14161857D01*
X12059443Y-14133286D01*
X12073728Y-14119000D01*
X12102300Y-14104714D01*
X12330871Y-14376143D02*
X12345157Y-14390429D01*
X12330871Y-14404714D01*
X12316586Y-14390429D01*
X12330871Y-14376143D01*
X12330871Y-14404714D01*
X12530871Y-14104714D02*
X12559443Y-14104714D01*
X12588014Y-14119000D01*
X12602300Y-14133286D01*
X12616586Y-14161857D01*
X12630871Y-14219000D01*
X12630871Y-14290429D01*
X12616586Y-14347571D01*
X12602300Y-14376143D01*
X12588014Y-14390429D01*
X12559443Y-14404714D01*
X12530871Y-14404714D01*
X12502300Y-14390429D01*
X12488014Y-14376143D01*
X12473728Y-14347571D01*
X12459443Y-14290429D01*
X12459443Y-14219000D01*
X12473728Y-14161857D01*
X12488014Y-14133286D01*
X12502300Y-14119000D01*
X12530871Y-14104714D01*
X12730871Y-14104714D02*
X12916586Y-14104714D01*
X12816586Y-14219000D01*
X12859443Y-14219000D01*
X12888014Y-14233286D01*
X12902300Y-14247571D01*
X12916586Y-14276143D01*
X12916586Y-14347571D01*
X12902300Y-14376143D01*
X12888014Y-14390429D01*
X12859443Y-14404714D01*
X12773728Y-14404714D01*
X12745157Y-14390429D01*
X12730871Y-14376143D01*
X13030871Y-14133286D02*
X13045157Y-14119000D01*
X13073728Y-14104714D01*
X13145157Y-14104714D01*
X13173728Y-14119000D01*
X13188014Y-14133286D01*
X13202300Y-14161857D01*
X13202300Y-14190429D01*
X13188014Y-14233286D01*
X13016586Y-14404714D01*
X13202300Y-14404714D01*
X13316586Y-14104714D02*
X13316586Y-14161857D01*
X13430871Y-14104714D02*
X13430871Y-14161857D01*
X13873728Y-14519000D02*
X13859443Y-14504714D01*
X13830871Y-14461857D01*
X13816586Y-14433286D01*
X13802300Y-14390429D01*
X13788014Y-14319000D01*
X13788014Y-14261857D01*
X13802300Y-14190429D01*
X13816586Y-14147571D01*
X13830871Y-14119000D01*
X13859443Y-14076143D01*
X13873728Y-14061857D01*
X13973728Y-14133286D02*
X13988014Y-14119000D01*
X14016586Y-14104714D01*
X14088014Y-14104714D01*
X14116586Y-14119000D01*
X14130871Y-14133286D01*
X14145157Y-14161857D01*
X14145157Y-14190429D01*
X14130871Y-14233286D01*
X13959443Y-14404714D01*
X14145157Y-14404714D01*
X14502300Y-14404714D02*
X14502300Y-14104714D01*
X14630871Y-14404714D02*
X14630871Y-14247571D01*
X14616586Y-14219000D01*
X14588014Y-14204714D01*
X14545157Y-14204714D01*
X14516586Y-14219000D01*
X14502300Y-14233286D01*
X14816586Y-14404714D02*
X14788014Y-14390429D01*
X14773728Y-14376143D01*
X14759443Y-14347571D01*
X14759443Y-14261857D01*
X14773728Y-14233286D01*
X14788014Y-14219000D01*
X14816586Y-14204714D01*
X14859443Y-14204714D01*
X14888014Y-14219000D01*
X14902300Y-14233286D01*
X14916586Y-14261857D01*
X14916586Y-14347571D01*
X14902300Y-14376143D01*
X14888014Y-14390429D01*
X14859443Y-14404714D01*
X14816586Y-14404714D01*
X15088014Y-14404714D02*
X15059443Y-14390429D01*
X15045157Y-14361857D01*
X15045157Y-14104714D01*
X15316586Y-14390429D02*
X15288014Y-14404714D01*
X15230871Y-14404714D01*
X15202300Y-14390429D01*
X15188014Y-14361857D01*
X15188014Y-14247571D01*
X15202300Y-14219000D01*
X15230871Y-14204714D01*
X15288014Y-14204714D01*
X15316586Y-14219000D01*
X15330871Y-14247571D01*
X15330871Y-14276143D01*
X15188014Y-14304714D01*
X15445157Y-14390429D02*
X15473728Y-14404714D01*
X15530871Y-14404714D01*
X15559443Y-14390429D01*
X15573728Y-14361857D01*
X15573728Y-14347571D01*
X15559443Y-14319000D01*
X15530871Y-14304714D01*
X15488014Y-14304714D01*
X15459443Y-14290429D01*
X15445157Y-14261857D01*
X15445157Y-14247571D01*
X15459443Y-14219000D01*
X15488014Y-14204714D01*
X15530871Y-14204714D01*
X15559443Y-14219000D01*
X15673728Y-14519000D02*
X15688014Y-14504714D01*
X15716586Y-14461857D01*
X15730871Y-14433286D01*
X15745157Y-14390429D01*
X15759443Y-14319000D01*
X15759443Y-14261857D01*
X15745157Y-14190429D01*
X15730871Y-14147571D01*
X15716586Y-14119000D01*
X15688014Y-14076143D01*
X15673728Y-14061857D01*
X9174120Y-14696820D02*
X9174120Y-14633180D01*
X9110480Y-14633180D01*
X9110480Y-14696820D01*
X9174120Y-14696820D01*
X9530871Y-14500714D02*
X9559443Y-14500714D01*
X9588014Y-14515000D01*
X9602300Y-14529286D01*
X9616586Y-14557857D01*
X9630871Y-14615000D01*
X9630871Y-14686429D01*
X9616586Y-14743571D01*
X9602300Y-14772143D01*
X9588014Y-14786429D01*
X9559443Y-14800714D01*
X9530871Y-14800714D01*
X9502300Y-14786429D01*
X9488014Y-14772143D01*
X9473728Y-14743571D01*
X9459443Y-14686429D01*
X9459443Y-14615000D01*
X9473728Y-14557857D01*
X9488014Y-14529286D01*
X9502300Y-14515000D01*
X9530871Y-14500714D01*
X9759443Y-14772143D02*
X9773728Y-14786429D01*
X9759443Y-14800714D01*
X9745157Y-14786429D01*
X9759443Y-14772143D01*
X9759443Y-14800714D01*
X9916586Y-14800714D02*
X9973728Y-14800714D01*
X10002300Y-14786429D01*
X10016586Y-14772143D01*
X10045157Y-14729286D01*
X10059443Y-14672143D01*
X10059443Y-14557857D01*
X10045157Y-14529286D01*
X10030871Y-14515000D01*
X10002300Y-14500714D01*
X9945157Y-14500714D01*
X9916586Y-14515000D01*
X9902300Y-14529286D01*
X9888014Y-14557857D01*
X9888014Y-14629286D01*
X9902300Y-14657857D01*
X9916586Y-14672143D01*
X9945157Y-14686429D01*
X10002300Y-14686429D01*
X10030871Y-14672143D01*
X10045157Y-14657857D01*
X10059443Y-14629286D01*
X10245157Y-14500714D02*
X10273728Y-14500714D01*
X10302300Y-14515000D01*
X10316586Y-14529286D01*
X10330871Y-14557857D01*
X10345157Y-14615000D01*
X10345157Y-14686429D01*
X10330871Y-14743571D01*
X10316586Y-14772143D01*
X10302300Y-14786429D01*
X10273728Y-14800714D01*
X10245157Y-14800714D01*
X10216586Y-14786429D01*
X10202300Y-14772143D01*
X10188014Y-14743571D01*
X10173728Y-14686429D01*
X10173728Y-14615000D01*
X10188014Y-14557857D01*
X10202300Y-14529286D01*
X10216586Y-14515000D01*
X10245157Y-14500714D01*
X10473728Y-14800714D02*
X10473728Y-14600714D01*
X10473728Y-14629286D02*
X10488014Y-14615000D01*
X10516586Y-14600714D01*
X10559443Y-14600714D01*
X10588014Y-14615000D01*
X10602300Y-14643571D01*
X10602300Y-14800714D01*
X10602300Y-14643571D02*
X10616586Y-14615000D01*
X10645157Y-14600714D01*
X10688014Y-14600714D01*
X10716586Y-14615000D01*
X10730871Y-14643571D01*
X10730871Y-14800714D01*
X10873728Y-14800714D02*
X10873728Y-14600714D01*
X10873728Y-14629286D02*
X10888014Y-14615000D01*
X10916586Y-14600714D01*
X10959443Y-14600714D01*
X10988014Y-14615000D01*
X11002300Y-14643571D01*
X11002300Y-14800714D01*
X11002300Y-14643571D02*
X11016586Y-14615000D01*
X11045157Y-14600714D01*
X11088014Y-14600714D01*
X11116586Y-14615000D01*
X11130871Y-14643571D01*
X11130871Y-14800714D01*
X11716586Y-14486429D02*
X11459443Y-14872143D01*
X12102300Y-14500714D02*
X12130871Y-14500714D01*
X12159443Y-14515000D01*
X12173728Y-14529286D01*
X12188014Y-14557857D01*
X12202300Y-14615000D01*
X12202300Y-14686429D01*
X12188014Y-14743571D01*
X12173728Y-14772143D01*
X12159443Y-14786429D01*
X12130871Y-14800714D01*
X12102300Y-14800714D01*
X12073728Y-14786429D01*
X12059443Y-14772143D01*
X12045157Y-14743571D01*
X12030871Y-14686429D01*
X12030871Y-14615000D01*
X12045157Y-14557857D01*
X12059443Y-14529286D01*
X12073728Y-14515000D01*
X12102300Y-14500714D01*
X12330871Y-14772143D02*
X12345157Y-14786429D01*
X12330871Y-14800714D01*
X12316586Y-14786429D01*
X12330871Y-14772143D01*
X12330871Y-14800714D01*
X12530871Y-14500714D02*
X12559443Y-14500714D01*
X12588014Y-14515000D01*
X12602300Y-14529286D01*
X12616586Y-14557857D01*
X12630871Y-14615000D01*
X12630871Y-14686429D01*
X12616586Y-14743571D01*
X12602300Y-14772143D01*
X12588014Y-14786429D01*
X12559443Y-14800714D01*
X12530871Y-14800714D01*
X12502300Y-14786429D01*
X12488014Y-14772143D01*
X12473728Y-14743571D01*
X12459443Y-14686429D01*
X12459443Y-14615000D01*
X12473728Y-14557857D01*
X12488014Y-14529286D01*
X12502300Y-14515000D01*
X12530871Y-14500714D01*
X12730871Y-14500714D02*
X12916586Y-14500714D01*
X12816586Y-14615000D01*
X12859443Y-14615000D01*
X12888014Y-14629286D01*
X12902300Y-14643571D01*
X12916586Y-14672143D01*
X12916586Y-14743571D01*
X12902300Y-14772143D01*
X12888014Y-14786429D01*
X12859443Y-14800714D01*
X12773728Y-14800714D01*
X12745157Y-14786429D01*
X12730871Y-14772143D01*
X13188014Y-14500714D02*
X13045157Y-14500714D01*
X13030871Y-14643571D01*
X13045157Y-14629286D01*
X13073728Y-14615000D01*
X13145157Y-14615000D01*
X13173728Y-14629286D01*
X13188014Y-14643571D01*
X13202300Y-14672143D01*
X13202300Y-14743571D01*
X13188014Y-14772143D01*
X13173728Y-14786429D01*
X13145157Y-14800714D01*
X13073728Y-14800714D01*
X13045157Y-14786429D01*
X13030871Y-14772143D01*
X13316586Y-14500714D02*
X13316586Y-14557857D01*
X13430871Y-14500714D02*
X13430871Y-14557857D01*
X13873728Y-14915000D02*
X13859443Y-14900714D01*
X13830871Y-14857857D01*
X13816586Y-14829286D01*
X13802300Y-14786429D01*
X13788014Y-14715000D01*
X13788014Y-14657857D01*
X13802300Y-14586429D01*
X13816586Y-14543571D01*
X13830871Y-14515000D01*
X13859443Y-14472143D01*
X13873728Y-14457857D01*
X14145157Y-14800714D02*
X13973728Y-14800714D01*
X14059443Y-14800714D02*
X14059443Y-14500714D01*
X14030871Y-14543571D01*
X14002300Y-14572143D01*
X13973728Y-14586429D01*
X14402300Y-14500714D02*
X14345157Y-14500714D01*
X14316586Y-14515000D01*
X14302300Y-14529286D01*
X14273728Y-14572143D01*
X14259443Y-14629286D01*
X14259443Y-14743571D01*
X14273728Y-14772143D01*
X14288014Y-14786429D01*
X14316586Y-14800714D01*
X14373728Y-14800714D01*
X14402300Y-14786429D01*
X14416586Y-14772143D01*
X14430871Y-14743571D01*
X14430871Y-14672143D01*
X14416586Y-14643571D01*
X14402300Y-14629286D01*
X14373728Y-14615000D01*
X14316586Y-14615000D01*
X14288014Y-14629286D01*
X14273728Y-14643571D01*
X14259443Y-14672143D01*
X14788014Y-14800714D02*
X14788014Y-14500714D01*
X14916586Y-14800714D02*
X14916586Y-14643571D01*
X14902300Y-14615000D01*
X14873728Y-14600714D01*
X14830871Y-14600714D01*
X14802300Y-14615000D01*
X14788014Y-14629286D01*
X15102300Y-14800714D02*
X15073728Y-14786429D01*
X15059443Y-14772143D01*
X15045157Y-14743571D01*
X15045157Y-14657857D01*
X15059443Y-14629286D01*
X15073728Y-14615000D01*
X15102300Y-14600714D01*
X15145157Y-14600714D01*
X15173728Y-14615000D01*
X15188014Y-14629286D01*
X15202300Y-14657857D01*
X15202300Y-14743571D01*
X15188014Y-14772143D01*
X15173728Y-14786429D01*
X15145157Y-14800714D01*
X15102300Y-14800714D01*
X15373728Y-14800714D02*
X15345157Y-14786429D01*
X15330871Y-14757857D01*
X15330871Y-14500714D01*
X15602300Y-14786429D02*
X15573728Y-14800714D01*
X15516586Y-14800714D01*
X15488014Y-14786429D01*
X15473728Y-14757857D01*
X15473728Y-14643571D01*
X15488014Y-14615000D01*
X15516586Y-14600714D01*
X15573728Y-14600714D01*
X15602300Y-14615000D01*
X15616586Y-14643571D01*
X15616586Y-14672143D01*
X15473728Y-14700714D01*
X15730871Y-14786429D02*
X15759443Y-14800714D01*
X15816586Y-14800714D01*
X15845157Y-14786429D01*
X15859443Y-14757857D01*
X15859443Y-14743571D01*
X15845157Y-14715000D01*
X15816586Y-14700714D01*
X15773728Y-14700714D01*
X15745157Y-14686429D01*
X15730871Y-14657857D01*
X15730871Y-14643571D01*
X15745157Y-14615000D01*
X15773728Y-14600714D01*
X15816586Y-14600714D01*
X15845157Y-14615000D01*
X15959443Y-14915000D02*
X15973728Y-14900714D01*
X16002300Y-14857857D01*
X16016586Y-14829286D01*
X16030871Y-14786429D01*
X16045157Y-14715000D01*
X16045157Y-14657857D01*
X16030871Y-14586429D01*
X16016586Y-14543571D01*
X16002300Y-14515000D01*
X15973728Y-14472143D01*
X15959443Y-14457857D01*
X9137300Y-15111000D02*
X9187300Y-15061000D01*
X9137300Y-15011000D01*
X9087300Y-15061000D01*
X9137300Y-15111000D01*
X9630871Y-15196714D02*
X9459443Y-15196714D01*
X9545157Y-15196714D02*
X9545157Y-14896714D01*
X9516586Y-14939571D01*
X9488014Y-14968143D01*
X9459443Y-14982429D01*
X9759443Y-15168143D02*
X9773728Y-15182429D01*
X9759443Y-15196714D01*
X9745157Y-15182429D01*
X9759443Y-15168143D01*
X9759443Y-15196714D01*
X9959443Y-14896714D02*
X9988014Y-14896714D01*
X10016586Y-14911000D01*
X10030871Y-14925286D01*
X10045157Y-14953857D01*
X10059443Y-15011000D01*
X10059443Y-15082429D01*
X10045157Y-15139571D01*
X10030871Y-15168143D01*
X10016586Y-15182429D01*
X9988014Y-15196714D01*
X9959443Y-15196714D01*
X9930871Y-15182429D01*
X9916586Y-15168143D01*
X9902300Y-15139571D01*
X9888014Y-15082429D01*
X9888014Y-15011000D01*
X9902300Y-14953857D01*
X9916586Y-14925286D01*
X9930871Y-14911000D01*
X9959443Y-14896714D01*
X10245157Y-14896714D02*
X10273728Y-14896714D01*
X10302300Y-14911000D01*
X10316586Y-14925286D01*
X10330871Y-14953857D01*
X10345157Y-15011000D01*
X10345157Y-15082429D01*
X10330871Y-15139571D01*
X10316586Y-15168143D01*
X10302300Y-15182429D01*
X10273728Y-15196714D01*
X10245157Y-15196714D01*
X10216586Y-15182429D01*
X10202300Y-15168143D01*
X10188014Y-15139571D01*
X10173728Y-15082429D01*
X10173728Y-15011000D01*
X10188014Y-14953857D01*
X10202300Y-14925286D01*
X10216586Y-14911000D01*
X10245157Y-14896714D01*
X10473728Y-15196714D02*
X10473728Y-14996714D01*
X10473728Y-15025286D02*
X10488014Y-15011000D01*
X10516586Y-14996714D01*
X10559443Y-14996714D01*
X10588014Y-15011000D01*
X10602300Y-15039571D01*
X10602300Y-15196714D01*
X10602300Y-15039571D02*
X10616586Y-15011000D01*
X10645157Y-14996714D01*
X10688014Y-14996714D01*
X10716586Y-15011000D01*
X10730871Y-15039571D01*
X10730871Y-15196714D01*
X10873728Y-15196714D02*
X10873728Y-14996714D01*
X10873728Y-15025286D02*
X10888014Y-15011000D01*
X10916586Y-14996714D01*
X10959443Y-14996714D01*
X10988014Y-15011000D01*
X11002300Y-15039571D01*
X11002300Y-15196714D01*
X11002300Y-15039571D02*
X11016586Y-15011000D01*
X11045157Y-14996714D01*
X11088014Y-14996714D01*
X11116586Y-15011000D01*
X11130871Y-15039571D01*
X11130871Y-15196714D01*
X11716586Y-14882429D02*
X11459443Y-15268143D01*
X12102300Y-14896714D02*
X12130871Y-14896714D01*
X12159443Y-14911000D01*
X12173728Y-14925286D01*
X12188014Y-14953857D01*
X12202300Y-15011000D01*
X12202300Y-15082429D01*
X12188014Y-15139571D01*
X12173728Y-15168143D01*
X12159443Y-15182429D01*
X12130871Y-15196714D01*
X12102300Y-15196714D01*
X12073728Y-15182429D01*
X12059443Y-15168143D01*
X12045157Y-15139571D01*
X12030871Y-15082429D01*
X12030871Y-15011000D01*
X12045157Y-14953857D01*
X12059443Y-14925286D01*
X12073728Y-14911000D01*
X12102300Y-14896714D01*
X12330871Y-15168143D02*
X12345157Y-15182429D01*
X12330871Y-15196714D01*
X12316586Y-15182429D01*
X12330871Y-15168143D01*
X12330871Y-15196714D01*
X12530871Y-14896714D02*
X12559443Y-14896714D01*
X12588014Y-14911000D01*
X12602300Y-14925286D01*
X12616586Y-14953857D01*
X12630871Y-15011000D01*
X12630871Y-15082429D01*
X12616586Y-15139571D01*
X12602300Y-15168143D01*
X12588014Y-15182429D01*
X12559443Y-15196714D01*
X12530871Y-15196714D01*
X12502300Y-15182429D01*
X12488014Y-15168143D01*
X12473728Y-15139571D01*
X12459443Y-15082429D01*
X12459443Y-15011000D01*
X12473728Y-14953857D01*
X12488014Y-14925286D01*
X12502300Y-14911000D01*
X12530871Y-14896714D01*
X12730871Y-14896714D02*
X12916586Y-14896714D01*
X12816586Y-15011000D01*
X12859443Y-15011000D01*
X12888014Y-15025286D01*
X12902300Y-15039571D01*
X12916586Y-15068143D01*
X12916586Y-15139571D01*
X12902300Y-15168143D01*
X12888014Y-15182429D01*
X12859443Y-15196714D01*
X12773728Y-15196714D01*
X12745157Y-15182429D01*
X12730871Y-15168143D01*
X13059443Y-15196714D02*
X13116586Y-15196714D01*
X13145157Y-15182429D01*
X13159443Y-15168143D01*
X13188014Y-15125286D01*
X13202300Y-15068143D01*
X13202300Y-14953857D01*
X13188014Y-14925286D01*
X13173728Y-14911000D01*
X13145157Y-14896714D01*
X13088014Y-14896714D01*
X13059443Y-14911000D01*
X13045157Y-14925286D01*
X13030871Y-14953857D01*
X13030871Y-15025286D01*
X13045157Y-15053857D01*
X13059443Y-15068143D01*
X13088014Y-15082429D01*
X13145157Y-15082429D01*
X13173728Y-15068143D01*
X13188014Y-15053857D01*
X13202300Y-15025286D01*
X13316586Y-14896714D02*
X13316586Y-14953857D01*
X13430871Y-14896714D02*
X13430871Y-14953857D01*
X13873728Y-15311000D02*
X13859443Y-15296714D01*
X13830871Y-15253857D01*
X13816586Y-15225286D01*
X13802300Y-15182429D01*
X13788014Y-15111000D01*
X13788014Y-15053857D01*
X13802300Y-14982429D01*
X13816586Y-14939571D01*
X13830871Y-14911000D01*
X13859443Y-14868143D01*
X13873728Y-14853857D01*
X14030871Y-15025286D02*
X14002300Y-15011000D01*
X13988014Y-14996714D01*
X13973728Y-14968143D01*
X13973728Y-14953857D01*
X13988014Y-14925286D01*
X14002300Y-14911000D01*
X14030871Y-14896714D01*
X14088014Y-14896714D01*
X14116586Y-14911000D01*
X14130871Y-14925286D01*
X14145157Y-14953857D01*
X14145157Y-14968143D01*
X14130871Y-14996714D01*
X14116586Y-15011000D01*
X14088014Y-15025286D01*
X14030871Y-15025286D01*
X14002300Y-15039571D01*
X13988014Y-15053857D01*
X13973728Y-15082429D01*
X13973728Y-15139571D01*
X13988014Y-15168143D01*
X14002300Y-15182429D01*
X14030871Y-15196714D01*
X14088014Y-15196714D01*
X14116586Y-15182429D01*
X14130871Y-15168143D01*
X14145157Y-15139571D01*
X14145157Y-15082429D01*
X14130871Y-15053857D01*
X14116586Y-15039571D01*
X14088014Y-15025286D01*
X14402300Y-14896714D02*
X14345157Y-14896714D01*
X14316586Y-14911000D01*
X14302300Y-14925286D01*
X14273728Y-14968143D01*
X14259443Y-15025286D01*
X14259443Y-15139571D01*
X14273728Y-15168143D01*
X14288014Y-15182429D01*
X14316586Y-15196714D01*
X14373728Y-15196714D01*
X14402300Y-15182429D01*
X14416586Y-15168143D01*
X14430871Y-15139571D01*
X14430871Y-15068143D01*
X14416586Y-15039571D01*
X14402300Y-15025286D01*
X14373728Y-15011000D01*
X14316586Y-15011000D01*
X14288014Y-15025286D01*
X14273728Y-15039571D01*
X14259443Y-15068143D01*
X14788014Y-15196714D02*
X14788014Y-14896714D01*
X14916586Y-15196714D02*
X14916586Y-15039571D01*
X14902300Y-15011000D01*
X14873728Y-14996714D01*
X14830871Y-14996714D01*
X14802300Y-15011000D01*
X14788014Y-15025286D01*
X15102300Y-15196714D02*
X15073728Y-15182429D01*
X15059443Y-15168143D01*
X15045157Y-15139571D01*
X15045157Y-15053857D01*
X15059443Y-15025286D01*
X15073728Y-15011000D01*
X15102300Y-14996714D01*
X15145157Y-14996714D01*
X15173728Y-15011000D01*
X15188014Y-15025286D01*
X15202300Y-15053857D01*
X15202300Y-15139571D01*
X15188014Y-15168143D01*
X15173728Y-15182429D01*
X15145157Y-15196714D01*
X15102300Y-15196714D01*
X15373728Y-15196714D02*
X15345157Y-15182429D01*
X15330871Y-15153857D01*
X15330871Y-14896714D01*
X15602300Y-15182429D02*
X15573728Y-15196714D01*
X15516586Y-15196714D01*
X15488014Y-15182429D01*
X15473728Y-15153857D01*
X15473728Y-15039571D01*
X15488014Y-15011000D01*
X15516586Y-14996714D01*
X15573728Y-14996714D01*
X15602300Y-15011000D01*
X15616586Y-15039571D01*
X15616586Y-15068143D01*
X15473728Y-15096714D01*
X15730871Y-15182429D02*
X15759443Y-15196714D01*
X15816586Y-15196714D01*
X15845157Y-15182429D01*
X15859443Y-15153857D01*
X15859443Y-15139571D01*
X15845157Y-15111000D01*
X15816586Y-15096714D01*
X15773728Y-15096714D01*
X15745157Y-15082429D01*
X15730871Y-15053857D01*
X15730871Y-15039571D01*
X15745157Y-15011000D01*
X15773728Y-14996714D01*
X15816586Y-14996714D01*
X15845157Y-15011000D01*
X15959443Y-15311000D02*
X15973728Y-15296714D01*
X16002300Y-15253857D01*
X16016586Y-15225286D01*
X16030871Y-15182429D01*
X16045157Y-15111000D01*
X16045157Y-15053857D01*
X16030871Y-14982429D01*
X16016586Y-14939571D01*
X16002300Y-14911000D01*
X15973728Y-14868143D01*
X15959443Y-14853857D01*
X9085700Y-15406200D02*
X9187300Y-15507800D01*
X9187300Y-15406200D02*
X9085700Y-15507800D01*
X9187300Y-15457000D02*
G75*
G03X9187300Y-15457000I-50800J0D01*
G01*
X9630871Y-15592714D02*
X9459443Y-15592714D01*
X9545157Y-15592714D02*
X9545157Y-15292714D01*
X9516586Y-15335571D01*
X9488014Y-15364143D01*
X9459443Y-15378429D01*
X9759443Y-15564143D02*
X9773728Y-15578429D01*
X9759443Y-15592714D01*
X9745157Y-15578429D01*
X9759443Y-15564143D01*
X9759443Y-15592714D01*
X9959443Y-15292714D02*
X9988014Y-15292714D01*
X10016586Y-15307000D01*
X10030871Y-15321286D01*
X10045157Y-15349857D01*
X10059443Y-15407000D01*
X10059443Y-15478429D01*
X10045157Y-15535571D01*
X10030871Y-15564143D01*
X10016586Y-15578429D01*
X9988014Y-15592714D01*
X9959443Y-15592714D01*
X9930871Y-15578429D01*
X9916586Y-15564143D01*
X9902300Y-15535571D01*
X9888014Y-15478429D01*
X9888014Y-15407000D01*
X9902300Y-15349857D01*
X9916586Y-15321286D01*
X9930871Y-15307000D01*
X9959443Y-15292714D01*
X10173728Y-15321286D02*
X10188014Y-15307000D01*
X10216586Y-15292714D01*
X10288014Y-15292714D01*
X10316586Y-15307000D01*
X10330871Y-15321286D01*
X10345157Y-15349857D01*
X10345157Y-15378429D01*
X10330871Y-15421286D01*
X10159443Y-15592714D01*
X10345157Y-15592714D01*
X10473728Y-15592714D02*
X10473728Y-15392714D01*
X10473728Y-15421286D02*
X10488014Y-15407000D01*
X10516586Y-15392714D01*
X10559443Y-15392714D01*
X10588014Y-15407000D01*
X10602300Y-15435571D01*
X10602300Y-15592714D01*
X10602300Y-15435571D02*
X10616586Y-15407000D01*
X10645157Y-15392714D01*
X10688014Y-15392714D01*
X10716586Y-15407000D01*
X10730871Y-15435571D01*
X10730871Y-15592714D01*
X10873728Y-15592714D02*
X10873728Y-15392714D01*
X10873728Y-15421286D02*
X10888014Y-15407000D01*
X10916586Y-15392714D01*
X10959443Y-15392714D01*
X10988014Y-15407000D01*
X11002300Y-15435571D01*
X11002300Y-15592714D01*
X11002300Y-15435571D02*
X11016586Y-15407000D01*
X11045157Y-15392714D01*
X11088014Y-15392714D01*
X11116586Y-15407000D01*
X11130871Y-15435571D01*
X11130871Y-15592714D01*
X11716586Y-15278429D02*
X11459443Y-15664143D01*
X12102300Y-15292714D02*
X12130871Y-15292714D01*
X12159443Y-15307000D01*
X12173728Y-15321286D01*
X12188014Y-15349857D01*
X12202300Y-15407000D01*
X12202300Y-15478429D01*
X12188014Y-15535571D01*
X12173728Y-15564143D01*
X12159443Y-15578429D01*
X12130871Y-15592714D01*
X12102300Y-15592714D01*
X12073728Y-15578429D01*
X12059443Y-15564143D01*
X12045157Y-15535571D01*
X12030871Y-15478429D01*
X12030871Y-15407000D01*
X12045157Y-15349857D01*
X12059443Y-15321286D01*
X12073728Y-15307000D01*
X12102300Y-15292714D01*
X12330871Y-15564143D02*
X12345157Y-15578429D01*
X12330871Y-15592714D01*
X12316586Y-15578429D01*
X12330871Y-15564143D01*
X12330871Y-15592714D01*
X12530871Y-15292714D02*
X12559443Y-15292714D01*
X12588014Y-15307000D01*
X12602300Y-15321286D01*
X12616586Y-15349857D01*
X12630871Y-15407000D01*
X12630871Y-15478429D01*
X12616586Y-15535571D01*
X12602300Y-15564143D01*
X12588014Y-15578429D01*
X12559443Y-15592714D01*
X12530871Y-15592714D01*
X12502300Y-15578429D01*
X12488014Y-15564143D01*
X12473728Y-15535571D01*
X12459443Y-15478429D01*
X12459443Y-15407000D01*
X12473728Y-15349857D01*
X12488014Y-15321286D01*
X12502300Y-15307000D01*
X12530871Y-15292714D01*
X12888014Y-15392714D02*
X12888014Y-15592714D01*
X12816586Y-15278429D02*
X12745157Y-15492714D01*
X12930871Y-15492714D01*
X13102300Y-15292714D02*
X13130871Y-15292714D01*
X13159443Y-15307000D01*
X13173728Y-15321286D01*
X13188014Y-15349857D01*
X13202300Y-15407000D01*
X13202300Y-15478429D01*
X13188014Y-15535571D01*
X13173728Y-15564143D01*
X13159443Y-15578429D01*
X13130871Y-15592714D01*
X13102300Y-15592714D01*
X13073728Y-15578429D01*
X13059443Y-15564143D01*
X13045157Y-15535571D01*
X13030871Y-15478429D01*
X13030871Y-15407000D01*
X13045157Y-15349857D01*
X13059443Y-15321286D01*
X13073728Y-15307000D01*
X13102300Y-15292714D01*
X13316586Y-15292714D02*
X13316586Y-15349857D01*
X13430871Y-15292714D02*
X13430871Y-15349857D01*
X13873728Y-15707000D02*
X13859443Y-15692714D01*
X13830871Y-15649857D01*
X13816586Y-15621286D01*
X13802300Y-15578429D01*
X13788014Y-15507000D01*
X13788014Y-15449857D01*
X13802300Y-15378429D01*
X13816586Y-15335571D01*
X13830871Y-15307000D01*
X13859443Y-15264143D01*
X13873728Y-15249857D01*
X14145157Y-15592714D02*
X13973728Y-15592714D01*
X14059443Y-15592714D02*
X14059443Y-15292714D01*
X14030871Y-15335571D01*
X14002300Y-15364143D01*
X13973728Y-15378429D01*
X14330871Y-15292714D02*
X14359443Y-15292714D01*
X14388014Y-15307000D01*
X14402300Y-15321286D01*
X14416586Y-15349857D01*
X14430871Y-15407000D01*
X14430871Y-15478429D01*
X14416586Y-15535571D01*
X14402300Y-15564143D01*
X14388014Y-15578429D01*
X14359443Y-15592714D01*
X14330871Y-15592714D01*
X14302300Y-15578429D01*
X14288014Y-15564143D01*
X14273728Y-15535571D01*
X14259443Y-15478429D01*
X14259443Y-15407000D01*
X14273728Y-15349857D01*
X14288014Y-15321286D01*
X14302300Y-15307000D01*
X14330871Y-15292714D01*
X14788014Y-15592714D02*
X14788014Y-15292714D01*
X14916586Y-15592714D02*
X14916586Y-15435571D01*
X14902300Y-15407000D01*
X14873728Y-15392714D01*
X14830871Y-15392714D01*
X14802300Y-15407000D01*
X14788014Y-15421286D01*
X15102300Y-15592714D02*
X15073728Y-15578429D01*
X15059443Y-15564143D01*
X15045157Y-15535571D01*
X15045157Y-15449857D01*
X15059443Y-15421286D01*
X15073728Y-15407000D01*
X15102300Y-15392714D01*
X15145157Y-15392714D01*
X15173728Y-15407000D01*
X15188014Y-15421286D01*
X15202300Y-15449857D01*
X15202300Y-15535571D01*
X15188014Y-15564143D01*
X15173728Y-15578429D01*
X15145157Y-15592714D01*
X15102300Y-15592714D01*
X15373728Y-15592714D02*
X15345157Y-15578429D01*
X15330871Y-15549857D01*
X15330871Y-15292714D01*
X15602300Y-15578429D02*
X15573728Y-15592714D01*
X15516586Y-15592714D01*
X15488014Y-15578429D01*
X15473728Y-15549857D01*
X15473728Y-15435571D01*
X15488014Y-15407000D01*
X15516586Y-15392714D01*
X15573728Y-15392714D01*
X15602300Y-15407000D01*
X15616586Y-15435571D01*
X15616586Y-15464143D01*
X15473728Y-15492714D01*
X15730871Y-15578429D02*
X15759443Y-15592714D01*
X15816586Y-15592714D01*
X15845157Y-15578429D01*
X15859443Y-15549857D01*
X15859443Y-15535571D01*
X15845157Y-15507000D01*
X15816586Y-15492714D01*
X15773728Y-15492714D01*
X15745157Y-15478429D01*
X15730871Y-15449857D01*
X15730871Y-15435571D01*
X15745157Y-15407000D01*
X15773728Y-15392714D01*
X15816586Y-15392714D01*
X15845157Y-15407000D01*
X15959443Y-15707000D02*
X15973728Y-15692714D01*
X16002300Y-15649857D01*
X16016586Y-15621286D01*
X16030871Y-15578429D01*
X16045157Y-15507000D01*
X16045157Y-15449857D01*
X16030871Y-15378429D01*
X16016586Y-15335571D01*
X16002300Y-15307000D01*
X15973728Y-15264143D01*
X15959443Y-15249857D01*
X9077300Y-15798000D02*
X9187300Y-15908000D01*
X9187300Y-15798000D02*
X9077300Y-15908000D01*
X9132300Y-15798000D02*
X9132300Y-15908000D01*
X9077300Y-15853000D02*
X9187300Y-15853000D01*
X9630871Y-15988714D02*
X9459443Y-15988714D01*
X9545157Y-15988714D02*
X9545157Y-15688714D01*
X9516586Y-15731571D01*
X9488014Y-15760143D01*
X9459443Y-15774429D01*
X9759443Y-15960143D02*
X9773728Y-15974429D01*
X9759443Y-15988714D01*
X9745157Y-15974429D01*
X9759443Y-15960143D01*
X9759443Y-15988714D01*
X10059443Y-15988714D02*
X9888014Y-15988714D01*
X9973728Y-15988714D02*
X9973728Y-15688714D01*
X9945157Y-15731571D01*
X9916586Y-15760143D01*
X9888014Y-15774429D01*
X10245157Y-15688714D02*
X10273728Y-15688714D01*
X10302300Y-15703000D01*
X10316586Y-15717286D01*
X10330871Y-15745857D01*
X10345157Y-15803000D01*
X10345157Y-15874429D01*
X10330871Y-15931571D01*
X10316586Y-15960143D01*
X10302300Y-15974429D01*
X10273728Y-15988714D01*
X10245157Y-15988714D01*
X10216586Y-15974429D01*
X10202300Y-15960143D01*
X10188014Y-15931571D01*
X10173728Y-15874429D01*
X10173728Y-15803000D01*
X10188014Y-15745857D01*
X10202300Y-15717286D01*
X10216586Y-15703000D01*
X10245157Y-15688714D01*
X10473728Y-15988714D02*
X10473728Y-15788714D01*
X10473728Y-15817286D02*
X10488014Y-15803000D01*
X10516586Y-15788714D01*
X10559443Y-15788714D01*
X10588014Y-15803000D01*
X10602300Y-15831571D01*
X10602300Y-15988714D01*
X10602300Y-15831571D02*
X10616586Y-15803000D01*
X10645157Y-15788714D01*
X10688014Y-15788714D01*
X10716586Y-15803000D01*
X10730871Y-15831571D01*
X10730871Y-15988714D01*
X10873728Y-15988714D02*
X10873728Y-15788714D01*
X10873728Y-15817286D02*
X10888014Y-15803000D01*
X10916586Y-15788714D01*
X10959443Y-15788714D01*
X10988014Y-15803000D01*
X11002300Y-15831571D01*
X11002300Y-15988714D01*
X11002300Y-15831571D02*
X11016586Y-15803000D01*
X11045157Y-15788714D01*
X11088014Y-15788714D01*
X11116586Y-15803000D01*
X11130871Y-15831571D01*
X11130871Y-15988714D01*
X11716586Y-15674429D02*
X11459443Y-16060143D01*
X12102300Y-15688714D02*
X12130871Y-15688714D01*
X12159443Y-15703000D01*
X12173728Y-15717286D01*
X12188014Y-15745857D01*
X12202300Y-15803000D01*
X12202300Y-15874429D01*
X12188014Y-15931571D01*
X12173728Y-15960143D01*
X12159443Y-15974429D01*
X12130871Y-15988714D01*
X12102300Y-15988714D01*
X12073728Y-15974429D01*
X12059443Y-15960143D01*
X12045157Y-15931571D01*
X12030871Y-15874429D01*
X12030871Y-15803000D01*
X12045157Y-15745857D01*
X12059443Y-15717286D01*
X12073728Y-15703000D01*
X12102300Y-15688714D01*
X12330871Y-15960143D02*
X12345157Y-15974429D01*
X12330871Y-15988714D01*
X12316586Y-15974429D01*
X12330871Y-15960143D01*
X12330871Y-15988714D01*
X12530871Y-15688714D02*
X12559443Y-15688714D01*
X12588014Y-15703000D01*
X12602300Y-15717286D01*
X12616586Y-15745857D01*
X12630871Y-15803000D01*
X12630871Y-15874429D01*
X12616586Y-15931571D01*
X12602300Y-15960143D01*
X12588014Y-15974429D01*
X12559443Y-15988714D01*
X12530871Y-15988714D01*
X12502300Y-15974429D01*
X12488014Y-15960143D01*
X12473728Y-15931571D01*
X12459443Y-15874429D01*
X12459443Y-15803000D01*
X12473728Y-15745857D01*
X12488014Y-15717286D01*
X12502300Y-15703000D01*
X12530871Y-15688714D01*
X12888014Y-15788714D02*
X12888014Y-15988714D01*
X12816586Y-15674429D02*
X12745157Y-15888714D01*
X12930871Y-15888714D01*
X13016586Y-15688714D02*
X13202300Y-15688714D01*
X13102300Y-15803000D01*
X13145157Y-15803000D01*
X13173728Y-15817286D01*
X13188014Y-15831571D01*
X13202300Y-15860143D01*
X13202300Y-15931571D01*
X13188014Y-15960143D01*
X13173728Y-15974429D01*
X13145157Y-15988714D01*
X13059443Y-15988714D01*
X13030871Y-15974429D01*
X13016586Y-15960143D01*
X13316586Y-15688714D02*
X13316586Y-15745857D01*
X13430871Y-15688714D02*
X13430871Y-15745857D01*
X13873728Y-16103000D02*
X13859443Y-16088714D01*
X13830871Y-16045857D01*
X13816586Y-16017286D01*
X13802300Y-15974429D01*
X13788014Y-15903000D01*
X13788014Y-15845857D01*
X13802300Y-15774429D01*
X13816586Y-15731571D01*
X13830871Y-15703000D01*
X13859443Y-15660143D01*
X13873728Y-15645857D01*
X13973728Y-15717286D02*
X13988014Y-15703000D01*
X14016586Y-15688714D01*
X14088014Y-15688714D01*
X14116586Y-15703000D01*
X14130871Y-15717286D01*
X14145157Y-15745857D01*
X14145157Y-15774429D01*
X14130871Y-15817286D01*
X13959443Y-15988714D01*
X14145157Y-15988714D01*
X14502300Y-15988714D02*
X14502300Y-15688714D01*
X14630871Y-15988714D02*
X14630871Y-15831571D01*
X14616586Y-15803000D01*
X14588014Y-15788714D01*
X14545157Y-15788714D01*
X14516586Y-15803000D01*
X14502300Y-15817286D01*
X14816586Y-15988714D02*
X14788014Y-15974429D01*
X14773728Y-15960143D01*
X14759443Y-15931571D01*
X14759443Y-15845857D01*
X14773728Y-15817286D01*
X14788014Y-15803000D01*
X14816586Y-15788714D01*
X14859443Y-15788714D01*
X14888014Y-15803000D01*
X14902300Y-15817286D01*
X14916586Y-15845857D01*
X14916586Y-15931571D01*
X14902300Y-15960143D01*
X14888014Y-15974429D01*
X14859443Y-15988714D01*
X14816586Y-15988714D01*
X15088014Y-15988714D02*
X15059443Y-15974429D01*
X15045157Y-15945857D01*
X15045157Y-15688714D01*
X15316586Y-15974429D02*
X15288014Y-15988714D01*
X15230871Y-15988714D01*
X15202300Y-15974429D01*
X15188014Y-15945857D01*
X15188014Y-15831571D01*
X15202300Y-15803000D01*
X15230871Y-15788714D01*
X15288014Y-15788714D01*
X15316586Y-15803000D01*
X15330871Y-15831571D01*
X15330871Y-15860143D01*
X15188014Y-15888714D01*
X15445157Y-15974429D02*
X15473728Y-15988714D01*
X15530871Y-15988714D01*
X15559443Y-15974429D01*
X15573728Y-15945857D01*
X15573728Y-15931571D01*
X15559443Y-15903000D01*
X15530871Y-15888714D01*
X15488014Y-15888714D01*
X15459443Y-15874429D01*
X15445157Y-15845857D01*
X15445157Y-15831571D01*
X15459443Y-15803000D01*
X15488014Y-15788714D01*
X15530871Y-15788714D01*
X15559443Y-15803000D01*
X15673728Y-16103000D02*
X15688014Y-16088714D01*
X15716586Y-16045857D01*
X15730871Y-16017286D01*
X15745157Y-15974429D01*
X15759443Y-15903000D01*
X15759443Y-15845857D01*
X15745157Y-15774429D01*
X15730871Y-15731571D01*
X15716586Y-15703000D01*
X15688014Y-15660143D01*
X15673728Y-15645857D01*
X9057300Y-16184000D02*
X9187300Y-16314000D01*
X9187300Y-16184000D02*
X9057300Y-16314000D01*
X9168262Y-16294962D02*
X9168262Y-16203038D01*
X9076338Y-16203038D01*
X9076338Y-16294962D01*
X9168262Y-16294962D01*
X9630871Y-16384714D02*
X9459443Y-16384714D01*
X9545157Y-16384714D02*
X9545157Y-16084714D01*
X9516586Y-16127571D01*
X9488014Y-16156143D01*
X9459443Y-16170429D01*
X9759443Y-16356143D02*
X9773728Y-16370429D01*
X9759443Y-16384714D01*
X9745157Y-16370429D01*
X9759443Y-16356143D01*
X9759443Y-16384714D01*
X9873728Y-16084714D02*
X10059443Y-16084714D01*
X9959443Y-16199000D01*
X10002300Y-16199000D01*
X10030871Y-16213286D01*
X10045157Y-16227571D01*
X10059443Y-16256143D01*
X10059443Y-16327571D01*
X10045157Y-16356143D01*
X10030871Y-16370429D01*
X10002300Y-16384714D01*
X9916586Y-16384714D01*
X9888014Y-16370429D01*
X9873728Y-16356143D01*
X10245157Y-16084714D02*
X10273728Y-16084714D01*
X10302300Y-16099000D01*
X10316586Y-16113286D01*
X10330871Y-16141857D01*
X10345157Y-16199000D01*
X10345157Y-16270429D01*
X10330871Y-16327571D01*
X10316586Y-16356143D01*
X10302300Y-16370429D01*
X10273728Y-16384714D01*
X10245157Y-16384714D01*
X10216586Y-16370429D01*
X10202300Y-16356143D01*
X10188014Y-16327571D01*
X10173728Y-16270429D01*
X10173728Y-16199000D01*
X10188014Y-16141857D01*
X10202300Y-16113286D01*
X10216586Y-16099000D01*
X10245157Y-16084714D01*
X10473728Y-16384714D02*
X10473728Y-16184714D01*
X10473728Y-16213286D02*
X10488014Y-16199000D01*
X10516586Y-16184714D01*
X10559443Y-16184714D01*
X10588014Y-16199000D01*
X10602300Y-16227571D01*
X10602300Y-16384714D01*
X10602300Y-16227571D02*
X10616586Y-16199000D01*
X10645157Y-16184714D01*
X10688014Y-16184714D01*
X10716586Y-16199000D01*
X10730871Y-16227571D01*
X10730871Y-16384714D01*
X10873728Y-16384714D02*
X10873728Y-16184714D01*
X10873728Y-16213286D02*
X10888014Y-16199000D01*
X10916586Y-16184714D01*
X10959443Y-16184714D01*
X10988014Y-16199000D01*
X11002300Y-16227571D01*
X11002300Y-16384714D01*
X11002300Y-16227571D02*
X11016586Y-16199000D01*
X11045157Y-16184714D01*
X11088014Y-16184714D01*
X11116586Y-16199000D01*
X11130871Y-16227571D01*
X11130871Y-16384714D01*
X11716586Y-16070429D02*
X11459443Y-16456143D01*
X12102300Y-16084714D02*
X12130871Y-16084714D01*
X12159443Y-16099000D01*
X12173728Y-16113286D01*
X12188014Y-16141857D01*
X12202300Y-16199000D01*
X12202300Y-16270429D01*
X12188014Y-16327571D01*
X12173728Y-16356143D01*
X12159443Y-16370429D01*
X12130871Y-16384714D01*
X12102300Y-16384714D01*
X12073728Y-16370429D01*
X12059443Y-16356143D01*
X12045157Y-16327571D01*
X12030871Y-16270429D01*
X12030871Y-16199000D01*
X12045157Y-16141857D01*
X12059443Y-16113286D01*
X12073728Y-16099000D01*
X12102300Y-16084714D01*
X12330871Y-16356143D02*
X12345157Y-16370429D01*
X12330871Y-16384714D01*
X12316586Y-16370429D01*
X12330871Y-16356143D01*
X12330871Y-16384714D01*
X12530871Y-16084714D02*
X12559443Y-16084714D01*
X12588014Y-16099000D01*
X12602300Y-16113286D01*
X12616586Y-16141857D01*
X12630871Y-16199000D01*
X12630871Y-16270429D01*
X12616586Y-16327571D01*
X12602300Y-16356143D01*
X12588014Y-16370429D01*
X12559443Y-16384714D01*
X12530871Y-16384714D01*
X12502300Y-16370429D01*
X12488014Y-16356143D01*
X12473728Y-16327571D01*
X12459443Y-16270429D01*
X12459443Y-16199000D01*
X12473728Y-16141857D01*
X12488014Y-16113286D01*
X12502300Y-16099000D01*
X12530871Y-16084714D01*
X12902300Y-16084714D02*
X12759443Y-16084714D01*
X12745157Y-16227571D01*
X12759443Y-16213286D01*
X12788014Y-16199000D01*
X12859443Y-16199000D01*
X12888014Y-16213286D01*
X12902300Y-16227571D01*
X12916586Y-16256143D01*
X12916586Y-16327571D01*
X12902300Y-16356143D01*
X12888014Y-16370429D01*
X12859443Y-16384714D01*
X12788014Y-16384714D01*
X12759443Y-16370429D01*
X12745157Y-16356143D01*
X13202300Y-16384714D02*
X13030871Y-16384714D01*
X13116586Y-16384714D02*
X13116586Y-16084714D01*
X13088014Y-16127571D01*
X13059443Y-16156143D01*
X13030871Y-16170429D01*
X13316586Y-16084714D02*
X13316586Y-16141857D01*
X13430871Y-16084714D02*
X13430871Y-16141857D01*
X13873728Y-16499000D02*
X13859443Y-16484714D01*
X13830871Y-16441857D01*
X13816586Y-16413286D01*
X13802300Y-16370429D01*
X13788014Y-16299000D01*
X13788014Y-16241857D01*
X13802300Y-16170429D01*
X13816586Y-16127571D01*
X13830871Y-16099000D01*
X13859443Y-16056143D01*
X13873728Y-16041857D01*
X13959443Y-16084714D02*
X14145157Y-16084714D01*
X14045157Y-16199000D01*
X14088014Y-16199000D01*
X14116586Y-16213286D01*
X14130871Y-16227571D01*
X14145157Y-16256143D01*
X14145157Y-16327571D01*
X14130871Y-16356143D01*
X14116586Y-16370429D01*
X14088014Y-16384714D01*
X14002300Y-16384714D01*
X13973728Y-16370429D01*
X13959443Y-16356143D01*
X14316586Y-16213286D02*
X14288014Y-16199000D01*
X14273728Y-16184714D01*
X14259443Y-16156143D01*
X14259443Y-16141857D01*
X14273728Y-16113286D01*
X14288014Y-16099000D01*
X14316586Y-16084714D01*
X14373728Y-16084714D01*
X14402300Y-16099000D01*
X14416586Y-16113286D01*
X14430871Y-16141857D01*
X14430871Y-16156143D01*
X14416586Y-16184714D01*
X14402300Y-16199000D01*
X14373728Y-16213286D01*
X14316586Y-16213286D01*
X14288014Y-16227571D01*
X14273728Y-16241857D01*
X14259443Y-16270429D01*
X14259443Y-16327571D01*
X14273728Y-16356143D01*
X14288014Y-16370429D01*
X14316586Y-16384714D01*
X14373728Y-16384714D01*
X14402300Y-16370429D01*
X14416586Y-16356143D01*
X14430871Y-16327571D01*
X14430871Y-16270429D01*
X14416586Y-16241857D01*
X14402300Y-16227571D01*
X14373728Y-16213286D01*
X14788014Y-16384714D02*
X14788014Y-16084714D01*
X14916586Y-16384714D02*
X14916586Y-16227571D01*
X14902300Y-16199000D01*
X14873728Y-16184714D01*
X14830871Y-16184714D01*
X14802300Y-16199000D01*
X14788014Y-16213286D01*
X15102300Y-16384714D02*
X15073728Y-16370429D01*
X15059443Y-16356143D01*
X15045157Y-16327571D01*
X15045157Y-16241857D01*
X15059443Y-16213286D01*
X15073728Y-16199000D01*
X15102300Y-16184714D01*
X15145157Y-16184714D01*
X15173728Y-16199000D01*
X15188014Y-16213286D01*
X15202300Y-16241857D01*
X15202300Y-16327571D01*
X15188014Y-16356143D01*
X15173728Y-16370429D01*
X15145157Y-16384714D01*
X15102300Y-16384714D01*
X15373728Y-16384714D02*
X15345157Y-16370429D01*
X15330871Y-16341857D01*
X15330871Y-16084714D01*
X15602300Y-16370429D02*
X15573728Y-16384714D01*
X15516586Y-16384714D01*
X15488014Y-16370429D01*
X15473728Y-16341857D01*
X15473728Y-16227571D01*
X15488014Y-16199000D01*
X15516586Y-16184714D01*
X15573728Y-16184714D01*
X15602300Y-16199000D01*
X15616586Y-16227571D01*
X15616586Y-16256143D01*
X15473728Y-16284714D01*
X15730871Y-16370429D02*
X15759443Y-16384714D01*
X15816586Y-16384714D01*
X15845157Y-16370429D01*
X15859443Y-16341857D01*
X15859443Y-16327571D01*
X15845157Y-16299000D01*
X15816586Y-16284714D01*
X15773728Y-16284714D01*
X15745157Y-16270429D01*
X15730871Y-16241857D01*
X15730871Y-16227571D01*
X15745157Y-16199000D01*
X15773728Y-16184714D01*
X15816586Y-16184714D01*
X15845157Y-16199000D01*
X15959443Y-16499000D02*
X15973728Y-16484714D01*
X16002300Y-16441857D01*
X16016586Y-16413286D01*
X16030871Y-16370429D01*
X16045157Y-16299000D01*
X16045157Y-16241857D01*
X16030871Y-16170429D01*
X16016586Y-16127571D01*
X16002300Y-16099000D01*
X15973728Y-16056143D01*
X15959443Y-16041857D01*
X9027300Y-16565000D02*
X9187300Y-16725000D01*
X9187300Y-16565000D02*
X9027300Y-16725000D01*
X9107300Y-16725000D02*
X9187300Y-16645000D01*
X9107300Y-16565000D01*
X9027300Y-16645000D01*
X9107300Y-16725000D01*
X9630871Y-16780714D02*
X9459443Y-16780714D01*
X9545157Y-16780714D02*
X9545157Y-16480714D01*
X9516586Y-16523571D01*
X9488014Y-16552143D01*
X9459443Y-16566429D01*
X9759443Y-16752143D02*
X9773728Y-16766429D01*
X9759443Y-16780714D01*
X9745157Y-16766429D01*
X9759443Y-16752143D01*
X9759443Y-16780714D01*
X10030871Y-16480714D02*
X9973728Y-16480714D01*
X9945157Y-16495000D01*
X9930871Y-16509286D01*
X9902300Y-16552143D01*
X9888014Y-16609286D01*
X9888014Y-16723571D01*
X9902300Y-16752143D01*
X9916586Y-16766429D01*
X9945157Y-16780714D01*
X10002300Y-16780714D01*
X10030871Y-16766429D01*
X10045157Y-16752143D01*
X10059443Y-16723571D01*
X10059443Y-16652143D01*
X10045157Y-16623571D01*
X10030871Y-16609286D01*
X10002300Y-16595000D01*
X9945157Y-16595000D01*
X9916586Y-16609286D01*
X9902300Y-16623571D01*
X9888014Y-16652143D01*
X10245157Y-16480714D02*
X10273728Y-16480714D01*
X10302300Y-16495000D01*
X10316586Y-16509286D01*
X10330871Y-16537857D01*
X10345157Y-16595000D01*
X10345157Y-16666429D01*
X10330871Y-16723571D01*
X10316586Y-16752143D01*
X10302300Y-16766429D01*
X10273728Y-16780714D01*
X10245157Y-16780714D01*
X10216586Y-16766429D01*
X10202300Y-16752143D01*
X10188014Y-16723571D01*
X10173728Y-16666429D01*
X10173728Y-16595000D01*
X10188014Y-16537857D01*
X10202300Y-16509286D01*
X10216586Y-16495000D01*
X10245157Y-16480714D01*
X10473728Y-16780714D02*
X10473728Y-16580714D01*
X10473728Y-16609286D02*
X10488014Y-16595000D01*
X10516586Y-16580714D01*
X10559443Y-16580714D01*
X10588014Y-16595000D01*
X10602300Y-16623571D01*
X10602300Y-16780714D01*
X10602300Y-16623571D02*
X10616586Y-16595000D01*
X10645157Y-16580714D01*
X10688014Y-16580714D01*
X10716586Y-16595000D01*
X10730871Y-16623571D01*
X10730871Y-16780714D01*
X10873728Y-16780714D02*
X10873728Y-16580714D01*
X10873728Y-16609286D02*
X10888014Y-16595000D01*
X10916586Y-16580714D01*
X10959443Y-16580714D01*
X10988014Y-16595000D01*
X11002300Y-16623571D01*
X11002300Y-16780714D01*
X11002300Y-16623571D02*
X11016586Y-16595000D01*
X11045157Y-16580714D01*
X11088014Y-16580714D01*
X11116586Y-16595000D01*
X11130871Y-16623571D01*
X11130871Y-16780714D01*
X11716586Y-16466429D02*
X11459443Y-16852143D01*
X12102300Y-16480714D02*
X12130871Y-16480714D01*
X12159443Y-16495000D01*
X12173728Y-16509286D01*
X12188014Y-16537857D01*
X12202300Y-16595000D01*
X12202300Y-16666429D01*
X12188014Y-16723571D01*
X12173728Y-16752143D01*
X12159443Y-16766429D01*
X12130871Y-16780714D01*
X12102300Y-16780714D01*
X12073728Y-16766429D01*
X12059443Y-16752143D01*
X12045157Y-16723571D01*
X12030871Y-16666429D01*
X12030871Y-16595000D01*
X12045157Y-16537857D01*
X12059443Y-16509286D01*
X12073728Y-16495000D01*
X12102300Y-16480714D01*
X12330871Y-16752143D02*
X12345157Y-16766429D01*
X12330871Y-16780714D01*
X12316586Y-16766429D01*
X12330871Y-16752143D01*
X12330871Y-16780714D01*
X12530871Y-16480714D02*
X12559443Y-16480714D01*
X12588014Y-16495000D01*
X12602300Y-16509286D01*
X12616586Y-16537857D01*
X12630871Y-16595000D01*
X12630871Y-16666429D01*
X12616586Y-16723571D01*
X12602300Y-16752143D01*
X12588014Y-16766429D01*
X12559443Y-16780714D01*
X12530871Y-16780714D01*
X12502300Y-16766429D01*
X12488014Y-16752143D01*
X12473728Y-16723571D01*
X12459443Y-16666429D01*
X12459443Y-16595000D01*
X12473728Y-16537857D01*
X12488014Y-16509286D01*
X12502300Y-16495000D01*
X12530871Y-16480714D01*
X12888014Y-16480714D02*
X12830871Y-16480714D01*
X12802300Y-16495000D01*
X12788014Y-16509286D01*
X12759443Y-16552143D01*
X12745157Y-16609286D01*
X12745157Y-16723571D01*
X12759443Y-16752143D01*
X12773728Y-16766429D01*
X12802300Y-16780714D01*
X12859443Y-16780714D01*
X12888014Y-16766429D01*
X12902300Y-16752143D01*
X12916586Y-16723571D01*
X12916586Y-16652143D01*
X12902300Y-16623571D01*
X12888014Y-16609286D01*
X12859443Y-16595000D01*
X12802300Y-16595000D01*
X12773728Y-16609286D01*
X12759443Y-16623571D01*
X12745157Y-16652143D01*
X13016586Y-16480714D02*
X13202300Y-16480714D01*
X13102300Y-16595000D01*
X13145157Y-16595000D01*
X13173728Y-16609286D01*
X13188014Y-16623571D01*
X13202300Y-16652143D01*
X13202300Y-16723571D01*
X13188014Y-16752143D01*
X13173728Y-16766429D01*
X13145157Y-16780714D01*
X13059443Y-16780714D01*
X13030871Y-16766429D01*
X13016586Y-16752143D01*
X13316586Y-16480714D02*
X13316586Y-16537857D01*
X13430871Y-16480714D02*
X13430871Y-16537857D01*
X13873728Y-16895000D02*
X13859443Y-16880714D01*
X13830871Y-16837857D01*
X13816586Y-16809286D01*
X13802300Y-16766429D01*
X13788014Y-16695000D01*
X13788014Y-16637857D01*
X13802300Y-16566429D01*
X13816586Y-16523571D01*
X13830871Y-16495000D01*
X13859443Y-16452143D01*
X13873728Y-16437857D01*
X14116586Y-16580714D02*
X14116586Y-16780714D01*
X14045157Y-16466429D02*
X13973728Y-16680714D01*
X14159443Y-16680714D01*
X14502300Y-16780714D02*
X14502300Y-16480714D01*
X14630871Y-16780714D02*
X14630871Y-16623571D01*
X14616586Y-16595000D01*
X14588014Y-16580714D01*
X14545157Y-16580714D01*
X14516586Y-16595000D01*
X14502300Y-16609286D01*
X14816586Y-16780714D02*
X14788014Y-16766429D01*
X14773728Y-16752143D01*
X14759443Y-16723571D01*
X14759443Y-16637857D01*
X14773728Y-16609286D01*
X14788014Y-16595000D01*
X14816586Y-16580714D01*
X14859443Y-16580714D01*
X14888014Y-16595000D01*
X14902300Y-16609286D01*
X14916586Y-16637857D01*
X14916586Y-16723571D01*
X14902300Y-16752143D01*
X14888014Y-16766429D01*
X14859443Y-16780714D01*
X14816586Y-16780714D01*
X15088014Y-16780714D02*
X15059443Y-16766429D01*
X15045157Y-16737857D01*
X15045157Y-16480714D01*
X15316586Y-16766429D02*
X15288014Y-16780714D01*
X15230871Y-16780714D01*
X15202300Y-16766429D01*
X15188014Y-16737857D01*
X15188014Y-16623571D01*
X15202300Y-16595000D01*
X15230871Y-16580714D01*
X15288014Y-16580714D01*
X15316586Y-16595000D01*
X15330871Y-16623571D01*
X15330871Y-16652143D01*
X15188014Y-16680714D01*
X15445157Y-16766429D02*
X15473728Y-16780714D01*
X15530871Y-16780714D01*
X15559443Y-16766429D01*
X15573728Y-16737857D01*
X15573728Y-16723571D01*
X15559443Y-16695000D01*
X15530871Y-16680714D01*
X15488014Y-16680714D01*
X15459443Y-16666429D01*
X15445157Y-16637857D01*
X15445157Y-16623571D01*
X15459443Y-16595000D01*
X15488014Y-16580714D01*
X15530871Y-16580714D01*
X15559443Y-16595000D01*
X15673728Y-16895000D02*
X15688014Y-16880714D01*
X15716586Y-16837857D01*
X15730871Y-16809286D01*
X15745157Y-16766429D01*
X15759443Y-16695000D01*
X15759443Y-16637857D01*
X15745157Y-16566429D01*
X15730871Y-16523571D01*
X15716586Y-16495000D01*
X15688014Y-16452143D01*
X15673728Y-16437857D01*
M02*
