M48
;DRILL file {KiCad 201611211049+7371~55~ubuntu16.10.1-product} date Thu Dec 29 13:14:50 2016
;FORMAT={-:-/ absolute / inch / decimal}
FMAT,2
INCH,TZ
T1C0.016
T2C0.031
T3C0.032
T4C0.039
T5C0.040
T6C0.050
T7C0.051
%
G90
G05
M72
T1
X4.615Y-3.49
X6.345Y-3.535
X6.62Y-3.275
X7.38Y-3.145
X7.38Y-3.2
X7.57Y-3.355
X7.66Y-2.165
X7.895Y-2.23
T2
X4.305Y-3.685
X4.305Y-3.7834
X4.31Y-4.0416
X4.31Y-4.14
X5.595Y-3.025
X5.595Y-3.625
X5.695Y-3.025
X5.695Y-3.625
X5.795Y-3.025
X5.795Y-3.625
X5.895Y-3.025
X5.895Y-3.625
X5.995Y-3.025
X5.995Y-3.625
X6.095Y-3.025
X6.095Y-3.625
X6.195Y-3.025
X6.195Y-3.625
X6.295Y-3.025
X6.295Y-3.625
X6.395Y-3.025
X6.395Y-3.625
X6.495Y-3.025
X6.495Y-3.625
X6.595Y-3.025
X6.595Y-3.625
X6.695Y-3.025
X6.695Y-3.625
X6.795Y-3.025
X6.795Y-3.625
X6.895Y-3.025
X6.895Y-3.625
X6.995Y-3.025
X6.995Y-3.625
X7.095Y-3.025
X7.095Y-3.625
X7.195Y-3.025
X7.195Y-3.625
X7.295Y-3.025
X7.295Y-3.625
X7.395Y-3.025
X7.395Y-3.625
X7.495Y-3.025
X7.495Y-3.625
T3
X5.52Y-2.37
X5.52Y-2.72
X5.53Y-4.115
X5.54Y-3.76
X5.63Y-2.37
X5.63Y-2.72
X5.64Y-4.115
X5.65Y-3.76
X5.74Y-2.37
X5.74Y-2.72
X5.75Y-4.115
X5.76Y-3.76
X5.85Y-2.37
X5.85Y-2.72
X5.86Y-4.115
X5.87Y-3.76
X5.96Y-2.37
X5.96Y-2.72
X5.97Y-4.115
X5.98Y-3.76
X6.07Y-2.37
X6.07Y-2.72
X6.08Y-4.115
X6.09Y-3.76
X6.18Y-2.37
X6.18Y-2.72
X6.19Y-4.115
X6.2Y-3.76
X6.29Y-2.37
X6.29Y-2.72
X6.3Y-4.115
X6.31Y-3.76
X6.6589Y-3.845
X6.69Y-2.395
X6.69Y-2.745
X6.8Y-2.395
X6.8Y-2.745
X6.8511Y-3.845
X6.91Y-2.395
X6.91Y-2.745
X7.02Y-2.395
X7.02Y-2.745
X7.02Y-3.76
X7.02Y-4.115
X7.13Y-2.395
X7.13Y-2.745
X7.13Y-3.76
X7.13Y-4.115
X7.24Y-2.395
X7.24Y-2.745
X7.24Y-3.76
X7.24Y-4.115
X7.35Y-2.395
X7.35Y-2.745
X7.35Y-3.76
X7.35Y-4.115
X7.46Y-2.395
X7.46Y-2.745
X7.46Y-3.76
X7.46Y-4.115
X7.57Y-3.76
X7.57Y-4.115
X7.68Y-3.76
X7.68Y-4.115
X7.79Y-3.76
X7.79Y-4.115
T4
X3.7599Y-4.1
X3.79Y-4.285
X3.79Y-4.685
X4.015Y-3.79
X4.015Y-3.89
X4.015Y-3.99
X4.5225Y-2.6375
X4.5244Y-4.1925
X5.1956Y-4.1925
X5.1975Y-2.6375
T5
X4.06Y-2.13
X4.06Y-2.23
X4.16Y-2.13
X4.16Y-2.23
X4.26Y-2.13
X4.26Y-2.23
X4.36Y-2.13
X4.36Y-2.23
X5.155Y-2.08
X5.16Y-2.24
X5.255Y-2.08
X5.26Y-2.24
X5.355Y-2.08
X5.36Y-2.24
X5.455Y-2.08
X5.46Y-2.24
X5.555Y-2.08
X5.56Y-2.24
X5.56Y-2.87
X5.565Y-4.245
X5.565Y-4.42
X5.655Y-2.08
X5.66Y-2.24
X5.66Y-2.87
X5.665Y-4.245
X5.665Y-4.42
X5.755Y-2.08
X5.76Y-2.24
X5.76Y-2.87
X5.765Y-4.245
X5.765Y-4.42
X5.855Y-2.08
X5.86Y-2.24
X5.86Y-2.87
X5.865Y-4.245
X5.865Y-4.42
X5.955Y-2.08
X5.96Y-2.24
X5.96Y-2.87
X5.965Y-4.245
X5.965Y-4.42
X6.055Y-2.08
X6.06Y-2.24
X6.06Y-2.87
X6.065Y-4.245
X6.065Y-4.42
X6.155Y-2.08
X6.16Y-2.24
X6.16Y-2.87
X6.165Y-4.245
X6.165Y-4.42
X6.255Y-2.08
X6.26Y-2.24
X6.26Y-2.87
X6.265Y-4.245
X6.265Y-4.42
X6.71Y-2.11
X6.71Y-2.26
X6.81Y-2.11
X6.81Y-2.26
X6.91Y-2.11
X6.91Y-2.26
X7.01Y-2.11
X7.01Y-2.26
X7.02Y-4.24
X7.02Y-4.42
X7.11Y-2.11
X7.11Y-2.26
X7.12Y-4.24
X7.12Y-4.42
X7.21Y-2.11
X7.21Y-2.26
X7.22Y-4.24
X7.22Y-4.42
X7.31Y-2.11
X7.31Y-2.26
X7.32Y-4.24
X7.32Y-4.42
X7.41Y-2.11
X7.41Y-2.26
X7.42Y-4.24
X7.42Y-4.42
X7.52Y-4.24
X7.52Y-4.42
X7.62Y-4.24
X7.62Y-4.42
X7.72Y-4.24
X7.72Y-4.42
X7.725Y-2.31
X7.725Y-2.41
X7.725Y-2.51
X7.725Y-2.61
X7.795Y-3.05
X7.795Y-3.15
X7.795Y-3.25
X7.795Y-3.35
X7.795Y-3.45
X7.895Y-3.05
X7.895Y-3.15
X7.895Y-3.25
X7.895Y-3.35
X7.895Y-3.45
T6
X3.7599Y-3.7
T7
X4.0646Y-1.765
X4.2615Y-1.765
X4.4583Y-1.765
X4.6552Y-1.765
X4.852Y-1.765
X4.915Y-4.74
X5.0489Y-1.765
X5.1119Y-4.74
X5.2457Y-1.765
X5.3087Y-4.74
X5.4426Y-1.765
X5.5056Y-4.74
X5.6394Y-1.765
X5.7024Y-4.74
X5.8363Y-1.765
X5.8993Y-4.74
X6.0331Y-1.765
X6.0961Y-4.74
X6.23Y-1.765
X6.293Y-4.74
X6.535Y-4.735
X6.537Y-1.765
X6.7319Y-4.735
X6.7339Y-1.765
X6.9287Y-4.735
X6.9307Y-1.765
X7.1256Y-4.735
X7.1276Y-1.765
X7.3224Y-4.735
X7.3244Y-1.765
X7.5193Y-4.735
X7.5213Y-1.765
X7.7161Y-4.735
X7.7181Y-1.765
X7.913Y-4.735
X7.915Y-1.765
T4
X4.0756Y-4.3859G85X4.1543Y-4.3859
G05
X4.0756Y-4.6221G85X4.1543Y-4.6221
G05
X4.3Y-4.5434G85X4.3Y-4.4646
G05
T0
M30
