G04 #@! TF.FileFunction,Legend,Top*
%FSLAX46Y46*%
G04 Gerber Fmt 4.6, Leading zero omitted, Abs format (unit mm)*
G04 Created by KiCad (PCBNEW 201611211049+7371~55~ubuntu16.10.1-product) date Thu Dec 29 13:08:53 2016*
%MOMM*%
%LPD*%
G01*
G04 APERTURE LIST*
%ADD10C,0.100000*%
%ADD11C,0.200000*%
%ADD12C,0.150000*%
%ADD13C,0.125000*%
G04 APERTURE END LIST*
D10*
D11*
X129230523Y-90765380D02*
X129801952Y-90765380D01*
X129516238Y-91765380D02*
X129516238Y-90765380D01*
X130040047Y-91765380D02*
X130563857Y-91098714D01*
X130040047Y-91098714D02*
X130563857Y-91765380D01*
X129952761Y-89225380D02*
X129619428Y-88749190D01*
X129381333Y-89225380D02*
X129381333Y-88225380D01*
X129762285Y-88225380D01*
X129857523Y-88273000D01*
X129905142Y-88320619D01*
X129952761Y-88415857D01*
X129952761Y-88558714D01*
X129905142Y-88653952D01*
X129857523Y-88701571D01*
X129762285Y-88749190D01*
X129381333Y-88749190D01*
X130286095Y-89225380D02*
X130809904Y-88558714D01*
X130286095Y-88558714D02*
X130809904Y-89225380D01*
X129794095Y-85733000D02*
X129698857Y-85685380D01*
X129556000Y-85685380D01*
X129413142Y-85733000D01*
X129317904Y-85828238D01*
X129270285Y-85923476D01*
X129222666Y-86113952D01*
X129222666Y-86256809D01*
X129270285Y-86447285D01*
X129317904Y-86542523D01*
X129413142Y-86637761D01*
X129556000Y-86685380D01*
X129651238Y-86685380D01*
X129794095Y-86637761D01*
X129841714Y-86590142D01*
X129841714Y-86256809D01*
X129651238Y-86256809D01*
X130270285Y-86685380D02*
X130270285Y-85685380D01*
X130841714Y-86685380D01*
X130841714Y-85685380D01*
X131317904Y-86685380D02*
X131317904Y-85685380D01*
X131556000Y-85685380D01*
X131698857Y-85733000D01*
X131794095Y-85828238D01*
X131841714Y-85923476D01*
X131889333Y-86113952D01*
X131889333Y-86256809D01*
X131841714Y-86447285D01*
X131794095Y-86542523D01*
X131698857Y-86637761D01*
X131556000Y-86685380D01*
X131317904Y-86685380D01*
X129857523Y-83272380D02*
X129381333Y-83272380D01*
X129333714Y-83748571D01*
X129381333Y-83700952D01*
X129476571Y-83653333D01*
X129714666Y-83653333D01*
X129809904Y-83700952D01*
X129857523Y-83748571D01*
X129905142Y-83843809D01*
X129905142Y-84081904D01*
X129857523Y-84177142D01*
X129809904Y-84224761D01*
X129714666Y-84272380D01*
X129476571Y-84272380D01*
X129381333Y-84224761D01*
X129333714Y-84177142D01*
X130190857Y-83272380D02*
X130524190Y-84272380D01*
X130857523Y-83272380D01*
D12*
X149987000Y-71374000D02*
X149987000Y-103886000D01*
X149987000Y-103886000D02*
X167767000Y-103886000D01*
X167767000Y-103886000D02*
X167767000Y-71374000D01*
X167767000Y-71374000D02*
X149987000Y-71374000D01*
X167767000Y-78486000D02*
X160147000Y-78486000D01*
X160147000Y-78486000D02*
X160147000Y-96774000D01*
X160147000Y-96774000D02*
X167767000Y-96774000D01*
X167767000Y-80010000D02*
X176403000Y-80010000D01*
X176403000Y-80010000D02*
X176403000Y-95250000D01*
X176403000Y-95250000D02*
X167767000Y-95250000D01*
X134993750Y-83526250D02*
X134993750Y-82526250D01*
X133293750Y-82526250D02*
X133293750Y-83526250D01*
X133230250Y-88241250D02*
X133230250Y-89241250D01*
X134930250Y-89241250D02*
X134930250Y-88241250D01*
X144486250Y-74492750D02*
X143486250Y-74492750D01*
X143486250Y-76192750D02*
X144486250Y-76192750D01*
X133230250Y-93384750D02*
X133230250Y-94384750D01*
X134930250Y-94384750D02*
X134930250Y-93384750D01*
X133135000Y-76081000D02*
X133135000Y-77081000D01*
X134835000Y-77081000D02*
X134835000Y-76081000D01*
X128808000Y-92863000D02*
X128808000Y-91313000D01*
X127508000Y-92863000D02*
X128808000Y-92863000D01*
X123317000Y-91440000D02*
X117475000Y-91440000D01*
X117475000Y-91440000D02*
X117475000Y-91186000D01*
X117475000Y-91186000D02*
X123317000Y-91186000D01*
X123317000Y-91186000D02*
X123317000Y-91313000D01*
X123317000Y-91313000D02*
X117475000Y-91313000D01*
X125984000Y-91567000D02*
X126365000Y-91567000D01*
X125984000Y-91059000D02*
X126365000Y-91059000D01*
X125984000Y-89027000D02*
X126365000Y-89027000D01*
X125984000Y-88519000D02*
X126365000Y-88519000D01*
X125984000Y-86487000D02*
X126365000Y-86487000D01*
X125984000Y-85979000D02*
X126365000Y-85979000D01*
X125984000Y-83439000D02*
X126365000Y-83439000D01*
X125984000Y-83947000D02*
X126365000Y-83947000D01*
X125984000Y-92583000D02*
X123444000Y-92583000D01*
X125984000Y-90043000D02*
X123444000Y-90043000D01*
X125984000Y-90043000D02*
X125984000Y-87503000D01*
X125984000Y-87503000D02*
X123444000Y-87503000D01*
X123444000Y-89027000D02*
X117348000Y-89027000D01*
X117348000Y-89027000D02*
X117348000Y-88519000D01*
X117348000Y-88519000D02*
X123444000Y-88519000D01*
X123444000Y-87503000D02*
X123444000Y-90043000D01*
X123444000Y-90043000D02*
X123444000Y-92583000D01*
X117348000Y-91059000D02*
X123444000Y-91059000D01*
X117348000Y-91567000D02*
X117348000Y-91059000D01*
X123444000Y-91567000D02*
X117348000Y-91567000D01*
X125984000Y-90043000D02*
X123444000Y-90043000D01*
X125984000Y-92583000D02*
X125984000Y-90043000D01*
X125984000Y-84963000D02*
X123444000Y-84963000D01*
X125984000Y-84963000D02*
X125984000Y-82423000D01*
X125984000Y-82423000D02*
X123444000Y-82423000D01*
X123444000Y-83947000D02*
X117348000Y-83947000D01*
X117348000Y-83947000D02*
X117348000Y-83439000D01*
X117348000Y-83439000D02*
X123444000Y-83439000D01*
X123444000Y-82423000D02*
X123444000Y-84963000D01*
X123444000Y-84963000D02*
X123444000Y-87503000D01*
X117348000Y-85979000D02*
X123444000Y-85979000D01*
X117348000Y-86487000D02*
X117348000Y-85979000D01*
X123444000Y-86487000D02*
X117348000Y-86487000D01*
X125984000Y-84963000D02*
X123444000Y-84963000D01*
X125984000Y-87503000D02*
X125984000Y-84963000D01*
X125984000Y-87503000D02*
X123444000Y-87503000D01*
X138406250Y-77492750D02*
X138406250Y-78762750D01*
X145756250Y-77492750D02*
X145756250Y-78762750D01*
X145756250Y-99862750D02*
X145756250Y-98592750D01*
X138406250Y-99862750D02*
X138406250Y-98592750D01*
X138406250Y-77492750D02*
X145756250Y-77492750D01*
X138406250Y-99862750D02*
X145756250Y-99862750D01*
X138406250Y-78762750D02*
X137121250Y-78762750D01*
X130341000Y-76589000D02*
X130341000Y-77589000D01*
X132041000Y-77589000D02*
X132041000Y-76589000D01*
X131152000Y-96004000D02*
X131152000Y-95004000D01*
X129452000Y-95004000D02*
X129452000Y-96004000D01*
X126277000Y-95004000D02*
X126277000Y-96004000D01*
X127977000Y-96004000D02*
X127977000Y-95004000D01*
X129628000Y-77589000D02*
X129628000Y-76589000D01*
X127928000Y-76589000D02*
X127928000Y-77589000D01*
X132199000Y-98591000D02*
X131199000Y-98591000D01*
X131199000Y-100291000D02*
X132199000Y-100291000D01*
X128389000Y-98591000D02*
X127389000Y-98591000D01*
X127389000Y-100291000D02*
X128389000Y-100291000D01*
X161885380Y-89106333D02*
X162599666Y-89106333D01*
X162742523Y-89153952D01*
X162837761Y-89249190D01*
X162885380Y-89392047D01*
X162885380Y-89487285D01*
X162885380Y-88106333D02*
X162885380Y-88677761D01*
X162885380Y-88392047D02*
X161885380Y-88392047D01*
X162028238Y-88487285D01*
X162123476Y-88582523D01*
X162171095Y-88677761D01*
D13*
X136267000Y-82793666D02*
X136300333Y-82827000D01*
X136333666Y-82927000D01*
X136333666Y-82993666D01*
X136300333Y-83093666D01*
X136233666Y-83160333D01*
X136167000Y-83193666D01*
X136033666Y-83227000D01*
X135933666Y-83227000D01*
X135800333Y-83193666D01*
X135733666Y-83160333D01*
X135667000Y-83093666D01*
X135633666Y-82993666D01*
X135633666Y-82927000D01*
X135667000Y-82827000D01*
X135700333Y-82793666D01*
X136333666Y-82127000D02*
X136333666Y-82527000D01*
X136333666Y-82327000D02*
X135633666Y-82327000D01*
X135733666Y-82393666D01*
X135800333Y-82460333D01*
X135833666Y-82527000D01*
X136267000Y-88889666D02*
X136300333Y-88923000D01*
X136333666Y-89023000D01*
X136333666Y-89089666D01*
X136300333Y-89189666D01*
X136233666Y-89256333D01*
X136167000Y-89289666D01*
X136033666Y-89323000D01*
X135933666Y-89323000D01*
X135800333Y-89289666D01*
X135733666Y-89256333D01*
X135667000Y-89189666D01*
X135633666Y-89089666D01*
X135633666Y-89023000D01*
X135667000Y-88923000D01*
X135700333Y-88889666D01*
X135700333Y-88623000D02*
X135667000Y-88589666D01*
X135633666Y-88523000D01*
X135633666Y-88356333D01*
X135667000Y-88289666D01*
X135700333Y-88256333D01*
X135767000Y-88223000D01*
X135833666Y-88223000D01*
X135933666Y-88256333D01*
X136333666Y-88656333D01*
X136333666Y-88223000D01*
X147203333Y-75561000D02*
X147170000Y-75594333D01*
X147070000Y-75627666D01*
X147003333Y-75627666D01*
X146903333Y-75594333D01*
X146836666Y-75527666D01*
X146803333Y-75461000D01*
X146770000Y-75327666D01*
X146770000Y-75227666D01*
X146803333Y-75094333D01*
X146836666Y-75027666D01*
X146903333Y-74961000D01*
X147003333Y-74927666D01*
X147070000Y-74927666D01*
X147170000Y-74961000D01*
X147203333Y-74994333D01*
X147436666Y-74927666D02*
X147870000Y-74927666D01*
X147636666Y-75194333D01*
X147736666Y-75194333D01*
X147803333Y-75227666D01*
X147836666Y-75261000D01*
X147870000Y-75327666D01*
X147870000Y-75494333D01*
X147836666Y-75561000D01*
X147803333Y-75594333D01*
X147736666Y-75627666D01*
X147536666Y-75627666D01*
X147470000Y-75594333D01*
X147436666Y-75561000D01*
X136140000Y-94604666D02*
X136173333Y-94638000D01*
X136206666Y-94738000D01*
X136206666Y-94804666D01*
X136173333Y-94904666D01*
X136106666Y-94971333D01*
X136040000Y-95004666D01*
X135906666Y-95038000D01*
X135806666Y-95038000D01*
X135673333Y-95004666D01*
X135606666Y-94971333D01*
X135540000Y-94904666D01*
X135506666Y-94804666D01*
X135506666Y-94738000D01*
X135540000Y-94638000D01*
X135573333Y-94604666D01*
X135740000Y-94004666D02*
X136206666Y-94004666D01*
X135473333Y-94171333D02*
X135973333Y-94338000D01*
X135973333Y-93904666D01*
X134362000Y-79872666D02*
X134395333Y-79906000D01*
X134428666Y-80006000D01*
X134428666Y-80072666D01*
X134395333Y-80172666D01*
X134328666Y-80239333D01*
X134262000Y-80272666D01*
X134128666Y-80306000D01*
X134028666Y-80306000D01*
X133895333Y-80272666D01*
X133828666Y-80239333D01*
X133762000Y-80172666D01*
X133728666Y-80072666D01*
X133728666Y-80006000D01*
X133762000Y-79906000D01*
X133795333Y-79872666D01*
X133728666Y-79239333D02*
X133728666Y-79572666D01*
X134062000Y-79606000D01*
X134028666Y-79572666D01*
X133995333Y-79506000D01*
X133995333Y-79339333D01*
X134028666Y-79272666D01*
X134062000Y-79239333D01*
X134128666Y-79206000D01*
X134295333Y-79206000D01*
X134362000Y-79239333D01*
X134395333Y-79272666D01*
X134428666Y-79339333D01*
X134428666Y-79506000D01*
X134395333Y-79572666D01*
X134362000Y-79606000D01*
D12*
X137509345Y-74020130D02*
X137509345Y-74829654D01*
X137556964Y-74924892D01*
X137604583Y-74972511D01*
X137699821Y-75020130D01*
X137890297Y-75020130D01*
X137985535Y-74972511D01*
X138033154Y-74924892D01*
X138080773Y-74829654D01*
X138080773Y-74020130D01*
X139080773Y-75020130D02*
X138509345Y-75020130D01*
X138795059Y-75020130D02*
X138795059Y-74020130D01*
X138699821Y-74162988D01*
X138604583Y-74258226D01*
X138509345Y-74305845D01*
X135604583Y-76520130D02*
X135604583Y-75520130D01*
X135937916Y-76234416D01*
X136271250Y-75520130D01*
X136271250Y-76520130D01*
X136699821Y-76234416D02*
X137176011Y-76234416D01*
X136604583Y-76520130D02*
X136937916Y-75520130D01*
X137271250Y-76520130D01*
X137509345Y-75520130D02*
X138176011Y-76520130D01*
X138176011Y-75520130D02*
X137509345Y-76520130D01*
X138509345Y-75615369D02*
X138556964Y-75567750D01*
X138652202Y-75520130D01*
X138890297Y-75520130D01*
X138985535Y-75567750D01*
X139033154Y-75615369D01*
X139080773Y-75710607D01*
X139080773Y-75805845D01*
X139033154Y-75948702D01*
X138461726Y-76520130D01*
X139080773Y-76520130D01*
X139414107Y-75520130D02*
X140033154Y-75520130D01*
X139699821Y-75901083D01*
X139842678Y-75901083D01*
X139937916Y-75948702D01*
X139985535Y-75996321D01*
X140033154Y-76091559D01*
X140033154Y-76329654D01*
X139985535Y-76424892D01*
X139937916Y-76472511D01*
X139842678Y-76520130D01*
X139556964Y-76520130D01*
X139461726Y-76472511D01*
X139414107Y-76424892D01*
X140414107Y-75615369D02*
X140461726Y-75567750D01*
X140556964Y-75520130D01*
X140795059Y-75520130D01*
X140890297Y-75567750D01*
X140937916Y-75615369D01*
X140985535Y-75710607D01*
X140985535Y-75805845D01*
X140937916Y-75948702D01*
X140366488Y-76520130D01*
X140985535Y-76520130D01*
D13*
X131380666Y-80272666D02*
X130680666Y-80272666D01*
X130680666Y-80106000D01*
X130714000Y-80006000D01*
X130780666Y-79939333D01*
X130847333Y-79906000D01*
X130980666Y-79872666D01*
X131080666Y-79872666D01*
X131214000Y-79906000D01*
X131280666Y-79939333D01*
X131347333Y-80006000D01*
X131380666Y-80106000D01*
X131380666Y-80272666D01*
X131380666Y-79206000D02*
X131380666Y-79606000D01*
X131380666Y-79406000D02*
X130680666Y-79406000D01*
X130780666Y-79472666D01*
X130847333Y-79539333D01*
X130880666Y-79606000D01*
X132142666Y-95893666D02*
X131442666Y-95893666D01*
X131442666Y-95727000D01*
X131476000Y-95627000D01*
X131542666Y-95560333D01*
X131609333Y-95527000D01*
X131742666Y-95493666D01*
X131842666Y-95493666D01*
X131976000Y-95527000D01*
X132042666Y-95560333D01*
X132109333Y-95627000D01*
X132142666Y-95727000D01*
X132142666Y-95893666D01*
X131509333Y-95227000D02*
X131476000Y-95193666D01*
X131442666Y-95127000D01*
X131442666Y-94960333D01*
X131476000Y-94893666D01*
X131509333Y-94860333D01*
X131576000Y-94827000D01*
X131642666Y-94827000D01*
X131742666Y-94860333D01*
X132142666Y-95260333D01*
X132142666Y-94827000D01*
X129094666Y-96020666D02*
X128394666Y-96020666D01*
X128394666Y-95854000D01*
X128428000Y-95754000D01*
X128494666Y-95687333D01*
X128561333Y-95654000D01*
X128694666Y-95620666D01*
X128794666Y-95620666D01*
X128928000Y-95654000D01*
X128994666Y-95687333D01*
X129061333Y-95754000D01*
X129094666Y-95854000D01*
X129094666Y-96020666D01*
X128394666Y-95387333D02*
X128394666Y-94954000D01*
X128661333Y-95187333D01*
X128661333Y-95087333D01*
X128694666Y-95020666D01*
X128728000Y-94987333D01*
X128794666Y-94954000D01*
X128961333Y-94954000D01*
X129028000Y-94987333D01*
X129061333Y-95020666D01*
X129094666Y-95087333D01*
X129094666Y-95287333D01*
X129061333Y-95354000D01*
X129028000Y-95387333D01*
X128840666Y-79872666D02*
X128507333Y-80106000D01*
X128840666Y-80272666D02*
X128140666Y-80272666D01*
X128140666Y-80006000D01*
X128174000Y-79939333D01*
X128207333Y-79906000D01*
X128274000Y-79872666D01*
X128374000Y-79872666D01*
X128440666Y-79906000D01*
X128474000Y-79939333D01*
X128507333Y-80006000D01*
X128507333Y-80272666D01*
X128840666Y-79206000D02*
X128840666Y-79606000D01*
X128840666Y-79406000D02*
X128140666Y-79406000D01*
X128240666Y-79472666D01*
X128307333Y-79539333D01*
X128340666Y-79606000D01*
X134249333Y-99757666D02*
X134016000Y-99424333D01*
X133849333Y-99757666D02*
X133849333Y-99057666D01*
X134116000Y-99057666D01*
X134182666Y-99091000D01*
X134216000Y-99124333D01*
X134249333Y-99191000D01*
X134249333Y-99291000D01*
X134216000Y-99357666D01*
X134182666Y-99391000D01*
X134116000Y-99424333D01*
X133849333Y-99424333D01*
X134516000Y-99124333D02*
X134549333Y-99091000D01*
X134616000Y-99057666D01*
X134782666Y-99057666D01*
X134849333Y-99091000D01*
X134882666Y-99124333D01*
X134916000Y-99191000D01*
X134916000Y-99257666D01*
X134882666Y-99357666D01*
X134482666Y-99757666D01*
X134916000Y-99757666D01*
X127772333Y-101408666D02*
X127539000Y-101075333D01*
X127372333Y-101408666D02*
X127372333Y-100708666D01*
X127639000Y-100708666D01*
X127705666Y-100742000D01*
X127739000Y-100775333D01*
X127772333Y-100842000D01*
X127772333Y-100942000D01*
X127739000Y-101008666D01*
X127705666Y-101042000D01*
X127639000Y-101075333D01*
X127372333Y-101075333D01*
X128005666Y-100708666D02*
X128439000Y-100708666D01*
X128205666Y-100975333D01*
X128305666Y-100975333D01*
X128372333Y-101008666D01*
X128405666Y-101042000D01*
X128439000Y-101108666D01*
X128439000Y-101275333D01*
X128405666Y-101342000D01*
X128372333Y-101375333D01*
X128305666Y-101408666D01*
X128105666Y-101408666D01*
X128039000Y-101375333D01*
X128005666Y-101342000D01*
M02*
