G04 #@! TF.GenerationSoftware,KiCad,Pcbnew,5.0.1*
G04 #@! TF.CreationDate,2019-03-20T13:16:04+05:30*
G04 #@! TF.ProjectId,switches,73776974636865732E6B696361645F70,rev?*
G04 #@! TF.SameCoordinates,Original*
G04 #@! TF.FileFunction,Copper,L2,Bot,Signal*
G04 #@! TF.FilePolarity,Positive*
%FSLAX46Y46*%
G04 Gerber Fmt 4.6, Leading zero omitted, Abs format (unit mm)*
G04 Created by KiCad (PCBNEW 5.0.1) date Wed 20 Mar 2019 01:16:04 PM IST*
%MOMM*%
%LPD*%
G01*
G04 APERTURE LIST*
G04 #@! TA.AperFunction,ComponentPad*
%ADD10O,1.700000X1.700000*%
G04 #@! TD*
G04 #@! TA.AperFunction,ComponentPad*
%ADD11R,1.700000X1.700000*%
G04 #@! TD*
G04 #@! TA.AperFunction,SMDPad,CuDef*
%ADD12R,10.000000X5.000000*%
G04 #@! TD*
G04 #@! TA.AperFunction,ViaPad*
%ADD13C,1.300000*%
G04 #@! TD*
G04 #@! TA.AperFunction,Conductor*
%ADD14C,0.600000*%
G04 #@! TD*
G04 #@! TA.AperFunction,Conductor*
%ADD15C,0.254000*%
G04 #@! TD*
G04 APERTURE END LIST*
D10*
G04 #@! TO.P,J1,12*
G04 #@! TO.N,/s10*
X97790000Y-111506000D03*
G04 #@! TO.P,J1,11*
G04 #@! TO.N,/s9*
X97790000Y-108966000D03*
G04 #@! TO.P,J1,10*
G04 #@! TO.N,/s8*
X97790000Y-106426000D03*
G04 #@! TO.P,J1,9*
G04 #@! TO.N,/s7*
X97790000Y-103886000D03*
G04 #@! TO.P,J1,8*
G04 #@! TO.N,/s6*
X97790000Y-101346000D03*
G04 #@! TO.P,J1,7*
G04 #@! TO.N,/s5*
X97790000Y-98806000D03*
G04 #@! TO.P,J1,6*
G04 #@! TO.N,/s4*
X97790000Y-96266000D03*
G04 #@! TO.P,J1,5*
G04 #@! TO.N,/s3*
X97790000Y-93726000D03*
G04 #@! TO.P,J1,4*
G04 #@! TO.N,/s2*
X97790000Y-91186000D03*
G04 #@! TO.P,J1,3*
G04 #@! TO.N,/s1*
X97790000Y-88646000D03*
G04 #@! TO.P,J1,2*
G04 #@! TO.N,+5V*
X97790000Y-86106000D03*
D11*
G04 #@! TO.P,J1,1*
G04 #@! TO.N,GND*
X97790000Y-83566000D03*
G04 #@! TD*
D12*
G04 #@! TO.P,J12,1*
G04 #@! TO.N,/s10*
X135636000Y-104648000D03*
G04 #@! TD*
G04 #@! TO.P,J11,1*
G04 #@! TO.N,/s9*
X135636000Y-90678000D03*
G04 #@! TD*
G04 #@! TO.P,J10,1*
G04 #@! TO.N,/s8*
X122682000Y-119126000D03*
G04 #@! TD*
G04 #@! TO.P,J9,1*
G04 #@! TO.N,/s7*
X122682000Y-104648000D03*
G04 #@! TD*
G04 #@! TO.P,J8,1*
G04 #@! TO.N,/s6*
X122682000Y-90678000D03*
G04 #@! TD*
G04 #@! TO.P,J7,1*
G04 #@! TO.N,/s5*
X122428000Y-76200000D03*
G04 #@! TD*
G04 #@! TO.P,J6,1*
G04 #@! TO.N,/s4*
X109728000Y-119126000D03*
G04 #@! TD*
G04 #@! TO.P,J5,1*
G04 #@! TO.N,/s3*
X109728000Y-104648000D03*
G04 #@! TD*
G04 #@! TO.P,J4,1*
G04 #@! TO.N,/s2*
X109728000Y-90678000D03*
G04 #@! TD*
G04 #@! TO.P,J3,1*
G04 #@! TO.N,/s1*
X109982000Y-76200000D03*
G04 #@! TD*
G04 #@! TO.P,J2,1*
G04 #@! TO.N,GND*
X135636000Y-61722000D03*
G04 #@! TD*
D13*
G04 #@! TO.N,/s10*
X130302000Y-108966000D03*
X103967235Y-113062373D03*
G04 #@! TO.N,/s8*
X122682000Y-119126000D03*
G04 #@! TO.N,/s6*
X122682000Y-90678000D03*
G04 #@! TO.N,/s4*
X102616000Y-119380000D03*
G04 #@! TO.N,/s2*
X102870000Y-91440000D03*
G04 #@! TO.N,/s9*
X130302000Y-94996000D03*
X102362000Y-109728000D03*
G04 #@! TO.N,/s7*
X122682000Y-104640723D03*
G04 #@! TO.N,/s5*
X122428000Y-76164543D03*
G04 #@! TO.N,/s3*
X102616000Y-105156000D03*
G04 #@! TO.N,/s1*
X102870000Y-76708000D03*
G04 #@! TO.N,GND*
X133096000Y-66294000D03*
G04 #@! TO.N,+5V*
X121412000Y-71628000D03*
X121412000Y-114808000D03*
X121412000Y-86360000D03*
X121412000Y-100330000D03*
X135890000Y-86360000D03*
X135890000Y-100330000D03*
G04 #@! TD*
D14*
G04 #@! TO.N,/s10*
X135636000Y-108204000D02*
X135636000Y-104648000D01*
X134874000Y-108966000D02*
X135636000Y-108204000D01*
X131572000Y-108966000D02*
X130302000Y-108966000D01*
X131318000Y-108966000D02*
X131572000Y-108966000D01*
X131572000Y-108966000D02*
X134874000Y-108966000D01*
X103967235Y-113062373D02*
X101632373Y-113062373D01*
X100076000Y-111506000D02*
X97790000Y-111506000D01*
X101632373Y-113062373D02*
X100076000Y-111506000D01*
G04 #@! TO.N,/s8*
X120182000Y-119126000D02*
X122682000Y-119126000D01*
X105156000Y-110236000D02*
X111292000Y-110236000D01*
X111292000Y-110236000D02*
X120182000Y-119126000D01*
X97790000Y-106426000D02*
X101346000Y-106426000D01*
X101346000Y-106426000D02*
X103378000Y-108458000D01*
X103378000Y-108458000D02*
X105156000Y-110236000D01*
G04 #@! TO.N,/s6*
X120182000Y-90678000D02*
X122682000Y-90678000D01*
X115864000Y-94996000D02*
X120182000Y-90678000D01*
X98639999Y-100496001D02*
X104140000Y-94996000D01*
X97790000Y-101346000D02*
X98639999Y-100496001D01*
X104140000Y-94996000D02*
X115864000Y-94996000D01*
G04 #@! TO.N,/s4*
X102870000Y-119126000D02*
X102616000Y-119380000D01*
X109728000Y-119126000D02*
X102870000Y-119126000D01*
G04 #@! TO.N,/s2*
X103632000Y-90678000D02*
X102870000Y-91440000D01*
X109728000Y-90678000D02*
X103632000Y-90678000D01*
G04 #@! TO.N,/s9*
X130302000Y-94996000D02*
X134874000Y-94996000D01*
X135636000Y-94234000D02*
X135636000Y-90678000D01*
X134874000Y-94996000D02*
X135636000Y-94234000D01*
X101600000Y-108966000D02*
X102362000Y-109728000D01*
X97790000Y-108966000D02*
X101600000Y-108966000D01*
G04 #@! TO.N,/s7*
X120182000Y-104648000D02*
X122682000Y-104648000D01*
X112816000Y-97282000D02*
X120182000Y-104648000D01*
X104394000Y-97282000D02*
X105156000Y-97282000D01*
X97790000Y-103886000D02*
X104394000Y-97282000D01*
X105156000Y-97282000D02*
X112816000Y-97282000D01*
G04 #@! TO.N,/s5*
X115610000Y-80518000D02*
X119928000Y-76200000D01*
X102870000Y-80518000D02*
X115610000Y-80518000D01*
X119928000Y-76200000D02*
X122428000Y-76200000D01*
X101346000Y-82042000D02*
X102870000Y-80518000D01*
X101346000Y-95250000D02*
X101346000Y-82042000D01*
X97790000Y-98806000D02*
X101346000Y-95250000D01*
G04 #@! TO.N,/s3*
X103124000Y-104648000D02*
X102616000Y-105156000D01*
X109728000Y-104648000D02*
X103124000Y-104648000D01*
G04 #@! TO.N,/s1*
X103378000Y-76200000D02*
X102870000Y-76708000D01*
X109982000Y-76200000D02*
X103378000Y-76200000D01*
G04 #@! TO.N,GND*
X134164000Y-66294000D02*
X133096000Y-66294000D01*
X135636000Y-61722000D02*
X135636000Y-64822000D01*
X135636000Y-64822000D02*
X134164000Y-66294000D01*
G04 #@! TD*
D15*
G04 #@! TO.N,+5V*
G36*
X140683861Y-52128160D02*
X141322530Y-52328307D01*
X141907902Y-52652784D01*
X142416078Y-53088343D01*
X142826289Y-53617183D01*
X143121786Y-54217712D01*
X143292623Y-54873567D01*
X143333001Y-55398325D01*
X143333000Y-137337302D01*
X143261839Y-138037865D01*
X143061693Y-138676532D01*
X142737215Y-139261904D01*
X142301657Y-139770077D01*
X141772815Y-140180290D01*
X141172287Y-140475786D01*
X140516433Y-140646623D01*
X139991687Y-140687000D01*
X98052698Y-140687000D01*
X97352135Y-140615839D01*
X96713468Y-140415693D01*
X96128096Y-140091215D01*
X95619923Y-139655657D01*
X95209710Y-139126815D01*
X94914214Y-138526287D01*
X94743377Y-137870433D01*
X94703000Y-137345687D01*
X94703000Y-131372000D01*
X116748327Y-131372000D01*
X116861142Y-132084284D01*
X117188543Y-132726845D01*
X117698482Y-133236784D01*
X118341043Y-133564185D01*
X119053327Y-133677000D01*
X119765611Y-133564185D01*
X120408172Y-133236784D01*
X120918111Y-132726845D01*
X121245512Y-132084284D01*
X121358327Y-131372000D01*
X121245512Y-130659716D01*
X120918111Y-130017155D01*
X120408172Y-129507216D01*
X119765611Y-129179815D01*
X119053327Y-129067000D01*
X118341043Y-129179815D01*
X117698482Y-129507216D01*
X117188543Y-130017155D01*
X116861142Y-130659716D01*
X116748327Y-131372000D01*
X94703000Y-131372000D01*
X94703000Y-119124398D01*
X101331000Y-119124398D01*
X101331000Y-119635602D01*
X101526629Y-120107894D01*
X101888106Y-120469371D01*
X102360398Y-120665000D01*
X102871602Y-120665000D01*
X103343894Y-120469371D01*
X103705371Y-120107894D01*
X103724795Y-120061000D01*
X104080560Y-120061000D01*
X104080560Y-121626000D01*
X104129843Y-121873765D01*
X104270191Y-122083809D01*
X104480235Y-122224157D01*
X104728000Y-122273440D01*
X114728000Y-122273440D01*
X114975765Y-122224157D01*
X115185809Y-122083809D01*
X115326157Y-121873765D01*
X115375440Y-121626000D01*
X115375440Y-116626000D01*
X115326157Y-116378235D01*
X115185809Y-116168191D01*
X114975765Y-116027843D01*
X114728000Y-115978560D01*
X104728000Y-115978560D01*
X104480235Y-116027843D01*
X104270191Y-116168191D01*
X104129843Y-116378235D01*
X104080560Y-116626000D01*
X104080560Y-118191000D01*
X103103367Y-118191000D01*
X102871602Y-118095000D01*
X102360398Y-118095000D01*
X101888106Y-118290629D01*
X101526629Y-118652106D01*
X101331000Y-119124398D01*
X94703000Y-119124398D01*
X94703000Y-88646000D01*
X96275908Y-88646000D01*
X96391161Y-89225418D01*
X96719375Y-89716625D01*
X97017761Y-89916000D01*
X96719375Y-90115375D01*
X96391161Y-90606582D01*
X96275908Y-91186000D01*
X96391161Y-91765418D01*
X96719375Y-92256625D01*
X97017761Y-92456000D01*
X96719375Y-92655375D01*
X96391161Y-93146582D01*
X96275908Y-93726000D01*
X96391161Y-94305418D01*
X96719375Y-94796625D01*
X97017761Y-94996000D01*
X96719375Y-95195375D01*
X96391161Y-95686582D01*
X96275908Y-96266000D01*
X96391161Y-96845418D01*
X96719375Y-97336625D01*
X97017761Y-97536000D01*
X96719375Y-97735375D01*
X96391161Y-98226582D01*
X96275908Y-98806000D01*
X96391161Y-99385418D01*
X96719375Y-99876625D01*
X97017761Y-100076000D01*
X96719375Y-100275375D01*
X96391161Y-100766582D01*
X96275908Y-101346000D01*
X96391161Y-101925418D01*
X96719375Y-102416625D01*
X97017761Y-102616000D01*
X96719375Y-102815375D01*
X96391161Y-103306582D01*
X96275908Y-103886000D01*
X96391161Y-104465418D01*
X96719375Y-104956625D01*
X97017761Y-105156000D01*
X96719375Y-105355375D01*
X96391161Y-105846582D01*
X96275908Y-106426000D01*
X96391161Y-107005418D01*
X96719375Y-107496625D01*
X97017761Y-107696000D01*
X96719375Y-107895375D01*
X96391161Y-108386582D01*
X96275908Y-108966000D01*
X96391161Y-109545418D01*
X96719375Y-110036625D01*
X97017761Y-110236000D01*
X96719375Y-110435375D01*
X96391161Y-110926582D01*
X96275908Y-111506000D01*
X96391161Y-112085418D01*
X96719375Y-112576625D01*
X97210582Y-112904839D01*
X97643744Y-112991000D01*
X97936256Y-112991000D01*
X98369418Y-112904839D01*
X98860625Y-112576625D01*
X98951247Y-112441000D01*
X99688711Y-112441000D01*
X100906114Y-113658404D01*
X100958276Y-113736470D01*
X101036342Y-113788632D01*
X101267554Y-113943123D01*
X101632373Y-114015690D01*
X101724459Y-113997373D01*
X103084970Y-113997373D01*
X103239341Y-114151744D01*
X103711633Y-114347373D01*
X104222837Y-114347373D01*
X104695129Y-114151744D01*
X105056606Y-113790267D01*
X105252235Y-113317975D01*
X105252235Y-112806771D01*
X105056606Y-112334479D01*
X104695129Y-111973002D01*
X104222837Y-111777373D01*
X103711633Y-111777373D01*
X103239341Y-111973002D01*
X103084970Y-112127373D01*
X102019663Y-112127373D01*
X100802261Y-110909972D01*
X100750097Y-110831903D01*
X100440819Y-110625250D01*
X100168086Y-110571000D01*
X100076000Y-110552683D01*
X99983914Y-110571000D01*
X98951247Y-110571000D01*
X98860625Y-110435375D01*
X98562239Y-110236000D01*
X98860625Y-110036625D01*
X98951247Y-109901000D01*
X101077000Y-109901000D01*
X101077000Y-109983602D01*
X101272629Y-110455894D01*
X101634106Y-110817371D01*
X102106398Y-111013000D01*
X102617602Y-111013000D01*
X103089894Y-110817371D01*
X103451371Y-110455894D01*
X103627761Y-110030050D01*
X104429740Y-110832030D01*
X104481903Y-110910097D01*
X104559969Y-110962259D01*
X104791181Y-111116750D01*
X105156000Y-111189317D01*
X105248086Y-111171000D01*
X110904711Y-111171000D01*
X117034560Y-117300849D01*
X117034560Y-121626000D01*
X117083843Y-121873765D01*
X117224191Y-122083809D01*
X117434235Y-122224157D01*
X117682000Y-122273440D01*
X127682000Y-122273440D01*
X127929765Y-122224157D01*
X128139809Y-122083809D01*
X128280157Y-121873765D01*
X128329440Y-121626000D01*
X128329440Y-116626000D01*
X128280157Y-116378235D01*
X128139809Y-116168191D01*
X127929765Y-116027843D01*
X127682000Y-115978560D01*
X118356849Y-115978560D01*
X112018261Y-109639972D01*
X111966097Y-109561903D01*
X111656819Y-109355250D01*
X111384086Y-109301000D01*
X111292000Y-109282683D01*
X111199914Y-109301000D01*
X105543290Y-109301000D01*
X104952688Y-108710398D01*
X129017000Y-108710398D01*
X129017000Y-109221602D01*
X129212629Y-109693894D01*
X129574106Y-110055371D01*
X130046398Y-110251000D01*
X130557602Y-110251000D01*
X131029894Y-110055371D01*
X131184265Y-109901000D01*
X134781914Y-109901000D01*
X134874000Y-109919317D01*
X134966086Y-109901000D01*
X135238819Y-109846750D01*
X135548097Y-109640097D01*
X135600261Y-109562028D01*
X136232031Y-108930259D01*
X136310097Y-108878097D01*
X136516750Y-108568819D01*
X136571000Y-108296086D01*
X136571000Y-108296085D01*
X136589317Y-108204000D01*
X136571000Y-108111914D01*
X136571000Y-107795440D01*
X140636000Y-107795440D01*
X140883765Y-107746157D01*
X141093809Y-107605809D01*
X141234157Y-107395765D01*
X141283440Y-107148000D01*
X141283440Y-102148000D01*
X141234157Y-101900235D01*
X141093809Y-101690191D01*
X140883765Y-101549843D01*
X140636000Y-101500560D01*
X130636000Y-101500560D01*
X130388235Y-101549843D01*
X130178191Y-101690191D01*
X130037843Y-101900235D01*
X129988560Y-102148000D01*
X129988560Y-107148000D01*
X130037843Y-107395765D01*
X130178191Y-107605809D01*
X130290721Y-107681000D01*
X130046398Y-107681000D01*
X129574106Y-107876629D01*
X129212629Y-108238106D01*
X129017000Y-108710398D01*
X104952688Y-108710398D01*
X104104261Y-107861972D01*
X104104259Y-107861969D01*
X102683289Y-106441000D01*
X102871602Y-106441000D01*
X103343894Y-106245371D01*
X103705371Y-105883894D01*
X103830005Y-105583000D01*
X104080560Y-105583000D01*
X104080560Y-107148000D01*
X104129843Y-107395765D01*
X104270191Y-107605809D01*
X104480235Y-107746157D01*
X104728000Y-107795440D01*
X114728000Y-107795440D01*
X114975765Y-107746157D01*
X115185809Y-107605809D01*
X115326157Y-107395765D01*
X115375440Y-107148000D01*
X115375440Y-102148000D01*
X115326157Y-101900235D01*
X115185809Y-101690191D01*
X114975765Y-101549843D01*
X114728000Y-101500560D01*
X104728000Y-101500560D01*
X104480235Y-101549843D01*
X104270191Y-101690191D01*
X104129843Y-101900235D01*
X104080560Y-102148000D01*
X104080560Y-103713000D01*
X103216080Y-103713000D01*
X103123999Y-103694684D01*
X103031918Y-103713000D01*
X103031914Y-103713000D01*
X102759181Y-103767250D01*
X102603908Y-103871000D01*
X102360398Y-103871000D01*
X101888106Y-104066629D01*
X101526629Y-104428106D01*
X101331000Y-104900398D01*
X101331000Y-105411602D01*
X101357225Y-105474916D01*
X101346000Y-105472683D01*
X101253914Y-105491000D01*
X98951247Y-105491000D01*
X98860625Y-105355375D01*
X98562239Y-105156000D01*
X98860625Y-104956625D01*
X99188839Y-104465418D01*
X99304092Y-103886000D01*
X99272270Y-103726019D01*
X104781290Y-98217000D01*
X112428711Y-98217000D01*
X117034560Y-102822850D01*
X117034560Y-107148000D01*
X117083843Y-107395765D01*
X117224191Y-107605809D01*
X117434235Y-107746157D01*
X117682000Y-107795440D01*
X127682000Y-107795440D01*
X127929765Y-107746157D01*
X128139809Y-107605809D01*
X128280157Y-107395765D01*
X128329440Y-107148000D01*
X128329440Y-102148000D01*
X128280157Y-101900235D01*
X128139809Y-101690191D01*
X127929765Y-101549843D01*
X127682000Y-101500560D01*
X118356850Y-101500560D01*
X113542261Y-96685972D01*
X113490097Y-96607903D01*
X113180819Y-96401250D01*
X112908086Y-96347000D01*
X112816000Y-96328683D01*
X112723914Y-96347000D01*
X104486081Y-96347000D01*
X104393999Y-96328684D01*
X104301917Y-96347000D01*
X104301914Y-96347000D01*
X104063957Y-96394333D01*
X104527290Y-95931000D01*
X115771914Y-95931000D01*
X115864000Y-95949317D01*
X115956086Y-95931000D01*
X116228819Y-95876750D01*
X116538097Y-95670097D01*
X116590261Y-95592028D01*
X117441891Y-94740398D01*
X129017000Y-94740398D01*
X129017000Y-95251602D01*
X129212629Y-95723894D01*
X129574106Y-96085371D01*
X130046398Y-96281000D01*
X130557602Y-96281000D01*
X131029894Y-96085371D01*
X131184265Y-95931000D01*
X134781914Y-95931000D01*
X134874000Y-95949317D01*
X134966086Y-95931000D01*
X135238819Y-95876750D01*
X135548097Y-95670097D01*
X135600261Y-95592028D01*
X136232031Y-94960259D01*
X136310097Y-94908097D01*
X136516750Y-94598819D01*
X136571000Y-94326086D01*
X136571000Y-94326085D01*
X136589317Y-94234000D01*
X136571000Y-94141914D01*
X136571000Y-93825440D01*
X140636000Y-93825440D01*
X140883765Y-93776157D01*
X141093809Y-93635809D01*
X141234157Y-93425765D01*
X141283440Y-93178000D01*
X141283440Y-88178000D01*
X141234157Y-87930235D01*
X141093809Y-87720191D01*
X140883765Y-87579843D01*
X140636000Y-87530560D01*
X130636000Y-87530560D01*
X130388235Y-87579843D01*
X130178191Y-87720191D01*
X130037843Y-87930235D01*
X129988560Y-88178000D01*
X129988560Y-93178000D01*
X130037843Y-93425765D01*
X130178191Y-93635809D01*
X130290721Y-93711000D01*
X130046398Y-93711000D01*
X129574106Y-93906629D01*
X129212629Y-94268106D01*
X129017000Y-94740398D01*
X117441891Y-94740398D01*
X118356849Y-93825440D01*
X127682000Y-93825440D01*
X127929765Y-93776157D01*
X128139809Y-93635809D01*
X128280157Y-93425765D01*
X128329440Y-93178000D01*
X128329440Y-88178000D01*
X128280157Y-87930235D01*
X128139809Y-87720191D01*
X127929765Y-87579843D01*
X127682000Y-87530560D01*
X117682000Y-87530560D01*
X117434235Y-87579843D01*
X117224191Y-87720191D01*
X117083843Y-87930235D01*
X117034560Y-88178000D01*
X117034560Y-92503151D01*
X115476711Y-94061000D01*
X104232085Y-94061000D01*
X104139999Y-94042683D01*
X103775181Y-94115250D01*
X103465903Y-94321903D01*
X103413741Y-94399969D01*
X102233667Y-95580043D01*
X102281000Y-95342086D01*
X102281000Y-95342082D01*
X102299316Y-95250001D01*
X102281000Y-95157920D01*
X102281000Y-92586903D01*
X102614398Y-92725000D01*
X103125602Y-92725000D01*
X103597894Y-92529371D01*
X103959371Y-92167894D01*
X104080560Y-91875317D01*
X104080560Y-93178000D01*
X104129843Y-93425765D01*
X104270191Y-93635809D01*
X104480235Y-93776157D01*
X104728000Y-93825440D01*
X114728000Y-93825440D01*
X114975765Y-93776157D01*
X115185809Y-93635809D01*
X115326157Y-93425765D01*
X115375440Y-93178000D01*
X115375440Y-88178000D01*
X115326157Y-87930235D01*
X115185809Y-87720191D01*
X114975765Y-87579843D01*
X114728000Y-87530560D01*
X104728000Y-87530560D01*
X104480235Y-87579843D01*
X104270191Y-87720191D01*
X104129843Y-87930235D01*
X104080560Y-88178000D01*
X104080560Y-89743000D01*
X103724086Y-89743000D01*
X103632000Y-89724683D01*
X103539914Y-89743000D01*
X103267181Y-89797250D01*
X102957903Y-90003903D01*
X102905741Y-90081970D01*
X102832710Y-90155000D01*
X102614398Y-90155000D01*
X102281000Y-90293097D01*
X102281000Y-82429289D01*
X103257290Y-81453000D01*
X115517914Y-81453000D01*
X115610000Y-81471317D01*
X115702086Y-81453000D01*
X115974819Y-81398750D01*
X116284097Y-81192097D01*
X116336261Y-81114028D01*
X118102849Y-79347440D01*
X127428000Y-79347440D01*
X127675765Y-79298157D01*
X127885809Y-79157809D01*
X128026157Y-78947765D01*
X128075440Y-78700000D01*
X128075440Y-73700000D01*
X128026157Y-73452235D01*
X127885809Y-73242191D01*
X127675765Y-73101843D01*
X127428000Y-73052560D01*
X117428000Y-73052560D01*
X117180235Y-73101843D01*
X116970191Y-73242191D01*
X116829843Y-73452235D01*
X116780560Y-73700000D01*
X116780560Y-78025151D01*
X115222711Y-79583000D01*
X102962080Y-79583000D01*
X102869999Y-79564684D01*
X102777918Y-79583000D01*
X102777914Y-79583000D01*
X102505181Y-79637250D01*
X102195903Y-79843903D01*
X102143741Y-79921969D01*
X100749970Y-81315741D01*
X100671904Y-81367903D01*
X100619742Y-81445969D01*
X100619741Y-81445970D01*
X100465250Y-81677182D01*
X100392683Y-82042000D01*
X100411001Y-82134090D01*
X100411000Y-94862710D01*
X99254919Y-96018791D01*
X99188839Y-95686582D01*
X98860625Y-95195375D01*
X98562239Y-94996000D01*
X98860625Y-94796625D01*
X99188839Y-94305418D01*
X99304092Y-93726000D01*
X99188839Y-93146582D01*
X98860625Y-92655375D01*
X98562239Y-92456000D01*
X98860625Y-92256625D01*
X99188839Y-91765418D01*
X99304092Y-91186000D01*
X99188839Y-90606582D01*
X98860625Y-90115375D01*
X98562239Y-89916000D01*
X98860625Y-89716625D01*
X99188839Y-89225418D01*
X99304092Y-88646000D01*
X99188839Y-88066582D01*
X98860625Y-87575375D01*
X98541522Y-87362157D01*
X98671358Y-87301183D01*
X99061645Y-86872924D01*
X99231476Y-86462890D01*
X99110155Y-86233000D01*
X97917000Y-86233000D01*
X97917000Y-86253000D01*
X97663000Y-86253000D01*
X97663000Y-86233000D01*
X96469845Y-86233000D01*
X96348524Y-86462890D01*
X96518355Y-86872924D01*
X96908642Y-87301183D01*
X97038478Y-87362157D01*
X96719375Y-87575375D01*
X96391161Y-88066582D01*
X96275908Y-88646000D01*
X94703000Y-88646000D01*
X94703000Y-82716000D01*
X96292560Y-82716000D01*
X96292560Y-84416000D01*
X96341843Y-84663765D01*
X96482191Y-84873809D01*
X96692235Y-85014157D01*
X96795708Y-85034739D01*
X96518355Y-85339076D01*
X96348524Y-85749110D01*
X96469845Y-85979000D01*
X97663000Y-85979000D01*
X97663000Y-85959000D01*
X97917000Y-85959000D01*
X97917000Y-85979000D01*
X99110155Y-85979000D01*
X99231476Y-85749110D01*
X99061645Y-85339076D01*
X98784292Y-85034739D01*
X98887765Y-85014157D01*
X99097809Y-84873809D01*
X99238157Y-84663765D01*
X99287440Y-84416000D01*
X99287440Y-82716000D01*
X99238157Y-82468235D01*
X99097809Y-82258191D01*
X98887765Y-82117843D01*
X98640000Y-82068560D01*
X96940000Y-82068560D01*
X96692235Y-82117843D01*
X96482191Y-82258191D01*
X96341843Y-82468235D01*
X96292560Y-82716000D01*
X94703000Y-82716000D01*
X94703000Y-76452398D01*
X101585000Y-76452398D01*
X101585000Y-76963602D01*
X101780629Y-77435894D01*
X102142106Y-77797371D01*
X102614398Y-77993000D01*
X103125602Y-77993000D01*
X103597894Y-77797371D01*
X103959371Y-77435894D01*
X104084005Y-77135000D01*
X104334560Y-77135000D01*
X104334560Y-78700000D01*
X104383843Y-78947765D01*
X104524191Y-79157809D01*
X104734235Y-79298157D01*
X104982000Y-79347440D01*
X114982000Y-79347440D01*
X115229765Y-79298157D01*
X115439809Y-79157809D01*
X115580157Y-78947765D01*
X115629440Y-78700000D01*
X115629440Y-73700000D01*
X115580157Y-73452235D01*
X115439809Y-73242191D01*
X115229765Y-73101843D01*
X114982000Y-73052560D01*
X104982000Y-73052560D01*
X104734235Y-73101843D01*
X104524191Y-73242191D01*
X104383843Y-73452235D01*
X104334560Y-73700000D01*
X104334560Y-75265000D01*
X103470080Y-75265000D01*
X103377999Y-75246684D01*
X103285918Y-75265000D01*
X103285914Y-75265000D01*
X103013181Y-75319250D01*
X102857908Y-75423000D01*
X102614398Y-75423000D01*
X102142106Y-75618629D01*
X101780629Y-75980106D01*
X101585000Y-76452398D01*
X94703000Y-76452398D01*
X94703000Y-61372000D01*
X116748326Y-61372000D01*
X116861141Y-62084284D01*
X117188542Y-62726846D01*
X117698481Y-63236785D01*
X118341043Y-63564186D01*
X119053327Y-63677001D01*
X119765611Y-63564186D01*
X120408173Y-63236785D01*
X120918112Y-62726846D01*
X121245513Y-62084284D01*
X121358328Y-61372000D01*
X121245513Y-60659716D01*
X120918112Y-60017154D01*
X120408173Y-59507215D01*
X119848406Y-59222000D01*
X129988560Y-59222000D01*
X129988560Y-64222000D01*
X130037843Y-64469765D01*
X130178191Y-64679809D01*
X130388235Y-64820157D01*
X130636000Y-64869440D01*
X134266270Y-64869440D01*
X133877488Y-65258223D01*
X133823894Y-65204629D01*
X133351602Y-65009000D01*
X132840398Y-65009000D01*
X132368106Y-65204629D01*
X132006629Y-65566106D01*
X131811000Y-66038398D01*
X131811000Y-66549602D01*
X132006629Y-67021894D01*
X132368106Y-67383371D01*
X132840398Y-67579000D01*
X133351602Y-67579000D01*
X133823894Y-67383371D01*
X133978265Y-67229000D01*
X134071914Y-67229000D01*
X134164000Y-67247317D01*
X134256086Y-67229000D01*
X134528819Y-67174750D01*
X134838097Y-66968097D01*
X134890261Y-66890028D01*
X136232031Y-65548259D01*
X136310097Y-65496097D01*
X136516750Y-65186819D01*
X136571000Y-64914086D01*
X136571000Y-64914083D01*
X136579880Y-64869440D01*
X140636000Y-64869440D01*
X140883765Y-64820157D01*
X141093809Y-64679809D01*
X141234157Y-64469765D01*
X141283440Y-64222000D01*
X141283440Y-59222000D01*
X141234157Y-58974235D01*
X141093809Y-58764191D01*
X140883765Y-58623843D01*
X140636000Y-58574560D01*
X130636000Y-58574560D01*
X130388235Y-58623843D01*
X130178191Y-58764191D01*
X130037843Y-58974235D01*
X129988560Y-59222000D01*
X119848406Y-59222000D01*
X119765611Y-59179814D01*
X119053327Y-59066999D01*
X118341043Y-59179814D01*
X117698481Y-59507215D01*
X117188542Y-60017154D01*
X116861141Y-60659716D01*
X116748326Y-61372000D01*
X94703000Y-61372000D01*
X94703000Y-55406698D01*
X94774160Y-54706139D01*
X94974307Y-54067470D01*
X95298784Y-53482098D01*
X95734343Y-52973922D01*
X96263183Y-52563711D01*
X96863712Y-52268214D01*
X97519567Y-52097377D01*
X98044313Y-52057000D01*
X139983302Y-52057000D01*
X140683861Y-52128160D01*
X140683861Y-52128160D01*
G37*
X140683861Y-52128160D02*
X141322530Y-52328307D01*
X141907902Y-52652784D01*
X142416078Y-53088343D01*
X142826289Y-53617183D01*
X143121786Y-54217712D01*
X143292623Y-54873567D01*
X143333001Y-55398325D01*
X143333000Y-137337302D01*
X143261839Y-138037865D01*
X143061693Y-138676532D01*
X142737215Y-139261904D01*
X142301657Y-139770077D01*
X141772815Y-140180290D01*
X141172287Y-140475786D01*
X140516433Y-140646623D01*
X139991687Y-140687000D01*
X98052698Y-140687000D01*
X97352135Y-140615839D01*
X96713468Y-140415693D01*
X96128096Y-140091215D01*
X95619923Y-139655657D01*
X95209710Y-139126815D01*
X94914214Y-138526287D01*
X94743377Y-137870433D01*
X94703000Y-137345687D01*
X94703000Y-131372000D01*
X116748327Y-131372000D01*
X116861142Y-132084284D01*
X117188543Y-132726845D01*
X117698482Y-133236784D01*
X118341043Y-133564185D01*
X119053327Y-133677000D01*
X119765611Y-133564185D01*
X120408172Y-133236784D01*
X120918111Y-132726845D01*
X121245512Y-132084284D01*
X121358327Y-131372000D01*
X121245512Y-130659716D01*
X120918111Y-130017155D01*
X120408172Y-129507216D01*
X119765611Y-129179815D01*
X119053327Y-129067000D01*
X118341043Y-129179815D01*
X117698482Y-129507216D01*
X117188543Y-130017155D01*
X116861142Y-130659716D01*
X116748327Y-131372000D01*
X94703000Y-131372000D01*
X94703000Y-119124398D01*
X101331000Y-119124398D01*
X101331000Y-119635602D01*
X101526629Y-120107894D01*
X101888106Y-120469371D01*
X102360398Y-120665000D01*
X102871602Y-120665000D01*
X103343894Y-120469371D01*
X103705371Y-120107894D01*
X103724795Y-120061000D01*
X104080560Y-120061000D01*
X104080560Y-121626000D01*
X104129843Y-121873765D01*
X104270191Y-122083809D01*
X104480235Y-122224157D01*
X104728000Y-122273440D01*
X114728000Y-122273440D01*
X114975765Y-122224157D01*
X115185809Y-122083809D01*
X115326157Y-121873765D01*
X115375440Y-121626000D01*
X115375440Y-116626000D01*
X115326157Y-116378235D01*
X115185809Y-116168191D01*
X114975765Y-116027843D01*
X114728000Y-115978560D01*
X104728000Y-115978560D01*
X104480235Y-116027843D01*
X104270191Y-116168191D01*
X104129843Y-116378235D01*
X104080560Y-116626000D01*
X104080560Y-118191000D01*
X103103367Y-118191000D01*
X102871602Y-118095000D01*
X102360398Y-118095000D01*
X101888106Y-118290629D01*
X101526629Y-118652106D01*
X101331000Y-119124398D01*
X94703000Y-119124398D01*
X94703000Y-88646000D01*
X96275908Y-88646000D01*
X96391161Y-89225418D01*
X96719375Y-89716625D01*
X97017761Y-89916000D01*
X96719375Y-90115375D01*
X96391161Y-90606582D01*
X96275908Y-91186000D01*
X96391161Y-91765418D01*
X96719375Y-92256625D01*
X97017761Y-92456000D01*
X96719375Y-92655375D01*
X96391161Y-93146582D01*
X96275908Y-93726000D01*
X96391161Y-94305418D01*
X96719375Y-94796625D01*
X97017761Y-94996000D01*
X96719375Y-95195375D01*
X96391161Y-95686582D01*
X96275908Y-96266000D01*
X96391161Y-96845418D01*
X96719375Y-97336625D01*
X97017761Y-97536000D01*
X96719375Y-97735375D01*
X96391161Y-98226582D01*
X96275908Y-98806000D01*
X96391161Y-99385418D01*
X96719375Y-99876625D01*
X97017761Y-100076000D01*
X96719375Y-100275375D01*
X96391161Y-100766582D01*
X96275908Y-101346000D01*
X96391161Y-101925418D01*
X96719375Y-102416625D01*
X97017761Y-102616000D01*
X96719375Y-102815375D01*
X96391161Y-103306582D01*
X96275908Y-103886000D01*
X96391161Y-104465418D01*
X96719375Y-104956625D01*
X97017761Y-105156000D01*
X96719375Y-105355375D01*
X96391161Y-105846582D01*
X96275908Y-106426000D01*
X96391161Y-107005418D01*
X96719375Y-107496625D01*
X97017761Y-107696000D01*
X96719375Y-107895375D01*
X96391161Y-108386582D01*
X96275908Y-108966000D01*
X96391161Y-109545418D01*
X96719375Y-110036625D01*
X97017761Y-110236000D01*
X96719375Y-110435375D01*
X96391161Y-110926582D01*
X96275908Y-111506000D01*
X96391161Y-112085418D01*
X96719375Y-112576625D01*
X97210582Y-112904839D01*
X97643744Y-112991000D01*
X97936256Y-112991000D01*
X98369418Y-112904839D01*
X98860625Y-112576625D01*
X98951247Y-112441000D01*
X99688711Y-112441000D01*
X100906114Y-113658404D01*
X100958276Y-113736470D01*
X101036342Y-113788632D01*
X101267554Y-113943123D01*
X101632373Y-114015690D01*
X101724459Y-113997373D01*
X103084970Y-113997373D01*
X103239341Y-114151744D01*
X103711633Y-114347373D01*
X104222837Y-114347373D01*
X104695129Y-114151744D01*
X105056606Y-113790267D01*
X105252235Y-113317975D01*
X105252235Y-112806771D01*
X105056606Y-112334479D01*
X104695129Y-111973002D01*
X104222837Y-111777373D01*
X103711633Y-111777373D01*
X103239341Y-111973002D01*
X103084970Y-112127373D01*
X102019663Y-112127373D01*
X100802261Y-110909972D01*
X100750097Y-110831903D01*
X100440819Y-110625250D01*
X100168086Y-110571000D01*
X100076000Y-110552683D01*
X99983914Y-110571000D01*
X98951247Y-110571000D01*
X98860625Y-110435375D01*
X98562239Y-110236000D01*
X98860625Y-110036625D01*
X98951247Y-109901000D01*
X101077000Y-109901000D01*
X101077000Y-109983602D01*
X101272629Y-110455894D01*
X101634106Y-110817371D01*
X102106398Y-111013000D01*
X102617602Y-111013000D01*
X103089894Y-110817371D01*
X103451371Y-110455894D01*
X103627761Y-110030050D01*
X104429740Y-110832030D01*
X104481903Y-110910097D01*
X104559969Y-110962259D01*
X104791181Y-111116750D01*
X105156000Y-111189317D01*
X105248086Y-111171000D01*
X110904711Y-111171000D01*
X117034560Y-117300849D01*
X117034560Y-121626000D01*
X117083843Y-121873765D01*
X117224191Y-122083809D01*
X117434235Y-122224157D01*
X117682000Y-122273440D01*
X127682000Y-122273440D01*
X127929765Y-122224157D01*
X128139809Y-122083809D01*
X128280157Y-121873765D01*
X128329440Y-121626000D01*
X128329440Y-116626000D01*
X128280157Y-116378235D01*
X128139809Y-116168191D01*
X127929765Y-116027843D01*
X127682000Y-115978560D01*
X118356849Y-115978560D01*
X112018261Y-109639972D01*
X111966097Y-109561903D01*
X111656819Y-109355250D01*
X111384086Y-109301000D01*
X111292000Y-109282683D01*
X111199914Y-109301000D01*
X105543290Y-109301000D01*
X104952688Y-108710398D01*
X129017000Y-108710398D01*
X129017000Y-109221602D01*
X129212629Y-109693894D01*
X129574106Y-110055371D01*
X130046398Y-110251000D01*
X130557602Y-110251000D01*
X131029894Y-110055371D01*
X131184265Y-109901000D01*
X134781914Y-109901000D01*
X134874000Y-109919317D01*
X134966086Y-109901000D01*
X135238819Y-109846750D01*
X135548097Y-109640097D01*
X135600261Y-109562028D01*
X136232031Y-108930259D01*
X136310097Y-108878097D01*
X136516750Y-108568819D01*
X136571000Y-108296086D01*
X136571000Y-108296085D01*
X136589317Y-108204000D01*
X136571000Y-108111914D01*
X136571000Y-107795440D01*
X140636000Y-107795440D01*
X140883765Y-107746157D01*
X141093809Y-107605809D01*
X141234157Y-107395765D01*
X141283440Y-107148000D01*
X141283440Y-102148000D01*
X141234157Y-101900235D01*
X141093809Y-101690191D01*
X140883765Y-101549843D01*
X140636000Y-101500560D01*
X130636000Y-101500560D01*
X130388235Y-101549843D01*
X130178191Y-101690191D01*
X130037843Y-101900235D01*
X129988560Y-102148000D01*
X129988560Y-107148000D01*
X130037843Y-107395765D01*
X130178191Y-107605809D01*
X130290721Y-107681000D01*
X130046398Y-107681000D01*
X129574106Y-107876629D01*
X129212629Y-108238106D01*
X129017000Y-108710398D01*
X104952688Y-108710398D01*
X104104261Y-107861972D01*
X104104259Y-107861969D01*
X102683289Y-106441000D01*
X102871602Y-106441000D01*
X103343894Y-106245371D01*
X103705371Y-105883894D01*
X103830005Y-105583000D01*
X104080560Y-105583000D01*
X104080560Y-107148000D01*
X104129843Y-107395765D01*
X104270191Y-107605809D01*
X104480235Y-107746157D01*
X104728000Y-107795440D01*
X114728000Y-107795440D01*
X114975765Y-107746157D01*
X115185809Y-107605809D01*
X115326157Y-107395765D01*
X115375440Y-107148000D01*
X115375440Y-102148000D01*
X115326157Y-101900235D01*
X115185809Y-101690191D01*
X114975765Y-101549843D01*
X114728000Y-101500560D01*
X104728000Y-101500560D01*
X104480235Y-101549843D01*
X104270191Y-101690191D01*
X104129843Y-101900235D01*
X104080560Y-102148000D01*
X104080560Y-103713000D01*
X103216080Y-103713000D01*
X103123999Y-103694684D01*
X103031918Y-103713000D01*
X103031914Y-103713000D01*
X102759181Y-103767250D01*
X102603908Y-103871000D01*
X102360398Y-103871000D01*
X101888106Y-104066629D01*
X101526629Y-104428106D01*
X101331000Y-104900398D01*
X101331000Y-105411602D01*
X101357225Y-105474916D01*
X101346000Y-105472683D01*
X101253914Y-105491000D01*
X98951247Y-105491000D01*
X98860625Y-105355375D01*
X98562239Y-105156000D01*
X98860625Y-104956625D01*
X99188839Y-104465418D01*
X99304092Y-103886000D01*
X99272270Y-103726019D01*
X104781290Y-98217000D01*
X112428711Y-98217000D01*
X117034560Y-102822850D01*
X117034560Y-107148000D01*
X117083843Y-107395765D01*
X117224191Y-107605809D01*
X117434235Y-107746157D01*
X117682000Y-107795440D01*
X127682000Y-107795440D01*
X127929765Y-107746157D01*
X128139809Y-107605809D01*
X128280157Y-107395765D01*
X128329440Y-107148000D01*
X128329440Y-102148000D01*
X128280157Y-101900235D01*
X128139809Y-101690191D01*
X127929765Y-101549843D01*
X127682000Y-101500560D01*
X118356850Y-101500560D01*
X113542261Y-96685972D01*
X113490097Y-96607903D01*
X113180819Y-96401250D01*
X112908086Y-96347000D01*
X112816000Y-96328683D01*
X112723914Y-96347000D01*
X104486081Y-96347000D01*
X104393999Y-96328684D01*
X104301917Y-96347000D01*
X104301914Y-96347000D01*
X104063957Y-96394333D01*
X104527290Y-95931000D01*
X115771914Y-95931000D01*
X115864000Y-95949317D01*
X115956086Y-95931000D01*
X116228819Y-95876750D01*
X116538097Y-95670097D01*
X116590261Y-95592028D01*
X117441891Y-94740398D01*
X129017000Y-94740398D01*
X129017000Y-95251602D01*
X129212629Y-95723894D01*
X129574106Y-96085371D01*
X130046398Y-96281000D01*
X130557602Y-96281000D01*
X131029894Y-96085371D01*
X131184265Y-95931000D01*
X134781914Y-95931000D01*
X134874000Y-95949317D01*
X134966086Y-95931000D01*
X135238819Y-95876750D01*
X135548097Y-95670097D01*
X135600261Y-95592028D01*
X136232031Y-94960259D01*
X136310097Y-94908097D01*
X136516750Y-94598819D01*
X136571000Y-94326086D01*
X136571000Y-94326085D01*
X136589317Y-94234000D01*
X136571000Y-94141914D01*
X136571000Y-93825440D01*
X140636000Y-93825440D01*
X140883765Y-93776157D01*
X141093809Y-93635809D01*
X141234157Y-93425765D01*
X141283440Y-93178000D01*
X141283440Y-88178000D01*
X141234157Y-87930235D01*
X141093809Y-87720191D01*
X140883765Y-87579843D01*
X140636000Y-87530560D01*
X130636000Y-87530560D01*
X130388235Y-87579843D01*
X130178191Y-87720191D01*
X130037843Y-87930235D01*
X129988560Y-88178000D01*
X129988560Y-93178000D01*
X130037843Y-93425765D01*
X130178191Y-93635809D01*
X130290721Y-93711000D01*
X130046398Y-93711000D01*
X129574106Y-93906629D01*
X129212629Y-94268106D01*
X129017000Y-94740398D01*
X117441891Y-94740398D01*
X118356849Y-93825440D01*
X127682000Y-93825440D01*
X127929765Y-93776157D01*
X128139809Y-93635809D01*
X128280157Y-93425765D01*
X128329440Y-93178000D01*
X128329440Y-88178000D01*
X128280157Y-87930235D01*
X128139809Y-87720191D01*
X127929765Y-87579843D01*
X127682000Y-87530560D01*
X117682000Y-87530560D01*
X117434235Y-87579843D01*
X117224191Y-87720191D01*
X117083843Y-87930235D01*
X117034560Y-88178000D01*
X117034560Y-92503151D01*
X115476711Y-94061000D01*
X104232085Y-94061000D01*
X104139999Y-94042683D01*
X103775181Y-94115250D01*
X103465903Y-94321903D01*
X103413741Y-94399969D01*
X102233667Y-95580043D01*
X102281000Y-95342086D01*
X102281000Y-95342082D01*
X102299316Y-95250001D01*
X102281000Y-95157920D01*
X102281000Y-92586903D01*
X102614398Y-92725000D01*
X103125602Y-92725000D01*
X103597894Y-92529371D01*
X103959371Y-92167894D01*
X104080560Y-91875317D01*
X104080560Y-93178000D01*
X104129843Y-93425765D01*
X104270191Y-93635809D01*
X104480235Y-93776157D01*
X104728000Y-93825440D01*
X114728000Y-93825440D01*
X114975765Y-93776157D01*
X115185809Y-93635809D01*
X115326157Y-93425765D01*
X115375440Y-93178000D01*
X115375440Y-88178000D01*
X115326157Y-87930235D01*
X115185809Y-87720191D01*
X114975765Y-87579843D01*
X114728000Y-87530560D01*
X104728000Y-87530560D01*
X104480235Y-87579843D01*
X104270191Y-87720191D01*
X104129843Y-87930235D01*
X104080560Y-88178000D01*
X104080560Y-89743000D01*
X103724086Y-89743000D01*
X103632000Y-89724683D01*
X103539914Y-89743000D01*
X103267181Y-89797250D01*
X102957903Y-90003903D01*
X102905741Y-90081970D01*
X102832710Y-90155000D01*
X102614398Y-90155000D01*
X102281000Y-90293097D01*
X102281000Y-82429289D01*
X103257290Y-81453000D01*
X115517914Y-81453000D01*
X115610000Y-81471317D01*
X115702086Y-81453000D01*
X115974819Y-81398750D01*
X116284097Y-81192097D01*
X116336261Y-81114028D01*
X118102849Y-79347440D01*
X127428000Y-79347440D01*
X127675765Y-79298157D01*
X127885809Y-79157809D01*
X128026157Y-78947765D01*
X128075440Y-78700000D01*
X128075440Y-73700000D01*
X128026157Y-73452235D01*
X127885809Y-73242191D01*
X127675765Y-73101843D01*
X127428000Y-73052560D01*
X117428000Y-73052560D01*
X117180235Y-73101843D01*
X116970191Y-73242191D01*
X116829843Y-73452235D01*
X116780560Y-73700000D01*
X116780560Y-78025151D01*
X115222711Y-79583000D01*
X102962080Y-79583000D01*
X102869999Y-79564684D01*
X102777918Y-79583000D01*
X102777914Y-79583000D01*
X102505181Y-79637250D01*
X102195903Y-79843903D01*
X102143741Y-79921969D01*
X100749970Y-81315741D01*
X100671904Y-81367903D01*
X100619742Y-81445969D01*
X100619741Y-81445970D01*
X100465250Y-81677182D01*
X100392683Y-82042000D01*
X100411001Y-82134090D01*
X100411000Y-94862710D01*
X99254919Y-96018791D01*
X99188839Y-95686582D01*
X98860625Y-95195375D01*
X98562239Y-94996000D01*
X98860625Y-94796625D01*
X99188839Y-94305418D01*
X99304092Y-93726000D01*
X99188839Y-93146582D01*
X98860625Y-92655375D01*
X98562239Y-92456000D01*
X98860625Y-92256625D01*
X99188839Y-91765418D01*
X99304092Y-91186000D01*
X99188839Y-90606582D01*
X98860625Y-90115375D01*
X98562239Y-89916000D01*
X98860625Y-89716625D01*
X99188839Y-89225418D01*
X99304092Y-88646000D01*
X99188839Y-88066582D01*
X98860625Y-87575375D01*
X98541522Y-87362157D01*
X98671358Y-87301183D01*
X99061645Y-86872924D01*
X99231476Y-86462890D01*
X99110155Y-86233000D01*
X97917000Y-86233000D01*
X97917000Y-86253000D01*
X97663000Y-86253000D01*
X97663000Y-86233000D01*
X96469845Y-86233000D01*
X96348524Y-86462890D01*
X96518355Y-86872924D01*
X96908642Y-87301183D01*
X97038478Y-87362157D01*
X96719375Y-87575375D01*
X96391161Y-88066582D01*
X96275908Y-88646000D01*
X94703000Y-88646000D01*
X94703000Y-82716000D01*
X96292560Y-82716000D01*
X96292560Y-84416000D01*
X96341843Y-84663765D01*
X96482191Y-84873809D01*
X96692235Y-85014157D01*
X96795708Y-85034739D01*
X96518355Y-85339076D01*
X96348524Y-85749110D01*
X96469845Y-85979000D01*
X97663000Y-85979000D01*
X97663000Y-85959000D01*
X97917000Y-85959000D01*
X97917000Y-85979000D01*
X99110155Y-85979000D01*
X99231476Y-85749110D01*
X99061645Y-85339076D01*
X98784292Y-85034739D01*
X98887765Y-85014157D01*
X99097809Y-84873809D01*
X99238157Y-84663765D01*
X99287440Y-84416000D01*
X99287440Y-82716000D01*
X99238157Y-82468235D01*
X99097809Y-82258191D01*
X98887765Y-82117843D01*
X98640000Y-82068560D01*
X96940000Y-82068560D01*
X96692235Y-82117843D01*
X96482191Y-82258191D01*
X96341843Y-82468235D01*
X96292560Y-82716000D01*
X94703000Y-82716000D01*
X94703000Y-76452398D01*
X101585000Y-76452398D01*
X101585000Y-76963602D01*
X101780629Y-77435894D01*
X102142106Y-77797371D01*
X102614398Y-77993000D01*
X103125602Y-77993000D01*
X103597894Y-77797371D01*
X103959371Y-77435894D01*
X104084005Y-77135000D01*
X104334560Y-77135000D01*
X104334560Y-78700000D01*
X104383843Y-78947765D01*
X104524191Y-79157809D01*
X104734235Y-79298157D01*
X104982000Y-79347440D01*
X114982000Y-79347440D01*
X115229765Y-79298157D01*
X115439809Y-79157809D01*
X115580157Y-78947765D01*
X115629440Y-78700000D01*
X115629440Y-73700000D01*
X115580157Y-73452235D01*
X115439809Y-73242191D01*
X115229765Y-73101843D01*
X114982000Y-73052560D01*
X104982000Y-73052560D01*
X104734235Y-73101843D01*
X104524191Y-73242191D01*
X104383843Y-73452235D01*
X104334560Y-73700000D01*
X104334560Y-75265000D01*
X103470080Y-75265000D01*
X103377999Y-75246684D01*
X103285918Y-75265000D01*
X103285914Y-75265000D01*
X103013181Y-75319250D01*
X102857908Y-75423000D01*
X102614398Y-75423000D01*
X102142106Y-75618629D01*
X101780629Y-75980106D01*
X101585000Y-76452398D01*
X94703000Y-76452398D01*
X94703000Y-61372000D01*
X116748326Y-61372000D01*
X116861141Y-62084284D01*
X117188542Y-62726846D01*
X117698481Y-63236785D01*
X118341043Y-63564186D01*
X119053327Y-63677001D01*
X119765611Y-63564186D01*
X120408173Y-63236785D01*
X120918112Y-62726846D01*
X121245513Y-62084284D01*
X121358328Y-61372000D01*
X121245513Y-60659716D01*
X120918112Y-60017154D01*
X120408173Y-59507215D01*
X119848406Y-59222000D01*
X129988560Y-59222000D01*
X129988560Y-64222000D01*
X130037843Y-64469765D01*
X130178191Y-64679809D01*
X130388235Y-64820157D01*
X130636000Y-64869440D01*
X134266270Y-64869440D01*
X133877488Y-65258223D01*
X133823894Y-65204629D01*
X133351602Y-65009000D01*
X132840398Y-65009000D01*
X132368106Y-65204629D01*
X132006629Y-65566106D01*
X131811000Y-66038398D01*
X131811000Y-66549602D01*
X132006629Y-67021894D01*
X132368106Y-67383371D01*
X132840398Y-67579000D01*
X133351602Y-67579000D01*
X133823894Y-67383371D01*
X133978265Y-67229000D01*
X134071914Y-67229000D01*
X134164000Y-67247317D01*
X134256086Y-67229000D01*
X134528819Y-67174750D01*
X134838097Y-66968097D01*
X134890261Y-66890028D01*
X136232031Y-65548259D01*
X136310097Y-65496097D01*
X136516750Y-65186819D01*
X136571000Y-64914086D01*
X136571000Y-64914083D01*
X136579880Y-64869440D01*
X140636000Y-64869440D01*
X140883765Y-64820157D01*
X141093809Y-64679809D01*
X141234157Y-64469765D01*
X141283440Y-64222000D01*
X141283440Y-59222000D01*
X141234157Y-58974235D01*
X141093809Y-58764191D01*
X140883765Y-58623843D01*
X140636000Y-58574560D01*
X130636000Y-58574560D01*
X130388235Y-58623843D01*
X130178191Y-58764191D01*
X130037843Y-58974235D01*
X129988560Y-59222000D01*
X119848406Y-59222000D01*
X119765611Y-59179814D01*
X119053327Y-59066999D01*
X118341043Y-59179814D01*
X117698481Y-59507215D01*
X117188542Y-60017154D01*
X116861141Y-60659716D01*
X116748326Y-61372000D01*
X94703000Y-61372000D01*
X94703000Y-55406698D01*
X94774160Y-54706139D01*
X94974307Y-54067470D01*
X95298784Y-53482098D01*
X95734343Y-52973922D01*
X96263183Y-52563711D01*
X96863712Y-52268214D01*
X97519567Y-52097377D01*
X98044313Y-52057000D01*
X139983302Y-52057000D01*
X140683861Y-52128160D01*
G04 #@! TD*
M02*
