M48
;DRILL file {KiCad 5.0.1} date Wed 20 Mar 2019 03:41:24 PM IST
;FORMAT={-:-/ absolute / metric / decimal}
FMAT,2
METRIC,TZ
T1C0.400
T2C0.800
T3C0.800
T4C0.900
T5C1.000
T6C1.016
T7C1.100
T8C1.300
T9C1.600
%
G90
G05
M71
T1
X181.102Y-85.852
X194.056Y-89.408
T2
X114.935Y-83.09
X114.935Y-85.09
X114.935Y-74.962
X114.935Y-76.962
X142.113Y-76.835
X142.113Y-92.075
X144.653Y-76.835
X144.653Y-92.075
X147.193Y-76.835
X147.193Y-92.075
X149.733Y-76.835
X149.733Y-92.075
X152.273Y-76.835
X152.273Y-92.075
X154.813Y-76.835
X154.813Y-92.075
X157.353Y-76.835
X157.353Y-92.075
X159.893Y-76.835
X159.893Y-92.075
X162.433Y-76.835
X162.433Y-92.075
X164.973Y-76.835
X164.973Y-92.075
X167.513Y-76.835
X167.513Y-92.075
X170.053Y-76.835
X170.053Y-92.075
X172.593Y-76.835
X172.593Y-92.075
X175.133Y-76.835
X175.133Y-92.075
X177.673Y-76.835
X177.673Y-92.075
X180.213Y-76.835
X180.213Y-92.075
X182.753Y-76.835
X182.753Y-92.075
X185.293Y-76.835
X185.293Y-92.075
X187.833Y-76.835
X187.833Y-92.075
X190.373Y-76.835
X190.373Y-92.075
X112.776Y-92.004
X112.776Y-95.504
T3
X166.205Y-96.515
X171.087Y-96.515
T4
X117.5Y-65.303
X120.Y-65.303
X122.5Y-65.303
X125.Y-65.303
X117.5Y-57.328
X120.Y-57.328
X122.5Y-57.328
X125.Y-57.328
X102.87Y-57.328
X105.37Y-57.328
X107.87Y-57.328
X110.37Y-57.328
X102.87Y-65.303
X105.37Y-65.303
X107.87Y-65.303
X110.37Y-65.303
T5
X170.465Y-101.092
X173.005Y-101.092
X175.545Y-101.092
X178.085Y-101.092
X180.625Y-101.092
X183.165Y-101.092
X185.705Y-101.092
X188.245Y-101.092
X144.262Y-109.728
X146.802Y-109.728
X149.342Y-109.728
X151.882Y-109.728
X154.422Y-109.728
X156.962Y-109.728
X159.502Y-109.728
X162.042Y-109.728
X134.092Y-58.42
X136.632Y-58.42
X139.172Y-58.42
X141.712Y-58.42
X144.252Y-58.42
X146.792Y-58.42
X149.332Y-58.42
X151.872Y-58.42
X154.412Y-58.42
X156.952Y-58.42
X159.492Y-58.42
X162.032Y-58.42
X170.688Y-58.42
X173.228Y-58.42
X175.768Y-58.42
X178.308Y-58.42
X180.848Y-58.42
X183.388Y-58.42
X185.928Y-58.42
X188.468Y-58.42
X115.316Y-102.42
X115.316Y-104.12
X115.316Y-105.82
X115.316Y-107.52
X115.316Y-109.22
X170.465Y-109.728
X173.005Y-109.728
X175.545Y-109.728
X178.085Y-109.728
X180.625Y-109.728
X183.165Y-109.728
X185.705Y-109.728
X188.245Y-109.728
X170.688Y-67.056
X173.228Y-67.056
X175.768Y-67.056
X178.308Y-67.056
X180.848Y-67.056
X183.388Y-67.056
X185.928Y-67.056
X188.468Y-67.056
X106.03Y-79.078
X106.03Y-81.617
X106.03Y-84.157
X99.568Y-91.44
X99.568Y-96.44
X134.092Y-67.056
X136.632Y-67.056
X139.172Y-67.056
X141.712Y-67.056
X144.252Y-67.056
X146.792Y-67.056
X149.332Y-67.056
X151.872Y-67.056
X154.412Y-67.056
X156.952Y-67.056
X159.492Y-67.056
X162.032Y-67.056
X196.16Y-58.41
X196.16Y-60.95
X196.16Y-63.49
X196.16Y-66.03
X144.262Y-101.092
X146.802Y-101.092
X149.342Y-101.092
X151.882Y-101.092
X154.422Y-101.092
X156.962Y-101.092
X159.502Y-101.092
X162.042Y-101.092
T6
X199.39Y-94.996
X199.39Y-97.536
X199.39Y-100.076
X199.39Y-102.616
X199.39Y-105.156
X201.93Y-94.996
X201.93Y-97.536
X201.93Y-100.076
X201.93Y-102.616
X201.93Y-105.156
T7
X98.232Y-76.517
X98.232Y-86.677
T8
X124.841Y-120.396
X129.841Y-120.396
X134.841Y-120.396
X139.841Y-120.396
X144.841Y-120.396
X149.841Y-120.396
X154.841Y-120.396
X159.841Y-120.396
X166.041Y-44.831
X171.041Y-44.831
X176.041Y-44.831
X181.041Y-44.831
X186.041Y-44.831
X191.041Y-44.831
X196.041Y-44.831
X201.041Y-44.831
X121.026Y-44.704
X126.026Y-44.704
X131.026Y-44.704
X136.026Y-44.704
X141.026Y-44.704
X146.026Y-44.704
X151.026Y-44.704
X156.026Y-44.704
X166.041Y-120.269
X171.041Y-120.269
X176.041Y-120.269
X181.041Y-120.269
X186.041Y-120.269
X191.041Y-120.269
X196.041Y-120.269
X201.041Y-120.269
X96.012Y-118.872
X101.012Y-118.872
X96.012Y-44.704
X101.012Y-44.704
X106.012Y-44.704
X111.012Y-44.704
T9
X106.68Y-119.38
X119.38Y-119.38
X120.411Y-107.696
X135.651Y-107.696
T0
M30
