G04 #@! TF.GenerationSoftware,KiCad,Pcbnew,5.0.1*
G04 #@! TF.CreationDate,2019-03-20T15:41:13+05:30*
G04 #@! TF.ProjectId,OpenPLC_V2,4F70656E504C435F56322E6B69636164,rev?*
G04 #@! TF.SameCoordinates,Original*
G04 #@! TF.FileFunction,Other,User*
%FSLAX46Y46*%
G04 Gerber Fmt 4.6, Leading zero omitted, Abs format (unit mm)*
G04 Created by KiCad (PCBNEW 5.0.1) date Wed 20 Mar 2019 03:41:13 PM IST*
%MOMM*%
%LPD*%
G01*
G04 APERTURE LIST*
%ADD10C,0.050000*%
G04 APERTURE END LIST*
D10*
G04 #@! TO.C,J6*
X158726500Y-39904000D02*
X158726500Y-50104000D01*
X118326500Y-39904000D02*
X158726500Y-39904000D01*
X118326500Y-50104000D02*
X118326500Y-39904000D01*
X158726500Y-50104000D02*
X118326500Y-50104000D01*
G04 #@! TO.C,IC1*
X139663000Y-93475000D02*
X192863000Y-93475000D01*
X139663000Y-75425000D02*
X192863000Y-75425000D01*
X139663000Y-93475000D02*
X139663000Y-75425000D01*
X192863000Y-93475000D02*
X192863000Y-75425000D01*
G04 #@! TO.C,CON2*
X205590000Y-89146000D02*
X205590000Y-110756000D01*
X205590000Y-110756000D02*
X195480000Y-110756000D01*
X195480000Y-110756000D02*
X195480000Y-89146000D01*
X195480000Y-89146000D02*
X205590000Y-89146000D01*
G04 #@! TO.C,P11*
X190045430Y-102892000D02*
X190045430Y-99292000D01*
X168695430Y-102892000D02*
X190045430Y-102892000D01*
X168695430Y-99292000D02*
X168695430Y-102892000D01*
X190045430Y-99292000D02*
X168695430Y-99292000D01*
G04 #@! TO.C,J5*
X113712000Y-50104000D02*
X93312000Y-50104000D01*
X113712000Y-39904000D02*
X113712000Y-50104000D01*
X93312000Y-39904000D02*
X113712000Y-39904000D01*
X93312000Y-50104000D02*
X93312000Y-39904000D01*
G04 #@! TO.C,P5*
X203741000Y-40031000D02*
X203741000Y-50231000D01*
X163341000Y-40031000D02*
X203741000Y-40031000D01*
X163341000Y-50231000D02*
X163341000Y-40031000D01*
X203741000Y-50231000D02*
X163341000Y-50231000D01*
G04 #@! TO.C,D37*
X198336420Y-68646000D02*
X198336420Y-70546000D01*
X198336420Y-70546000D02*
X194536420Y-70546000D01*
X194536420Y-70546000D02*
X194536420Y-68646000D01*
X194536420Y-68646000D02*
X198336420Y-68646000D01*
G04 #@! TO.C,P6*
X163341000Y-114869000D02*
X203741000Y-114869000D01*
X203741000Y-114869000D02*
X203741000Y-125069000D01*
X203741000Y-125069000D02*
X163341000Y-125069000D01*
X163341000Y-125069000D02*
X163341000Y-114869000D01*
G04 #@! TO.C,C9*
X165375000Y-72420000D02*
X165375000Y-68820000D01*
X167375000Y-72420000D02*
X167375000Y-68820000D01*
X165375000Y-72420000D02*
X167375000Y-72420000D01*
X165375000Y-68820000D02*
X167375000Y-68820000D01*
G04 #@! TO.C,C7*
X157966000Y-95520000D02*
X161566000Y-95520000D01*
X157966000Y-97520000D02*
X161566000Y-97520000D01*
X157966000Y-95520000D02*
X157966000Y-97520000D01*
X161566000Y-95520000D02*
X161566000Y-97520000D01*
G04 #@! TO.C,powerIn1*
X103712000Y-113472000D02*
X103712000Y-123672000D01*
X103712000Y-123672000D02*
X93312000Y-123672000D01*
X93312000Y-123672000D02*
X93312000Y-113472000D01*
X93312000Y-113472000D02*
X103712000Y-113472000D01*
G04 #@! TO.C,C2*
X112085000Y-86940000D02*
X117785000Y-86940000D01*
X117785000Y-86940000D02*
X117785000Y-81240000D01*
X117785000Y-81240000D02*
X112085000Y-81240000D01*
X112085000Y-81240000D02*
X112085000Y-86940000D01*
G04 #@! TO.C,D1*
X99931960Y-88067500D02*
X99931960Y-75167500D01*
X96531960Y-88067500D02*
X99931960Y-88067500D01*
X96531960Y-75167500D02*
X96531960Y-88067500D01*
X99931960Y-75167500D02*
X96531960Y-75167500D01*
G04 #@! TO.C,P14*
X168888000Y-60220000D02*
X190238000Y-60220000D01*
X190238000Y-60220000D02*
X190238000Y-56620000D01*
X190238000Y-56620000D02*
X168888000Y-56620000D01*
X168888000Y-56620000D02*
X168888000Y-60220000D01*
G04 #@! TO.C,P15*
X190045430Y-111528000D02*
X190045430Y-107928000D01*
X168695430Y-111528000D02*
X190045430Y-111528000D01*
X168695430Y-107928000D02*
X168695430Y-111528000D01*
X190045430Y-107928000D02*
X168695430Y-107928000D01*
G04 #@! TO.C,P9*
X132292000Y-68856000D02*
X163842000Y-68856000D01*
X163842000Y-68856000D02*
X163842000Y-65256000D01*
X163842000Y-65256000D02*
X132292000Y-65256000D01*
X132292000Y-65256000D02*
X132292000Y-68856000D01*
G04 #@! TO.C,P8*
X163842000Y-102892000D02*
X163842000Y-99292000D01*
X142492000Y-102892000D02*
X163842000Y-102892000D01*
X142492000Y-99292000D02*
X142492000Y-102892000D01*
X163842000Y-99292000D02*
X142492000Y-99292000D01*
G04 #@! TO.C,P12*
X132292000Y-60220000D02*
X163842000Y-60220000D01*
X163842000Y-60220000D02*
X163842000Y-56620000D01*
X163842000Y-56620000D02*
X132292000Y-56620000D01*
X132292000Y-56620000D02*
X132292000Y-60220000D01*
G04 #@! TO.C,U1*
X103280000Y-76367500D02*
X103280000Y-86867500D01*
X108190000Y-76367500D02*
X103280000Y-76367500D01*
X108190000Y-86867500D02*
X108190000Y-76367500D01*
X103280000Y-86867500D02*
X108190000Y-86867500D01*
G04 #@! TO.C,P7*
X194360000Y-67830000D02*
X194360000Y-56630000D01*
X194360000Y-56630000D02*
X206710000Y-56630000D01*
X206710000Y-56630000D02*
X206710000Y-67830000D01*
X206710000Y-67830000D02*
X194360000Y-67830000D01*
G04 #@! TO.C,D3*
X137511200Y-104746000D02*
X118561200Y-104746000D01*
X137511200Y-110646000D02*
X137511200Y-104746000D01*
X118561200Y-110646000D02*
X137511200Y-110646000D01*
X118561200Y-104746000D02*
X118561200Y-110646000D01*
G04 #@! TO.C,P10*
X168888000Y-65256000D02*
X168888000Y-68856000D01*
X190238000Y-65256000D02*
X168888000Y-65256000D01*
X190238000Y-68856000D02*
X190238000Y-65256000D01*
X168888000Y-68856000D02*
X190238000Y-68856000D01*
G04 #@! TO.C,L1*
X120724000Y-90364000D02*
X125724000Y-83364000D01*
X120724000Y-95564000D02*
X120724000Y-90364000D01*
X125724000Y-102564000D02*
X120724000Y-95564000D01*
X136324000Y-95564000D02*
X131324000Y-102564000D01*
X136324000Y-90364000D02*
X136324000Y-95564000D01*
X131324000Y-83364000D02*
X136324000Y-90364000D01*
X126724000Y-102564000D02*
X125724000Y-102564000D01*
X126724000Y-103564000D02*
X126724000Y-102564000D01*
X130324000Y-103564000D02*
X126724000Y-103564000D01*
X130324000Y-102564000D02*
X130324000Y-103564000D01*
X131324000Y-102564000D02*
X130324000Y-102564000D01*
X130324000Y-83364000D02*
X131324000Y-83364000D01*
X130324000Y-82364000D02*
X130324000Y-83364000D01*
X126724000Y-82364000D02*
X130324000Y-82364000D01*
X126724000Y-83364000D02*
X126724000Y-82364000D01*
X125724000Y-83364000D02*
X126724000Y-83364000D01*
G04 #@! TO.C,Cout1*
X104918000Y-99290000D02*
X104918000Y-88590000D01*
X94218000Y-99290000D02*
X104918000Y-99290000D01*
X94218000Y-88590000D02*
X94218000Y-99290000D01*
X104918000Y-88590000D02*
X94218000Y-88590000D01*
G04 #@! TO.C,R3*
X103978000Y-72782000D02*
X100878000Y-72782000D01*
X103978000Y-72782000D02*
X103978000Y-70982000D01*
X100878000Y-70982000D02*
X100878000Y-72782000D01*
X100878000Y-70982000D02*
X103978000Y-70982000D01*
G04 #@! TO.C,P4*
X122141000Y-114996000D02*
X162541000Y-114996000D01*
X162541000Y-114996000D02*
X162541000Y-125196000D01*
X162541000Y-125196000D02*
X122141000Y-125196000D01*
X122141000Y-125196000D02*
X122141000Y-114996000D01*
G04 #@! TO.C,C3*
X117785000Y-73112000D02*
X112085000Y-73112000D01*
X112085000Y-73112000D02*
X112085000Y-78812000D01*
X112085000Y-78812000D02*
X117785000Y-78812000D01*
X117785000Y-78812000D02*
X117785000Y-73112000D01*
G04 #@! TO.C,C8*
X179346000Y-97520000D02*
X175746000Y-97520000D01*
X179346000Y-95520000D02*
X175746000Y-95520000D01*
X179346000Y-97520000D02*
X179346000Y-95520000D01*
X175746000Y-97520000D02*
X175746000Y-95520000D01*
G04 #@! TO.C,R4*
X202382000Y-53964000D02*
X205482000Y-53964000D01*
X202382000Y-53964000D02*
X202382000Y-55764000D01*
X205482000Y-55764000D02*
X205482000Y-53964000D01*
X205482000Y-55764000D02*
X202382000Y-55764000D01*
G04 #@! TO.C,D2*
X110802500Y-70932000D02*
X110802500Y-72832000D01*
X110802500Y-72832000D02*
X107002500Y-72832000D01*
X107002500Y-72832000D02*
X107002500Y-70932000D01*
X107002500Y-70932000D02*
X110802500Y-70932000D01*
G04 #@! TO.C,D4*
X121230000Y-116430000D02*
X104830000Y-116430000D01*
X121230000Y-122330000D02*
X121230000Y-116430000D01*
X104830000Y-122330000D02*
X121230000Y-122330000D01*
X104830000Y-116430000D02*
X104830000Y-122330000D01*
G04 #@! TO.C,Cin1*
X108426000Y-98104000D02*
X117126000Y-98104000D01*
X117126000Y-98104000D02*
X117126000Y-89404000D01*
X117126000Y-89404000D02*
X108426000Y-89404000D01*
X108426000Y-89404000D02*
X108426000Y-98104000D01*
G04 #@! TO.C,SW1*
X196885000Y-73988000D02*
X196885000Y-82988000D01*
X196885000Y-82988000D02*
X204185000Y-82988000D01*
X204185000Y-82988000D02*
X204185000Y-73988000D01*
X204185000Y-73988000D02*
X196885000Y-73988000D01*
G04 #@! TO.C,Regulator1*
X95606000Y-100570000D02*
X95606000Y-111070000D01*
X116466000Y-100570000D02*
X95606000Y-100570000D01*
X116466000Y-111070000D02*
X116466000Y-100570000D01*
X95606000Y-111070000D02*
X116466000Y-111070000D01*
G04 #@! TO.C,J4*
X114350400Y-63053400D02*
X114350400Y-68153400D01*
X114350400Y-68153400D02*
X128150400Y-68153400D01*
X128150400Y-68153400D02*
X128150400Y-63053400D01*
X128150400Y-63053400D02*
X114350400Y-63053400D01*
G04 #@! TO.C,J3*
X99720000Y-63053400D02*
X99720000Y-68153400D01*
X99720000Y-68153400D02*
X113520000Y-68153400D01*
X113520000Y-68153400D02*
X113520000Y-63053400D01*
X113520000Y-63053400D02*
X99720000Y-63053400D01*
G04 #@! TO.C,P13*
X163842000Y-111528000D02*
X163842000Y-107928000D01*
X142492000Y-111528000D02*
X163842000Y-111528000D01*
X142492000Y-107928000D02*
X142492000Y-111528000D01*
X163842000Y-107928000D02*
X142492000Y-107928000D01*
G04 #@! TO.C,J1*
X99720000Y-55077800D02*
X99720000Y-60177800D01*
X99720000Y-60177800D02*
X113520000Y-60177800D01*
X113520000Y-60177800D02*
X113520000Y-55077800D01*
X113520000Y-55077800D02*
X99720000Y-55077800D01*
G04 #@! TO.C,R5*
X202382000Y-68696000D02*
X205482000Y-68696000D01*
X202382000Y-68696000D02*
X202382000Y-70496000D01*
X205482000Y-70496000D02*
X205482000Y-68696000D01*
X205482000Y-70496000D02*
X202382000Y-70496000D01*
G04 #@! TO.C,J2*
X128150400Y-55077800D02*
X114350400Y-55077800D01*
X128150400Y-60177800D02*
X128150400Y-55077800D01*
X114350400Y-60177800D02*
X128150400Y-60177800D01*
X114350400Y-55077800D02*
X114350400Y-60177800D01*
G04 #@! TO.C,D36*
X194536420Y-53914000D02*
X198336420Y-53914000D01*
X194536420Y-55814000D02*
X194536420Y-53914000D01*
X198336420Y-55814000D02*
X194536420Y-55814000D01*
X198336420Y-53914000D02*
X198336420Y-55814000D01*
G04 #@! TD*
M02*
