G04 #@! TF.GenerationSoftware,KiCad,Pcbnew,5.0.1*
G04 #@! TF.CreationDate,2019-01-23T10:45:12+05:30*
G04 #@! TF.ProjectId,traffic,747261666669632E6B696361645F7063,rev?*
G04 #@! TF.SameCoordinates,Original*
G04 #@! TF.FileFunction,Legend,Bot*
G04 #@! TF.FilePolarity,Positive*
%FSLAX46Y46*%
G04 Gerber Fmt 4.6, Leading zero omitted, Abs format (unit mm)*
G04 Created by KiCad (PCBNEW 5.0.1) date Wed 23 Jan 2019 10:45:12 AM IST*
%MOMM*%
%LPD*%
G01*
G04 APERTURE LIST*
%ADD10C,0.120000*%
%ADD11C,0.150000*%
G04 APERTURE END LIST*
D10*
G04 #@! TO.C,R2*
X139020000Y-94000000D02*
X139020000Y-95000000D01*
X140380000Y-95000000D02*
X140380000Y-94000000D01*
G04 #@! TO.C,Q1*
X143760000Y-91720000D02*
X142300000Y-91720000D01*
X143760000Y-94880000D02*
X141600000Y-94880000D01*
X143760000Y-94880000D02*
X143760000Y-93950000D01*
X143760000Y-91720000D02*
X143760000Y-92650000D01*
G04 #@! TO.C,R1*
X141572721Y-88665614D02*
X140865614Y-89372721D01*
X141827279Y-90334386D02*
X142534386Y-89627279D01*
G04 #@! TO.C,R2*
D11*
X140152380Y-91533333D02*
X139676190Y-91200000D01*
X140152380Y-90961904D02*
X139152380Y-90961904D01*
X139152380Y-91342857D01*
X139200000Y-91438095D01*
X139247619Y-91485714D01*
X139342857Y-91533333D01*
X139485714Y-91533333D01*
X139580952Y-91485714D01*
X139628571Y-91438095D01*
X139676190Y-91342857D01*
X139676190Y-90961904D01*
X139247619Y-91914285D02*
X139200000Y-91961904D01*
X139152380Y-92057142D01*
X139152380Y-92295238D01*
X139200000Y-92390476D01*
X139247619Y-92438095D01*
X139342857Y-92485714D01*
X139438095Y-92485714D01*
X139580952Y-92438095D01*
X140152380Y-91866666D01*
X140152380Y-92485714D01*
G04 #@! TO.C,Q1*
X143095238Y-96347619D02*
X143190476Y-96300000D01*
X143285714Y-96204761D01*
X143428571Y-96061904D01*
X143523809Y-96014285D01*
X143619047Y-96014285D01*
X143571428Y-96252380D02*
X143666666Y-96204761D01*
X143761904Y-96109523D01*
X143809523Y-95919047D01*
X143809523Y-95585714D01*
X143761904Y-95395238D01*
X143666666Y-95300000D01*
X143571428Y-95252380D01*
X143380952Y-95252380D01*
X143285714Y-95300000D01*
X143190476Y-95395238D01*
X143142857Y-95585714D01*
X143142857Y-95919047D01*
X143190476Y-96109523D01*
X143285714Y-96204761D01*
X143380952Y-96252380D01*
X143571428Y-96252380D01*
X142190476Y-96252380D02*
X142761904Y-96252380D01*
X142476190Y-96252380D02*
X142476190Y-95252380D01*
X142571428Y-95395238D01*
X142666666Y-95490476D01*
X142761904Y-95538095D01*
G04 #@! TO.C,R1*
X144137732Y-87702030D02*
X144036717Y-87129610D01*
X144541793Y-87297969D02*
X143834687Y-86590862D01*
X143565312Y-86860236D01*
X143531641Y-86961251D01*
X143531641Y-87028595D01*
X143565312Y-87129610D01*
X143666328Y-87230625D01*
X143767343Y-87264297D01*
X143834687Y-87264297D01*
X143935702Y-87230625D01*
X144205076Y-86961251D01*
X143464297Y-88375465D02*
X143868358Y-87971404D01*
X143666328Y-88173435D02*
X142959221Y-87466328D01*
X143127580Y-87500000D01*
X143262267Y-87500000D01*
X143363282Y-87466328D01*
G04 #@! TD*
M02*
