G04 #@! TF.GenerationSoftware,KiCad,Pcbnew,5.0.1*
G04 #@! TF.CreationDate,2019-01-23T10:45:12+05:30*
G04 #@! TF.ProjectId,traffic,747261666669632E6B696361645F7063,rev?*
G04 #@! TF.SameCoordinates,Original*
G04 #@! TF.FileFunction,Legend,Top*
G04 #@! TF.FilePolarity,Positive*
%FSLAX46Y46*%
G04 Gerber Fmt 4.6, Leading zero omitted, Abs format (unit mm)*
G04 Created by KiCad (PCBNEW 5.0.1) date Wed 23 Jan 2019 10:45:12 AM IST*
%MOMM*%
%LPD*%
G01*
G04 APERTURE LIST*
%ADD10C,0.100000*%
%ADD11C,0.200000*%
%ADD12C,0.300000*%
%ADD13C,0.150000*%
%ADD14C,0.120000*%
%ADD15C,0.125000*%
G04 APERTURE END LIST*
D10*
X139813568Y-92687767D02*
X139813568Y-93297291D01*
X139508806Y-92992529D02*
X140118330Y-92992529D01*
X140308806Y-94059196D02*
X140308806Y-93678243D01*
X139927853Y-93640148D01*
X139965949Y-93678243D01*
X140004044Y-93754434D01*
X140004044Y-93944910D01*
X139965949Y-94021100D01*
X139927853Y-94059196D01*
X139851663Y-94097291D01*
X139661187Y-94097291D01*
X139584996Y-94059196D01*
X139546901Y-94021100D01*
X139508806Y-93944910D01*
X139508806Y-93754434D01*
X139546901Y-93678243D01*
X139584996Y-93640148D01*
X140308806Y-94325862D02*
X139508806Y-94592529D01*
X140308806Y-94859196D01*
X153818155Y-90883841D02*
X153845093Y-90964653D01*
X153925905Y-91045465D01*
X154033654Y-91099340D01*
X154141404Y-91099340D01*
X154222216Y-91072402D01*
X154356903Y-90991590D01*
X154437715Y-90910778D01*
X154518528Y-90776091D01*
X154545465Y-90695279D01*
X154545465Y-90587529D01*
X154491590Y-90479780D01*
X154437715Y-90425905D01*
X154329966Y-90372030D01*
X154276091Y-90372030D01*
X154087529Y-90560592D01*
X154195279Y-90668341D01*
X154087529Y-90075719D02*
X153521844Y-90641404D01*
X153764280Y-89752470D01*
X153198595Y-90318155D01*
X153494906Y-89483096D02*
X152929221Y-90048781D01*
X152794534Y-89914094D01*
X152740659Y-89806345D01*
X152740659Y-89698595D01*
X152767597Y-89617783D01*
X152848409Y-89483096D01*
X152929221Y-89402284D01*
X153063908Y-89321471D01*
X153144720Y-89294534D01*
X153252470Y-89294534D01*
X153360219Y-89348409D01*
X153494906Y-89483096D01*
X152659715Y-89078903D02*
X152228717Y-88647905D01*
X152659715Y-88647905D02*
X152228717Y-89078903D01*
X151339783Y-88459343D02*
X151609157Y-88728717D01*
X151905468Y-88486280D01*
X151851593Y-88486280D01*
X151770781Y-88459343D01*
X151636094Y-88324656D01*
X151609157Y-88243844D01*
X151609157Y-88189969D01*
X151636094Y-88109157D01*
X151770781Y-87974470D01*
X151851593Y-87947532D01*
X151905468Y-87947532D01*
X151986280Y-87974470D01*
X152120967Y-88109157D01*
X152147905Y-88189969D01*
X152147905Y-88243844D01*
X151151221Y-88270781D02*
X151528345Y-87516534D01*
X150774097Y-87893658D01*
D11*
X137652173Y-92192699D02*
X137921547Y-91923325D01*
X137517486Y-91855981D02*
X138123577Y-92462073D01*
X138224592Y-92495744D01*
X138325608Y-92462073D01*
X138392951Y-92394729D01*
X138628653Y-92159027D02*
X138157249Y-91687622D01*
X138291936Y-91822309D02*
X138258264Y-91721294D01*
X138258264Y-91653951D01*
X138291936Y-91552935D01*
X138359279Y-91485592D01*
X139369432Y-91418248D02*
X138999043Y-91047859D01*
X138898027Y-91014187D01*
X138797012Y-91047859D01*
X138662325Y-91182546D01*
X138628653Y-91283561D01*
X139335760Y-91384577D02*
X139302088Y-91485592D01*
X139133730Y-91653951D01*
X139032714Y-91687622D01*
X138931699Y-91653951D01*
X138864356Y-91586607D01*
X138830684Y-91485592D01*
X138864356Y-91384577D01*
X139032714Y-91216218D01*
X139066386Y-91115203D01*
X139133730Y-90711142D02*
X139403104Y-90441768D01*
X139706149Y-91081531D02*
X139100058Y-90475439D01*
X139066386Y-90374424D01*
X139100058Y-90273409D01*
X139167401Y-90206065D01*
X139537791Y-90307081D02*
X139807165Y-90037707D01*
X140110210Y-90677470D02*
X139504119Y-90071378D01*
X139470447Y-89970363D01*
X139504119Y-89869348D01*
X139571462Y-89802004D01*
X140514271Y-90273409D02*
X140042867Y-89802004D01*
X139807165Y-89566302D02*
X139807165Y-89633646D01*
X139874508Y-89633646D01*
X139874508Y-89566302D01*
X139807165Y-89566302D01*
X139874508Y-89633646D01*
X141120363Y-89599974D02*
X141086691Y-89700989D01*
X140952004Y-89835676D01*
X140850989Y-89869348D01*
X140783646Y-89869348D01*
X140682630Y-89835676D01*
X140480600Y-89633646D01*
X140446928Y-89532630D01*
X140446928Y-89465287D01*
X140480600Y-89364271D01*
X140615287Y-89229584D01*
X140716302Y-89195913D01*
X141793798Y-88993882D02*
X141457081Y-89330600D01*
X140749974Y-88623493D01*
X142029500Y-88758180D02*
X141558096Y-88286775D01*
X141322394Y-88051073D02*
X141322394Y-88118417D01*
X141389737Y-88118417D01*
X141389737Y-88051073D01*
X141322394Y-88051073D01*
X141389737Y-88118417D01*
X142197859Y-87647012D02*
X142770279Y-88219432D01*
X142803951Y-88320447D01*
X142803951Y-88387791D01*
X142770279Y-88488806D01*
X142669264Y-88589821D01*
X142568248Y-88623493D01*
X142635592Y-88084745D02*
X142601920Y-88185760D01*
X142467233Y-88320447D01*
X142366218Y-88354119D01*
X142298874Y-88354119D01*
X142197859Y-88320447D01*
X141995829Y-88118417D01*
X141962157Y-88017401D01*
X141962157Y-87950058D01*
X141995829Y-87849043D01*
X142130516Y-87714356D01*
X142231531Y-87680684D01*
X143005981Y-87781699D02*
X142298874Y-87074592D01*
X143309027Y-87478653D02*
X142938638Y-87108264D01*
X142837622Y-87074592D01*
X142736607Y-87108264D01*
X142635592Y-87209279D01*
X142601920Y-87310295D01*
X142601920Y-87377638D01*
X143073325Y-86771547D02*
X143342699Y-86502173D01*
X142938638Y-86434829D02*
X143544729Y-87040921D01*
X143645744Y-87074592D01*
X143746760Y-87040921D01*
X143814103Y-86973577D01*
X140487335Y-91963731D02*
X140251632Y-92199433D01*
X140622022Y-92569823D02*
X139914915Y-91862716D01*
X140251632Y-91525998D01*
X140655693Y-91121937D02*
X140790380Y-90987250D01*
X140891396Y-90953579D01*
X141026083Y-90953579D01*
X141194441Y-91054594D01*
X141430144Y-91290296D01*
X141531159Y-91458655D01*
X141531159Y-91593342D01*
X141497487Y-91694357D01*
X141362800Y-91829044D01*
X141261785Y-91862716D01*
X141127098Y-91862716D01*
X140958739Y-91761701D01*
X140723037Y-91525998D01*
X140622022Y-91357640D01*
X140622022Y-91222953D01*
X140655693Y-91121937D01*
X141901548Y-91222953D02*
X142036235Y-91155609D01*
X142204594Y-90987250D01*
X142238266Y-90886235D01*
X142238266Y-90818892D01*
X142204594Y-90717876D01*
X142137250Y-90650533D01*
X142036235Y-90616861D01*
X141968892Y-90616861D01*
X141867876Y-90650533D01*
X141699518Y-90751548D01*
X141598502Y-90785220D01*
X141531159Y-90785220D01*
X141430144Y-90751548D01*
X141362800Y-90684205D01*
X141329128Y-90583189D01*
X141329128Y-90515846D01*
X141362800Y-90414831D01*
X141531159Y-90246472D01*
X141665846Y-90179128D01*
X142574983Y-90549518D02*
X142709670Y-90482174D01*
X142878029Y-90313815D01*
X142911701Y-90212800D01*
X142911701Y-90145457D01*
X142878029Y-90044441D01*
X142810685Y-89977098D01*
X142709670Y-89943426D01*
X142642327Y-89943426D01*
X142541311Y-89977098D01*
X142372953Y-90078113D01*
X142271937Y-90111785D01*
X142204594Y-90111785D01*
X142103579Y-90078113D01*
X142036235Y-90010770D01*
X142002563Y-89909754D01*
X142002563Y-89842411D01*
X142036235Y-89741396D01*
X142204594Y-89573037D01*
X142339281Y-89505693D01*
X142945372Y-89505693D02*
X143181075Y-89269991D01*
X143652479Y-89539365D02*
X143315762Y-89876083D01*
X142608655Y-89168976D01*
X142945372Y-88832258D01*
X143585136Y-88865930D02*
X143820838Y-88630228D01*
X144292242Y-88899602D02*
X143955525Y-89236319D01*
X143248418Y-88529213D01*
X143585136Y-88192495D01*
D12*
X136873311Y-91558211D02*
X136721788Y-91608719D01*
X136620773Y-91608719D01*
X136469250Y-91558211D01*
X136166204Y-91255165D01*
X136115697Y-91103642D01*
X136115697Y-91002627D01*
X136166204Y-90851104D01*
X136317727Y-90699581D01*
X136469250Y-90649074D01*
X136570265Y-90649074D01*
X136721788Y-90699581D01*
X137024834Y-91002627D01*
X137075341Y-91154150D01*
X137075341Y-91255165D01*
X137024834Y-91406688D01*
X136873311Y-91558211D01*
X136974326Y-90042982D02*
X138034986Y-91103642D01*
X137024834Y-90093490D02*
X137075341Y-89941967D01*
X137277372Y-89739936D01*
X137428895Y-89689429D01*
X137529910Y-89689429D01*
X137681433Y-89739936D01*
X137984479Y-90042982D01*
X138034986Y-90194505D01*
X138034986Y-90295520D01*
X137984479Y-90447043D01*
X137782448Y-90649074D01*
X137630925Y-90699581D01*
X138994631Y-89335875D02*
X138944124Y-89487398D01*
X138742093Y-89689429D01*
X138590570Y-89739936D01*
X138439047Y-89689429D01*
X138034986Y-89285368D01*
X137984479Y-89133845D01*
X138034986Y-88982322D01*
X138237017Y-88780291D01*
X138388540Y-88729784D01*
X138540063Y-88780291D01*
X138641078Y-88881307D01*
X138237017Y-89487398D01*
X138843108Y-88174200D02*
X139550215Y-88881307D01*
X138944124Y-88275215D02*
X138944124Y-88174200D01*
X138994631Y-88022677D01*
X139146154Y-87871154D01*
X139297677Y-87820647D01*
X139449200Y-87871154D01*
X140004784Y-88426738D01*
X140509860Y-87921662D02*
X139449200Y-86861002D01*
X139853261Y-86456941D01*
X140004784Y-86406433D01*
X140105799Y-86406433D01*
X140257322Y-86456941D01*
X140408845Y-86608463D01*
X140459352Y-86759986D01*
X140459352Y-86861002D01*
X140408845Y-87012525D01*
X140004784Y-87416586D01*
X142075597Y-86355925D02*
X141570520Y-86861002D01*
X140509860Y-85800341D01*
X142934226Y-85295265D02*
X142934226Y-85396280D01*
X142833211Y-85598311D01*
X142732196Y-85699326D01*
X142530165Y-85800341D01*
X142328135Y-85800341D01*
X142176612Y-85749834D01*
X141924074Y-85598311D01*
X141772551Y-85446788D01*
X141621028Y-85194250D01*
X141570520Y-85042727D01*
X141570520Y-84840697D01*
X141671536Y-84638666D01*
X141772551Y-84537651D01*
X141974581Y-84436636D01*
X142075597Y-84436636D01*
D13*
X148279761Y-108436904D02*
X148013095Y-108055952D01*
X147822619Y-108436904D02*
X147822619Y-107636904D01*
X148127380Y-107636904D01*
X148203571Y-107675000D01*
X148241666Y-107713095D01*
X148279761Y-107789285D01*
X148279761Y-107903571D01*
X148241666Y-107979761D01*
X148203571Y-108017857D01*
X148127380Y-108055952D01*
X147822619Y-108055952D01*
X148927380Y-108398809D02*
X148851190Y-108436904D01*
X148698809Y-108436904D01*
X148622619Y-108398809D01*
X148584523Y-108322619D01*
X148584523Y-108017857D01*
X148622619Y-107941666D01*
X148698809Y-107903571D01*
X148851190Y-107903571D01*
X148927380Y-107941666D01*
X148965476Y-108017857D01*
X148965476Y-108094047D01*
X148584523Y-108170238D01*
X150646428Y-108398809D02*
X150760714Y-108436904D01*
X150951190Y-108436904D01*
X151027380Y-108398809D01*
X151065476Y-108360714D01*
X151103571Y-108284523D01*
X151103571Y-108208333D01*
X151065476Y-108132142D01*
X151027380Y-108094047D01*
X150951190Y-108055952D01*
X150798809Y-108017857D01*
X150722619Y-107979761D01*
X150684523Y-107941666D01*
X150646428Y-107865476D01*
X150646428Y-107789285D01*
X150684523Y-107713095D01*
X150722619Y-107675000D01*
X150798809Y-107636904D01*
X150989285Y-107636904D01*
X151103571Y-107675000D01*
X153457142Y-108411904D02*
X153190476Y-108030952D01*
X153000000Y-108411904D02*
X153000000Y-107611904D01*
X153304761Y-107611904D01*
X153380952Y-107650000D01*
X153419047Y-107688095D01*
X153457142Y-107764285D01*
X153457142Y-107878571D01*
X153419047Y-107954761D01*
X153380952Y-107992857D01*
X153304761Y-108030952D01*
X153000000Y-108030952D01*
X153800000Y-108411904D02*
X153800000Y-107878571D01*
X153800000Y-107611904D02*
X153761904Y-107650000D01*
X153800000Y-107688095D01*
X153838095Y-107650000D01*
X153800000Y-107611904D01*
X153800000Y-107688095D01*
X145984523Y-107675000D02*
X145908333Y-107636904D01*
X145794047Y-107636904D01*
X145679761Y-107675000D01*
X145603571Y-107751190D01*
X145565476Y-107827380D01*
X145527380Y-107979761D01*
X145527380Y-108094047D01*
X145565476Y-108246428D01*
X145603571Y-108322619D01*
X145679761Y-108398809D01*
X145794047Y-108436904D01*
X145870238Y-108436904D01*
X145984523Y-108398809D01*
X146022619Y-108360714D01*
X146022619Y-108094047D01*
X145870238Y-108094047D01*
X143447619Y-108436904D02*
X143066666Y-108436904D01*
X143066666Y-107636904D01*
X140109523Y-108017857D02*
X140376190Y-108017857D01*
X140490476Y-108436904D02*
X140109523Y-108436904D01*
X140109523Y-107636904D01*
X140490476Y-107636904D01*
X140833333Y-108436904D02*
X140833333Y-107636904D01*
X141290476Y-108436904D01*
X141290476Y-107636904D01*
D14*
G04 #@! TO.C,J3*
X136070000Y-93370000D02*
X137400000Y-93370000D01*
X136070000Y-94700000D02*
X136070000Y-93370000D01*
X138730000Y-95970000D02*
X136070000Y-95970000D01*
X138730000Y-96030000D02*
X138730000Y-95970000D01*
X136070000Y-96030000D02*
X138730000Y-96030000D01*
X136070000Y-95970000D02*
X136070000Y-96030000D01*
G04 #@! TO.C,J2*
X157074904Y-88392000D02*
X156134452Y-89332452D01*
X156134452Y-87451548D02*
X157074904Y-88392000D01*
X153355522Y-88434426D02*
X155236426Y-86553522D01*
X151517045Y-86595949D02*
X153355522Y-88434426D01*
X153397949Y-84715045D02*
X151517045Y-86595949D01*
X155236426Y-86553522D02*
X153397949Y-84715045D01*
G04 #@! TO.C,D5*
X145775000Y-89936000D02*
X148865000Y-89936000D01*
X149820000Y-87376000D02*
G75*
G03X149820000Y-87376000I-2500000J0D01*
G01*
X147319538Y-84386000D02*
G75*
G02X148864830Y-89936000I462J-2990000D01*
G01*
X147320462Y-84386000D02*
G75*
G03X145775170Y-89936000I-462J-2990000D01*
G01*
G04 #@! TO.C,D4*
X147320462Y-90736000D02*
G75*
G03X145775170Y-96286000I-462J-2990000D01*
G01*
X147319538Y-90736000D02*
G75*
G02X148864830Y-96286000I462J-2990000D01*
G01*
X149820000Y-93726000D02*
G75*
G03X149820000Y-93726000I-2500000J0D01*
G01*
X145775000Y-96286000D02*
X148865000Y-96286000D01*
G04 #@! TO.C,D3*
X153355000Y-102690000D02*
X156445000Y-102690000D01*
X157400000Y-100130000D02*
G75*
G03X157400000Y-100130000I-2500000J0D01*
G01*
X154899538Y-97140000D02*
G75*
G02X156444830Y-102690000I462J-2990000D01*
G01*
X154900462Y-97140000D02*
G75*
G03X153355170Y-102690000I-462J-2990000D01*
G01*
G04 #@! TO.C,D2*
X147320462Y-97086000D02*
G75*
G03X145775170Y-102636000I-462J-2990000D01*
G01*
X147319538Y-97086000D02*
G75*
G02X148864830Y-102636000I462J-2990000D01*
G01*
X149820000Y-100076000D02*
G75*
G03X149820000Y-100076000I-2500000J0D01*
G01*
X145775000Y-102636000D02*
X148865000Y-102636000D01*
G04 #@! TO.C,D1*
X137355000Y-102590000D02*
X140445000Y-102590000D01*
X141400000Y-100030000D02*
G75*
G03X141400000Y-100030000I-2500000J0D01*
G01*
X138899538Y-97040000D02*
G75*
G02X140444830Y-102590000I462J-2990000D01*
G01*
X138900462Y-97040000D02*
G75*
G03X137355170Y-102590000I-462J-2990000D01*
G01*
G04 #@! TO.C,J1*
X139386000Y-106994000D02*
X139386000Y-105664000D01*
X140716000Y-106994000D02*
X139386000Y-106994000D01*
X141986000Y-104334000D02*
X141986000Y-106994000D01*
X154746000Y-104334000D02*
X141986000Y-104334000D01*
X154746000Y-106994000D02*
X154746000Y-104334000D01*
X141986000Y-106994000D02*
X154746000Y-106994000D01*
G04 #@! TO.C,J3*
D15*
X135833333Y-92226190D02*
X135833333Y-92583333D01*
X135809523Y-92654761D01*
X135761904Y-92702380D01*
X135690476Y-92726190D01*
X135642857Y-92726190D01*
X136023809Y-92226190D02*
X136333333Y-92226190D01*
X136166666Y-92416666D01*
X136238095Y-92416666D01*
X136285714Y-92440476D01*
X136309523Y-92464285D01*
X136333333Y-92511904D01*
X136333333Y-92630952D01*
X136309523Y-92678571D01*
X136285714Y-92702380D01*
X136238095Y-92726190D01*
X136095238Y-92726190D01*
X136047619Y-92702380D01*
X136023809Y-92678571D01*
G04 #@! TO.C,J2*
D13*
X156218631Y-89888036D02*
X156723707Y-90393112D01*
X156791051Y-90527799D01*
X156791051Y-90662486D01*
X156723707Y-90797173D01*
X156656364Y-90864516D01*
X156589020Y-89652333D02*
X156589020Y-89584990D01*
X156622692Y-89483975D01*
X156791051Y-89315616D01*
X156892066Y-89281944D01*
X156959410Y-89281944D01*
X157060425Y-89315616D01*
X157127768Y-89382959D01*
X157195112Y-89517646D01*
X157195112Y-90325768D01*
X157632845Y-89888036D01*
G04 #@! TO.C,D5*
X149185523Y-84732761D02*
X149328380Y-84780380D01*
X149566476Y-84780380D01*
X149661714Y-84732761D01*
X149709333Y-84685142D01*
X149756952Y-84589904D01*
X149756952Y-84494666D01*
X149709333Y-84399428D01*
X149661714Y-84351809D01*
X149566476Y-84304190D01*
X149376000Y-84256571D01*
X149280761Y-84208952D01*
X149233142Y-84161333D01*
X149185523Y-84066095D01*
X149185523Y-83970857D01*
X149233142Y-83875619D01*
X149280761Y-83828000D01*
X149376000Y-83780380D01*
X149614095Y-83780380D01*
X149756952Y-83828000D01*
X150042666Y-83780380D02*
X150614095Y-83780380D01*
X150328380Y-84780380D02*
X150328380Y-83780380D01*
X151137904Y-83780380D02*
X151328380Y-83780380D01*
X151423619Y-83828000D01*
X151518857Y-83923238D01*
X151566476Y-84113714D01*
X151566476Y-84447047D01*
X151518857Y-84637523D01*
X151423619Y-84732761D01*
X151328380Y-84780380D01*
X151137904Y-84780380D01*
X151042666Y-84732761D01*
X150947428Y-84637523D01*
X150899809Y-84447047D01*
X150899809Y-84113714D01*
X150947428Y-83923238D01*
X151042666Y-83828000D01*
X151137904Y-83780380D01*
X151995047Y-84780380D02*
X151995047Y-83780380D01*
X152376000Y-83780380D01*
X152471238Y-83828000D01*
X152518857Y-83875619D01*
X152566476Y-83970857D01*
X152566476Y-84113714D01*
X152518857Y-84208952D01*
X152471238Y-84256571D01*
X152376000Y-84304190D01*
X151995047Y-84304190D01*
G04 #@! TO.C,D4*
X149852285Y-91638380D02*
X149852285Y-90971714D01*
X149852285Y-91162190D02*
X149899904Y-91066952D01*
X149947523Y-91019333D01*
X150042761Y-90971714D01*
X150138000Y-90971714D01*
X150852285Y-91590761D02*
X150757047Y-91638380D01*
X150566571Y-91638380D01*
X150471333Y-91590761D01*
X150423714Y-91495523D01*
X150423714Y-91114571D01*
X150471333Y-91019333D01*
X150566571Y-90971714D01*
X150757047Y-90971714D01*
X150852285Y-91019333D01*
X150899904Y-91114571D01*
X150899904Y-91209809D01*
X150423714Y-91305047D01*
X151757047Y-91638380D02*
X151757047Y-91114571D01*
X151709428Y-91019333D01*
X151614190Y-90971714D01*
X151423714Y-90971714D01*
X151328476Y-91019333D01*
X151757047Y-91590761D02*
X151661809Y-91638380D01*
X151423714Y-91638380D01*
X151328476Y-91590761D01*
X151280857Y-91495523D01*
X151280857Y-91400285D01*
X151328476Y-91305047D01*
X151423714Y-91257428D01*
X151661809Y-91257428D01*
X151757047Y-91209809D01*
X152661809Y-91638380D02*
X152661809Y-90638380D01*
X152661809Y-91590761D02*
X152566571Y-91638380D01*
X152376095Y-91638380D01*
X152280857Y-91590761D01*
X152233238Y-91543142D01*
X152185619Y-91447904D01*
X152185619Y-91162190D01*
X152233238Y-91066952D01*
X152280857Y-91019333D01*
X152376095Y-90971714D01*
X152566571Y-90971714D01*
X152661809Y-91019333D01*
X153042761Y-90971714D02*
X153280857Y-91638380D01*
X153518952Y-90971714D02*
X153280857Y-91638380D01*
X153185619Y-91876476D01*
X153138000Y-91924095D01*
X153042761Y-91971714D01*
G04 #@! TO.C,D3*
X153440000Y-96677380D02*
X153440000Y-96010714D01*
X153440000Y-96201190D02*
X153487619Y-96105952D01*
X153535238Y-96058333D01*
X153630476Y-96010714D01*
X153725714Y-96010714D01*
X154059047Y-96677380D02*
X154059047Y-96010714D01*
X154059047Y-95677380D02*
X154011428Y-95725000D01*
X154059047Y-95772619D01*
X154106666Y-95725000D01*
X154059047Y-95677380D01*
X154059047Y-95772619D01*
X154963809Y-96010714D02*
X154963809Y-96820238D01*
X154916190Y-96915476D01*
X154868571Y-96963095D01*
X154773333Y-97010714D01*
X154630476Y-97010714D01*
X154535238Y-96963095D01*
X154963809Y-96629761D02*
X154868571Y-96677380D01*
X154678095Y-96677380D01*
X154582857Y-96629761D01*
X154535238Y-96582142D01*
X154487619Y-96486904D01*
X154487619Y-96201190D01*
X154535238Y-96105952D01*
X154582857Y-96058333D01*
X154678095Y-96010714D01*
X154868571Y-96010714D01*
X154963809Y-96058333D01*
X155440000Y-96677380D02*
X155440000Y-95677380D01*
X155868571Y-96677380D02*
X155868571Y-96153571D01*
X155820952Y-96058333D01*
X155725714Y-96010714D01*
X155582857Y-96010714D01*
X155487619Y-96058333D01*
X155440000Y-96105952D01*
X156201904Y-96010714D02*
X156582857Y-96010714D01*
X156344761Y-95677380D02*
X156344761Y-96534523D01*
X156392380Y-96629761D01*
X156487619Y-96677380D01*
X156582857Y-96677380D01*
G04 #@! TO.C,D2*
X150360095Y-96020000D02*
X150264857Y-95972380D01*
X150122000Y-95972380D01*
X149979142Y-96020000D01*
X149883904Y-96115238D01*
X149836285Y-96210476D01*
X149788666Y-96400952D01*
X149788666Y-96543809D01*
X149836285Y-96734285D01*
X149883904Y-96829523D01*
X149979142Y-96924761D01*
X150122000Y-96972380D01*
X150217238Y-96972380D01*
X150360095Y-96924761D01*
X150407714Y-96877142D01*
X150407714Y-96543809D01*
X150217238Y-96543809D01*
X151026761Y-95972380D02*
X151217238Y-95972380D01*
X151312476Y-96020000D01*
X151407714Y-96115238D01*
X151455333Y-96305714D01*
X151455333Y-96639047D01*
X151407714Y-96829523D01*
X151312476Y-96924761D01*
X151217238Y-96972380D01*
X151026761Y-96972380D01*
X150931523Y-96924761D01*
X150836285Y-96829523D01*
X150788666Y-96639047D01*
X150788666Y-96305714D01*
X150836285Y-96115238D01*
X150931523Y-96020000D01*
X151026761Y-95972380D01*
G04 #@! TO.C,D1*
X140119047Y-96652380D02*
X140023809Y-96604761D01*
X139976190Y-96509523D01*
X139976190Y-95652380D01*
X140880952Y-96604761D02*
X140785714Y-96652380D01*
X140595238Y-96652380D01*
X140500000Y-96604761D01*
X140452380Y-96509523D01*
X140452380Y-96128571D01*
X140500000Y-96033333D01*
X140595238Y-95985714D01*
X140785714Y-95985714D01*
X140880952Y-96033333D01*
X140928571Y-96128571D01*
X140928571Y-96223809D01*
X140452380Y-96319047D01*
X141214285Y-95985714D02*
X141595238Y-95985714D01*
X141357142Y-96652380D02*
X141357142Y-95795238D01*
X141404761Y-95700000D01*
X141500000Y-95652380D01*
X141595238Y-95652380D01*
X141785714Y-95985714D02*
X142166666Y-95985714D01*
X141928571Y-95652380D02*
X141928571Y-96509523D01*
X141976190Y-96604761D01*
X142071428Y-96652380D01*
X142166666Y-96652380D01*
G04 #@! TO.C,J1*
X155876666Y-105116380D02*
X155876666Y-105830666D01*
X155829047Y-105973523D01*
X155733809Y-106068761D01*
X155590952Y-106116380D01*
X155495714Y-106116380D01*
X156876666Y-106116380D02*
X156305238Y-106116380D01*
X156590952Y-106116380D02*
X156590952Y-105116380D01*
X156495714Y-105259238D01*
X156400476Y-105354476D01*
X156305238Y-105402095D01*
G04 #@! TD*
M02*
