M48
; DRILL file {KiCad 5.1.2} date Mon 10 Jun 2019 05:55:46 PM IST
; FORMAT={-:-/ absolute / metric / decimal}
; #@! TF.CreationDate,2019-06-10T17:55:46+05:30
; #@! TF.GenerationSoftware,Kicad,Pcbnew,5.1.2
; #@! TF.FileFunction,Plated,1,2,PTH
FMAT,2
METRIC
T1C0.400
T2C0.600
T3C1.000
T4C1.200
T5C1.300
%
G90
G05
T1
X57.404Y-121.158
X81.534Y-91.44
X87.376Y-84.074
X91.948Y-83.058
X94.361Y-121.285
X96.266Y-83.058
X99.4Y-114.1
X100.838Y-84.074
X103.95Y-114.1
X105.35Y-113.35
X108.585Y-121.285
X112.903Y-121.285
X113.538Y-84.074
X117.856Y-83.058
X121.92Y-83.058
X123.317Y-96.393
X124.841Y-97.028
X126.492Y-84.074
X126.492Y-121.285
X128.397Y-94.742
X129.667Y-95.631
X167.025Y-82.55
X169.6Y-73.25
X175.45Y-79.1
T2
X76.45Y-108.65
X139.925Y-107.8
T3
X177.475Y-102.85
X177.475Y-105.35
X177.475Y-107.85
X177.475Y-110.35
X169.675Y-88.4
X169.675Y-90.9
X169.675Y-93.4
X169.675Y-95.9
X177.475Y-88.4
X177.475Y-90.9
X177.475Y-93.4
X177.475Y-95.9
X88.646Y-99.314
X88.646Y-101.854
X91.186Y-99.314
X91.186Y-101.854
X93.726Y-99.314
X93.726Y-101.854
X96.266Y-99.314
X96.266Y-101.854
X98.806Y-99.314
X98.806Y-101.854
X101.346Y-99.314
X101.346Y-101.854
X103.886Y-99.314
X103.886Y-101.854
X106.426Y-99.314
X106.426Y-101.854
X108.966Y-99.314
X108.966Y-101.854
X111.506Y-99.314
X111.506Y-101.854
X114.046Y-99.314
X114.046Y-101.854
X116.586Y-99.314
X116.586Y-101.854
X119.126Y-99.314
X119.126Y-101.854
X121.666Y-99.314
X121.666Y-101.854
X124.206Y-99.314
X124.206Y-101.854
X126.746Y-99.314
X126.746Y-101.854
X129.286Y-99.314
X129.286Y-101.854
X131.826Y-99.314
X131.826Y-101.854
X134.366Y-99.314
X134.366Y-101.854
X136.906Y-99.314
X136.906Y-101.854
X169.675Y-102.85
X169.675Y-105.35
X169.675Y-107.85
X169.675Y-110.35
T4
X85.85Y-111.725
T5
X75.264Y-53.051
X80.264Y-53.051
X95.491Y-125.952
X95.491Y-138.152
X101.491Y-123.952
X107.491Y-125.952
X107.491Y-138.152
X136.638Y-53.051
X141.638Y-53.051
X146.638Y-53.051
X151.638Y-53.051
X164.55Y-53.05
X169.55Y-53.05
X39.974Y-125.952
X39.974Y-138.152
X45.974Y-123.952
X51.974Y-125.952
X51.974Y-138.152
X58.48Y-125.952
X58.48Y-138.152
X64.48Y-123.952
X70.48Y-125.952
X70.48Y-138.152
X176.7Y-53.175
X181.7Y-53.175
X132.503Y-125.952
X132.503Y-138.152
X138.503Y-123.952
X144.503Y-125.952
X144.503Y-138.152
X169.514Y-125.952
X169.514Y-138.152
X175.514Y-123.952
X181.514Y-125.952
X181.514Y-138.152
X52.832Y-150.114
X57.832Y-150.114
X62.832Y-150.114
X67.832Y-150.114
X72.832Y-150.114
X77.832Y-150.114
X82.832Y-150.114
X87.832Y-150.114
X92.832Y-150.114
X97.832Y-150.114
X102.832Y-150.114
X107.832Y-150.114
X113.997Y-125.952
X113.997Y-138.152
X119.997Y-123.952
X125.997Y-125.952
X125.997Y-138.152
X76.985Y-125.952
X76.985Y-138.152
X82.985Y-123.952
X88.985Y-125.952
X88.985Y-138.152
X113.284Y-150.114
X118.284Y-150.114
X123.284Y-150.114
X128.284Y-150.114
X133.284Y-150.114
X138.284Y-150.114
X143.284Y-150.114
X148.284Y-150.114
X153.284Y-150.114
X158.284Y-150.114
X163.284Y-150.114
X168.284Y-150.114
X86.18Y-53.051
X91.18Y-53.051
X96.18Y-53.051
X101.18Y-53.051
X106.18Y-53.051
X111.18Y-53.051
X116.18Y-53.051
X121.18Y-53.051
X126.18Y-53.051
X131.18Y-53.051
X151.008Y-125.952
X151.008Y-138.152
X157.008Y-123.952
X163.008Y-125.952
X163.008Y-138.152
T0
M30
