G04 #@! TF.GenerationSoftware,KiCad,Pcbnew,5.1.2*
G04 #@! TF.CreationDate,2019-06-10T17:55:51+05:30*
G04 #@! TF.ProjectId,openPlc_Rpi,6f70656e-506c-4635-9f52-70692e6b6963,rev?*
G04 #@! TF.SameCoordinates,Original*
G04 #@! TF.FileFunction,Soldermask,Bot*
G04 #@! TF.FilePolarity,Negative*
%FSLAX46Y46*%
G04 Gerber Fmt 4.6, Leading zero omitted, Abs format (unit mm)*
G04 Created by KiCad (PCBNEW 5.1.2) date 2019-06-10 17:55:51*
%MOMM*%
%LPD*%
G04 APERTURE LIST*
%ADD10C,0.100000*%
G04 APERTURE END LIST*
D10*
G36*
X58196610Y-148912036D02*
G01*
X58424095Y-149006264D01*
X58424097Y-149006265D01*
X58628828Y-149143062D01*
X58802938Y-149317172D01*
X58939736Y-149521905D01*
X59033964Y-149749390D01*
X59082000Y-149990884D01*
X59082000Y-150237116D01*
X59033964Y-150478610D01*
X58939736Y-150706095D01*
X58939735Y-150706097D01*
X58802938Y-150910828D01*
X58628828Y-151084938D01*
X58424097Y-151221735D01*
X58424096Y-151221736D01*
X58424095Y-151221736D01*
X58196610Y-151315964D01*
X57955116Y-151364000D01*
X57708884Y-151364000D01*
X57467390Y-151315964D01*
X57239905Y-151221736D01*
X57239904Y-151221736D01*
X57239903Y-151221735D01*
X57035172Y-151084938D01*
X56861062Y-150910828D01*
X56724265Y-150706097D01*
X56724264Y-150706095D01*
X56630036Y-150478610D01*
X56582000Y-150237116D01*
X56582000Y-149990884D01*
X56630036Y-149749390D01*
X56724264Y-149521905D01*
X56861062Y-149317172D01*
X57035172Y-149143062D01*
X57239903Y-149006265D01*
X57239905Y-149006264D01*
X57467390Y-148912036D01*
X57708884Y-148864000D01*
X57955116Y-148864000D01*
X58196610Y-148912036D01*
X58196610Y-148912036D01*
G37*
G36*
X148648610Y-148912036D02*
G01*
X148876095Y-149006264D01*
X148876097Y-149006265D01*
X149080828Y-149143062D01*
X149254938Y-149317172D01*
X149391736Y-149521905D01*
X149485964Y-149749390D01*
X149534000Y-149990884D01*
X149534000Y-150237116D01*
X149485964Y-150478610D01*
X149391736Y-150706095D01*
X149391735Y-150706097D01*
X149254938Y-150910828D01*
X149080828Y-151084938D01*
X148876097Y-151221735D01*
X148876096Y-151221736D01*
X148876095Y-151221736D01*
X148648610Y-151315964D01*
X148407116Y-151364000D01*
X148160884Y-151364000D01*
X147919390Y-151315964D01*
X147691905Y-151221736D01*
X147691904Y-151221736D01*
X147691903Y-151221735D01*
X147487172Y-151084938D01*
X147313062Y-150910828D01*
X147176265Y-150706097D01*
X147176264Y-150706095D01*
X147082036Y-150478610D01*
X147034000Y-150237116D01*
X147034000Y-149990884D01*
X147082036Y-149749390D01*
X147176264Y-149521905D01*
X147313062Y-149317172D01*
X147487172Y-149143062D01*
X147691903Y-149006265D01*
X147691905Y-149006264D01*
X147919390Y-148912036D01*
X148160884Y-148864000D01*
X148407116Y-148864000D01*
X148648610Y-148912036D01*
X148648610Y-148912036D01*
G37*
G36*
X78196610Y-148912036D02*
G01*
X78424095Y-149006264D01*
X78424097Y-149006265D01*
X78628828Y-149143062D01*
X78802938Y-149317172D01*
X78939736Y-149521905D01*
X79033964Y-149749390D01*
X79082000Y-149990884D01*
X79082000Y-150237116D01*
X79033964Y-150478610D01*
X78939736Y-150706095D01*
X78939735Y-150706097D01*
X78802938Y-150910828D01*
X78628828Y-151084938D01*
X78424097Y-151221735D01*
X78424096Y-151221736D01*
X78424095Y-151221736D01*
X78196610Y-151315964D01*
X77955116Y-151364000D01*
X77708884Y-151364000D01*
X77467390Y-151315964D01*
X77239905Y-151221736D01*
X77239904Y-151221736D01*
X77239903Y-151221735D01*
X77035172Y-151084938D01*
X76861062Y-150910828D01*
X76724265Y-150706097D01*
X76724264Y-150706095D01*
X76630036Y-150478610D01*
X76582000Y-150237116D01*
X76582000Y-149990884D01*
X76630036Y-149749390D01*
X76724264Y-149521905D01*
X76861062Y-149317172D01*
X77035172Y-149143062D01*
X77239903Y-149006265D01*
X77239905Y-149006264D01*
X77467390Y-148912036D01*
X77708884Y-148864000D01*
X77955116Y-148864000D01*
X78196610Y-148912036D01*
X78196610Y-148912036D01*
G37*
G36*
X168648610Y-148912036D02*
G01*
X168876095Y-149006264D01*
X168876097Y-149006265D01*
X169080828Y-149143062D01*
X169254938Y-149317172D01*
X169391736Y-149521905D01*
X169485964Y-149749390D01*
X169534000Y-149990884D01*
X169534000Y-150237116D01*
X169485964Y-150478610D01*
X169391736Y-150706095D01*
X169391735Y-150706097D01*
X169254938Y-150910828D01*
X169080828Y-151084938D01*
X168876097Y-151221735D01*
X168876096Y-151221736D01*
X168876095Y-151221736D01*
X168648610Y-151315964D01*
X168407116Y-151364000D01*
X168160884Y-151364000D01*
X167919390Y-151315964D01*
X167691905Y-151221736D01*
X167691904Y-151221736D01*
X167691903Y-151221735D01*
X167487172Y-151084938D01*
X167313062Y-150910828D01*
X167176265Y-150706097D01*
X167176264Y-150706095D01*
X167082036Y-150478610D01*
X167034000Y-150237116D01*
X167034000Y-149990884D01*
X167082036Y-149749390D01*
X167176264Y-149521905D01*
X167313062Y-149317172D01*
X167487172Y-149143062D01*
X167691903Y-149006265D01*
X167691905Y-149006264D01*
X167919390Y-148912036D01*
X168160884Y-148864000D01*
X168407116Y-148864000D01*
X168648610Y-148912036D01*
X168648610Y-148912036D01*
G37*
G36*
X83196610Y-148912036D02*
G01*
X83424095Y-149006264D01*
X83424097Y-149006265D01*
X83628828Y-149143062D01*
X83802938Y-149317172D01*
X83939736Y-149521905D01*
X84033964Y-149749390D01*
X84082000Y-149990884D01*
X84082000Y-150237116D01*
X84033964Y-150478610D01*
X83939736Y-150706095D01*
X83939735Y-150706097D01*
X83802938Y-150910828D01*
X83628828Y-151084938D01*
X83424097Y-151221735D01*
X83424096Y-151221736D01*
X83424095Y-151221736D01*
X83196610Y-151315964D01*
X82955116Y-151364000D01*
X82708884Y-151364000D01*
X82467390Y-151315964D01*
X82239905Y-151221736D01*
X82239904Y-151221736D01*
X82239903Y-151221735D01*
X82035172Y-151084938D01*
X81861062Y-150910828D01*
X81724265Y-150706097D01*
X81724264Y-150706095D01*
X81630036Y-150478610D01*
X81582000Y-150237116D01*
X81582000Y-149990884D01*
X81630036Y-149749390D01*
X81724264Y-149521905D01*
X81861062Y-149317172D01*
X82035172Y-149143062D01*
X82239903Y-149006265D01*
X82239905Y-149006264D01*
X82467390Y-148912036D01*
X82708884Y-148864000D01*
X82955116Y-148864000D01*
X83196610Y-148912036D01*
X83196610Y-148912036D01*
G37*
G36*
X88196610Y-148912036D02*
G01*
X88424095Y-149006264D01*
X88424097Y-149006265D01*
X88628828Y-149143062D01*
X88802938Y-149317172D01*
X88939736Y-149521905D01*
X89033964Y-149749390D01*
X89082000Y-149990884D01*
X89082000Y-150237116D01*
X89033964Y-150478610D01*
X88939736Y-150706095D01*
X88939735Y-150706097D01*
X88802938Y-150910828D01*
X88628828Y-151084938D01*
X88424097Y-151221735D01*
X88424096Y-151221736D01*
X88424095Y-151221736D01*
X88196610Y-151315964D01*
X87955116Y-151364000D01*
X87708884Y-151364000D01*
X87467390Y-151315964D01*
X87239905Y-151221736D01*
X87239904Y-151221736D01*
X87239903Y-151221735D01*
X87035172Y-151084938D01*
X86861062Y-150910828D01*
X86724265Y-150706097D01*
X86724264Y-150706095D01*
X86630036Y-150478610D01*
X86582000Y-150237116D01*
X86582000Y-149990884D01*
X86630036Y-149749390D01*
X86724264Y-149521905D01*
X86861062Y-149317172D01*
X87035172Y-149143062D01*
X87239903Y-149006265D01*
X87239905Y-149006264D01*
X87467390Y-148912036D01*
X87708884Y-148864000D01*
X87955116Y-148864000D01*
X88196610Y-148912036D01*
X88196610Y-148912036D01*
G37*
G36*
X93196610Y-148912036D02*
G01*
X93424095Y-149006264D01*
X93424097Y-149006265D01*
X93628828Y-149143062D01*
X93802938Y-149317172D01*
X93939736Y-149521905D01*
X94033964Y-149749390D01*
X94082000Y-149990884D01*
X94082000Y-150237116D01*
X94033964Y-150478610D01*
X93939736Y-150706095D01*
X93939735Y-150706097D01*
X93802938Y-150910828D01*
X93628828Y-151084938D01*
X93424097Y-151221735D01*
X93424096Y-151221736D01*
X93424095Y-151221736D01*
X93196610Y-151315964D01*
X92955116Y-151364000D01*
X92708884Y-151364000D01*
X92467390Y-151315964D01*
X92239905Y-151221736D01*
X92239904Y-151221736D01*
X92239903Y-151221735D01*
X92035172Y-151084938D01*
X91861062Y-150910828D01*
X91724265Y-150706097D01*
X91724264Y-150706095D01*
X91630036Y-150478610D01*
X91582000Y-150237116D01*
X91582000Y-149990884D01*
X91630036Y-149749390D01*
X91724264Y-149521905D01*
X91861062Y-149317172D01*
X92035172Y-149143062D01*
X92239903Y-149006265D01*
X92239905Y-149006264D01*
X92467390Y-148912036D01*
X92708884Y-148864000D01*
X92955116Y-148864000D01*
X93196610Y-148912036D01*
X93196610Y-148912036D01*
G37*
G36*
X98196610Y-148912036D02*
G01*
X98424095Y-149006264D01*
X98424097Y-149006265D01*
X98628828Y-149143062D01*
X98802938Y-149317172D01*
X98939736Y-149521905D01*
X99033964Y-149749390D01*
X99082000Y-149990884D01*
X99082000Y-150237116D01*
X99033964Y-150478610D01*
X98939736Y-150706095D01*
X98939735Y-150706097D01*
X98802938Y-150910828D01*
X98628828Y-151084938D01*
X98424097Y-151221735D01*
X98424096Y-151221736D01*
X98424095Y-151221736D01*
X98196610Y-151315964D01*
X97955116Y-151364000D01*
X97708884Y-151364000D01*
X97467390Y-151315964D01*
X97239905Y-151221736D01*
X97239904Y-151221736D01*
X97239903Y-151221735D01*
X97035172Y-151084938D01*
X96861062Y-150910828D01*
X96724265Y-150706097D01*
X96724264Y-150706095D01*
X96630036Y-150478610D01*
X96582000Y-150237116D01*
X96582000Y-149990884D01*
X96630036Y-149749390D01*
X96724264Y-149521905D01*
X96861062Y-149317172D01*
X97035172Y-149143062D01*
X97239903Y-149006265D01*
X97239905Y-149006264D01*
X97467390Y-148912036D01*
X97708884Y-148864000D01*
X97955116Y-148864000D01*
X98196610Y-148912036D01*
X98196610Y-148912036D01*
G37*
G36*
X103196610Y-148912036D02*
G01*
X103424095Y-149006264D01*
X103424097Y-149006265D01*
X103628828Y-149143062D01*
X103802938Y-149317172D01*
X103939736Y-149521905D01*
X104033964Y-149749390D01*
X104082000Y-149990884D01*
X104082000Y-150237116D01*
X104033964Y-150478610D01*
X103939736Y-150706095D01*
X103939735Y-150706097D01*
X103802938Y-150910828D01*
X103628828Y-151084938D01*
X103424097Y-151221735D01*
X103424096Y-151221736D01*
X103424095Y-151221736D01*
X103196610Y-151315964D01*
X102955116Y-151364000D01*
X102708884Y-151364000D01*
X102467390Y-151315964D01*
X102239905Y-151221736D01*
X102239904Y-151221736D01*
X102239903Y-151221735D01*
X102035172Y-151084938D01*
X101861062Y-150910828D01*
X101724265Y-150706097D01*
X101724264Y-150706095D01*
X101630036Y-150478610D01*
X101582000Y-150237116D01*
X101582000Y-149990884D01*
X101630036Y-149749390D01*
X101724264Y-149521905D01*
X101861062Y-149317172D01*
X102035172Y-149143062D01*
X102239903Y-149006265D01*
X102239905Y-149006264D01*
X102467390Y-148912036D01*
X102708884Y-148864000D01*
X102955116Y-148864000D01*
X103196610Y-148912036D01*
X103196610Y-148912036D01*
G37*
G36*
X108196610Y-148912036D02*
G01*
X108424095Y-149006264D01*
X108424097Y-149006265D01*
X108628828Y-149143062D01*
X108802938Y-149317172D01*
X108939736Y-149521905D01*
X109033964Y-149749390D01*
X109082000Y-149990884D01*
X109082000Y-150237116D01*
X109033964Y-150478610D01*
X108939736Y-150706095D01*
X108939735Y-150706097D01*
X108802938Y-150910828D01*
X108628828Y-151084938D01*
X108424097Y-151221735D01*
X108424096Y-151221736D01*
X108424095Y-151221736D01*
X108196610Y-151315964D01*
X107955116Y-151364000D01*
X107708884Y-151364000D01*
X107467390Y-151315964D01*
X107239905Y-151221736D01*
X107239904Y-151221736D01*
X107239903Y-151221735D01*
X107035172Y-151084938D01*
X106861062Y-150910828D01*
X106724265Y-150706097D01*
X106724264Y-150706095D01*
X106630036Y-150478610D01*
X106582000Y-150237116D01*
X106582000Y-149990884D01*
X106630036Y-149749390D01*
X106724264Y-149521905D01*
X106861062Y-149317172D01*
X107035172Y-149143062D01*
X107239903Y-149006265D01*
X107239905Y-149006264D01*
X107467390Y-148912036D01*
X107708884Y-148864000D01*
X107955116Y-148864000D01*
X108196610Y-148912036D01*
X108196610Y-148912036D01*
G37*
G36*
X158648610Y-148912036D02*
G01*
X158876095Y-149006264D01*
X158876097Y-149006265D01*
X159080828Y-149143062D01*
X159254938Y-149317172D01*
X159391736Y-149521905D01*
X159485964Y-149749390D01*
X159534000Y-149990884D01*
X159534000Y-150237116D01*
X159485964Y-150478610D01*
X159391736Y-150706095D01*
X159391735Y-150706097D01*
X159254938Y-150910828D01*
X159080828Y-151084938D01*
X158876097Y-151221735D01*
X158876096Y-151221736D01*
X158876095Y-151221736D01*
X158648610Y-151315964D01*
X158407116Y-151364000D01*
X158160884Y-151364000D01*
X157919390Y-151315964D01*
X157691905Y-151221736D01*
X157691904Y-151221736D01*
X157691903Y-151221735D01*
X157487172Y-151084938D01*
X157313062Y-150910828D01*
X157176265Y-150706097D01*
X157176264Y-150706095D01*
X157082036Y-150478610D01*
X157034000Y-150237116D01*
X157034000Y-149990884D01*
X157082036Y-149749390D01*
X157176264Y-149521905D01*
X157313062Y-149317172D01*
X157487172Y-149143062D01*
X157691903Y-149006265D01*
X157691905Y-149006264D01*
X157919390Y-148912036D01*
X158160884Y-148864000D01*
X158407116Y-148864000D01*
X158648610Y-148912036D01*
X158648610Y-148912036D01*
G37*
G36*
X153648610Y-148912036D02*
G01*
X153876095Y-149006264D01*
X153876097Y-149006265D01*
X154080828Y-149143062D01*
X154254938Y-149317172D01*
X154391736Y-149521905D01*
X154485964Y-149749390D01*
X154534000Y-149990884D01*
X154534000Y-150237116D01*
X154485964Y-150478610D01*
X154391736Y-150706095D01*
X154391735Y-150706097D01*
X154254938Y-150910828D01*
X154080828Y-151084938D01*
X153876097Y-151221735D01*
X153876096Y-151221736D01*
X153876095Y-151221736D01*
X153648610Y-151315964D01*
X153407116Y-151364000D01*
X153160884Y-151364000D01*
X152919390Y-151315964D01*
X152691905Y-151221736D01*
X152691904Y-151221736D01*
X152691903Y-151221735D01*
X152487172Y-151084938D01*
X152313062Y-150910828D01*
X152176265Y-150706097D01*
X152176264Y-150706095D01*
X152082036Y-150478610D01*
X152034000Y-150237116D01*
X152034000Y-149990884D01*
X152082036Y-149749390D01*
X152176264Y-149521905D01*
X152313062Y-149317172D01*
X152487172Y-149143062D01*
X152691903Y-149006265D01*
X152691905Y-149006264D01*
X152919390Y-148912036D01*
X153160884Y-148864000D01*
X153407116Y-148864000D01*
X153648610Y-148912036D01*
X153648610Y-148912036D01*
G37*
G36*
X163648610Y-148912036D02*
G01*
X163876095Y-149006264D01*
X163876097Y-149006265D01*
X164080828Y-149143062D01*
X164254938Y-149317172D01*
X164391736Y-149521905D01*
X164485964Y-149749390D01*
X164534000Y-149990884D01*
X164534000Y-150237116D01*
X164485964Y-150478610D01*
X164391736Y-150706095D01*
X164391735Y-150706097D01*
X164254938Y-150910828D01*
X164080828Y-151084938D01*
X163876097Y-151221735D01*
X163876096Y-151221736D01*
X163876095Y-151221736D01*
X163648610Y-151315964D01*
X163407116Y-151364000D01*
X163160884Y-151364000D01*
X162919390Y-151315964D01*
X162691905Y-151221736D01*
X162691904Y-151221736D01*
X162691903Y-151221735D01*
X162487172Y-151084938D01*
X162313062Y-150910828D01*
X162176265Y-150706097D01*
X162176264Y-150706095D01*
X162082036Y-150478610D01*
X162034000Y-150237116D01*
X162034000Y-149990884D01*
X162082036Y-149749390D01*
X162176264Y-149521905D01*
X162313062Y-149317172D01*
X162487172Y-149143062D01*
X162691903Y-149006265D01*
X162691905Y-149006264D01*
X162919390Y-148912036D01*
X163160884Y-148864000D01*
X163407116Y-148864000D01*
X163648610Y-148912036D01*
X163648610Y-148912036D01*
G37*
G36*
X138648610Y-148912036D02*
G01*
X138876095Y-149006264D01*
X138876097Y-149006265D01*
X139080828Y-149143062D01*
X139254938Y-149317172D01*
X139391736Y-149521905D01*
X139485964Y-149749390D01*
X139534000Y-149990884D01*
X139534000Y-150237116D01*
X139485964Y-150478610D01*
X139391736Y-150706095D01*
X139391735Y-150706097D01*
X139254938Y-150910828D01*
X139080828Y-151084938D01*
X138876097Y-151221735D01*
X138876096Y-151221736D01*
X138876095Y-151221736D01*
X138648610Y-151315964D01*
X138407116Y-151364000D01*
X138160884Y-151364000D01*
X137919390Y-151315964D01*
X137691905Y-151221736D01*
X137691904Y-151221736D01*
X137691903Y-151221735D01*
X137487172Y-151084938D01*
X137313062Y-150910828D01*
X137176265Y-150706097D01*
X137176264Y-150706095D01*
X137082036Y-150478610D01*
X137034000Y-150237116D01*
X137034000Y-149990884D01*
X137082036Y-149749390D01*
X137176264Y-149521905D01*
X137313062Y-149317172D01*
X137487172Y-149143062D01*
X137691903Y-149006265D01*
X137691905Y-149006264D01*
X137919390Y-148912036D01*
X138160884Y-148864000D01*
X138407116Y-148864000D01*
X138648610Y-148912036D01*
X138648610Y-148912036D01*
G37*
G36*
X143648610Y-148912036D02*
G01*
X143876095Y-149006264D01*
X143876097Y-149006265D01*
X144080828Y-149143062D01*
X144254938Y-149317172D01*
X144391736Y-149521905D01*
X144485964Y-149749390D01*
X144534000Y-149990884D01*
X144534000Y-150237116D01*
X144485964Y-150478610D01*
X144391736Y-150706095D01*
X144391735Y-150706097D01*
X144254938Y-150910828D01*
X144080828Y-151084938D01*
X143876097Y-151221735D01*
X143876096Y-151221736D01*
X143876095Y-151221736D01*
X143648610Y-151315964D01*
X143407116Y-151364000D01*
X143160884Y-151364000D01*
X142919390Y-151315964D01*
X142691905Y-151221736D01*
X142691904Y-151221736D01*
X142691903Y-151221735D01*
X142487172Y-151084938D01*
X142313062Y-150910828D01*
X142176265Y-150706097D01*
X142176264Y-150706095D01*
X142082036Y-150478610D01*
X142034000Y-150237116D01*
X142034000Y-149990884D01*
X142082036Y-149749390D01*
X142176264Y-149521905D01*
X142313062Y-149317172D01*
X142487172Y-149143062D01*
X142691903Y-149006265D01*
X142691905Y-149006264D01*
X142919390Y-148912036D01*
X143160884Y-148864000D01*
X143407116Y-148864000D01*
X143648610Y-148912036D01*
X143648610Y-148912036D01*
G37*
G36*
X54082000Y-151364000D02*
G01*
X51582000Y-151364000D01*
X51582000Y-148864000D01*
X54082000Y-148864000D01*
X54082000Y-151364000D01*
X54082000Y-151364000D01*
G37*
G36*
X63196610Y-148912036D02*
G01*
X63424095Y-149006264D01*
X63424097Y-149006265D01*
X63628828Y-149143062D01*
X63802938Y-149317172D01*
X63939736Y-149521905D01*
X64033964Y-149749390D01*
X64082000Y-149990884D01*
X64082000Y-150237116D01*
X64033964Y-150478610D01*
X63939736Y-150706095D01*
X63939735Y-150706097D01*
X63802938Y-150910828D01*
X63628828Y-151084938D01*
X63424097Y-151221735D01*
X63424096Y-151221736D01*
X63424095Y-151221736D01*
X63196610Y-151315964D01*
X62955116Y-151364000D01*
X62708884Y-151364000D01*
X62467390Y-151315964D01*
X62239905Y-151221736D01*
X62239904Y-151221736D01*
X62239903Y-151221735D01*
X62035172Y-151084938D01*
X61861062Y-150910828D01*
X61724265Y-150706097D01*
X61724264Y-150706095D01*
X61630036Y-150478610D01*
X61582000Y-150237116D01*
X61582000Y-149990884D01*
X61630036Y-149749390D01*
X61724264Y-149521905D01*
X61861062Y-149317172D01*
X62035172Y-149143062D01*
X62239903Y-149006265D01*
X62239905Y-149006264D01*
X62467390Y-148912036D01*
X62708884Y-148864000D01*
X62955116Y-148864000D01*
X63196610Y-148912036D01*
X63196610Y-148912036D01*
G37*
G36*
X68196610Y-148912036D02*
G01*
X68424095Y-149006264D01*
X68424097Y-149006265D01*
X68628828Y-149143062D01*
X68802938Y-149317172D01*
X68939736Y-149521905D01*
X69033964Y-149749390D01*
X69082000Y-149990884D01*
X69082000Y-150237116D01*
X69033964Y-150478610D01*
X68939736Y-150706095D01*
X68939735Y-150706097D01*
X68802938Y-150910828D01*
X68628828Y-151084938D01*
X68424097Y-151221735D01*
X68424096Y-151221736D01*
X68424095Y-151221736D01*
X68196610Y-151315964D01*
X67955116Y-151364000D01*
X67708884Y-151364000D01*
X67467390Y-151315964D01*
X67239905Y-151221736D01*
X67239904Y-151221736D01*
X67239903Y-151221735D01*
X67035172Y-151084938D01*
X66861062Y-150910828D01*
X66724265Y-150706097D01*
X66724264Y-150706095D01*
X66630036Y-150478610D01*
X66582000Y-150237116D01*
X66582000Y-149990884D01*
X66630036Y-149749390D01*
X66724264Y-149521905D01*
X66861062Y-149317172D01*
X67035172Y-149143062D01*
X67239903Y-149006265D01*
X67239905Y-149006264D01*
X67467390Y-148912036D01*
X67708884Y-148864000D01*
X67955116Y-148864000D01*
X68196610Y-148912036D01*
X68196610Y-148912036D01*
G37*
G36*
X73196610Y-148912036D02*
G01*
X73424095Y-149006264D01*
X73424097Y-149006265D01*
X73628828Y-149143062D01*
X73802938Y-149317172D01*
X73939736Y-149521905D01*
X74033964Y-149749390D01*
X74082000Y-149990884D01*
X74082000Y-150237116D01*
X74033964Y-150478610D01*
X73939736Y-150706095D01*
X73939735Y-150706097D01*
X73802938Y-150910828D01*
X73628828Y-151084938D01*
X73424097Y-151221735D01*
X73424096Y-151221736D01*
X73424095Y-151221736D01*
X73196610Y-151315964D01*
X72955116Y-151364000D01*
X72708884Y-151364000D01*
X72467390Y-151315964D01*
X72239905Y-151221736D01*
X72239904Y-151221736D01*
X72239903Y-151221735D01*
X72035172Y-151084938D01*
X71861062Y-150910828D01*
X71724265Y-150706097D01*
X71724264Y-150706095D01*
X71630036Y-150478610D01*
X71582000Y-150237116D01*
X71582000Y-149990884D01*
X71630036Y-149749390D01*
X71724264Y-149521905D01*
X71861062Y-149317172D01*
X72035172Y-149143062D01*
X72239903Y-149006265D01*
X72239905Y-149006264D01*
X72467390Y-148912036D01*
X72708884Y-148864000D01*
X72955116Y-148864000D01*
X73196610Y-148912036D01*
X73196610Y-148912036D01*
G37*
G36*
X118648610Y-148912036D02*
G01*
X118876095Y-149006264D01*
X118876097Y-149006265D01*
X119080828Y-149143062D01*
X119254938Y-149317172D01*
X119391736Y-149521905D01*
X119485964Y-149749390D01*
X119534000Y-149990884D01*
X119534000Y-150237116D01*
X119485964Y-150478610D01*
X119391736Y-150706095D01*
X119391735Y-150706097D01*
X119254938Y-150910828D01*
X119080828Y-151084938D01*
X118876097Y-151221735D01*
X118876096Y-151221736D01*
X118876095Y-151221736D01*
X118648610Y-151315964D01*
X118407116Y-151364000D01*
X118160884Y-151364000D01*
X117919390Y-151315964D01*
X117691905Y-151221736D01*
X117691904Y-151221736D01*
X117691903Y-151221735D01*
X117487172Y-151084938D01*
X117313062Y-150910828D01*
X117176265Y-150706097D01*
X117176264Y-150706095D01*
X117082036Y-150478610D01*
X117034000Y-150237116D01*
X117034000Y-149990884D01*
X117082036Y-149749390D01*
X117176264Y-149521905D01*
X117313062Y-149317172D01*
X117487172Y-149143062D01*
X117691903Y-149006265D01*
X117691905Y-149006264D01*
X117919390Y-148912036D01*
X118160884Y-148864000D01*
X118407116Y-148864000D01*
X118648610Y-148912036D01*
X118648610Y-148912036D01*
G37*
G36*
X114534000Y-151364000D02*
G01*
X112034000Y-151364000D01*
X112034000Y-148864000D01*
X114534000Y-148864000D01*
X114534000Y-151364000D01*
X114534000Y-151364000D01*
G37*
G36*
X123648610Y-148912036D02*
G01*
X123876095Y-149006264D01*
X123876097Y-149006265D01*
X124080828Y-149143062D01*
X124254938Y-149317172D01*
X124391736Y-149521905D01*
X124485964Y-149749390D01*
X124534000Y-149990884D01*
X124534000Y-150237116D01*
X124485964Y-150478610D01*
X124391736Y-150706095D01*
X124391735Y-150706097D01*
X124254938Y-150910828D01*
X124080828Y-151084938D01*
X123876097Y-151221735D01*
X123876096Y-151221736D01*
X123876095Y-151221736D01*
X123648610Y-151315964D01*
X123407116Y-151364000D01*
X123160884Y-151364000D01*
X122919390Y-151315964D01*
X122691905Y-151221736D01*
X122691904Y-151221736D01*
X122691903Y-151221735D01*
X122487172Y-151084938D01*
X122313062Y-150910828D01*
X122176265Y-150706097D01*
X122176264Y-150706095D01*
X122082036Y-150478610D01*
X122034000Y-150237116D01*
X122034000Y-149990884D01*
X122082036Y-149749390D01*
X122176264Y-149521905D01*
X122313062Y-149317172D01*
X122487172Y-149143062D01*
X122691903Y-149006265D01*
X122691905Y-149006264D01*
X122919390Y-148912036D01*
X123160884Y-148864000D01*
X123407116Y-148864000D01*
X123648610Y-148912036D01*
X123648610Y-148912036D01*
G37*
G36*
X128648610Y-148912036D02*
G01*
X128876095Y-149006264D01*
X128876097Y-149006265D01*
X129080828Y-149143062D01*
X129254938Y-149317172D01*
X129391736Y-149521905D01*
X129485964Y-149749390D01*
X129534000Y-149990884D01*
X129534000Y-150237116D01*
X129485964Y-150478610D01*
X129391736Y-150706095D01*
X129391735Y-150706097D01*
X129254938Y-150910828D01*
X129080828Y-151084938D01*
X128876097Y-151221735D01*
X128876096Y-151221736D01*
X128876095Y-151221736D01*
X128648610Y-151315964D01*
X128407116Y-151364000D01*
X128160884Y-151364000D01*
X127919390Y-151315964D01*
X127691905Y-151221736D01*
X127691904Y-151221736D01*
X127691903Y-151221735D01*
X127487172Y-151084938D01*
X127313062Y-150910828D01*
X127176265Y-150706097D01*
X127176264Y-150706095D01*
X127082036Y-150478610D01*
X127034000Y-150237116D01*
X127034000Y-149990884D01*
X127082036Y-149749390D01*
X127176264Y-149521905D01*
X127313062Y-149317172D01*
X127487172Y-149143062D01*
X127691903Y-149006265D01*
X127691905Y-149006264D01*
X127919390Y-148912036D01*
X128160884Y-148864000D01*
X128407116Y-148864000D01*
X128648610Y-148912036D01*
X128648610Y-148912036D01*
G37*
G36*
X133648610Y-148912036D02*
G01*
X133876095Y-149006264D01*
X133876097Y-149006265D01*
X134080828Y-149143062D01*
X134254938Y-149317172D01*
X134391736Y-149521905D01*
X134485964Y-149749390D01*
X134534000Y-149990884D01*
X134534000Y-150237116D01*
X134485964Y-150478610D01*
X134391736Y-150706095D01*
X134391735Y-150706097D01*
X134254938Y-150910828D01*
X134080828Y-151084938D01*
X133876097Y-151221735D01*
X133876096Y-151221736D01*
X133876095Y-151221736D01*
X133648610Y-151315964D01*
X133407116Y-151364000D01*
X133160884Y-151364000D01*
X132919390Y-151315964D01*
X132691905Y-151221736D01*
X132691904Y-151221736D01*
X132691903Y-151221735D01*
X132487172Y-151084938D01*
X132313062Y-150910828D01*
X132176265Y-150706097D01*
X132176264Y-150706095D01*
X132082036Y-150478610D01*
X132034000Y-150237116D01*
X132034000Y-149990884D01*
X132082036Y-149749390D01*
X132176264Y-149521905D01*
X132313062Y-149317172D01*
X132487172Y-149143062D01*
X132691903Y-149006265D01*
X132691905Y-149006264D01*
X132919390Y-148912036D01*
X133160884Y-148864000D01*
X133407116Y-148864000D01*
X133648610Y-148912036D01*
X133648610Y-148912036D01*
G37*
G36*
X70724755Y-136920086D02*
G01*
X70842570Y-136955825D01*
X70960383Y-136991563D01*
X70960385Y-136991564D01*
X71177536Y-137107633D01*
X71367874Y-137263840D01*
X71524081Y-137454178D01*
X71640150Y-137671329D01*
X71711628Y-137906959D01*
X71735762Y-138152000D01*
X71711628Y-138397041D01*
X71640150Y-138632671D01*
X71524081Y-138849822D01*
X71367874Y-139040160D01*
X71177536Y-139196367D01*
X70960385Y-139312436D01*
X70960383Y-139312437D01*
X70842570Y-139348175D01*
X70724755Y-139383914D01*
X70541123Y-139402000D01*
X70418305Y-139402000D01*
X70234673Y-139383914D01*
X70116858Y-139348175D01*
X69999045Y-139312437D01*
X69999043Y-139312436D01*
X69781892Y-139196367D01*
X69591554Y-139040160D01*
X69435347Y-138849822D01*
X69319278Y-138632671D01*
X69247800Y-138397041D01*
X69223666Y-138152000D01*
X69247800Y-137906959D01*
X69319278Y-137671329D01*
X69435347Y-137454178D01*
X69591554Y-137263840D01*
X69781892Y-137107633D01*
X69999043Y-136991564D01*
X69999045Y-136991563D01*
X70116858Y-136955825D01*
X70234673Y-136920086D01*
X70418305Y-136902000D01*
X70541123Y-136902000D01*
X70724755Y-136920086D01*
X70724755Y-136920086D01*
G37*
G36*
X163253325Y-136920086D02*
G01*
X163371140Y-136955825D01*
X163488953Y-136991563D01*
X163488955Y-136991564D01*
X163706106Y-137107633D01*
X163896444Y-137263840D01*
X164052651Y-137454178D01*
X164168720Y-137671329D01*
X164240198Y-137906959D01*
X164264332Y-138152000D01*
X164240198Y-138397041D01*
X164168720Y-138632671D01*
X164052651Y-138849822D01*
X163896444Y-139040160D01*
X163706106Y-139196367D01*
X163488955Y-139312436D01*
X163488953Y-139312437D01*
X163371140Y-139348175D01*
X163253325Y-139383914D01*
X163069693Y-139402000D01*
X162946875Y-139402000D01*
X162763243Y-139383914D01*
X162645428Y-139348175D01*
X162527615Y-139312437D01*
X162527613Y-139312436D01*
X162310462Y-139196367D01*
X162120124Y-139040160D01*
X161963917Y-138849822D01*
X161847848Y-138632671D01*
X161776370Y-138397041D01*
X161752236Y-138152000D01*
X161776370Y-137906959D01*
X161847848Y-137671329D01*
X161963917Y-137454178D01*
X162120124Y-137263840D01*
X162310462Y-137107633D01*
X162527613Y-136991564D01*
X162527615Y-136991563D01*
X162645428Y-136955825D01*
X162763243Y-136920086D01*
X162946875Y-136902000D01*
X163069693Y-136902000D01*
X163253325Y-136920086D01*
X163253325Y-136920086D01*
G37*
G36*
X95736183Y-136920086D02*
G01*
X95853998Y-136955825D01*
X95971811Y-136991563D01*
X95971813Y-136991564D01*
X96188964Y-137107633D01*
X96379302Y-137263840D01*
X96535509Y-137454178D01*
X96651578Y-137671329D01*
X96723056Y-137906959D01*
X96747190Y-138152000D01*
X96723056Y-138397041D01*
X96651578Y-138632671D01*
X96535509Y-138849822D01*
X96379302Y-139040160D01*
X96188964Y-139196367D01*
X95971813Y-139312436D01*
X95971811Y-139312437D01*
X95853998Y-139348175D01*
X95736183Y-139383914D01*
X95552551Y-139402000D01*
X95429733Y-139402000D01*
X95246101Y-139383914D01*
X95128286Y-139348175D01*
X95010473Y-139312437D01*
X95010471Y-139312436D01*
X94793320Y-139196367D01*
X94602982Y-139040160D01*
X94446775Y-138849822D01*
X94330706Y-138632671D01*
X94259228Y-138397041D01*
X94235094Y-138152000D01*
X94259228Y-137906959D01*
X94330706Y-137671329D01*
X94446775Y-137454178D01*
X94602982Y-137263840D01*
X94793320Y-137107633D01*
X95010471Y-136991564D01*
X95010473Y-136991563D01*
X95128286Y-136955825D01*
X95246101Y-136920086D01*
X95429733Y-136902000D01*
X95552551Y-136902000D01*
X95736183Y-136920086D01*
X95736183Y-136920086D01*
G37*
G36*
X107736183Y-136920086D02*
G01*
X107853998Y-136955825D01*
X107971811Y-136991563D01*
X107971813Y-136991564D01*
X108188964Y-137107633D01*
X108379302Y-137263840D01*
X108535509Y-137454178D01*
X108651578Y-137671329D01*
X108723056Y-137906959D01*
X108747190Y-138152000D01*
X108723056Y-138397041D01*
X108651578Y-138632671D01*
X108535509Y-138849822D01*
X108379302Y-139040160D01*
X108188964Y-139196367D01*
X107971813Y-139312436D01*
X107971811Y-139312437D01*
X107853998Y-139348175D01*
X107736183Y-139383914D01*
X107552551Y-139402000D01*
X107429733Y-139402000D01*
X107246101Y-139383914D01*
X107128286Y-139348175D01*
X107010473Y-139312437D01*
X107010471Y-139312436D01*
X106793320Y-139196367D01*
X106602982Y-139040160D01*
X106446775Y-138849822D01*
X106330706Y-138632671D01*
X106259228Y-138397041D01*
X106235094Y-138152000D01*
X106259228Y-137906959D01*
X106330706Y-137671329D01*
X106446775Y-137454178D01*
X106602982Y-137263840D01*
X106793320Y-137107633D01*
X107010471Y-136991564D01*
X107010473Y-136991563D01*
X107128286Y-136955825D01*
X107246101Y-136920086D01*
X107429733Y-136902000D01*
X107552551Y-136902000D01*
X107736183Y-136920086D01*
X107736183Y-136920086D01*
G37*
G36*
X126241897Y-136920086D02*
G01*
X126359712Y-136955825D01*
X126477525Y-136991563D01*
X126477527Y-136991564D01*
X126694678Y-137107633D01*
X126885016Y-137263840D01*
X127041223Y-137454178D01*
X127157292Y-137671329D01*
X127228770Y-137906959D01*
X127252904Y-138152000D01*
X127228770Y-138397041D01*
X127157292Y-138632671D01*
X127041223Y-138849822D01*
X126885016Y-139040160D01*
X126694678Y-139196367D01*
X126477527Y-139312436D01*
X126477525Y-139312437D01*
X126359712Y-139348175D01*
X126241897Y-139383914D01*
X126058265Y-139402000D01*
X125935447Y-139402000D01*
X125751815Y-139383914D01*
X125634000Y-139348175D01*
X125516187Y-139312437D01*
X125516185Y-139312436D01*
X125299034Y-139196367D01*
X125108696Y-139040160D01*
X124952489Y-138849822D01*
X124836420Y-138632671D01*
X124764942Y-138397041D01*
X124740808Y-138152000D01*
X124764942Y-137906959D01*
X124836420Y-137671329D01*
X124952489Y-137454178D01*
X125108696Y-137263840D01*
X125299034Y-137107633D01*
X125516185Y-136991564D01*
X125516187Y-136991563D01*
X125634000Y-136955825D01*
X125751815Y-136920086D01*
X125935447Y-136902000D01*
X126058265Y-136902000D01*
X126241897Y-136920086D01*
X126241897Y-136920086D01*
G37*
G36*
X132747611Y-136920086D02*
G01*
X132865426Y-136955825D01*
X132983239Y-136991563D01*
X132983241Y-136991564D01*
X133200392Y-137107633D01*
X133390730Y-137263840D01*
X133546937Y-137454178D01*
X133663006Y-137671329D01*
X133734484Y-137906959D01*
X133758618Y-138152000D01*
X133734484Y-138397041D01*
X133663006Y-138632671D01*
X133546937Y-138849822D01*
X133390730Y-139040160D01*
X133200392Y-139196367D01*
X132983241Y-139312436D01*
X132983239Y-139312437D01*
X132865426Y-139348175D01*
X132747611Y-139383914D01*
X132563979Y-139402000D01*
X132441161Y-139402000D01*
X132257529Y-139383914D01*
X132139714Y-139348175D01*
X132021901Y-139312437D01*
X132021899Y-139312436D01*
X131804748Y-139196367D01*
X131614410Y-139040160D01*
X131458203Y-138849822D01*
X131342134Y-138632671D01*
X131270656Y-138397041D01*
X131246522Y-138152000D01*
X131270656Y-137906959D01*
X131342134Y-137671329D01*
X131458203Y-137454178D01*
X131614410Y-137263840D01*
X131804748Y-137107633D01*
X132021899Y-136991564D01*
X132021901Y-136991563D01*
X132139714Y-136955825D01*
X132257529Y-136920086D01*
X132441161Y-136902000D01*
X132563979Y-136902000D01*
X132747611Y-136920086D01*
X132747611Y-136920086D01*
G37*
G36*
X144747611Y-136920086D02*
G01*
X144865426Y-136955825D01*
X144983239Y-136991563D01*
X144983241Y-136991564D01*
X145200392Y-137107633D01*
X145390730Y-137263840D01*
X145546937Y-137454178D01*
X145663006Y-137671329D01*
X145734484Y-137906959D01*
X145758618Y-138152000D01*
X145734484Y-138397041D01*
X145663006Y-138632671D01*
X145546937Y-138849822D01*
X145390730Y-139040160D01*
X145200392Y-139196367D01*
X144983241Y-139312436D01*
X144983239Y-139312437D01*
X144865426Y-139348175D01*
X144747611Y-139383914D01*
X144563979Y-139402000D01*
X144441161Y-139402000D01*
X144257529Y-139383914D01*
X144139714Y-139348175D01*
X144021901Y-139312437D01*
X144021899Y-139312436D01*
X143804748Y-139196367D01*
X143614410Y-139040160D01*
X143458203Y-138849822D01*
X143342134Y-138632671D01*
X143270656Y-138397041D01*
X143246522Y-138152000D01*
X143270656Y-137906959D01*
X143342134Y-137671329D01*
X143458203Y-137454178D01*
X143614410Y-137263840D01*
X143804748Y-137107633D01*
X144021899Y-136991564D01*
X144021901Y-136991563D01*
X144139714Y-136955825D01*
X144257529Y-136920086D01*
X144441161Y-136902000D01*
X144563979Y-136902000D01*
X144747611Y-136920086D01*
X144747611Y-136920086D01*
G37*
G36*
X52219041Y-136920086D02*
G01*
X52336856Y-136955825D01*
X52454669Y-136991563D01*
X52454671Y-136991564D01*
X52671822Y-137107633D01*
X52862160Y-137263840D01*
X53018367Y-137454178D01*
X53134436Y-137671329D01*
X53205914Y-137906959D01*
X53230048Y-138152000D01*
X53205914Y-138397041D01*
X53134436Y-138632671D01*
X53018367Y-138849822D01*
X52862160Y-139040160D01*
X52671822Y-139196367D01*
X52454671Y-139312436D01*
X52454669Y-139312437D01*
X52336856Y-139348175D01*
X52219041Y-139383914D01*
X52035409Y-139402000D01*
X51912591Y-139402000D01*
X51728959Y-139383914D01*
X51611144Y-139348175D01*
X51493331Y-139312437D01*
X51493329Y-139312436D01*
X51276178Y-139196367D01*
X51085840Y-139040160D01*
X50929633Y-138849822D01*
X50813564Y-138632671D01*
X50742086Y-138397041D01*
X50717952Y-138152000D01*
X50742086Y-137906959D01*
X50813564Y-137671329D01*
X50929633Y-137454178D01*
X51085840Y-137263840D01*
X51276178Y-137107633D01*
X51493329Y-136991564D01*
X51493331Y-136991563D01*
X51611144Y-136955825D01*
X51728959Y-136920086D01*
X51912591Y-136902000D01*
X52035409Y-136902000D01*
X52219041Y-136920086D01*
X52219041Y-136920086D01*
G37*
G36*
X40219041Y-136920086D02*
G01*
X40336856Y-136955825D01*
X40454669Y-136991563D01*
X40454671Y-136991564D01*
X40671822Y-137107633D01*
X40862160Y-137263840D01*
X41018367Y-137454178D01*
X41134436Y-137671329D01*
X41205914Y-137906959D01*
X41230048Y-138152000D01*
X41205914Y-138397041D01*
X41134436Y-138632671D01*
X41018367Y-138849822D01*
X40862160Y-139040160D01*
X40671822Y-139196367D01*
X40454671Y-139312436D01*
X40454669Y-139312437D01*
X40336856Y-139348175D01*
X40219041Y-139383914D01*
X40035409Y-139402000D01*
X39912591Y-139402000D01*
X39728959Y-139383914D01*
X39611144Y-139348175D01*
X39493331Y-139312437D01*
X39493329Y-139312436D01*
X39276178Y-139196367D01*
X39085840Y-139040160D01*
X38929633Y-138849822D01*
X38813564Y-138632671D01*
X38742086Y-138397041D01*
X38717952Y-138152000D01*
X38742086Y-137906959D01*
X38813564Y-137671329D01*
X38929633Y-137454178D01*
X39085840Y-137263840D01*
X39276178Y-137107633D01*
X39493329Y-136991564D01*
X39493331Y-136991563D01*
X39611144Y-136955825D01*
X39728959Y-136920086D01*
X39912591Y-136902000D01*
X40035409Y-136902000D01*
X40219041Y-136920086D01*
X40219041Y-136920086D01*
G37*
G36*
X58724755Y-136920086D02*
G01*
X58842570Y-136955825D01*
X58960383Y-136991563D01*
X58960385Y-136991564D01*
X59177536Y-137107633D01*
X59367874Y-137263840D01*
X59524081Y-137454178D01*
X59640150Y-137671329D01*
X59711628Y-137906959D01*
X59735762Y-138152000D01*
X59711628Y-138397041D01*
X59640150Y-138632671D01*
X59524081Y-138849822D01*
X59367874Y-139040160D01*
X59177536Y-139196367D01*
X58960385Y-139312436D01*
X58960383Y-139312437D01*
X58842570Y-139348175D01*
X58724755Y-139383914D01*
X58541123Y-139402000D01*
X58418305Y-139402000D01*
X58234673Y-139383914D01*
X58116858Y-139348175D01*
X57999045Y-139312437D01*
X57999043Y-139312436D01*
X57781892Y-139196367D01*
X57591554Y-139040160D01*
X57435347Y-138849822D01*
X57319278Y-138632671D01*
X57247800Y-138397041D01*
X57223666Y-138152000D01*
X57247800Y-137906959D01*
X57319278Y-137671329D01*
X57435347Y-137454178D01*
X57591554Y-137263840D01*
X57781892Y-137107633D01*
X57999043Y-136991564D01*
X57999045Y-136991563D01*
X58116858Y-136955825D01*
X58234673Y-136920086D01*
X58418305Y-136902000D01*
X58541123Y-136902000D01*
X58724755Y-136920086D01*
X58724755Y-136920086D01*
G37*
G36*
X151253325Y-136920086D02*
G01*
X151371140Y-136955825D01*
X151488953Y-136991563D01*
X151488955Y-136991564D01*
X151706106Y-137107633D01*
X151896444Y-137263840D01*
X152052651Y-137454178D01*
X152168720Y-137671329D01*
X152240198Y-137906959D01*
X152264332Y-138152000D01*
X152240198Y-138397041D01*
X152168720Y-138632671D01*
X152052651Y-138849822D01*
X151896444Y-139040160D01*
X151706106Y-139196367D01*
X151488955Y-139312436D01*
X151488953Y-139312437D01*
X151371140Y-139348175D01*
X151253325Y-139383914D01*
X151069693Y-139402000D01*
X150946875Y-139402000D01*
X150763243Y-139383914D01*
X150645428Y-139348175D01*
X150527615Y-139312437D01*
X150527613Y-139312436D01*
X150310462Y-139196367D01*
X150120124Y-139040160D01*
X149963917Y-138849822D01*
X149847848Y-138632671D01*
X149776370Y-138397041D01*
X149752236Y-138152000D01*
X149776370Y-137906959D01*
X149847848Y-137671329D01*
X149963917Y-137454178D01*
X150120124Y-137263840D01*
X150310462Y-137107633D01*
X150527613Y-136991564D01*
X150527615Y-136991563D01*
X150645428Y-136955825D01*
X150763243Y-136920086D01*
X150946875Y-136902000D01*
X151069693Y-136902000D01*
X151253325Y-136920086D01*
X151253325Y-136920086D01*
G37*
G36*
X181759041Y-136920086D02*
G01*
X181876856Y-136955825D01*
X181994669Y-136991563D01*
X181994671Y-136991564D01*
X182211822Y-137107633D01*
X182402160Y-137263840D01*
X182558367Y-137454178D01*
X182674436Y-137671329D01*
X182745914Y-137906959D01*
X182770048Y-138152000D01*
X182745914Y-138397041D01*
X182674436Y-138632671D01*
X182558367Y-138849822D01*
X182402160Y-139040160D01*
X182211822Y-139196367D01*
X181994671Y-139312436D01*
X181994669Y-139312437D01*
X181876856Y-139348175D01*
X181759041Y-139383914D01*
X181575409Y-139402000D01*
X181452591Y-139402000D01*
X181268959Y-139383914D01*
X181151144Y-139348175D01*
X181033331Y-139312437D01*
X181033329Y-139312436D01*
X180816178Y-139196367D01*
X180625840Y-139040160D01*
X180469633Y-138849822D01*
X180353564Y-138632671D01*
X180282086Y-138397041D01*
X180257952Y-138152000D01*
X180282086Y-137906959D01*
X180353564Y-137671329D01*
X180469633Y-137454178D01*
X180625840Y-137263840D01*
X180816178Y-137107633D01*
X181033329Y-136991564D01*
X181033331Y-136991563D01*
X181151144Y-136955825D01*
X181268959Y-136920086D01*
X181452591Y-136902000D01*
X181575409Y-136902000D01*
X181759041Y-136920086D01*
X181759041Y-136920086D01*
G37*
G36*
X169759041Y-136920086D02*
G01*
X169876856Y-136955825D01*
X169994669Y-136991563D01*
X169994671Y-136991564D01*
X170211822Y-137107633D01*
X170402160Y-137263840D01*
X170558367Y-137454178D01*
X170674436Y-137671329D01*
X170745914Y-137906959D01*
X170770048Y-138152000D01*
X170745914Y-138397041D01*
X170674436Y-138632671D01*
X170558367Y-138849822D01*
X170402160Y-139040160D01*
X170211822Y-139196367D01*
X169994671Y-139312436D01*
X169994669Y-139312437D01*
X169876856Y-139348175D01*
X169759041Y-139383914D01*
X169575409Y-139402000D01*
X169452591Y-139402000D01*
X169268959Y-139383914D01*
X169151144Y-139348175D01*
X169033331Y-139312437D01*
X169033329Y-139312436D01*
X168816178Y-139196367D01*
X168625840Y-139040160D01*
X168469633Y-138849822D01*
X168353564Y-138632671D01*
X168282086Y-138397041D01*
X168257952Y-138152000D01*
X168282086Y-137906959D01*
X168353564Y-137671329D01*
X168469633Y-137454178D01*
X168625840Y-137263840D01*
X168816178Y-137107633D01*
X169033329Y-136991564D01*
X169033331Y-136991563D01*
X169151144Y-136955825D01*
X169268959Y-136920086D01*
X169452591Y-136902000D01*
X169575409Y-136902000D01*
X169759041Y-136920086D01*
X169759041Y-136920086D01*
G37*
G36*
X89230469Y-136920086D02*
G01*
X89348284Y-136955825D01*
X89466097Y-136991563D01*
X89466099Y-136991564D01*
X89683250Y-137107633D01*
X89873588Y-137263840D01*
X90029795Y-137454178D01*
X90145864Y-137671329D01*
X90217342Y-137906959D01*
X90241476Y-138152000D01*
X90217342Y-138397041D01*
X90145864Y-138632671D01*
X90029795Y-138849822D01*
X89873588Y-139040160D01*
X89683250Y-139196367D01*
X89466099Y-139312436D01*
X89466097Y-139312437D01*
X89348284Y-139348175D01*
X89230469Y-139383914D01*
X89046837Y-139402000D01*
X88924019Y-139402000D01*
X88740387Y-139383914D01*
X88622572Y-139348175D01*
X88504759Y-139312437D01*
X88504757Y-139312436D01*
X88287606Y-139196367D01*
X88097268Y-139040160D01*
X87941061Y-138849822D01*
X87824992Y-138632671D01*
X87753514Y-138397041D01*
X87729380Y-138152000D01*
X87753514Y-137906959D01*
X87824992Y-137671329D01*
X87941061Y-137454178D01*
X88097268Y-137263840D01*
X88287606Y-137107633D01*
X88504757Y-136991564D01*
X88504759Y-136991563D01*
X88622572Y-136955825D01*
X88740387Y-136920086D01*
X88924019Y-136902000D01*
X89046837Y-136902000D01*
X89230469Y-136920086D01*
X89230469Y-136920086D01*
G37*
G36*
X114241897Y-136920086D02*
G01*
X114359712Y-136955825D01*
X114477525Y-136991563D01*
X114477527Y-136991564D01*
X114694678Y-137107633D01*
X114885016Y-137263840D01*
X115041223Y-137454178D01*
X115157292Y-137671329D01*
X115228770Y-137906959D01*
X115252904Y-138152000D01*
X115228770Y-138397041D01*
X115157292Y-138632671D01*
X115041223Y-138849822D01*
X114885016Y-139040160D01*
X114694678Y-139196367D01*
X114477527Y-139312436D01*
X114477525Y-139312437D01*
X114359712Y-139348175D01*
X114241897Y-139383914D01*
X114058265Y-139402000D01*
X113935447Y-139402000D01*
X113751815Y-139383914D01*
X113634000Y-139348175D01*
X113516187Y-139312437D01*
X113516185Y-139312436D01*
X113299034Y-139196367D01*
X113108696Y-139040160D01*
X112952489Y-138849822D01*
X112836420Y-138632671D01*
X112764942Y-138397041D01*
X112740808Y-138152000D01*
X112764942Y-137906959D01*
X112836420Y-137671329D01*
X112952489Y-137454178D01*
X113108696Y-137263840D01*
X113299034Y-137107633D01*
X113516185Y-136991564D01*
X113516187Y-136991563D01*
X113634000Y-136955825D01*
X113751815Y-136920086D01*
X113935447Y-136902000D01*
X114058265Y-136902000D01*
X114241897Y-136920086D01*
X114241897Y-136920086D01*
G37*
G36*
X77230469Y-136920086D02*
G01*
X77348284Y-136955825D01*
X77466097Y-136991563D01*
X77466099Y-136991564D01*
X77683250Y-137107633D01*
X77873588Y-137263840D01*
X78029795Y-137454178D01*
X78145864Y-137671329D01*
X78217342Y-137906959D01*
X78241476Y-138152000D01*
X78217342Y-138397041D01*
X78145864Y-138632671D01*
X78029795Y-138849822D01*
X77873588Y-139040160D01*
X77683250Y-139196367D01*
X77466099Y-139312436D01*
X77466097Y-139312437D01*
X77348284Y-139348175D01*
X77230469Y-139383914D01*
X77046837Y-139402000D01*
X76924019Y-139402000D01*
X76740387Y-139383914D01*
X76622572Y-139348175D01*
X76504759Y-139312437D01*
X76504757Y-139312436D01*
X76287606Y-139196367D01*
X76097268Y-139040160D01*
X75941061Y-138849822D01*
X75824992Y-138632671D01*
X75753514Y-138397041D01*
X75729380Y-138152000D01*
X75753514Y-137906959D01*
X75824992Y-137671329D01*
X75941061Y-137454178D01*
X76097268Y-137263840D01*
X76287606Y-137107633D01*
X76504757Y-136991564D01*
X76504759Y-136991563D01*
X76622572Y-136955825D01*
X76740387Y-136920086D01*
X76924019Y-136902000D01*
X77046837Y-136902000D01*
X77230469Y-136920086D01*
X77230469Y-136920086D01*
G37*
G36*
X163253325Y-124720086D02*
G01*
X163371140Y-124755825D01*
X163488953Y-124791563D01*
X163488955Y-124791564D01*
X163706106Y-124907633D01*
X163896444Y-125063840D01*
X164052651Y-125254178D01*
X164168720Y-125471329D01*
X164240198Y-125706959D01*
X164264332Y-125952000D01*
X164240198Y-126197041D01*
X164168720Y-126432671D01*
X164052651Y-126649822D01*
X163896444Y-126840160D01*
X163706106Y-126996367D01*
X163488955Y-127112436D01*
X163488953Y-127112437D01*
X163371140Y-127148175D01*
X163253325Y-127183914D01*
X163069693Y-127202000D01*
X162946875Y-127202000D01*
X162763243Y-127183914D01*
X162645428Y-127148175D01*
X162527615Y-127112437D01*
X162527613Y-127112436D01*
X162310462Y-126996367D01*
X162120124Y-126840160D01*
X161963917Y-126649822D01*
X161847848Y-126432671D01*
X161776370Y-126197041D01*
X161752236Y-125952000D01*
X161776370Y-125706959D01*
X161847848Y-125471329D01*
X161963917Y-125254178D01*
X162120124Y-125063840D01*
X162310462Y-124907633D01*
X162527613Y-124791564D01*
X162527615Y-124791563D01*
X162645428Y-124755825D01*
X162763243Y-124720086D01*
X162946875Y-124702000D01*
X163069693Y-124702000D01*
X163253325Y-124720086D01*
X163253325Y-124720086D01*
G37*
G36*
X70724755Y-124720086D02*
G01*
X70842570Y-124755825D01*
X70960383Y-124791563D01*
X70960385Y-124791564D01*
X71177536Y-124907633D01*
X71367874Y-125063840D01*
X71524081Y-125254178D01*
X71640150Y-125471329D01*
X71711628Y-125706959D01*
X71735762Y-125952000D01*
X71711628Y-126197041D01*
X71640150Y-126432671D01*
X71524081Y-126649822D01*
X71367874Y-126840160D01*
X71177536Y-126996367D01*
X70960385Y-127112436D01*
X70960383Y-127112437D01*
X70842570Y-127148175D01*
X70724755Y-127183914D01*
X70541123Y-127202000D01*
X70418305Y-127202000D01*
X70234673Y-127183914D01*
X70116858Y-127148175D01*
X69999045Y-127112437D01*
X69999043Y-127112436D01*
X69781892Y-126996367D01*
X69591554Y-126840160D01*
X69435347Y-126649822D01*
X69319278Y-126432671D01*
X69247800Y-126197041D01*
X69223666Y-125952000D01*
X69247800Y-125706959D01*
X69319278Y-125471329D01*
X69435347Y-125254178D01*
X69591554Y-125063840D01*
X69781892Y-124907633D01*
X69999043Y-124791564D01*
X69999045Y-124791563D01*
X70116858Y-124755825D01*
X70234673Y-124720086D01*
X70418305Y-124702000D01*
X70541123Y-124702000D01*
X70724755Y-124720086D01*
X70724755Y-124720086D01*
G37*
G36*
X58724755Y-124720086D02*
G01*
X58842570Y-124755825D01*
X58960383Y-124791563D01*
X58960385Y-124791564D01*
X59177536Y-124907633D01*
X59367874Y-125063840D01*
X59524081Y-125254178D01*
X59640150Y-125471329D01*
X59711628Y-125706959D01*
X59735762Y-125952000D01*
X59711628Y-126197041D01*
X59640150Y-126432671D01*
X59524081Y-126649822D01*
X59367874Y-126840160D01*
X59177536Y-126996367D01*
X58960385Y-127112436D01*
X58960383Y-127112437D01*
X58842570Y-127148175D01*
X58724755Y-127183914D01*
X58541123Y-127202000D01*
X58418305Y-127202000D01*
X58234673Y-127183914D01*
X58116858Y-127148175D01*
X57999045Y-127112437D01*
X57999043Y-127112436D01*
X57781892Y-126996367D01*
X57591554Y-126840160D01*
X57435347Y-126649822D01*
X57319278Y-126432671D01*
X57247800Y-126197041D01*
X57223666Y-125952000D01*
X57247800Y-125706959D01*
X57319278Y-125471329D01*
X57435347Y-125254178D01*
X57591554Y-125063840D01*
X57781892Y-124907633D01*
X57999043Y-124791564D01*
X57999045Y-124791563D01*
X58116858Y-124755825D01*
X58234673Y-124720086D01*
X58418305Y-124702000D01*
X58541123Y-124702000D01*
X58724755Y-124720086D01*
X58724755Y-124720086D01*
G37*
G36*
X89230469Y-124720086D02*
G01*
X89348284Y-124755825D01*
X89466097Y-124791563D01*
X89466099Y-124791564D01*
X89683250Y-124907633D01*
X89873588Y-125063840D01*
X90029795Y-125254178D01*
X90145864Y-125471329D01*
X90217342Y-125706959D01*
X90241476Y-125952000D01*
X90217342Y-126197041D01*
X90145864Y-126432671D01*
X90029795Y-126649822D01*
X89873588Y-126840160D01*
X89683250Y-126996367D01*
X89466099Y-127112436D01*
X89466097Y-127112437D01*
X89348284Y-127148175D01*
X89230469Y-127183914D01*
X89046837Y-127202000D01*
X88924019Y-127202000D01*
X88740387Y-127183914D01*
X88622572Y-127148175D01*
X88504759Y-127112437D01*
X88504757Y-127112436D01*
X88287606Y-126996367D01*
X88097268Y-126840160D01*
X87941061Y-126649822D01*
X87824992Y-126432671D01*
X87753514Y-126197041D01*
X87729380Y-125952000D01*
X87753514Y-125706959D01*
X87824992Y-125471329D01*
X87941061Y-125254178D01*
X88097268Y-125063840D01*
X88287606Y-124907633D01*
X88504757Y-124791564D01*
X88504759Y-124791563D01*
X88622572Y-124755825D01*
X88740387Y-124720086D01*
X88924019Y-124702000D01*
X89046837Y-124702000D01*
X89230469Y-124720086D01*
X89230469Y-124720086D01*
G37*
G36*
X95736183Y-124720086D02*
G01*
X95853998Y-124755825D01*
X95971811Y-124791563D01*
X95971813Y-124791564D01*
X96188964Y-124907633D01*
X96379302Y-125063840D01*
X96535509Y-125254178D01*
X96651578Y-125471329D01*
X96723056Y-125706959D01*
X96747190Y-125952000D01*
X96723056Y-126197041D01*
X96651578Y-126432671D01*
X96535509Y-126649822D01*
X96379302Y-126840160D01*
X96188964Y-126996367D01*
X95971813Y-127112436D01*
X95971811Y-127112437D01*
X95853998Y-127148175D01*
X95736183Y-127183914D01*
X95552551Y-127202000D01*
X95429733Y-127202000D01*
X95246101Y-127183914D01*
X95128286Y-127148175D01*
X95010473Y-127112437D01*
X95010471Y-127112436D01*
X94793320Y-126996367D01*
X94602982Y-126840160D01*
X94446775Y-126649822D01*
X94330706Y-126432671D01*
X94259228Y-126197041D01*
X94235094Y-125952000D01*
X94259228Y-125706959D01*
X94330706Y-125471329D01*
X94446775Y-125254178D01*
X94602982Y-125063840D01*
X94793320Y-124907633D01*
X95010471Y-124791564D01*
X95010473Y-124791563D01*
X95128286Y-124755825D01*
X95246101Y-124720086D01*
X95429733Y-124702000D01*
X95552551Y-124702000D01*
X95736183Y-124720086D01*
X95736183Y-124720086D01*
G37*
G36*
X77230469Y-124720086D02*
G01*
X77348284Y-124755825D01*
X77466097Y-124791563D01*
X77466099Y-124791564D01*
X77683250Y-124907633D01*
X77873588Y-125063840D01*
X78029795Y-125254178D01*
X78145864Y-125471329D01*
X78217342Y-125706959D01*
X78241476Y-125952000D01*
X78217342Y-126197041D01*
X78145864Y-126432671D01*
X78029795Y-126649822D01*
X77873588Y-126840160D01*
X77683250Y-126996367D01*
X77466099Y-127112436D01*
X77466097Y-127112437D01*
X77348284Y-127148175D01*
X77230469Y-127183914D01*
X77046837Y-127202000D01*
X76924019Y-127202000D01*
X76740387Y-127183914D01*
X76622572Y-127148175D01*
X76504759Y-127112437D01*
X76504757Y-127112436D01*
X76287606Y-126996367D01*
X76097268Y-126840160D01*
X75941061Y-126649822D01*
X75824992Y-126432671D01*
X75753514Y-126197041D01*
X75729380Y-125952000D01*
X75753514Y-125706959D01*
X75824992Y-125471329D01*
X75941061Y-125254178D01*
X76097268Y-125063840D01*
X76287606Y-124907633D01*
X76504757Y-124791564D01*
X76504759Y-124791563D01*
X76622572Y-124755825D01*
X76740387Y-124720086D01*
X76924019Y-124702000D01*
X77046837Y-124702000D01*
X77230469Y-124720086D01*
X77230469Y-124720086D01*
G37*
G36*
X40219041Y-124720086D02*
G01*
X40336856Y-124755825D01*
X40454669Y-124791563D01*
X40454671Y-124791564D01*
X40671822Y-124907633D01*
X40862160Y-125063840D01*
X41018367Y-125254178D01*
X41134436Y-125471329D01*
X41205914Y-125706959D01*
X41230048Y-125952000D01*
X41205914Y-126197041D01*
X41134436Y-126432671D01*
X41018367Y-126649822D01*
X40862160Y-126840160D01*
X40671822Y-126996367D01*
X40454671Y-127112436D01*
X40454669Y-127112437D01*
X40336856Y-127148175D01*
X40219041Y-127183914D01*
X40035409Y-127202000D01*
X39912591Y-127202000D01*
X39728959Y-127183914D01*
X39611144Y-127148175D01*
X39493331Y-127112437D01*
X39493329Y-127112436D01*
X39276178Y-126996367D01*
X39085840Y-126840160D01*
X38929633Y-126649822D01*
X38813564Y-126432671D01*
X38742086Y-126197041D01*
X38717952Y-125952000D01*
X38742086Y-125706959D01*
X38813564Y-125471329D01*
X38929633Y-125254178D01*
X39085840Y-125063840D01*
X39276178Y-124907633D01*
X39493329Y-124791564D01*
X39493331Y-124791563D01*
X39611144Y-124755825D01*
X39728959Y-124720086D01*
X39912591Y-124702000D01*
X40035409Y-124702000D01*
X40219041Y-124720086D01*
X40219041Y-124720086D01*
G37*
G36*
X52219041Y-124720086D02*
G01*
X52336856Y-124755825D01*
X52454669Y-124791563D01*
X52454671Y-124791564D01*
X52671822Y-124907633D01*
X52862160Y-125063840D01*
X53018367Y-125254178D01*
X53134436Y-125471329D01*
X53205914Y-125706959D01*
X53230048Y-125952000D01*
X53205914Y-126197041D01*
X53134436Y-126432671D01*
X53018367Y-126649822D01*
X52862160Y-126840160D01*
X52671822Y-126996367D01*
X52454671Y-127112436D01*
X52454669Y-127112437D01*
X52336856Y-127148175D01*
X52219041Y-127183914D01*
X52035409Y-127202000D01*
X51912591Y-127202000D01*
X51728959Y-127183914D01*
X51611144Y-127148175D01*
X51493331Y-127112437D01*
X51493329Y-127112436D01*
X51276178Y-126996367D01*
X51085840Y-126840160D01*
X50929633Y-126649822D01*
X50813564Y-126432671D01*
X50742086Y-126197041D01*
X50717952Y-125952000D01*
X50742086Y-125706959D01*
X50813564Y-125471329D01*
X50929633Y-125254178D01*
X51085840Y-125063840D01*
X51276178Y-124907633D01*
X51493329Y-124791564D01*
X51493331Y-124791563D01*
X51611144Y-124755825D01*
X51728959Y-124720086D01*
X51912591Y-124702000D01*
X52035409Y-124702000D01*
X52219041Y-124720086D01*
X52219041Y-124720086D01*
G37*
G36*
X181759041Y-124720086D02*
G01*
X181876856Y-124755825D01*
X181994669Y-124791563D01*
X181994671Y-124791564D01*
X182211822Y-124907633D01*
X182402160Y-125063840D01*
X182558367Y-125254178D01*
X182674436Y-125471329D01*
X182745914Y-125706959D01*
X182770048Y-125952000D01*
X182745914Y-126197041D01*
X182674436Y-126432671D01*
X182558367Y-126649822D01*
X182402160Y-126840160D01*
X182211822Y-126996367D01*
X181994671Y-127112436D01*
X181994669Y-127112437D01*
X181876856Y-127148175D01*
X181759041Y-127183914D01*
X181575409Y-127202000D01*
X181452591Y-127202000D01*
X181268959Y-127183914D01*
X181151144Y-127148175D01*
X181033331Y-127112437D01*
X181033329Y-127112436D01*
X180816178Y-126996367D01*
X180625840Y-126840160D01*
X180469633Y-126649822D01*
X180353564Y-126432671D01*
X180282086Y-126197041D01*
X180257952Y-125952000D01*
X180282086Y-125706959D01*
X180353564Y-125471329D01*
X180469633Y-125254178D01*
X180625840Y-125063840D01*
X180816178Y-124907633D01*
X181033329Y-124791564D01*
X181033331Y-124791563D01*
X181151144Y-124755825D01*
X181268959Y-124720086D01*
X181452591Y-124702000D01*
X181575409Y-124702000D01*
X181759041Y-124720086D01*
X181759041Y-124720086D01*
G37*
G36*
X126241897Y-124720086D02*
G01*
X126359712Y-124755825D01*
X126477525Y-124791563D01*
X126477527Y-124791564D01*
X126694678Y-124907633D01*
X126885016Y-125063840D01*
X127041223Y-125254178D01*
X127157292Y-125471329D01*
X127228770Y-125706959D01*
X127252904Y-125952000D01*
X127228770Y-126197041D01*
X127157292Y-126432671D01*
X127041223Y-126649822D01*
X126885016Y-126840160D01*
X126694678Y-126996367D01*
X126477527Y-127112436D01*
X126477525Y-127112437D01*
X126359712Y-127148175D01*
X126241897Y-127183914D01*
X126058265Y-127202000D01*
X125935447Y-127202000D01*
X125751815Y-127183914D01*
X125634000Y-127148175D01*
X125516187Y-127112437D01*
X125516185Y-127112436D01*
X125299034Y-126996367D01*
X125108696Y-126840160D01*
X124952489Y-126649822D01*
X124836420Y-126432671D01*
X124764942Y-126197041D01*
X124740808Y-125952000D01*
X124764942Y-125706959D01*
X124836420Y-125471329D01*
X124952489Y-125254178D01*
X125108696Y-125063840D01*
X125299034Y-124907633D01*
X125516185Y-124791564D01*
X125516187Y-124791563D01*
X125634000Y-124755825D01*
X125751815Y-124720086D01*
X125935447Y-124702000D01*
X126058265Y-124702000D01*
X126241897Y-124720086D01*
X126241897Y-124720086D01*
G37*
G36*
X169759041Y-124720086D02*
G01*
X169876856Y-124755825D01*
X169994669Y-124791563D01*
X169994671Y-124791564D01*
X170211822Y-124907633D01*
X170402160Y-125063840D01*
X170558367Y-125254178D01*
X170674436Y-125471329D01*
X170745914Y-125706959D01*
X170770048Y-125952000D01*
X170745914Y-126197041D01*
X170674436Y-126432671D01*
X170558367Y-126649822D01*
X170402160Y-126840160D01*
X170211822Y-126996367D01*
X169994671Y-127112436D01*
X169994669Y-127112437D01*
X169876856Y-127148175D01*
X169759041Y-127183914D01*
X169575409Y-127202000D01*
X169452591Y-127202000D01*
X169268959Y-127183914D01*
X169151144Y-127148175D01*
X169033331Y-127112437D01*
X169033329Y-127112436D01*
X168816178Y-126996367D01*
X168625840Y-126840160D01*
X168469633Y-126649822D01*
X168353564Y-126432671D01*
X168282086Y-126197041D01*
X168257952Y-125952000D01*
X168282086Y-125706959D01*
X168353564Y-125471329D01*
X168469633Y-125254178D01*
X168625840Y-125063840D01*
X168816178Y-124907633D01*
X169033329Y-124791564D01*
X169033331Y-124791563D01*
X169151144Y-124755825D01*
X169268959Y-124720086D01*
X169452591Y-124702000D01*
X169575409Y-124702000D01*
X169759041Y-124720086D01*
X169759041Y-124720086D01*
G37*
G36*
X132747611Y-124720086D02*
G01*
X132865426Y-124755825D01*
X132983239Y-124791563D01*
X132983241Y-124791564D01*
X133200392Y-124907633D01*
X133390730Y-125063840D01*
X133546937Y-125254178D01*
X133663006Y-125471329D01*
X133734484Y-125706959D01*
X133758618Y-125952000D01*
X133734484Y-126197041D01*
X133663006Y-126432671D01*
X133546937Y-126649822D01*
X133390730Y-126840160D01*
X133200392Y-126996367D01*
X132983241Y-127112436D01*
X132983239Y-127112437D01*
X132865426Y-127148175D01*
X132747611Y-127183914D01*
X132563979Y-127202000D01*
X132441161Y-127202000D01*
X132257529Y-127183914D01*
X132139714Y-127148175D01*
X132021901Y-127112437D01*
X132021899Y-127112436D01*
X131804748Y-126996367D01*
X131614410Y-126840160D01*
X131458203Y-126649822D01*
X131342134Y-126432671D01*
X131270656Y-126197041D01*
X131246522Y-125952000D01*
X131270656Y-125706959D01*
X131342134Y-125471329D01*
X131458203Y-125254178D01*
X131614410Y-125063840D01*
X131804748Y-124907633D01*
X132021899Y-124791564D01*
X132021901Y-124791563D01*
X132139714Y-124755825D01*
X132257529Y-124720086D01*
X132441161Y-124702000D01*
X132563979Y-124702000D01*
X132747611Y-124720086D01*
X132747611Y-124720086D01*
G37*
G36*
X144747611Y-124720086D02*
G01*
X144865426Y-124755825D01*
X144983239Y-124791563D01*
X144983241Y-124791564D01*
X145200392Y-124907633D01*
X145390730Y-125063840D01*
X145546937Y-125254178D01*
X145663006Y-125471329D01*
X145734484Y-125706959D01*
X145758618Y-125952000D01*
X145734484Y-126197041D01*
X145663006Y-126432671D01*
X145546937Y-126649822D01*
X145390730Y-126840160D01*
X145200392Y-126996367D01*
X144983241Y-127112436D01*
X144983239Y-127112437D01*
X144865426Y-127148175D01*
X144747611Y-127183914D01*
X144563979Y-127202000D01*
X144441161Y-127202000D01*
X144257529Y-127183914D01*
X144139714Y-127148175D01*
X144021901Y-127112437D01*
X144021899Y-127112436D01*
X143804748Y-126996367D01*
X143614410Y-126840160D01*
X143458203Y-126649822D01*
X143342134Y-126432671D01*
X143270656Y-126197041D01*
X143246522Y-125952000D01*
X143270656Y-125706959D01*
X143342134Y-125471329D01*
X143458203Y-125254178D01*
X143614410Y-125063840D01*
X143804748Y-124907633D01*
X144021899Y-124791564D01*
X144021901Y-124791563D01*
X144139714Y-124755825D01*
X144257529Y-124720086D01*
X144441161Y-124702000D01*
X144563979Y-124702000D01*
X144747611Y-124720086D01*
X144747611Y-124720086D01*
G37*
G36*
X151253325Y-124720086D02*
G01*
X151371140Y-124755825D01*
X151488953Y-124791563D01*
X151488955Y-124791564D01*
X151706106Y-124907633D01*
X151896444Y-125063840D01*
X152052651Y-125254178D01*
X152168720Y-125471329D01*
X152240198Y-125706959D01*
X152264332Y-125952000D01*
X152240198Y-126197041D01*
X152168720Y-126432671D01*
X152052651Y-126649822D01*
X151896444Y-126840160D01*
X151706106Y-126996367D01*
X151488955Y-127112436D01*
X151488953Y-127112437D01*
X151371140Y-127148175D01*
X151253325Y-127183914D01*
X151069693Y-127202000D01*
X150946875Y-127202000D01*
X150763243Y-127183914D01*
X150645428Y-127148175D01*
X150527615Y-127112437D01*
X150527613Y-127112436D01*
X150310462Y-126996367D01*
X150120124Y-126840160D01*
X149963917Y-126649822D01*
X149847848Y-126432671D01*
X149776370Y-126197041D01*
X149752236Y-125952000D01*
X149776370Y-125706959D01*
X149847848Y-125471329D01*
X149963917Y-125254178D01*
X150120124Y-125063840D01*
X150310462Y-124907633D01*
X150527613Y-124791564D01*
X150527615Y-124791563D01*
X150645428Y-124755825D01*
X150763243Y-124720086D01*
X150946875Y-124702000D01*
X151069693Y-124702000D01*
X151253325Y-124720086D01*
X151253325Y-124720086D01*
G37*
G36*
X107736183Y-124720086D02*
G01*
X107853998Y-124755825D01*
X107971811Y-124791563D01*
X107971813Y-124791564D01*
X108188964Y-124907633D01*
X108379302Y-125063840D01*
X108535509Y-125254178D01*
X108651578Y-125471329D01*
X108723056Y-125706959D01*
X108747190Y-125952000D01*
X108723056Y-126197041D01*
X108651578Y-126432671D01*
X108535509Y-126649822D01*
X108379302Y-126840160D01*
X108188964Y-126996367D01*
X107971813Y-127112436D01*
X107971811Y-127112437D01*
X107853998Y-127148175D01*
X107736183Y-127183914D01*
X107552551Y-127202000D01*
X107429733Y-127202000D01*
X107246101Y-127183914D01*
X107128286Y-127148175D01*
X107010473Y-127112437D01*
X107010471Y-127112436D01*
X106793320Y-126996367D01*
X106602982Y-126840160D01*
X106446775Y-126649822D01*
X106330706Y-126432671D01*
X106259228Y-126197041D01*
X106235094Y-125952000D01*
X106259228Y-125706959D01*
X106330706Y-125471329D01*
X106446775Y-125254178D01*
X106602982Y-125063840D01*
X106793320Y-124907633D01*
X107010471Y-124791564D01*
X107010473Y-124791563D01*
X107128286Y-124755825D01*
X107246101Y-124720086D01*
X107429733Y-124702000D01*
X107552551Y-124702000D01*
X107736183Y-124720086D01*
X107736183Y-124720086D01*
G37*
G36*
X114241897Y-124720086D02*
G01*
X114359712Y-124755825D01*
X114477525Y-124791563D01*
X114477527Y-124791564D01*
X114694678Y-124907633D01*
X114885016Y-125063840D01*
X115041223Y-125254178D01*
X115157292Y-125471329D01*
X115228770Y-125706959D01*
X115252904Y-125952000D01*
X115228770Y-126197041D01*
X115157292Y-126432671D01*
X115041223Y-126649822D01*
X114885016Y-126840160D01*
X114694678Y-126996367D01*
X114477527Y-127112436D01*
X114477525Y-127112437D01*
X114359712Y-127148175D01*
X114241897Y-127183914D01*
X114058265Y-127202000D01*
X113935447Y-127202000D01*
X113751815Y-127183914D01*
X113634000Y-127148175D01*
X113516187Y-127112437D01*
X113516185Y-127112436D01*
X113299034Y-126996367D01*
X113108696Y-126840160D01*
X112952489Y-126649822D01*
X112836420Y-126432671D01*
X112764942Y-126197041D01*
X112740808Y-125952000D01*
X112764942Y-125706959D01*
X112836420Y-125471329D01*
X112952489Y-125254178D01*
X113108696Y-125063840D01*
X113299034Y-124907633D01*
X113516185Y-124791564D01*
X113516187Y-124791563D01*
X113634000Y-124755825D01*
X113751815Y-124720086D01*
X113935447Y-124702000D01*
X114058265Y-124702000D01*
X114241897Y-124720086D01*
X114241897Y-124720086D01*
G37*
G36*
X47224000Y-125202000D02*
G01*
X44724000Y-125202000D01*
X44724000Y-122702000D01*
X47224000Y-122702000D01*
X47224000Y-125202000D01*
X47224000Y-125202000D01*
G37*
G36*
X176764000Y-125202000D02*
G01*
X174264000Y-125202000D01*
X174264000Y-122702000D01*
X176764000Y-122702000D01*
X176764000Y-125202000D01*
X176764000Y-125202000D01*
G37*
G36*
X139752570Y-125202000D02*
G01*
X137252570Y-125202000D01*
X137252570Y-122702000D01*
X139752570Y-122702000D01*
X139752570Y-125202000D01*
X139752570Y-125202000D01*
G37*
G36*
X121246856Y-125202000D02*
G01*
X118746856Y-125202000D01*
X118746856Y-122702000D01*
X121246856Y-122702000D01*
X121246856Y-125202000D01*
X121246856Y-125202000D01*
G37*
G36*
X65729714Y-125202000D02*
G01*
X63229714Y-125202000D01*
X63229714Y-122702000D01*
X65729714Y-122702000D01*
X65729714Y-125202000D01*
X65729714Y-125202000D01*
G37*
G36*
X158258284Y-125202000D02*
G01*
X155758284Y-125202000D01*
X155758284Y-122702000D01*
X158258284Y-122702000D01*
X158258284Y-125202000D01*
X158258284Y-125202000D01*
G37*
G36*
X84235428Y-125202000D02*
G01*
X81735428Y-125202000D01*
X81735428Y-122702000D01*
X84235428Y-122702000D01*
X84235428Y-125202000D01*
X84235428Y-125202000D01*
G37*
G36*
X102741142Y-125202000D02*
G01*
X100241142Y-125202000D01*
X100241142Y-122702000D01*
X102741142Y-122702000D01*
X102741142Y-125202000D01*
X102741142Y-125202000D01*
G37*
G36*
X178350001Y-111224999D02*
G01*
X176600001Y-111224999D01*
X176600001Y-109474999D01*
X178350001Y-109474999D01*
X178350001Y-111224999D01*
X178350001Y-111224999D01*
G37*
G36*
X170550001Y-111224999D02*
G01*
X168800001Y-111224999D01*
X168800001Y-109474999D01*
X170550001Y-109474999D01*
X170550001Y-111224999D01*
X170550001Y-111224999D01*
G37*
G36*
X177730228Y-107008624D02*
G01*
X177889467Y-107074583D01*
X177889469Y-107074584D01*
X178032781Y-107170342D01*
X178154658Y-107292219D01*
X178154659Y-107292221D01*
X178250417Y-107435533D01*
X178316376Y-107594772D01*
X178350001Y-107763818D01*
X178350001Y-107936180D01*
X178316376Y-108105226D01*
X178250417Y-108264465D01*
X178250416Y-108264467D01*
X178154658Y-108407779D01*
X178032781Y-108529656D01*
X177889469Y-108625414D01*
X177889468Y-108625415D01*
X177889467Y-108625415D01*
X177730228Y-108691374D01*
X177561182Y-108724999D01*
X177388820Y-108724999D01*
X177219774Y-108691374D01*
X177060535Y-108625415D01*
X177060534Y-108625415D01*
X177060533Y-108625414D01*
X176917221Y-108529656D01*
X176795344Y-108407779D01*
X176699586Y-108264467D01*
X176699585Y-108264465D01*
X176633626Y-108105226D01*
X176600001Y-107936180D01*
X176600001Y-107763818D01*
X176633626Y-107594772D01*
X176699585Y-107435533D01*
X176795343Y-107292221D01*
X176795344Y-107292219D01*
X176917221Y-107170342D01*
X177060533Y-107074584D01*
X177060535Y-107074583D01*
X177219774Y-107008624D01*
X177388820Y-106974999D01*
X177561182Y-106974999D01*
X177730228Y-107008624D01*
X177730228Y-107008624D01*
G37*
G36*
X169930228Y-107008624D02*
G01*
X170089467Y-107074583D01*
X170089469Y-107074584D01*
X170232781Y-107170342D01*
X170354658Y-107292219D01*
X170354659Y-107292221D01*
X170450417Y-107435533D01*
X170516376Y-107594772D01*
X170550001Y-107763818D01*
X170550001Y-107936180D01*
X170516376Y-108105226D01*
X170450417Y-108264465D01*
X170450416Y-108264467D01*
X170354658Y-108407779D01*
X170232781Y-108529656D01*
X170089469Y-108625414D01*
X170089468Y-108625415D01*
X170089467Y-108625415D01*
X169930228Y-108691374D01*
X169761182Y-108724999D01*
X169588820Y-108724999D01*
X169419774Y-108691374D01*
X169260535Y-108625415D01*
X169260534Y-108625415D01*
X169260533Y-108625414D01*
X169117221Y-108529656D01*
X168995344Y-108407779D01*
X168899586Y-108264467D01*
X168899585Y-108264465D01*
X168833626Y-108105226D01*
X168800001Y-107936180D01*
X168800001Y-107763818D01*
X168833626Y-107594772D01*
X168899585Y-107435533D01*
X168995343Y-107292221D01*
X168995344Y-107292219D01*
X169117221Y-107170342D01*
X169260533Y-107074584D01*
X169260535Y-107074583D01*
X169419774Y-107008624D01*
X169588820Y-106974999D01*
X169761182Y-106974999D01*
X169930228Y-107008624D01*
X169930228Y-107008624D01*
G37*
G36*
X169930228Y-104508624D02*
G01*
X170089467Y-104574583D01*
X170089469Y-104574584D01*
X170232781Y-104670342D01*
X170354658Y-104792219D01*
X170354659Y-104792221D01*
X170450417Y-104935533D01*
X170516376Y-105094772D01*
X170550001Y-105263818D01*
X170550001Y-105436180D01*
X170516376Y-105605226D01*
X170450417Y-105764465D01*
X170450416Y-105764467D01*
X170354658Y-105907779D01*
X170232781Y-106029656D01*
X170089469Y-106125414D01*
X170089468Y-106125415D01*
X170089467Y-106125415D01*
X169930228Y-106191374D01*
X169761182Y-106224999D01*
X169588820Y-106224999D01*
X169419774Y-106191374D01*
X169260535Y-106125415D01*
X169260534Y-106125415D01*
X169260533Y-106125414D01*
X169117221Y-106029656D01*
X168995344Y-105907779D01*
X168899586Y-105764467D01*
X168899585Y-105764465D01*
X168833626Y-105605226D01*
X168800001Y-105436180D01*
X168800001Y-105263818D01*
X168833626Y-105094772D01*
X168899585Y-104935533D01*
X168995343Y-104792221D01*
X168995344Y-104792219D01*
X169117221Y-104670342D01*
X169260533Y-104574584D01*
X169260535Y-104574583D01*
X169419774Y-104508624D01*
X169588820Y-104474999D01*
X169761182Y-104474999D01*
X169930228Y-104508624D01*
X169930228Y-104508624D01*
G37*
G36*
X177730228Y-104508624D02*
G01*
X177889467Y-104574583D01*
X177889469Y-104574584D01*
X178032781Y-104670342D01*
X178154658Y-104792219D01*
X178154659Y-104792221D01*
X178250417Y-104935533D01*
X178316376Y-105094772D01*
X178350001Y-105263818D01*
X178350001Y-105436180D01*
X178316376Y-105605226D01*
X178250417Y-105764465D01*
X178250416Y-105764467D01*
X178154658Y-105907779D01*
X178032781Y-106029656D01*
X177889469Y-106125414D01*
X177889468Y-106125415D01*
X177889467Y-106125415D01*
X177730228Y-106191374D01*
X177561182Y-106224999D01*
X177388820Y-106224999D01*
X177219774Y-106191374D01*
X177060535Y-106125415D01*
X177060534Y-106125415D01*
X177060533Y-106125414D01*
X176917221Y-106029656D01*
X176795344Y-105907779D01*
X176699586Y-105764467D01*
X176699585Y-105764465D01*
X176633626Y-105605226D01*
X176600001Y-105436180D01*
X176600001Y-105263818D01*
X176633626Y-105094772D01*
X176699585Y-104935533D01*
X176795343Y-104792221D01*
X176795344Y-104792219D01*
X176917221Y-104670342D01*
X177060533Y-104574584D01*
X177060535Y-104574583D01*
X177219774Y-104508624D01*
X177388820Y-104474999D01*
X177561182Y-104474999D01*
X177730228Y-104508624D01*
X177730228Y-104508624D01*
G37*
G36*
X169930228Y-102008624D02*
G01*
X170089467Y-102074583D01*
X170089469Y-102074584D01*
X170232781Y-102170342D01*
X170354658Y-102292219D01*
X170354659Y-102292221D01*
X170450417Y-102435533D01*
X170516376Y-102594772D01*
X170550001Y-102763818D01*
X170550001Y-102936180D01*
X170516376Y-103105226D01*
X170450417Y-103264465D01*
X170450416Y-103264467D01*
X170354658Y-103407779D01*
X170232781Y-103529656D01*
X170089469Y-103625414D01*
X170089468Y-103625415D01*
X170089467Y-103625415D01*
X169930228Y-103691374D01*
X169761182Y-103724999D01*
X169588820Y-103724999D01*
X169419774Y-103691374D01*
X169260535Y-103625415D01*
X169260534Y-103625415D01*
X169260533Y-103625414D01*
X169117221Y-103529656D01*
X168995344Y-103407779D01*
X168899586Y-103264467D01*
X168899585Y-103264465D01*
X168833626Y-103105226D01*
X168800001Y-102936180D01*
X168800001Y-102763818D01*
X168833626Y-102594772D01*
X168899585Y-102435533D01*
X168995343Y-102292221D01*
X168995344Y-102292219D01*
X169117221Y-102170342D01*
X169260533Y-102074584D01*
X169260535Y-102074583D01*
X169419774Y-102008624D01*
X169588820Y-101974999D01*
X169761182Y-101974999D01*
X169930228Y-102008624D01*
X169930228Y-102008624D01*
G37*
G36*
X177730228Y-102008624D02*
G01*
X177889467Y-102074583D01*
X177889469Y-102074584D01*
X178032781Y-102170342D01*
X178154658Y-102292219D01*
X178154659Y-102292221D01*
X178250417Y-102435533D01*
X178316376Y-102594772D01*
X178350001Y-102763818D01*
X178350001Y-102936180D01*
X178316376Y-103105226D01*
X178250417Y-103264465D01*
X178250416Y-103264467D01*
X178154658Y-103407779D01*
X178032781Y-103529656D01*
X177889469Y-103625414D01*
X177889468Y-103625415D01*
X177889467Y-103625415D01*
X177730228Y-103691374D01*
X177561182Y-103724999D01*
X177388820Y-103724999D01*
X177219774Y-103691374D01*
X177060535Y-103625415D01*
X177060534Y-103625415D01*
X177060533Y-103625414D01*
X176917221Y-103529656D01*
X176795344Y-103407779D01*
X176699586Y-103264467D01*
X176699585Y-103264465D01*
X176633626Y-103105226D01*
X176600001Y-102936180D01*
X176600001Y-102763818D01*
X176633626Y-102594772D01*
X176699585Y-102435533D01*
X176795343Y-102292221D01*
X176795344Y-102292219D01*
X176917221Y-102170342D01*
X177060533Y-102074584D01*
X177060535Y-102074583D01*
X177219774Y-102008624D01*
X177388820Y-101974999D01*
X177561182Y-101974999D01*
X177730228Y-102008624D01*
X177730228Y-102008624D01*
G37*
G36*
X111672627Y-101016299D02*
G01*
X111752742Y-101040602D01*
X111832855Y-101064903D01*
X111832857Y-101064904D01*
X111980518Y-101143831D01*
X112109949Y-101250051D01*
X112216169Y-101379482D01*
X112295096Y-101527143D01*
X112343701Y-101687373D01*
X112360112Y-101854000D01*
X112343701Y-102020627D01*
X112295096Y-102180857D01*
X112216169Y-102328518D01*
X112109949Y-102457949D01*
X111980518Y-102564169D01*
X111923266Y-102594771D01*
X111832855Y-102643097D01*
X111752742Y-102667398D01*
X111672627Y-102691701D01*
X111547752Y-102704000D01*
X111464248Y-102704000D01*
X111339373Y-102691701D01*
X111259258Y-102667398D01*
X111179145Y-102643097D01*
X111088734Y-102594771D01*
X111031482Y-102564169D01*
X110902051Y-102457949D01*
X110795831Y-102328518D01*
X110716904Y-102180857D01*
X110668299Y-102020627D01*
X110651888Y-101854000D01*
X110668299Y-101687373D01*
X110716904Y-101527143D01*
X110795831Y-101379482D01*
X110902051Y-101250051D01*
X111031482Y-101143831D01*
X111179143Y-101064904D01*
X111179145Y-101064903D01*
X111259258Y-101040602D01*
X111339373Y-101016299D01*
X111464248Y-101004000D01*
X111547752Y-101004000D01*
X111672627Y-101016299D01*
X111672627Y-101016299D01*
G37*
G36*
X134532627Y-101016299D02*
G01*
X134612742Y-101040602D01*
X134692855Y-101064903D01*
X134692857Y-101064904D01*
X134840518Y-101143831D01*
X134969949Y-101250051D01*
X135076169Y-101379482D01*
X135155096Y-101527143D01*
X135203701Y-101687373D01*
X135220112Y-101854000D01*
X135203701Y-102020627D01*
X135155096Y-102180857D01*
X135076169Y-102328518D01*
X134969949Y-102457949D01*
X134840518Y-102564169D01*
X134783266Y-102594771D01*
X134692855Y-102643097D01*
X134612742Y-102667398D01*
X134532627Y-102691701D01*
X134407752Y-102704000D01*
X134324248Y-102704000D01*
X134199373Y-102691701D01*
X134119258Y-102667398D01*
X134039145Y-102643097D01*
X133948734Y-102594771D01*
X133891482Y-102564169D01*
X133762051Y-102457949D01*
X133655831Y-102328518D01*
X133576904Y-102180857D01*
X133528299Y-102020627D01*
X133511888Y-101854000D01*
X133528299Y-101687373D01*
X133576904Y-101527143D01*
X133655831Y-101379482D01*
X133762051Y-101250051D01*
X133891482Y-101143831D01*
X134039143Y-101064904D01*
X134039145Y-101064903D01*
X134119258Y-101040602D01*
X134199373Y-101016299D01*
X134324248Y-101004000D01*
X134407752Y-101004000D01*
X134532627Y-101016299D01*
X134532627Y-101016299D01*
G37*
G36*
X131992627Y-101016299D02*
G01*
X132072742Y-101040602D01*
X132152855Y-101064903D01*
X132152857Y-101064904D01*
X132300518Y-101143831D01*
X132429949Y-101250051D01*
X132536169Y-101379482D01*
X132615096Y-101527143D01*
X132663701Y-101687373D01*
X132680112Y-101854000D01*
X132663701Y-102020627D01*
X132615096Y-102180857D01*
X132536169Y-102328518D01*
X132429949Y-102457949D01*
X132300518Y-102564169D01*
X132243266Y-102594771D01*
X132152855Y-102643097D01*
X132072742Y-102667398D01*
X131992627Y-102691701D01*
X131867752Y-102704000D01*
X131784248Y-102704000D01*
X131659373Y-102691701D01*
X131579258Y-102667398D01*
X131499145Y-102643097D01*
X131408734Y-102594771D01*
X131351482Y-102564169D01*
X131222051Y-102457949D01*
X131115831Y-102328518D01*
X131036904Y-102180857D01*
X130988299Y-102020627D01*
X130971888Y-101854000D01*
X130988299Y-101687373D01*
X131036904Y-101527143D01*
X131115831Y-101379482D01*
X131222051Y-101250051D01*
X131351482Y-101143831D01*
X131499143Y-101064904D01*
X131499145Y-101064903D01*
X131579258Y-101040602D01*
X131659373Y-101016299D01*
X131784248Y-101004000D01*
X131867752Y-101004000D01*
X131992627Y-101016299D01*
X131992627Y-101016299D01*
G37*
G36*
X129452627Y-101016299D02*
G01*
X129532742Y-101040602D01*
X129612855Y-101064903D01*
X129612857Y-101064904D01*
X129760518Y-101143831D01*
X129889949Y-101250051D01*
X129996169Y-101379482D01*
X130075096Y-101527143D01*
X130123701Y-101687373D01*
X130140112Y-101854000D01*
X130123701Y-102020627D01*
X130075096Y-102180857D01*
X129996169Y-102328518D01*
X129889949Y-102457949D01*
X129760518Y-102564169D01*
X129703266Y-102594771D01*
X129612855Y-102643097D01*
X129532742Y-102667398D01*
X129452627Y-102691701D01*
X129327752Y-102704000D01*
X129244248Y-102704000D01*
X129119373Y-102691701D01*
X129039258Y-102667398D01*
X128959145Y-102643097D01*
X128868734Y-102594771D01*
X128811482Y-102564169D01*
X128682051Y-102457949D01*
X128575831Y-102328518D01*
X128496904Y-102180857D01*
X128448299Y-102020627D01*
X128431888Y-101854000D01*
X128448299Y-101687373D01*
X128496904Y-101527143D01*
X128575831Y-101379482D01*
X128682051Y-101250051D01*
X128811482Y-101143831D01*
X128959143Y-101064904D01*
X128959145Y-101064903D01*
X129039258Y-101040602D01*
X129119373Y-101016299D01*
X129244248Y-101004000D01*
X129327752Y-101004000D01*
X129452627Y-101016299D01*
X129452627Y-101016299D01*
G37*
G36*
X126912627Y-101016299D02*
G01*
X126992742Y-101040602D01*
X127072855Y-101064903D01*
X127072857Y-101064904D01*
X127220518Y-101143831D01*
X127349949Y-101250051D01*
X127456169Y-101379482D01*
X127535096Y-101527143D01*
X127583701Y-101687373D01*
X127600112Y-101854000D01*
X127583701Y-102020627D01*
X127535096Y-102180857D01*
X127456169Y-102328518D01*
X127349949Y-102457949D01*
X127220518Y-102564169D01*
X127163266Y-102594771D01*
X127072855Y-102643097D01*
X126992742Y-102667398D01*
X126912627Y-102691701D01*
X126787752Y-102704000D01*
X126704248Y-102704000D01*
X126579373Y-102691701D01*
X126499258Y-102667398D01*
X126419145Y-102643097D01*
X126328734Y-102594771D01*
X126271482Y-102564169D01*
X126142051Y-102457949D01*
X126035831Y-102328518D01*
X125956904Y-102180857D01*
X125908299Y-102020627D01*
X125891888Y-101854000D01*
X125908299Y-101687373D01*
X125956904Y-101527143D01*
X126035831Y-101379482D01*
X126142051Y-101250051D01*
X126271482Y-101143831D01*
X126419143Y-101064904D01*
X126419145Y-101064903D01*
X126499258Y-101040602D01*
X126579373Y-101016299D01*
X126704248Y-101004000D01*
X126787752Y-101004000D01*
X126912627Y-101016299D01*
X126912627Y-101016299D01*
G37*
G36*
X114212627Y-101016299D02*
G01*
X114292742Y-101040602D01*
X114372855Y-101064903D01*
X114372857Y-101064904D01*
X114520518Y-101143831D01*
X114649949Y-101250051D01*
X114756169Y-101379482D01*
X114835096Y-101527143D01*
X114883701Y-101687373D01*
X114900112Y-101854000D01*
X114883701Y-102020627D01*
X114835096Y-102180857D01*
X114756169Y-102328518D01*
X114649949Y-102457949D01*
X114520518Y-102564169D01*
X114463266Y-102594771D01*
X114372855Y-102643097D01*
X114292742Y-102667398D01*
X114212627Y-102691701D01*
X114087752Y-102704000D01*
X114004248Y-102704000D01*
X113879373Y-102691701D01*
X113799258Y-102667398D01*
X113719145Y-102643097D01*
X113628734Y-102594771D01*
X113571482Y-102564169D01*
X113442051Y-102457949D01*
X113335831Y-102328518D01*
X113256904Y-102180857D01*
X113208299Y-102020627D01*
X113191888Y-101854000D01*
X113208299Y-101687373D01*
X113256904Y-101527143D01*
X113335831Y-101379482D01*
X113442051Y-101250051D01*
X113571482Y-101143831D01*
X113719143Y-101064904D01*
X113719145Y-101064903D01*
X113799258Y-101040602D01*
X113879373Y-101016299D01*
X114004248Y-101004000D01*
X114087752Y-101004000D01*
X114212627Y-101016299D01*
X114212627Y-101016299D01*
G37*
G36*
X116752627Y-101016299D02*
G01*
X116832742Y-101040602D01*
X116912855Y-101064903D01*
X116912857Y-101064904D01*
X117060518Y-101143831D01*
X117189949Y-101250051D01*
X117296169Y-101379482D01*
X117375096Y-101527143D01*
X117423701Y-101687373D01*
X117440112Y-101854000D01*
X117423701Y-102020627D01*
X117375096Y-102180857D01*
X117296169Y-102328518D01*
X117189949Y-102457949D01*
X117060518Y-102564169D01*
X117003266Y-102594771D01*
X116912855Y-102643097D01*
X116832742Y-102667398D01*
X116752627Y-102691701D01*
X116627752Y-102704000D01*
X116544248Y-102704000D01*
X116419373Y-102691701D01*
X116339258Y-102667398D01*
X116259145Y-102643097D01*
X116168734Y-102594771D01*
X116111482Y-102564169D01*
X115982051Y-102457949D01*
X115875831Y-102328518D01*
X115796904Y-102180857D01*
X115748299Y-102020627D01*
X115731888Y-101854000D01*
X115748299Y-101687373D01*
X115796904Y-101527143D01*
X115875831Y-101379482D01*
X115982051Y-101250051D01*
X116111482Y-101143831D01*
X116259143Y-101064904D01*
X116259145Y-101064903D01*
X116339258Y-101040602D01*
X116419373Y-101016299D01*
X116544248Y-101004000D01*
X116627752Y-101004000D01*
X116752627Y-101016299D01*
X116752627Y-101016299D01*
G37*
G36*
X119292627Y-101016299D02*
G01*
X119372742Y-101040602D01*
X119452855Y-101064903D01*
X119452857Y-101064904D01*
X119600518Y-101143831D01*
X119729949Y-101250051D01*
X119836169Y-101379482D01*
X119915096Y-101527143D01*
X119963701Y-101687373D01*
X119980112Y-101854000D01*
X119963701Y-102020627D01*
X119915096Y-102180857D01*
X119836169Y-102328518D01*
X119729949Y-102457949D01*
X119600518Y-102564169D01*
X119543266Y-102594771D01*
X119452855Y-102643097D01*
X119372742Y-102667398D01*
X119292627Y-102691701D01*
X119167752Y-102704000D01*
X119084248Y-102704000D01*
X118959373Y-102691701D01*
X118879258Y-102667398D01*
X118799145Y-102643097D01*
X118708734Y-102594771D01*
X118651482Y-102564169D01*
X118522051Y-102457949D01*
X118415831Y-102328518D01*
X118336904Y-102180857D01*
X118288299Y-102020627D01*
X118271888Y-101854000D01*
X118288299Y-101687373D01*
X118336904Y-101527143D01*
X118415831Y-101379482D01*
X118522051Y-101250051D01*
X118651482Y-101143831D01*
X118799143Y-101064904D01*
X118799145Y-101064903D01*
X118879258Y-101040602D01*
X118959373Y-101016299D01*
X119084248Y-101004000D01*
X119167752Y-101004000D01*
X119292627Y-101016299D01*
X119292627Y-101016299D01*
G37*
G36*
X121832627Y-101016299D02*
G01*
X121912742Y-101040602D01*
X121992855Y-101064903D01*
X121992857Y-101064904D01*
X122140518Y-101143831D01*
X122269949Y-101250051D01*
X122376169Y-101379482D01*
X122455096Y-101527143D01*
X122503701Y-101687373D01*
X122520112Y-101854000D01*
X122503701Y-102020627D01*
X122455096Y-102180857D01*
X122376169Y-102328518D01*
X122269949Y-102457949D01*
X122140518Y-102564169D01*
X122083266Y-102594771D01*
X121992855Y-102643097D01*
X121912742Y-102667398D01*
X121832627Y-102691701D01*
X121707752Y-102704000D01*
X121624248Y-102704000D01*
X121499373Y-102691701D01*
X121419258Y-102667398D01*
X121339145Y-102643097D01*
X121248734Y-102594771D01*
X121191482Y-102564169D01*
X121062051Y-102457949D01*
X120955831Y-102328518D01*
X120876904Y-102180857D01*
X120828299Y-102020627D01*
X120811888Y-101854000D01*
X120828299Y-101687373D01*
X120876904Y-101527143D01*
X120955831Y-101379482D01*
X121062051Y-101250051D01*
X121191482Y-101143831D01*
X121339143Y-101064904D01*
X121339145Y-101064903D01*
X121419258Y-101040602D01*
X121499373Y-101016299D01*
X121624248Y-101004000D01*
X121707752Y-101004000D01*
X121832627Y-101016299D01*
X121832627Y-101016299D01*
G37*
G36*
X124372627Y-101016299D02*
G01*
X124452742Y-101040602D01*
X124532855Y-101064903D01*
X124532857Y-101064904D01*
X124680518Y-101143831D01*
X124809949Y-101250051D01*
X124916169Y-101379482D01*
X124995096Y-101527143D01*
X125043701Y-101687373D01*
X125060112Y-101854000D01*
X125043701Y-102020627D01*
X124995096Y-102180857D01*
X124916169Y-102328518D01*
X124809949Y-102457949D01*
X124680518Y-102564169D01*
X124623266Y-102594771D01*
X124532855Y-102643097D01*
X124452742Y-102667398D01*
X124372627Y-102691701D01*
X124247752Y-102704000D01*
X124164248Y-102704000D01*
X124039373Y-102691701D01*
X123959258Y-102667398D01*
X123879145Y-102643097D01*
X123788734Y-102594771D01*
X123731482Y-102564169D01*
X123602051Y-102457949D01*
X123495831Y-102328518D01*
X123416904Y-102180857D01*
X123368299Y-102020627D01*
X123351888Y-101854000D01*
X123368299Y-101687373D01*
X123416904Y-101527143D01*
X123495831Y-101379482D01*
X123602051Y-101250051D01*
X123731482Y-101143831D01*
X123879143Y-101064904D01*
X123879145Y-101064903D01*
X123959258Y-101040602D01*
X124039373Y-101016299D01*
X124164248Y-101004000D01*
X124247752Y-101004000D01*
X124372627Y-101016299D01*
X124372627Y-101016299D01*
G37*
G36*
X88812627Y-101016299D02*
G01*
X88892742Y-101040602D01*
X88972855Y-101064903D01*
X88972857Y-101064904D01*
X89120518Y-101143831D01*
X89249949Y-101250051D01*
X89356169Y-101379482D01*
X89435096Y-101527143D01*
X89483701Y-101687373D01*
X89500112Y-101854000D01*
X89483701Y-102020627D01*
X89435096Y-102180857D01*
X89356169Y-102328518D01*
X89249949Y-102457949D01*
X89120518Y-102564169D01*
X89063266Y-102594771D01*
X88972855Y-102643097D01*
X88892742Y-102667398D01*
X88812627Y-102691701D01*
X88687752Y-102704000D01*
X88604248Y-102704000D01*
X88479373Y-102691701D01*
X88399258Y-102667398D01*
X88319145Y-102643097D01*
X88228734Y-102594771D01*
X88171482Y-102564169D01*
X88042051Y-102457949D01*
X87935831Y-102328518D01*
X87856904Y-102180857D01*
X87808299Y-102020627D01*
X87791888Y-101854000D01*
X87808299Y-101687373D01*
X87856904Y-101527143D01*
X87935831Y-101379482D01*
X88042051Y-101250051D01*
X88171482Y-101143831D01*
X88319143Y-101064904D01*
X88319145Y-101064903D01*
X88399258Y-101040602D01*
X88479373Y-101016299D01*
X88604248Y-101004000D01*
X88687752Y-101004000D01*
X88812627Y-101016299D01*
X88812627Y-101016299D01*
G37*
G36*
X91352627Y-101016299D02*
G01*
X91432742Y-101040602D01*
X91512855Y-101064903D01*
X91512857Y-101064904D01*
X91660518Y-101143831D01*
X91789949Y-101250051D01*
X91896169Y-101379482D01*
X91975096Y-101527143D01*
X92023701Y-101687373D01*
X92040112Y-101854000D01*
X92023701Y-102020627D01*
X91975096Y-102180857D01*
X91896169Y-102328518D01*
X91789949Y-102457949D01*
X91660518Y-102564169D01*
X91603266Y-102594771D01*
X91512855Y-102643097D01*
X91432742Y-102667398D01*
X91352627Y-102691701D01*
X91227752Y-102704000D01*
X91144248Y-102704000D01*
X91019373Y-102691701D01*
X90939258Y-102667398D01*
X90859145Y-102643097D01*
X90768734Y-102594771D01*
X90711482Y-102564169D01*
X90582051Y-102457949D01*
X90475831Y-102328518D01*
X90396904Y-102180857D01*
X90348299Y-102020627D01*
X90331888Y-101854000D01*
X90348299Y-101687373D01*
X90396904Y-101527143D01*
X90475831Y-101379482D01*
X90582051Y-101250051D01*
X90711482Y-101143831D01*
X90859143Y-101064904D01*
X90859145Y-101064903D01*
X90939258Y-101040602D01*
X91019373Y-101016299D01*
X91144248Y-101004000D01*
X91227752Y-101004000D01*
X91352627Y-101016299D01*
X91352627Y-101016299D01*
G37*
G36*
X93892627Y-101016299D02*
G01*
X93972742Y-101040602D01*
X94052855Y-101064903D01*
X94052857Y-101064904D01*
X94200518Y-101143831D01*
X94329949Y-101250051D01*
X94436169Y-101379482D01*
X94515096Y-101527143D01*
X94563701Y-101687373D01*
X94580112Y-101854000D01*
X94563701Y-102020627D01*
X94515096Y-102180857D01*
X94436169Y-102328518D01*
X94329949Y-102457949D01*
X94200518Y-102564169D01*
X94143266Y-102594771D01*
X94052855Y-102643097D01*
X93972742Y-102667398D01*
X93892627Y-102691701D01*
X93767752Y-102704000D01*
X93684248Y-102704000D01*
X93559373Y-102691701D01*
X93479258Y-102667398D01*
X93399145Y-102643097D01*
X93308734Y-102594771D01*
X93251482Y-102564169D01*
X93122051Y-102457949D01*
X93015831Y-102328518D01*
X92936904Y-102180857D01*
X92888299Y-102020627D01*
X92871888Y-101854000D01*
X92888299Y-101687373D01*
X92936904Y-101527143D01*
X93015831Y-101379482D01*
X93122051Y-101250051D01*
X93251482Y-101143831D01*
X93399143Y-101064904D01*
X93399145Y-101064903D01*
X93479258Y-101040602D01*
X93559373Y-101016299D01*
X93684248Y-101004000D01*
X93767752Y-101004000D01*
X93892627Y-101016299D01*
X93892627Y-101016299D01*
G37*
G36*
X96432627Y-101016299D02*
G01*
X96512742Y-101040602D01*
X96592855Y-101064903D01*
X96592857Y-101064904D01*
X96740518Y-101143831D01*
X96869949Y-101250051D01*
X96976169Y-101379482D01*
X97055096Y-101527143D01*
X97103701Y-101687373D01*
X97120112Y-101854000D01*
X97103701Y-102020627D01*
X97055096Y-102180857D01*
X96976169Y-102328518D01*
X96869949Y-102457949D01*
X96740518Y-102564169D01*
X96683266Y-102594771D01*
X96592855Y-102643097D01*
X96512742Y-102667398D01*
X96432627Y-102691701D01*
X96307752Y-102704000D01*
X96224248Y-102704000D01*
X96099373Y-102691701D01*
X96019258Y-102667398D01*
X95939145Y-102643097D01*
X95848734Y-102594771D01*
X95791482Y-102564169D01*
X95662051Y-102457949D01*
X95555831Y-102328518D01*
X95476904Y-102180857D01*
X95428299Y-102020627D01*
X95411888Y-101854000D01*
X95428299Y-101687373D01*
X95476904Y-101527143D01*
X95555831Y-101379482D01*
X95662051Y-101250051D01*
X95791482Y-101143831D01*
X95939143Y-101064904D01*
X95939145Y-101064903D01*
X96019258Y-101040602D01*
X96099373Y-101016299D01*
X96224248Y-101004000D01*
X96307752Y-101004000D01*
X96432627Y-101016299D01*
X96432627Y-101016299D01*
G37*
G36*
X98972627Y-101016299D02*
G01*
X99052742Y-101040602D01*
X99132855Y-101064903D01*
X99132857Y-101064904D01*
X99280518Y-101143831D01*
X99409949Y-101250051D01*
X99516169Y-101379482D01*
X99595096Y-101527143D01*
X99643701Y-101687373D01*
X99660112Y-101854000D01*
X99643701Y-102020627D01*
X99595096Y-102180857D01*
X99516169Y-102328518D01*
X99409949Y-102457949D01*
X99280518Y-102564169D01*
X99223266Y-102594771D01*
X99132855Y-102643097D01*
X99052742Y-102667398D01*
X98972627Y-102691701D01*
X98847752Y-102704000D01*
X98764248Y-102704000D01*
X98639373Y-102691701D01*
X98559258Y-102667398D01*
X98479145Y-102643097D01*
X98388734Y-102594771D01*
X98331482Y-102564169D01*
X98202051Y-102457949D01*
X98095831Y-102328518D01*
X98016904Y-102180857D01*
X97968299Y-102020627D01*
X97951888Y-101854000D01*
X97968299Y-101687373D01*
X98016904Y-101527143D01*
X98095831Y-101379482D01*
X98202051Y-101250051D01*
X98331482Y-101143831D01*
X98479143Y-101064904D01*
X98479145Y-101064903D01*
X98559258Y-101040602D01*
X98639373Y-101016299D01*
X98764248Y-101004000D01*
X98847752Y-101004000D01*
X98972627Y-101016299D01*
X98972627Y-101016299D01*
G37*
G36*
X101512627Y-101016299D02*
G01*
X101592742Y-101040602D01*
X101672855Y-101064903D01*
X101672857Y-101064904D01*
X101820518Y-101143831D01*
X101949949Y-101250051D01*
X102056169Y-101379482D01*
X102135096Y-101527143D01*
X102183701Y-101687373D01*
X102200112Y-101854000D01*
X102183701Y-102020627D01*
X102135096Y-102180857D01*
X102056169Y-102328518D01*
X101949949Y-102457949D01*
X101820518Y-102564169D01*
X101763266Y-102594771D01*
X101672855Y-102643097D01*
X101592742Y-102667398D01*
X101512627Y-102691701D01*
X101387752Y-102704000D01*
X101304248Y-102704000D01*
X101179373Y-102691701D01*
X101099258Y-102667398D01*
X101019145Y-102643097D01*
X100928734Y-102594771D01*
X100871482Y-102564169D01*
X100742051Y-102457949D01*
X100635831Y-102328518D01*
X100556904Y-102180857D01*
X100508299Y-102020627D01*
X100491888Y-101854000D01*
X100508299Y-101687373D01*
X100556904Y-101527143D01*
X100635831Y-101379482D01*
X100742051Y-101250051D01*
X100871482Y-101143831D01*
X101019143Y-101064904D01*
X101019145Y-101064903D01*
X101099258Y-101040602D01*
X101179373Y-101016299D01*
X101304248Y-101004000D01*
X101387752Y-101004000D01*
X101512627Y-101016299D01*
X101512627Y-101016299D01*
G37*
G36*
X104052627Y-101016299D02*
G01*
X104132742Y-101040602D01*
X104212855Y-101064903D01*
X104212857Y-101064904D01*
X104360518Y-101143831D01*
X104489949Y-101250051D01*
X104596169Y-101379482D01*
X104675096Y-101527143D01*
X104723701Y-101687373D01*
X104740112Y-101854000D01*
X104723701Y-102020627D01*
X104675096Y-102180857D01*
X104596169Y-102328518D01*
X104489949Y-102457949D01*
X104360518Y-102564169D01*
X104303266Y-102594771D01*
X104212855Y-102643097D01*
X104132742Y-102667398D01*
X104052627Y-102691701D01*
X103927752Y-102704000D01*
X103844248Y-102704000D01*
X103719373Y-102691701D01*
X103639258Y-102667398D01*
X103559145Y-102643097D01*
X103468734Y-102594771D01*
X103411482Y-102564169D01*
X103282051Y-102457949D01*
X103175831Y-102328518D01*
X103096904Y-102180857D01*
X103048299Y-102020627D01*
X103031888Y-101854000D01*
X103048299Y-101687373D01*
X103096904Y-101527143D01*
X103175831Y-101379482D01*
X103282051Y-101250051D01*
X103411482Y-101143831D01*
X103559143Y-101064904D01*
X103559145Y-101064903D01*
X103639258Y-101040602D01*
X103719373Y-101016299D01*
X103844248Y-101004000D01*
X103927752Y-101004000D01*
X104052627Y-101016299D01*
X104052627Y-101016299D01*
G37*
G36*
X106592627Y-101016299D02*
G01*
X106672742Y-101040602D01*
X106752855Y-101064903D01*
X106752857Y-101064904D01*
X106900518Y-101143831D01*
X107029949Y-101250051D01*
X107136169Y-101379482D01*
X107215096Y-101527143D01*
X107263701Y-101687373D01*
X107280112Y-101854000D01*
X107263701Y-102020627D01*
X107215096Y-102180857D01*
X107136169Y-102328518D01*
X107029949Y-102457949D01*
X106900518Y-102564169D01*
X106843266Y-102594771D01*
X106752855Y-102643097D01*
X106672742Y-102667398D01*
X106592627Y-102691701D01*
X106467752Y-102704000D01*
X106384248Y-102704000D01*
X106259373Y-102691701D01*
X106179258Y-102667398D01*
X106099145Y-102643097D01*
X106008734Y-102594771D01*
X105951482Y-102564169D01*
X105822051Y-102457949D01*
X105715831Y-102328518D01*
X105636904Y-102180857D01*
X105588299Y-102020627D01*
X105571888Y-101854000D01*
X105588299Y-101687373D01*
X105636904Y-101527143D01*
X105715831Y-101379482D01*
X105822051Y-101250051D01*
X105951482Y-101143831D01*
X106099143Y-101064904D01*
X106099145Y-101064903D01*
X106179258Y-101040602D01*
X106259373Y-101016299D01*
X106384248Y-101004000D01*
X106467752Y-101004000D01*
X106592627Y-101016299D01*
X106592627Y-101016299D01*
G37*
G36*
X109132627Y-101016299D02*
G01*
X109212742Y-101040602D01*
X109292855Y-101064903D01*
X109292857Y-101064904D01*
X109440518Y-101143831D01*
X109569949Y-101250051D01*
X109676169Y-101379482D01*
X109755096Y-101527143D01*
X109803701Y-101687373D01*
X109820112Y-101854000D01*
X109803701Y-102020627D01*
X109755096Y-102180857D01*
X109676169Y-102328518D01*
X109569949Y-102457949D01*
X109440518Y-102564169D01*
X109383266Y-102594771D01*
X109292855Y-102643097D01*
X109212742Y-102667398D01*
X109132627Y-102691701D01*
X109007752Y-102704000D01*
X108924248Y-102704000D01*
X108799373Y-102691701D01*
X108719258Y-102667398D01*
X108639145Y-102643097D01*
X108548734Y-102594771D01*
X108491482Y-102564169D01*
X108362051Y-102457949D01*
X108255831Y-102328518D01*
X108176904Y-102180857D01*
X108128299Y-102020627D01*
X108111888Y-101854000D01*
X108128299Y-101687373D01*
X108176904Y-101527143D01*
X108255831Y-101379482D01*
X108362051Y-101250051D01*
X108491482Y-101143831D01*
X108639143Y-101064904D01*
X108639145Y-101064903D01*
X108719258Y-101040602D01*
X108799373Y-101016299D01*
X108924248Y-101004000D01*
X109007752Y-101004000D01*
X109132627Y-101016299D01*
X109132627Y-101016299D01*
G37*
G36*
X137756000Y-102704000D02*
G01*
X136056000Y-102704000D01*
X136056000Y-101004000D01*
X137756000Y-101004000D01*
X137756000Y-102704000D01*
X137756000Y-102704000D01*
G37*
G36*
X101512627Y-98476299D02*
G01*
X101592742Y-98500601D01*
X101672855Y-98524903D01*
X101672857Y-98524904D01*
X101820518Y-98603831D01*
X101949949Y-98710051D01*
X102056169Y-98839482D01*
X102135096Y-98987143D01*
X102183701Y-99147373D01*
X102200112Y-99314000D01*
X102183701Y-99480627D01*
X102135096Y-99640857D01*
X102056169Y-99788518D01*
X101949949Y-99917949D01*
X101820518Y-100024169D01*
X101672857Y-100103096D01*
X101672855Y-100103097D01*
X101592742Y-100127399D01*
X101512627Y-100151701D01*
X101387752Y-100164000D01*
X101304248Y-100164000D01*
X101179373Y-100151701D01*
X101099258Y-100127399D01*
X101019145Y-100103097D01*
X101019143Y-100103096D01*
X100871482Y-100024169D01*
X100742051Y-99917949D01*
X100635831Y-99788518D01*
X100556904Y-99640857D01*
X100508299Y-99480627D01*
X100491888Y-99314000D01*
X100508299Y-99147373D01*
X100556904Y-98987143D01*
X100635831Y-98839482D01*
X100742051Y-98710051D01*
X100871482Y-98603831D01*
X101019143Y-98524904D01*
X101019145Y-98524903D01*
X101099258Y-98500601D01*
X101179373Y-98476299D01*
X101304248Y-98464000D01*
X101387752Y-98464000D01*
X101512627Y-98476299D01*
X101512627Y-98476299D01*
G37*
G36*
X134532627Y-98476299D02*
G01*
X134612742Y-98500601D01*
X134692855Y-98524903D01*
X134692857Y-98524904D01*
X134840518Y-98603831D01*
X134969949Y-98710051D01*
X135076169Y-98839482D01*
X135155096Y-98987143D01*
X135203701Y-99147373D01*
X135220112Y-99314000D01*
X135203701Y-99480627D01*
X135155096Y-99640857D01*
X135076169Y-99788518D01*
X134969949Y-99917949D01*
X134840518Y-100024169D01*
X134692857Y-100103096D01*
X134692855Y-100103097D01*
X134612742Y-100127399D01*
X134532627Y-100151701D01*
X134407752Y-100164000D01*
X134324248Y-100164000D01*
X134199373Y-100151701D01*
X134119258Y-100127399D01*
X134039145Y-100103097D01*
X134039143Y-100103096D01*
X133891482Y-100024169D01*
X133762051Y-99917949D01*
X133655831Y-99788518D01*
X133576904Y-99640857D01*
X133528299Y-99480627D01*
X133511888Y-99314000D01*
X133528299Y-99147373D01*
X133576904Y-98987143D01*
X133655831Y-98839482D01*
X133762051Y-98710051D01*
X133891482Y-98603831D01*
X134039143Y-98524904D01*
X134039145Y-98524903D01*
X134119258Y-98500601D01*
X134199373Y-98476299D01*
X134324248Y-98464000D01*
X134407752Y-98464000D01*
X134532627Y-98476299D01*
X134532627Y-98476299D01*
G37*
G36*
X116752627Y-98476299D02*
G01*
X116832742Y-98500601D01*
X116912855Y-98524903D01*
X116912857Y-98524904D01*
X117060518Y-98603831D01*
X117189949Y-98710051D01*
X117296169Y-98839482D01*
X117375096Y-98987143D01*
X117423701Y-99147373D01*
X117440112Y-99314000D01*
X117423701Y-99480627D01*
X117375096Y-99640857D01*
X117296169Y-99788518D01*
X117189949Y-99917949D01*
X117060518Y-100024169D01*
X116912857Y-100103096D01*
X116912855Y-100103097D01*
X116832742Y-100127399D01*
X116752627Y-100151701D01*
X116627752Y-100164000D01*
X116544248Y-100164000D01*
X116419373Y-100151701D01*
X116339258Y-100127399D01*
X116259145Y-100103097D01*
X116259143Y-100103096D01*
X116111482Y-100024169D01*
X115982051Y-99917949D01*
X115875831Y-99788518D01*
X115796904Y-99640857D01*
X115748299Y-99480627D01*
X115731888Y-99314000D01*
X115748299Y-99147373D01*
X115796904Y-98987143D01*
X115875831Y-98839482D01*
X115982051Y-98710051D01*
X116111482Y-98603831D01*
X116259143Y-98524904D01*
X116259145Y-98524903D01*
X116339258Y-98500601D01*
X116419373Y-98476299D01*
X116544248Y-98464000D01*
X116627752Y-98464000D01*
X116752627Y-98476299D01*
X116752627Y-98476299D01*
G37*
G36*
X119292627Y-98476299D02*
G01*
X119372742Y-98500601D01*
X119452855Y-98524903D01*
X119452857Y-98524904D01*
X119600518Y-98603831D01*
X119729949Y-98710051D01*
X119836169Y-98839482D01*
X119915096Y-98987143D01*
X119963701Y-99147373D01*
X119980112Y-99314000D01*
X119963701Y-99480627D01*
X119915096Y-99640857D01*
X119836169Y-99788518D01*
X119729949Y-99917949D01*
X119600518Y-100024169D01*
X119452857Y-100103096D01*
X119452855Y-100103097D01*
X119372742Y-100127399D01*
X119292627Y-100151701D01*
X119167752Y-100164000D01*
X119084248Y-100164000D01*
X118959373Y-100151701D01*
X118879258Y-100127399D01*
X118799145Y-100103097D01*
X118799143Y-100103096D01*
X118651482Y-100024169D01*
X118522051Y-99917949D01*
X118415831Y-99788518D01*
X118336904Y-99640857D01*
X118288299Y-99480627D01*
X118271888Y-99314000D01*
X118288299Y-99147373D01*
X118336904Y-98987143D01*
X118415831Y-98839482D01*
X118522051Y-98710051D01*
X118651482Y-98603831D01*
X118799143Y-98524904D01*
X118799145Y-98524903D01*
X118879258Y-98500601D01*
X118959373Y-98476299D01*
X119084248Y-98464000D01*
X119167752Y-98464000D01*
X119292627Y-98476299D01*
X119292627Y-98476299D01*
G37*
G36*
X121832627Y-98476299D02*
G01*
X121912742Y-98500601D01*
X121992855Y-98524903D01*
X121992857Y-98524904D01*
X122140518Y-98603831D01*
X122269949Y-98710051D01*
X122376169Y-98839482D01*
X122455096Y-98987143D01*
X122503701Y-99147373D01*
X122520112Y-99314000D01*
X122503701Y-99480627D01*
X122455096Y-99640857D01*
X122376169Y-99788518D01*
X122269949Y-99917949D01*
X122140518Y-100024169D01*
X121992857Y-100103096D01*
X121992855Y-100103097D01*
X121912742Y-100127399D01*
X121832627Y-100151701D01*
X121707752Y-100164000D01*
X121624248Y-100164000D01*
X121499373Y-100151701D01*
X121419258Y-100127399D01*
X121339145Y-100103097D01*
X121339143Y-100103096D01*
X121191482Y-100024169D01*
X121062051Y-99917949D01*
X120955831Y-99788518D01*
X120876904Y-99640857D01*
X120828299Y-99480627D01*
X120811888Y-99314000D01*
X120828299Y-99147373D01*
X120876904Y-98987143D01*
X120955831Y-98839482D01*
X121062051Y-98710051D01*
X121191482Y-98603831D01*
X121339143Y-98524904D01*
X121339145Y-98524903D01*
X121419258Y-98500601D01*
X121499373Y-98476299D01*
X121624248Y-98464000D01*
X121707752Y-98464000D01*
X121832627Y-98476299D01*
X121832627Y-98476299D01*
G37*
G36*
X124372627Y-98476299D02*
G01*
X124452742Y-98500601D01*
X124532855Y-98524903D01*
X124532857Y-98524904D01*
X124680518Y-98603831D01*
X124809949Y-98710051D01*
X124916169Y-98839482D01*
X124995096Y-98987143D01*
X125043701Y-99147373D01*
X125060112Y-99314000D01*
X125043701Y-99480627D01*
X124995096Y-99640857D01*
X124916169Y-99788518D01*
X124809949Y-99917949D01*
X124680518Y-100024169D01*
X124532857Y-100103096D01*
X124532855Y-100103097D01*
X124452742Y-100127399D01*
X124372627Y-100151701D01*
X124247752Y-100164000D01*
X124164248Y-100164000D01*
X124039373Y-100151701D01*
X123959258Y-100127399D01*
X123879145Y-100103097D01*
X123879143Y-100103096D01*
X123731482Y-100024169D01*
X123602051Y-99917949D01*
X123495831Y-99788518D01*
X123416904Y-99640857D01*
X123368299Y-99480627D01*
X123351888Y-99314000D01*
X123368299Y-99147373D01*
X123416904Y-98987143D01*
X123495831Y-98839482D01*
X123602051Y-98710051D01*
X123731482Y-98603831D01*
X123879143Y-98524904D01*
X123879145Y-98524903D01*
X123959258Y-98500601D01*
X124039373Y-98476299D01*
X124164248Y-98464000D01*
X124247752Y-98464000D01*
X124372627Y-98476299D01*
X124372627Y-98476299D01*
G37*
G36*
X129452627Y-98476299D02*
G01*
X129532742Y-98500601D01*
X129612855Y-98524903D01*
X129612857Y-98524904D01*
X129760518Y-98603831D01*
X129889949Y-98710051D01*
X129996169Y-98839482D01*
X130075096Y-98987143D01*
X130123701Y-99147373D01*
X130140112Y-99314000D01*
X130123701Y-99480627D01*
X130075096Y-99640857D01*
X129996169Y-99788518D01*
X129889949Y-99917949D01*
X129760518Y-100024169D01*
X129612857Y-100103096D01*
X129612855Y-100103097D01*
X129532742Y-100127399D01*
X129452627Y-100151701D01*
X129327752Y-100164000D01*
X129244248Y-100164000D01*
X129119373Y-100151701D01*
X129039258Y-100127399D01*
X128959145Y-100103097D01*
X128959143Y-100103096D01*
X128811482Y-100024169D01*
X128682051Y-99917949D01*
X128575831Y-99788518D01*
X128496904Y-99640857D01*
X128448299Y-99480627D01*
X128431888Y-99314000D01*
X128448299Y-99147373D01*
X128496904Y-98987143D01*
X128575831Y-98839482D01*
X128682051Y-98710051D01*
X128811482Y-98603831D01*
X128959143Y-98524904D01*
X128959145Y-98524903D01*
X129039258Y-98500601D01*
X129119373Y-98476299D01*
X129244248Y-98464000D01*
X129327752Y-98464000D01*
X129452627Y-98476299D01*
X129452627Y-98476299D01*
G37*
G36*
X131992627Y-98476299D02*
G01*
X132072742Y-98500601D01*
X132152855Y-98524903D01*
X132152857Y-98524904D01*
X132300518Y-98603831D01*
X132429949Y-98710051D01*
X132536169Y-98839482D01*
X132615096Y-98987143D01*
X132663701Y-99147373D01*
X132680112Y-99314000D01*
X132663701Y-99480627D01*
X132615096Y-99640857D01*
X132536169Y-99788518D01*
X132429949Y-99917949D01*
X132300518Y-100024169D01*
X132152857Y-100103096D01*
X132152855Y-100103097D01*
X132072742Y-100127399D01*
X131992627Y-100151701D01*
X131867752Y-100164000D01*
X131784248Y-100164000D01*
X131659373Y-100151701D01*
X131579258Y-100127399D01*
X131499145Y-100103097D01*
X131499143Y-100103096D01*
X131351482Y-100024169D01*
X131222051Y-99917949D01*
X131115831Y-99788518D01*
X131036904Y-99640857D01*
X130988299Y-99480627D01*
X130971888Y-99314000D01*
X130988299Y-99147373D01*
X131036904Y-98987143D01*
X131115831Y-98839482D01*
X131222051Y-98710051D01*
X131351482Y-98603831D01*
X131499143Y-98524904D01*
X131499145Y-98524903D01*
X131579258Y-98500601D01*
X131659373Y-98476299D01*
X131784248Y-98464000D01*
X131867752Y-98464000D01*
X131992627Y-98476299D01*
X131992627Y-98476299D01*
G37*
G36*
X137072627Y-98476299D02*
G01*
X137152742Y-98500601D01*
X137232855Y-98524903D01*
X137232857Y-98524904D01*
X137380518Y-98603831D01*
X137509949Y-98710051D01*
X137616169Y-98839482D01*
X137695096Y-98987143D01*
X137743701Y-99147373D01*
X137760112Y-99314000D01*
X137743701Y-99480627D01*
X137695096Y-99640857D01*
X137616169Y-99788518D01*
X137509949Y-99917949D01*
X137380518Y-100024169D01*
X137232857Y-100103096D01*
X137232855Y-100103097D01*
X137152742Y-100127399D01*
X137072627Y-100151701D01*
X136947752Y-100164000D01*
X136864248Y-100164000D01*
X136739373Y-100151701D01*
X136659258Y-100127399D01*
X136579145Y-100103097D01*
X136579143Y-100103096D01*
X136431482Y-100024169D01*
X136302051Y-99917949D01*
X136195831Y-99788518D01*
X136116904Y-99640857D01*
X136068299Y-99480627D01*
X136051888Y-99314000D01*
X136068299Y-99147373D01*
X136116904Y-98987143D01*
X136195831Y-98839482D01*
X136302051Y-98710051D01*
X136431482Y-98603831D01*
X136579143Y-98524904D01*
X136579145Y-98524903D01*
X136659258Y-98500601D01*
X136739373Y-98476299D01*
X136864248Y-98464000D01*
X136947752Y-98464000D01*
X137072627Y-98476299D01*
X137072627Y-98476299D01*
G37*
G36*
X114212627Y-98476299D02*
G01*
X114292742Y-98500601D01*
X114372855Y-98524903D01*
X114372857Y-98524904D01*
X114520518Y-98603831D01*
X114649949Y-98710051D01*
X114756169Y-98839482D01*
X114835096Y-98987143D01*
X114883701Y-99147373D01*
X114900112Y-99314000D01*
X114883701Y-99480627D01*
X114835096Y-99640857D01*
X114756169Y-99788518D01*
X114649949Y-99917949D01*
X114520518Y-100024169D01*
X114372857Y-100103096D01*
X114372855Y-100103097D01*
X114292742Y-100127399D01*
X114212627Y-100151701D01*
X114087752Y-100164000D01*
X114004248Y-100164000D01*
X113879373Y-100151701D01*
X113799258Y-100127399D01*
X113719145Y-100103097D01*
X113719143Y-100103096D01*
X113571482Y-100024169D01*
X113442051Y-99917949D01*
X113335831Y-99788518D01*
X113256904Y-99640857D01*
X113208299Y-99480627D01*
X113191888Y-99314000D01*
X113208299Y-99147373D01*
X113256904Y-98987143D01*
X113335831Y-98839482D01*
X113442051Y-98710051D01*
X113571482Y-98603831D01*
X113719143Y-98524904D01*
X113719145Y-98524903D01*
X113799258Y-98500601D01*
X113879373Y-98476299D01*
X114004248Y-98464000D01*
X114087752Y-98464000D01*
X114212627Y-98476299D01*
X114212627Y-98476299D01*
G37*
G36*
X88812627Y-98476299D02*
G01*
X88892742Y-98500601D01*
X88972855Y-98524903D01*
X88972857Y-98524904D01*
X89120518Y-98603831D01*
X89249949Y-98710051D01*
X89356169Y-98839482D01*
X89435096Y-98987143D01*
X89483701Y-99147373D01*
X89500112Y-99314000D01*
X89483701Y-99480627D01*
X89435096Y-99640857D01*
X89356169Y-99788518D01*
X89249949Y-99917949D01*
X89120518Y-100024169D01*
X88972857Y-100103096D01*
X88972855Y-100103097D01*
X88892742Y-100127399D01*
X88812627Y-100151701D01*
X88687752Y-100164000D01*
X88604248Y-100164000D01*
X88479373Y-100151701D01*
X88399258Y-100127399D01*
X88319145Y-100103097D01*
X88319143Y-100103096D01*
X88171482Y-100024169D01*
X88042051Y-99917949D01*
X87935831Y-99788518D01*
X87856904Y-99640857D01*
X87808299Y-99480627D01*
X87791888Y-99314000D01*
X87808299Y-99147373D01*
X87856904Y-98987143D01*
X87935831Y-98839482D01*
X88042051Y-98710051D01*
X88171482Y-98603831D01*
X88319143Y-98524904D01*
X88319145Y-98524903D01*
X88399258Y-98500601D01*
X88479373Y-98476299D01*
X88604248Y-98464000D01*
X88687752Y-98464000D01*
X88812627Y-98476299D01*
X88812627Y-98476299D01*
G37*
G36*
X126912627Y-98476299D02*
G01*
X126992742Y-98500601D01*
X127072855Y-98524903D01*
X127072857Y-98524904D01*
X127220518Y-98603831D01*
X127349949Y-98710051D01*
X127456169Y-98839482D01*
X127535096Y-98987143D01*
X127583701Y-99147373D01*
X127600112Y-99314000D01*
X127583701Y-99480627D01*
X127535096Y-99640857D01*
X127456169Y-99788518D01*
X127349949Y-99917949D01*
X127220518Y-100024169D01*
X127072857Y-100103096D01*
X127072855Y-100103097D01*
X126992742Y-100127399D01*
X126912627Y-100151701D01*
X126787752Y-100164000D01*
X126704248Y-100164000D01*
X126579373Y-100151701D01*
X126499258Y-100127399D01*
X126419145Y-100103097D01*
X126419143Y-100103096D01*
X126271482Y-100024169D01*
X126142051Y-99917949D01*
X126035831Y-99788518D01*
X125956904Y-99640857D01*
X125908299Y-99480627D01*
X125891888Y-99314000D01*
X125908299Y-99147373D01*
X125956904Y-98987143D01*
X126035831Y-98839482D01*
X126142051Y-98710051D01*
X126271482Y-98603831D01*
X126419143Y-98524904D01*
X126419145Y-98524903D01*
X126499258Y-98500601D01*
X126579373Y-98476299D01*
X126704248Y-98464000D01*
X126787752Y-98464000D01*
X126912627Y-98476299D01*
X126912627Y-98476299D01*
G37*
G36*
X111672627Y-98476299D02*
G01*
X111752742Y-98500601D01*
X111832855Y-98524903D01*
X111832857Y-98524904D01*
X111980518Y-98603831D01*
X112109949Y-98710051D01*
X112216169Y-98839482D01*
X112295096Y-98987143D01*
X112343701Y-99147373D01*
X112360112Y-99314000D01*
X112343701Y-99480627D01*
X112295096Y-99640857D01*
X112216169Y-99788518D01*
X112109949Y-99917949D01*
X111980518Y-100024169D01*
X111832857Y-100103096D01*
X111832855Y-100103097D01*
X111752742Y-100127399D01*
X111672627Y-100151701D01*
X111547752Y-100164000D01*
X111464248Y-100164000D01*
X111339373Y-100151701D01*
X111259258Y-100127399D01*
X111179145Y-100103097D01*
X111179143Y-100103096D01*
X111031482Y-100024169D01*
X110902051Y-99917949D01*
X110795831Y-99788518D01*
X110716904Y-99640857D01*
X110668299Y-99480627D01*
X110651888Y-99314000D01*
X110668299Y-99147373D01*
X110716904Y-98987143D01*
X110795831Y-98839482D01*
X110902051Y-98710051D01*
X111031482Y-98603831D01*
X111179143Y-98524904D01*
X111179145Y-98524903D01*
X111259258Y-98500601D01*
X111339373Y-98476299D01*
X111464248Y-98464000D01*
X111547752Y-98464000D01*
X111672627Y-98476299D01*
X111672627Y-98476299D01*
G37*
G36*
X109132627Y-98476299D02*
G01*
X109212742Y-98500601D01*
X109292855Y-98524903D01*
X109292857Y-98524904D01*
X109440518Y-98603831D01*
X109569949Y-98710051D01*
X109676169Y-98839482D01*
X109755096Y-98987143D01*
X109803701Y-99147373D01*
X109820112Y-99314000D01*
X109803701Y-99480627D01*
X109755096Y-99640857D01*
X109676169Y-99788518D01*
X109569949Y-99917949D01*
X109440518Y-100024169D01*
X109292857Y-100103096D01*
X109292855Y-100103097D01*
X109212742Y-100127399D01*
X109132627Y-100151701D01*
X109007752Y-100164000D01*
X108924248Y-100164000D01*
X108799373Y-100151701D01*
X108719258Y-100127399D01*
X108639145Y-100103097D01*
X108639143Y-100103096D01*
X108491482Y-100024169D01*
X108362051Y-99917949D01*
X108255831Y-99788518D01*
X108176904Y-99640857D01*
X108128299Y-99480627D01*
X108111888Y-99314000D01*
X108128299Y-99147373D01*
X108176904Y-98987143D01*
X108255831Y-98839482D01*
X108362051Y-98710051D01*
X108491482Y-98603831D01*
X108639143Y-98524904D01*
X108639145Y-98524903D01*
X108719258Y-98500601D01*
X108799373Y-98476299D01*
X108924248Y-98464000D01*
X109007752Y-98464000D01*
X109132627Y-98476299D01*
X109132627Y-98476299D01*
G37*
G36*
X106592627Y-98476299D02*
G01*
X106672742Y-98500601D01*
X106752855Y-98524903D01*
X106752857Y-98524904D01*
X106900518Y-98603831D01*
X107029949Y-98710051D01*
X107136169Y-98839482D01*
X107215096Y-98987143D01*
X107263701Y-99147373D01*
X107280112Y-99314000D01*
X107263701Y-99480627D01*
X107215096Y-99640857D01*
X107136169Y-99788518D01*
X107029949Y-99917949D01*
X106900518Y-100024169D01*
X106752857Y-100103096D01*
X106752855Y-100103097D01*
X106672742Y-100127399D01*
X106592627Y-100151701D01*
X106467752Y-100164000D01*
X106384248Y-100164000D01*
X106259373Y-100151701D01*
X106179258Y-100127399D01*
X106099145Y-100103097D01*
X106099143Y-100103096D01*
X105951482Y-100024169D01*
X105822051Y-99917949D01*
X105715831Y-99788518D01*
X105636904Y-99640857D01*
X105588299Y-99480627D01*
X105571888Y-99314000D01*
X105588299Y-99147373D01*
X105636904Y-98987143D01*
X105715831Y-98839482D01*
X105822051Y-98710051D01*
X105951482Y-98603831D01*
X106099143Y-98524904D01*
X106099145Y-98524903D01*
X106179258Y-98500601D01*
X106259373Y-98476299D01*
X106384248Y-98464000D01*
X106467752Y-98464000D01*
X106592627Y-98476299D01*
X106592627Y-98476299D01*
G37*
G36*
X91352627Y-98476299D02*
G01*
X91432742Y-98500601D01*
X91512855Y-98524903D01*
X91512857Y-98524904D01*
X91660518Y-98603831D01*
X91789949Y-98710051D01*
X91896169Y-98839482D01*
X91975096Y-98987143D01*
X92023701Y-99147373D01*
X92040112Y-99314000D01*
X92023701Y-99480627D01*
X91975096Y-99640857D01*
X91896169Y-99788518D01*
X91789949Y-99917949D01*
X91660518Y-100024169D01*
X91512857Y-100103096D01*
X91512855Y-100103097D01*
X91432742Y-100127399D01*
X91352627Y-100151701D01*
X91227752Y-100164000D01*
X91144248Y-100164000D01*
X91019373Y-100151701D01*
X90939258Y-100127399D01*
X90859145Y-100103097D01*
X90859143Y-100103096D01*
X90711482Y-100024169D01*
X90582051Y-99917949D01*
X90475831Y-99788518D01*
X90396904Y-99640857D01*
X90348299Y-99480627D01*
X90331888Y-99314000D01*
X90348299Y-99147373D01*
X90396904Y-98987143D01*
X90475831Y-98839482D01*
X90582051Y-98710051D01*
X90711482Y-98603831D01*
X90859143Y-98524904D01*
X90859145Y-98524903D01*
X90939258Y-98500601D01*
X91019373Y-98476299D01*
X91144248Y-98464000D01*
X91227752Y-98464000D01*
X91352627Y-98476299D01*
X91352627Y-98476299D01*
G37*
G36*
X93892627Y-98476299D02*
G01*
X93972742Y-98500601D01*
X94052855Y-98524903D01*
X94052857Y-98524904D01*
X94200518Y-98603831D01*
X94329949Y-98710051D01*
X94436169Y-98839482D01*
X94515096Y-98987143D01*
X94563701Y-99147373D01*
X94580112Y-99314000D01*
X94563701Y-99480627D01*
X94515096Y-99640857D01*
X94436169Y-99788518D01*
X94329949Y-99917949D01*
X94200518Y-100024169D01*
X94052857Y-100103096D01*
X94052855Y-100103097D01*
X93972742Y-100127399D01*
X93892627Y-100151701D01*
X93767752Y-100164000D01*
X93684248Y-100164000D01*
X93559373Y-100151701D01*
X93479258Y-100127399D01*
X93399145Y-100103097D01*
X93399143Y-100103096D01*
X93251482Y-100024169D01*
X93122051Y-99917949D01*
X93015831Y-99788518D01*
X92936904Y-99640857D01*
X92888299Y-99480627D01*
X92871888Y-99314000D01*
X92888299Y-99147373D01*
X92936904Y-98987143D01*
X93015831Y-98839482D01*
X93122051Y-98710051D01*
X93251482Y-98603831D01*
X93399143Y-98524904D01*
X93399145Y-98524903D01*
X93479258Y-98500601D01*
X93559373Y-98476299D01*
X93684248Y-98464000D01*
X93767752Y-98464000D01*
X93892627Y-98476299D01*
X93892627Y-98476299D01*
G37*
G36*
X104052627Y-98476299D02*
G01*
X104132742Y-98500601D01*
X104212855Y-98524903D01*
X104212857Y-98524904D01*
X104360518Y-98603831D01*
X104489949Y-98710051D01*
X104596169Y-98839482D01*
X104675096Y-98987143D01*
X104723701Y-99147373D01*
X104740112Y-99314000D01*
X104723701Y-99480627D01*
X104675096Y-99640857D01*
X104596169Y-99788518D01*
X104489949Y-99917949D01*
X104360518Y-100024169D01*
X104212857Y-100103096D01*
X104212855Y-100103097D01*
X104132742Y-100127399D01*
X104052627Y-100151701D01*
X103927752Y-100164000D01*
X103844248Y-100164000D01*
X103719373Y-100151701D01*
X103639258Y-100127399D01*
X103559145Y-100103097D01*
X103559143Y-100103096D01*
X103411482Y-100024169D01*
X103282051Y-99917949D01*
X103175831Y-99788518D01*
X103096904Y-99640857D01*
X103048299Y-99480627D01*
X103031888Y-99314000D01*
X103048299Y-99147373D01*
X103096904Y-98987143D01*
X103175831Y-98839482D01*
X103282051Y-98710051D01*
X103411482Y-98603831D01*
X103559143Y-98524904D01*
X103559145Y-98524903D01*
X103639258Y-98500601D01*
X103719373Y-98476299D01*
X103844248Y-98464000D01*
X103927752Y-98464000D01*
X104052627Y-98476299D01*
X104052627Y-98476299D01*
G37*
G36*
X96432627Y-98476299D02*
G01*
X96512742Y-98500601D01*
X96592855Y-98524903D01*
X96592857Y-98524904D01*
X96740518Y-98603831D01*
X96869949Y-98710051D01*
X96976169Y-98839482D01*
X97055096Y-98987143D01*
X97103701Y-99147373D01*
X97120112Y-99314000D01*
X97103701Y-99480627D01*
X97055096Y-99640857D01*
X96976169Y-99788518D01*
X96869949Y-99917949D01*
X96740518Y-100024169D01*
X96592857Y-100103096D01*
X96592855Y-100103097D01*
X96512742Y-100127399D01*
X96432627Y-100151701D01*
X96307752Y-100164000D01*
X96224248Y-100164000D01*
X96099373Y-100151701D01*
X96019258Y-100127399D01*
X95939145Y-100103097D01*
X95939143Y-100103096D01*
X95791482Y-100024169D01*
X95662051Y-99917949D01*
X95555831Y-99788518D01*
X95476904Y-99640857D01*
X95428299Y-99480627D01*
X95411888Y-99314000D01*
X95428299Y-99147373D01*
X95476904Y-98987143D01*
X95555831Y-98839482D01*
X95662051Y-98710051D01*
X95791482Y-98603831D01*
X95939143Y-98524904D01*
X95939145Y-98524903D01*
X96019258Y-98500601D01*
X96099373Y-98476299D01*
X96224248Y-98464000D01*
X96307752Y-98464000D01*
X96432627Y-98476299D01*
X96432627Y-98476299D01*
G37*
G36*
X98972627Y-98476299D02*
G01*
X99052742Y-98500601D01*
X99132855Y-98524903D01*
X99132857Y-98524904D01*
X99280518Y-98603831D01*
X99409949Y-98710051D01*
X99516169Y-98839482D01*
X99595096Y-98987143D01*
X99643701Y-99147373D01*
X99660112Y-99314000D01*
X99643701Y-99480627D01*
X99595096Y-99640857D01*
X99516169Y-99788518D01*
X99409949Y-99917949D01*
X99280518Y-100024169D01*
X99132857Y-100103096D01*
X99132855Y-100103097D01*
X99052742Y-100127399D01*
X98972627Y-100151701D01*
X98847752Y-100164000D01*
X98764248Y-100164000D01*
X98639373Y-100151701D01*
X98559258Y-100127399D01*
X98479145Y-100103097D01*
X98479143Y-100103096D01*
X98331482Y-100024169D01*
X98202051Y-99917949D01*
X98095831Y-99788518D01*
X98016904Y-99640857D01*
X97968299Y-99480627D01*
X97951888Y-99314000D01*
X97968299Y-99147373D01*
X98016904Y-98987143D01*
X98095831Y-98839482D01*
X98202051Y-98710051D01*
X98331482Y-98603831D01*
X98479143Y-98524904D01*
X98479145Y-98524903D01*
X98559258Y-98500601D01*
X98639373Y-98476299D01*
X98764248Y-98464000D01*
X98847752Y-98464000D01*
X98972627Y-98476299D01*
X98972627Y-98476299D01*
G37*
G36*
X170550001Y-96774999D02*
G01*
X168800001Y-96774999D01*
X168800001Y-95024999D01*
X170550001Y-95024999D01*
X170550001Y-96774999D01*
X170550001Y-96774999D01*
G37*
G36*
X178350001Y-96774999D02*
G01*
X176600001Y-96774999D01*
X176600001Y-95024999D01*
X178350001Y-95024999D01*
X178350001Y-96774999D01*
X178350001Y-96774999D01*
G37*
G36*
X169930228Y-92558624D02*
G01*
X170089467Y-92624583D01*
X170089469Y-92624584D01*
X170232781Y-92720342D01*
X170354658Y-92842219D01*
X170354659Y-92842221D01*
X170450417Y-92985533D01*
X170516376Y-93144772D01*
X170550001Y-93313818D01*
X170550001Y-93486180D01*
X170516376Y-93655226D01*
X170450417Y-93814465D01*
X170450416Y-93814467D01*
X170354658Y-93957779D01*
X170232781Y-94079656D01*
X170089469Y-94175414D01*
X170089468Y-94175415D01*
X170089467Y-94175415D01*
X169930228Y-94241374D01*
X169761182Y-94274999D01*
X169588820Y-94274999D01*
X169419774Y-94241374D01*
X169260535Y-94175415D01*
X169260534Y-94175415D01*
X169260533Y-94175414D01*
X169117221Y-94079656D01*
X168995344Y-93957779D01*
X168899586Y-93814467D01*
X168899585Y-93814465D01*
X168833626Y-93655226D01*
X168800001Y-93486180D01*
X168800001Y-93313818D01*
X168833626Y-93144772D01*
X168899585Y-92985533D01*
X168995343Y-92842221D01*
X168995344Y-92842219D01*
X169117221Y-92720342D01*
X169260533Y-92624584D01*
X169260535Y-92624583D01*
X169419774Y-92558624D01*
X169588820Y-92524999D01*
X169761182Y-92524999D01*
X169930228Y-92558624D01*
X169930228Y-92558624D01*
G37*
G36*
X177730228Y-92558624D02*
G01*
X177889467Y-92624583D01*
X177889469Y-92624584D01*
X178032781Y-92720342D01*
X178154658Y-92842219D01*
X178154659Y-92842221D01*
X178250417Y-92985533D01*
X178316376Y-93144772D01*
X178350001Y-93313818D01*
X178350001Y-93486180D01*
X178316376Y-93655226D01*
X178250417Y-93814465D01*
X178250416Y-93814467D01*
X178154658Y-93957779D01*
X178032781Y-94079656D01*
X177889469Y-94175414D01*
X177889468Y-94175415D01*
X177889467Y-94175415D01*
X177730228Y-94241374D01*
X177561182Y-94274999D01*
X177388820Y-94274999D01*
X177219774Y-94241374D01*
X177060535Y-94175415D01*
X177060534Y-94175415D01*
X177060533Y-94175414D01*
X176917221Y-94079656D01*
X176795344Y-93957779D01*
X176699586Y-93814467D01*
X176699585Y-93814465D01*
X176633626Y-93655226D01*
X176600001Y-93486180D01*
X176600001Y-93313818D01*
X176633626Y-93144772D01*
X176699585Y-92985533D01*
X176795343Y-92842221D01*
X176795344Y-92842219D01*
X176917221Y-92720342D01*
X177060533Y-92624584D01*
X177060535Y-92624583D01*
X177219774Y-92558624D01*
X177388820Y-92524999D01*
X177561182Y-92524999D01*
X177730228Y-92558624D01*
X177730228Y-92558624D01*
G37*
G36*
X177730228Y-90058624D02*
G01*
X177889467Y-90124583D01*
X177889469Y-90124584D01*
X178032781Y-90220342D01*
X178154658Y-90342219D01*
X178154659Y-90342221D01*
X178250417Y-90485533D01*
X178316376Y-90644772D01*
X178350001Y-90813818D01*
X178350001Y-90986180D01*
X178316376Y-91155226D01*
X178250417Y-91314465D01*
X178250416Y-91314467D01*
X178154658Y-91457779D01*
X178032781Y-91579656D01*
X177889469Y-91675414D01*
X177889468Y-91675415D01*
X177889467Y-91675415D01*
X177730228Y-91741374D01*
X177561182Y-91774999D01*
X177388820Y-91774999D01*
X177219774Y-91741374D01*
X177060535Y-91675415D01*
X177060534Y-91675415D01*
X177060533Y-91675414D01*
X176917221Y-91579656D01*
X176795344Y-91457779D01*
X176699586Y-91314467D01*
X176699585Y-91314465D01*
X176633626Y-91155226D01*
X176600001Y-90986180D01*
X176600001Y-90813818D01*
X176633626Y-90644772D01*
X176699585Y-90485533D01*
X176795343Y-90342221D01*
X176795344Y-90342219D01*
X176917221Y-90220342D01*
X177060533Y-90124584D01*
X177060535Y-90124583D01*
X177219774Y-90058624D01*
X177388820Y-90024999D01*
X177561182Y-90024999D01*
X177730228Y-90058624D01*
X177730228Y-90058624D01*
G37*
G36*
X169930228Y-90058624D02*
G01*
X170089467Y-90124583D01*
X170089469Y-90124584D01*
X170232781Y-90220342D01*
X170354658Y-90342219D01*
X170354659Y-90342221D01*
X170450417Y-90485533D01*
X170516376Y-90644772D01*
X170550001Y-90813818D01*
X170550001Y-90986180D01*
X170516376Y-91155226D01*
X170450417Y-91314465D01*
X170450416Y-91314467D01*
X170354658Y-91457779D01*
X170232781Y-91579656D01*
X170089469Y-91675414D01*
X170089468Y-91675415D01*
X170089467Y-91675415D01*
X169930228Y-91741374D01*
X169761182Y-91774999D01*
X169588820Y-91774999D01*
X169419774Y-91741374D01*
X169260535Y-91675415D01*
X169260534Y-91675415D01*
X169260533Y-91675414D01*
X169117221Y-91579656D01*
X168995344Y-91457779D01*
X168899586Y-91314467D01*
X168899585Y-91314465D01*
X168833626Y-91155226D01*
X168800001Y-90986180D01*
X168800001Y-90813818D01*
X168833626Y-90644772D01*
X168899585Y-90485533D01*
X168995343Y-90342221D01*
X168995344Y-90342219D01*
X169117221Y-90220342D01*
X169260533Y-90124584D01*
X169260535Y-90124583D01*
X169419774Y-90058624D01*
X169588820Y-90024999D01*
X169761182Y-90024999D01*
X169930228Y-90058624D01*
X169930228Y-90058624D01*
G37*
G36*
X177730228Y-87558624D02*
G01*
X177889467Y-87624583D01*
X177889469Y-87624584D01*
X178032781Y-87720342D01*
X178154658Y-87842219D01*
X178154659Y-87842221D01*
X178250417Y-87985533D01*
X178316376Y-88144772D01*
X178350001Y-88313818D01*
X178350001Y-88486180D01*
X178316376Y-88655226D01*
X178250417Y-88814465D01*
X178250416Y-88814467D01*
X178154658Y-88957779D01*
X178032781Y-89079656D01*
X177889469Y-89175414D01*
X177889468Y-89175415D01*
X177889467Y-89175415D01*
X177730228Y-89241374D01*
X177561182Y-89274999D01*
X177388820Y-89274999D01*
X177219774Y-89241374D01*
X177060535Y-89175415D01*
X177060534Y-89175415D01*
X177060533Y-89175414D01*
X176917221Y-89079656D01*
X176795344Y-88957779D01*
X176699586Y-88814467D01*
X176699585Y-88814465D01*
X176633626Y-88655226D01*
X176600001Y-88486180D01*
X176600001Y-88313818D01*
X176633626Y-88144772D01*
X176699585Y-87985533D01*
X176795343Y-87842221D01*
X176795344Y-87842219D01*
X176917221Y-87720342D01*
X177060533Y-87624584D01*
X177060535Y-87624583D01*
X177219774Y-87558624D01*
X177388820Y-87524999D01*
X177561182Y-87524999D01*
X177730228Y-87558624D01*
X177730228Y-87558624D01*
G37*
G36*
X169930228Y-87558624D02*
G01*
X170089467Y-87624583D01*
X170089469Y-87624584D01*
X170232781Y-87720342D01*
X170354658Y-87842219D01*
X170354659Y-87842221D01*
X170450417Y-87985533D01*
X170516376Y-88144772D01*
X170550001Y-88313818D01*
X170550001Y-88486180D01*
X170516376Y-88655226D01*
X170450417Y-88814465D01*
X170450416Y-88814467D01*
X170354658Y-88957779D01*
X170232781Y-89079656D01*
X170089469Y-89175414D01*
X170089468Y-89175415D01*
X170089467Y-89175415D01*
X169930228Y-89241374D01*
X169761182Y-89274999D01*
X169588820Y-89274999D01*
X169419774Y-89241374D01*
X169260535Y-89175415D01*
X169260534Y-89175415D01*
X169260533Y-89175414D01*
X169117221Y-89079656D01*
X168995344Y-88957779D01*
X168899586Y-88814467D01*
X168899585Y-88814465D01*
X168833626Y-88655226D01*
X168800001Y-88486180D01*
X168800001Y-88313818D01*
X168833626Y-88144772D01*
X168899585Y-87985533D01*
X168995343Y-87842221D01*
X168995344Y-87842219D01*
X169117221Y-87720342D01*
X169260533Y-87624584D01*
X169260535Y-87624583D01*
X169419774Y-87558624D01*
X169588820Y-87524999D01*
X169761182Y-87524999D01*
X169930228Y-87558624D01*
X169930228Y-87558624D01*
G37*
G36*
X182950000Y-54425000D02*
G01*
X180450000Y-54425000D01*
X180450000Y-51925000D01*
X182950000Y-51925000D01*
X182950000Y-54425000D01*
X182950000Y-54425000D01*
G37*
G36*
X177064610Y-51973036D02*
G01*
X177228157Y-52040780D01*
X177292097Y-52067265D01*
X177496828Y-52204062D01*
X177670938Y-52378172D01*
X177724213Y-52457903D01*
X177807736Y-52582905D01*
X177901964Y-52810390D01*
X177950000Y-53051884D01*
X177950000Y-53298116D01*
X177901964Y-53539610D01*
X177807736Y-53767095D01*
X177807735Y-53767097D01*
X177670938Y-53971828D01*
X177496828Y-54145938D01*
X177292097Y-54282735D01*
X177292096Y-54282736D01*
X177292095Y-54282736D01*
X177064610Y-54376964D01*
X176823116Y-54425000D01*
X176576884Y-54425000D01*
X176335390Y-54376964D01*
X176107905Y-54282736D01*
X176107904Y-54282736D01*
X176107903Y-54282735D01*
X175903172Y-54145938D01*
X175729062Y-53971828D01*
X175592265Y-53767097D01*
X175592264Y-53767095D01*
X175498036Y-53539610D01*
X175450000Y-53298116D01*
X175450000Y-53051884D01*
X175498036Y-52810390D01*
X175592264Y-52582905D01*
X175675788Y-52457903D01*
X175729062Y-52378172D01*
X175903172Y-52204062D01*
X176107903Y-52067265D01*
X176171843Y-52040780D01*
X176335390Y-51973036D01*
X176576884Y-51925000D01*
X176823116Y-51925000D01*
X177064610Y-51973036D01*
X177064610Y-51973036D01*
G37*
G36*
X111559196Y-51800514D02*
G01*
X111795781Y-51898511D01*
X112008702Y-52040780D01*
X112189776Y-52221854D01*
X112332045Y-52434775D01*
X112430042Y-52671360D01*
X112432833Y-52685390D01*
X112480000Y-52922516D01*
X112480000Y-53178596D01*
X112430042Y-53429751D01*
X112342087Y-53642095D01*
X112332045Y-53666337D01*
X112189776Y-53879258D01*
X112008702Y-54060332D01*
X111795781Y-54202601D01*
X111559196Y-54300598D01*
X111433617Y-54325577D01*
X111308040Y-54350556D01*
X111051960Y-54350556D01*
X110926383Y-54325577D01*
X110800804Y-54300598D01*
X110564219Y-54202601D01*
X110351298Y-54060332D01*
X110170224Y-53879258D01*
X110027955Y-53666337D01*
X110017914Y-53642095D01*
X109929958Y-53429751D01*
X109880000Y-53178596D01*
X109880000Y-52922516D01*
X109927167Y-52685390D01*
X109929958Y-52671360D01*
X110027955Y-52434775D01*
X110170224Y-52221854D01*
X110351298Y-52040780D01*
X110564219Y-51898511D01*
X110800804Y-51800514D01*
X111051960Y-51750556D01*
X111308040Y-51750556D01*
X111559196Y-51800514D01*
X111559196Y-51800514D01*
G37*
G36*
X96559196Y-51800514D02*
G01*
X96795781Y-51898511D01*
X97008702Y-52040780D01*
X97189776Y-52221854D01*
X97332045Y-52434775D01*
X97430042Y-52671360D01*
X97432833Y-52685390D01*
X97480000Y-52922516D01*
X97480000Y-53178596D01*
X97430042Y-53429751D01*
X97342087Y-53642095D01*
X97332045Y-53666337D01*
X97189776Y-53879258D01*
X97008702Y-54060332D01*
X96795781Y-54202601D01*
X96559196Y-54300598D01*
X96433617Y-54325577D01*
X96308040Y-54350556D01*
X96051960Y-54350556D01*
X95926383Y-54325577D01*
X95800804Y-54300598D01*
X95564219Y-54202601D01*
X95351298Y-54060332D01*
X95170224Y-53879258D01*
X95027955Y-53666337D01*
X95017914Y-53642095D01*
X94929958Y-53429751D01*
X94880000Y-53178596D01*
X94880000Y-52922516D01*
X94927167Y-52685390D01*
X94929958Y-52671360D01*
X95027955Y-52434775D01*
X95170224Y-52221854D01*
X95351298Y-52040780D01*
X95564219Y-51898511D01*
X95800804Y-51800514D01*
X96051960Y-51750556D01*
X96308040Y-51750556D01*
X96559196Y-51800514D01*
X96559196Y-51800514D01*
G37*
G36*
X86559196Y-51800514D02*
G01*
X86795781Y-51898511D01*
X87008702Y-52040780D01*
X87189776Y-52221854D01*
X87332045Y-52434775D01*
X87430042Y-52671360D01*
X87432833Y-52685390D01*
X87480000Y-52922516D01*
X87480000Y-53178596D01*
X87430042Y-53429751D01*
X87342087Y-53642095D01*
X87332045Y-53666337D01*
X87189776Y-53879258D01*
X87008702Y-54060332D01*
X86795781Y-54202601D01*
X86559196Y-54300598D01*
X86433617Y-54325577D01*
X86308040Y-54350556D01*
X86051960Y-54350556D01*
X85926383Y-54325577D01*
X85800804Y-54300598D01*
X85564219Y-54202601D01*
X85351298Y-54060332D01*
X85170224Y-53879258D01*
X85027955Y-53666337D01*
X85017914Y-53642095D01*
X84929958Y-53429751D01*
X84880000Y-53178596D01*
X84880000Y-52922516D01*
X84927167Y-52685390D01*
X84929958Y-52671360D01*
X85027955Y-52434775D01*
X85170224Y-52221854D01*
X85351298Y-52040780D01*
X85564219Y-51898511D01*
X85800804Y-51800514D01*
X86051960Y-51750556D01*
X86308040Y-51750556D01*
X86559196Y-51800514D01*
X86559196Y-51800514D01*
G37*
G36*
X91559196Y-51800514D02*
G01*
X91795781Y-51898511D01*
X92008702Y-52040780D01*
X92189776Y-52221854D01*
X92332045Y-52434775D01*
X92430042Y-52671360D01*
X92432833Y-52685390D01*
X92480000Y-52922516D01*
X92480000Y-53178596D01*
X92430042Y-53429751D01*
X92342087Y-53642095D01*
X92332045Y-53666337D01*
X92189776Y-53879258D01*
X92008702Y-54060332D01*
X91795781Y-54202601D01*
X91559196Y-54300598D01*
X91433617Y-54325577D01*
X91308040Y-54350556D01*
X91051960Y-54350556D01*
X90926383Y-54325577D01*
X90800804Y-54300598D01*
X90564219Y-54202601D01*
X90351298Y-54060332D01*
X90170224Y-53879258D01*
X90027955Y-53666337D01*
X90017914Y-53642095D01*
X89929958Y-53429751D01*
X89880000Y-53178596D01*
X89880000Y-52922516D01*
X89927167Y-52685390D01*
X89929958Y-52671360D01*
X90027955Y-52434775D01*
X90170224Y-52221854D01*
X90351298Y-52040780D01*
X90564219Y-51898511D01*
X90800804Y-51800514D01*
X91051960Y-51750556D01*
X91308040Y-51750556D01*
X91559196Y-51800514D01*
X91559196Y-51800514D01*
G37*
G36*
X101559196Y-51800514D02*
G01*
X101795781Y-51898511D01*
X102008702Y-52040780D01*
X102189776Y-52221854D01*
X102332045Y-52434775D01*
X102430042Y-52671360D01*
X102432833Y-52685390D01*
X102480000Y-52922516D01*
X102480000Y-53178596D01*
X102430042Y-53429751D01*
X102342087Y-53642095D01*
X102332045Y-53666337D01*
X102189776Y-53879258D01*
X102008702Y-54060332D01*
X101795781Y-54202601D01*
X101559196Y-54300598D01*
X101433617Y-54325577D01*
X101308040Y-54350556D01*
X101051960Y-54350556D01*
X100926383Y-54325577D01*
X100800804Y-54300598D01*
X100564219Y-54202601D01*
X100351298Y-54060332D01*
X100170224Y-53879258D01*
X100027955Y-53666337D01*
X100017914Y-53642095D01*
X99929958Y-53429751D01*
X99880000Y-53178596D01*
X99880000Y-52922516D01*
X99927167Y-52685390D01*
X99929958Y-52671360D01*
X100027955Y-52434775D01*
X100170224Y-52221854D01*
X100351298Y-52040780D01*
X100564219Y-51898511D01*
X100800804Y-51800514D01*
X101051960Y-51750556D01*
X101308040Y-51750556D01*
X101559196Y-51800514D01*
X101559196Y-51800514D01*
G37*
G36*
X106559196Y-51800514D02*
G01*
X106795781Y-51898511D01*
X107008702Y-52040780D01*
X107189776Y-52221854D01*
X107332045Y-52434775D01*
X107430042Y-52671360D01*
X107432833Y-52685390D01*
X107480000Y-52922516D01*
X107480000Y-53178596D01*
X107430042Y-53429751D01*
X107342087Y-53642095D01*
X107332045Y-53666337D01*
X107189776Y-53879258D01*
X107008702Y-54060332D01*
X106795781Y-54202601D01*
X106559196Y-54300598D01*
X106433617Y-54325577D01*
X106308040Y-54350556D01*
X106051960Y-54350556D01*
X105926383Y-54325577D01*
X105800804Y-54300598D01*
X105564219Y-54202601D01*
X105351298Y-54060332D01*
X105170224Y-53879258D01*
X105027955Y-53666337D01*
X105017914Y-53642095D01*
X104929958Y-53429751D01*
X104880000Y-53178596D01*
X104880000Y-52922516D01*
X104927167Y-52685390D01*
X104929958Y-52671360D01*
X105027955Y-52434775D01*
X105170224Y-52221854D01*
X105351298Y-52040780D01*
X105564219Y-51898511D01*
X105800804Y-51800514D01*
X106051960Y-51750556D01*
X106308040Y-51750556D01*
X106559196Y-51800514D01*
X106559196Y-51800514D01*
G37*
G36*
X116559196Y-51800514D02*
G01*
X116795781Y-51898511D01*
X117008702Y-52040780D01*
X117189776Y-52221854D01*
X117332045Y-52434775D01*
X117430042Y-52671360D01*
X117432833Y-52685390D01*
X117480000Y-52922516D01*
X117480000Y-53178596D01*
X117430042Y-53429751D01*
X117342087Y-53642095D01*
X117332045Y-53666337D01*
X117189776Y-53879258D01*
X117008702Y-54060332D01*
X116795781Y-54202601D01*
X116559196Y-54300598D01*
X116433617Y-54325577D01*
X116308040Y-54350556D01*
X116051960Y-54350556D01*
X115926383Y-54325577D01*
X115800804Y-54300598D01*
X115564219Y-54202601D01*
X115351298Y-54060332D01*
X115170224Y-53879258D01*
X115027955Y-53666337D01*
X115017914Y-53642095D01*
X114929958Y-53429751D01*
X114880000Y-53178596D01*
X114880000Y-52922516D01*
X114927167Y-52685390D01*
X114929958Y-52671360D01*
X115027955Y-52434775D01*
X115170224Y-52221854D01*
X115351298Y-52040780D01*
X115564219Y-51898511D01*
X115800804Y-51800514D01*
X116051960Y-51750556D01*
X116308040Y-51750556D01*
X116559196Y-51800514D01*
X116559196Y-51800514D01*
G37*
G36*
X121559196Y-51800514D02*
G01*
X121795781Y-51898511D01*
X122008702Y-52040780D01*
X122189776Y-52221854D01*
X122332045Y-52434775D01*
X122430042Y-52671360D01*
X122432833Y-52685390D01*
X122480000Y-52922516D01*
X122480000Y-53178596D01*
X122430042Y-53429751D01*
X122342087Y-53642095D01*
X122332045Y-53666337D01*
X122189776Y-53879258D01*
X122008702Y-54060332D01*
X121795781Y-54202601D01*
X121559196Y-54300598D01*
X121433617Y-54325577D01*
X121308040Y-54350556D01*
X121051960Y-54350556D01*
X120926383Y-54325577D01*
X120800804Y-54300598D01*
X120564219Y-54202601D01*
X120351298Y-54060332D01*
X120170224Y-53879258D01*
X120027955Y-53666337D01*
X120017914Y-53642095D01*
X119929958Y-53429751D01*
X119880000Y-53178596D01*
X119880000Y-52922516D01*
X119927167Y-52685390D01*
X119929958Y-52671360D01*
X120027955Y-52434775D01*
X120170224Y-52221854D01*
X120351298Y-52040780D01*
X120564219Y-51898511D01*
X120800804Y-51800514D01*
X121051960Y-51750556D01*
X121308040Y-51750556D01*
X121559196Y-51800514D01*
X121559196Y-51800514D01*
G37*
G36*
X126559196Y-51800514D02*
G01*
X126795781Y-51898511D01*
X127008702Y-52040780D01*
X127189776Y-52221854D01*
X127332045Y-52434775D01*
X127430042Y-52671360D01*
X127432833Y-52685390D01*
X127480000Y-52922516D01*
X127480000Y-53178596D01*
X127430042Y-53429751D01*
X127342087Y-53642095D01*
X127332045Y-53666337D01*
X127189776Y-53879258D01*
X127008702Y-54060332D01*
X126795781Y-54202601D01*
X126559196Y-54300598D01*
X126433617Y-54325577D01*
X126308040Y-54350556D01*
X126051960Y-54350556D01*
X125926383Y-54325577D01*
X125800804Y-54300598D01*
X125564219Y-54202601D01*
X125351298Y-54060332D01*
X125170224Y-53879258D01*
X125027955Y-53666337D01*
X125017914Y-53642095D01*
X124929958Y-53429751D01*
X124880000Y-53178596D01*
X124880000Y-52922516D01*
X124927167Y-52685390D01*
X124929958Y-52671360D01*
X125027955Y-52434775D01*
X125170224Y-52221854D01*
X125351298Y-52040780D01*
X125564219Y-51898511D01*
X125800804Y-51800514D01*
X126051960Y-51750556D01*
X126308040Y-51750556D01*
X126559196Y-51800514D01*
X126559196Y-51800514D01*
G37*
G36*
X132480000Y-54350556D02*
G01*
X129880000Y-54350556D01*
X129880000Y-51750556D01*
X132480000Y-51750556D01*
X132480000Y-54350556D01*
X132480000Y-54350556D01*
G37*
G36*
X81514000Y-54300556D02*
G01*
X79014000Y-54300556D01*
X79014000Y-51800556D01*
X81514000Y-51800556D01*
X81514000Y-54300556D01*
X81514000Y-54300556D01*
G37*
G36*
X75628610Y-51848592D02*
G01*
X75854755Y-51942265D01*
X75856097Y-51942821D01*
X76060828Y-52079618D01*
X76234938Y-52253728D01*
X76371365Y-52457905D01*
X76371736Y-52458461D01*
X76465964Y-52685946D01*
X76514000Y-52927440D01*
X76514000Y-53173672D01*
X76465964Y-53415166D01*
X76371966Y-53642095D01*
X76371735Y-53642653D01*
X76234938Y-53847384D01*
X76060828Y-54021494D01*
X75856097Y-54158291D01*
X75856096Y-54158292D01*
X75856095Y-54158292D01*
X75628610Y-54252520D01*
X75387116Y-54300556D01*
X75140884Y-54300556D01*
X74899390Y-54252520D01*
X74671905Y-54158292D01*
X74671904Y-54158292D01*
X74671903Y-54158291D01*
X74467172Y-54021494D01*
X74293062Y-53847384D01*
X74156265Y-53642653D01*
X74156034Y-53642095D01*
X74062036Y-53415166D01*
X74014000Y-53173672D01*
X74014000Y-52927440D01*
X74062036Y-52685946D01*
X74156264Y-52458461D01*
X74156636Y-52457905D01*
X74293062Y-52253728D01*
X74467172Y-52079618D01*
X74671903Y-51942821D01*
X74673245Y-51942265D01*
X74899390Y-51848592D01*
X75140884Y-51800556D01*
X75387116Y-51800556D01*
X75628610Y-51848592D01*
X75628610Y-51848592D01*
G37*
G36*
X137002610Y-51848592D02*
G01*
X137228755Y-51942265D01*
X137230097Y-51942821D01*
X137434828Y-52079618D01*
X137608938Y-52253728D01*
X137745365Y-52457905D01*
X137745736Y-52458461D01*
X137839964Y-52685946D01*
X137888000Y-52927440D01*
X137888000Y-53173672D01*
X137839964Y-53415166D01*
X137745966Y-53642095D01*
X137745735Y-53642653D01*
X137608938Y-53847384D01*
X137434828Y-54021494D01*
X137230097Y-54158291D01*
X137230096Y-54158292D01*
X137230095Y-54158292D01*
X137002610Y-54252520D01*
X136761116Y-54300556D01*
X136514884Y-54300556D01*
X136273390Y-54252520D01*
X136045905Y-54158292D01*
X136045904Y-54158292D01*
X136045903Y-54158291D01*
X135841172Y-54021494D01*
X135667062Y-53847384D01*
X135530265Y-53642653D01*
X135530034Y-53642095D01*
X135436036Y-53415166D01*
X135388000Y-53173672D01*
X135388000Y-52927440D01*
X135436036Y-52685946D01*
X135530264Y-52458461D01*
X135530636Y-52457905D01*
X135667062Y-52253728D01*
X135841172Y-52079618D01*
X136045903Y-51942821D01*
X136047245Y-51942265D01*
X136273390Y-51848592D01*
X136514884Y-51800556D01*
X136761116Y-51800556D01*
X137002610Y-51848592D01*
X137002610Y-51848592D01*
G37*
G36*
X147002610Y-51848592D02*
G01*
X147228755Y-51942265D01*
X147230097Y-51942821D01*
X147434828Y-52079618D01*
X147608938Y-52253728D01*
X147745365Y-52457905D01*
X147745736Y-52458461D01*
X147839964Y-52685946D01*
X147888000Y-52927440D01*
X147888000Y-53173672D01*
X147839964Y-53415166D01*
X147745966Y-53642095D01*
X147745735Y-53642653D01*
X147608938Y-53847384D01*
X147434828Y-54021494D01*
X147230097Y-54158291D01*
X147230096Y-54158292D01*
X147230095Y-54158292D01*
X147002610Y-54252520D01*
X146761116Y-54300556D01*
X146514884Y-54300556D01*
X146273390Y-54252520D01*
X146045905Y-54158292D01*
X146045904Y-54158292D01*
X146045903Y-54158291D01*
X145841172Y-54021494D01*
X145667062Y-53847384D01*
X145530265Y-53642653D01*
X145530034Y-53642095D01*
X145436036Y-53415166D01*
X145388000Y-53173672D01*
X145388000Y-52927440D01*
X145436036Y-52685946D01*
X145530264Y-52458461D01*
X145530636Y-52457905D01*
X145667062Y-52253728D01*
X145841172Y-52079618D01*
X146045903Y-51942821D01*
X146047245Y-51942265D01*
X146273390Y-51848592D01*
X146514884Y-51800556D01*
X146761116Y-51800556D01*
X147002610Y-51848592D01*
X147002610Y-51848592D01*
G37*
G36*
X152888000Y-54300556D02*
G01*
X150388000Y-54300556D01*
X150388000Y-51800556D01*
X152888000Y-51800556D01*
X152888000Y-54300556D01*
X152888000Y-54300556D01*
G37*
G36*
X142002610Y-51848592D02*
G01*
X142228755Y-51942265D01*
X142230097Y-51942821D01*
X142434828Y-52079618D01*
X142608938Y-52253728D01*
X142745365Y-52457905D01*
X142745736Y-52458461D01*
X142839964Y-52685946D01*
X142888000Y-52927440D01*
X142888000Y-53173672D01*
X142839964Y-53415166D01*
X142745966Y-53642095D01*
X142745735Y-53642653D01*
X142608938Y-53847384D01*
X142434828Y-54021494D01*
X142230097Y-54158291D01*
X142230096Y-54158292D01*
X142230095Y-54158292D01*
X142002610Y-54252520D01*
X141761116Y-54300556D01*
X141514884Y-54300556D01*
X141273390Y-54252520D01*
X141045905Y-54158292D01*
X141045904Y-54158292D01*
X141045903Y-54158291D01*
X140841172Y-54021494D01*
X140667062Y-53847384D01*
X140530265Y-53642653D01*
X140530034Y-53642095D01*
X140436036Y-53415166D01*
X140388000Y-53173672D01*
X140388000Y-52927440D01*
X140436036Y-52685946D01*
X140530264Y-52458461D01*
X140530636Y-52457905D01*
X140667062Y-52253728D01*
X140841172Y-52079618D01*
X141045903Y-51942821D01*
X141047245Y-51942265D01*
X141273390Y-51848592D01*
X141514884Y-51800556D01*
X141761116Y-51800556D01*
X142002610Y-51848592D01*
X142002610Y-51848592D01*
G37*
G36*
X170800000Y-54300000D02*
G01*
X168300000Y-54300000D01*
X168300000Y-51800000D01*
X170800000Y-51800000D01*
X170800000Y-54300000D01*
X170800000Y-54300000D01*
G37*
G36*
X164914610Y-51848036D02*
G01*
X165100416Y-51925000D01*
X165142097Y-51942265D01*
X165346828Y-52079062D01*
X165520938Y-52253172D01*
X165642283Y-52434777D01*
X165657736Y-52457905D01*
X165751964Y-52685390D01*
X165800000Y-52926884D01*
X165800000Y-53173116D01*
X165751964Y-53414610D01*
X165657736Y-53642095D01*
X165657735Y-53642097D01*
X165520938Y-53846828D01*
X165346828Y-54020938D01*
X165142097Y-54157735D01*
X165142096Y-54157736D01*
X165142095Y-54157736D01*
X164914610Y-54251964D01*
X164673116Y-54300000D01*
X164426884Y-54300000D01*
X164185390Y-54251964D01*
X163957905Y-54157736D01*
X163957904Y-54157736D01*
X163957903Y-54157735D01*
X163753172Y-54020938D01*
X163579062Y-53846828D01*
X163442265Y-53642097D01*
X163442264Y-53642095D01*
X163348036Y-53414610D01*
X163300000Y-53173116D01*
X163300000Y-52926884D01*
X163348036Y-52685390D01*
X163442264Y-52457905D01*
X163457718Y-52434777D01*
X163579062Y-52253172D01*
X163753172Y-52079062D01*
X163957903Y-51942265D01*
X163999584Y-51925000D01*
X164185390Y-51848036D01*
X164426884Y-51800000D01*
X164673116Y-51800000D01*
X164914610Y-51848036D01*
X164914610Y-51848036D01*
G37*
M02*
