G04 #@! TF.GenerationSoftware,KiCad,Pcbnew,5.1.2*
G04 #@! TF.CreationDate,2019-06-10T17:55:51+05:30*
G04 #@! TF.ProjectId,openPlc_Rpi,6f70656e-506c-4635-9f52-70692e6b6963,rev?*
G04 #@! TF.SameCoordinates,Original*
G04 #@! TF.FileFunction,Paste,Top*
G04 #@! TF.FilePolarity,Positive*
%FSLAX46Y46*%
G04 Gerber Fmt 4.6, Leading zero omitted, Abs format (unit mm)*
G04 Created by KiCad (PCBNEW 5.1.2) date 2019-06-10 17:55:51*
%MOMM*%
%LPD*%
G04 APERTURE LIST*
%ADD10C,0.100000*%
%ADD11C,1.150000*%
%ADD12C,2.500000*%
%ADD13R,2.300000X3.500000*%
%ADD14R,0.600000X1.550000*%
%ADD15R,0.800000X0.900000*%
%ADD16R,0.600000X2.000000*%
%ADD17R,1.000000X1.600000*%
%ADD18R,1.500000X1.300000*%
%ADD19R,4.550000X5.250000*%
%ADD20R,4.600000X1.100000*%
%ADD21R,5.400000X2.900000*%
%ADD22R,3.500000X1.800000*%
%ADD23R,2.000000X1.600000*%
%ADD24R,3.300000X4.500000*%
%ADD25R,1.600000X1.600000*%
%ADD26R,1.100000X0.250000*%
%ADD27R,3.800000X2.000000*%
%ADD28R,1.500000X2.000000*%
G04 APERTURE END LIST*
D10*
G36*
X172324505Y-69526204D02*
G01*
X172348773Y-69529804D01*
X172372572Y-69535765D01*
X172395671Y-69544030D01*
X172417850Y-69554520D01*
X172438893Y-69567132D01*
X172458599Y-69581747D01*
X172476777Y-69598223D01*
X172493253Y-69616401D01*
X172507868Y-69636107D01*
X172520480Y-69657150D01*
X172530970Y-69679329D01*
X172539235Y-69702428D01*
X172545196Y-69726227D01*
X172548796Y-69750495D01*
X172550000Y-69774999D01*
X172550000Y-70425001D01*
X172548796Y-70449505D01*
X172545196Y-70473773D01*
X172539235Y-70497572D01*
X172530970Y-70520671D01*
X172520480Y-70542850D01*
X172507868Y-70563893D01*
X172493253Y-70583599D01*
X172476777Y-70601777D01*
X172458599Y-70618253D01*
X172438893Y-70632868D01*
X172417850Y-70645480D01*
X172395671Y-70655970D01*
X172372572Y-70664235D01*
X172348773Y-70670196D01*
X172324505Y-70673796D01*
X172300001Y-70675000D01*
X171399999Y-70675000D01*
X171375495Y-70673796D01*
X171351227Y-70670196D01*
X171327428Y-70664235D01*
X171304329Y-70655970D01*
X171282150Y-70645480D01*
X171261107Y-70632868D01*
X171241401Y-70618253D01*
X171223223Y-70601777D01*
X171206747Y-70583599D01*
X171192132Y-70563893D01*
X171179520Y-70542850D01*
X171169030Y-70520671D01*
X171160765Y-70497572D01*
X171154804Y-70473773D01*
X171151204Y-70449505D01*
X171150000Y-70425001D01*
X171150000Y-69774999D01*
X171151204Y-69750495D01*
X171154804Y-69726227D01*
X171160765Y-69702428D01*
X171169030Y-69679329D01*
X171179520Y-69657150D01*
X171192132Y-69636107D01*
X171206747Y-69616401D01*
X171223223Y-69598223D01*
X171241401Y-69581747D01*
X171261107Y-69567132D01*
X171282150Y-69554520D01*
X171304329Y-69544030D01*
X171327428Y-69535765D01*
X171351227Y-69529804D01*
X171375495Y-69526204D01*
X171399999Y-69525000D01*
X172300001Y-69525000D01*
X172324505Y-69526204D01*
X172324505Y-69526204D01*
G37*
D11*
X171850000Y-70100000D03*
D10*
G36*
X172324505Y-67476204D02*
G01*
X172348773Y-67479804D01*
X172372572Y-67485765D01*
X172395671Y-67494030D01*
X172417850Y-67504520D01*
X172438893Y-67517132D01*
X172458599Y-67531747D01*
X172476777Y-67548223D01*
X172493253Y-67566401D01*
X172507868Y-67586107D01*
X172520480Y-67607150D01*
X172530970Y-67629329D01*
X172539235Y-67652428D01*
X172545196Y-67676227D01*
X172548796Y-67700495D01*
X172550000Y-67724999D01*
X172550000Y-68375001D01*
X172548796Y-68399505D01*
X172545196Y-68423773D01*
X172539235Y-68447572D01*
X172530970Y-68470671D01*
X172520480Y-68492850D01*
X172507868Y-68513893D01*
X172493253Y-68533599D01*
X172476777Y-68551777D01*
X172458599Y-68568253D01*
X172438893Y-68582868D01*
X172417850Y-68595480D01*
X172395671Y-68605970D01*
X172372572Y-68614235D01*
X172348773Y-68620196D01*
X172324505Y-68623796D01*
X172300001Y-68625000D01*
X171399999Y-68625000D01*
X171375495Y-68623796D01*
X171351227Y-68620196D01*
X171327428Y-68614235D01*
X171304329Y-68605970D01*
X171282150Y-68595480D01*
X171261107Y-68582868D01*
X171241401Y-68568253D01*
X171223223Y-68551777D01*
X171206747Y-68533599D01*
X171192132Y-68513893D01*
X171179520Y-68492850D01*
X171169030Y-68470671D01*
X171160765Y-68447572D01*
X171154804Y-68423773D01*
X171151204Y-68399505D01*
X171150000Y-68375001D01*
X171150000Y-67724999D01*
X171151204Y-67700495D01*
X171154804Y-67676227D01*
X171160765Y-67652428D01*
X171169030Y-67629329D01*
X171179520Y-67607150D01*
X171192132Y-67586107D01*
X171206747Y-67566401D01*
X171223223Y-67548223D01*
X171241401Y-67531747D01*
X171261107Y-67517132D01*
X171282150Y-67504520D01*
X171304329Y-67494030D01*
X171327428Y-67485765D01*
X171351227Y-67479804D01*
X171375495Y-67476204D01*
X171399999Y-67475000D01*
X172300001Y-67475000D01*
X172324505Y-67476204D01*
X172324505Y-67476204D01*
G37*
D11*
X171850000Y-68050000D03*
D10*
G36*
X68549505Y-96527204D02*
G01*
X68573773Y-96530804D01*
X68597572Y-96536765D01*
X68620671Y-96545030D01*
X68642850Y-96555520D01*
X68663893Y-96568132D01*
X68683599Y-96582747D01*
X68701777Y-96599223D01*
X68718253Y-96617401D01*
X68732868Y-96637107D01*
X68745480Y-96658150D01*
X68755970Y-96680329D01*
X68764235Y-96703428D01*
X68770196Y-96727227D01*
X68773796Y-96751495D01*
X68775000Y-96775999D01*
X68775000Y-97676001D01*
X68773796Y-97700505D01*
X68770196Y-97724773D01*
X68764235Y-97748572D01*
X68755970Y-97771671D01*
X68745480Y-97793850D01*
X68732868Y-97814893D01*
X68718253Y-97834599D01*
X68701777Y-97852777D01*
X68683599Y-97869253D01*
X68663893Y-97883868D01*
X68642850Y-97896480D01*
X68620671Y-97906970D01*
X68597572Y-97915235D01*
X68573773Y-97921196D01*
X68549505Y-97924796D01*
X68525001Y-97926000D01*
X67874999Y-97926000D01*
X67850495Y-97924796D01*
X67826227Y-97921196D01*
X67802428Y-97915235D01*
X67779329Y-97906970D01*
X67757150Y-97896480D01*
X67736107Y-97883868D01*
X67716401Y-97869253D01*
X67698223Y-97852777D01*
X67681747Y-97834599D01*
X67667132Y-97814893D01*
X67654520Y-97793850D01*
X67644030Y-97771671D01*
X67635765Y-97748572D01*
X67629804Y-97724773D01*
X67626204Y-97700505D01*
X67625000Y-97676001D01*
X67625000Y-96775999D01*
X67626204Y-96751495D01*
X67629804Y-96727227D01*
X67635765Y-96703428D01*
X67644030Y-96680329D01*
X67654520Y-96658150D01*
X67667132Y-96637107D01*
X67681747Y-96617401D01*
X67698223Y-96599223D01*
X67716401Y-96582747D01*
X67736107Y-96568132D01*
X67757150Y-96555520D01*
X67779329Y-96545030D01*
X67802428Y-96536765D01*
X67826227Y-96530804D01*
X67850495Y-96527204D01*
X67874999Y-96526000D01*
X68525001Y-96526000D01*
X68549505Y-96527204D01*
X68549505Y-96527204D01*
G37*
D11*
X68200000Y-97226000D03*
D10*
G36*
X66499505Y-96527204D02*
G01*
X66523773Y-96530804D01*
X66547572Y-96536765D01*
X66570671Y-96545030D01*
X66592850Y-96555520D01*
X66613893Y-96568132D01*
X66633599Y-96582747D01*
X66651777Y-96599223D01*
X66668253Y-96617401D01*
X66682868Y-96637107D01*
X66695480Y-96658150D01*
X66705970Y-96680329D01*
X66714235Y-96703428D01*
X66720196Y-96727227D01*
X66723796Y-96751495D01*
X66725000Y-96775999D01*
X66725000Y-97676001D01*
X66723796Y-97700505D01*
X66720196Y-97724773D01*
X66714235Y-97748572D01*
X66705970Y-97771671D01*
X66695480Y-97793850D01*
X66682868Y-97814893D01*
X66668253Y-97834599D01*
X66651777Y-97852777D01*
X66633599Y-97869253D01*
X66613893Y-97883868D01*
X66592850Y-97896480D01*
X66570671Y-97906970D01*
X66547572Y-97915235D01*
X66523773Y-97921196D01*
X66499505Y-97924796D01*
X66475001Y-97926000D01*
X65824999Y-97926000D01*
X65800495Y-97924796D01*
X65776227Y-97921196D01*
X65752428Y-97915235D01*
X65729329Y-97906970D01*
X65707150Y-97896480D01*
X65686107Y-97883868D01*
X65666401Y-97869253D01*
X65648223Y-97852777D01*
X65631747Y-97834599D01*
X65617132Y-97814893D01*
X65604520Y-97793850D01*
X65594030Y-97771671D01*
X65585765Y-97748572D01*
X65579804Y-97724773D01*
X65576204Y-97700505D01*
X65575000Y-97676001D01*
X65575000Y-96775999D01*
X65576204Y-96751495D01*
X65579804Y-96727227D01*
X65585765Y-96703428D01*
X65594030Y-96680329D01*
X65604520Y-96658150D01*
X65617132Y-96637107D01*
X65631747Y-96617401D01*
X65648223Y-96599223D01*
X65666401Y-96582747D01*
X65686107Y-96568132D01*
X65707150Y-96555520D01*
X65729329Y-96545030D01*
X65752428Y-96536765D01*
X65776227Y-96530804D01*
X65800495Y-96527204D01*
X65824999Y-96526000D01*
X66475001Y-96526000D01*
X66499505Y-96527204D01*
X66499505Y-96527204D01*
G37*
D11*
X66150000Y-97226000D03*
D10*
G36*
X79080505Y-84137204D02*
G01*
X79104773Y-84140804D01*
X79128572Y-84146765D01*
X79151671Y-84155030D01*
X79173850Y-84165520D01*
X79194893Y-84178132D01*
X79214599Y-84192747D01*
X79232777Y-84209223D01*
X79249253Y-84227401D01*
X79263868Y-84247107D01*
X79276480Y-84268150D01*
X79286970Y-84290329D01*
X79295235Y-84313428D01*
X79301196Y-84337227D01*
X79304796Y-84361495D01*
X79306000Y-84385999D01*
X79306000Y-85286001D01*
X79304796Y-85310505D01*
X79301196Y-85334773D01*
X79295235Y-85358572D01*
X79286970Y-85381671D01*
X79276480Y-85403850D01*
X79263868Y-85424893D01*
X79249253Y-85444599D01*
X79232777Y-85462777D01*
X79214599Y-85479253D01*
X79194893Y-85493868D01*
X79173850Y-85506480D01*
X79151671Y-85516970D01*
X79128572Y-85525235D01*
X79104773Y-85531196D01*
X79080505Y-85534796D01*
X79056001Y-85536000D01*
X78405999Y-85536000D01*
X78381495Y-85534796D01*
X78357227Y-85531196D01*
X78333428Y-85525235D01*
X78310329Y-85516970D01*
X78288150Y-85506480D01*
X78267107Y-85493868D01*
X78247401Y-85479253D01*
X78229223Y-85462777D01*
X78212747Y-85444599D01*
X78198132Y-85424893D01*
X78185520Y-85403850D01*
X78175030Y-85381671D01*
X78166765Y-85358572D01*
X78160804Y-85334773D01*
X78157204Y-85310505D01*
X78156000Y-85286001D01*
X78156000Y-84385999D01*
X78157204Y-84361495D01*
X78160804Y-84337227D01*
X78166765Y-84313428D01*
X78175030Y-84290329D01*
X78185520Y-84268150D01*
X78198132Y-84247107D01*
X78212747Y-84227401D01*
X78229223Y-84209223D01*
X78247401Y-84192747D01*
X78267107Y-84178132D01*
X78288150Y-84165520D01*
X78310329Y-84155030D01*
X78333428Y-84146765D01*
X78357227Y-84140804D01*
X78381495Y-84137204D01*
X78405999Y-84136000D01*
X79056001Y-84136000D01*
X79080505Y-84137204D01*
X79080505Y-84137204D01*
G37*
D11*
X78731000Y-84836000D03*
D10*
G36*
X81130505Y-84137204D02*
G01*
X81154773Y-84140804D01*
X81178572Y-84146765D01*
X81201671Y-84155030D01*
X81223850Y-84165520D01*
X81244893Y-84178132D01*
X81264599Y-84192747D01*
X81282777Y-84209223D01*
X81299253Y-84227401D01*
X81313868Y-84247107D01*
X81326480Y-84268150D01*
X81336970Y-84290329D01*
X81345235Y-84313428D01*
X81351196Y-84337227D01*
X81354796Y-84361495D01*
X81356000Y-84385999D01*
X81356000Y-85286001D01*
X81354796Y-85310505D01*
X81351196Y-85334773D01*
X81345235Y-85358572D01*
X81336970Y-85381671D01*
X81326480Y-85403850D01*
X81313868Y-85424893D01*
X81299253Y-85444599D01*
X81282777Y-85462777D01*
X81264599Y-85479253D01*
X81244893Y-85493868D01*
X81223850Y-85506480D01*
X81201671Y-85516970D01*
X81178572Y-85525235D01*
X81154773Y-85531196D01*
X81130505Y-85534796D01*
X81106001Y-85536000D01*
X80455999Y-85536000D01*
X80431495Y-85534796D01*
X80407227Y-85531196D01*
X80383428Y-85525235D01*
X80360329Y-85516970D01*
X80338150Y-85506480D01*
X80317107Y-85493868D01*
X80297401Y-85479253D01*
X80279223Y-85462777D01*
X80262747Y-85444599D01*
X80248132Y-85424893D01*
X80235520Y-85403850D01*
X80225030Y-85381671D01*
X80216765Y-85358572D01*
X80210804Y-85334773D01*
X80207204Y-85310505D01*
X80206000Y-85286001D01*
X80206000Y-84385999D01*
X80207204Y-84361495D01*
X80210804Y-84337227D01*
X80216765Y-84313428D01*
X80225030Y-84290329D01*
X80235520Y-84268150D01*
X80248132Y-84247107D01*
X80262747Y-84227401D01*
X80279223Y-84209223D01*
X80297401Y-84192747D01*
X80317107Y-84178132D01*
X80338150Y-84165520D01*
X80360329Y-84155030D01*
X80383428Y-84146765D01*
X80407227Y-84140804D01*
X80431495Y-84137204D01*
X80455999Y-84136000D01*
X81106001Y-84136000D01*
X81130505Y-84137204D01*
X81130505Y-84137204D01*
G37*
D11*
X80781000Y-84836000D03*
D10*
G36*
X79080505Y-98361204D02*
G01*
X79104773Y-98364804D01*
X79128572Y-98370765D01*
X79151671Y-98379030D01*
X79173850Y-98389520D01*
X79194893Y-98402132D01*
X79214599Y-98416747D01*
X79232777Y-98433223D01*
X79249253Y-98451401D01*
X79263868Y-98471107D01*
X79276480Y-98492150D01*
X79286970Y-98514329D01*
X79295235Y-98537428D01*
X79301196Y-98561227D01*
X79304796Y-98585495D01*
X79306000Y-98609999D01*
X79306000Y-99510001D01*
X79304796Y-99534505D01*
X79301196Y-99558773D01*
X79295235Y-99582572D01*
X79286970Y-99605671D01*
X79276480Y-99627850D01*
X79263868Y-99648893D01*
X79249253Y-99668599D01*
X79232777Y-99686777D01*
X79214599Y-99703253D01*
X79194893Y-99717868D01*
X79173850Y-99730480D01*
X79151671Y-99740970D01*
X79128572Y-99749235D01*
X79104773Y-99755196D01*
X79080505Y-99758796D01*
X79056001Y-99760000D01*
X78405999Y-99760000D01*
X78381495Y-99758796D01*
X78357227Y-99755196D01*
X78333428Y-99749235D01*
X78310329Y-99740970D01*
X78288150Y-99730480D01*
X78267107Y-99717868D01*
X78247401Y-99703253D01*
X78229223Y-99686777D01*
X78212747Y-99668599D01*
X78198132Y-99648893D01*
X78185520Y-99627850D01*
X78175030Y-99605671D01*
X78166765Y-99582572D01*
X78160804Y-99558773D01*
X78157204Y-99534505D01*
X78156000Y-99510001D01*
X78156000Y-98609999D01*
X78157204Y-98585495D01*
X78160804Y-98561227D01*
X78166765Y-98537428D01*
X78175030Y-98514329D01*
X78185520Y-98492150D01*
X78198132Y-98471107D01*
X78212747Y-98451401D01*
X78229223Y-98433223D01*
X78247401Y-98416747D01*
X78267107Y-98402132D01*
X78288150Y-98389520D01*
X78310329Y-98379030D01*
X78333428Y-98370765D01*
X78357227Y-98364804D01*
X78381495Y-98361204D01*
X78405999Y-98360000D01*
X79056001Y-98360000D01*
X79080505Y-98361204D01*
X79080505Y-98361204D01*
G37*
D11*
X78731000Y-99060000D03*
D10*
G36*
X81130505Y-98361204D02*
G01*
X81154773Y-98364804D01*
X81178572Y-98370765D01*
X81201671Y-98379030D01*
X81223850Y-98389520D01*
X81244893Y-98402132D01*
X81264599Y-98416747D01*
X81282777Y-98433223D01*
X81299253Y-98451401D01*
X81313868Y-98471107D01*
X81326480Y-98492150D01*
X81336970Y-98514329D01*
X81345235Y-98537428D01*
X81351196Y-98561227D01*
X81354796Y-98585495D01*
X81356000Y-98609999D01*
X81356000Y-99510001D01*
X81354796Y-99534505D01*
X81351196Y-99558773D01*
X81345235Y-99582572D01*
X81336970Y-99605671D01*
X81326480Y-99627850D01*
X81313868Y-99648893D01*
X81299253Y-99668599D01*
X81282777Y-99686777D01*
X81264599Y-99703253D01*
X81244893Y-99717868D01*
X81223850Y-99730480D01*
X81201671Y-99740970D01*
X81178572Y-99749235D01*
X81154773Y-99755196D01*
X81130505Y-99758796D01*
X81106001Y-99760000D01*
X80455999Y-99760000D01*
X80431495Y-99758796D01*
X80407227Y-99755196D01*
X80383428Y-99749235D01*
X80360329Y-99740970D01*
X80338150Y-99730480D01*
X80317107Y-99717868D01*
X80297401Y-99703253D01*
X80279223Y-99686777D01*
X80262747Y-99668599D01*
X80248132Y-99648893D01*
X80235520Y-99627850D01*
X80225030Y-99605671D01*
X80216765Y-99582572D01*
X80210804Y-99558773D01*
X80207204Y-99534505D01*
X80206000Y-99510001D01*
X80206000Y-98609999D01*
X80207204Y-98585495D01*
X80210804Y-98561227D01*
X80216765Y-98537428D01*
X80225030Y-98514329D01*
X80235520Y-98492150D01*
X80248132Y-98471107D01*
X80262747Y-98451401D01*
X80279223Y-98433223D01*
X80297401Y-98416747D01*
X80317107Y-98402132D01*
X80338150Y-98389520D01*
X80360329Y-98379030D01*
X80383428Y-98370765D01*
X80407227Y-98364804D01*
X80431495Y-98361204D01*
X80455999Y-98360000D01*
X81106001Y-98360000D01*
X81130505Y-98361204D01*
X81130505Y-98361204D01*
G37*
D11*
X80781000Y-99060000D03*
D10*
G36*
X140301505Y-71063204D02*
G01*
X140325773Y-71066804D01*
X140349572Y-71072765D01*
X140372671Y-71081030D01*
X140394850Y-71091520D01*
X140415893Y-71104132D01*
X140435599Y-71118747D01*
X140453777Y-71135223D01*
X140470253Y-71153401D01*
X140484868Y-71173107D01*
X140497480Y-71194150D01*
X140507970Y-71216329D01*
X140516235Y-71239428D01*
X140522196Y-71263227D01*
X140525796Y-71287495D01*
X140527000Y-71311999D01*
X140527000Y-71962001D01*
X140525796Y-71986505D01*
X140522196Y-72010773D01*
X140516235Y-72034572D01*
X140507970Y-72057671D01*
X140497480Y-72079850D01*
X140484868Y-72100893D01*
X140470253Y-72120599D01*
X140453777Y-72138777D01*
X140435599Y-72155253D01*
X140415893Y-72169868D01*
X140394850Y-72182480D01*
X140372671Y-72192970D01*
X140349572Y-72201235D01*
X140325773Y-72207196D01*
X140301505Y-72210796D01*
X140277001Y-72212000D01*
X139376999Y-72212000D01*
X139352495Y-72210796D01*
X139328227Y-72207196D01*
X139304428Y-72201235D01*
X139281329Y-72192970D01*
X139259150Y-72182480D01*
X139238107Y-72169868D01*
X139218401Y-72155253D01*
X139200223Y-72138777D01*
X139183747Y-72120599D01*
X139169132Y-72100893D01*
X139156520Y-72079850D01*
X139146030Y-72057671D01*
X139137765Y-72034572D01*
X139131804Y-72010773D01*
X139128204Y-71986505D01*
X139127000Y-71962001D01*
X139127000Y-71311999D01*
X139128204Y-71287495D01*
X139131804Y-71263227D01*
X139137765Y-71239428D01*
X139146030Y-71216329D01*
X139156520Y-71194150D01*
X139169132Y-71173107D01*
X139183747Y-71153401D01*
X139200223Y-71135223D01*
X139218401Y-71118747D01*
X139238107Y-71104132D01*
X139259150Y-71091520D01*
X139281329Y-71081030D01*
X139304428Y-71072765D01*
X139328227Y-71066804D01*
X139352495Y-71063204D01*
X139376999Y-71062000D01*
X140277001Y-71062000D01*
X140301505Y-71063204D01*
X140301505Y-71063204D01*
G37*
D11*
X139827000Y-71637000D03*
D10*
G36*
X140301505Y-69013204D02*
G01*
X140325773Y-69016804D01*
X140349572Y-69022765D01*
X140372671Y-69031030D01*
X140394850Y-69041520D01*
X140415893Y-69054132D01*
X140435599Y-69068747D01*
X140453777Y-69085223D01*
X140470253Y-69103401D01*
X140484868Y-69123107D01*
X140497480Y-69144150D01*
X140507970Y-69166329D01*
X140516235Y-69189428D01*
X140522196Y-69213227D01*
X140525796Y-69237495D01*
X140527000Y-69261999D01*
X140527000Y-69912001D01*
X140525796Y-69936505D01*
X140522196Y-69960773D01*
X140516235Y-69984572D01*
X140507970Y-70007671D01*
X140497480Y-70029850D01*
X140484868Y-70050893D01*
X140470253Y-70070599D01*
X140453777Y-70088777D01*
X140435599Y-70105253D01*
X140415893Y-70119868D01*
X140394850Y-70132480D01*
X140372671Y-70142970D01*
X140349572Y-70151235D01*
X140325773Y-70157196D01*
X140301505Y-70160796D01*
X140277001Y-70162000D01*
X139376999Y-70162000D01*
X139352495Y-70160796D01*
X139328227Y-70157196D01*
X139304428Y-70151235D01*
X139281329Y-70142970D01*
X139259150Y-70132480D01*
X139238107Y-70119868D01*
X139218401Y-70105253D01*
X139200223Y-70088777D01*
X139183747Y-70070599D01*
X139169132Y-70050893D01*
X139156520Y-70029850D01*
X139146030Y-70007671D01*
X139137765Y-69984572D01*
X139131804Y-69960773D01*
X139128204Y-69936505D01*
X139127000Y-69912001D01*
X139127000Y-69261999D01*
X139128204Y-69237495D01*
X139131804Y-69213227D01*
X139137765Y-69189428D01*
X139146030Y-69166329D01*
X139156520Y-69144150D01*
X139169132Y-69123107D01*
X139183747Y-69103401D01*
X139200223Y-69085223D01*
X139218401Y-69068747D01*
X139238107Y-69054132D01*
X139259150Y-69041520D01*
X139281329Y-69031030D01*
X139304428Y-69022765D01*
X139328227Y-69016804D01*
X139352495Y-69013204D01*
X139376999Y-69012000D01*
X140277001Y-69012000D01*
X140301505Y-69013204D01*
X140301505Y-69013204D01*
G37*
D11*
X139827000Y-69587000D03*
D10*
G36*
X67813504Y-84984204D02*
G01*
X67837773Y-84987804D01*
X67861571Y-84993765D01*
X67884671Y-85002030D01*
X67906849Y-85012520D01*
X67927893Y-85025133D01*
X67947598Y-85039747D01*
X67965777Y-85056223D01*
X67982253Y-85074402D01*
X67996867Y-85094107D01*
X68009480Y-85115151D01*
X68019970Y-85137329D01*
X68028235Y-85160429D01*
X68034196Y-85184227D01*
X68037796Y-85208496D01*
X68039000Y-85233000D01*
X68039000Y-87233000D01*
X68037796Y-87257504D01*
X68034196Y-87281773D01*
X68028235Y-87305571D01*
X68019970Y-87328671D01*
X68009480Y-87350849D01*
X67996867Y-87371893D01*
X67982253Y-87391598D01*
X67965777Y-87409777D01*
X67947598Y-87426253D01*
X67927893Y-87440867D01*
X67906849Y-87453480D01*
X67884671Y-87463970D01*
X67861571Y-87472235D01*
X67837773Y-87478196D01*
X67813504Y-87481796D01*
X67789000Y-87483000D01*
X64289000Y-87483000D01*
X64264496Y-87481796D01*
X64240227Y-87478196D01*
X64216429Y-87472235D01*
X64193329Y-87463970D01*
X64171151Y-87453480D01*
X64150107Y-87440867D01*
X64130402Y-87426253D01*
X64112223Y-87409777D01*
X64095747Y-87391598D01*
X64081133Y-87371893D01*
X64068520Y-87350849D01*
X64058030Y-87328671D01*
X64049765Y-87305571D01*
X64043804Y-87281773D01*
X64040204Y-87257504D01*
X64039000Y-87233000D01*
X64039000Y-85233000D01*
X64040204Y-85208496D01*
X64043804Y-85184227D01*
X64049765Y-85160429D01*
X64058030Y-85137329D01*
X64068520Y-85115151D01*
X64081133Y-85094107D01*
X64095747Y-85074402D01*
X64112223Y-85056223D01*
X64130402Y-85039747D01*
X64150107Y-85025133D01*
X64171151Y-85012520D01*
X64193329Y-85002030D01*
X64216429Y-84993765D01*
X64240227Y-84987804D01*
X64264496Y-84984204D01*
X64289000Y-84983000D01*
X67789000Y-84983000D01*
X67813504Y-84984204D01*
X67813504Y-84984204D01*
G37*
D12*
X66039000Y-86233000D03*
D10*
G36*
X59813504Y-84984204D02*
G01*
X59837773Y-84987804D01*
X59861571Y-84993765D01*
X59884671Y-85002030D01*
X59906849Y-85012520D01*
X59927893Y-85025133D01*
X59947598Y-85039747D01*
X59965777Y-85056223D01*
X59982253Y-85074402D01*
X59996867Y-85094107D01*
X60009480Y-85115151D01*
X60019970Y-85137329D01*
X60028235Y-85160429D01*
X60034196Y-85184227D01*
X60037796Y-85208496D01*
X60039000Y-85233000D01*
X60039000Y-87233000D01*
X60037796Y-87257504D01*
X60034196Y-87281773D01*
X60028235Y-87305571D01*
X60019970Y-87328671D01*
X60009480Y-87350849D01*
X59996867Y-87371893D01*
X59982253Y-87391598D01*
X59965777Y-87409777D01*
X59947598Y-87426253D01*
X59927893Y-87440867D01*
X59906849Y-87453480D01*
X59884671Y-87463970D01*
X59861571Y-87472235D01*
X59837773Y-87478196D01*
X59813504Y-87481796D01*
X59789000Y-87483000D01*
X56289000Y-87483000D01*
X56264496Y-87481796D01*
X56240227Y-87478196D01*
X56216429Y-87472235D01*
X56193329Y-87463970D01*
X56171151Y-87453480D01*
X56150107Y-87440867D01*
X56130402Y-87426253D01*
X56112223Y-87409777D01*
X56095747Y-87391598D01*
X56081133Y-87371893D01*
X56068520Y-87350849D01*
X56058030Y-87328671D01*
X56049765Y-87305571D01*
X56043804Y-87281773D01*
X56040204Y-87257504D01*
X56039000Y-87233000D01*
X56039000Y-85233000D01*
X56040204Y-85208496D01*
X56043804Y-85184227D01*
X56049765Y-85160429D01*
X56058030Y-85137329D01*
X56068520Y-85115151D01*
X56081133Y-85094107D01*
X56095747Y-85074402D01*
X56112223Y-85056223D01*
X56130402Y-85039747D01*
X56150107Y-85025133D01*
X56171151Y-85012520D01*
X56193329Y-85002030D01*
X56216429Y-84993765D01*
X56240227Y-84987804D01*
X56264496Y-84984204D01*
X56289000Y-84983000D01*
X59789000Y-84983000D01*
X59813504Y-84984204D01*
X59813504Y-84984204D01*
G37*
D12*
X58039000Y-86233000D03*
D10*
G36*
X46871504Y-59517204D02*
G01*
X46895773Y-59520804D01*
X46919571Y-59526765D01*
X46942671Y-59535030D01*
X46964849Y-59545520D01*
X46985893Y-59558133D01*
X47005598Y-59572747D01*
X47023777Y-59589223D01*
X47040253Y-59607402D01*
X47054867Y-59627107D01*
X47067480Y-59648151D01*
X47077970Y-59670329D01*
X47086235Y-59693429D01*
X47092196Y-59717227D01*
X47095796Y-59741496D01*
X47097000Y-59766000D01*
X47097000Y-62766000D01*
X47095796Y-62790504D01*
X47092196Y-62814773D01*
X47086235Y-62838571D01*
X47077970Y-62861671D01*
X47067480Y-62883849D01*
X47054867Y-62904893D01*
X47040253Y-62924598D01*
X47023777Y-62942777D01*
X47005598Y-62959253D01*
X46985893Y-62973867D01*
X46964849Y-62986480D01*
X46942671Y-62996970D01*
X46919571Y-63005235D01*
X46895773Y-63011196D01*
X46871504Y-63014796D01*
X46847000Y-63016000D01*
X44847000Y-63016000D01*
X44822496Y-63014796D01*
X44798227Y-63011196D01*
X44774429Y-63005235D01*
X44751329Y-62996970D01*
X44729151Y-62986480D01*
X44708107Y-62973867D01*
X44688402Y-62959253D01*
X44670223Y-62942777D01*
X44653747Y-62924598D01*
X44639133Y-62904893D01*
X44626520Y-62883849D01*
X44616030Y-62861671D01*
X44607765Y-62838571D01*
X44601804Y-62814773D01*
X44598204Y-62790504D01*
X44597000Y-62766000D01*
X44597000Y-59766000D01*
X44598204Y-59741496D01*
X44601804Y-59717227D01*
X44607765Y-59693429D01*
X44616030Y-59670329D01*
X44626520Y-59648151D01*
X44639133Y-59627107D01*
X44653747Y-59607402D01*
X44670223Y-59589223D01*
X44688402Y-59572747D01*
X44708107Y-59558133D01*
X44729151Y-59545520D01*
X44751329Y-59535030D01*
X44774429Y-59526765D01*
X44798227Y-59520804D01*
X44822496Y-59517204D01*
X44847000Y-59516000D01*
X46847000Y-59516000D01*
X46871504Y-59517204D01*
X46871504Y-59517204D01*
G37*
D12*
X45847000Y-61266000D03*
D10*
G36*
X46871504Y-66017204D02*
G01*
X46895773Y-66020804D01*
X46919571Y-66026765D01*
X46942671Y-66035030D01*
X46964849Y-66045520D01*
X46985893Y-66058133D01*
X47005598Y-66072747D01*
X47023777Y-66089223D01*
X47040253Y-66107402D01*
X47054867Y-66127107D01*
X47067480Y-66148151D01*
X47077970Y-66170329D01*
X47086235Y-66193429D01*
X47092196Y-66217227D01*
X47095796Y-66241496D01*
X47097000Y-66266000D01*
X47097000Y-69266000D01*
X47095796Y-69290504D01*
X47092196Y-69314773D01*
X47086235Y-69338571D01*
X47077970Y-69361671D01*
X47067480Y-69383849D01*
X47054867Y-69404893D01*
X47040253Y-69424598D01*
X47023777Y-69442777D01*
X47005598Y-69459253D01*
X46985893Y-69473867D01*
X46964849Y-69486480D01*
X46942671Y-69496970D01*
X46919571Y-69505235D01*
X46895773Y-69511196D01*
X46871504Y-69514796D01*
X46847000Y-69516000D01*
X44847000Y-69516000D01*
X44822496Y-69514796D01*
X44798227Y-69511196D01*
X44774429Y-69505235D01*
X44751329Y-69496970D01*
X44729151Y-69486480D01*
X44708107Y-69473867D01*
X44688402Y-69459253D01*
X44670223Y-69442777D01*
X44653747Y-69424598D01*
X44639133Y-69404893D01*
X44626520Y-69383849D01*
X44616030Y-69361671D01*
X44607765Y-69338571D01*
X44601804Y-69314773D01*
X44598204Y-69290504D01*
X44597000Y-69266000D01*
X44597000Y-66266000D01*
X44598204Y-66241496D01*
X44601804Y-66217227D01*
X44607765Y-66193429D01*
X44616030Y-66170329D01*
X44626520Y-66148151D01*
X44639133Y-66127107D01*
X44653747Y-66107402D01*
X44670223Y-66089223D01*
X44688402Y-66072747D01*
X44708107Y-66058133D01*
X44729151Y-66045520D01*
X44751329Y-66035030D01*
X44774429Y-66026765D01*
X44798227Y-66020804D01*
X44822496Y-66017204D01*
X44847000Y-66016000D01*
X46847000Y-66016000D01*
X46871504Y-66017204D01*
X46871504Y-66017204D01*
G37*
D12*
X45847000Y-67766000D03*
D10*
G36*
X101820505Y-109399204D02*
G01*
X101844773Y-109402804D01*
X101868572Y-109408765D01*
X101891671Y-109417030D01*
X101913850Y-109427520D01*
X101934893Y-109440132D01*
X101954599Y-109454747D01*
X101972777Y-109471223D01*
X101989253Y-109489401D01*
X102003868Y-109509107D01*
X102016480Y-109530150D01*
X102026970Y-109552329D01*
X102035235Y-109575428D01*
X102041196Y-109599227D01*
X102044796Y-109623495D01*
X102046000Y-109647999D01*
X102046000Y-110298001D01*
X102044796Y-110322505D01*
X102041196Y-110346773D01*
X102035235Y-110370572D01*
X102026970Y-110393671D01*
X102016480Y-110415850D01*
X102003868Y-110436893D01*
X101989253Y-110456599D01*
X101972777Y-110474777D01*
X101954599Y-110491253D01*
X101934893Y-110505868D01*
X101913850Y-110518480D01*
X101891671Y-110528970D01*
X101868572Y-110537235D01*
X101844773Y-110543196D01*
X101820505Y-110546796D01*
X101796001Y-110548000D01*
X100895999Y-110548000D01*
X100871495Y-110546796D01*
X100847227Y-110543196D01*
X100823428Y-110537235D01*
X100800329Y-110528970D01*
X100778150Y-110518480D01*
X100757107Y-110505868D01*
X100737401Y-110491253D01*
X100719223Y-110474777D01*
X100702747Y-110456599D01*
X100688132Y-110436893D01*
X100675520Y-110415850D01*
X100665030Y-110393671D01*
X100656765Y-110370572D01*
X100650804Y-110346773D01*
X100647204Y-110322505D01*
X100646000Y-110298001D01*
X100646000Y-109647999D01*
X100647204Y-109623495D01*
X100650804Y-109599227D01*
X100656765Y-109575428D01*
X100665030Y-109552329D01*
X100675520Y-109530150D01*
X100688132Y-109509107D01*
X100702747Y-109489401D01*
X100719223Y-109471223D01*
X100737401Y-109454747D01*
X100757107Y-109440132D01*
X100778150Y-109427520D01*
X100800329Y-109417030D01*
X100823428Y-109408765D01*
X100847227Y-109402804D01*
X100871495Y-109399204D01*
X100895999Y-109398000D01*
X101796001Y-109398000D01*
X101820505Y-109399204D01*
X101820505Y-109399204D01*
G37*
D11*
X101346000Y-109973000D03*
D10*
G36*
X101820505Y-111449204D02*
G01*
X101844773Y-111452804D01*
X101868572Y-111458765D01*
X101891671Y-111467030D01*
X101913850Y-111477520D01*
X101934893Y-111490132D01*
X101954599Y-111504747D01*
X101972777Y-111521223D01*
X101989253Y-111539401D01*
X102003868Y-111559107D01*
X102016480Y-111580150D01*
X102026970Y-111602329D01*
X102035235Y-111625428D01*
X102041196Y-111649227D01*
X102044796Y-111673495D01*
X102046000Y-111697999D01*
X102046000Y-112348001D01*
X102044796Y-112372505D01*
X102041196Y-112396773D01*
X102035235Y-112420572D01*
X102026970Y-112443671D01*
X102016480Y-112465850D01*
X102003868Y-112486893D01*
X101989253Y-112506599D01*
X101972777Y-112524777D01*
X101954599Y-112541253D01*
X101934893Y-112555868D01*
X101913850Y-112568480D01*
X101891671Y-112578970D01*
X101868572Y-112587235D01*
X101844773Y-112593196D01*
X101820505Y-112596796D01*
X101796001Y-112598000D01*
X100895999Y-112598000D01*
X100871495Y-112596796D01*
X100847227Y-112593196D01*
X100823428Y-112587235D01*
X100800329Y-112578970D01*
X100778150Y-112568480D01*
X100757107Y-112555868D01*
X100737401Y-112541253D01*
X100719223Y-112524777D01*
X100702747Y-112506599D01*
X100688132Y-112486893D01*
X100675520Y-112465850D01*
X100665030Y-112443671D01*
X100656765Y-112420572D01*
X100650804Y-112396773D01*
X100647204Y-112372505D01*
X100646000Y-112348001D01*
X100646000Y-111697999D01*
X100647204Y-111673495D01*
X100650804Y-111649227D01*
X100656765Y-111625428D01*
X100665030Y-111602329D01*
X100675520Y-111580150D01*
X100688132Y-111559107D01*
X100702747Y-111539401D01*
X100719223Y-111521223D01*
X100737401Y-111504747D01*
X100757107Y-111490132D01*
X100778150Y-111477520D01*
X100800329Y-111467030D01*
X100823428Y-111458765D01*
X100847227Y-111452804D01*
X100871495Y-111449204D01*
X100895999Y-111448000D01*
X101796001Y-111448000D01*
X101820505Y-111449204D01*
X101820505Y-111449204D01*
G37*
D11*
X101346000Y-112023000D03*
D10*
G36*
X182874505Y-66026204D02*
G01*
X182898773Y-66029804D01*
X182922572Y-66035765D01*
X182945671Y-66044030D01*
X182967850Y-66054520D01*
X182988893Y-66067132D01*
X183008599Y-66081747D01*
X183026777Y-66098223D01*
X183043253Y-66116401D01*
X183057868Y-66136107D01*
X183070480Y-66157150D01*
X183080970Y-66179329D01*
X183089235Y-66202428D01*
X183095196Y-66226227D01*
X183098796Y-66250495D01*
X183100000Y-66274999D01*
X183100000Y-66925001D01*
X183098796Y-66949505D01*
X183095196Y-66973773D01*
X183089235Y-66997572D01*
X183080970Y-67020671D01*
X183070480Y-67042850D01*
X183057868Y-67063893D01*
X183043253Y-67083599D01*
X183026777Y-67101777D01*
X183008599Y-67118253D01*
X182988893Y-67132868D01*
X182967850Y-67145480D01*
X182945671Y-67155970D01*
X182922572Y-67164235D01*
X182898773Y-67170196D01*
X182874505Y-67173796D01*
X182850001Y-67175000D01*
X181949999Y-67175000D01*
X181925495Y-67173796D01*
X181901227Y-67170196D01*
X181877428Y-67164235D01*
X181854329Y-67155970D01*
X181832150Y-67145480D01*
X181811107Y-67132868D01*
X181791401Y-67118253D01*
X181773223Y-67101777D01*
X181756747Y-67083599D01*
X181742132Y-67063893D01*
X181729520Y-67042850D01*
X181719030Y-67020671D01*
X181710765Y-66997572D01*
X181704804Y-66973773D01*
X181701204Y-66949505D01*
X181700000Y-66925001D01*
X181700000Y-66274999D01*
X181701204Y-66250495D01*
X181704804Y-66226227D01*
X181710765Y-66202428D01*
X181719030Y-66179329D01*
X181729520Y-66157150D01*
X181742132Y-66136107D01*
X181756747Y-66116401D01*
X181773223Y-66098223D01*
X181791401Y-66081747D01*
X181811107Y-66067132D01*
X181832150Y-66054520D01*
X181854329Y-66044030D01*
X181877428Y-66035765D01*
X181901227Y-66029804D01*
X181925495Y-66026204D01*
X181949999Y-66025000D01*
X182850001Y-66025000D01*
X182874505Y-66026204D01*
X182874505Y-66026204D01*
G37*
D11*
X182400000Y-66600000D03*
D10*
G36*
X182874505Y-68076204D02*
G01*
X182898773Y-68079804D01*
X182922572Y-68085765D01*
X182945671Y-68094030D01*
X182967850Y-68104520D01*
X182988893Y-68117132D01*
X183008599Y-68131747D01*
X183026777Y-68148223D01*
X183043253Y-68166401D01*
X183057868Y-68186107D01*
X183070480Y-68207150D01*
X183080970Y-68229329D01*
X183089235Y-68252428D01*
X183095196Y-68276227D01*
X183098796Y-68300495D01*
X183100000Y-68324999D01*
X183100000Y-68975001D01*
X183098796Y-68999505D01*
X183095196Y-69023773D01*
X183089235Y-69047572D01*
X183080970Y-69070671D01*
X183070480Y-69092850D01*
X183057868Y-69113893D01*
X183043253Y-69133599D01*
X183026777Y-69151777D01*
X183008599Y-69168253D01*
X182988893Y-69182868D01*
X182967850Y-69195480D01*
X182945671Y-69205970D01*
X182922572Y-69214235D01*
X182898773Y-69220196D01*
X182874505Y-69223796D01*
X182850001Y-69225000D01*
X181949999Y-69225000D01*
X181925495Y-69223796D01*
X181901227Y-69220196D01*
X181877428Y-69214235D01*
X181854329Y-69205970D01*
X181832150Y-69195480D01*
X181811107Y-69182868D01*
X181791401Y-69168253D01*
X181773223Y-69151777D01*
X181756747Y-69133599D01*
X181742132Y-69113893D01*
X181729520Y-69092850D01*
X181719030Y-69070671D01*
X181710765Y-69047572D01*
X181704804Y-69023773D01*
X181701204Y-68999505D01*
X181700000Y-68975001D01*
X181700000Y-68324999D01*
X181701204Y-68300495D01*
X181704804Y-68276227D01*
X181710765Y-68252428D01*
X181719030Y-68229329D01*
X181729520Y-68207150D01*
X181742132Y-68186107D01*
X181756747Y-68166401D01*
X181773223Y-68148223D01*
X181791401Y-68131747D01*
X181811107Y-68117132D01*
X181832150Y-68104520D01*
X181854329Y-68094030D01*
X181877428Y-68085765D01*
X181901227Y-68079804D01*
X181925495Y-68076204D01*
X181949999Y-68075000D01*
X182850001Y-68075000D01*
X182874505Y-68076204D01*
X182874505Y-68076204D01*
G37*
D11*
X182400000Y-68650000D03*
D10*
G36*
X176649505Y-61176204D02*
G01*
X176673773Y-61179804D01*
X176697572Y-61185765D01*
X176720671Y-61194030D01*
X176742850Y-61204520D01*
X176763893Y-61217132D01*
X176783599Y-61231747D01*
X176801777Y-61248223D01*
X176818253Y-61266401D01*
X176832868Y-61286107D01*
X176845480Y-61307150D01*
X176855970Y-61329329D01*
X176864235Y-61352428D01*
X176870196Y-61376227D01*
X176873796Y-61400495D01*
X176875000Y-61424999D01*
X176875000Y-62325001D01*
X176873796Y-62349505D01*
X176870196Y-62373773D01*
X176864235Y-62397572D01*
X176855970Y-62420671D01*
X176845480Y-62442850D01*
X176832868Y-62463893D01*
X176818253Y-62483599D01*
X176801777Y-62501777D01*
X176783599Y-62518253D01*
X176763893Y-62532868D01*
X176742850Y-62545480D01*
X176720671Y-62555970D01*
X176697572Y-62564235D01*
X176673773Y-62570196D01*
X176649505Y-62573796D01*
X176625001Y-62575000D01*
X175974999Y-62575000D01*
X175950495Y-62573796D01*
X175926227Y-62570196D01*
X175902428Y-62564235D01*
X175879329Y-62555970D01*
X175857150Y-62545480D01*
X175836107Y-62532868D01*
X175816401Y-62518253D01*
X175798223Y-62501777D01*
X175781747Y-62483599D01*
X175767132Y-62463893D01*
X175754520Y-62442850D01*
X175744030Y-62420671D01*
X175735765Y-62397572D01*
X175729804Y-62373773D01*
X175726204Y-62349505D01*
X175725000Y-62325001D01*
X175725000Y-61424999D01*
X175726204Y-61400495D01*
X175729804Y-61376227D01*
X175735765Y-61352428D01*
X175744030Y-61329329D01*
X175754520Y-61307150D01*
X175767132Y-61286107D01*
X175781747Y-61266401D01*
X175798223Y-61248223D01*
X175816401Y-61231747D01*
X175836107Y-61217132D01*
X175857150Y-61204520D01*
X175879329Y-61194030D01*
X175902428Y-61185765D01*
X175926227Y-61179804D01*
X175950495Y-61176204D01*
X175974999Y-61175000D01*
X176625001Y-61175000D01*
X176649505Y-61176204D01*
X176649505Y-61176204D01*
G37*
D11*
X176300000Y-61875000D03*
D10*
G36*
X178699505Y-61176204D02*
G01*
X178723773Y-61179804D01*
X178747572Y-61185765D01*
X178770671Y-61194030D01*
X178792850Y-61204520D01*
X178813893Y-61217132D01*
X178833599Y-61231747D01*
X178851777Y-61248223D01*
X178868253Y-61266401D01*
X178882868Y-61286107D01*
X178895480Y-61307150D01*
X178905970Y-61329329D01*
X178914235Y-61352428D01*
X178920196Y-61376227D01*
X178923796Y-61400495D01*
X178925000Y-61424999D01*
X178925000Y-62325001D01*
X178923796Y-62349505D01*
X178920196Y-62373773D01*
X178914235Y-62397572D01*
X178905970Y-62420671D01*
X178895480Y-62442850D01*
X178882868Y-62463893D01*
X178868253Y-62483599D01*
X178851777Y-62501777D01*
X178833599Y-62518253D01*
X178813893Y-62532868D01*
X178792850Y-62545480D01*
X178770671Y-62555970D01*
X178747572Y-62564235D01*
X178723773Y-62570196D01*
X178699505Y-62573796D01*
X178675001Y-62575000D01*
X178024999Y-62575000D01*
X178000495Y-62573796D01*
X177976227Y-62570196D01*
X177952428Y-62564235D01*
X177929329Y-62555970D01*
X177907150Y-62545480D01*
X177886107Y-62532868D01*
X177866401Y-62518253D01*
X177848223Y-62501777D01*
X177831747Y-62483599D01*
X177817132Y-62463893D01*
X177804520Y-62442850D01*
X177794030Y-62420671D01*
X177785765Y-62397572D01*
X177779804Y-62373773D01*
X177776204Y-62349505D01*
X177775000Y-62325001D01*
X177775000Y-61424999D01*
X177776204Y-61400495D01*
X177779804Y-61376227D01*
X177785765Y-61352428D01*
X177794030Y-61329329D01*
X177804520Y-61307150D01*
X177817132Y-61286107D01*
X177831747Y-61266401D01*
X177848223Y-61248223D01*
X177866401Y-61231747D01*
X177886107Y-61217132D01*
X177907150Y-61204520D01*
X177929329Y-61194030D01*
X177952428Y-61185765D01*
X177976227Y-61179804D01*
X178000495Y-61176204D01*
X178024999Y-61175000D01*
X178675001Y-61175000D01*
X178699505Y-61176204D01*
X178699505Y-61176204D01*
G37*
D11*
X178350000Y-61875000D03*
D10*
G36*
X172324505Y-64501204D02*
G01*
X172348773Y-64504804D01*
X172372572Y-64510765D01*
X172395671Y-64519030D01*
X172417850Y-64529520D01*
X172438893Y-64542132D01*
X172458599Y-64556747D01*
X172476777Y-64573223D01*
X172493253Y-64591401D01*
X172507868Y-64611107D01*
X172520480Y-64632150D01*
X172530970Y-64654329D01*
X172539235Y-64677428D01*
X172545196Y-64701227D01*
X172548796Y-64725495D01*
X172550000Y-64749999D01*
X172550000Y-65400001D01*
X172548796Y-65424505D01*
X172545196Y-65448773D01*
X172539235Y-65472572D01*
X172530970Y-65495671D01*
X172520480Y-65517850D01*
X172507868Y-65538893D01*
X172493253Y-65558599D01*
X172476777Y-65576777D01*
X172458599Y-65593253D01*
X172438893Y-65607868D01*
X172417850Y-65620480D01*
X172395671Y-65630970D01*
X172372572Y-65639235D01*
X172348773Y-65645196D01*
X172324505Y-65648796D01*
X172300001Y-65650000D01*
X171399999Y-65650000D01*
X171375495Y-65648796D01*
X171351227Y-65645196D01*
X171327428Y-65639235D01*
X171304329Y-65630970D01*
X171282150Y-65620480D01*
X171261107Y-65607868D01*
X171241401Y-65593253D01*
X171223223Y-65576777D01*
X171206747Y-65558599D01*
X171192132Y-65538893D01*
X171179520Y-65517850D01*
X171169030Y-65495671D01*
X171160765Y-65472572D01*
X171154804Y-65448773D01*
X171151204Y-65424505D01*
X171150000Y-65400001D01*
X171150000Y-64749999D01*
X171151204Y-64725495D01*
X171154804Y-64701227D01*
X171160765Y-64677428D01*
X171169030Y-64654329D01*
X171179520Y-64632150D01*
X171192132Y-64611107D01*
X171206747Y-64591401D01*
X171223223Y-64573223D01*
X171241401Y-64556747D01*
X171261107Y-64542132D01*
X171282150Y-64529520D01*
X171304329Y-64519030D01*
X171327428Y-64510765D01*
X171351227Y-64504804D01*
X171375495Y-64501204D01*
X171399999Y-64500000D01*
X172300001Y-64500000D01*
X172324505Y-64501204D01*
X172324505Y-64501204D01*
G37*
D11*
X171850000Y-65075000D03*
D10*
G36*
X172324505Y-62451204D02*
G01*
X172348773Y-62454804D01*
X172372572Y-62460765D01*
X172395671Y-62469030D01*
X172417850Y-62479520D01*
X172438893Y-62492132D01*
X172458599Y-62506747D01*
X172476777Y-62523223D01*
X172493253Y-62541401D01*
X172507868Y-62561107D01*
X172520480Y-62582150D01*
X172530970Y-62604329D01*
X172539235Y-62627428D01*
X172545196Y-62651227D01*
X172548796Y-62675495D01*
X172550000Y-62699999D01*
X172550000Y-63350001D01*
X172548796Y-63374505D01*
X172545196Y-63398773D01*
X172539235Y-63422572D01*
X172530970Y-63445671D01*
X172520480Y-63467850D01*
X172507868Y-63488893D01*
X172493253Y-63508599D01*
X172476777Y-63526777D01*
X172458599Y-63543253D01*
X172438893Y-63557868D01*
X172417850Y-63570480D01*
X172395671Y-63580970D01*
X172372572Y-63589235D01*
X172348773Y-63595196D01*
X172324505Y-63598796D01*
X172300001Y-63600000D01*
X171399999Y-63600000D01*
X171375495Y-63598796D01*
X171351227Y-63595196D01*
X171327428Y-63589235D01*
X171304329Y-63580970D01*
X171282150Y-63570480D01*
X171261107Y-63557868D01*
X171241401Y-63543253D01*
X171223223Y-63526777D01*
X171206747Y-63508599D01*
X171192132Y-63488893D01*
X171179520Y-63467850D01*
X171169030Y-63445671D01*
X171160765Y-63422572D01*
X171154804Y-63398773D01*
X171151204Y-63374505D01*
X171150000Y-63350001D01*
X171150000Y-62699999D01*
X171151204Y-62675495D01*
X171154804Y-62651227D01*
X171160765Y-62627428D01*
X171169030Y-62604329D01*
X171179520Y-62582150D01*
X171192132Y-62561107D01*
X171206747Y-62541401D01*
X171223223Y-62523223D01*
X171241401Y-62506747D01*
X171261107Y-62492132D01*
X171282150Y-62479520D01*
X171304329Y-62469030D01*
X171327428Y-62460765D01*
X171351227Y-62454804D01*
X171375495Y-62451204D01*
X171399999Y-62450000D01*
X172300001Y-62450000D01*
X172324505Y-62451204D01*
X172324505Y-62451204D01*
G37*
D11*
X171850000Y-63025000D03*
D10*
G36*
X172324505Y-72701204D02*
G01*
X172348773Y-72704804D01*
X172372572Y-72710765D01*
X172395671Y-72719030D01*
X172417850Y-72729520D01*
X172438893Y-72742132D01*
X172458599Y-72756747D01*
X172476777Y-72773223D01*
X172493253Y-72791401D01*
X172507868Y-72811107D01*
X172520480Y-72832150D01*
X172530970Y-72854329D01*
X172539235Y-72877428D01*
X172545196Y-72901227D01*
X172548796Y-72925495D01*
X172550000Y-72949999D01*
X172550000Y-73600001D01*
X172548796Y-73624505D01*
X172545196Y-73648773D01*
X172539235Y-73672572D01*
X172530970Y-73695671D01*
X172520480Y-73717850D01*
X172507868Y-73738893D01*
X172493253Y-73758599D01*
X172476777Y-73776777D01*
X172458599Y-73793253D01*
X172438893Y-73807868D01*
X172417850Y-73820480D01*
X172395671Y-73830970D01*
X172372572Y-73839235D01*
X172348773Y-73845196D01*
X172324505Y-73848796D01*
X172300001Y-73850000D01*
X171399999Y-73850000D01*
X171375495Y-73848796D01*
X171351227Y-73845196D01*
X171327428Y-73839235D01*
X171304329Y-73830970D01*
X171282150Y-73820480D01*
X171261107Y-73807868D01*
X171241401Y-73793253D01*
X171223223Y-73776777D01*
X171206747Y-73758599D01*
X171192132Y-73738893D01*
X171179520Y-73717850D01*
X171169030Y-73695671D01*
X171160765Y-73672572D01*
X171154804Y-73648773D01*
X171151204Y-73624505D01*
X171150000Y-73600001D01*
X171150000Y-72949999D01*
X171151204Y-72925495D01*
X171154804Y-72901227D01*
X171160765Y-72877428D01*
X171169030Y-72854329D01*
X171179520Y-72832150D01*
X171192132Y-72811107D01*
X171206747Y-72791401D01*
X171223223Y-72773223D01*
X171241401Y-72756747D01*
X171261107Y-72742132D01*
X171282150Y-72729520D01*
X171304329Y-72719030D01*
X171327428Y-72710765D01*
X171351227Y-72704804D01*
X171375495Y-72701204D01*
X171399999Y-72700000D01*
X172300001Y-72700000D01*
X172324505Y-72701204D01*
X172324505Y-72701204D01*
G37*
D11*
X171850000Y-73275000D03*
D10*
G36*
X172324505Y-74751204D02*
G01*
X172348773Y-74754804D01*
X172372572Y-74760765D01*
X172395671Y-74769030D01*
X172417850Y-74779520D01*
X172438893Y-74792132D01*
X172458599Y-74806747D01*
X172476777Y-74823223D01*
X172493253Y-74841401D01*
X172507868Y-74861107D01*
X172520480Y-74882150D01*
X172530970Y-74904329D01*
X172539235Y-74927428D01*
X172545196Y-74951227D01*
X172548796Y-74975495D01*
X172550000Y-74999999D01*
X172550000Y-75650001D01*
X172548796Y-75674505D01*
X172545196Y-75698773D01*
X172539235Y-75722572D01*
X172530970Y-75745671D01*
X172520480Y-75767850D01*
X172507868Y-75788893D01*
X172493253Y-75808599D01*
X172476777Y-75826777D01*
X172458599Y-75843253D01*
X172438893Y-75857868D01*
X172417850Y-75870480D01*
X172395671Y-75880970D01*
X172372572Y-75889235D01*
X172348773Y-75895196D01*
X172324505Y-75898796D01*
X172300001Y-75900000D01*
X171399999Y-75900000D01*
X171375495Y-75898796D01*
X171351227Y-75895196D01*
X171327428Y-75889235D01*
X171304329Y-75880970D01*
X171282150Y-75870480D01*
X171261107Y-75857868D01*
X171241401Y-75843253D01*
X171223223Y-75826777D01*
X171206747Y-75808599D01*
X171192132Y-75788893D01*
X171179520Y-75767850D01*
X171169030Y-75745671D01*
X171160765Y-75722572D01*
X171154804Y-75698773D01*
X171151204Y-75674505D01*
X171150000Y-75650001D01*
X171150000Y-74999999D01*
X171151204Y-74975495D01*
X171154804Y-74951227D01*
X171160765Y-74927428D01*
X171169030Y-74904329D01*
X171179520Y-74882150D01*
X171192132Y-74861107D01*
X171206747Y-74841401D01*
X171223223Y-74823223D01*
X171241401Y-74806747D01*
X171261107Y-74792132D01*
X171282150Y-74779520D01*
X171304329Y-74769030D01*
X171327428Y-74760765D01*
X171351227Y-74754804D01*
X171375495Y-74751204D01*
X171399999Y-74750000D01*
X172300001Y-74750000D01*
X172324505Y-74751204D01*
X172324505Y-74751204D01*
G37*
D11*
X171850000Y-75325000D03*
D10*
G36*
X182874505Y-72701204D02*
G01*
X182898773Y-72704804D01*
X182922572Y-72710765D01*
X182945671Y-72719030D01*
X182967850Y-72729520D01*
X182988893Y-72742132D01*
X183008599Y-72756747D01*
X183026777Y-72773223D01*
X183043253Y-72791401D01*
X183057868Y-72811107D01*
X183070480Y-72832150D01*
X183080970Y-72854329D01*
X183089235Y-72877428D01*
X183095196Y-72901227D01*
X183098796Y-72925495D01*
X183100000Y-72949999D01*
X183100000Y-73600001D01*
X183098796Y-73624505D01*
X183095196Y-73648773D01*
X183089235Y-73672572D01*
X183080970Y-73695671D01*
X183070480Y-73717850D01*
X183057868Y-73738893D01*
X183043253Y-73758599D01*
X183026777Y-73776777D01*
X183008599Y-73793253D01*
X182988893Y-73807868D01*
X182967850Y-73820480D01*
X182945671Y-73830970D01*
X182922572Y-73839235D01*
X182898773Y-73845196D01*
X182874505Y-73848796D01*
X182850001Y-73850000D01*
X181949999Y-73850000D01*
X181925495Y-73848796D01*
X181901227Y-73845196D01*
X181877428Y-73839235D01*
X181854329Y-73830970D01*
X181832150Y-73820480D01*
X181811107Y-73807868D01*
X181791401Y-73793253D01*
X181773223Y-73776777D01*
X181756747Y-73758599D01*
X181742132Y-73738893D01*
X181729520Y-73717850D01*
X181719030Y-73695671D01*
X181710765Y-73672572D01*
X181704804Y-73648773D01*
X181701204Y-73624505D01*
X181700000Y-73600001D01*
X181700000Y-72949999D01*
X181701204Y-72925495D01*
X181704804Y-72901227D01*
X181710765Y-72877428D01*
X181719030Y-72854329D01*
X181729520Y-72832150D01*
X181742132Y-72811107D01*
X181756747Y-72791401D01*
X181773223Y-72773223D01*
X181791401Y-72756747D01*
X181811107Y-72742132D01*
X181832150Y-72729520D01*
X181854329Y-72719030D01*
X181877428Y-72710765D01*
X181901227Y-72704804D01*
X181925495Y-72701204D01*
X181949999Y-72700000D01*
X182850001Y-72700000D01*
X182874505Y-72701204D01*
X182874505Y-72701204D01*
G37*
D11*
X182400000Y-73275000D03*
D10*
G36*
X182874505Y-74751204D02*
G01*
X182898773Y-74754804D01*
X182922572Y-74760765D01*
X182945671Y-74769030D01*
X182967850Y-74779520D01*
X182988893Y-74792132D01*
X183008599Y-74806747D01*
X183026777Y-74823223D01*
X183043253Y-74841401D01*
X183057868Y-74861107D01*
X183070480Y-74882150D01*
X183080970Y-74904329D01*
X183089235Y-74927428D01*
X183095196Y-74951227D01*
X183098796Y-74975495D01*
X183100000Y-74999999D01*
X183100000Y-75650001D01*
X183098796Y-75674505D01*
X183095196Y-75698773D01*
X183089235Y-75722572D01*
X183080970Y-75745671D01*
X183070480Y-75767850D01*
X183057868Y-75788893D01*
X183043253Y-75808599D01*
X183026777Y-75826777D01*
X183008599Y-75843253D01*
X182988893Y-75857868D01*
X182967850Y-75870480D01*
X182945671Y-75880970D01*
X182922572Y-75889235D01*
X182898773Y-75895196D01*
X182874505Y-75898796D01*
X182850001Y-75900000D01*
X181949999Y-75900000D01*
X181925495Y-75898796D01*
X181901227Y-75895196D01*
X181877428Y-75889235D01*
X181854329Y-75880970D01*
X181832150Y-75870480D01*
X181811107Y-75857868D01*
X181791401Y-75843253D01*
X181773223Y-75826777D01*
X181756747Y-75808599D01*
X181742132Y-75788893D01*
X181729520Y-75767850D01*
X181719030Y-75745671D01*
X181710765Y-75722572D01*
X181704804Y-75698773D01*
X181701204Y-75674505D01*
X181700000Y-75650001D01*
X181700000Y-74999999D01*
X181701204Y-74975495D01*
X181704804Y-74951227D01*
X181710765Y-74927428D01*
X181719030Y-74904329D01*
X181729520Y-74882150D01*
X181742132Y-74861107D01*
X181756747Y-74841401D01*
X181773223Y-74823223D01*
X181791401Y-74806747D01*
X181811107Y-74792132D01*
X181832150Y-74779520D01*
X181854329Y-74769030D01*
X181877428Y-74760765D01*
X181901227Y-74754804D01*
X181925495Y-74751204D01*
X181949999Y-74750000D01*
X182850001Y-74750000D01*
X182874505Y-74751204D01*
X182874505Y-74751204D01*
G37*
D11*
X182400000Y-75325000D03*
D10*
G36*
X53498505Y-118681204D02*
G01*
X53522773Y-118684804D01*
X53546572Y-118690765D01*
X53569671Y-118699030D01*
X53591850Y-118709520D01*
X53612893Y-118722132D01*
X53632599Y-118736747D01*
X53650777Y-118753223D01*
X53667253Y-118771401D01*
X53681868Y-118791107D01*
X53694480Y-118812150D01*
X53704970Y-118834329D01*
X53713235Y-118857428D01*
X53719196Y-118881227D01*
X53722796Y-118905495D01*
X53724000Y-118929999D01*
X53724000Y-119830001D01*
X53722796Y-119854505D01*
X53719196Y-119878773D01*
X53713235Y-119902572D01*
X53704970Y-119925671D01*
X53694480Y-119947850D01*
X53681868Y-119968893D01*
X53667253Y-119988599D01*
X53650777Y-120006777D01*
X53632599Y-120023253D01*
X53612893Y-120037868D01*
X53591850Y-120050480D01*
X53569671Y-120060970D01*
X53546572Y-120069235D01*
X53522773Y-120075196D01*
X53498505Y-120078796D01*
X53474001Y-120080000D01*
X52823999Y-120080000D01*
X52799495Y-120078796D01*
X52775227Y-120075196D01*
X52751428Y-120069235D01*
X52728329Y-120060970D01*
X52706150Y-120050480D01*
X52685107Y-120037868D01*
X52665401Y-120023253D01*
X52647223Y-120006777D01*
X52630747Y-119988599D01*
X52616132Y-119968893D01*
X52603520Y-119947850D01*
X52593030Y-119925671D01*
X52584765Y-119902572D01*
X52578804Y-119878773D01*
X52575204Y-119854505D01*
X52574000Y-119830001D01*
X52574000Y-118929999D01*
X52575204Y-118905495D01*
X52578804Y-118881227D01*
X52584765Y-118857428D01*
X52593030Y-118834329D01*
X52603520Y-118812150D01*
X52616132Y-118791107D01*
X52630747Y-118771401D01*
X52647223Y-118753223D01*
X52665401Y-118736747D01*
X52685107Y-118722132D01*
X52706150Y-118709520D01*
X52728329Y-118699030D01*
X52751428Y-118690765D01*
X52775227Y-118684804D01*
X52799495Y-118681204D01*
X52823999Y-118680000D01*
X53474001Y-118680000D01*
X53498505Y-118681204D01*
X53498505Y-118681204D01*
G37*
D11*
X53149000Y-119380000D03*
D10*
G36*
X51448505Y-118681204D02*
G01*
X51472773Y-118684804D01*
X51496572Y-118690765D01*
X51519671Y-118699030D01*
X51541850Y-118709520D01*
X51562893Y-118722132D01*
X51582599Y-118736747D01*
X51600777Y-118753223D01*
X51617253Y-118771401D01*
X51631868Y-118791107D01*
X51644480Y-118812150D01*
X51654970Y-118834329D01*
X51663235Y-118857428D01*
X51669196Y-118881227D01*
X51672796Y-118905495D01*
X51674000Y-118929999D01*
X51674000Y-119830001D01*
X51672796Y-119854505D01*
X51669196Y-119878773D01*
X51663235Y-119902572D01*
X51654970Y-119925671D01*
X51644480Y-119947850D01*
X51631868Y-119968893D01*
X51617253Y-119988599D01*
X51600777Y-120006777D01*
X51582599Y-120023253D01*
X51562893Y-120037868D01*
X51541850Y-120050480D01*
X51519671Y-120060970D01*
X51496572Y-120069235D01*
X51472773Y-120075196D01*
X51448505Y-120078796D01*
X51424001Y-120080000D01*
X50773999Y-120080000D01*
X50749495Y-120078796D01*
X50725227Y-120075196D01*
X50701428Y-120069235D01*
X50678329Y-120060970D01*
X50656150Y-120050480D01*
X50635107Y-120037868D01*
X50615401Y-120023253D01*
X50597223Y-120006777D01*
X50580747Y-119988599D01*
X50566132Y-119968893D01*
X50553520Y-119947850D01*
X50543030Y-119925671D01*
X50534765Y-119902572D01*
X50528804Y-119878773D01*
X50525204Y-119854505D01*
X50524000Y-119830001D01*
X50524000Y-118929999D01*
X50525204Y-118905495D01*
X50528804Y-118881227D01*
X50534765Y-118857428D01*
X50543030Y-118834329D01*
X50553520Y-118812150D01*
X50566132Y-118791107D01*
X50580747Y-118771401D01*
X50597223Y-118753223D01*
X50615401Y-118736747D01*
X50635107Y-118722132D01*
X50656150Y-118709520D01*
X50678329Y-118699030D01*
X50701428Y-118690765D01*
X50725227Y-118684804D01*
X50749495Y-118681204D01*
X50773999Y-118680000D01*
X51424001Y-118680000D01*
X51448505Y-118681204D01*
X51448505Y-118681204D01*
G37*
D11*
X51099000Y-119380000D03*
D10*
G36*
X72004219Y-118681204D02*
G01*
X72028487Y-118684804D01*
X72052286Y-118690765D01*
X72075385Y-118699030D01*
X72097564Y-118709520D01*
X72118607Y-118722132D01*
X72138313Y-118736747D01*
X72156491Y-118753223D01*
X72172967Y-118771401D01*
X72187582Y-118791107D01*
X72200194Y-118812150D01*
X72210684Y-118834329D01*
X72218949Y-118857428D01*
X72224910Y-118881227D01*
X72228510Y-118905495D01*
X72229714Y-118929999D01*
X72229714Y-119830001D01*
X72228510Y-119854505D01*
X72224910Y-119878773D01*
X72218949Y-119902572D01*
X72210684Y-119925671D01*
X72200194Y-119947850D01*
X72187582Y-119968893D01*
X72172967Y-119988599D01*
X72156491Y-120006777D01*
X72138313Y-120023253D01*
X72118607Y-120037868D01*
X72097564Y-120050480D01*
X72075385Y-120060970D01*
X72052286Y-120069235D01*
X72028487Y-120075196D01*
X72004219Y-120078796D01*
X71979715Y-120080000D01*
X71329713Y-120080000D01*
X71305209Y-120078796D01*
X71280941Y-120075196D01*
X71257142Y-120069235D01*
X71234043Y-120060970D01*
X71211864Y-120050480D01*
X71190821Y-120037868D01*
X71171115Y-120023253D01*
X71152937Y-120006777D01*
X71136461Y-119988599D01*
X71121846Y-119968893D01*
X71109234Y-119947850D01*
X71098744Y-119925671D01*
X71090479Y-119902572D01*
X71084518Y-119878773D01*
X71080918Y-119854505D01*
X71079714Y-119830001D01*
X71079714Y-118929999D01*
X71080918Y-118905495D01*
X71084518Y-118881227D01*
X71090479Y-118857428D01*
X71098744Y-118834329D01*
X71109234Y-118812150D01*
X71121846Y-118791107D01*
X71136461Y-118771401D01*
X71152937Y-118753223D01*
X71171115Y-118736747D01*
X71190821Y-118722132D01*
X71211864Y-118709520D01*
X71234043Y-118699030D01*
X71257142Y-118690765D01*
X71280941Y-118684804D01*
X71305209Y-118681204D01*
X71329713Y-118680000D01*
X71979715Y-118680000D01*
X72004219Y-118681204D01*
X72004219Y-118681204D01*
G37*
D11*
X71654714Y-119380000D03*
D10*
G36*
X69954219Y-118681204D02*
G01*
X69978487Y-118684804D01*
X70002286Y-118690765D01*
X70025385Y-118699030D01*
X70047564Y-118709520D01*
X70068607Y-118722132D01*
X70088313Y-118736747D01*
X70106491Y-118753223D01*
X70122967Y-118771401D01*
X70137582Y-118791107D01*
X70150194Y-118812150D01*
X70160684Y-118834329D01*
X70168949Y-118857428D01*
X70174910Y-118881227D01*
X70178510Y-118905495D01*
X70179714Y-118929999D01*
X70179714Y-119830001D01*
X70178510Y-119854505D01*
X70174910Y-119878773D01*
X70168949Y-119902572D01*
X70160684Y-119925671D01*
X70150194Y-119947850D01*
X70137582Y-119968893D01*
X70122967Y-119988599D01*
X70106491Y-120006777D01*
X70088313Y-120023253D01*
X70068607Y-120037868D01*
X70047564Y-120050480D01*
X70025385Y-120060970D01*
X70002286Y-120069235D01*
X69978487Y-120075196D01*
X69954219Y-120078796D01*
X69929715Y-120080000D01*
X69279713Y-120080000D01*
X69255209Y-120078796D01*
X69230941Y-120075196D01*
X69207142Y-120069235D01*
X69184043Y-120060970D01*
X69161864Y-120050480D01*
X69140821Y-120037868D01*
X69121115Y-120023253D01*
X69102937Y-120006777D01*
X69086461Y-119988599D01*
X69071846Y-119968893D01*
X69059234Y-119947850D01*
X69048744Y-119925671D01*
X69040479Y-119902572D01*
X69034518Y-119878773D01*
X69030918Y-119854505D01*
X69029714Y-119830001D01*
X69029714Y-118929999D01*
X69030918Y-118905495D01*
X69034518Y-118881227D01*
X69040479Y-118857428D01*
X69048744Y-118834329D01*
X69059234Y-118812150D01*
X69071846Y-118791107D01*
X69086461Y-118771401D01*
X69102937Y-118753223D01*
X69121115Y-118736747D01*
X69140821Y-118722132D01*
X69161864Y-118709520D01*
X69184043Y-118699030D01*
X69207142Y-118690765D01*
X69230941Y-118684804D01*
X69255209Y-118681204D01*
X69279713Y-118680000D01*
X69929715Y-118680000D01*
X69954219Y-118681204D01*
X69954219Y-118681204D01*
G37*
D11*
X69604714Y-119380000D03*
D10*
G36*
X90509933Y-118681204D02*
G01*
X90534201Y-118684804D01*
X90558000Y-118690765D01*
X90581099Y-118699030D01*
X90603278Y-118709520D01*
X90624321Y-118722132D01*
X90644027Y-118736747D01*
X90662205Y-118753223D01*
X90678681Y-118771401D01*
X90693296Y-118791107D01*
X90705908Y-118812150D01*
X90716398Y-118834329D01*
X90724663Y-118857428D01*
X90730624Y-118881227D01*
X90734224Y-118905495D01*
X90735428Y-118929999D01*
X90735428Y-119830001D01*
X90734224Y-119854505D01*
X90730624Y-119878773D01*
X90724663Y-119902572D01*
X90716398Y-119925671D01*
X90705908Y-119947850D01*
X90693296Y-119968893D01*
X90678681Y-119988599D01*
X90662205Y-120006777D01*
X90644027Y-120023253D01*
X90624321Y-120037868D01*
X90603278Y-120050480D01*
X90581099Y-120060970D01*
X90558000Y-120069235D01*
X90534201Y-120075196D01*
X90509933Y-120078796D01*
X90485429Y-120080000D01*
X89835427Y-120080000D01*
X89810923Y-120078796D01*
X89786655Y-120075196D01*
X89762856Y-120069235D01*
X89739757Y-120060970D01*
X89717578Y-120050480D01*
X89696535Y-120037868D01*
X89676829Y-120023253D01*
X89658651Y-120006777D01*
X89642175Y-119988599D01*
X89627560Y-119968893D01*
X89614948Y-119947850D01*
X89604458Y-119925671D01*
X89596193Y-119902572D01*
X89590232Y-119878773D01*
X89586632Y-119854505D01*
X89585428Y-119830001D01*
X89585428Y-118929999D01*
X89586632Y-118905495D01*
X89590232Y-118881227D01*
X89596193Y-118857428D01*
X89604458Y-118834329D01*
X89614948Y-118812150D01*
X89627560Y-118791107D01*
X89642175Y-118771401D01*
X89658651Y-118753223D01*
X89676829Y-118736747D01*
X89696535Y-118722132D01*
X89717578Y-118709520D01*
X89739757Y-118699030D01*
X89762856Y-118690765D01*
X89786655Y-118684804D01*
X89810923Y-118681204D01*
X89835427Y-118680000D01*
X90485429Y-118680000D01*
X90509933Y-118681204D01*
X90509933Y-118681204D01*
G37*
D11*
X90160428Y-119380000D03*
D10*
G36*
X88459933Y-118681204D02*
G01*
X88484201Y-118684804D01*
X88508000Y-118690765D01*
X88531099Y-118699030D01*
X88553278Y-118709520D01*
X88574321Y-118722132D01*
X88594027Y-118736747D01*
X88612205Y-118753223D01*
X88628681Y-118771401D01*
X88643296Y-118791107D01*
X88655908Y-118812150D01*
X88666398Y-118834329D01*
X88674663Y-118857428D01*
X88680624Y-118881227D01*
X88684224Y-118905495D01*
X88685428Y-118929999D01*
X88685428Y-119830001D01*
X88684224Y-119854505D01*
X88680624Y-119878773D01*
X88674663Y-119902572D01*
X88666398Y-119925671D01*
X88655908Y-119947850D01*
X88643296Y-119968893D01*
X88628681Y-119988599D01*
X88612205Y-120006777D01*
X88594027Y-120023253D01*
X88574321Y-120037868D01*
X88553278Y-120050480D01*
X88531099Y-120060970D01*
X88508000Y-120069235D01*
X88484201Y-120075196D01*
X88459933Y-120078796D01*
X88435429Y-120080000D01*
X87785427Y-120080000D01*
X87760923Y-120078796D01*
X87736655Y-120075196D01*
X87712856Y-120069235D01*
X87689757Y-120060970D01*
X87667578Y-120050480D01*
X87646535Y-120037868D01*
X87626829Y-120023253D01*
X87608651Y-120006777D01*
X87592175Y-119988599D01*
X87577560Y-119968893D01*
X87564948Y-119947850D01*
X87554458Y-119925671D01*
X87546193Y-119902572D01*
X87540232Y-119878773D01*
X87536632Y-119854505D01*
X87535428Y-119830001D01*
X87535428Y-118929999D01*
X87536632Y-118905495D01*
X87540232Y-118881227D01*
X87546193Y-118857428D01*
X87554458Y-118834329D01*
X87564948Y-118812150D01*
X87577560Y-118791107D01*
X87592175Y-118771401D01*
X87608651Y-118753223D01*
X87626829Y-118736747D01*
X87646535Y-118722132D01*
X87667578Y-118709520D01*
X87689757Y-118699030D01*
X87712856Y-118690765D01*
X87736655Y-118684804D01*
X87760923Y-118681204D01*
X87785427Y-118680000D01*
X88435429Y-118680000D01*
X88459933Y-118681204D01*
X88459933Y-118681204D01*
G37*
D11*
X88110428Y-119380000D03*
D10*
G36*
X109015647Y-118681204D02*
G01*
X109039915Y-118684804D01*
X109063714Y-118690765D01*
X109086813Y-118699030D01*
X109108992Y-118709520D01*
X109130035Y-118722132D01*
X109149741Y-118736747D01*
X109167919Y-118753223D01*
X109184395Y-118771401D01*
X109199010Y-118791107D01*
X109211622Y-118812150D01*
X109222112Y-118834329D01*
X109230377Y-118857428D01*
X109236338Y-118881227D01*
X109239938Y-118905495D01*
X109241142Y-118929999D01*
X109241142Y-119830001D01*
X109239938Y-119854505D01*
X109236338Y-119878773D01*
X109230377Y-119902572D01*
X109222112Y-119925671D01*
X109211622Y-119947850D01*
X109199010Y-119968893D01*
X109184395Y-119988599D01*
X109167919Y-120006777D01*
X109149741Y-120023253D01*
X109130035Y-120037868D01*
X109108992Y-120050480D01*
X109086813Y-120060970D01*
X109063714Y-120069235D01*
X109039915Y-120075196D01*
X109015647Y-120078796D01*
X108991143Y-120080000D01*
X108341141Y-120080000D01*
X108316637Y-120078796D01*
X108292369Y-120075196D01*
X108268570Y-120069235D01*
X108245471Y-120060970D01*
X108223292Y-120050480D01*
X108202249Y-120037868D01*
X108182543Y-120023253D01*
X108164365Y-120006777D01*
X108147889Y-119988599D01*
X108133274Y-119968893D01*
X108120662Y-119947850D01*
X108110172Y-119925671D01*
X108101907Y-119902572D01*
X108095946Y-119878773D01*
X108092346Y-119854505D01*
X108091142Y-119830001D01*
X108091142Y-118929999D01*
X108092346Y-118905495D01*
X108095946Y-118881227D01*
X108101907Y-118857428D01*
X108110172Y-118834329D01*
X108120662Y-118812150D01*
X108133274Y-118791107D01*
X108147889Y-118771401D01*
X108164365Y-118753223D01*
X108182543Y-118736747D01*
X108202249Y-118722132D01*
X108223292Y-118709520D01*
X108245471Y-118699030D01*
X108268570Y-118690765D01*
X108292369Y-118684804D01*
X108316637Y-118681204D01*
X108341141Y-118680000D01*
X108991143Y-118680000D01*
X109015647Y-118681204D01*
X109015647Y-118681204D01*
G37*
D11*
X108666142Y-119380000D03*
D10*
G36*
X106965647Y-118681204D02*
G01*
X106989915Y-118684804D01*
X107013714Y-118690765D01*
X107036813Y-118699030D01*
X107058992Y-118709520D01*
X107080035Y-118722132D01*
X107099741Y-118736747D01*
X107117919Y-118753223D01*
X107134395Y-118771401D01*
X107149010Y-118791107D01*
X107161622Y-118812150D01*
X107172112Y-118834329D01*
X107180377Y-118857428D01*
X107186338Y-118881227D01*
X107189938Y-118905495D01*
X107191142Y-118929999D01*
X107191142Y-119830001D01*
X107189938Y-119854505D01*
X107186338Y-119878773D01*
X107180377Y-119902572D01*
X107172112Y-119925671D01*
X107161622Y-119947850D01*
X107149010Y-119968893D01*
X107134395Y-119988599D01*
X107117919Y-120006777D01*
X107099741Y-120023253D01*
X107080035Y-120037868D01*
X107058992Y-120050480D01*
X107036813Y-120060970D01*
X107013714Y-120069235D01*
X106989915Y-120075196D01*
X106965647Y-120078796D01*
X106941143Y-120080000D01*
X106291141Y-120080000D01*
X106266637Y-120078796D01*
X106242369Y-120075196D01*
X106218570Y-120069235D01*
X106195471Y-120060970D01*
X106173292Y-120050480D01*
X106152249Y-120037868D01*
X106132543Y-120023253D01*
X106114365Y-120006777D01*
X106097889Y-119988599D01*
X106083274Y-119968893D01*
X106070662Y-119947850D01*
X106060172Y-119925671D01*
X106051907Y-119902572D01*
X106045946Y-119878773D01*
X106042346Y-119854505D01*
X106041142Y-119830001D01*
X106041142Y-118929999D01*
X106042346Y-118905495D01*
X106045946Y-118881227D01*
X106051907Y-118857428D01*
X106060172Y-118834329D01*
X106070662Y-118812150D01*
X106083274Y-118791107D01*
X106097889Y-118771401D01*
X106114365Y-118753223D01*
X106132543Y-118736747D01*
X106152249Y-118722132D01*
X106173292Y-118709520D01*
X106195471Y-118699030D01*
X106218570Y-118690765D01*
X106242369Y-118684804D01*
X106266637Y-118681204D01*
X106291141Y-118680000D01*
X106941143Y-118680000D01*
X106965647Y-118681204D01*
X106965647Y-118681204D01*
G37*
D11*
X106616142Y-119380000D03*
D10*
G36*
X127521361Y-118681204D02*
G01*
X127545629Y-118684804D01*
X127569428Y-118690765D01*
X127592527Y-118699030D01*
X127614706Y-118709520D01*
X127635749Y-118722132D01*
X127655455Y-118736747D01*
X127673633Y-118753223D01*
X127690109Y-118771401D01*
X127704724Y-118791107D01*
X127717336Y-118812150D01*
X127727826Y-118834329D01*
X127736091Y-118857428D01*
X127742052Y-118881227D01*
X127745652Y-118905495D01*
X127746856Y-118929999D01*
X127746856Y-119830001D01*
X127745652Y-119854505D01*
X127742052Y-119878773D01*
X127736091Y-119902572D01*
X127727826Y-119925671D01*
X127717336Y-119947850D01*
X127704724Y-119968893D01*
X127690109Y-119988599D01*
X127673633Y-120006777D01*
X127655455Y-120023253D01*
X127635749Y-120037868D01*
X127614706Y-120050480D01*
X127592527Y-120060970D01*
X127569428Y-120069235D01*
X127545629Y-120075196D01*
X127521361Y-120078796D01*
X127496857Y-120080000D01*
X126846855Y-120080000D01*
X126822351Y-120078796D01*
X126798083Y-120075196D01*
X126774284Y-120069235D01*
X126751185Y-120060970D01*
X126729006Y-120050480D01*
X126707963Y-120037868D01*
X126688257Y-120023253D01*
X126670079Y-120006777D01*
X126653603Y-119988599D01*
X126638988Y-119968893D01*
X126626376Y-119947850D01*
X126615886Y-119925671D01*
X126607621Y-119902572D01*
X126601660Y-119878773D01*
X126598060Y-119854505D01*
X126596856Y-119830001D01*
X126596856Y-118929999D01*
X126598060Y-118905495D01*
X126601660Y-118881227D01*
X126607621Y-118857428D01*
X126615886Y-118834329D01*
X126626376Y-118812150D01*
X126638988Y-118791107D01*
X126653603Y-118771401D01*
X126670079Y-118753223D01*
X126688257Y-118736747D01*
X126707963Y-118722132D01*
X126729006Y-118709520D01*
X126751185Y-118699030D01*
X126774284Y-118690765D01*
X126798083Y-118684804D01*
X126822351Y-118681204D01*
X126846855Y-118680000D01*
X127496857Y-118680000D01*
X127521361Y-118681204D01*
X127521361Y-118681204D01*
G37*
D11*
X127171856Y-119380000D03*
D10*
G36*
X125471361Y-118681204D02*
G01*
X125495629Y-118684804D01*
X125519428Y-118690765D01*
X125542527Y-118699030D01*
X125564706Y-118709520D01*
X125585749Y-118722132D01*
X125605455Y-118736747D01*
X125623633Y-118753223D01*
X125640109Y-118771401D01*
X125654724Y-118791107D01*
X125667336Y-118812150D01*
X125677826Y-118834329D01*
X125686091Y-118857428D01*
X125692052Y-118881227D01*
X125695652Y-118905495D01*
X125696856Y-118929999D01*
X125696856Y-119830001D01*
X125695652Y-119854505D01*
X125692052Y-119878773D01*
X125686091Y-119902572D01*
X125677826Y-119925671D01*
X125667336Y-119947850D01*
X125654724Y-119968893D01*
X125640109Y-119988599D01*
X125623633Y-120006777D01*
X125605455Y-120023253D01*
X125585749Y-120037868D01*
X125564706Y-120050480D01*
X125542527Y-120060970D01*
X125519428Y-120069235D01*
X125495629Y-120075196D01*
X125471361Y-120078796D01*
X125446857Y-120080000D01*
X124796855Y-120080000D01*
X124772351Y-120078796D01*
X124748083Y-120075196D01*
X124724284Y-120069235D01*
X124701185Y-120060970D01*
X124679006Y-120050480D01*
X124657963Y-120037868D01*
X124638257Y-120023253D01*
X124620079Y-120006777D01*
X124603603Y-119988599D01*
X124588988Y-119968893D01*
X124576376Y-119947850D01*
X124565886Y-119925671D01*
X124557621Y-119902572D01*
X124551660Y-119878773D01*
X124548060Y-119854505D01*
X124546856Y-119830001D01*
X124546856Y-118929999D01*
X124548060Y-118905495D01*
X124551660Y-118881227D01*
X124557621Y-118857428D01*
X124565886Y-118834329D01*
X124576376Y-118812150D01*
X124588988Y-118791107D01*
X124603603Y-118771401D01*
X124620079Y-118753223D01*
X124638257Y-118736747D01*
X124657963Y-118722132D01*
X124679006Y-118709520D01*
X124701185Y-118699030D01*
X124724284Y-118690765D01*
X124748083Y-118684804D01*
X124772351Y-118681204D01*
X124796855Y-118680000D01*
X125446857Y-118680000D01*
X125471361Y-118681204D01*
X125471361Y-118681204D01*
G37*
D11*
X125121856Y-119380000D03*
D10*
G36*
X146027075Y-118681204D02*
G01*
X146051343Y-118684804D01*
X146075142Y-118690765D01*
X146098241Y-118699030D01*
X146120420Y-118709520D01*
X146141463Y-118722132D01*
X146161169Y-118736747D01*
X146179347Y-118753223D01*
X146195823Y-118771401D01*
X146210438Y-118791107D01*
X146223050Y-118812150D01*
X146233540Y-118834329D01*
X146241805Y-118857428D01*
X146247766Y-118881227D01*
X146251366Y-118905495D01*
X146252570Y-118929999D01*
X146252570Y-119830001D01*
X146251366Y-119854505D01*
X146247766Y-119878773D01*
X146241805Y-119902572D01*
X146233540Y-119925671D01*
X146223050Y-119947850D01*
X146210438Y-119968893D01*
X146195823Y-119988599D01*
X146179347Y-120006777D01*
X146161169Y-120023253D01*
X146141463Y-120037868D01*
X146120420Y-120050480D01*
X146098241Y-120060970D01*
X146075142Y-120069235D01*
X146051343Y-120075196D01*
X146027075Y-120078796D01*
X146002571Y-120080000D01*
X145352569Y-120080000D01*
X145328065Y-120078796D01*
X145303797Y-120075196D01*
X145279998Y-120069235D01*
X145256899Y-120060970D01*
X145234720Y-120050480D01*
X145213677Y-120037868D01*
X145193971Y-120023253D01*
X145175793Y-120006777D01*
X145159317Y-119988599D01*
X145144702Y-119968893D01*
X145132090Y-119947850D01*
X145121600Y-119925671D01*
X145113335Y-119902572D01*
X145107374Y-119878773D01*
X145103774Y-119854505D01*
X145102570Y-119830001D01*
X145102570Y-118929999D01*
X145103774Y-118905495D01*
X145107374Y-118881227D01*
X145113335Y-118857428D01*
X145121600Y-118834329D01*
X145132090Y-118812150D01*
X145144702Y-118791107D01*
X145159317Y-118771401D01*
X145175793Y-118753223D01*
X145193971Y-118736747D01*
X145213677Y-118722132D01*
X145234720Y-118709520D01*
X145256899Y-118699030D01*
X145279998Y-118690765D01*
X145303797Y-118684804D01*
X145328065Y-118681204D01*
X145352569Y-118680000D01*
X146002571Y-118680000D01*
X146027075Y-118681204D01*
X146027075Y-118681204D01*
G37*
D11*
X145677570Y-119380000D03*
D10*
G36*
X143977075Y-118681204D02*
G01*
X144001343Y-118684804D01*
X144025142Y-118690765D01*
X144048241Y-118699030D01*
X144070420Y-118709520D01*
X144091463Y-118722132D01*
X144111169Y-118736747D01*
X144129347Y-118753223D01*
X144145823Y-118771401D01*
X144160438Y-118791107D01*
X144173050Y-118812150D01*
X144183540Y-118834329D01*
X144191805Y-118857428D01*
X144197766Y-118881227D01*
X144201366Y-118905495D01*
X144202570Y-118929999D01*
X144202570Y-119830001D01*
X144201366Y-119854505D01*
X144197766Y-119878773D01*
X144191805Y-119902572D01*
X144183540Y-119925671D01*
X144173050Y-119947850D01*
X144160438Y-119968893D01*
X144145823Y-119988599D01*
X144129347Y-120006777D01*
X144111169Y-120023253D01*
X144091463Y-120037868D01*
X144070420Y-120050480D01*
X144048241Y-120060970D01*
X144025142Y-120069235D01*
X144001343Y-120075196D01*
X143977075Y-120078796D01*
X143952571Y-120080000D01*
X143302569Y-120080000D01*
X143278065Y-120078796D01*
X143253797Y-120075196D01*
X143229998Y-120069235D01*
X143206899Y-120060970D01*
X143184720Y-120050480D01*
X143163677Y-120037868D01*
X143143971Y-120023253D01*
X143125793Y-120006777D01*
X143109317Y-119988599D01*
X143094702Y-119968893D01*
X143082090Y-119947850D01*
X143071600Y-119925671D01*
X143063335Y-119902572D01*
X143057374Y-119878773D01*
X143053774Y-119854505D01*
X143052570Y-119830001D01*
X143052570Y-118929999D01*
X143053774Y-118905495D01*
X143057374Y-118881227D01*
X143063335Y-118857428D01*
X143071600Y-118834329D01*
X143082090Y-118812150D01*
X143094702Y-118791107D01*
X143109317Y-118771401D01*
X143125793Y-118753223D01*
X143143971Y-118736747D01*
X143163677Y-118722132D01*
X143184720Y-118709520D01*
X143206899Y-118699030D01*
X143229998Y-118690765D01*
X143253797Y-118684804D01*
X143278065Y-118681204D01*
X143302569Y-118680000D01*
X143952571Y-118680000D01*
X143977075Y-118681204D01*
X143977075Y-118681204D01*
G37*
D11*
X143627570Y-119380000D03*
D10*
G36*
X164532789Y-118681204D02*
G01*
X164557057Y-118684804D01*
X164580856Y-118690765D01*
X164603955Y-118699030D01*
X164626134Y-118709520D01*
X164647177Y-118722132D01*
X164666883Y-118736747D01*
X164685061Y-118753223D01*
X164701537Y-118771401D01*
X164716152Y-118791107D01*
X164728764Y-118812150D01*
X164739254Y-118834329D01*
X164747519Y-118857428D01*
X164753480Y-118881227D01*
X164757080Y-118905495D01*
X164758284Y-118929999D01*
X164758284Y-119830001D01*
X164757080Y-119854505D01*
X164753480Y-119878773D01*
X164747519Y-119902572D01*
X164739254Y-119925671D01*
X164728764Y-119947850D01*
X164716152Y-119968893D01*
X164701537Y-119988599D01*
X164685061Y-120006777D01*
X164666883Y-120023253D01*
X164647177Y-120037868D01*
X164626134Y-120050480D01*
X164603955Y-120060970D01*
X164580856Y-120069235D01*
X164557057Y-120075196D01*
X164532789Y-120078796D01*
X164508285Y-120080000D01*
X163858283Y-120080000D01*
X163833779Y-120078796D01*
X163809511Y-120075196D01*
X163785712Y-120069235D01*
X163762613Y-120060970D01*
X163740434Y-120050480D01*
X163719391Y-120037868D01*
X163699685Y-120023253D01*
X163681507Y-120006777D01*
X163665031Y-119988599D01*
X163650416Y-119968893D01*
X163637804Y-119947850D01*
X163627314Y-119925671D01*
X163619049Y-119902572D01*
X163613088Y-119878773D01*
X163609488Y-119854505D01*
X163608284Y-119830001D01*
X163608284Y-118929999D01*
X163609488Y-118905495D01*
X163613088Y-118881227D01*
X163619049Y-118857428D01*
X163627314Y-118834329D01*
X163637804Y-118812150D01*
X163650416Y-118791107D01*
X163665031Y-118771401D01*
X163681507Y-118753223D01*
X163699685Y-118736747D01*
X163719391Y-118722132D01*
X163740434Y-118709520D01*
X163762613Y-118699030D01*
X163785712Y-118690765D01*
X163809511Y-118684804D01*
X163833779Y-118681204D01*
X163858283Y-118680000D01*
X164508285Y-118680000D01*
X164532789Y-118681204D01*
X164532789Y-118681204D01*
G37*
D11*
X164183284Y-119380000D03*
D10*
G36*
X162482789Y-118681204D02*
G01*
X162507057Y-118684804D01*
X162530856Y-118690765D01*
X162553955Y-118699030D01*
X162576134Y-118709520D01*
X162597177Y-118722132D01*
X162616883Y-118736747D01*
X162635061Y-118753223D01*
X162651537Y-118771401D01*
X162666152Y-118791107D01*
X162678764Y-118812150D01*
X162689254Y-118834329D01*
X162697519Y-118857428D01*
X162703480Y-118881227D01*
X162707080Y-118905495D01*
X162708284Y-118929999D01*
X162708284Y-119830001D01*
X162707080Y-119854505D01*
X162703480Y-119878773D01*
X162697519Y-119902572D01*
X162689254Y-119925671D01*
X162678764Y-119947850D01*
X162666152Y-119968893D01*
X162651537Y-119988599D01*
X162635061Y-120006777D01*
X162616883Y-120023253D01*
X162597177Y-120037868D01*
X162576134Y-120050480D01*
X162553955Y-120060970D01*
X162530856Y-120069235D01*
X162507057Y-120075196D01*
X162482789Y-120078796D01*
X162458285Y-120080000D01*
X161808283Y-120080000D01*
X161783779Y-120078796D01*
X161759511Y-120075196D01*
X161735712Y-120069235D01*
X161712613Y-120060970D01*
X161690434Y-120050480D01*
X161669391Y-120037868D01*
X161649685Y-120023253D01*
X161631507Y-120006777D01*
X161615031Y-119988599D01*
X161600416Y-119968893D01*
X161587804Y-119947850D01*
X161577314Y-119925671D01*
X161569049Y-119902572D01*
X161563088Y-119878773D01*
X161559488Y-119854505D01*
X161558284Y-119830001D01*
X161558284Y-118929999D01*
X161559488Y-118905495D01*
X161563088Y-118881227D01*
X161569049Y-118857428D01*
X161577314Y-118834329D01*
X161587804Y-118812150D01*
X161600416Y-118791107D01*
X161615031Y-118771401D01*
X161631507Y-118753223D01*
X161649685Y-118736747D01*
X161669391Y-118722132D01*
X161690434Y-118709520D01*
X161712613Y-118699030D01*
X161735712Y-118690765D01*
X161759511Y-118684804D01*
X161783779Y-118681204D01*
X161808283Y-118680000D01*
X162458285Y-118680000D01*
X162482789Y-118681204D01*
X162482789Y-118681204D01*
G37*
D11*
X162133284Y-119380000D03*
D10*
G36*
X183038505Y-118681204D02*
G01*
X183062773Y-118684804D01*
X183086572Y-118690765D01*
X183109671Y-118699030D01*
X183131850Y-118709520D01*
X183152893Y-118722132D01*
X183172599Y-118736747D01*
X183190777Y-118753223D01*
X183207253Y-118771401D01*
X183221868Y-118791107D01*
X183234480Y-118812150D01*
X183244970Y-118834329D01*
X183253235Y-118857428D01*
X183259196Y-118881227D01*
X183262796Y-118905495D01*
X183264000Y-118929999D01*
X183264000Y-119830001D01*
X183262796Y-119854505D01*
X183259196Y-119878773D01*
X183253235Y-119902572D01*
X183244970Y-119925671D01*
X183234480Y-119947850D01*
X183221868Y-119968893D01*
X183207253Y-119988599D01*
X183190777Y-120006777D01*
X183172599Y-120023253D01*
X183152893Y-120037868D01*
X183131850Y-120050480D01*
X183109671Y-120060970D01*
X183086572Y-120069235D01*
X183062773Y-120075196D01*
X183038505Y-120078796D01*
X183014001Y-120080000D01*
X182363999Y-120080000D01*
X182339495Y-120078796D01*
X182315227Y-120075196D01*
X182291428Y-120069235D01*
X182268329Y-120060970D01*
X182246150Y-120050480D01*
X182225107Y-120037868D01*
X182205401Y-120023253D01*
X182187223Y-120006777D01*
X182170747Y-119988599D01*
X182156132Y-119968893D01*
X182143520Y-119947850D01*
X182133030Y-119925671D01*
X182124765Y-119902572D01*
X182118804Y-119878773D01*
X182115204Y-119854505D01*
X182114000Y-119830001D01*
X182114000Y-118929999D01*
X182115204Y-118905495D01*
X182118804Y-118881227D01*
X182124765Y-118857428D01*
X182133030Y-118834329D01*
X182143520Y-118812150D01*
X182156132Y-118791107D01*
X182170747Y-118771401D01*
X182187223Y-118753223D01*
X182205401Y-118736747D01*
X182225107Y-118722132D01*
X182246150Y-118709520D01*
X182268329Y-118699030D01*
X182291428Y-118690765D01*
X182315227Y-118684804D01*
X182339495Y-118681204D01*
X182363999Y-118680000D01*
X183014001Y-118680000D01*
X183038505Y-118681204D01*
X183038505Y-118681204D01*
G37*
D11*
X182689000Y-119380000D03*
D10*
G36*
X180988505Y-118681204D02*
G01*
X181012773Y-118684804D01*
X181036572Y-118690765D01*
X181059671Y-118699030D01*
X181081850Y-118709520D01*
X181102893Y-118722132D01*
X181122599Y-118736747D01*
X181140777Y-118753223D01*
X181157253Y-118771401D01*
X181171868Y-118791107D01*
X181184480Y-118812150D01*
X181194970Y-118834329D01*
X181203235Y-118857428D01*
X181209196Y-118881227D01*
X181212796Y-118905495D01*
X181214000Y-118929999D01*
X181214000Y-119830001D01*
X181212796Y-119854505D01*
X181209196Y-119878773D01*
X181203235Y-119902572D01*
X181194970Y-119925671D01*
X181184480Y-119947850D01*
X181171868Y-119968893D01*
X181157253Y-119988599D01*
X181140777Y-120006777D01*
X181122599Y-120023253D01*
X181102893Y-120037868D01*
X181081850Y-120050480D01*
X181059671Y-120060970D01*
X181036572Y-120069235D01*
X181012773Y-120075196D01*
X180988505Y-120078796D01*
X180964001Y-120080000D01*
X180313999Y-120080000D01*
X180289495Y-120078796D01*
X180265227Y-120075196D01*
X180241428Y-120069235D01*
X180218329Y-120060970D01*
X180196150Y-120050480D01*
X180175107Y-120037868D01*
X180155401Y-120023253D01*
X180137223Y-120006777D01*
X180120747Y-119988599D01*
X180106132Y-119968893D01*
X180093520Y-119947850D01*
X180083030Y-119925671D01*
X180074765Y-119902572D01*
X180068804Y-119878773D01*
X180065204Y-119854505D01*
X180064000Y-119830001D01*
X180064000Y-118929999D01*
X180065204Y-118905495D01*
X180068804Y-118881227D01*
X180074765Y-118857428D01*
X180083030Y-118834329D01*
X180093520Y-118812150D01*
X180106132Y-118791107D01*
X180120747Y-118771401D01*
X180137223Y-118753223D01*
X180155401Y-118736747D01*
X180175107Y-118722132D01*
X180196150Y-118709520D01*
X180218329Y-118699030D01*
X180241428Y-118690765D01*
X180265227Y-118684804D01*
X180289495Y-118681204D01*
X180313999Y-118680000D01*
X180964001Y-118680000D01*
X180988505Y-118681204D01*
X180988505Y-118681204D01*
G37*
D11*
X180639000Y-119380000D03*
D10*
G36*
X114912505Y-80835204D02*
G01*
X114936773Y-80838804D01*
X114960572Y-80844765D01*
X114983671Y-80853030D01*
X115005850Y-80863520D01*
X115026893Y-80876132D01*
X115046599Y-80890747D01*
X115064777Y-80907223D01*
X115081253Y-80925401D01*
X115095868Y-80945107D01*
X115108480Y-80966150D01*
X115118970Y-80988329D01*
X115127235Y-81011428D01*
X115133196Y-81035227D01*
X115136796Y-81059495D01*
X115138000Y-81083999D01*
X115138000Y-81984001D01*
X115136796Y-82008505D01*
X115133196Y-82032773D01*
X115127235Y-82056572D01*
X115118970Y-82079671D01*
X115108480Y-82101850D01*
X115095868Y-82122893D01*
X115081253Y-82142599D01*
X115064777Y-82160777D01*
X115046599Y-82177253D01*
X115026893Y-82191868D01*
X115005850Y-82204480D01*
X114983671Y-82214970D01*
X114960572Y-82223235D01*
X114936773Y-82229196D01*
X114912505Y-82232796D01*
X114888001Y-82234000D01*
X114237999Y-82234000D01*
X114213495Y-82232796D01*
X114189227Y-82229196D01*
X114165428Y-82223235D01*
X114142329Y-82214970D01*
X114120150Y-82204480D01*
X114099107Y-82191868D01*
X114079401Y-82177253D01*
X114061223Y-82160777D01*
X114044747Y-82142599D01*
X114030132Y-82122893D01*
X114017520Y-82101850D01*
X114007030Y-82079671D01*
X113998765Y-82056572D01*
X113992804Y-82032773D01*
X113989204Y-82008505D01*
X113988000Y-81984001D01*
X113988000Y-81083999D01*
X113989204Y-81059495D01*
X113992804Y-81035227D01*
X113998765Y-81011428D01*
X114007030Y-80988329D01*
X114017520Y-80966150D01*
X114030132Y-80945107D01*
X114044747Y-80925401D01*
X114061223Y-80907223D01*
X114079401Y-80890747D01*
X114099107Y-80876132D01*
X114120150Y-80863520D01*
X114142329Y-80853030D01*
X114165428Y-80844765D01*
X114189227Y-80838804D01*
X114213495Y-80835204D01*
X114237999Y-80834000D01*
X114888001Y-80834000D01*
X114912505Y-80835204D01*
X114912505Y-80835204D01*
G37*
D11*
X114563000Y-81534000D03*
D10*
G36*
X112862505Y-80835204D02*
G01*
X112886773Y-80838804D01*
X112910572Y-80844765D01*
X112933671Y-80853030D01*
X112955850Y-80863520D01*
X112976893Y-80876132D01*
X112996599Y-80890747D01*
X113014777Y-80907223D01*
X113031253Y-80925401D01*
X113045868Y-80945107D01*
X113058480Y-80966150D01*
X113068970Y-80988329D01*
X113077235Y-81011428D01*
X113083196Y-81035227D01*
X113086796Y-81059495D01*
X113088000Y-81083999D01*
X113088000Y-81984001D01*
X113086796Y-82008505D01*
X113083196Y-82032773D01*
X113077235Y-82056572D01*
X113068970Y-82079671D01*
X113058480Y-82101850D01*
X113045868Y-82122893D01*
X113031253Y-82142599D01*
X113014777Y-82160777D01*
X112996599Y-82177253D01*
X112976893Y-82191868D01*
X112955850Y-82204480D01*
X112933671Y-82214970D01*
X112910572Y-82223235D01*
X112886773Y-82229196D01*
X112862505Y-82232796D01*
X112838001Y-82234000D01*
X112187999Y-82234000D01*
X112163495Y-82232796D01*
X112139227Y-82229196D01*
X112115428Y-82223235D01*
X112092329Y-82214970D01*
X112070150Y-82204480D01*
X112049107Y-82191868D01*
X112029401Y-82177253D01*
X112011223Y-82160777D01*
X111994747Y-82142599D01*
X111980132Y-82122893D01*
X111967520Y-82101850D01*
X111957030Y-82079671D01*
X111948765Y-82056572D01*
X111942804Y-82032773D01*
X111939204Y-82008505D01*
X111938000Y-81984001D01*
X111938000Y-81083999D01*
X111939204Y-81059495D01*
X111942804Y-81035227D01*
X111948765Y-81011428D01*
X111957030Y-80988329D01*
X111967520Y-80966150D01*
X111980132Y-80945107D01*
X111994747Y-80925401D01*
X112011223Y-80907223D01*
X112029401Y-80890747D01*
X112049107Y-80876132D01*
X112070150Y-80863520D01*
X112092329Y-80853030D01*
X112115428Y-80844765D01*
X112139227Y-80838804D01*
X112163495Y-80835204D01*
X112187999Y-80834000D01*
X112838001Y-80834000D01*
X112862505Y-80835204D01*
X112862505Y-80835204D01*
G37*
D11*
X112513000Y-81534000D03*
D10*
G36*
X119992505Y-80835204D02*
G01*
X120016773Y-80838804D01*
X120040572Y-80844765D01*
X120063671Y-80853030D01*
X120085850Y-80863520D01*
X120106893Y-80876132D01*
X120126599Y-80890747D01*
X120144777Y-80907223D01*
X120161253Y-80925401D01*
X120175868Y-80945107D01*
X120188480Y-80966150D01*
X120198970Y-80988329D01*
X120207235Y-81011428D01*
X120213196Y-81035227D01*
X120216796Y-81059495D01*
X120218000Y-81083999D01*
X120218000Y-81984001D01*
X120216796Y-82008505D01*
X120213196Y-82032773D01*
X120207235Y-82056572D01*
X120198970Y-82079671D01*
X120188480Y-82101850D01*
X120175868Y-82122893D01*
X120161253Y-82142599D01*
X120144777Y-82160777D01*
X120126599Y-82177253D01*
X120106893Y-82191868D01*
X120085850Y-82204480D01*
X120063671Y-82214970D01*
X120040572Y-82223235D01*
X120016773Y-82229196D01*
X119992505Y-82232796D01*
X119968001Y-82234000D01*
X119317999Y-82234000D01*
X119293495Y-82232796D01*
X119269227Y-82229196D01*
X119245428Y-82223235D01*
X119222329Y-82214970D01*
X119200150Y-82204480D01*
X119179107Y-82191868D01*
X119159401Y-82177253D01*
X119141223Y-82160777D01*
X119124747Y-82142599D01*
X119110132Y-82122893D01*
X119097520Y-82101850D01*
X119087030Y-82079671D01*
X119078765Y-82056572D01*
X119072804Y-82032773D01*
X119069204Y-82008505D01*
X119068000Y-81984001D01*
X119068000Y-81083999D01*
X119069204Y-81059495D01*
X119072804Y-81035227D01*
X119078765Y-81011428D01*
X119087030Y-80988329D01*
X119097520Y-80966150D01*
X119110132Y-80945107D01*
X119124747Y-80925401D01*
X119141223Y-80907223D01*
X119159401Y-80890747D01*
X119179107Y-80876132D01*
X119200150Y-80863520D01*
X119222329Y-80853030D01*
X119245428Y-80844765D01*
X119269227Y-80838804D01*
X119293495Y-80835204D01*
X119317999Y-80834000D01*
X119968001Y-80834000D01*
X119992505Y-80835204D01*
X119992505Y-80835204D01*
G37*
D11*
X119643000Y-81534000D03*
D10*
G36*
X117942505Y-80835204D02*
G01*
X117966773Y-80838804D01*
X117990572Y-80844765D01*
X118013671Y-80853030D01*
X118035850Y-80863520D01*
X118056893Y-80876132D01*
X118076599Y-80890747D01*
X118094777Y-80907223D01*
X118111253Y-80925401D01*
X118125868Y-80945107D01*
X118138480Y-80966150D01*
X118148970Y-80988329D01*
X118157235Y-81011428D01*
X118163196Y-81035227D01*
X118166796Y-81059495D01*
X118168000Y-81083999D01*
X118168000Y-81984001D01*
X118166796Y-82008505D01*
X118163196Y-82032773D01*
X118157235Y-82056572D01*
X118148970Y-82079671D01*
X118138480Y-82101850D01*
X118125868Y-82122893D01*
X118111253Y-82142599D01*
X118094777Y-82160777D01*
X118076599Y-82177253D01*
X118056893Y-82191868D01*
X118035850Y-82204480D01*
X118013671Y-82214970D01*
X117990572Y-82223235D01*
X117966773Y-82229196D01*
X117942505Y-82232796D01*
X117918001Y-82234000D01*
X117267999Y-82234000D01*
X117243495Y-82232796D01*
X117219227Y-82229196D01*
X117195428Y-82223235D01*
X117172329Y-82214970D01*
X117150150Y-82204480D01*
X117129107Y-82191868D01*
X117109401Y-82177253D01*
X117091223Y-82160777D01*
X117074747Y-82142599D01*
X117060132Y-82122893D01*
X117047520Y-82101850D01*
X117037030Y-82079671D01*
X117028765Y-82056572D01*
X117022804Y-82032773D01*
X117019204Y-82008505D01*
X117018000Y-81984001D01*
X117018000Y-81083999D01*
X117019204Y-81059495D01*
X117022804Y-81035227D01*
X117028765Y-81011428D01*
X117037030Y-80988329D01*
X117047520Y-80966150D01*
X117060132Y-80945107D01*
X117074747Y-80925401D01*
X117091223Y-80907223D01*
X117109401Y-80890747D01*
X117129107Y-80876132D01*
X117150150Y-80863520D01*
X117172329Y-80853030D01*
X117195428Y-80844765D01*
X117219227Y-80838804D01*
X117243495Y-80835204D01*
X117267999Y-80834000D01*
X117918001Y-80834000D01*
X117942505Y-80835204D01*
X117942505Y-80835204D01*
G37*
D11*
X117593000Y-81534000D03*
D10*
G36*
X125072505Y-80835204D02*
G01*
X125096773Y-80838804D01*
X125120572Y-80844765D01*
X125143671Y-80853030D01*
X125165850Y-80863520D01*
X125186893Y-80876132D01*
X125206599Y-80890747D01*
X125224777Y-80907223D01*
X125241253Y-80925401D01*
X125255868Y-80945107D01*
X125268480Y-80966150D01*
X125278970Y-80988329D01*
X125287235Y-81011428D01*
X125293196Y-81035227D01*
X125296796Y-81059495D01*
X125298000Y-81083999D01*
X125298000Y-81984001D01*
X125296796Y-82008505D01*
X125293196Y-82032773D01*
X125287235Y-82056572D01*
X125278970Y-82079671D01*
X125268480Y-82101850D01*
X125255868Y-82122893D01*
X125241253Y-82142599D01*
X125224777Y-82160777D01*
X125206599Y-82177253D01*
X125186893Y-82191868D01*
X125165850Y-82204480D01*
X125143671Y-82214970D01*
X125120572Y-82223235D01*
X125096773Y-82229196D01*
X125072505Y-82232796D01*
X125048001Y-82234000D01*
X124397999Y-82234000D01*
X124373495Y-82232796D01*
X124349227Y-82229196D01*
X124325428Y-82223235D01*
X124302329Y-82214970D01*
X124280150Y-82204480D01*
X124259107Y-82191868D01*
X124239401Y-82177253D01*
X124221223Y-82160777D01*
X124204747Y-82142599D01*
X124190132Y-82122893D01*
X124177520Y-82101850D01*
X124167030Y-82079671D01*
X124158765Y-82056572D01*
X124152804Y-82032773D01*
X124149204Y-82008505D01*
X124148000Y-81984001D01*
X124148000Y-81083999D01*
X124149204Y-81059495D01*
X124152804Y-81035227D01*
X124158765Y-81011428D01*
X124167030Y-80988329D01*
X124177520Y-80966150D01*
X124190132Y-80945107D01*
X124204747Y-80925401D01*
X124221223Y-80907223D01*
X124239401Y-80890747D01*
X124259107Y-80876132D01*
X124280150Y-80863520D01*
X124302329Y-80853030D01*
X124325428Y-80844765D01*
X124349227Y-80838804D01*
X124373495Y-80835204D01*
X124397999Y-80834000D01*
X125048001Y-80834000D01*
X125072505Y-80835204D01*
X125072505Y-80835204D01*
G37*
D11*
X124723000Y-81534000D03*
D10*
G36*
X123022505Y-80835204D02*
G01*
X123046773Y-80838804D01*
X123070572Y-80844765D01*
X123093671Y-80853030D01*
X123115850Y-80863520D01*
X123136893Y-80876132D01*
X123156599Y-80890747D01*
X123174777Y-80907223D01*
X123191253Y-80925401D01*
X123205868Y-80945107D01*
X123218480Y-80966150D01*
X123228970Y-80988329D01*
X123237235Y-81011428D01*
X123243196Y-81035227D01*
X123246796Y-81059495D01*
X123248000Y-81083999D01*
X123248000Y-81984001D01*
X123246796Y-82008505D01*
X123243196Y-82032773D01*
X123237235Y-82056572D01*
X123228970Y-82079671D01*
X123218480Y-82101850D01*
X123205868Y-82122893D01*
X123191253Y-82142599D01*
X123174777Y-82160777D01*
X123156599Y-82177253D01*
X123136893Y-82191868D01*
X123115850Y-82204480D01*
X123093671Y-82214970D01*
X123070572Y-82223235D01*
X123046773Y-82229196D01*
X123022505Y-82232796D01*
X122998001Y-82234000D01*
X122347999Y-82234000D01*
X122323495Y-82232796D01*
X122299227Y-82229196D01*
X122275428Y-82223235D01*
X122252329Y-82214970D01*
X122230150Y-82204480D01*
X122209107Y-82191868D01*
X122189401Y-82177253D01*
X122171223Y-82160777D01*
X122154747Y-82142599D01*
X122140132Y-82122893D01*
X122127520Y-82101850D01*
X122117030Y-82079671D01*
X122108765Y-82056572D01*
X122102804Y-82032773D01*
X122099204Y-82008505D01*
X122098000Y-81984001D01*
X122098000Y-81083999D01*
X122099204Y-81059495D01*
X122102804Y-81035227D01*
X122108765Y-81011428D01*
X122117030Y-80988329D01*
X122127520Y-80966150D01*
X122140132Y-80945107D01*
X122154747Y-80925401D01*
X122171223Y-80907223D01*
X122189401Y-80890747D01*
X122209107Y-80876132D01*
X122230150Y-80863520D01*
X122252329Y-80853030D01*
X122275428Y-80844765D01*
X122299227Y-80838804D01*
X122323495Y-80835204D01*
X122347999Y-80834000D01*
X122998001Y-80834000D01*
X123022505Y-80835204D01*
X123022505Y-80835204D01*
G37*
D11*
X122673000Y-81534000D03*
D10*
G36*
X130152505Y-80835204D02*
G01*
X130176773Y-80838804D01*
X130200572Y-80844765D01*
X130223671Y-80853030D01*
X130245850Y-80863520D01*
X130266893Y-80876132D01*
X130286599Y-80890747D01*
X130304777Y-80907223D01*
X130321253Y-80925401D01*
X130335868Y-80945107D01*
X130348480Y-80966150D01*
X130358970Y-80988329D01*
X130367235Y-81011428D01*
X130373196Y-81035227D01*
X130376796Y-81059495D01*
X130378000Y-81083999D01*
X130378000Y-81984001D01*
X130376796Y-82008505D01*
X130373196Y-82032773D01*
X130367235Y-82056572D01*
X130358970Y-82079671D01*
X130348480Y-82101850D01*
X130335868Y-82122893D01*
X130321253Y-82142599D01*
X130304777Y-82160777D01*
X130286599Y-82177253D01*
X130266893Y-82191868D01*
X130245850Y-82204480D01*
X130223671Y-82214970D01*
X130200572Y-82223235D01*
X130176773Y-82229196D01*
X130152505Y-82232796D01*
X130128001Y-82234000D01*
X129477999Y-82234000D01*
X129453495Y-82232796D01*
X129429227Y-82229196D01*
X129405428Y-82223235D01*
X129382329Y-82214970D01*
X129360150Y-82204480D01*
X129339107Y-82191868D01*
X129319401Y-82177253D01*
X129301223Y-82160777D01*
X129284747Y-82142599D01*
X129270132Y-82122893D01*
X129257520Y-82101850D01*
X129247030Y-82079671D01*
X129238765Y-82056572D01*
X129232804Y-82032773D01*
X129229204Y-82008505D01*
X129228000Y-81984001D01*
X129228000Y-81083999D01*
X129229204Y-81059495D01*
X129232804Y-81035227D01*
X129238765Y-81011428D01*
X129247030Y-80988329D01*
X129257520Y-80966150D01*
X129270132Y-80945107D01*
X129284747Y-80925401D01*
X129301223Y-80907223D01*
X129319401Y-80890747D01*
X129339107Y-80876132D01*
X129360150Y-80863520D01*
X129382329Y-80853030D01*
X129405428Y-80844765D01*
X129429227Y-80838804D01*
X129453495Y-80835204D01*
X129477999Y-80834000D01*
X130128001Y-80834000D01*
X130152505Y-80835204D01*
X130152505Y-80835204D01*
G37*
D11*
X129803000Y-81534000D03*
D10*
G36*
X128102505Y-80835204D02*
G01*
X128126773Y-80838804D01*
X128150572Y-80844765D01*
X128173671Y-80853030D01*
X128195850Y-80863520D01*
X128216893Y-80876132D01*
X128236599Y-80890747D01*
X128254777Y-80907223D01*
X128271253Y-80925401D01*
X128285868Y-80945107D01*
X128298480Y-80966150D01*
X128308970Y-80988329D01*
X128317235Y-81011428D01*
X128323196Y-81035227D01*
X128326796Y-81059495D01*
X128328000Y-81083999D01*
X128328000Y-81984001D01*
X128326796Y-82008505D01*
X128323196Y-82032773D01*
X128317235Y-82056572D01*
X128308970Y-82079671D01*
X128298480Y-82101850D01*
X128285868Y-82122893D01*
X128271253Y-82142599D01*
X128254777Y-82160777D01*
X128236599Y-82177253D01*
X128216893Y-82191868D01*
X128195850Y-82204480D01*
X128173671Y-82214970D01*
X128150572Y-82223235D01*
X128126773Y-82229196D01*
X128102505Y-82232796D01*
X128078001Y-82234000D01*
X127427999Y-82234000D01*
X127403495Y-82232796D01*
X127379227Y-82229196D01*
X127355428Y-82223235D01*
X127332329Y-82214970D01*
X127310150Y-82204480D01*
X127289107Y-82191868D01*
X127269401Y-82177253D01*
X127251223Y-82160777D01*
X127234747Y-82142599D01*
X127220132Y-82122893D01*
X127207520Y-82101850D01*
X127197030Y-82079671D01*
X127188765Y-82056572D01*
X127182804Y-82032773D01*
X127179204Y-82008505D01*
X127178000Y-81984001D01*
X127178000Y-81083999D01*
X127179204Y-81059495D01*
X127182804Y-81035227D01*
X127188765Y-81011428D01*
X127197030Y-80988329D01*
X127207520Y-80966150D01*
X127220132Y-80945107D01*
X127234747Y-80925401D01*
X127251223Y-80907223D01*
X127269401Y-80890747D01*
X127289107Y-80876132D01*
X127310150Y-80863520D01*
X127332329Y-80853030D01*
X127355428Y-80844765D01*
X127379227Y-80838804D01*
X127403495Y-80835204D01*
X127427999Y-80834000D01*
X128078001Y-80834000D01*
X128102505Y-80835204D01*
X128102505Y-80835204D01*
G37*
D11*
X127753000Y-81534000D03*
D10*
G36*
X114658505Y-64750389D02*
G01*
X114682773Y-64753989D01*
X114706572Y-64759950D01*
X114729671Y-64768215D01*
X114751850Y-64778705D01*
X114772893Y-64791317D01*
X114792599Y-64805932D01*
X114810777Y-64822408D01*
X114827253Y-64840586D01*
X114841868Y-64860292D01*
X114854480Y-64881335D01*
X114864970Y-64903514D01*
X114873235Y-64926613D01*
X114879196Y-64950412D01*
X114882796Y-64974680D01*
X114884000Y-64999184D01*
X114884000Y-65899186D01*
X114882796Y-65923690D01*
X114879196Y-65947958D01*
X114873235Y-65971757D01*
X114864970Y-65994856D01*
X114854480Y-66017035D01*
X114841868Y-66038078D01*
X114827253Y-66057784D01*
X114810777Y-66075962D01*
X114792599Y-66092438D01*
X114772893Y-66107053D01*
X114751850Y-66119665D01*
X114729671Y-66130155D01*
X114706572Y-66138420D01*
X114682773Y-66144381D01*
X114658505Y-66147981D01*
X114634001Y-66149185D01*
X113983999Y-66149185D01*
X113959495Y-66147981D01*
X113935227Y-66144381D01*
X113911428Y-66138420D01*
X113888329Y-66130155D01*
X113866150Y-66119665D01*
X113845107Y-66107053D01*
X113825401Y-66092438D01*
X113807223Y-66075962D01*
X113790747Y-66057784D01*
X113776132Y-66038078D01*
X113763520Y-66017035D01*
X113753030Y-65994856D01*
X113744765Y-65971757D01*
X113738804Y-65947958D01*
X113735204Y-65923690D01*
X113734000Y-65899186D01*
X113734000Y-64999184D01*
X113735204Y-64974680D01*
X113738804Y-64950412D01*
X113744765Y-64926613D01*
X113753030Y-64903514D01*
X113763520Y-64881335D01*
X113776132Y-64860292D01*
X113790747Y-64840586D01*
X113807223Y-64822408D01*
X113825401Y-64805932D01*
X113845107Y-64791317D01*
X113866150Y-64778705D01*
X113888329Y-64768215D01*
X113911428Y-64759950D01*
X113935227Y-64753989D01*
X113959495Y-64750389D01*
X113983999Y-64749185D01*
X114634001Y-64749185D01*
X114658505Y-64750389D01*
X114658505Y-64750389D01*
G37*
D11*
X114309000Y-65449185D03*
D10*
G36*
X112608505Y-64750389D02*
G01*
X112632773Y-64753989D01*
X112656572Y-64759950D01*
X112679671Y-64768215D01*
X112701850Y-64778705D01*
X112722893Y-64791317D01*
X112742599Y-64805932D01*
X112760777Y-64822408D01*
X112777253Y-64840586D01*
X112791868Y-64860292D01*
X112804480Y-64881335D01*
X112814970Y-64903514D01*
X112823235Y-64926613D01*
X112829196Y-64950412D01*
X112832796Y-64974680D01*
X112834000Y-64999184D01*
X112834000Y-65899186D01*
X112832796Y-65923690D01*
X112829196Y-65947958D01*
X112823235Y-65971757D01*
X112814970Y-65994856D01*
X112804480Y-66017035D01*
X112791868Y-66038078D01*
X112777253Y-66057784D01*
X112760777Y-66075962D01*
X112742599Y-66092438D01*
X112722893Y-66107053D01*
X112701850Y-66119665D01*
X112679671Y-66130155D01*
X112656572Y-66138420D01*
X112632773Y-66144381D01*
X112608505Y-66147981D01*
X112584001Y-66149185D01*
X111933999Y-66149185D01*
X111909495Y-66147981D01*
X111885227Y-66144381D01*
X111861428Y-66138420D01*
X111838329Y-66130155D01*
X111816150Y-66119665D01*
X111795107Y-66107053D01*
X111775401Y-66092438D01*
X111757223Y-66075962D01*
X111740747Y-66057784D01*
X111726132Y-66038078D01*
X111713520Y-66017035D01*
X111703030Y-65994856D01*
X111694765Y-65971757D01*
X111688804Y-65947958D01*
X111685204Y-65923690D01*
X111684000Y-65899186D01*
X111684000Y-64999184D01*
X111685204Y-64974680D01*
X111688804Y-64950412D01*
X111694765Y-64926613D01*
X111703030Y-64903514D01*
X111713520Y-64881335D01*
X111726132Y-64860292D01*
X111740747Y-64840586D01*
X111757223Y-64822408D01*
X111775401Y-64805932D01*
X111795107Y-64791317D01*
X111816150Y-64778705D01*
X111838329Y-64768215D01*
X111861428Y-64759950D01*
X111885227Y-64753989D01*
X111909495Y-64750389D01*
X111933999Y-64749185D01*
X112584001Y-64749185D01*
X112608505Y-64750389D01*
X112608505Y-64750389D01*
G37*
D11*
X112259000Y-65449185D03*
D10*
G36*
X119738505Y-64750389D02*
G01*
X119762773Y-64753989D01*
X119786572Y-64759950D01*
X119809671Y-64768215D01*
X119831850Y-64778705D01*
X119852893Y-64791317D01*
X119872599Y-64805932D01*
X119890777Y-64822408D01*
X119907253Y-64840586D01*
X119921868Y-64860292D01*
X119934480Y-64881335D01*
X119944970Y-64903514D01*
X119953235Y-64926613D01*
X119959196Y-64950412D01*
X119962796Y-64974680D01*
X119964000Y-64999184D01*
X119964000Y-65899186D01*
X119962796Y-65923690D01*
X119959196Y-65947958D01*
X119953235Y-65971757D01*
X119944970Y-65994856D01*
X119934480Y-66017035D01*
X119921868Y-66038078D01*
X119907253Y-66057784D01*
X119890777Y-66075962D01*
X119872599Y-66092438D01*
X119852893Y-66107053D01*
X119831850Y-66119665D01*
X119809671Y-66130155D01*
X119786572Y-66138420D01*
X119762773Y-66144381D01*
X119738505Y-66147981D01*
X119714001Y-66149185D01*
X119063999Y-66149185D01*
X119039495Y-66147981D01*
X119015227Y-66144381D01*
X118991428Y-66138420D01*
X118968329Y-66130155D01*
X118946150Y-66119665D01*
X118925107Y-66107053D01*
X118905401Y-66092438D01*
X118887223Y-66075962D01*
X118870747Y-66057784D01*
X118856132Y-66038078D01*
X118843520Y-66017035D01*
X118833030Y-65994856D01*
X118824765Y-65971757D01*
X118818804Y-65947958D01*
X118815204Y-65923690D01*
X118814000Y-65899186D01*
X118814000Y-64999184D01*
X118815204Y-64974680D01*
X118818804Y-64950412D01*
X118824765Y-64926613D01*
X118833030Y-64903514D01*
X118843520Y-64881335D01*
X118856132Y-64860292D01*
X118870747Y-64840586D01*
X118887223Y-64822408D01*
X118905401Y-64805932D01*
X118925107Y-64791317D01*
X118946150Y-64778705D01*
X118968329Y-64768215D01*
X118991428Y-64759950D01*
X119015227Y-64753989D01*
X119039495Y-64750389D01*
X119063999Y-64749185D01*
X119714001Y-64749185D01*
X119738505Y-64750389D01*
X119738505Y-64750389D01*
G37*
D11*
X119389000Y-65449185D03*
D10*
G36*
X117688505Y-64750389D02*
G01*
X117712773Y-64753989D01*
X117736572Y-64759950D01*
X117759671Y-64768215D01*
X117781850Y-64778705D01*
X117802893Y-64791317D01*
X117822599Y-64805932D01*
X117840777Y-64822408D01*
X117857253Y-64840586D01*
X117871868Y-64860292D01*
X117884480Y-64881335D01*
X117894970Y-64903514D01*
X117903235Y-64926613D01*
X117909196Y-64950412D01*
X117912796Y-64974680D01*
X117914000Y-64999184D01*
X117914000Y-65899186D01*
X117912796Y-65923690D01*
X117909196Y-65947958D01*
X117903235Y-65971757D01*
X117894970Y-65994856D01*
X117884480Y-66017035D01*
X117871868Y-66038078D01*
X117857253Y-66057784D01*
X117840777Y-66075962D01*
X117822599Y-66092438D01*
X117802893Y-66107053D01*
X117781850Y-66119665D01*
X117759671Y-66130155D01*
X117736572Y-66138420D01*
X117712773Y-66144381D01*
X117688505Y-66147981D01*
X117664001Y-66149185D01*
X117013999Y-66149185D01*
X116989495Y-66147981D01*
X116965227Y-66144381D01*
X116941428Y-66138420D01*
X116918329Y-66130155D01*
X116896150Y-66119665D01*
X116875107Y-66107053D01*
X116855401Y-66092438D01*
X116837223Y-66075962D01*
X116820747Y-66057784D01*
X116806132Y-66038078D01*
X116793520Y-66017035D01*
X116783030Y-65994856D01*
X116774765Y-65971757D01*
X116768804Y-65947958D01*
X116765204Y-65923690D01*
X116764000Y-65899186D01*
X116764000Y-64999184D01*
X116765204Y-64974680D01*
X116768804Y-64950412D01*
X116774765Y-64926613D01*
X116783030Y-64903514D01*
X116793520Y-64881335D01*
X116806132Y-64860292D01*
X116820747Y-64840586D01*
X116837223Y-64822408D01*
X116855401Y-64805932D01*
X116875107Y-64791317D01*
X116896150Y-64778705D01*
X116918329Y-64768215D01*
X116941428Y-64759950D01*
X116965227Y-64753989D01*
X116989495Y-64750389D01*
X117013999Y-64749185D01*
X117664001Y-64749185D01*
X117688505Y-64750389D01*
X117688505Y-64750389D01*
G37*
D11*
X117339000Y-65449185D03*
D10*
G36*
X124898505Y-64750389D02*
G01*
X124922773Y-64753989D01*
X124946572Y-64759950D01*
X124969671Y-64768215D01*
X124991850Y-64778705D01*
X125012893Y-64791317D01*
X125032599Y-64805932D01*
X125050777Y-64822408D01*
X125067253Y-64840586D01*
X125081868Y-64860292D01*
X125094480Y-64881335D01*
X125104970Y-64903514D01*
X125113235Y-64926613D01*
X125119196Y-64950412D01*
X125122796Y-64974680D01*
X125124000Y-64999184D01*
X125124000Y-65899186D01*
X125122796Y-65923690D01*
X125119196Y-65947958D01*
X125113235Y-65971757D01*
X125104970Y-65994856D01*
X125094480Y-66017035D01*
X125081868Y-66038078D01*
X125067253Y-66057784D01*
X125050777Y-66075962D01*
X125032599Y-66092438D01*
X125012893Y-66107053D01*
X124991850Y-66119665D01*
X124969671Y-66130155D01*
X124946572Y-66138420D01*
X124922773Y-66144381D01*
X124898505Y-66147981D01*
X124874001Y-66149185D01*
X124223999Y-66149185D01*
X124199495Y-66147981D01*
X124175227Y-66144381D01*
X124151428Y-66138420D01*
X124128329Y-66130155D01*
X124106150Y-66119665D01*
X124085107Y-66107053D01*
X124065401Y-66092438D01*
X124047223Y-66075962D01*
X124030747Y-66057784D01*
X124016132Y-66038078D01*
X124003520Y-66017035D01*
X123993030Y-65994856D01*
X123984765Y-65971757D01*
X123978804Y-65947958D01*
X123975204Y-65923690D01*
X123974000Y-65899186D01*
X123974000Y-64999184D01*
X123975204Y-64974680D01*
X123978804Y-64950412D01*
X123984765Y-64926613D01*
X123993030Y-64903514D01*
X124003520Y-64881335D01*
X124016132Y-64860292D01*
X124030747Y-64840586D01*
X124047223Y-64822408D01*
X124065401Y-64805932D01*
X124085107Y-64791317D01*
X124106150Y-64778705D01*
X124128329Y-64768215D01*
X124151428Y-64759950D01*
X124175227Y-64753989D01*
X124199495Y-64750389D01*
X124223999Y-64749185D01*
X124874001Y-64749185D01*
X124898505Y-64750389D01*
X124898505Y-64750389D01*
G37*
D11*
X124549000Y-65449185D03*
D10*
G36*
X122848505Y-64750389D02*
G01*
X122872773Y-64753989D01*
X122896572Y-64759950D01*
X122919671Y-64768215D01*
X122941850Y-64778705D01*
X122962893Y-64791317D01*
X122982599Y-64805932D01*
X123000777Y-64822408D01*
X123017253Y-64840586D01*
X123031868Y-64860292D01*
X123044480Y-64881335D01*
X123054970Y-64903514D01*
X123063235Y-64926613D01*
X123069196Y-64950412D01*
X123072796Y-64974680D01*
X123074000Y-64999184D01*
X123074000Y-65899186D01*
X123072796Y-65923690D01*
X123069196Y-65947958D01*
X123063235Y-65971757D01*
X123054970Y-65994856D01*
X123044480Y-66017035D01*
X123031868Y-66038078D01*
X123017253Y-66057784D01*
X123000777Y-66075962D01*
X122982599Y-66092438D01*
X122962893Y-66107053D01*
X122941850Y-66119665D01*
X122919671Y-66130155D01*
X122896572Y-66138420D01*
X122872773Y-66144381D01*
X122848505Y-66147981D01*
X122824001Y-66149185D01*
X122173999Y-66149185D01*
X122149495Y-66147981D01*
X122125227Y-66144381D01*
X122101428Y-66138420D01*
X122078329Y-66130155D01*
X122056150Y-66119665D01*
X122035107Y-66107053D01*
X122015401Y-66092438D01*
X121997223Y-66075962D01*
X121980747Y-66057784D01*
X121966132Y-66038078D01*
X121953520Y-66017035D01*
X121943030Y-65994856D01*
X121934765Y-65971757D01*
X121928804Y-65947958D01*
X121925204Y-65923690D01*
X121924000Y-65899186D01*
X121924000Y-64999184D01*
X121925204Y-64974680D01*
X121928804Y-64950412D01*
X121934765Y-64926613D01*
X121943030Y-64903514D01*
X121953520Y-64881335D01*
X121966132Y-64860292D01*
X121980747Y-64840586D01*
X121997223Y-64822408D01*
X122015401Y-64805932D01*
X122035107Y-64791317D01*
X122056150Y-64778705D01*
X122078329Y-64768215D01*
X122101428Y-64759950D01*
X122125227Y-64753989D01*
X122149495Y-64750389D01*
X122173999Y-64749185D01*
X122824001Y-64749185D01*
X122848505Y-64750389D01*
X122848505Y-64750389D01*
G37*
D11*
X122499000Y-65449185D03*
D10*
G36*
X129978505Y-64750389D02*
G01*
X130002773Y-64753989D01*
X130026572Y-64759950D01*
X130049671Y-64768215D01*
X130071850Y-64778705D01*
X130092893Y-64791317D01*
X130112599Y-64805932D01*
X130130777Y-64822408D01*
X130147253Y-64840586D01*
X130161868Y-64860292D01*
X130174480Y-64881335D01*
X130184970Y-64903514D01*
X130193235Y-64926613D01*
X130199196Y-64950412D01*
X130202796Y-64974680D01*
X130204000Y-64999184D01*
X130204000Y-65899186D01*
X130202796Y-65923690D01*
X130199196Y-65947958D01*
X130193235Y-65971757D01*
X130184970Y-65994856D01*
X130174480Y-66017035D01*
X130161868Y-66038078D01*
X130147253Y-66057784D01*
X130130777Y-66075962D01*
X130112599Y-66092438D01*
X130092893Y-66107053D01*
X130071850Y-66119665D01*
X130049671Y-66130155D01*
X130026572Y-66138420D01*
X130002773Y-66144381D01*
X129978505Y-66147981D01*
X129954001Y-66149185D01*
X129303999Y-66149185D01*
X129279495Y-66147981D01*
X129255227Y-66144381D01*
X129231428Y-66138420D01*
X129208329Y-66130155D01*
X129186150Y-66119665D01*
X129165107Y-66107053D01*
X129145401Y-66092438D01*
X129127223Y-66075962D01*
X129110747Y-66057784D01*
X129096132Y-66038078D01*
X129083520Y-66017035D01*
X129073030Y-65994856D01*
X129064765Y-65971757D01*
X129058804Y-65947958D01*
X129055204Y-65923690D01*
X129054000Y-65899186D01*
X129054000Y-64999184D01*
X129055204Y-64974680D01*
X129058804Y-64950412D01*
X129064765Y-64926613D01*
X129073030Y-64903514D01*
X129083520Y-64881335D01*
X129096132Y-64860292D01*
X129110747Y-64840586D01*
X129127223Y-64822408D01*
X129145401Y-64805932D01*
X129165107Y-64791317D01*
X129186150Y-64778705D01*
X129208329Y-64768215D01*
X129231428Y-64759950D01*
X129255227Y-64753989D01*
X129279495Y-64750389D01*
X129303999Y-64749185D01*
X129954001Y-64749185D01*
X129978505Y-64750389D01*
X129978505Y-64750389D01*
G37*
D11*
X129629000Y-65449185D03*
D10*
G36*
X127928505Y-64750389D02*
G01*
X127952773Y-64753989D01*
X127976572Y-64759950D01*
X127999671Y-64768215D01*
X128021850Y-64778705D01*
X128042893Y-64791317D01*
X128062599Y-64805932D01*
X128080777Y-64822408D01*
X128097253Y-64840586D01*
X128111868Y-64860292D01*
X128124480Y-64881335D01*
X128134970Y-64903514D01*
X128143235Y-64926613D01*
X128149196Y-64950412D01*
X128152796Y-64974680D01*
X128154000Y-64999184D01*
X128154000Y-65899186D01*
X128152796Y-65923690D01*
X128149196Y-65947958D01*
X128143235Y-65971757D01*
X128134970Y-65994856D01*
X128124480Y-66017035D01*
X128111868Y-66038078D01*
X128097253Y-66057784D01*
X128080777Y-66075962D01*
X128062599Y-66092438D01*
X128042893Y-66107053D01*
X128021850Y-66119665D01*
X127999671Y-66130155D01*
X127976572Y-66138420D01*
X127952773Y-66144381D01*
X127928505Y-66147981D01*
X127904001Y-66149185D01*
X127253999Y-66149185D01*
X127229495Y-66147981D01*
X127205227Y-66144381D01*
X127181428Y-66138420D01*
X127158329Y-66130155D01*
X127136150Y-66119665D01*
X127115107Y-66107053D01*
X127095401Y-66092438D01*
X127077223Y-66075962D01*
X127060747Y-66057784D01*
X127046132Y-66038078D01*
X127033520Y-66017035D01*
X127023030Y-65994856D01*
X127014765Y-65971757D01*
X127008804Y-65947958D01*
X127005204Y-65923690D01*
X127004000Y-65899186D01*
X127004000Y-64999184D01*
X127005204Y-64974680D01*
X127008804Y-64950412D01*
X127014765Y-64926613D01*
X127023030Y-64903514D01*
X127033520Y-64881335D01*
X127046132Y-64860292D01*
X127060747Y-64840586D01*
X127077223Y-64822408D01*
X127095401Y-64805932D01*
X127115107Y-64791317D01*
X127136150Y-64778705D01*
X127158329Y-64768215D01*
X127181428Y-64759950D01*
X127205227Y-64753989D01*
X127229495Y-64750389D01*
X127253999Y-64749185D01*
X127904001Y-64749185D01*
X127928505Y-64750389D01*
X127928505Y-64750389D01*
G37*
D11*
X127579000Y-65449185D03*
D10*
G36*
X114658505Y-60648574D02*
G01*
X114682773Y-60652174D01*
X114706572Y-60658135D01*
X114729671Y-60666400D01*
X114751850Y-60676890D01*
X114772893Y-60689502D01*
X114792599Y-60704117D01*
X114810777Y-60720593D01*
X114827253Y-60738771D01*
X114841868Y-60758477D01*
X114854480Y-60779520D01*
X114864970Y-60801699D01*
X114873235Y-60824798D01*
X114879196Y-60848597D01*
X114882796Y-60872865D01*
X114884000Y-60897369D01*
X114884000Y-61797371D01*
X114882796Y-61821875D01*
X114879196Y-61846143D01*
X114873235Y-61869942D01*
X114864970Y-61893041D01*
X114854480Y-61915220D01*
X114841868Y-61936263D01*
X114827253Y-61955969D01*
X114810777Y-61974147D01*
X114792599Y-61990623D01*
X114772893Y-62005238D01*
X114751850Y-62017850D01*
X114729671Y-62028340D01*
X114706572Y-62036605D01*
X114682773Y-62042566D01*
X114658505Y-62046166D01*
X114634001Y-62047370D01*
X113983999Y-62047370D01*
X113959495Y-62046166D01*
X113935227Y-62042566D01*
X113911428Y-62036605D01*
X113888329Y-62028340D01*
X113866150Y-62017850D01*
X113845107Y-62005238D01*
X113825401Y-61990623D01*
X113807223Y-61974147D01*
X113790747Y-61955969D01*
X113776132Y-61936263D01*
X113763520Y-61915220D01*
X113753030Y-61893041D01*
X113744765Y-61869942D01*
X113738804Y-61846143D01*
X113735204Y-61821875D01*
X113734000Y-61797371D01*
X113734000Y-60897369D01*
X113735204Y-60872865D01*
X113738804Y-60848597D01*
X113744765Y-60824798D01*
X113753030Y-60801699D01*
X113763520Y-60779520D01*
X113776132Y-60758477D01*
X113790747Y-60738771D01*
X113807223Y-60720593D01*
X113825401Y-60704117D01*
X113845107Y-60689502D01*
X113866150Y-60676890D01*
X113888329Y-60666400D01*
X113911428Y-60658135D01*
X113935227Y-60652174D01*
X113959495Y-60648574D01*
X113983999Y-60647370D01*
X114634001Y-60647370D01*
X114658505Y-60648574D01*
X114658505Y-60648574D01*
G37*
D11*
X114309000Y-61347370D03*
D10*
G36*
X112608505Y-60648574D02*
G01*
X112632773Y-60652174D01*
X112656572Y-60658135D01*
X112679671Y-60666400D01*
X112701850Y-60676890D01*
X112722893Y-60689502D01*
X112742599Y-60704117D01*
X112760777Y-60720593D01*
X112777253Y-60738771D01*
X112791868Y-60758477D01*
X112804480Y-60779520D01*
X112814970Y-60801699D01*
X112823235Y-60824798D01*
X112829196Y-60848597D01*
X112832796Y-60872865D01*
X112834000Y-60897369D01*
X112834000Y-61797371D01*
X112832796Y-61821875D01*
X112829196Y-61846143D01*
X112823235Y-61869942D01*
X112814970Y-61893041D01*
X112804480Y-61915220D01*
X112791868Y-61936263D01*
X112777253Y-61955969D01*
X112760777Y-61974147D01*
X112742599Y-61990623D01*
X112722893Y-62005238D01*
X112701850Y-62017850D01*
X112679671Y-62028340D01*
X112656572Y-62036605D01*
X112632773Y-62042566D01*
X112608505Y-62046166D01*
X112584001Y-62047370D01*
X111933999Y-62047370D01*
X111909495Y-62046166D01*
X111885227Y-62042566D01*
X111861428Y-62036605D01*
X111838329Y-62028340D01*
X111816150Y-62017850D01*
X111795107Y-62005238D01*
X111775401Y-61990623D01*
X111757223Y-61974147D01*
X111740747Y-61955969D01*
X111726132Y-61936263D01*
X111713520Y-61915220D01*
X111703030Y-61893041D01*
X111694765Y-61869942D01*
X111688804Y-61846143D01*
X111685204Y-61821875D01*
X111684000Y-61797371D01*
X111684000Y-60897369D01*
X111685204Y-60872865D01*
X111688804Y-60848597D01*
X111694765Y-60824798D01*
X111703030Y-60801699D01*
X111713520Y-60779520D01*
X111726132Y-60758477D01*
X111740747Y-60738771D01*
X111757223Y-60720593D01*
X111775401Y-60704117D01*
X111795107Y-60689502D01*
X111816150Y-60676890D01*
X111838329Y-60666400D01*
X111861428Y-60658135D01*
X111885227Y-60652174D01*
X111909495Y-60648574D01*
X111933999Y-60647370D01*
X112584001Y-60647370D01*
X112608505Y-60648574D01*
X112608505Y-60648574D01*
G37*
D11*
X112259000Y-61347370D03*
D10*
G36*
X119738505Y-60648574D02*
G01*
X119762773Y-60652174D01*
X119786572Y-60658135D01*
X119809671Y-60666400D01*
X119831850Y-60676890D01*
X119852893Y-60689502D01*
X119872599Y-60704117D01*
X119890777Y-60720593D01*
X119907253Y-60738771D01*
X119921868Y-60758477D01*
X119934480Y-60779520D01*
X119944970Y-60801699D01*
X119953235Y-60824798D01*
X119959196Y-60848597D01*
X119962796Y-60872865D01*
X119964000Y-60897369D01*
X119964000Y-61797371D01*
X119962796Y-61821875D01*
X119959196Y-61846143D01*
X119953235Y-61869942D01*
X119944970Y-61893041D01*
X119934480Y-61915220D01*
X119921868Y-61936263D01*
X119907253Y-61955969D01*
X119890777Y-61974147D01*
X119872599Y-61990623D01*
X119852893Y-62005238D01*
X119831850Y-62017850D01*
X119809671Y-62028340D01*
X119786572Y-62036605D01*
X119762773Y-62042566D01*
X119738505Y-62046166D01*
X119714001Y-62047370D01*
X119063999Y-62047370D01*
X119039495Y-62046166D01*
X119015227Y-62042566D01*
X118991428Y-62036605D01*
X118968329Y-62028340D01*
X118946150Y-62017850D01*
X118925107Y-62005238D01*
X118905401Y-61990623D01*
X118887223Y-61974147D01*
X118870747Y-61955969D01*
X118856132Y-61936263D01*
X118843520Y-61915220D01*
X118833030Y-61893041D01*
X118824765Y-61869942D01*
X118818804Y-61846143D01*
X118815204Y-61821875D01*
X118814000Y-61797371D01*
X118814000Y-60897369D01*
X118815204Y-60872865D01*
X118818804Y-60848597D01*
X118824765Y-60824798D01*
X118833030Y-60801699D01*
X118843520Y-60779520D01*
X118856132Y-60758477D01*
X118870747Y-60738771D01*
X118887223Y-60720593D01*
X118905401Y-60704117D01*
X118925107Y-60689502D01*
X118946150Y-60676890D01*
X118968329Y-60666400D01*
X118991428Y-60658135D01*
X119015227Y-60652174D01*
X119039495Y-60648574D01*
X119063999Y-60647370D01*
X119714001Y-60647370D01*
X119738505Y-60648574D01*
X119738505Y-60648574D01*
G37*
D11*
X119389000Y-61347370D03*
D10*
G36*
X117688505Y-60648574D02*
G01*
X117712773Y-60652174D01*
X117736572Y-60658135D01*
X117759671Y-60666400D01*
X117781850Y-60676890D01*
X117802893Y-60689502D01*
X117822599Y-60704117D01*
X117840777Y-60720593D01*
X117857253Y-60738771D01*
X117871868Y-60758477D01*
X117884480Y-60779520D01*
X117894970Y-60801699D01*
X117903235Y-60824798D01*
X117909196Y-60848597D01*
X117912796Y-60872865D01*
X117914000Y-60897369D01*
X117914000Y-61797371D01*
X117912796Y-61821875D01*
X117909196Y-61846143D01*
X117903235Y-61869942D01*
X117894970Y-61893041D01*
X117884480Y-61915220D01*
X117871868Y-61936263D01*
X117857253Y-61955969D01*
X117840777Y-61974147D01*
X117822599Y-61990623D01*
X117802893Y-62005238D01*
X117781850Y-62017850D01*
X117759671Y-62028340D01*
X117736572Y-62036605D01*
X117712773Y-62042566D01*
X117688505Y-62046166D01*
X117664001Y-62047370D01*
X117013999Y-62047370D01*
X116989495Y-62046166D01*
X116965227Y-62042566D01*
X116941428Y-62036605D01*
X116918329Y-62028340D01*
X116896150Y-62017850D01*
X116875107Y-62005238D01*
X116855401Y-61990623D01*
X116837223Y-61974147D01*
X116820747Y-61955969D01*
X116806132Y-61936263D01*
X116793520Y-61915220D01*
X116783030Y-61893041D01*
X116774765Y-61869942D01*
X116768804Y-61846143D01*
X116765204Y-61821875D01*
X116764000Y-61797371D01*
X116764000Y-60897369D01*
X116765204Y-60872865D01*
X116768804Y-60848597D01*
X116774765Y-60824798D01*
X116783030Y-60801699D01*
X116793520Y-60779520D01*
X116806132Y-60758477D01*
X116820747Y-60738771D01*
X116837223Y-60720593D01*
X116855401Y-60704117D01*
X116875107Y-60689502D01*
X116896150Y-60676890D01*
X116918329Y-60666400D01*
X116941428Y-60658135D01*
X116965227Y-60652174D01*
X116989495Y-60648574D01*
X117013999Y-60647370D01*
X117664001Y-60647370D01*
X117688505Y-60648574D01*
X117688505Y-60648574D01*
G37*
D11*
X117339000Y-61347370D03*
D10*
G36*
X124818505Y-60648574D02*
G01*
X124842773Y-60652174D01*
X124866572Y-60658135D01*
X124889671Y-60666400D01*
X124911850Y-60676890D01*
X124932893Y-60689502D01*
X124952599Y-60704117D01*
X124970777Y-60720593D01*
X124987253Y-60738771D01*
X125001868Y-60758477D01*
X125014480Y-60779520D01*
X125024970Y-60801699D01*
X125033235Y-60824798D01*
X125039196Y-60848597D01*
X125042796Y-60872865D01*
X125044000Y-60897369D01*
X125044000Y-61797371D01*
X125042796Y-61821875D01*
X125039196Y-61846143D01*
X125033235Y-61869942D01*
X125024970Y-61893041D01*
X125014480Y-61915220D01*
X125001868Y-61936263D01*
X124987253Y-61955969D01*
X124970777Y-61974147D01*
X124952599Y-61990623D01*
X124932893Y-62005238D01*
X124911850Y-62017850D01*
X124889671Y-62028340D01*
X124866572Y-62036605D01*
X124842773Y-62042566D01*
X124818505Y-62046166D01*
X124794001Y-62047370D01*
X124143999Y-62047370D01*
X124119495Y-62046166D01*
X124095227Y-62042566D01*
X124071428Y-62036605D01*
X124048329Y-62028340D01*
X124026150Y-62017850D01*
X124005107Y-62005238D01*
X123985401Y-61990623D01*
X123967223Y-61974147D01*
X123950747Y-61955969D01*
X123936132Y-61936263D01*
X123923520Y-61915220D01*
X123913030Y-61893041D01*
X123904765Y-61869942D01*
X123898804Y-61846143D01*
X123895204Y-61821875D01*
X123894000Y-61797371D01*
X123894000Y-60897369D01*
X123895204Y-60872865D01*
X123898804Y-60848597D01*
X123904765Y-60824798D01*
X123913030Y-60801699D01*
X123923520Y-60779520D01*
X123936132Y-60758477D01*
X123950747Y-60738771D01*
X123967223Y-60720593D01*
X123985401Y-60704117D01*
X124005107Y-60689502D01*
X124026150Y-60676890D01*
X124048329Y-60666400D01*
X124071428Y-60658135D01*
X124095227Y-60652174D01*
X124119495Y-60648574D01*
X124143999Y-60647370D01*
X124794001Y-60647370D01*
X124818505Y-60648574D01*
X124818505Y-60648574D01*
G37*
D11*
X124469000Y-61347370D03*
D10*
G36*
X122768505Y-60648574D02*
G01*
X122792773Y-60652174D01*
X122816572Y-60658135D01*
X122839671Y-60666400D01*
X122861850Y-60676890D01*
X122882893Y-60689502D01*
X122902599Y-60704117D01*
X122920777Y-60720593D01*
X122937253Y-60738771D01*
X122951868Y-60758477D01*
X122964480Y-60779520D01*
X122974970Y-60801699D01*
X122983235Y-60824798D01*
X122989196Y-60848597D01*
X122992796Y-60872865D01*
X122994000Y-60897369D01*
X122994000Y-61797371D01*
X122992796Y-61821875D01*
X122989196Y-61846143D01*
X122983235Y-61869942D01*
X122974970Y-61893041D01*
X122964480Y-61915220D01*
X122951868Y-61936263D01*
X122937253Y-61955969D01*
X122920777Y-61974147D01*
X122902599Y-61990623D01*
X122882893Y-62005238D01*
X122861850Y-62017850D01*
X122839671Y-62028340D01*
X122816572Y-62036605D01*
X122792773Y-62042566D01*
X122768505Y-62046166D01*
X122744001Y-62047370D01*
X122093999Y-62047370D01*
X122069495Y-62046166D01*
X122045227Y-62042566D01*
X122021428Y-62036605D01*
X121998329Y-62028340D01*
X121976150Y-62017850D01*
X121955107Y-62005238D01*
X121935401Y-61990623D01*
X121917223Y-61974147D01*
X121900747Y-61955969D01*
X121886132Y-61936263D01*
X121873520Y-61915220D01*
X121863030Y-61893041D01*
X121854765Y-61869942D01*
X121848804Y-61846143D01*
X121845204Y-61821875D01*
X121844000Y-61797371D01*
X121844000Y-60897369D01*
X121845204Y-60872865D01*
X121848804Y-60848597D01*
X121854765Y-60824798D01*
X121863030Y-60801699D01*
X121873520Y-60779520D01*
X121886132Y-60758477D01*
X121900747Y-60738771D01*
X121917223Y-60720593D01*
X121935401Y-60704117D01*
X121955107Y-60689502D01*
X121976150Y-60676890D01*
X121998329Y-60666400D01*
X122021428Y-60658135D01*
X122045227Y-60652174D01*
X122069495Y-60648574D01*
X122093999Y-60647370D01*
X122744001Y-60647370D01*
X122768505Y-60648574D01*
X122768505Y-60648574D01*
G37*
D11*
X122419000Y-61347370D03*
D10*
G36*
X129898505Y-60648574D02*
G01*
X129922773Y-60652174D01*
X129946572Y-60658135D01*
X129969671Y-60666400D01*
X129991850Y-60676890D01*
X130012893Y-60689502D01*
X130032599Y-60704117D01*
X130050777Y-60720593D01*
X130067253Y-60738771D01*
X130081868Y-60758477D01*
X130094480Y-60779520D01*
X130104970Y-60801699D01*
X130113235Y-60824798D01*
X130119196Y-60848597D01*
X130122796Y-60872865D01*
X130124000Y-60897369D01*
X130124000Y-61797371D01*
X130122796Y-61821875D01*
X130119196Y-61846143D01*
X130113235Y-61869942D01*
X130104970Y-61893041D01*
X130094480Y-61915220D01*
X130081868Y-61936263D01*
X130067253Y-61955969D01*
X130050777Y-61974147D01*
X130032599Y-61990623D01*
X130012893Y-62005238D01*
X129991850Y-62017850D01*
X129969671Y-62028340D01*
X129946572Y-62036605D01*
X129922773Y-62042566D01*
X129898505Y-62046166D01*
X129874001Y-62047370D01*
X129223999Y-62047370D01*
X129199495Y-62046166D01*
X129175227Y-62042566D01*
X129151428Y-62036605D01*
X129128329Y-62028340D01*
X129106150Y-62017850D01*
X129085107Y-62005238D01*
X129065401Y-61990623D01*
X129047223Y-61974147D01*
X129030747Y-61955969D01*
X129016132Y-61936263D01*
X129003520Y-61915220D01*
X128993030Y-61893041D01*
X128984765Y-61869942D01*
X128978804Y-61846143D01*
X128975204Y-61821875D01*
X128974000Y-61797371D01*
X128974000Y-60897369D01*
X128975204Y-60872865D01*
X128978804Y-60848597D01*
X128984765Y-60824798D01*
X128993030Y-60801699D01*
X129003520Y-60779520D01*
X129016132Y-60758477D01*
X129030747Y-60738771D01*
X129047223Y-60720593D01*
X129065401Y-60704117D01*
X129085107Y-60689502D01*
X129106150Y-60676890D01*
X129128329Y-60666400D01*
X129151428Y-60658135D01*
X129175227Y-60652174D01*
X129199495Y-60648574D01*
X129223999Y-60647370D01*
X129874001Y-60647370D01*
X129898505Y-60648574D01*
X129898505Y-60648574D01*
G37*
D11*
X129549000Y-61347370D03*
D10*
G36*
X127848505Y-60648574D02*
G01*
X127872773Y-60652174D01*
X127896572Y-60658135D01*
X127919671Y-60666400D01*
X127941850Y-60676890D01*
X127962893Y-60689502D01*
X127982599Y-60704117D01*
X128000777Y-60720593D01*
X128017253Y-60738771D01*
X128031868Y-60758477D01*
X128044480Y-60779520D01*
X128054970Y-60801699D01*
X128063235Y-60824798D01*
X128069196Y-60848597D01*
X128072796Y-60872865D01*
X128074000Y-60897369D01*
X128074000Y-61797371D01*
X128072796Y-61821875D01*
X128069196Y-61846143D01*
X128063235Y-61869942D01*
X128054970Y-61893041D01*
X128044480Y-61915220D01*
X128031868Y-61936263D01*
X128017253Y-61955969D01*
X128000777Y-61974147D01*
X127982599Y-61990623D01*
X127962893Y-62005238D01*
X127941850Y-62017850D01*
X127919671Y-62028340D01*
X127896572Y-62036605D01*
X127872773Y-62042566D01*
X127848505Y-62046166D01*
X127824001Y-62047370D01*
X127173999Y-62047370D01*
X127149495Y-62046166D01*
X127125227Y-62042566D01*
X127101428Y-62036605D01*
X127078329Y-62028340D01*
X127056150Y-62017850D01*
X127035107Y-62005238D01*
X127015401Y-61990623D01*
X126997223Y-61974147D01*
X126980747Y-61955969D01*
X126966132Y-61936263D01*
X126953520Y-61915220D01*
X126943030Y-61893041D01*
X126934765Y-61869942D01*
X126928804Y-61846143D01*
X126925204Y-61821875D01*
X126924000Y-61797371D01*
X126924000Y-60897369D01*
X126925204Y-60872865D01*
X126928804Y-60848597D01*
X126934765Y-60824798D01*
X126943030Y-60801699D01*
X126953520Y-60779520D01*
X126966132Y-60758477D01*
X126980747Y-60738771D01*
X126997223Y-60720593D01*
X127015401Y-60704117D01*
X127035107Y-60689502D01*
X127056150Y-60676890D01*
X127078329Y-60666400D01*
X127101428Y-60658135D01*
X127125227Y-60652174D01*
X127149495Y-60648574D01*
X127173999Y-60647370D01*
X127824001Y-60647370D01*
X127848505Y-60648574D01*
X127848505Y-60648574D01*
G37*
D11*
X127499000Y-61347370D03*
D10*
G36*
X89258505Y-80835204D02*
G01*
X89282773Y-80838804D01*
X89306572Y-80844765D01*
X89329671Y-80853030D01*
X89351850Y-80863520D01*
X89372893Y-80876132D01*
X89392599Y-80890747D01*
X89410777Y-80907223D01*
X89427253Y-80925401D01*
X89441868Y-80945107D01*
X89454480Y-80966150D01*
X89464970Y-80988329D01*
X89473235Y-81011428D01*
X89479196Y-81035227D01*
X89482796Y-81059495D01*
X89484000Y-81083999D01*
X89484000Y-81984001D01*
X89482796Y-82008505D01*
X89479196Y-82032773D01*
X89473235Y-82056572D01*
X89464970Y-82079671D01*
X89454480Y-82101850D01*
X89441868Y-82122893D01*
X89427253Y-82142599D01*
X89410777Y-82160777D01*
X89392599Y-82177253D01*
X89372893Y-82191868D01*
X89351850Y-82204480D01*
X89329671Y-82214970D01*
X89306572Y-82223235D01*
X89282773Y-82229196D01*
X89258505Y-82232796D01*
X89234001Y-82234000D01*
X88583999Y-82234000D01*
X88559495Y-82232796D01*
X88535227Y-82229196D01*
X88511428Y-82223235D01*
X88488329Y-82214970D01*
X88466150Y-82204480D01*
X88445107Y-82191868D01*
X88425401Y-82177253D01*
X88407223Y-82160777D01*
X88390747Y-82142599D01*
X88376132Y-82122893D01*
X88363520Y-82101850D01*
X88353030Y-82079671D01*
X88344765Y-82056572D01*
X88338804Y-82032773D01*
X88335204Y-82008505D01*
X88334000Y-81984001D01*
X88334000Y-81083999D01*
X88335204Y-81059495D01*
X88338804Y-81035227D01*
X88344765Y-81011428D01*
X88353030Y-80988329D01*
X88363520Y-80966150D01*
X88376132Y-80945107D01*
X88390747Y-80925401D01*
X88407223Y-80907223D01*
X88425401Y-80890747D01*
X88445107Y-80876132D01*
X88466150Y-80863520D01*
X88488329Y-80853030D01*
X88511428Y-80844765D01*
X88535227Y-80838804D01*
X88559495Y-80835204D01*
X88583999Y-80834000D01*
X89234001Y-80834000D01*
X89258505Y-80835204D01*
X89258505Y-80835204D01*
G37*
D11*
X88909000Y-81534000D03*
D10*
G36*
X87208505Y-80835204D02*
G01*
X87232773Y-80838804D01*
X87256572Y-80844765D01*
X87279671Y-80853030D01*
X87301850Y-80863520D01*
X87322893Y-80876132D01*
X87342599Y-80890747D01*
X87360777Y-80907223D01*
X87377253Y-80925401D01*
X87391868Y-80945107D01*
X87404480Y-80966150D01*
X87414970Y-80988329D01*
X87423235Y-81011428D01*
X87429196Y-81035227D01*
X87432796Y-81059495D01*
X87434000Y-81083999D01*
X87434000Y-81984001D01*
X87432796Y-82008505D01*
X87429196Y-82032773D01*
X87423235Y-82056572D01*
X87414970Y-82079671D01*
X87404480Y-82101850D01*
X87391868Y-82122893D01*
X87377253Y-82142599D01*
X87360777Y-82160777D01*
X87342599Y-82177253D01*
X87322893Y-82191868D01*
X87301850Y-82204480D01*
X87279671Y-82214970D01*
X87256572Y-82223235D01*
X87232773Y-82229196D01*
X87208505Y-82232796D01*
X87184001Y-82234000D01*
X86533999Y-82234000D01*
X86509495Y-82232796D01*
X86485227Y-82229196D01*
X86461428Y-82223235D01*
X86438329Y-82214970D01*
X86416150Y-82204480D01*
X86395107Y-82191868D01*
X86375401Y-82177253D01*
X86357223Y-82160777D01*
X86340747Y-82142599D01*
X86326132Y-82122893D01*
X86313520Y-82101850D01*
X86303030Y-82079671D01*
X86294765Y-82056572D01*
X86288804Y-82032773D01*
X86285204Y-82008505D01*
X86284000Y-81984001D01*
X86284000Y-81083999D01*
X86285204Y-81059495D01*
X86288804Y-81035227D01*
X86294765Y-81011428D01*
X86303030Y-80988329D01*
X86313520Y-80966150D01*
X86326132Y-80945107D01*
X86340747Y-80925401D01*
X86357223Y-80907223D01*
X86375401Y-80890747D01*
X86395107Y-80876132D01*
X86416150Y-80863520D01*
X86438329Y-80853030D01*
X86461428Y-80844765D01*
X86485227Y-80838804D01*
X86509495Y-80835204D01*
X86533999Y-80834000D01*
X87184001Y-80834000D01*
X87208505Y-80835204D01*
X87208505Y-80835204D01*
G37*
D11*
X86859000Y-81534000D03*
D10*
G36*
X94338505Y-80835204D02*
G01*
X94362773Y-80838804D01*
X94386572Y-80844765D01*
X94409671Y-80853030D01*
X94431850Y-80863520D01*
X94452893Y-80876132D01*
X94472599Y-80890747D01*
X94490777Y-80907223D01*
X94507253Y-80925401D01*
X94521868Y-80945107D01*
X94534480Y-80966150D01*
X94544970Y-80988329D01*
X94553235Y-81011428D01*
X94559196Y-81035227D01*
X94562796Y-81059495D01*
X94564000Y-81083999D01*
X94564000Y-81984001D01*
X94562796Y-82008505D01*
X94559196Y-82032773D01*
X94553235Y-82056572D01*
X94544970Y-82079671D01*
X94534480Y-82101850D01*
X94521868Y-82122893D01*
X94507253Y-82142599D01*
X94490777Y-82160777D01*
X94472599Y-82177253D01*
X94452893Y-82191868D01*
X94431850Y-82204480D01*
X94409671Y-82214970D01*
X94386572Y-82223235D01*
X94362773Y-82229196D01*
X94338505Y-82232796D01*
X94314001Y-82234000D01*
X93663999Y-82234000D01*
X93639495Y-82232796D01*
X93615227Y-82229196D01*
X93591428Y-82223235D01*
X93568329Y-82214970D01*
X93546150Y-82204480D01*
X93525107Y-82191868D01*
X93505401Y-82177253D01*
X93487223Y-82160777D01*
X93470747Y-82142599D01*
X93456132Y-82122893D01*
X93443520Y-82101850D01*
X93433030Y-82079671D01*
X93424765Y-82056572D01*
X93418804Y-82032773D01*
X93415204Y-82008505D01*
X93414000Y-81984001D01*
X93414000Y-81083999D01*
X93415204Y-81059495D01*
X93418804Y-81035227D01*
X93424765Y-81011428D01*
X93433030Y-80988329D01*
X93443520Y-80966150D01*
X93456132Y-80945107D01*
X93470747Y-80925401D01*
X93487223Y-80907223D01*
X93505401Y-80890747D01*
X93525107Y-80876132D01*
X93546150Y-80863520D01*
X93568329Y-80853030D01*
X93591428Y-80844765D01*
X93615227Y-80838804D01*
X93639495Y-80835204D01*
X93663999Y-80834000D01*
X94314001Y-80834000D01*
X94338505Y-80835204D01*
X94338505Y-80835204D01*
G37*
D11*
X93989000Y-81534000D03*
D10*
G36*
X92288505Y-80835204D02*
G01*
X92312773Y-80838804D01*
X92336572Y-80844765D01*
X92359671Y-80853030D01*
X92381850Y-80863520D01*
X92402893Y-80876132D01*
X92422599Y-80890747D01*
X92440777Y-80907223D01*
X92457253Y-80925401D01*
X92471868Y-80945107D01*
X92484480Y-80966150D01*
X92494970Y-80988329D01*
X92503235Y-81011428D01*
X92509196Y-81035227D01*
X92512796Y-81059495D01*
X92514000Y-81083999D01*
X92514000Y-81984001D01*
X92512796Y-82008505D01*
X92509196Y-82032773D01*
X92503235Y-82056572D01*
X92494970Y-82079671D01*
X92484480Y-82101850D01*
X92471868Y-82122893D01*
X92457253Y-82142599D01*
X92440777Y-82160777D01*
X92422599Y-82177253D01*
X92402893Y-82191868D01*
X92381850Y-82204480D01*
X92359671Y-82214970D01*
X92336572Y-82223235D01*
X92312773Y-82229196D01*
X92288505Y-82232796D01*
X92264001Y-82234000D01*
X91613999Y-82234000D01*
X91589495Y-82232796D01*
X91565227Y-82229196D01*
X91541428Y-82223235D01*
X91518329Y-82214970D01*
X91496150Y-82204480D01*
X91475107Y-82191868D01*
X91455401Y-82177253D01*
X91437223Y-82160777D01*
X91420747Y-82142599D01*
X91406132Y-82122893D01*
X91393520Y-82101850D01*
X91383030Y-82079671D01*
X91374765Y-82056572D01*
X91368804Y-82032773D01*
X91365204Y-82008505D01*
X91364000Y-81984001D01*
X91364000Y-81083999D01*
X91365204Y-81059495D01*
X91368804Y-81035227D01*
X91374765Y-81011428D01*
X91383030Y-80988329D01*
X91393520Y-80966150D01*
X91406132Y-80945107D01*
X91420747Y-80925401D01*
X91437223Y-80907223D01*
X91455401Y-80890747D01*
X91475107Y-80876132D01*
X91496150Y-80863520D01*
X91518329Y-80853030D01*
X91541428Y-80844765D01*
X91565227Y-80838804D01*
X91589495Y-80835204D01*
X91613999Y-80834000D01*
X92264001Y-80834000D01*
X92288505Y-80835204D01*
X92288505Y-80835204D01*
G37*
D11*
X91939000Y-81534000D03*
D10*
G36*
X99418505Y-80835204D02*
G01*
X99442773Y-80838804D01*
X99466572Y-80844765D01*
X99489671Y-80853030D01*
X99511850Y-80863520D01*
X99532893Y-80876132D01*
X99552599Y-80890747D01*
X99570777Y-80907223D01*
X99587253Y-80925401D01*
X99601868Y-80945107D01*
X99614480Y-80966150D01*
X99624970Y-80988329D01*
X99633235Y-81011428D01*
X99639196Y-81035227D01*
X99642796Y-81059495D01*
X99644000Y-81083999D01*
X99644000Y-81984001D01*
X99642796Y-82008505D01*
X99639196Y-82032773D01*
X99633235Y-82056572D01*
X99624970Y-82079671D01*
X99614480Y-82101850D01*
X99601868Y-82122893D01*
X99587253Y-82142599D01*
X99570777Y-82160777D01*
X99552599Y-82177253D01*
X99532893Y-82191868D01*
X99511850Y-82204480D01*
X99489671Y-82214970D01*
X99466572Y-82223235D01*
X99442773Y-82229196D01*
X99418505Y-82232796D01*
X99394001Y-82234000D01*
X98743999Y-82234000D01*
X98719495Y-82232796D01*
X98695227Y-82229196D01*
X98671428Y-82223235D01*
X98648329Y-82214970D01*
X98626150Y-82204480D01*
X98605107Y-82191868D01*
X98585401Y-82177253D01*
X98567223Y-82160777D01*
X98550747Y-82142599D01*
X98536132Y-82122893D01*
X98523520Y-82101850D01*
X98513030Y-82079671D01*
X98504765Y-82056572D01*
X98498804Y-82032773D01*
X98495204Y-82008505D01*
X98494000Y-81984001D01*
X98494000Y-81083999D01*
X98495204Y-81059495D01*
X98498804Y-81035227D01*
X98504765Y-81011428D01*
X98513030Y-80988329D01*
X98523520Y-80966150D01*
X98536132Y-80945107D01*
X98550747Y-80925401D01*
X98567223Y-80907223D01*
X98585401Y-80890747D01*
X98605107Y-80876132D01*
X98626150Y-80863520D01*
X98648329Y-80853030D01*
X98671428Y-80844765D01*
X98695227Y-80838804D01*
X98719495Y-80835204D01*
X98743999Y-80834000D01*
X99394001Y-80834000D01*
X99418505Y-80835204D01*
X99418505Y-80835204D01*
G37*
D11*
X99069000Y-81534000D03*
D10*
G36*
X97368505Y-80835204D02*
G01*
X97392773Y-80838804D01*
X97416572Y-80844765D01*
X97439671Y-80853030D01*
X97461850Y-80863520D01*
X97482893Y-80876132D01*
X97502599Y-80890747D01*
X97520777Y-80907223D01*
X97537253Y-80925401D01*
X97551868Y-80945107D01*
X97564480Y-80966150D01*
X97574970Y-80988329D01*
X97583235Y-81011428D01*
X97589196Y-81035227D01*
X97592796Y-81059495D01*
X97594000Y-81083999D01*
X97594000Y-81984001D01*
X97592796Y-82008505D01*
X97589196Y-82032773D01*
X97583235Y-82056572D01*
X97574970Y-82079671D01*
X97564480Y-82101850D01*
X97551868Y-82122893D01*
X97537253Y-82142599D01*
X97520777Y-82160777D01*
X97502599Y-82177253D01*
X97482893Y-82191868D01*
X97461850Y-82204480D01*
X97439671Y-82214970D01*
X97416572Y-82223235D01*
X97392773Y-82229196D01*
X97368505Y-82232796D01*
X97344001Y-82234000D01*
X96693999Y-82234000D01*
X96669495Y-82232796D01*
X96645227Y-82229196D01*
X96621428Y-82223235D01*
X96598329Y-82214970D01*
X96576150Y-82204480D01*
X96555107Y-82191868D01*
X96535401Y-82177253D01*
X96517223Y-82160777D01*
X96500747Y-82142599D01*
X96486132Y-82122893D01*
X96473520Y-82101850D01*
X96463030Y-82079671D01*
X96454765Y-82056572D01*
X96448804Y-82032773D01*
X96445204Y-82008505D01*
X96444000Y-81984001D01*
X96444000Y-81083999D01*
X96445204Y-81059495D01*
X96448804Y-81035227D01*
X96454765Y-81011428D01*
X96463030Y-80988329D01*
X96473520Y-80966150D01*
X96486132Y-80945107D01*
X96500747Y-80925401D01*
X96517223Y-80907223D01*
X96535401Y-80890747D01*
X96555107Y-80876132D01*
X96576150Y-80863520D01*
X96598329Y-80853030D01*
X96621428Y-80844765D01*
X96645227Y-80838804D01*
X96669495Y-80835204D01*
X96693999Y-80834000D01*
X97344001Y-80834000D01*
X97368505Y-80835204D01*
X97368505Y-80835204D01*
G37*
D11*
X97019000Y-81534000D03*
D10*
G36*
X104752505Y-80835204D02*
G01*
X104776773Y-80838804D01*
X104800572Y-80844765D01*
X104823671Y-80853030D01*
X104845850Y-80863520D01*
X104866893Y-80876132D01*
X104886599Y-80890747D01*
X104904777Y-80907223D01*
X104921253Y-80925401D01*
X104935868Y-80945107D01*
X104948480Y-80966150D01*
X104958970Y-80988329D01*
X104967235Y-81011428D01*
X104973196Y-81035227D01*
X104976796Y-81059495D01*
X104978000Y-81083999D01*
X104978000Y-81984001D01*
X104976796Y-82008505D01*
X104973196Y-82032773D01*
X104967235Y-82056572D01*
X104958970Y-82079671D01*
X104948480Y-82101850D01*
X104935868Y-82122893D01*
X104921253Y-82142599D01*
X104904777Y-82160777D01*
X104886599Y-82177253D01*
X104866893Y-82191868D01*
X104845850Y-82204480D01*
X104823671Y-82214970D01*
X104800572Y-82223235D01*
X104776773Y-82229196D01*
X104752505Y-82232796D01*
X104728001Y-82234000D01*
X104077999Y-82234000D01*
X104053495Y-82232796D01*
X104029227Y-82229196D01*
X104005428Y-82223235D01*
X103982329Y-82214970D01*
X103960150Y-82204480D01*
X103939107Y-82191868D01*
X103919401Y-82177253D01*
X103901223Y-82160777D01*
X103884747Y-82142599D01*
X103870132Y-82122893D01*
X103857520Y-82101850D01*
X103847030Y-82079671D01*
X103838765Y-82056572D01*
X103832804Y-82032773D01*
X103829204Y-82008505D01*
X103828000Y-81984001D01*
X103828000Y-81083999D01*
X103829204Y-81059495D01*
X103832804Y-81035227D01*
X103838765Y-81011428D01*
X103847030Y-80988329D01*
X103857520Y-80966150D01*
X103870132Y-80945107D01*
X103884747Y-80925401D01*
X103901223Y-80907223D01*
X103919401Y-80890747D01*
X103939107Y-80876132D01*
X103960150Y-80863520D01*
X103982329Y-80853030D01*
X104005428Y-80844765D01*
X104029227Y-80838804D01*
X104053495Y-80835204D01*
X104077999Y-80834000D01*
X104728001Y-80834000D01*
X104752505Y-80835204D01*
X104752505Y-80835204D01*
G37*
D11*
X104403000Y-81534000D03*
D10*
G36*
X102702505Y-80835204D02*
G01*
X102726773Y-80838804D01*
X102750572Y-80844765D01*
X102773671Y-80853030D01*
X102795850Y-80863520D01*
X102816893Y-80876132D01*
X102836599Y-80890747D01*
X102854777Y-80907223D01*
X102871253Y-80925401D01*
X102885868Y-80945107D01*
X102898480Y-80966150D01*
X102908970Y-80988329D01*
X102917235Y-81011428D01*
X102923196Y-81035227D01*
X102926796Y-81059495D01*
X102928000Y-81083999D01*
X102928000Y-81984001D01*
X102926796Y-82008505D01*
X102923196Y-82032773D01*
X102917235Y-82056572D01*
X102908970Y-82079671D01*
X102898480Y-82101850D01*
X102885868Y-82122893D01*
X102871253Y-82142599D01*
X102854777Y-82160777D01*
X102836599Y-82177253D01*
X102816893Y-82191868D01*
X102795850Y-82204480D01*
X102773671Y-82214970D01*
X102750572Y-82223235D01*
X102726773Y-82229196D01*
X102702505Y-82232796D01*
X102678001Y-82234000D01*
X102027999Y-82234000D01*
X102003495Y-82232796D01*
X101979227Y-82229196D01*
X101955428Y-82223235D01*
X101932329Y-82214970D01*
X101910150Y-82204480D01*
X101889107Y-82191868D01*
X101869401Y-82177253D01*
X101851223Y-82160777D01*
X101834747Y-82142599D01*
X101820132Y-82122893D01*
X101807520Y-82101850D01*
X101797030Y-82079671D01*
X101788765Y-82056572D01*
X101782804Y-82032773D01*
X101779204Y-82008505D01*
X101778000Y-81984001D01*
X101778000Y-81083999D01*
X101779204Y-81059495D01*
X101782804Y-81035227D01*
X101788765Y-81011428D01*
X101797030Y-80988329D01*
X101807520Y-80966150D01*
X101820132Y-80945107D01*
X101834747Y-80925401D01*
X101851223Y-80907223D01*
X101869401Y-80890747D01*
X101889107Y-80876132D01*
X101910150Y-80863520D01*
X101932329Y-80853030D01*
X101955428Y-80844765D01*
X101979227Y-80838804D01*
X102003495Y-80835204D01*
X102027999Y-80834000D01*
X102678001Y-80834000D01*
X102702505Y-80835204D01*
X102702505Y-80835204D01*
G37*
D11*
X102353000Y-81534000D03*
D10*
G36*
X140548505Y-64750389D02*
G01*
X140572773Y-64753989D01*
X140596572Y-64759950D01*
X140619671Y-64768215D01*
X140641850Y-64778705D01*
X140662893Y-64791317D01*
X140682599Y-64805932D01*
X140700777Y-64822408D01*
X140717253Y-64840586D01*
X140731868Y-64860292D01*
X140744480Y-64881335D01*
X140754970Y-64903514D01*
X140763235Y-64926613D01*
X140769196Y-64950412D01*
X140772796Y-64974680D01*
X140774000Y-64999184D01*
X140774000Y-65899186D01*
X140772796Y-65923690D01*
X140769196Y-65947958D01*
X140763235Y-65971757D01*
X140754970Y-65994856D01*
X140744480Y-66017035D01*
X140731868Y-66038078D01*
X140717253Y-66057784D01*
X140700777Y-66075962D01*
X140682599Y-66092438D01*
X140662893Y-66107053D01*
X140641850Y-66119665D01*
X140619671Y-66130155D01*
X140596572Y-66138420D01*
X140572773Y-66144381D01*
X140548505Y-66147981D01*
X140524001Y-66149185D01*
X139873999Y-66149185D01*
X139849495Y-66147981D01*
X139825227Y-66144381D01*
X139801428Y-66138420D01*
X139778329Y-66130155D01*
X139756150Y-66119665D01*
X139735107Y-66107053D01*
X139715401Y-66092438D01*
X139697223Y-66075962D01*
X139680747Y-66057784D01*
X139666132Y-66038078D01*
X139653520Y-66017035D01*
X139643030Y-65994856D01*
X139634765Y-65971757D01*
X139628804Y-65947958D01*
X139625204Y-65923690D01*
X139624000Y-65899186D01*
X139624000Y-64999184D01*
X139625204Y-64974680D01*
X139628804Y-64950412D01*
X139634765Y-64926613D01*
X139643030Y-64903514D01*
X139653520Y-64881335D01*
X139666132Y-64860292D01*
X139680747Y-64840586D01*
X139697223Y-64822408D01*
X139715401Y-64805932D01*
X139735107Y-64791317D01*
X139756150Y-64778705D01*
X139778329Y-64768215D01*
X139801428Y-64759950D01*
X139825227Y-64753989D01*
X139849495Y-64750389D01*
X139873999Y-64749185D01*
X140524001Y-64749185D01*
X140548505Y-64750389D01*
X140548505Y-64750389D01*
G37*
D11*
X140199000Y-65449185D03*
D10*
G36*
X142598505Y-64750389D02*
G01*
X142622773Y-64753989D01*
X142646572Y-64759950D01*
X142669671Y-64768215D01*
X142691850Y-64778705D01*
X142712893Y-64791317D01*
X142732599Y-64805932D01*
X142750777Y-64822408D01*
X142767253Y-64840586D01*
X142781868Y-64860292D01*
X142794480Y-64881335D01*
X142804970Y-64903514D01*
X142813235Y-64926613D01*
X142819196Y-64950412D01*
X142822796Y-64974680D01*
X142824000Y-64999184D01*
X142824000Y-65899186D01*
X142822796Y-65923690D01*
X142819196Y-65947958D01*
X142813235Y-65971757D01*
X142804970Y-65994856D01*
X142794480Y-66017035D01*
X142781868Y-66038078D01*
X142767253Y-66057784D01*
X142750777Y-66075962D01*
X142732599Y-66092438D01*
X142712893Y-66107053D01*
X142691850Y-66119665D01*
X142669671Y-66130155D01*
X142646572Y-66138420D01*
X142622773Y-66144381D01*
X142598505Y-66147981D01*
X142574001Y-66149185D01*
X141923999Y-66149185D01*
X141899495Y-66147981D01*
X141875227Y-66144381D01*
X141851428Y-66138420D01*
X141828329Y-66130155D01*
X141806150Y-66119665D01*
X141785107Y-66107053D01*
X141765401Y-66092438D01*
X141747223Y-66075962D01*
X141730747Y-66057784D01*
X141716132Y-66038078D01*
X141703520Y-66017035D01*
X141693030Y-65994856D01*
X141684765Y-65971757D01*
X141678804Y-65947958D01*
X141675204Y-65923690D01*
X141674000Y-65899186D01*
X141674000Y-64999184D01*
X141675204Y-64974680D01*
X141678804Y-64950412D01*
X141684765Y-64926613D01*
X141693030Y-64903514D01*
X141703520Y-64881335D01*
X141716132Y-64860292D01*
X141730747Y-64840586D01*
X141747223Y-64822408D01*
X141765401Y-64805932D01*
X141785107Y-64791317D01*
X141806150Y-64778705D01*
X141828329Y-64768215D01*
X141851428Y-64759950D01*
X141875227Y-64753989D01*
X141899495Y-64750389D01*
X141923999Y-64749185D01*
X142574001Y-64749185D01*
X142598505Y-64750389D01*
X142598505Y-64750389D01*
G37*
D11*
X142249000Y-65449185D03*
D10*
G36*
X145882505Y-64750389D02*
G01*
X145906773Y-64753989D01*
X145930572Y-64759950D01*
X145953671Y-64768215D01*
X145975850Y-64778705D01*
X145996893Y-64791317D01*
X146016599Y-64805932D01*
X146034777Y-64822408D01*
X146051253Y-64840586D01*
X146065868Y-64860292D01*
X146078480Y-64881335D01*
X146088970Y-64903514D01*
X146097235Y-64926613D01*
X146103196Y-64950412D01*
X146106796Y-64974680D01*
X146108000Y-64999184D01*
X146108000Y-65899186D01*
X146106796Y-65923690D01*
X146103196Y-65947958D01*
X146097235Y-65971757D01*
X146088970Y-65994856D01*
X146078480Y-66017035D01*
X146065868Y-66038078D01*
X146051253Y-66057784D01*
X146034777Y-66075962D01*
X146016599Y-66092438D01*
X145996893Y-66107053D01*
X145975850Y-66119665D01*
X145953671Y-66130155D01*
X145930572Y-66138420D01*
X145906773Y-66144381D01*
X145882505Y-66147981D01*
X145858001Y-66149185D01*
X145207999Y-66149185D01*
X145183495Y-66147981D01*
X145159227Y-66144381D01*
X145135428Y-66138420D01*
X145112329Y-66130155D01*
X145090150Y-66119665D01*
X145069107Y-66107053D01*
X145049401Y-66092438D01*
X145031223Y-66075962D01*
X145014747Y-66057784D01*
X145000132Y-66038078D01*
X144987520Y-66017035D01*
X144977030Y-65994856D01*
X144968765Y-65971757D01*
X144962804Y-65947958D01*
X144959204Y-65923690D01*
X144958000Y-65899186D01*
X144958000Y-64999184D01*
X144959204Y-64974680D01*
X144962804Y-64950412D01*
X144968765Y-64926613D01*
X144977030Y-64903514D01*
X144987520Y-64881335D01*
X145000132Y-64860292D01*
X145014747Y-64840586D01*
X145031223Y-64822408D01*
X145049401Y-64805932D01*
X145069107Y-64791317D01*
X145090150Y-64778705D01*
X145112329Y-64768215D01*
X145135428Y-64759950D01*
X145159227Y-64753989D01*
X145183495Y-64750389D01*
X145207999Y-64749185D01*
X145858001Y-64749185D01*
X145882505Y-64750389D01*
X145882505Y-64750389D01*
G37*
D11*
X145533000Y-65449185D03*
D10*
G36*
X147932505Y-64750389D02*
G01*
X147956773Y-64753989D01*
X147980572Y-64759950D01*
X148003671Y-64768215D01*
X148025850Y-64778705D01*
X148046893Y-64791317D01*
X148066599Y-64805932D01*
X148084777Y-64822408D01*
X148101253Y-64840586D01*
X148115868Y-64860292D01*
X148128480Y-64881335D01*
X148138970Y-64903514D01*
X148147235Y-64926613D01*
X148153196Y-64950412D01*
X148156796Y-64974680D01*
X148158000Y-64999184D01*
X148158000Y-65899186D01*
X148156796Y-65923690D01*
X148153196Y-65947958D01*
X148147235Y-65971757D01*
X148138970Y-65994856D01*
X148128480Y-66017035D01*
X148115868Y-66038078D01*
X148101253Y-66057784D01*
X148084777Y-66075962D01*
X148066599Y-66092438D01*
X148046893Y-66107053D01*
X148025850Y-66119665D01*
X148003671Y-66130155D01*
X147980572Y-66138420D01*
X147956773Y-66144381D01*
X147932505Y-66147981D01*
X147908001Y-66149185D01*
X147257999Y-66149185D01*
X147233495Y-66147981D01*
X147209227Y-66144381D01*
X147185428Y-66138420D01*
X147162329Y-66130155D01*
X147140150Y-66119665D01*
X147119107Y-66107053D01*
X147099401Y-66092438D01*
X147081223Y-66075962D01*
X147064747Y-66057784D01*
X147050132Y-66038078D01*
X147037520Y-66017035D01*
X147027030Y-65994856D01*
X147018765Y-65971757D01*
X147012804Y-65947958D01*
X147009204Y-65923690D01*
X147008000Y-65899186D01*
X147008000Y-64999184D01*
X147009204Y-64974680D01*
X147012804Y-64950412D01*
X147018765Y-64926613D01*
X147027030Y-64903514D01*
X147037520Y-64881335D01*
X147050132Y-64860292D01*
X147064747Y-64840586D01*
X147081223Y-64822408D01*
X147099401Y-64805932D01*
X147119107Y-64791317D01*
X147140150Y-64778705D01*
X147162329Y-64768215D01*
X147185428Y-64759950D01*
X147209227Y-64753989D01*
X147233495Y-64750389D01*
X147257999Y-64749185D01*
X147908001Y-64749185D01*
X147932505Y-64750389D01*
X147932505Y-64750389D01*
G37*
D11*
X147583000Y-65449185D03*
D10*
G36*
X151089505Y-64750389D02*
G01*
X151113773Y-64753989D01*
X151137572Y-64759950D01*
X151160671Y-64768215D01*
X151182850Y-64778705D01*
X151203893Y-64791317D01*
X151223599Y-64805932D01*
X151241777Y-64822408D01*
X151258253Y-64840586D01*
X151272868Y-64860292D01*
X151285480Y-64881335D01*
X151295970Y-64903514D01*
X151304235Y-64926613D01*
X151310196Y-64950412D01*
X151313796Y-64974680D01*
X151315000Y-64999184D01*
X151315000Y-65899186D01*
X151313796Y-65923690D01*
X151310196Y-65947958D01*
X151304235Y-65971757D01*
X151295970Y-65994856D01*
X151285480Y-66017035D01*
X151272868Y-66038078D01*
X151258253Y-66057784D01*
X151241777Y-66075962D01*
X151223599Y-66092438D01*
X151203893Y-66107053D01*
X151182850Y-66119665D01*
X151160671Y-66130155D01*
X151137572Y-66138420D01*
X151113773Y-66144381D01*
X151089505Y-66147981D01*
X151065001Y-66149185D01*
X150414999Y-66149185D01*
X150390495Y-66147981D01*
X150366227Y-66144381D01*
X150342428Y-66138420D01*
X150319329Y-66130155D01*
X150297150Y-66119665D01*
X150276107Y-66107053D01*
X150256401Y-66092438D01*
X150238223Y-66075962D01*
X150221747Y-66057784D01*
X150207132Y-66038078D01*
X150194520Y-66017035D01*
X150184030Y-65994856D01*
X150175765Y-65971757D01*
X150169804Y-65947958D01*
X150166204Y-65923690D01*
X150165000Y-65899186D01*
X150165000Y-64999184D01*
X150166204Y-64974680D01*
X150169804Y-64950412D01*
X150175765Y-64926613D01*
X150184030Y-64903514D01*
X150194520Y-64881335D01*
X150207132Y-64860292D01*
X150221747Y-64840586D01*
X150238223Y-64822408D01*
X150256401Y-64805932D01*
X150276107Y-64791317D01*
X150297150Y-64778705D01*
X150319329Y-64768215D01*
X150342428Y-64759950D01*
X150366227Y-64753989D01*
X150390495Y-64750389D01*
X150414999Y-64749185D01*
X151065001Y-64749185D01*
X151089505Y-64750389D01*
X151089505Y-64750389D01*
G37*
D11*
X150740000Y-65449185D03*
D10*
G36*
X153139505Y-64750389D02*
G01*
X153163773Y-64753989D01*
X153187572Y-64759950D01*
X153210671Y-64768215D01*
X153232850Y-64778705D01*
X153253893Y-64791317D01*
X153273599Y-64805932D01*
X153291777Y-64822408D01*
X153308253Y-64840586D01*
X153322868Y-64860292D01*
X153335480Y-64881335D01*
X153345970Y-64903514D01*
X153354235Y-64926613D01*
X153360196Y-64950412D01*
X153363796Y-64974680D01*
X153365000Y-64999184D01*
X153365000Y-65899186D01*
X153363796Y-65923690D01*
X153360196Y-65947958D01*
X153354235Y-65971757D01*
X153345970Y-65994856D01*
X153335480Y-66017035D01*
X153322868Y-66038078D01*
X153308253Y-66057784D01*
X153291777Y-66075962D01*
X153273599Y-66092438D01*
X153253893Y-66107053D01*
X153232850Y-66119665D01*
X153210671Y-66130155D01*
X153187572Y-66138420D01*
X153163773Y-66144381D01*
X153139505Y-66147981D01*
X153115001Y-66149185D01*
X152464999Y-66149185D01*
X152440495Y-66147981D01*
X152416227Y-66144381D01*
X152392428Y-66138420D01*
X152369329Y-66130155D01*
X152347150Y-66119665D01*
X152326107Y-66107053D01*
X152306401Y-66092438D01*
X152288223Y-66075962D01*
X152271747Y-66057784D01*
X152257132Y-66038078D01*
X152244520Y-66017035D01*
X152234030Y-65994856D01*
X152225765Y-65971757D01*
X152219804Y-65947958D01*
X152216204Y-65923690D01*
X152215000Y-65899186D01*
X152215000Y-64999184D01*
X152216204Y-64974680D01*
X152219804Y-64950412D01*
X152225765Y-64926613D01*
X152234030Y-64903514D01*
X152244520Y-64881335D01*
X152257132Y-64860292D01*
X152271747Y-64840586D01*
X152288223Y-64822408D01*
X152306401Y-64805932D01*
X152326107Y-64791317D01*
X152347150Y-64778705D01*
X152369329Y-64768215D01*
X152392428Y-64759950D01*
X152416227Y-64753989D01*
X152440495Y-64750389D01*
X152464999Y-64749185D01*
X153115001Y-64749185D01*
X153139505Y-64750389D01*
X153139505Y-64750389D01*
G37*
D11*
X152790000Y-65449185D03*
D10*
G36*
X156296505Y-64750389D02*
G01*
X156320773Y-64753989D01*
X156344572Y-64759950D01*
X156367671Y-64768215D01*
X156389850Y-64778705D01*
X156410893Y-64791317D01*
X156430599Y-64805932D01*
X156448777Y-64822408D01*
X156465253Y-64840586D01*
X156479868Y-64860292D01*
X156492480Y-64881335D01*
X156502970Y-64903514D01*
X156511235Y-64926613D01*
X156517196Y-64950412D01*
X156520796Y-64974680D01*
X156522000Y-64999184D01*
X156522000Y-65899186D01*
X156520796Y-65923690D01*
X156517196Y-65947958D01*
X156511235Y-65971757D01*
X156502970Y-65994856D01*
X156492480Y-66017035D01*
X156479868Y-66038078D01*
X156465253Y-66057784D01*
X156448777Y-66075962D01*
X156430599Y-66092438D01*
X156410893Y-66107053D01*
X156389850Y-66119665D01*
X156367671Y-66130155D01*
X156344572Y-66138420D01*
X156320773Y-66144381D01*
X156296505Y-66147981D01*
X156272001Y-66149185D01*
X155621999Y-66149185D01*
X155597495Y-66147981D01*
X155573227Y-66144381D01*
X155549428Y-66138420D01*
X155526329Y-66130155D01*
X155504150Y-66119665D01*
X155483107Y-66107053D01*
X155463401Y-66092438D01*
X155445223Y-66075962D01*
X155428747Y-66057784D01*
X155414132Y-66038078D01*
X155401520Y-66017035D01*
X155391030Y-65994856D01*
X155382765Y-65971757D01*
X155376804Y-65947958D01*
X155373204Y-65923690D01*
X155372000Y-65899186D01*
X155372000Y-64999184D01*
X155373204Y-64974680D01*
X155376804Y-64950412D01*
X155382765Y-64926613D01*
X155391030Y-64903514D01*
X155401520Y-64881335D01*
X155414132Y-64860292D01*
X155428747Y-64840586D01*
X155445223Y-64822408D01*
X155463401Y-64805932D01*
X155483107Y-64791317D01*
X155504150Y-64778705D01*
X155526329Y-64768215D01*
X155549428Y-64759950D01*
X155573227Y-64753989D01*
X155597495Y-64750389D01*
X155621999Y-64749185D01*
X156272001Y-64749185D01*
X156296505Y-64750389D01*
X156296505Y-64750389D01*
G37*
D11*
X155947000Y-65449185D03*
D10*
G36*
X158346505Y-64750389D02*
G01*
X158370773Y-64753989D01*
X158394572Y-64759950D01*
X158417671Y-64768215D01*
X158439850Y-64778705D01*
X158460893Y-64791317D01*
X158480599Y-64805932D01*
X158498777Y-64822408D01*
X158515253Y-64840586D01*
X158529868Y-64860292D01*
X158542480Y-64881335D01*
X158552970Y-64903514D01*
X158561235Y-64926613D01*
X158567196Y-64950412D01*
X158570796Y-64974680D01*
X158572000Y-64999184D01*
X158572000Y-65899186D01*
X158570796Y-65923690D01*
X158567196Y-65947958D01*
X158561235Y-65971757D01*
X158552970Y-65994856D01*
X158542480Y-66017035D01*
X158529868Y-66038078D01*
X158515253Y-66057784D01*
X158498777Y-66075962D01*
X158480599Y-66092438D01*
X158460893Y-66107053D01*
X158439850Y-66119665D01*
X158417671Y-66130155D01*
X158394572Y-66138420D01*
X158370773Y-66144381D01*
X158346505Y-66147981D01*
X158322001Y-66149185D01*
X157671999Y-66149185D01*
X157647495Y-66147981D01*
X157623227Y-66144381D01*
X157599428Y-66138420D01*
X157576329Y-66130155D01*
X157554150Y-66119665D01*
X157533107Y-66107053D01*
X157513401Y-66092438D01*
X157495223Y-66075962D01*
X157478747Y-66057784D01*
X157464132Y-66038078D01*
X157451520Y-66017035D01*
X157441030Y-65994856D01*
X157432765Y-65971757D01*
X157426804Y-65947958D01*
X157423204Y-65923690D01*
X157422000Y-65899186D01*
X157422000Y-64999184D01*
X157423204Y-64974680D01*
X157426804Y-64950412D01*
X157432765Y-64926613D01*
X157441030Y-64903514D01*
X157451520Y-64881335D01*
X157464132Y-64860292D01*
X157478747Y-64840586D01*
X157495223Y-64822408D01*
X157513401Y-64805932D01*
X157533107Y-64791317D01*
X157554150Y-64778705D01*
X157576329Y-64768215D01*
X157599428Y-64759950D01*
X157623227Y-64753989D01*
X157647495Y-64750389D01*
X157671999Y-64749185D01*
X158322001Y-64749185D01*
X158346505Y-64750389D01*
X158346505Y-64750389D01*
G37*
D11*
X157997000Y-65449185D03*
D10*
G36*
X140548505Y-60648574D02*
G01*
X140572773Y-60652174D01*
X140596572Y-60658135D01*
X140619671Y-60666400D01*
X140641850Y-60676890D01*
X140662893Y-60689502D01*
X140682599Y-60704117D01*
X140700777Y-60720593D01*
X140717253Y-60738771D01*
X140731868Y-60758477D01*
X140744480Y-60779520D01*
X140754970Y-60801699D01*
X140763235Y-60824798D01*
X140769196Y-60848597D01*
X140772796Y-60872865D01*
X140774000Y-60897369D01*
X140774000Y-61797371D01*
X140772796Y-61821875D01*
X140769196Y-61846143D01*
X140763235Y-61869942D01*
X140754970Y-61893041D01*
X140744480Y-61915220D01*
X140731868Y-61936263D01*
X140717253Y-61955969D01*
X140700777Y-61974147D01*
X140682599Y-61990623D01*
X140662893Y-62005238D01*
X140641850Y-62017850D01*
X140619671Y-62028340D01*
X140596572Y-62036605D01*
X140572773Y-62042566D01*
X140548505Y-62046166D01*
X140524001Y-62047370D01*
X139873999Y-62047370D01*
X139849495Y-62046166D01*
X139825227Y-62042566D01*
X139801428Y-62036605D01*
X139778329Y-62028340D01*
X139756150Y-62017850D01*
X139735107Y-62005238D01*
X139715401Y-61990623D01*
X139697223Y-61974147D01*
X139680747Y-61955969D01*
X139666132Y-61936263D01*
X139653520Y-61915220D01*
X139643030Y-61893041D01*
X139634765Y-61869942D01*
X139628804Y-61846143D01*
X139625204Y-61821875D01*
X139624000Y-61797371D01*
X139624000Y-60897369D01*
X139625204Y-60872865D01*
X139628804Y-60848597D01*
X139634765Y-60824798D01*
X139643030Y-60801699D01*
X139653520Y-60779520D01*
X139666132Y-60758477D01*
X139680747Y-60738771D01*
X139697223Y-60720593D01*
X139715401Y-60704117D01*
X139735107Y-60689502D01*
X139756150Y-60676890D01*
X139778329Y-60666400D01*
X139801428Y-60658135D01*
X139825227Y-60652174D01*
X139849495Y-60648574D01*
X139873999Y-60647370D01*
X140524001Y-60647370D01*
X140548505Y-60648574D01*
X140548505Y-60648574D01*
G37*
D11*
X140199000Y-61347370D03*
D10*
G36*
X142598505Y-60648574D02*
G01*
X142622773Y-60652174D01*
X142646572Y-60658135D01*
X142669671Y-60666400D01*
X142691850Y-60676890D01*
X142712893Y-60689502D01*
X142732599Y-60704117D01*
X142750777Y-60720593D01*
X142767253Y-60738771D01*
X142781868Y-60758477D01*
X142794480Y-60779520D01*
X142804970Y-60801699D01*
X142813235Y-60824798D01*
X142819196Y-60848597D01*
X142822796Y-60872865D01*
X142824000Y-60897369D01*
X142824000Y-61797371D01*
X142822796Y-61821875D01*
X142819196Y-61846143D01*
X142813235Y-61869942D01*
X142804970Y-61893041D01*
X142794480Y-61915220D01*
X142781868Y-61936263D01*
X142767253Y-61955969D01*
X142750777Y-61974147D01*
X142732599Y-61990623D01*
X142712893Y-62005238D01*
X142691850Y-62017850D01*
X142669671Y-62028340D01*
X142646572Y-62036605D01*
X142622773Y-62042566D01*
X142598505Y-62046166D01*
X142574001Y-62047370D01*
X141923999Y-62047370D01*
X141899495Y-62046166D01*
X141875227Y-62042566D01*
X141851428Y-62036605D01*
X141828329Y-62028340D01*
X141806150Y-62017850D01*
X141785107Y-62005238D01*
X141765401Y-61990623D01*
X141747223Y-61974147D01*
X141730747Y-61955969D01*
X141716132Y-61936263D01*
X141703520Y-61915220D01*
X141693030Y-61893041D01*
X141684765Y-61869942D01*
X141678804Y-61846143D01*
X141675204Y-61821875D01*
X141674000Y-61797371D01*
X141674000Y-60897369D01*
X141675204Y-60872865D01*
X141678804Y-60848597D01*
X141684765Y-60824798D01*
X141693030Y-60801699D01*
X141703520Y-60779520D01*
X141716132Y-60758477D01*
X141730747Y-60738771D01*
X141747223Y-60720593D01*
X141765401Y-60704117D01*
X141785107Y-60689502D01*
X141806150Y-60676890D01*
X141828329Y-60666400D01*
X141851428Y-60658135D01*
X141875227Y-60652174D01*
X141899495Y-60648574D01*
X141923999Y-60647370D01*
X142574001Y-60647370D01*
X142598505Y-60648574D01*
X142598505Y-60648574D01*
G37*
D11*
X142249000Y-61347370D03*
D10*
G36*
X145797838Y-60648574D02*
G01*
X145822106Y-60652174D01*
X145845905Y-60658135D01*
X145869004Y-60666400D01*
X145891183Y-60676890D01*
X145912226Y-60689502D01*
X145931932Y-60704117D01*
X145950110Y-60720593D01*
X145966586Y-60738771D01*
X145981201Y-60758477D01*
X145993813Y-60779520D01*
X146004303Y-60801699D01*
X146012568Y-60824798D01*
X146018529Y-60848597D01*
X146022129Y-60872865D01*
X146023333Y-60897369D01*
X146023333Y-61797371D01*
X146022129Y-61821875D01*
X146018529Y-61846143D01*
X146012568Y-61869942D01*
X146004303Y-61893041D01*
X145993813Y-61915220D01*
X145981201Y-61936263D01*
X145966586Y-61955969D01*
X145950110Y-61974147D01*
X145931932Y-61990623D01*
X145912226Y-62005238D01*
X145891183Y-62017850D01*
X145869004Y-62028340D01*
X145845905Y-62036605D01*
X145822106Y-62042566D01*
X145797838Y-62046166D01*
X145773334Y-62047370D01*
X145123332Y-62047370D01*
X145098828Y-62046166D01*
X145074560Y-62042566D01*
X145050761Y-62036605D01*
X145027662Y-62028340D01*
X145005483Y-62017850D01*
X144984440Y-62005238D01*
X144964734Y-61990623D01*
X144946556Y-61974147D01*
X144930080Y-61955969D01*
X144915465Y-61936263D01*
X144902853Y-61915220D01*
X144892363Y-61893041D01*
X144884098Y-61869942D01*
X144878137Y-61846143D01*
X144874537Y-61821875D01*
X144873333Y-61797371D01*
X144873333Y-60897369D01*
X144874537Y-60872865D01*
X144878137Y-60848597D01*
X144884098Y-60824798D01*
X144892363Y-60801699D01*
X144902853Y-60779520D01*
X144915465Y-60758477D01*
X144930080Y-60738771D01*
X144946556Y-60720593D01*
X144964734Y-60704117D01*
X144984440Y-60689502D01*
X145005483Y-60676890D01*
X145027662Y-60666400D01*
X145050761Y-60658135D01*
X145074560Y-60652174D01*
X145098828Y-60648574D01*
X145123332Y-60647370D01*
X145773334Y-60647370D01*
X145797838Y-60648574D01*
X145797838Y-60648574D01*
G37*
D11*
X145448333Y-61347370D03*
D10*
G36*
X147847838Y-60648574D02*
G01*
X147872106Y-60652174D01*
X147895905Y-60658135D01*
X147919004Y-60666400D01*
X147941183Y-60676890D01*
X147962226Y-60689502D01*
X147981932Y-60704117D01*
X148000110Y-60720593D01*
X148016586Y-60738771D01*
X148031201Y-60758477D01*
X148043813Y-60779520D01*
X148054303Y-60801699D01*
X148062568Y-60824798D01*
X148068529Y-60848597D01*
X148072129Y-60872865D01*
X148073333Y-60897369D01*
X148073333Y-61797371D01*
X148072129Y-61821875D01*
X148068529Y-61846143D01*
X148062568Y-61869942D01*
X148054303Y-61893041D01*
X148043813Y-61915220D01*
X148031201Y-61936263D01*
X148016586Y-61955969D01*
X148000110Y-61974147D01*
X147981932Y-61990623D01*
X147962226Y-62005238D01*
X147941183Y-62017850D01*
X147919004Y-62028340D01*
X147895905Y-62036605D01*
X147872106Y-62042566D01*
X147847838Y-62046166D01*
X147823334Y-62047370D01*
X147173332Y-62047370D01*
X147148828Y-62046166D01*
X147124560Y-62042566D01*
X147100761Y-62036605D01*
X147077662Y-62028340D01*
X147055483Y-62017850D01*
X147034440Y-62005238D01*
X147014734Y-61990623D01*
X146996556Y-61974147D01*
X146980080Y-61955969D01*
X146965465Y-61936263D01*
X146952853Y-61915220D01*
X146942363Y-61893041D01*
X146934098Y-61869942D01*
X146928137Y-61846143D01*
X146924537Y-61821875D01*
X146923333Y-61797371D01*
X146923333Y-60897369D01*
X146924537Y-60872865D01*
X146928137Y-60848597D01*
X146934098Y-60824798D01*
X146942363Y-60801699D01*
X146952853Y-60779520D01*
X146965465Y-60758477D01*
X146980080Y-60738771D01*
X146996556Y-60720593D01*
X147014734Y-60704117D01*
X147034440Y-60689502D01*
X147055483Y-60676890D01*
X147077662Y-60666400D01*
X147100761Y-60658135D01*
X147124560Y-60652174D01*
X147148828Y-60648574D01*
X147173332Y-60647370D01*
X147823334Y-60647370D01*
X147847838Y-60648574D01*
X147847838Y-60648574D01*
G37*
D11*
X147498333Y-61347370D03*
D10*
G36*
X151047171Y-60648574D02*
G01*
X151071439Y-60652174D01*
X151095238Y-60658135D01*
X151118337Y-60666400D01*
X151140516Y-60676890D01*
X151161559Y-60689502D01*
X151181265Y-60704117D01*
X151199443Y-60720593D01*
X151215919Y-60738771D01*
X151230534Y-60758477D01*
X151243146Y-60779520D01*
X151253636Y-60801699D01*
X151261901Y-60824798D01*
X151267862Y-60848597D01*
X151271462Y-60872865D01*
X151272666Y-60897369D01*
X151272666Y-61797371D01*
X151271462Y-61821875D01*
X151267862Y-61846143D01*
X151261901Y-61869942D01*
X151253636Y-61893041D01*
X151243146Y-61915220D01*
X151230534Y-61936263D01*
X151215919Y-61955969D01*
X151199443Y-61974147D01*
X151181265Y-61990623D01*
X151161559Y-62005238D01*
X151140516Y-62017850D01*
X151118337Y-62028340D01*
X151095238Y-62036605D01*
X151071439Y-62042566D01*
X151047171Y-62046166D01*
X151022667Y-62047370D01*
X150372665Y-62047370D01*
X150348161Y-62046166D01*
X150323893Y-62042566D01*
X150300094Y-62036605D01*
X150276995Y-62028340D01*
X150254816Y-62017850D01*
X150233773Y-62005238D01*
X150214067Y-61990623D01*
X150195889Y-61974147D01*
X150179413Y-61955969D01*
X150164798Y-61936263D01*
X150152186Y-61915220D01*
X150141696Y-61893041D01*
X150133431Y-61869942D01*
X150127470Y-61846143D01*
X150123870Y-61821875D01*
X150122666Y-61797371D01*
X150122666Y-60897369D01*
X150123870Y-60872865D01*
X150127470Y-60848597D01*
X150133431Y-60824798D01*
X150141696Y-60801699D01*
X150152186Y-60779520D01*
X150164798Y-60758477D01*
X150179413Y-60738771D01*
X150195889Y-60720593D01*
X150214067Y-60704117D01*
X150233773Y-60689502D01*
X150254816Y-60676890D01*
X150276995Y-60666400D01*
X150300094Y-60658135D01*
X150323893Y-60652174D01*
X150348161Y-60648574D01*
X150372665Y-60647370D01*
X151022667Y-60647370D01*
X151047171Y-60648574D01*
X151047171Y-60648574D01*
G37*
D11*
X150697666Y-61347370D03*
D10*
G36*
X153097171Y-60648574D02*
G01*
X153121439Y-60652174D01*
X153145238Y-60658135D01*
X153168337Y-60666400D01*
X153190516Y-60676890D01*
X153211559Y-60689502D01*
X153231265Y-60704117D01*
X153249443Y-60720593D01*
X153265919Y-60738771D01*
X153280534Y-60758477D01*
X153293146Y-60779520D01*
X153303636Y-60801699D01*
X153311901Y-60824798D01*
X153317862Y-60848597D01*
X153321462Y-60872865D01*
X153322666Y-60897369D01*
X153322666Y-61797371D01*
X153321462Y-61821875D01*
X153317862Y-61846143D01*
X153311901Y-61869942D01*
X153303636Y-61893041D01*
X153293146Y-61915220D01*
X153280534Y-61936263D01*
X153265919Y-61955969D01*
X153249443Y-61974147D01*
X153231265Y-61990623D01*
X153211559Y-62005238D01*
X153190516Y-62017850D01*
X153168337Y-62028340D01*
X153145238Y-62036605D01*
X153121439Y-62042566D01*
X153097171Y-62046166D01*
X153072667Y-62047370D01*
X152422665Y-62047370D01*
X152398161Y-62046166D01*
X152373893Y-62042566D01*
X152350094Y-62036605D01*
X152326995Y-62028340D01*
X152304816Y-62017850D01*
X152283773Y-62005238D01*
X152264067Y-61990623D01*
X152245889Y-61974147D01*
X152229413Y-61955969D01*
X152214798Y-61936263D01*
X152202186Y-61915220D01*
X152191696Y-61893041D01*
X152183431Y-61869942D01*
X152177470Y-61846143D01*
X152173870Y-61821875D01*
X152172666Y-61797371D01*
X152172666Y-60897369D01*
X152173870Y-60872865D01*
X152177470Y-60848597D01*
X152183431Y-60824798D01*
X152191696Y-60801699D01*
X152202186Y-60779520D01*
X152214798Y-60758477D01*
X152229413Y-60738771D01*
X152245889Y-60720593D01*
X152264067Y-60704117D01*
X152283773Y-60689502D01*
X152304816Y-60676890D01*
X152326995Y-60666400D01*
X152350094Y-60658135D01*
X152373893Y-60652174D01*
X152398161Y-60648574D01*
X152422665Y-60647370D01*
X153072667Y-60647370D01*
X153097171Y-60648574D01*
X153097171Y-60648574D01*
G37*
D11*
X152747666Y-61347370D03*
D10*
G36*
X156296505Y-60648574D02*
G01*
X156320773Y-60652174D01*
X156344572Y-60658135D01*
X156367671Y-60666400D01*
X156389850Y-60676890D01*
X156410893Y-60689502D01*
X156430599Y-60704117D01*
X156448777Y-60720593D01*
X156465253Y-60738771D01*
X156479868Y-60758477D01*
X156492480Y-60779520D01*
X156502970Y-60801699D01*
X156511235Y-60824798D01*
X156517196Y-60848597D01*
X156520796Y-60872865D01*
X156522000Y-60897369D01*
X156522000Y-61797371D01*
X156520796Y-61821875D01*
X156517196Y-61846143D01*
X156511235Y-61869942D01*
X156502970Y-61893041D01*
X156492480Y-61915220D01*
X156479868Y-61936263D01*
X156465253Y-61955969D01*
X156448777Y-61974147D01*
X156430599Y-61990623D01*
X156410893Y-62005238D01*
X156389850Y-62017850D01*
X156367671Y-62028340D01*
X156344572Y-62036605D01*
X156320773Y-62042566D01*
X156296505Y-62046166D01*
X156272001Y-62047370D01*
X155621999Y-62047370D01*
X155597495Y-62046166D01*
X155573227Y-62042566D01*
X155549428Y-62036605D01*
X155526329Y-62028340D01*
X155504150Y-62017850D01*
X155483107Y-62005238D01*
X155463401Y-61990623D01*
X155445223Y-61974147D01*
X155428747Y-61955969D01*
X155414132Y-61936263D01*
X155401520Y-61915220D01*
X155391030Y-61893041D01*
X155382765Y-61869942D01*
X155376804Y-61846143D01*
X155373204Y-61821875D01*
X155372000Y-61797371D01*
X155372000Y-60897369D01*
X155373204Y-60872865D01*
X155376804Y-60848597D01*
X155382765Y-60824798D01*
X155391030Y-60801699D01*
X155401520Y-60779520D01*
X155414132Y-60758477D01*
X155428747Y-60738771D01*
X155445223Y-60720593D01*
X155463401Y-60704117D01*
X155483107Y-60689502D01*
X155504150Y-60676890D01*
X155526329Y-60666400D01*
X155549428Y-60658135D01*
X155573227Y-60652174D01*
X155597495Y-60648574D01*
X155621999Y-60647370D01*
X156272001Y-60647370D01*
X156296505Y-60648574D01*
X156296505Y-60648574D01*
G37*
D11*
X155947000Y-61347370D03*
D10*
G36*
X158346505Y-60648574D02*
G01*
X158370773Y-60652174D01*
X158394572Y-60658135D01*
X158417671Y-60666400D01*
X158439850Y-60676890D01*
X158460893Y-60689502D01*
X158480599Y-60704117D01*
X158498777Y-60720593D01*
X158515253Y-60738771D01*
X158529868Y-60758477D01*
X158542480Y-60779520D01*
X158552970Y-60801699D01*
X158561235Y-60824798D01*
X158567196Y-60848597D01*
X158570796Y-60872865D01*
X158572000Y-60897369D01*
X158572000Y-61797371D01*
X158570796Y-61821875D01*
X158567196Y-61846143D01*
X158561235Y-61869942D01*
X158552970Y-61893041D01*
X158542480Y-61915220D01*
X158529868Y-61936263D01*
X158515253Y-61955969D01*
X158498777Y-61974147D01*
X158480599Y-61990623D01*
X158460893Y-62005238D01*
X158439850Y-62017850D01*
X158417671Y-62028340D01*
X158394572Y-62036605D01*
X158370773Y-62042566D01*
X158346505Y-62046166D01*
X158322001Y-62047370D01*
X157671999Y-62047370D01*
X157647495Y-62046166D01*
X157623227Y-62042566D01*
X157599428Y-62036605D01*
X157576329Y-62028340D01*
X157554150Y-62017850D01*
X157533107Y-62005238D01*
X157513401Y-61990623D01*
X157495223Y-61974147D01*
X157478747Y-61955969D01*
X157464132Y-61936263D01*
X157451520Y-61915220D01*
X157441030Y-61893041D01*
X157432765Y-61869942D01*
X157426804Y-61846143D01*
X157423204Y-61821875D01*
X157422000Y-61797371D01*
X157422000Y-60897369D01*
X157423204Y-60872865D01*
X157426804Y-60848597D01*
X157432765Y-60824798D01*
X157441030Y-60801699D01*
X157451520Y-60779520D01*
X157464132Y-60758477D01*
X157478747Y-60738771D01*
X157495223Y-60720593D01*
X157513401Y-60704117D01*
X157533107Y-60689502D01*
X157554150Y-60676890D01*
X157576329Y-60666400D01*
X157599428Y-60658135D01*
X157623227Y-60652174D01*
X157647495Y-60648574D01*
X157671999Y-60647370D01*
X158322001Y-60647370D01*
X158346505Y-60648574D01*
X158346505Y-60648574D01*
G37*
D11*
X157997000Y-61347370D03*
D10*
G36*
X89258505Y-64460388D02*
G01*
X89282773Y-64463988D01*
X89306572Y-64469949D01*
X89329671Y-64478214D01*
X89351850Y-64488704D01*
X89372893Y-64501316D01*
X89392599Y-64515931D01*
X89410777Y-64532407D01*
X89427253Y-64550585D01*
X89441868Y-64570291D01*
X89454480Y-64591334D01*
X89464970Y-64613513D01*
X89473235Y-64636612D01*
X89479196Y-64660411D01*
X89482796Y-64684679D01*
X89484000Y-64709183D01*
X89484000Y-65609185D01*
X89482796Y-65633689D01*
X89479196Y-65657957D01*
X89473235Y-65681756D01*
X89464970Y-65704855D01*
X89454480Y-65727034D01*
X89441868Y-65748077D01*
X89427253Y-65767783D01*
X89410777Y-65785961D01*
X89392599Y-65802437D01*
X89372893Y-65817052D01*
X89351850Y-65829664D01*
X89329671Y-65840154D01*
X89306572Y-65848419D01*
X89282773Y-65854380D01*
X89258505Y-65857980D01*
X89234001Y-65859184D01*
X88583999Y-65859184D01*
X88559495Y-65857980D01*
X88535227Y-65854380D01*
X88511428Y-65848419D01*
X88488329Y-65840154D01*
X88466150Y-65829664D01*
X88445107Y-65817052D01*
X88425401Y-65802437D01*
X88407223Y-65785961D01*
X88390747Y-65767783D01*
X88376132Y-65748077D01*
X88363520Y-65727034D01*
X88353030Y-65704855D01*
X88344765Y-65681756D01*
X88338804Y-65657957D01*
X88335204Y-65633689D01*
X88334000Y-65609185D01*
X88334000Y-64709183D01*
X88335204Y-64684679D01*
X88338804Y-64660411D01*
X88344765Y-64636612D01*
X88353030Y-64613513D01*
X88363520Y-64591334D01*
X88376132Y-64570291D01*
X88390747Y-64550585D01*
X88407223Y-64532407D01*
X88425401Y-64515931D01*
X88445107Y-64501316D01*
X88466150Y-64488704D01*
X88488329Y-64478214D01*
X88511428Y-64469949D01*
X88535227Y-64463988D01*
X88559495Y-64460388D01*
X88583999Y-64459184D01*
X89234001Y-64459184D01*
X89258505Y-64460388D01*
X89258505Y-64460388D01*
G37*
D11*
X88909000Y-65159184D03*
D10*
G36*
X87208505Y-64460388D02*
G01*
X87232773Y-64463988D01*
X87256572Y-64469949D01*
X87279671Y-64478214D01*
X87301850Y-64488704D01*
X87322893Y-64501316D01*
X87342599Y-64515931D01*
X87360777Y-64532407D01*
X87377253Y-64550585D01*
X87391868Y-64570291D01*
X87404480Y-64591334D01*
X87414970Y-64613513D01*
X87423235Y-64636612D01*
X87429196Y-64660411D01*
X87432796Y-64684679D01*
X87434000Y-64709183D01*
X87434000Y-65609185D01*
X87432796Y-65633689D01*
X87429196Y-65657957D01*
X87423235Y-65681756D01*
X87414970Y-65704855D01*
X87404480Y-65727034D01*
X87391868Y-65748077D01*
X87377253Y-65767783D01*
X87360777Y-65785961D01*
X87342599Y-65802437D01*
X87322893Y-65817052D01*
X87301850Y-65829664D01*
X87279671Y-65840154D01*
X87256572Y-65848419D01*
X87232773Y-65854380D01*
X87208505Y-65857980D01*
X87184001Y-65859184D01*
X86533999Y-65859184D01*
X86509495Y-65857980D01*
X86485227Y-65854380D01*
X86461428Y-65848419D01*
X86438329Y-65840154D01*
X86416150Y-65829664D01*
X86395107Y-65817052D01*
X86375401Y-65802437D01*
X86357223Y-65785961D01*
X86340747Y-65767783D01*
X86326132Y-65748077D01*
X86313520Y-65727034D01*
X86303030Y-65704855D01*
X86294765Y-65681756D01*
X86288804Y-65657957D01*
X86285204Y-65633689D01*
X86284000Y-65609185D01*
X86284000Y-64709183D01*
X86285204Y-64684679D01*
X86288804Y-64660411D01*
X86294765Y-64636612D01*
X86303030Y-64613513D01*
X86313520Y-64591334D01*
X86326132Y-64570291D01*
X86340747Y-64550585D01*
X86357223Y-64532407D01*
X86375401Y-64515931D01*
X86395107Y-64501316D01*
X86416150Y-64488704D01*
X86438329Y-64478214D01*
X86461428Y-64469949D01*
X86485227Y-64463988D01*
X86509495Y-64460388D01*
X86533999Y-64459184D01*
X87184001Y-64459184D01*
X87208505Y-64460388D01*
X87208505Y-64460388D01*
G37*
D11*
X86859000Y-65159184D03*
D10*
G36*
X94338505Y-64460388D02*
G01*
X94362773Y-64463988D01*
X94386572Y-64469949D01*
X94409671Y-64478214D01*
X94431850Y-64488704D01*
X94452893Y-64501316D01*
X94472599Y-64515931D01*
X94490777Y-64532407D01*
X94507253Y-64550585D01*
X94521868Y-64570291D01*
X94534480Y-64591334D01*
X94544970Y-64613513D01*
X94553235Y-64636612D01*
X94559196Y-64660411D01*
X94562796Y-64684679D01*
X94564000Y-64709183D01*
X94564000Y-65609185D01*
X94562796Y-65633689D01*
X94559196Y-65657957D01*
X94553235Y-65681756D01*
X94544970Y-65704855D01*
X94534480Y-65727034D01*
X94521868Y-65748077D01*
X94507253Y-65767783D01*
X94490777Y-65785961D01*
X94472599Y-65802437D01*
X94452893Y-65817052D01*
X94431850Y-65829664D01*
X94409671Y-65840154D01*
X94386572Y-65848419D01*
X94362773Y-65854380D01*
X94338505Y-65857980D01*
X94314001Y-65859184D01*
X93663999Y-65859184D01*
X93639495Y-65857980D01*
X93615227Y-65854380D01*
X93591428Y-65848419D01*
X93568329Y-65840154D01*
X93546150Y-65829664D01*
X93525107Y-65817052D01*
X93505401Y-65802437D01*
X93487223Y-65785961D01*
X93470747Y-65767783D01*
X93456132Y-65748077D01*
X93443520Y-65727034D01*
X93433030Y-65704855D01*
X93424765Y-65681756D01*
X93418804Y-65657957D01*
X93415204Y-65633689D01*
X93414000Y-65609185D01*
X93414000Y-64709183D01*
X93415204Y-64684679D01*
X93418804Y-64660411D01*
X93424765Y-64636612D01*
X93433030Y-64613513D01*
X93443520Y-64591334D01*
X93456132Y-64570291D01*
X93470747Y-64550585D01*
X93487223Y-64532407D01*
X93505401Y-64515931D01*
X93525107Y-64501316D01*
X93546150Y-64488704D01*
X93568329Y-64478214D01*
X93591428Y-64469949D01*
X93615227Y-64463988D01*
X93639495Y-64460388D01*
X93663999Y-64459184D01*
X94314001Y-64459184D01*
X94338505Y-64460388D01*
X94338505Y-64460388D01*
G37*
D11*
X93989000Y-65159184D03*
D10*
G36*
X92288505Y-64460388D02*
G01*
X92312773Y-64463988D01*
X92336572Y-64469949D01*
X92359671Y-64478214D01*
X92381850Y-64488704D01*
X92402893Y-64501316D01*
X92422599Y-64515931D01*
X92440777Y-64532407D01*
X92457253Y-64550585D01*
X92471868Y-64570291D01*
X92484480Y-64591334D01*
X92494970Y-64613513D01*
X92503235Y-64636612D01*
X92509196Y-64660411D01*
X92512796Y-64684679D01*
X92514000Y-64709183D01*
X92514000Y-65609185D01*
X92512796Y-65633689D01*
X92509196Y-65657957D01*
X92503235Y-65681756D01*
X92494970Y-65704855D01*
X92484480Y-65727034D01*
X92471868Y-65748077D01*
X92457253Y-65767783D01*
X92440777Y-65785961D01*
X92422599Y-65802437D01*
X92402893Y-65817052D01*
X92381850Y-65829664D01*
X92359671Y-65840154D01*
X92336572Y-65848419D01*
X92312773Y-65854380D01*
X92288505Y-65857980D01*
X92264001Y-65859184D01*
X91613999Y-65859184D01*
X91589495Y-65857980D01*
X91565227Y-65854380D01*
X91541428Y-65848419D01*
X91518329Y-65840154D01*
X91496150Y-65829664D01*
X91475107Y-65817052D01*
X91455401Y-65802437D01*
X91437223Y-65785961D01*
X91420747Y-65767783D01*
X91406132Y-65748077D01*
X91393520Y-65727034D01*
X91383030Y-65704855D01*
X91374765Y-65681756D01*
X91368804Y-65657957D01*
X91365204Y-65633689D01*
X91364000Y-65609185D01*
X91364000Y-64709183D01*
X91365204Y-64684679D01*
X91368804Y-64660411D01*
X91374765Y-64636612D01*
X91383030Y-64613513D01*
X91393520Y-64591334D01*
X91406132Y-64570291D01*
X91420747Y-64550585D01*
X91437223Y-64532407D01*
X91455401Y-64515931D01*
X91475107Y-64501316D01*
X91496150Y-64488704D01*
X91518329Y-64478214D01*
X91541428Y-64469949D01*
X91565227Y-64463988D01*
X91589495Y-64460388D01*
X91613999Y-64459184D01*
X92264001Y-64459184D01*
X92288505Y-64460388D01*
X92288505Y-64460388D01*
G37*
D11*
X91939000Y-65159184D03*
D10*
G36*
X99418505Y-64460388D02*
G01*
X99442773Y-64463988D01*
X99466572Y-64469949D01*
X99489671Y-64478214D01*
X99511850Y-64488704D01*
X99532893Y-64501316D01*
X99552599Y-64515931D01*
X99570777Y-64532407D01*
X99587253Y-64550585D01*
X99601868Y-64570291D01*
X99614480Y-64591334D01*
X99624970Y-64613513D01*
X99633235Y-64636612D01*
X99639196Y-64660411D01*
X99642796Y-64684679D01*
X99644000Y-64709183D01*
X99644000Y-65609185D01*
X99642796Y-65633689D01*
X99639196Y-65657957D01*
X99633235Y-65681756D01*
X99624970Y-65704855D01*
X99614480Y-65727034D01*
X99601868Y-65748077D01*
X99587253Y-65767783D01*
X99570777Y-65785961D01*
X99552599Y-65802437D01*
X99532893Y-65817052D01*
X99511850Y-65829664D01*
X99489671Y-65840154D01*
X99466572Y-65848419D01*
X99442773Y-65854380D01*
X99418505Y-65857980D01*
X99394001Y-65859184D01*
X98743999Y-65859184D01*
X98719495Y-65857980D01*
X98695227Y-65854380D01*
X98671428Y-65848419D01*
X98648329Y-65840154D01*
X98626150Y-65829664D01*
X98605107Y-65817052D01*
X98585401Y-65802437D01*
X98567223Y-65785961D01*
X98550747Y-65767783D01*
X98536132Y-65748077D01*
X98523520Y-65727034D01*
X98513030Y-65704855D01*
X98504765Y-65681756D01*
X98498804Y-65657957D01*
X98495204Y-65633689D01*
X98494000Y-65609185D01*
X98494000Y-64709183D01*
X98495204Y-64684679D01*
X98498804Y-64660411D01*
X98504765Y-64636612D01*
X98513030Y-64613513D01*
X98523520Y-64591334D01*
X98536132Y-64570291D01*
X98550747Y-64550585D01*
X98567223Y-64532407D01*
X98585401Y-64515931D01*
X98605107Y-64501316D01*
X98626150Y-64488704D01*
X98648329Y-64478214D01*
X98671428Y-64469949D01*
X98695227Y-64463988D01*
X98719495Y-64460388D01*
X98743999Y-64459184D01*
X99394001Y-64459184D01*
X99418505Y-64460388D01*
X99418505Y-64460388D01*
G37*
D11*
X99069000Y-65159184D03*
D10*
G36*
X97368505Y-64460388D02*
G01*
X97392773Y-64463988D01*
X97416572Y-64469949D01*
X97439671Y-64478214D01*
X97461850Y-64488704D01*
X97482893Y-64501316D01*
X97502599Y-64515931D01*
X97520777Y-64532407D01*
X97537253Y-64550585D01*
X97551868Y-64570291D01*
X97564480Y-64591334D01*
X97574970Y-64613513D01*
X97583235Y-64636612D01*
X97589196Y-64660411D01*
X97592796Y-64684679D01*
X97594000Y-64709183D01*
X97594000Y-65609185D01*
X97592796Y-65633689D01*
X97589196Y-65657957D01*
X97583235Y-65681756D01*
X97574970Y-65704855D01*
X97564480Y-65727034D01*
X97551868Y-65748077D01*
X97537253Y-65767783D01*
X97520777Y-65785961D01*
X97502599Y-65802437D01*
X97482893Y-65817052D01*
X97461850Y-65829664D01*
X97439671Y-65840154D01*
X97416572Y-65848419D01*
X97392773Y-65854380D01*
X97368505Y-65857980D01*
X97344001Y-65859184D01*
X96693999Y-65859184D01*
X96669495Y-65857980D01*
X96645227Y-65854380D01*
X96621428Y-65848419D01*
X96598329Y-65840154D01*
X96576150Y-65829664D01*
X96555107Y-65817052D01*
X96535401Y-65802437D01*
X96517223Y-65785961D01*
X96500747Y-65767783D01*
X96486132Y-65748077D01*
X96473520Y-65727034D01*
X96463030Y-65704855D01*
X96454765Y-65681756D01*
X96448804Y-65657957D01*
X96445204Y-65633689D01*
X96444000Y-65609185D01*
X96444000Y-64709183D01*
X96445204Y-64684679D01*
X96448804Y-64660411D01*
X96454765Y-64636612D01*
X96463030Y-64613513D01*
X96473520Y-64591334D01*
X96486132Y-64570291D01*
X96500747Y-64550585D01*
X96517223Y-64532407D01*
X96535401Y-64515931D01*
X96555107Y-64501316D01*
X96576150Y-64488704D01*
X96598329Y-64478214D01*
X96621428Y-64469949D01*
X96645227Y-64463988D01*
X96669495Y-64460388D01*
X96693999Y-64459184D01*
X97344001Y-64459184D01*
X97368505Y-64460388D01*
X97368505Y-64460388D01*
G37*
D11*
X97019000Y-65159184D03*
D10*
G36*
X104498505Y-64460388D02*
G01*
X104522773Y-64463988D01*
X104546572Y-64469949D01*
X104569671Y-64478214D01*
X104591850Y-64488704D01*
X104612893Y-64501316D01*
X104632599Y-64515931D01*
X104650777Y-64532407D01*
X104667253Y-64550585D01*
X104681868Y-64570291D01*
X104694480Y-64591334D01*
X104704970Y-64613513D01*
X104713235Y-64636612D01*
X104719196Y-64660411D01*
X104722796Y-64684679D01*
X104724000Y-64709183D01*
X104724000Y-65609185D01*
X104722796Y-65633689D01*
X104719196Y-65657957D01*
X104713235Y-65681756D01*
X104704970Y-65704855D01*
X104694480Y-65727034D01*
X104681868Y-65748077D01*
X104667253Y-65767783D01*
X104650777Y-65785961D01*
X104632599Y-65802437D01*
X104612893Y-65817052D01*
X104591850Y-65829664D01*
X104569671Y-65840154D01*
X104546572Y-65848419D01*
X104522773Y-65854380D01*
X104498505Y-65857980D01*
X104474001Y-65859184D01*
X103823999Y-65859184D01*
X103799495Y-65857980D01*
X103775227Y-65854380D01*
X103751428Y-65848419D01*
X103728329Y-65840154D01*
X103706150Y-65829664D01*
X103685107Y-65817052D01*
X103665401Y-65802437D01*
X103647223Y-65785961D01*
X103630747Y-65767783D01*
X103616132Y-65748077D01*
X103603520Y-65727034D01*
X103593030Y-65704855D01*
X103584765Y-65681756D01*
X103578804Y-65657957D01*
X103575204Y-65633689D01*
X103574000Y-65609185D01*
X103574000Y-64709183D01*
X103575204Y-64684679D01*
X103578804Y-64660411D01*
X103584765Y-64636612D01*
X103593030Y-64613513D01*
X103603520Y-64591334D01*
X103616132Y-64570291D01*
X103630747Y-64550585D01*
X103647223Y-64532407D01*
X103665401Y-64515931D01*
X103685107Y-64501316D01*
X103706150Y-64488704D01*
X103728329Y-64478214D01*
X103751428Y-64469949D01*
X103775227Y-64463988D01*
X103799495Y-64460388D01*
X103823999Y-64459184D01*
X104474001Y-64459184D01*
X104498505Y-64460388D01*
X104498505Y-64460388D01*
G37*
D11*
X104149000Y-65159184D03*
D10*
G36*
X102448505Y-64460388D02*
G01*
X102472773Y-64463988D01*
X102496572Y-64469949D01*
X102519671Y-64478214D01*
X102541850Y-64488704D01*
X102562893Y-64501316D01*
X102582599Y-64515931D01*
X102600777Y-64532407D01*
X102617253Y-64550585D01*
X102631868Y-64570291D01*
X102644480Y-64591334D01*
X102654970Y-64613513D01*
X102663235Y-64636612D01*
X102669196Y-64660411D01*
X102672796Y-64684679D01*
X102674000Y-64709183D01*
X102674000Y-65609185D01*
X102672796Y-65633689D01*
X102669196Y-65657957D01*
X102663235Y-65681756D01*
X102654970Y-65704855D01*
X102644480Y-65727034D01*
X102631868Y-65748077D01*
X102617253Y-65767783D01*
X102600777Y-65785961D01*
X102582599Y-65802437D01*
X102562893Y-65817052D01*
X102541850Y-65829664D01*
X102519671Y-65840154D01*
X102496572Y-65848419D01*
X102472773Y-65854380D01*
X102448505Y-65857980D01*
X102424001Y-65859184D01*
X101773999Y-65859184D01*
X101749495Y-65857980D01*
X101725227Y-65854380D01*
X101701428Y-65848419D01*
X101678329Y-65840154D01*
X101656150Y-65829664D01*
X101635107Y-65817052D01*
X101615401Y-65802437D01*
X101597223Y-65785961D01*
X101580747Y-65767783D01*
X101566132Y-65748077D01*
X101553520Y-65727034D01*
X101543030Y-65704855D01*
X101534765Y-65681756D01*
X101528804Y-65657957D01*
X101525204Y-65633689D01*
X101524000Y-65609185D01*
X101524000Y-64709183D01*
X101525204Y-64684679D01*
X101528804Y-64660411D01*
X101534765Y-64636612D01*
X101543030Y-64613513D01*
X101553520Y-64591334D01*
X101566132Y-64570291D01*
X101580747Y-64550585D01*
X101597223Y-64532407D01*
X101615401Y-64515931D01*
X101635107Y-64501316D01*
X101656150Y-64488704D01*
X101678329Y-64478214D01*
X101701428Y-64469949D01*
X101725227Y-64463988D01*
X101749495Y-64460388D01*
X101773999Y-64459184D01*
X102424001Y-64459184D01*
X102448505Y-64460388D01*
X102448505Y-64460388D01*
G37*
D11*
X102099000Y-65159184D03*
D10*
G36*
X89258505Y-60648574D02*
G01*
X89282773Y-60652174D01*
X89306572Y-60658135D01*
X89329671Y-60666400D01*
X89351850Y-60676890D01*
X89372893Y-60689502D01*
X89392599Y-60704117D01*
X89410777Y-60720593D01*
X89427253Y-60738771D01*
X89441868Y-60758477D01*
X89454480Y-60779520D01*
X89464970Y-60801699D01*
X89473235Y-60824798D01*
X89479196Y-60848597D01*
X89482796Y-60872865D01*
X89484000Y-60897369D01*
X89484000Y-61797371D01*
X89482796Y-61821875D01*
X89479196Y-61846143D01*
X89473235Y-61869942D01*
X89464970Y-61893041D01*
X89454480Y-61915220D01*
X89441868Y-61936263D01*
X89427253Y-61955969D01*
X89410777Y-61974147D01*
X89392599Y-61990623D01*
X89372893Y-62005238D01*
X89351850Y-62017850D01*
X89329671Y-62028340D01*
X89306572Y-62036605D01*
X89282773Y-62042566D01*
X89258505Y-62046166D01*
X89234001Y-62047370D01*
X88583999Y-62047370D01*
X88559495Y-62046166D01*
X88535227Y-62042566D01*
X88511428Y-62036605D01*
X88488329Y-62028340D01*
X88466150Y-62017850D01*
X88445107Y-62005238D01*
X88425401Y-61990623D01*
X88407223Y-61974147D01*
X88390747Y-61955969D01*
X88376132Y-61936263D01*
X88363520Y-61915220D01*
X88353030Y-61893041D01*
X88344765Y-61869942D01*
X88338804Y-61846143D01*
X88335204Y-61821875D01*
X88334000Y-61797371D01*
X88334000Y-60897369D01*
X88335204Y-60872865D01*
X88338804Y-60848597D01*
X88344765Y-60824798D01*
X88353030Y-60801699D01*
X88363520Y-60779520D01*
X88376132Y-60758477D01*
X88390747Y-60738771D01*
X88407223Y-60720593D01*
X88425401Y-60704117D01*
X88445107Y-60689502D01*
X88466150Y-60676890D01*
X88488329Y-60666400D01*
X88511428Y-60658135D01*
X88535227Y-60652174D01*
X88559495Y-60648574D01*
X88583999Y-60647370D01*
X89234001Y-60647370D01*
X89258505Y-60648574D01*
X89258505Y-60648574D01*
G37*
D11*
X88909000Y-61347370D03*
D10*
G36*
X87208505Y-60648574D02*
G01*
X87232773Y-60652174D01*
X87256572Y-60658135D01*
X87279671Y-60666400D01*
X87301850Y-60676890D01*
X87322893Y-60689502D01*
X87342599Y-60704117D01*
X87360777Y-60720593D01*
X87377253Y-60738771D01*
X87391868Y-60758477D01*
X87404480Y-60779520D01*
X87414970Y-60801699D01*
X87423235Y-60824798D01*
X87429196Y-60848597D01*
X87432796Y-60872865D01*
X87434000Y-60897369D01*
X87434000Y-61797371D01*
X87432796Y-61821875D01*
X87429196Y-61846143D01*
X87423235Y-61869942D01*
X87414970Y-61893041D01*
X87404480Y-61915220D01*
X87391868Y-61936263D01*
X87377253Y-61955969D01*
X87360777Y-61974147D01*
X87342599Y-61990623D01*
X87322893Y-62005238D01*
X87301850Y-62017850D01*
X87279671Y-62028340D01*
X87256572Y-62036605D01*
X87232773Y-62042566D01*
X87208505Y-62046166D01*
X87184001Y-62047370D01*
X86533999Y-62047370D01*
X86509495Y-62046166D01*
X86485227Y-62042566D01*
X86461428Y-62036605D01*
X86438329Y-62028340D01*
X86416150Y-62017850D01*
X86395107Y-62005238D01*
X86375401Y-61990623D01*
X86357223Y-61974147D01*
X86340747Y-61955969D01*
X86326132Y-61936263D01*
X86313520Y-61915220D01*
X86303030Y-61893041D01*
X86294765Y-61869942D01*
X86288804Y-61846143D01*
X86285204Y-61821875D01*
X86284000Y-61797371D01*
X86284000Y-60897369D01*
X86285204Y-60872865D01*
X86288804Y-60848597D01*
X86294765Y-60824798D01*
X86303030Y-60801699D01*
X86313520Y-60779520D01*
X86326132Y-60758477D01*
X86340747Y-60738771D01*
X86357223Y-60720593D01*
X86375401Y-60704117D01*
X86395107Y-60689502D01*
X86416150Y-60676890D01*
X86438329Y-60666400D01*
X86461428Y-60658135D01*
X86485227Y-60652174D01*
X86509495Y-60648574D01*
X86533999Y-60647370D01*
X87184001Y-60647370D01*
X87208505Y-60648574D01*
X87208505Y-60648574D01*
G37*
D11*
X86859000Y-61347370D03*
D10*
G36*
X94338505Y-60648574D02*
G01*
X94362773Y-60652174D01*
X94386572Y-60658135D01*
X94409671Y-60666400D01*
X94431850Y-60676890D01*
X94452893Y-60689502D01*
X94472599Y-60704117D01*
X94490777Y-60720593D01*
X94507253Y-60738771D01*
X94521868Y-60758477D01*
X94534480Y-60779520D01*
X94544970Y-60801699D01*
X94553235Y-60824798D01*
X94559196Y-60848597D01*
X94562796Y-60872865D01*
X94564000Y-60897369D01*
X94564000Y-61797371D01*
X94562796Y-61821875D01*
X94559196Y-61846143D01*
X94553235Y-61869942D01*
X94544970Y-61893041D01*
X94534480Y-61915220D01*
X94521868Y-61936263D01*
X94507253Y-61955969D01*
X94490777Y-61974147D01*
X94472599Y-61990623D01*
X94452893Y-62005238D01*
X94431850Y-62017850D01*
X94409671Y-62028340D01*
X94386572Y-62036605D01*
X94362773Y-62042566D01*
X94338505Y-62046166D01*
X94314001Y-62047370D01*
X93663999Y-62047370D01*
X93639495Y-62046166D01*
X93615227Y-62042566D01*
X93591428Y-62036605D01*
X93568329Y-62028340D01*
X93546150Y-62017850D01*
X93525107Y-62005238D01*
X93505401Y-61990623D01*
X93487223Y-61974147D01*
X93470747Y-61955969D01*
X93456132Y-61936263D01*
X93443520Y-61915220D01*
X93433030Y-61893041D01*
X93424765Y-61869942D01*
X93418804Y-61846143D01*
X93415204Y-61821875D01*
X93414000Y-61797371D01*
X93414000Y-60897369D01*
X93415204Y-60872865D01*
X93418804Y-60848597D01*
X93424765Y-60824798D01*
X93433030Y-60801699D01*
X93443520Y-60779520D01*
X93456132Y-60758477D01*
X93470747Y-60738771D01*
X93487223Y-60720593D01*
X93505401Y-60704117D01*
X93525107Y-60689502D01*
X93546150Y-60676890D01*
X93568329Y-60666400D01*
X93591428Y-60658135D01*
X93615227Y-60652174D01*
X93639495Y-60648574D01*
X93663999Y-60647370D01*
X94314001Y-60647370D01*
X94338505Y-60648574D01*
X94338505Y-60648574D01*
G37*
D11*
X93989000Y-61347370D03*
D10*
G36*
X92288505Y-60648574D02*
G01*
X92312773Y-60652174D01*
X92336572Y-60658135D01*
X92359671Y-60666400D01*
X92381850Y-60676890D01*
X92402893Y-60689502D01*
X92422599Y-60704117D01*
X92440777Y-60720593D01*
X92457253Y-60738771D01*
X92471868Y-60758477D01*
X92484480Y-60779520D01*
X92494970Y-60801699D01*
X92503235Y-60824798D01*
X92509196Y-60848597D01*
X92512796Y-60872865D01*
X92514000Y-60897369D01*
X92514000Y-61797371D01*
X92512796Y-61821875D01*
X92509196Y-61846143D01*
X92503235Y-61869942D01*
X92494970Y-61893041D01*
X92484480Y-61915220D01*
X92471868Y-61936263D01*
X92457253Y-61955969D01*
X92440777Y-61974147D01*
X92422599Y-61990623D01*
X92402893Y-62005238D01*
X92381850Y-62017850D01*
X92359671Y-62028340D01*
X92336572Y-62036605D01*
X92312773Y-62042566D01*
X92288505Y-62046166D01*
X92264001Y-62047370D01*
X91613999Y-62047370D01*
X91589495Y-62046166D01*
X91565227Y-62042566D01*
X91541428Y-62036605D01*
X91518329Y-62028340D01*
X91496150Y-62017850D01*
X91475107Y-62005238D01*
X91455401Y-61990623D01*
X91437223Y-61974147D01*
X91420747Y-61955969D01*
X91406132Y-61936263D01*
X91393520Y-61915220D01*
X91383030Y-61893041D01*
X91374765Y-61869942D01*
X91368804Y-61846143D01*
X91365204Y-61821875D01*
X91364000Y-61797371D01*
X91364000Y-60897369D01*
X91365204Y-60872865D01*
X91368804Y-60848597D01*
X91374765Y-60824798D01*
X91383030Y-60801699D01*
X91393520Y-60779520D01*
X91406132Y-60758477D01*
X91420747Y-60738771D01*
X91437223Y-60720593D01*
X91455401Y-60704117D01*
X91475107Y-60689502D01*
X91496150Y-60676890D01*
X91518329Y-60666400D01*
X91541428Y-60658135D01*
X91565227Y-60652174D01*
X91589495Y-60648574D01*
X91613999Y-60647370D01*
X92264001Y-60647370D01*
X92288505Y-60648574D01*
X92288505Y-60648574D01*
G37*
D11*
X91939000Y-61347370D03*
D10*
G36*
X99418505Y-60648574D02*
G01*
X99442773Y-60652174D01*
X99466572Y-60658135D01*
X99489671Y-60666400D01*
X99511850Y-60676890D01*
X99532893Y-60689502D01*
X99552599Y-60704117D01*
X99570777Y-60720593D01*
X99587253Y-60738771D01*
X99601868Y-60758477D01*
X99614480Y-60779520D01*
X99624970Y-60801699D01*
X99633235Y-60824798D01*
X99639196Y-60848597D01*
X99642796Y-60872865D01*
X99644000Y-60897369D01*
X99644000Y-61797371D01*
X99642796Y-61821875D01*
X99639196Y-61846143D01*
X99633235Y-61869942D01*
X99624970Y-61893041D01*
X99614480Y-61915220D01*
X99601868Y-61936263D01*
X99587253Y-61955969D01*
X99570777Y-61974147D01*
X99552599Y-61990623D01*
X99532893Y-62005238D01*
X99511850Y-62017850D01*
X99489671Y-62028340D01*
X99466572Y-62036605D01*
X99442773Y-62042566D01*
X99418505Y-62046166D01*
X99394001Y-62047370D01*
X98743999Y-62047370D01*
X98719495Y-62046166D01*
X98695227Y-62042566D01*
X98671428Y-62036605D01*
X98648329Y-62028340D01*
X98626150Y-62017850D01*
X98605107Y-62005238D01*
X98585401Y-61990623D01*
X98567223Y-61974147D01*
X98550747Y-61955969D01*
X98536132Y-61936263D01*
X98523520Y-61915220D01*
X98513030Y-61893041D01*
X98504765Y-61869942D01*
X98498804Y-61846143D01*
X98495204Y-61821875D01*
X98494000Y-61797371D01*
X98494000Y-60897369D01*
X98495204Y-60872865D01*
X98498804Y-60848597D01*
X98504765Y-60824798D01*
X98513030Y-60801699D01*
X98523520Y-60779520D01*
X98536132Y-60758477D01*
X98550747Y-60738771D01*
X98567223Y-60720593D01*
X98585401Y-60704117D01*
X98605107Y-60689502D01*
X98626150Y-60676890D01*
X98648329Y-60666400D01*
X98671428Y-60658135D01*
X98695227Y-60652174D01*
X98719495Y-60648574D01*
X98743999Y-60647370D01*
X99394001Y-60647370D01*
X99418505Y-60648574D01*
X99418505Y-60648574D01*
G37*
D11*
X99069000Y-61347370D03*
D10*
G36*
X97368505Y-60648574D02*
G01*
X97392773Y-60652174D01*
X97416572Y-60658135D01*
X97439671Y-60666400D01*
X97461850Y-60676890D01*
X97482893Y-60689502D01*
X97502599Y-60704117D01*
X97520777Y-60720593D01*
X97537253Y-60738771D01*
X97551868Y-60758477D01*
X97564480Y-60779520D01*
X97574970Y-60801699D01*
X97583235Y-60824798D01*
X97589196Y-60848597D01*
X97592796Y-60872865D01*
X97594000Y-60897369D01*
X97594000Y-61797371D01*
X97592796Y-61821875D01*
X97589196Y-61846143D01*
X97583235Y-61869942D01*
X97574970Y-61893041D01*
X97564480Y-61915220D01*
X97551868Y-61936263D01*
X97537253Y-61955969D01*
X97520777Y-61974147D01*
X97502599Y-61990623D01*
X97482893Y-62005238D01*
X97461850Y-62017850D01*
X97439671Y-62028340D01*
X97416572Y-62036605D01*
X97392773Y-62042566D01*
X97368505Y-62046166D01*
X97344001Y-62047370D01*
X96693999Y-62047370D01*
X96669495Y-62046166D01*
X96645227Y-62042566D01*
X96621428Y-62036605D01*
X96598329Y-62028340D01*
X96576150Y-62017850D01*
X96555107Y-62005238D01*
X96535401Y-61990623D01*
X96517223Y-61974147D01*
X96500747Y-61955969D01*
X96486132Y-61936263D01*
X96473520Y-61915220D01*
X96463030Y-61893041D01*
X96454765Y-61869942D01*
X96448804Y-61846143D01*
X96445204Y-61821875D01*
X96444000Y-61797371D01*
X96444000Y-60897369D01*
X96445204Y-60872865D01*
X96448804Y-60848597D01*
X96454765Y-60824798D01*
X96463030Y-60801699D01*
X96473520Y-60779520D01*
X96486132Y-60758477D01*
X96500747Y-60738771D01*
X96517223Y-60720593D01*
X96535401Y-60704117D01*
X96555107Y-60689502D01*
X96576150Y-60676890D01*
X96598329Y-60666400D01*
X96621428Y-60658135D01*
X96645227Y-60652174D01*
X96669495Y-60648574D01*
X96693999Y-60647370D01*
X97344001Y-60647370D01*
X97368505Y-60648574D01*
X97368505Y-60648574D01*
G37*
D11*
X97019000Y-61347370D03*
D10*
G36*
X104498505Y-60648574D02*
G01*
X104522773Y-60652174D01*
X104546572Y-60658135D01*
X104569671Y-60666400D01*
X104591850Y-60676890D01*
X104612893Y-60689502D01*
X104632599Y-60704117D01*
X104650777Y-60720593D01*
X104667253Y-60738771D01*
X104681868Y-60758477D01*
X104694480Y-60779520D01*
X104704970Y-60801699D01*
X104713235Y-60824798D01*
X104719196Y-60848597D01*
X104722796Y-60872865D01*
X104724000Y-60897369D01*
X104724000Y-61797371D01*
X104722796Y-61821875D01*
X104719196Y-61846143D01*
X104713235Y-61869942D01*
X104704970Y-61893041D01*
X104694480Y-61915220D01*
X104681868Y-61936263D01*
X104667253Y-61955969D01*
X104650777Y-61974147D01*
X104632599Y-61990623D01*
X104612893Y-62005238D01*
X104591850Y-62017850D01*
X104569671Y-62028340D01*
X104546572Y-62036605D01*
X104522773Y-62042566D01*
X104498505Y-62046166D01*
X104474001Y-62047370D01*
X103823999Y-62047370D01*
X103799495Y-62046166D01*
X103775227Y-62042566D01*
X103751428Y-62036605D01*
X103728329Y-62028340D01*
X103706150Y-62017850D01*
X103685107Y-62005238D01*
X103665401Y-61990623D01*
X103647223Y-61974147D01*
X103630747Y-61955969D01*
X103616132Y-61936263D01*
X103603520Y-61915220D01*
X103593030Y-61893041D01*
X103584765Y-61869942D01*
X103578804Y-61846143D01*
X103575204Y-61821875D01*
X103574000Y-61797371D01*
X103574000Y-60897369D01*
X103575204Y-60872865D01*
X103578804Y-60848597D01*
X103584765Y-60824798D01*
X103593030Y-60801699D01*
X103603520Y-60779520D01*
X103616132Y-60758477D01*
X103630747Y-60738771D01*
X103647223Y-60720593D01*
X103665401Y-60704117D01*
X103685107Y-60689502D01*
X103706150Y-60676890D01*
X103728329Y-60666400D01*
X103751428Y-60658135D01*
X103775227Y-60652174D01*
X103799495Y-60648574D01*
X103823999Y-60647370D01*
X104474001Y-60647370D01*
X104498505Y-60648574D01*
X104498505Y-60648574D01*
G37*
D11*
X104149000Y-61347370D03*
D10*
G36*
X102448505Y-60648574D02*
G01*
X102472773Y-60652174D01*
X102496572Y-60658135D01*
X102519671Y-60666400D01*
X102541850Y-60676890D01*
X102562893Y-60689502D01*
X102582599Y-60704117D01*
X102600777Y-60720593D01*
X102617253Y-60738771D01*
X102631868Y-60758477D01*
X102644480Y-60779520D01*
X102654970Y-60801699D01*
X102663235Y-60824798D01*
X102669196Y-60848597D01*
X102672796Y-60872865D01*
X102674000Y-60897369D01*
X102674000Y-61797371D01*
X102672796Y-61821875D01*
X102669196Y-61846143D01*
X102663235Y-61869942D01*
X102654970Y-61893041D01*
X102644480Y-61915220D01*
X102631868Y-61936263D01*
X102617253Y-61955969D01*
X102600777Y-61974147D01*
X102582599Y-61990623D01*
X102562893Y-62005238D01*
X102541850Y-62017850D01*
X102519671Y-62028340D01*
X102496572Y-62036605D01*
X102472773Y-62042566D01*
X102448505Y-62046166D01*
X102424001Y-62047370D01*
X101773999Y-62047370D01*
X101749495Y-62046166D01*
X101725227Y-62042566D01*
X101701428Y-62036605D01*
X101678329Y-62028340D01*
X101656150Y-62017850D01*
X101635107Y-62005238D01*
X101615401Y-61990623D01*
X101597223Y-61974147D01*
X101580747Y-61955969D01*
X101566132Y-61936263D01*
X101553520Y-61915220D01*
X101543030Y-61893041D01*
X101534765Y-61869942D01*
X101528804Y-61846143D01*
X101525204Y-61821875D01*
X101524000Y-61797371D01*
X101524000Y-60897369D01*
X101525204Y-60872865D01*
X101528804Y-60848597D01*
X101534765Y-60824798D01*
X101543030Y-60801699D01*
X101553520Y-60779520D01*
X101566132Y-60758477D01*
X101580747Y-60738771D01*
X101597223Y-60720593D01*
X101615401Y-60704117D01*
X101635107Y-60689502D01*
X101656150Y-60676890D01*
X101678329Y-60666400D01*
X101701428Y-60658135D01*
X101725227Y-60652174D01*
X101749495Y-60648574D01*
X101773999Y-60647370D01*
X102424001Y-60647370D01*
X102448505Y-60648574D01*
X102448505Y-60648574D01*
G37*
D11*
X102099000Y-61347370D03*
D13*
X61350000Y-102626000D03*
X61350000Y-97226000D03*
D14*
X175245000Y-64925000D03*
X176515000Y-64925000D03*
X177785000Y-64925000D03*
X179055000Y-64925000D03*
X179055000Y-70325000D03*
X177785000Y-70325000D03*
X176515000Y-70325000D03*
X175245000Y-70325000D03*
D15*
X177250000Y-73200000D03*
X178200000Y-75200000D03*
X176300000Y-75200000D03*
D16*
X115062000Y-106425000D03*
X113792000Y-106425000D03*
X112522000Y-106425000D03*
X111252000Y-106425000D03*
X109982000Y-106425000D03*
X108712000Y-106425000D03*
X107442000Y-106425000D03*
X106172000Y-106425000D03*
X104902000Y-106425000D03*
X104902000Y-115825000D03*
X106172000Y-115825000D03*
X107442000Y-115825000D03*
X108712000Y-115825000D03*
X109982000Y-115825000D03*
X111252000Y-115825000D03*
X112522000Y-115825000D03*
X113792000Y-115825000D03*
X115062000Y-115825000D03*
D17*
X102991142Y-119380000D03*
X99991142Y-119380000D03*
D18*
X96691142Y-119380000D03*
X93991142Y-119380000D03*
D19*
X47636999Y-97151000D03*
X42786999Y-102701000D03*
X47636999Y-102701000D03*
X42786999Y-97151000D03*
D20*
X54361999Y-97386000D03*
X54361999Y-102466000D03*
X66923001Y-69117000D03*
X66923001Y-70817000D03*
X66923001Y-72517000D03*
X66923001Y-74217000D03*
X66923001Y-75917000D03*
D19*
X78498001Y-75292000D03*
X73648001Y-69742000D03*
X78498001Y-69742000D03*
X73648001Y-75292000D03*
D21*
X45847000Y-74171000D03*
X45847000Y-84071000D03*
D22*
X75264000Y-60833000D03*
X80264000Y-60833000D03*
D23*
X66350000Y-102626000D03*
X70350000Y-102626000D03*
D24*
X58039000Y-70821000D03*
X58039000Y-62021000D03*
D18*
X168014000Y-119380000D03*
X170714000Y-119380000D03*
X133702570Y-119380000D03*
X131002570Y-119380000D03*
X112496856Y-119380000D03*
X115196856Y-119380000D03*
X78185428Y-119380000D03*
X75485428Y-119380000D03*
X56979714Y-119380000D03*
X59679714Y-119380000D03*
X152208284Y-119380000D03*
X149508284Y-119380000D03*
X38474000Y-119380000D03*
X41174000Y-119380000D03*
D17*
X140002570Y-119380000D03*
X137002570Y-119380000D03*
X174014000Y-119380000D03*
X177014000Y-119380000D03*
X158508284Y-119380000D03*
X155508284Y-119380000D03*
X118496856Y-119380000D03*
X121496856Y-119380000D03*
D25*
X104484262Y-77216000D03*
X86704262Y-69596000D03*
X101944262Y-77216000D03*
X89244262Y-69596000D03*
X99404262Y-77216000D03*
X91784262Y-69596000D03*
X96864262Y-77216000D03*
X94324262Y-69596000D03*
X94324262Y-77216000D03*
X96864262Y-69596000D03*
X91784262Y-77216000D03*
X99404262Y-69596000D03*
X89244262Y-77216000D03*
X101944262Y-69596000D03*
X86704262Y-77216000D03*
X104484262Y-69596000D03*
X129888000Y-69596000D03*
X112108000Y-77216000D03*
X127348000Y-69596000D03*
X114648000Y-77216000D03*
X124808000Y-69596000D03*
X117188000Y-77216000D03*
X122268000Y-69596000D03*
X119728000Y-77216000D03*
X119728000Y-69596000D03*
X122268000Y-77216000D03*
X117188000Y-69596000D03*
X124808000Y-77216000D03*
X114648000Y-69596000D03*
X127348000Y-77216000D03*
X112108000Y-69596000D03*
X129888000Y-77216000D03*
D17*
X81485428Y-119380000D03*
X84485428Y-119380000D03*
X65979714Y-119380000D03*
X62979714Y-119380000D03*
X44474000Y-119380000D03*
X47474000Y-119380000D03*
D26*
X151248000Y-71866000D03*
X151248000Y-71366000D03*
X151248000Y-70866000D03*
X151248000Y-70366000D03*
X151248000Y-69866000D03*
X146948000Y-69866000D03*
X146948000Y-70366000D03*
X146948000Y-70866000D03*
X146948000Y-71366000D03*
X146948000Y-71866000D03*
D27*
X79752262Y-88361556D03*
D28*
X79752262Y-94661556D03*
X82052262Y-94661556D03*
X77452262Y-94661556D03*
M02*
