M48
;DRILL file {KiCad 201611211049+7371~55~ubuntu16.10.1-product} date Thu Dec 29 13:08:01 2016
;FORMAT={-:-/ absolute / inch / decimal}
FMAT,2
INCH,TZ
T1C0.031
T2C0.040
T3C0.120
%
G90
G05
M72
T1
X5.4437Y-3.1412
X5.4437Y-3.2412
X5.4437Y-3.3413
X5.4437Y-3.4413
X5.4437Y-3.5412
X5.4437Y-3.6412
X5.4437Y-3.7412
X5.4437Y-3.8413
X5.7437Y-3.1412
X5.7437Y-3.2412
X5.7437Y-3.3413
X5.7437Y-3.4413
X5.7437Y-3.5412
X5.7437Y-3.6412
X5.7437Y-3.7412
X5.7437Y-3.8413
T2
X5.02Y-3.295
X5.02Y-3.395
X5.02Y-3.495
X5.02Y-3.595
X5.945Y-3.23
X5.945Y-3.34
X5.945Y-3.445
X5.945Y-3.555
X5.945Y-3.665
X6.045Y-3.285
X6.045Y-3.395
X6.045Y-3.5
X6.045Y-3.61
T3
X6.045Y-2.95
X6.045Y-3.95
T0
M30
