G04 #@! TF.GenerationSoftware,KiCad,Pcbnew,5.0.1*
G04 #@! TF.CreationDate,2019-03-20T13:16:31+05:30*
G04 #@! TF.ProjectId,motor,6D6F746F722E6B696361645F70636200,rev?*
G04 #@! TF.SameCoordinates,Original*
G04 #@! TF.FileFunction,Copper,L1,Top,Signal*
G04 #@! TF.FilePolarity,Positive*
%FSLAX46Y46*%
G04 Gerber Fmt 4.6, Leading zero omitted, Abs format (unit mm)*
G04 Created by KiCad (PCBNEW 5.0.1) date Wed 20 Mar 2019 01:16:31 PM IST*
%MOMM*%
%LPD*%
G01*
G04 APERTURE LIST*
G04 #@! TA.AperFunction,ComponentPad*
%ADD10C,1.850000*%
G04 #@! TD*
G04 #@! TA.AperFunction,ComponentPad*
%ADD11R,1.850000X1.850000*%
G04 #@! TD*
G04 #@! TA.AperFunction,ComponentPad*
%ADD12C,1.800000*%
G04 #@! TD*
G04 #@! TA.AperFunction,ComponentPad*
%ADD13R,1.800000X1.800000*%
G04 #@! TD*
G04 #@! TA.AperFunction,ComponentPad*
%ADD14O,1.600000X1.600000*%
G04 #@! TD*
G04 #@! TA.AperFunction,ComponentPad*
%ADD15C,1.600000*%
G04 #@! TD*
G04 #@! TA.AperFunction,ComponentPad*
%ADD16O,2.400000X1.600000*%
G04 #@! TD*
G04 #@! TA.AperFunction,ComponentPad*
%ADD17R,2.400000X1.600000*%
G04 #@! TD*
G04 #@! TA.AperFunction,ComponentPad*
%ADD18R,1.998980X1.998980*%
G04 #@! TD*
G04 #@! TA.AperFunction,ComponentPad*
%ADD19O,1.998980X1.998980*%
G04 #@! TD*
G04 #@! TA.AperFunction,ViaPad*
%ADD20C,1.000000*%
G04 #@! TD*
G04 #@! TA.AperFunction,Conductor*
%ADD21C,1.000000*%
G04 #@! TD*
G04 #@! TA.AperFunction,Conductor*
%ADD22C,0.600000*%
G04 #@! TD*
G04 #@! TA.AperFunction,Conductor*
%ADD23C,0.254000*%
G04 #@! TD*
G04 APERTURE END LIST*
D10*
G04 #@! TO.P,J4,5*
G04 #@! TO.N,/2a*
X123525000Y-96675000D03*
G04 #@! TO.P,J4,4*
G04 #@! TO.N,/1a*
X123525000Y-99175000D03*
G04 #@! TO.P,J4,3*
G04 #@! TO.N,/sw1*
X123525000Y-101675000D03*
G04 #@! TO.P,J4,2*
G04 #@! TO.N,/sw2*
X123525000Y-104175000D03*
D11*
G04 #@! TO.P,J4,1*
G04 #@! TO.N,/sw3*
X123525000Y-106675000D03*
G04 #@! TD*
D12*
G04 #@! TO.P,D4,2*
G04 #@! TO.N,Net-(D4-Pad2)*
X123190000Y-84328000D03*
D13*
G04 #@! TO.P,D4,1*
G04 #@! TO.N,GND*
X120650000Y-84328000D03*
G04 #@! TD*
D14*
G04 #@! TO.P,R4,2*
G04 #@! TO.N,Net-(D4-Pad2)*
X125580000Y-91500000D03*
D15*
G04 #@! TO.P,R4,1*
G04 #@! TO.N,Net-(R4-Pad1)*
X120500000Y-91500000D03*
G04 #@! TD*
G04 #@! TO.P,C2,1*
G04 #@! TO.N,Net-(C2-Pad1)*
X102108000Y-93726000D03*
G04 #@! TO.P,C2,2*
G04 #@! TO.N,GND*
X102108000Y-96226000D03*
G04 #@! TD*
G04 #@! TO.P,C1,2*
G04 #@! TO.N,Net-(C1-Pad2)*
X96774000Y-93766000D03*
G04 #@! TO.P,C1,1*
G04 #@! TO.N,GND*
X96774000Y-96266000D03*
G04 #@! TD*
D14*
G04 #@! TO.P,R3,2*
G04 #@! TO.N,Net-(D3-Pad1)*
X99060000Y-112522000D03*
D15*
G04 #@! TO.P,R3,1*
G04 #@! TO.N,/sw3*
X93980000Y-112522000D03*
G04 #@! TD*
G04 #@! TO.P,R2,1*
G04 #@! TO.N,/sw2*
X93726000Y-106934000D03*
D14*
G04 #@! TO.P,R2,2*
G04 #@! TO.N,Net-(D2-Pad1)*
X98806000Y-106934000D03*
G04 #@! TD*
G04 #@! TO.P,R1,2*
G04 #@! TO.N,Net-(D1-Pad1)*
X98806000Y-101092000D03*
D15*
G04 #@! TO.P,R1,1*
G04 #@! TO.N,/sw1*
X93726000Y-101092000D03*
G04 #@! TD*
D12*
G04 #@! TO.P,D3,2*
G04 #@! TO.N,+5V*
X104902000Y-112522000D03*
D13*
G04 #@! TO.P,D3,1*
G04 #@! TO.N,Net-(D3-Pad1)*
X102362000Y-112522000D03*
G04 #@! TD*
G04 #@! TO.P,D2,1*
G04 #@! TO.N,Net-(D2-Pad1)*
X102362000Y-106934000D03*
D12*
G04 #@! TO.P,D2,2*
G04 #@! TO.N,+5V*
X104902000Y-106934000D03*
G04 #@! TD*
G04 #@! TO.P,D1,2*
G04 #@! TO.N,+5V*
X104902000Y-101092000D03*
D13*
G04 #@! TO.P,D1,1*
G04 #@! TO.N,Net-(D1-Pad1)*
X102362000Y-101092000D03*
G04 #@! TD*
D16*
G04 #@! TO.P,U1,16*
G04 #@! TO.N,+5V*
X117094000Y-90932000D03*
G04 #@! TO.P,U1,8*
G04 #@! TO.N,+12V*
X109474000Y-108712000D03*
G04 #@! TO.P,U1,15*
G04 #@! TO.N,/2a*
X117094000Y-93472000D03*
G04 #@! TO.P,U1,7*
X109474000Y-106172000D03*
G04 #@! TO.P,U1,14*
G04 #@! TO.N,Net-(R4-Pad1)*
X117094000Y-96012000D03*
G04 #@! TO.P,U1,6*
G04 #@! TO.N,Net-(C2-Pad1)*
X109474000Y-103632000D03*
G04 #@! TO.P,U1,13*
G04 #@! TO.N,GND*
X117094000Y-98552000D03*
G04 #@! TO.P,U1,5*
X109474000Y-101092000D03*
G04 #@! TO.P,U1,12*
X117094000Y-101092000D03*
G04 #@! TO.P,U1,4*
X109474000Y-98552000D03*
G04 #@! TO.P,U1,11*
G04 #@! TO.N,Net-(U1-Pad11)*
X117094000Y-103632000D03*
G04 #@! TO.P,U1,3*
G04 #@! TO.N,Net-(C1-Pad2)*
X109474000Y-96012000D03*
G04 #@! TO.P,U1,10*
G04 #@! TO.N,Net-(U1-Pad10)*
X117094000Y-106172000D03*
G04 #@! TO.P,U1,2*
G04 #@! TO.N,/1a*
X109474000Y-93472000D03*
G04 #@! TO.P,U1,9*
X117094000Y-108712000D03*
D17*
G04 #@! TO.P,U1,1*
G04 #@! TO.N,+5V*
X109474000Y-90932000D03*
G04 #@! TD*
D10*
G04 #@! TO.P,J1,4*
G04 #@! TO.N,GND*
X87884000Y-104260000D03*
G04 #@! TO.P,J1,3*
G04 #@! TO.N,+5V*
X87884000Y-106760000D03*
G04 #@! TO.P,J1,2*
G04 #@! TO.N,+12V*
X87884000Y-109260000D03*
D11*
G04 #@! TO.P,J1,1*
G04 #@! TO.N,Net-(J1-Pad1)*
X87884000Y-111760000D03*
G04 #@! TD*
D10*
G04 #@! TO.P,J2,4*
G04 #@! TO.N,GND*
X87884000Y-88004000D03*
G04 #@! TO.P,J2,3*
G04 #@! TO.N,/sw1*
X87884000Y-90504000D03*
G04 #@! TO.P,J2,2*
G04 #@! TO.N,/sw2*
X87884000Y-93004000D03*
D11*
G04 #@! TO.P,J2,1*
G04 #@! TO.N,/sw3*
X87884000Y-95504000D03*
G04 #@! TD*
D18*
G04 #@! TO.P,J3,1*
G04 #@! TO.N,Net-(C1-Pad2)*
X98298000Y-88138000D03*
D19*
G04 #@! TO.P,J3,2*
G04 #@! TO.N,Net-(C2-Pad1)*
X100838000Y-88138000D03*
G04 #@! TD*
D20*
G04 #@! TO.N,+12V*
X112522000Y-113284000D03*
G04 #@! TD*
D21*
G04 #@! TO.N,+12V*
X109474000Y-108712000D02*
X109474000Y-110236000D01*
X109474000Y-110236000D02*
X112522000Y-113284000D01*
D22*
G04 #@! TO.N,/sw3*
X115570000Y-115570000D02*
X121412000Y-109728000D01*
X93980000Y-112522000D02*
X97028000Y-115570000D01*
X97028000Y-115570000D02*
X115570000Y-115570000D01*
X123425000Y-107715000D02*
X123425000Y-106775000D01*
X121412000Y-109728000D02*
X123425000Y-107715000D01*
X93980000Y-112522000D02*
X90932000Y-109474000D01*
X90932000Y-109474000D02*
X90932000Y-96266000D01*
X90170000Y-95504000D02*
X87884000Y-95504000D01*
X90932000Y-96266000D02*
X90170000Y-95504000D01*
G04 #@! TO.N,/sw2*
X93726000Y-106934000D02*
X92202000Y-105410000D01*
X92202000Y-105410000D02*
X92202000Y-94234000D01*
X90972000Y-93004000D02*
X92202000Y-94234000D01*
X87884000Y-93004000D02*
X90972000Y-93004000D01*
G04 #@! TO.N,/sw1*
X115062000Y-114554000D02*
X98552000Y-114554000D01*
X120825000Y-103066853D02*
X120825000Y-108791000D01*
X122216853Y-101675000D02*
X120825000Y-103066853D01*
X123525000Y-101675000D02*
X122216853Y-101675000D01*
X120825000Y-108791000D02*
X115062000Y-114554000D01*
X92282000Y-90504000D02*
X87884000Y-90504000D01*
X93726000Y-101092000D02*
X93726000Y-91948000D01*
X93726000Y-91948000D02*
X92282000Y-90504000D01*
X98552000Y-114554000D02*
X96520000Y-112522000D01*
X96520000Y-112522000D02*
X96520000Y-102108000D01*
X95504000Y-101092000D02*
X93726000Y-101092000D01*
X96520000Y-102108000D02*
X95504000Y-101092000D01*
G04 #@! TO.N,/2a*
X111760000Y-106172000D02*
X109474000Y-106172000D01*
X113792000Y-104140000D02*
X111760000Y-106172000D01*
X119380000Y-88138000D02*
X114808000Y-88138000D01*
X123535001Y-92293001D02*
X119380000Y-88138000D01*
X114808000Y-88138000D02*
X113792000Y-89154000D01*
X115294000Y-93472000D02*
X113792000Y-91970000D01*
X113792000Y-91970000D02*
X113792000Y-91100000D01*
X117094000Y-93472000D02*
X115294000Y-93472000D01*
X113792000Y-89154000D02*
X113792000Y-91100000D01*
X113792000Y-91100000D02*
X113792000Y-104140000D01*
X123525000Y-94335001D02*
X123535001Y-94325000D01*
X123525000Y-96675000D02*
X123525000Y-94335001D01*
X123535001Y-95755001D02*
X123535001Y-94325000D01*
X123535001Y-94325000D02*
X123535001Y-92293001D01*
G04 #@! TO.N,Net-(C1-Pad2)*
X98298000Y-89123998D02*
X98298000Y-88138000D01*
X96774000Y-90647998D02*
X98298000Y-89123998D01*
X96774000Y-93766000D02*
X96774000Y-90647998D01*
X105263000Y-96012000D02*
X109474000Y-96012000D01*
X103748999Y-97526001D02*
X105263000Y-96012000D01*
X96774000Y-93766000D02*
X100534001Y-97526001D01*
X100534001Y-97526001D02*
X103748999Y-97526001D01*
G04 #@! TO.N,Net-(C2-Pad1)*
X102108000Y-90393998D02*
X101092000Y-89377998D01*
X102108000Y-93726000D02*
X102108000Y-90393998D01*
X101092000Y-88392000D02*
X100838000Y-88138000D01*
X101092000Y-89377998D02*
X101092000Y-88392000D01*
X111252000Y-103632000D02*
X109474000Y-103632000D01*
X112268000Y-102616000D02*
X111252000Y-103632000D01*
X112268000Y-88646000D02*
X112268000Y-102616000D01*
X102108000Y-93726000D02*
X103886000Y-93726000D01*
X106680000Y-90932000D02*
X106680000Y-88646000D01*
X103886000Y-93726000D02*
X106680000Y-90932000D01*
X107950000Y-87376000D02*
X110998000Y-87376000D01*
X106680000Y-88646000D02*
X107950000Y-87376000D01*
X110998000Y-87376000D02*
X112268000Y-88646000D01*
G04 #@! TO.N,Net-(R4-Pad1)*
X121299999Y-92299999D02*
X121299999Y-94700001D01*
X120500000Y-91500000D02*
X121299999Y-92299999D01*
X119988000Y-96012000D02*
X117094000Y-96012000D01*
X121299999Y-94700001D02*
X119988000Y-96012000D01*
G04 #@! TD*
D23*
G04 #@! TO.N,GND*
G36*
X125105000Y-83220000D02*
X125217815Y-83932284D01*
X125545216Y-84574845D01*
X126055155Y-85084784D01*
X126697716Y-85412185D01*
X127410000Y-85525000D01*
X128122284Y-85412185D01*
X128651000Y-85142791D01*
X128651000Y-114497209D01*
X128122284Y-114227815D01*
X127410000Y-114115000D01*
X126697716Y-114227815D01*
X126055155Y-114555216D01*
X125545216Y-115065155D01*
X125217815Y-115707716D01*
X125105000Y-116420000D01*
X125151407Y-116713000D01*
X86468593Y-116713000D01*
X86515000Y-116420000D01*
X86402185Y-115707716D01*
X86074784Y-115065155D01*
X85564845Y-114555216D01*
X84922284Y-114227815D01*
X84210000Y-114115000D01*
X83927150Y-114159799D01*
X83902523Y-110835000D01*
X86311560Y-110835000D01*
X86311560Y-112685000D01*
X86360843Y-112932765D01*
X86501191Y-113142809D01*
X86711235Y-113283157D01*
X86959000Y-113332440D01*
X88809000Y-113332440D01*
X89056765Y-113283157D01*
X89266809Y-113142809D01*
X89407157Y-112932765D01*
X89456440Y-112685000D01*
X89456440Y-110835000D01*
X89407157Y-110587235D01*
X89266809Y-110377191D01*
X89090673Y-110259500D01*
X89206504Y-110143669D01*
X89444000Y-109570303D01*
X89444000Y-108949697D01*
X89206504Y-108376331D01*
X88840173Y-108010000D01*
X89206504Y-107643669D01*
X89444000Y-107070303D01*
X89444000Y-106449697D01*
X89206504Y-105876331D01*
X88773330Y-105443157D01*
X88802651Y-105358256D01*
X87884000Y-104439605D01*
X86965349Y-105358256D01*
X86994670Y-105443157D01*
X86561496Y-105876331D01*
X86324000Y-106449697D01*
X86324000Y-107070303D01*
X86561496Y-107643669D01*
X86927827Y-108010000D01*
X86561496Y-108376331D01*
X86324000Y-108949697D01*
X86324000Y-109570303D01*
X86561496Y-110143669D01*
X86677327Y-110259500D01*
X86501191Y-110377191D01*
X86360843Y-110587235D01*
X86311560Y-110835000D01*
X83902523Y-110835000D01*
X83851993Y-104013368D01*
X86312675Y-104013368D01*
X86337903Y-104633461D01*
X86526668Y-105089179D01*
X86785744Y-105178651D01*
X87704395Y-104260000D01*
X88063605Y-104260000D01*
X88982256Y-105178651D01*
X89241332Y-105089179D01*
X89455325Y-104506632D01*
X89430097Y-103886539D01*
X89241332Y-103430821D01*
X88982256Y-103341349D01*
X88063605Y-104260000D01*
X87704395Y-104260000D01*
X86785744Y-103341349D01*
X86526668Y-103430821D01*
X86312675Y-104013368D01*
X83851993Y-104013368D01*
X83845685Y-103161744D01*
X86965349Y-103161744D01*
X87884000Y-104080395D01*
X88802651Y-103161744D01*
X88713179Y-102902668D01*
X88130632Y-102688675D01*
X87510539Y-102713903D01*
X87054821Y-102902668D01*
X86965349Y-103161744D01*
X83845685Y-103161744D01*
X83782108Y-94579000D01*
X86311560Y-94579000D01*
X86311560Y-96429000D01*
X86360843Y-96676765D01*
X86501191Y-96886809D01*
X86711235Y-97027157D01*
X86959000Y-97076440D01*
X88809000Y-97076440D01*
X89056765Y-97027157D01*
X89266809Y-96886809D01*
X89407157Y-96676765D01*
X89454451Y-96439000D01*
X89782711Y-96439000D01*
X89997001Y-96653291D01*
X89997000Y-109381914D01*
X89978683Y-109474000D01*
X89997000Y-109566085D01*
X90051250Y-109838818D01*
X90257903Y-110148097D01*
X90335972Y-110200261D01*
X92545000Y-112409290D01*
X92545000Y-112807439D01*
X92763466Y-113334862D01*
X93167138Y-113738534D01*
X93694561Y-113957000D01*
X94092711Y-113957000D01*
X96301741Y-116166031D01*
X96353903Y-116244097D01*
X96663181Y-116450750D01*
X96832829Y-116484495D01*
X97028000Y-116523317D01*
X97120086Y-116505000D01*
X115477914Y-116505000D01*
X115570000Y-116523317D01*
X115662086Y-116505000D01*
X115934819Y-116450750D01*
X116244097Y-116244097D01*
X116296261Y-116166028D01*
X122138259Y-110324030D01*
X124021031Y-108441259D01*
X124099097Y-108389097D01*
X124193749Y-108247440D01*
X124450000Y-108247440D01*
X124697765Y-108198157D01*
X124907809Y-108057809D01*
X125048157Y-107847765D01*
X125097440Y-107600000D01*
X125097440Y-105750000D01*
X125048157Y-105502235D01*
X124907809Y-105292191D01*
X124731673Y-105174500D01*
X124847504Y-105058669D01*
X125085000Y-104485303D01*
X125085000Y-103864697D01*
X124847504Y-103291331D01*
X124481173Y-102925000D01*
X124847504Y-102558669D01*
X125085000Y-101985303D01*
X125085000Y-101364697D01*
X124847504Y-100791331D01*
X124481173Y-100425000D01*
X124847504Y-100058669D01*
X125085000Y-99485303D01*
X125085000Y-98864697D01*
X124847504Y-98291331D01*
X124481173Y-97925000D01*
X124847504Y-97558669D01*
X125085000Y-96985303D01*
X125085000Y-96364697D01*
X124847504Y-95791331D01*
X124470001Y-95413828D01*
X124470001Y-94417085D01*
X124488318Y-94325000D01*
X124470001Y-94232914D01*
X124470001Y-92421700D01*
X124545423Y-92534577D01*
X125020091Y-92851740D01*
X125438667Y-92935000D01*
X125721333Y-92935000D01*
X126139909Y-92851740D01*
X126614577Y-92534577D01*
X126931740Y-92059909D01*
X127043113Y-91500000D01*
X126931740Y-90940091D01*
X126614577Y-90465423D01*
X126139909Y-90148260D01*
X125721333Y-90065000D01*
X125438667Y-90065000D01*
X125020091Y-90148260D01*
X124545423Y-90465423D01*
X124228260Y-90940091D01*
X124116887Y-91500000D01*
X124129947Y-91565657D01*
X120106261Y-87541972D01*
X120054097Y-87463903D01*
X119744819Y-87257250D01*
X119472086Y-87203000D01*
X119380000Y-87184683D01*
X119287914Y-87203000D01*
X114900086Y-87203000D01*
X114808000Y-87184683D01*
X114715914Y-87203000D01*
X114443181Y-87257250D01*
X114133903Y-87463903D01*
X114081741Y-87541969D01*
X113195972Y-88427739D01*
X113180022Y-88438396D01*
X113148750Y-88281181D01*
X112942097Y-87971903D01*
X112864031Y-87919741D01*
X111724261Y-86779972D01*
X111672097Y-86701903D01*
X111362819Y-86495250D01*
X111090086Y-86441000D01*
X110998000Y-86422683D01*
X110905914Y-86441000D01*
X108042081Y-86441000D01*
X107949999Y-86422684D01*
X107857917Y-86441000D01*
X107857914Y-86441000D01*
X107585181Y-86495250D01*
X107275903Y-86701903D01*
X107223741Y-86779969D01*
X106083970Y-87919741D01*
X106005904Y-87971903D01*
X105953742Y-88049969D01*
X105953741Y-88049970D01*
X105799250Y-88281182D01*
X105726683Y-88646000D01*
X105745001Y-88738090D01*
X105745000Y-90544711D01*
X103498711Y-92791000D01*
X103202396Y-92791000D01*
X103043000Y-92631604D01*
X103043000Y-90486084D01*
X103061317Y-90393998D01*
X102988750Y-90029179D01*
X102834259Y-89797967D01*
X102782097Y-89719901D01*
X102704031Y-89667739D01*
X102151100Y-89114809D01*
X102377655Y-88775746D01*
X102504511Y-88138000D01*
X102377655Y-87500254D01*
X102016401Y-86959599D01*
X101475746Y-86598345D01*
X100998980Y-86503510D01*
X100677020Y-86503510D01*
X100200254Y-86598345D01*
X99854595Y-86829307D01*
X99755299Y-86680701D01*
X99545255Y-86540353D01*
X99297490Y-86491070D01*
X97298510Y-86491070D01*
X97050745Y-86540353D01*
X96840701Y-86680701D01*
X96700353Y-86890745D01*
X96651070Y-87138510D01*
X96651070Y-89137490D01*
X96700353Y-89385255D01*
X96706001Y-89393708D01*
X96177970Y-89921739D01*
X96099904Y-89973901D01*
X96047742Y-90051967D01*
X96047741Y-90051968D01*
X95893250Y-90283180D01*
X95820683Y-90647998D01*
X95839001Y-90740088D01*
X95839000Y-92671604D01*
X95557466Y-92953138D01*
X95339000Y-93480561D01*
X95339000Y-94051439D01*
X95557466Y-94578862D01*
X95961138Y-94982534D01*
X96026299Y-95009525D01*
X96019995Y-95012136D01*
X95945861Y-95258255D01*
X96774000Y-96086395D01*
X96788143Y-96072253D01*
X96967748Y-96251858D01*
X96953605Y-96266000D01*
X97781745Y-97094139D01*
X98027864Y-97020005D01*
X98207090Y-96521379D01*
X99807742Y-98122032D01*
X99859904Y-98200098D01*
X100169182Y-98406751D01*
X100441915Y-98461001D01*
X100441919Y-98461001D01*
X100534000Y-98479317D01*
X100626081Y-98461001D01*
X103656913Y-98461001D01*
X103748999Y-98479318D01*
X103841085Y-98461001D01*
X104113818Y-98406751D01*
X104423096Y-98200098D01*
X104475260Y-98122029D01*
X105650290Y-96947000D01*
X107972888Y-96947000D01*
X108039423Y-97046577D01*
X108514091Y-97363740D01*
X108932667Y-97447000D01*
X110015333Y-97447000D01*
X110433909Y-97363740D01*
X110908577Y-97046577D01*
X111225740Y-96571909D01*
X111333001Y-96032675D01*
X111333001Y-102228709D01*
X110930892Y-102630819D01*
X110908577Y-102597423D01*
X110433909Y-102280260D01*
X110015333Y-102197000D01*
X108932667Y-102197000D01*
X108514091Y-102280260D01*
X108039423Y-102597423D01*
X107722260Y-103072091D01*
X107610887Y-103632000D01*
X107722260Y-104191909D01*
X108039423Y-104666577D01*
X108391758Y-104902000D01*
X108039423Y-105137423D01*
X107722260Y-105612091D01*
X107610887Y-106172000D01*
X107722260Y-106731909D01*
X108039423Y-107206577D01*
X108391758Y-107442000D01*
X108039423Y-107677423D01*
X107722260Y-108152091D01*
X107610887Y-108712000D01*
X107722260Y-109271909D01*
X108039423Y-109746577D01*
X108339000Y-109946748D01*
X108339000Y-110124217D01*
X108316765Y-110236000D01*
X108404854Y-110678854D01*
X108404855Y-110678855D01*
X108655712Y-111054289D01*
X108750480Y-111117611D01*
X111251868Y-113619000D01*
X105975817Y-113619000D01*
X106203310Y-113391507D01*
X106437000Y-112827330D01*
X106437000Y-112216670D01*
X106203310Y-111652493D01*
X105771507Y-111220690D01*
X105207330Y-110987000D01*
X104596670Y-110987000D01*
X104032493Y-111220690D01*
X103863275Y-111389908D01*
X103860157Y-111374235D01*
X103719809Y-111164191D01*
X103509765Y-111023843D01*
X103262000Y-110974560D01*
X101462000Y-110974560D01*
X101214235Y-111023843D01*
X101004191Y-111164191D01*
X100863843Y-111374235D01*
X100814560Y-111622000D01*
X100814560Y-113422000D01*
X100853745Y-113619000D01*
X100001154Y-113619000D01*
X100094577Y-113556577D01*
X100411740Y-113081909D01*
X100523113Y-112522000D01*
X100411740Y-111962091D01*
X100094577Y-111487423D01*
X99619909Y-111170260D01*
X99201333Y-111087000D01*
X98918667Y-111087000D01*
X98500091Y-111170260D01*
X98025423Y-111487423D01*
X97708260Y-111962091D01*
X97637602Y-112317313D01*
X97455000Y-112134711D01*
X97455000Y-107495016D01*
X97771423Y-107968577D01*
X98246091Y-108285740D01*
X98664667Y-108369000D01*
X98947333Y-108369000D01*
X99365909Y-108285740D01*
X99840577Y-107968577D01*
X100157740Y-107493909D01*
X100269113Y-106934000D01*
X100157740Y-106374091D01*
X99930499Y-106034000D01*
X100814560Y-106034000D01*
X100814560Y-107834000D01*
X100863843Y-108081765D01*
X101004191Y-108291809D01*
X101214235Y-108432157D01*
X101462000Y-108481440D01*
X103262000Y-108481440D01*
X103509765Y-108432157D01*
X103719809Y-108291809D01*
X103860157Y-108081765D01*
X103863275Y-108066092D01*
X104032493Y-108235310D01*
X104596670Y-108469000D01*
X105207330Y-108469000D01*
X105771507Y-108235310D01*
X106203310Y-107803507D01*
X106437000Y-107239330D01*
X106437000Y-106628670D01*
X106203310Y-106064493D01*
X105771507Y-105632690D01*
X105207330Y-105399000D01*
X104596670Y-105399000D01*
X104032493Y-105632690D01*
X103863275Y-105801908D01*
X103860157Y-105786235D01*
X103719809Y-105576191D01*
X103509765Y-105435843D01*
X103262000Y-105386560D01*
X101462000Y-105386560D01*
X101214235Y-105435843D01*
X101004191Y-105576191D01*
X100863843Y-105786235D01*
X100814560Y-106034000D01*
X99930499Y-106034000D01*
X99840577Y-105899423D01*
X99365909Y-105582260D01*
X98947333Y-105499000D01*
X98664667Y-105499000D01*
X98246091Y-105582260D01*
X97771423Y-105899423D01*
X97455000Y-106372984D01*
X97455000Y-102200086D01*
X97473317Y-102108000D01*
X97400750Y-101743181D01*
X97246259Y-101511969D01*
X97194097Y-101433903D01*
X97116031Y-101381741D01*
X96826290Y-101092000D01*
X97342887Y-101092000D01*
X97454260Y-101651909D01*
X97771423Y-102126577D01*
X98246091Y-102443740D01*
X98664667Y-102527000D01*
X98947333Y-102527000D01*
X99365909Y-102443740D01*
X99840577Y-102126577D01*
X100157740Y-101651909D01*
X100269113Y-101092000D01*
X100157740Y-100532091D01*
X99930499Y-100192000D01*
X100814560Y-100192000D01*
X100814560Y-101992000D01*
X100863843Y-102239765D01*
X101004191Y-102449809D01*
X101214235Y-102590157D01*
X101462000Y-102639440D01*
X103262000Y-102639440D01*
X103509765Y-102590157D01*
X103719809Y-102449809D01*
X103860157Y-102239765D01*
X103863275Y-102224092D01*
X104032493Y-102393310D01*
X104596670Y-102627000D01*
X105207330Y-102627000D01*
X105771507Y-102393310D01*
X106203310Y-101961507D01*
X106437000Y-101397330D01*
X106437000Y-100786670D01*
X106203310Y-100222493D01*
X105771507Y-99790690D01*
X105207330Y-99557000D01*
X104596670Y-99557000D01*
X104032493Y-99790690D01*
X103863275Y-99959908D01*
X103860157Y-99944235D01*
X103719809Y-99734191D01*
X103509765Y-99593843D01*
X103262000Y-99544560D01*
X101462000Y-99544560D01*
X101214235Y-99593843D01*
X101004191Y-99734191D01*
X100863843Y-99944235D01*
X100814560Y-100192000D01*
X99930499Y-100192000D01*
X99840577Y-100057423D01*
X99365909Y-99740260D01*
X98947333Y-99657000D01*
X98664667Y-99657000D01*
X98246091Y-99740260D01*
X97771423Y-100057423D01*
X97454260Y-100532091D01*
X97342887Y-101092000D01*
X96826290Y-101092000D01*
X96230261Y-100495972D01*
X96178097Y-100417903D01*
X95868819Y-100211250D01*
X95596086Y-100157000D01*
X95504000Y-100138683D01*
X95411914Y-100157000D01*
X94820396Y-100157000D01*
X94661000Y-99997604D01*
X94661000Y-97273745D01*
X95945861Y-97273745D01*
X96019995Y-97519864D01*
X96557223Y-97712965D01*
X97127454Y-97685778D01*
X97528005Y-97519864D01*
X97602139Y-97273745D01*
X96774000Y-96445605D01*
X95945861Y-97273745D01*
X94661000Y-97273745D01*
X94661000Y-96049223D01*
X95327035Y-96049223D01*
X95354222Y-96619454D01*
X95520136Y-97020005D01*
X95766255Y-97094139D01*
X96594395Y-96266000D01*
X95766255Y-95437861D01*
X95520136Y-95511995D01*
X95327035Y-96049223D01*
X94661000Y-96049223D01*
X94661000Y-92040081D01*
X94679316Y-91947999D01*
X94661000Y-91855917D01*
X94661000Y-91855914D01*
X94606750Y-91583181D01*
X94400097Y-91273903D01*
X94322031Y-91221741D01*
X93008261Y-89907972D01*
X92956097Y-89829903D01*
X92646819Y-89623250D01*
X92374086Y-89569000D01*
X92282000Y-89550683D01*
X92189914Y-89569000D01*
X89155173Y-89569000D01*
X88773330Y-89187157D01*
X88802651Y-89102256D01*
X87884000Y-88183605D01*
X86965349Y-89102256D01*
X86994670Y-89187157D01*
X86561496Y-89620331D01*
X86324000Y-90193697D01*
X86324000Y-90814303D01*
X86561496Y-91387669D01*
X86927827Y-91754000D01*
X86561496Y-92120331D01*
X86324000Y-92693697D01*
X86324000Y-93314303D01*
X86561496Y-93887669D01*
X86677327Y-94003500D01*
X86501191Y-94121191D01*
X86360843Y-94331235D01*
X86311560Y-94579000D01*
X83782108Y-94579000D01*
X83731578Y-87757368D01*
X86312675Y-87757368D01*
X86337903Y-88377461D01*
X86526668Y-88833179D01*
X86785744Y-88922651D01*
X87704395Y-88004000D01*
X88063605Y-88004000D01*
X88982256Y-88922651D01*
X89241332Y-88833179D01*
X89455325Y-88250632D01*
X89430097Y-87630539D01*
X89241332Y-87174821D01*
X88982256Y-87085349D01*
X88063605Y-88004000D01*
X87704395Y-88004000D01*
X86785744Y-87085349D01*
X86526668Y-87174821D01*
X86312675Y-87757368D01*
X83731578Y-87757368D01*
X83725270Y-86905744D01*
X86965349Y-86905744D01*
X87884000Y-87824395D01*
X88802651Y-86905744D01*
X88713179Y-86646668D01*
X88130632Y-86432675D01*
X87510539Y-86457903D01*
X87054821Y-86646668D01*
X86965349Y-86905744D01*
X83725270Y-86905744D01*
X83714460Y-85446514D01*
X84210000Y-85525000D01*
X84922284Y-85412185D01*
X85564845Y-85084784D01*
X86035879Y-84613750D01*
X119115000Y-84613750D01*
X119115000Y-85354310D01*
X119211673Y-85587699D01*
X119390302Y-85766327D01*
X119623691Y-85863000D01*
X120364250Y-85863000D01*
X120523000Y-85704250D01*
X120523000Y-84455000D01*
X119273750Y-84455000D01*
X119115000Y-84613750D01*
X86035879Y-84613750D01*
X86074784Y-84574845D01*
X86402185Y-83932284D01*
X86502061Y-83301690D01*
X119115000Y-83301690D01*
X119115000Y-84042250D01*
X119273750Y-84201000D01*
X120523000Y-84201000D01*
X120523000Y-82951750D01*
X120777000Y-82951750D01*
X120777000Y-84201000D01*
X120797000Y-84201000D01*
X120797000Y-84455000D01*
X120777000Y-84455000D01*
X120777000Y-85704250D01*
X120935750Y-85863000D01*
X121676309Y-85863000D01*
X121909698Y-85766327D01*
X122088327Y-85587699D01*
X122144139Y-85452956D01*
X122320493Y-85629310D01*
X122884670Y-85863000D01*
X123495330Y-85863000D01*
X124059507Y-85629310D01*
X124491310Y-85197507D01*
X124725000Y-84633330D01*
X124725000Y-84022670D01*
X124491310Y-83458493D01*
X124059507Y-83026690D01*
X123495330Y-82793000D01*
X122884670Y-82793000D01*
X122320493Y-83026690D01*
X122144139Y-83203044D01*
X122088327Y-83068301D01*
X121909698Y-82889673D01*
X121676309Y-82793000D01*
X120935750Y-82793000D01*
X120777000Y-82951750D01*
X120523000Y-82951750D01*
X120364250Y-82793000D01*
X119623691Y-82793000D01*
X119390302Y-82889673D01*
X119211673Y-83068301D01*
X119115000Y-83301690D01*
X86502061Y-83301690D01*
X86515000Y-83220000D01*
X86428997Y-82677000D01*
X125191003Y-82677000D01*
X125105000Y-83220000D01*
X125105000Y-83220000D01*
G37*
X125105000Y-83220000D02*
X125217815Y-83932284D01*
X125545216Y-84574845D01*
X126055155Y-85084784D01*
X126697716Y-85412185D01*
X127410000Y-85525000D01*
X128122284Y-85412185D01*
X128651000Y-85142791D01*
X128651000Y-114497209D01*
X128122284Y-114227815D01*
X127410000Y-114115000D01*
X126697716Y-114227815D01*
X126055155Y-114555216D01*
X125545216Y-115065155D01*
X125217815Y-115707716D01*
X125105000Y-116420000D01*
X125151407Y-116713000D01*
X86468593Y-116713000D01*
X86515000Y-116420000D01*
X86402185Y-115707716D01*
X86074784Y-115065155D01*
X85564845Y-114555216D01*
X84922284Y-114227815D01*
X84210000Y-114115000D01*
X83927150Y-114159799D01*
X83902523Y-110835000D01*
X86311560Y-110835000D01*
X86311560Y-112685000D01*
X86360843Y-112932765D01*
X86501191Y-113142809D01*
X86711235Y-113283157D01*
X86959000Y-113332440D01*
X88809000Y-113332440D01*
X89056765Y-113283157D01*
X89266809Y-113142809D01*
X89407157Y-112932765D01*
X89456440Y-112685000D01*
X89456440Y-110835000D01*
X89407157Y-110587235D01*
X89266809Y-110377191D01*
X89090673Y-110259500D01*
X89206504Y-110143669D01*
X89444000Y-109570303D01*
X89444000Y-108949697D01*
X89206504Y-108376331D01*
X88840173Y-108010000D01*
X89206504Y-107643669D01*
X89444000Y-107070303D01*
X89444000Y-106449697D01*
X89206504Y-105876331D01*
X88773330Y-105443157D01*
X88802651Y-105358256D01*
X87884000Y-104439605D01*
X86965349Y-105358256D01*
X86994670Y-105443157D01*
X86561496Y-105876331D01*
X86324000Y-106449697D01*
X86324000Y-107070303D01*
X86561496Y-107643669D01*
X86927827Y-108010000D01*
X86561496Y-108376331D01*
X86324000Y-108949697D01*
X86324000Y-109570303D01*
X86561496Y-110143669D01*
X86677327Y-110259500D01*
X86501191Y-110377191D01*
X86360843Y-110587235D01*
X86311560Y-110835000D01*
X83902523Y-110835000D01*
X83851993Y-104013368D01*
X86312675Y-104013368D01*
X86337903Y-104633461D01*
X86526668Y-105089179D01*
X86785744Y-105178651D01*
X87704395Y-104260000D01*
X88063605Y-104260000D01*
X88982256Y-105178651D01*
X89241332Y-105089179D01*
X89455325Y-104506632D01*
X89430097Y-103886539D01*
X89241332Y-103430821D01*
X88982256Y-103341349D01*
X88063605Y-104260000D01*
X87704395Y-104260000D01*
X86785744Y-103341349D01*
X86526668Y-103430821D01*
X86312675Y-104013368D01*
X83851993Y-104013368D01*
X83845685Y-103161744D01*
X86965349Y-103161744D01*
X87884000Y-104080395D01*
X88802651Y-103161744D01*
X88713179Y-102902668D01*
X88130632Y-102688675D01*
X87510539Y-102713903D01*
X87054821Y-102902668D01*
X86965349Y-103161744D01*
X83845685Y-103161744D01*
X83782108Y-94579000D01*
X86311560Y-94579000D01*
X86311560Y-96429000D01*
X86360843Y-96676765D01*
X86501191Y-96886809D01*
X86711235Y-97027157D01*
X86959000Y-97076440D01*
X88809000Y-97076440D01*
X89056765Y-97027157D01*
X89266809Y-96886809D01*
X89407157Y-96676765D01*
X89454451Y-96439000D01*
X89782711Y-96439000D01*
X89997001Y-96653291D01*
X89997000Y-109381914D01*
X89978683Y-109474000D01*
X89997000Y-109566085D01*
X90051250Y-109838818D01*
X90257903Y-110148097D01*
X90335972Y-110200261D01*
X92545000Y-112409290D01*
X92545000Y-112807439D01*
X92763466Y-113334862D01*
X93167138Y-113738534D01*
X93694561Y-113957000D01*
X94092711Y-113957000D01*
X96301741Y-116166031D01*
X96353903Y-116244097D01*
X96663181Y-116450750D01*
X96832829Y-116484495D01*
X97028000Y-116523317D01*
X97120086Y-116505000D01*
X115477914Y-116505000D01*
X115570000Y-116523317D01*
X115662086Y-116505000D01*
X115934819Y-116450750D01*
X116244097Y-116244097D01*
X116296261Y-116166028D01*
X122138259Y-110324030D01*
X124021031Y-108441259D01*
X124099097Y-108389097D01*
X124193749Y-108247440D01*
X124450000Y-108247440D01*
X124697765Y-108198157D01*
X124907809Y-108057809D01*
X125048157Y-107847765D01*
X125097440Y-107600000D01*
X125097440Y-105750000D01*
X125048157Y-105502235D01*
X124907809Y-105292191D01*
X124731673Y-105174500D01*
X124847504Y-105058669D01*
X125085000Y-104485303D01*
X125085000Y-103864697D01*
X124847504Y-103291331D01*
X124481173Y-102925000D01*
X124847504Y-102558669D01*
X125085000Y-101985303D01*
X125085000Y-101364697D01*
X124847504Y-100791331D01*
X124481173Y-100425000D01*
X124847504Y-100058669D01*
X125085000Y-99485303D01*
X125085000Y-98864697D01*
X124847504Y-98291331D01*
X124481173Y-97925000D01*
X124847504Y-97558669D01*
X125085000Y-96985303D01*
X125085000Y-96364697D01*
X124847504Y-95791331D01*
X124470001Y-95413828D01*
X124470001Y-94417085D01*
X124488318Y-94325000D01*
X124470001Y-94232914D01*
X124470001Y-92421700D01*
X124545423Y-92534577D01*
X125020091Y-92851740D01*
X125438667Y-92935000D01*
X125721333Y-92935000D01*
X126139909Y-92851740D01*
X126614577Y-92534577D01*
X126931740Y-92059909D01*
X127043113Y-91500000D01*
X126931740Y-90940091D01*
X126614577Y-90465423D01*
X126139909Y-90148260D01*
X125721333Y-90065000D01*
X125438667Y-90065000D01*
X125020091Y-90148260D01*
X124545423Y-90465423D01*
X124228260Y-90940091D01*
X124116887Y-91500000D01*
X124129947Y-91565657D01*
X120106261Y-87541972D01*
X120054097Y-87463903D01*
X119744819Y-87257250D01*
X119472086Y-87203000D01*
X119380000Y-87184683D01*
X119287914Y-87203000D01*
X114900086Y-87203000D01*
X114808000Y-87184683D01*
X114715914Y-87203000D01*
X114443181Y-87257250D01*
X114133903Y-87463903D01*
X114081741Y-87541969D01*
X113195972Y-88427739D01*
X113180022Y-88438396D01*
X113148750Y-88281181D01*
X112942097Y-87971903D01*
X112864031Y-87919741D01*
X111724261Y-86779972D01*
X111672097Y-86701903D01*
X111362819Y-86495250D01*
X111090086Y-86441000D01*
X110998000Y-86422683D01*
X110905914Y-86441000D01*
X108042081Y-86441000D01*
X107949999Y-86422684D01*
X107857917Y-86441000D01*
X107857914Y-86441000D01*
X107585181Y-86495250D01*
X107275903Y-86701903D01*
X107223741Y-86779969D01*
X106083970Y-87919741D01*
X106005904Y-87971903D01*
X105953742Y-88049969D01*
X105953741Y-88049970D01*
X105799250Y-88281182D01*
X105726683Y-88646000D01*
X105745001Y-88738090D01*
X105745000Y-90544711D01*
X103498711Y-92791000D01*
X103202396Y-92791000D01*
X103043000Y-92631604D01*
X103043000Y-90486084D01*
X103061317Y-90393998D01*
X102988750Y-90029179D01*
X102834259Y-89797967D01*
X102782097Y-89719901D01*
X102704031Y-89667739D01*
X102151100Y-89114809D01*
X102377655Y-88775746D01*
X102504511Y-88138000D01*
X102377655Y-87500254D01*
X102016401Y-86959599D01*
X101475746Y-86598345D01*
X100998980Y-86503510D01*
X100677020Y-86503510D01*
X100200254Y-86598345D01*
X99854595Y-86829307D01*
X99755299Y-86680701D01*
X99545255Y-86540353D01*
X99297490Y-86491070D01*
X97298510Y-86491070D01*
X97050745Y-86540353D01*
X96840701Y-86680701D01*
X96700353Y-86890745D01*
X96651070Y-87138510D01*
X96651070Y-89137490D01*
X96700353Y-89385255D01*
X96706001Y-89393708D01*
X96177970Y-89921739D01*
X96099904Y-89973901D01*
X96047742Y-90051967D01*
X96047741Y-90051968D01*
X95893250Y-90283180D01*
X95820683Y-90647998D01*
X95839001Y-90740088D01*
X95839000Y-92671604D01*
X95557466Y-92953138D01*
X95339000Y-93480561D01*
X95339000Y-94051439D01*
X95557466Y-94578862D01*
X95961138Y-94982534D01*
X96026299Y-95009525D01*
X96019995Y-95012136D01*
X95945861Y-95258255D01*
X96774000Y-96086395D01*
X96788143Y-96072253D01*
X96967748Y-96251858D01*
X96953605Y-96266000D01*
X97781745Y-97094139D01*
X98027864Y-97020005D01*
X98207090Y-96521379D01*
X99807742Y-98122032D01*
X99859904Y-98200098D01*
X100169182Y-98406751D01*
X100441915Y-98461001D01*
X100441919Y-98461001D01*
X100534000Y-98479317D01*
X100626081Y-98461001D01*
X103656913Y-98461001D01*
X103748999Y-98479318D01*
X103841085Y-98461001D01*
X104113818Y-98406751D01*
X104423096Y-98200098D01*
X104475260Y-98122029D01*
X105650290Y-96947000D01*
X107972888Y-96947000D01*
X108039423Y-97046577D01*
X108514091Y-97363740D01*
X108932667Y-97447000D01*
X110015333Y-97447000D01*
X110433909Y-97363740D01*
X110908577Y-97046577D01*
X111225740Y-96571909D01*
X111333001Y-96032675D01*
X111333001Y-102228709D01*
X110930892Y-102630819D01*
X110908577Y-102597423D01*
X110433909Y-102280260D01*
X110015333Y-102197000D01*
X108932667Y-102197000D01*
X108514091Y-102280260D01*
X108039423Y-102597423D01*
X107722260Y-103072091D01*
X107610887Y-103632000D01*
X107722260Y-104191909D01*
X108039423Y-104666577D01*
X108391758Y-104902000D01*
X108039423Y-105137423D01*
X107722260Y-105612091D01*
X107610887Y-106172000D01*
X107722260Y-106731909D01*
X108039423Y-107206577D01*
X108391758Y-107442000D01*
X108039423Y-107677423D01*
X107722260Y-108152091D01*
X107610887Y-108712000D01*
X107722260Y-109271909D01*
X108039423Y-109746577D01*
X108339000Y-109946748D01*
X108339000Y-110124217D01*
X108316765Y-110236000D01*
X108404854Y-110678854D01*
X108404855Y-110678855D01*
X108655712Y-111054289D01*
X108750480Y-111117611D01*
X111251868Y-113619000D01*
X105975817Y-113619000D01*
X106203310Y-113391507D01*
X106437000Y-112827330D01*
X106437000Y-112216670D01*
X106203310Y-111652493D01*
X105771507Y-111220690D01*
X105207330Y-110987000D01*
X104596670Y-110987000D01*
X104032493Y-111220690D01*
X103863275Y-111389908D01*
X103860157Y-111374235D01*
X103719809Y-111164191D01*
X103509765Y-111023843D01*
X103262000Y-110974560D01*
X101462000Y-110974560D01*
X101214235Y-111023843D01*
X101004191Y-111164191D01*
X100863843Y-111374235D01*
X100814560Y-111622000D01*
X100814560Y-113422000D01*
X100853745Y-113619000D01*
X100001154Y-113619000D01*
X100094577Y-113556577D01*
X100411740Y-113081909D01*
X100523113Y-112522000D01*
X100411740Y-111962091D01*
X100094577Y-111487423D01*
X99619909Y-111170260D01*
X99201333Y-111087000D01*
X98918667Y-111087000D01*
X98500091Y-111170260D01*
X98025423Y-111487423D01*
X97708260Y-111962091D01*
X97637602Y-112317313D01*
X97455000Y-112134711D01*
X97455000Y-107495016D01*
X97771423Y-107968577D01*
X98246091Y-108285740D01*
X98664667Y-108369000D01*
X98947333Y-108369000D01*
X99365909Y-108285740D01*
X99840577Y-107968577D01*
X100157740Y-107493909D01*
X100269113Y-106934000D01*
X100157740Y-106374091D01*
X99930499Y-106034000D01*
X100814560Y-106034000D01*
X100814560Y-107834000D01*
X100863843Y-108081765D01*
X101004191Y-108291809D01*
X101214235Y-108432157D01*
X101462000Y-108481440D01*
X103262000Y-108481440D01*
X103509765Y-108432157D01*
X103719809Y-108291809D01*
X103860157Y-108081765D01*
X103863275Y-108066092D01*
X104032493Y-108235310D01*
X104596670Y-108469000D01*
X105207330Y-108469000D01*
X105771507Y-108235310D01*
X106203310Y-107803507D01*
X106437000Y-107239330D01*
X106437000Y-106628670D01*
X106203310Y-106064493D01*
X105771507Y-105632690D01*
X105207330Y-105399000D01*
X104596670Y-105399000D01*
X104032493Y-105632690D01*
X103863275Y-105801908D01*
X103860157Y-105786235D01*
X103719809Y-105576191D01*
X103509765Y-105435843D01*
X103262000Y-105386560D01*
X101462000Y-105386560D01*
X101214235Y-105435843D01*
X101004191Y-105576191D01*
X100863843Y-105786235D01*
X100814560Y-106034000D01*
X99930499Y-106034000D01*
X99840577Y-105899423D01*
X99365909Y-105582260D01*
X98947333Y-105499000D01*
X98664667Y-105499000D01*
X98246091Y-105582260D01*
X97771423Y-105899423D01*
X97455000Y-106372984D01*
X97455000Y-102200086D01*
X97473317Y-102108000D01*
X97400750Y-101743181D01*
X97246259Y-101511969D01*
X97194097Y-101433903D01*
X97116031Y-101381741D01*
X96826290Y-101092000D01*
X97342887Y-101092000D01*
X97454260Y-101651909D01*
X97771423Y-102126577D01*
X98246091Y-102443740D01*
X98664667Y-102527000D01*
X98947333Y-102527000D01*
X99365909Y-102443740D01*
X99840577Y-102126577D01*
X100157740Y-101651909D01*
X100269113Y-101092000D01*
X100157740Y-100532091D01*
X99930499Y-100192000D01*
X100814560Y-100192000D01*
X100814560Y-101992000D01*
X100863843Y-102239765D01*
X101004191Y-102449809D01*
X101214235Y-102590157D01*
X101462000Y-102639440D01*
X103262000Y-102639440D01*
X103509765Y-102590157D01*
X103719809Y-102449809D01*
X103860157Y-102239765D01*
X103863275Y-102224092D01*
X104032493Y-102393310D01*
X104596670Y-102627000D01*
X105207330Y-102627000D01*
X105771507Y-102393310D01*
X106203310Y-101961507D01*
X106437000Y-101397330D01*
X106437000Y-100786670D01*
X106203310Y-100222493D01*
X105771507Y-99790690D01*
X105207330Y-99557000D01*
X104596670Y-99557000D01*
X104032493Y-99790690D01*
X103863275Y-99959908D01*
X103860157Y-99944235D01*
X103719809Y-99734191D01*
X103509765Y-99593843D01*
X103262000Y-99544560D01*
X101462000Y-99544560D01*
X101214235Y-99593843D01*
X101004191Y-99734191D01*
X100863843Y-99944235D01*
X100814560Y-100192000D01*
X99930499Y-100192000D01*
X99840577Y-100057423D01*
X99365909Y-99740260D01*
X98947333Y-99657000D01*
X98664667Y-99657000D01*
X98246091Y-99740260D01*
X97771423Y-100057423D01*
X97454260Y-100532091D01*
X97342887Y-101092000D01*
X96826290Y-101092000D01*
X96230261Y-100495972D01*
X96178097Y-100417903D01*
X95868819Y-100211250D01*
X95596086Y-100157000D01*
X95504000Y-100138683D01*
X95411914Y-100157000D01*
X94820396Y-100157000D01*
X94661000Y-99997604D01*
X94661000Y-97273745D01*
X95945861Y-97273745D01*
X96019995Y-97519864D01*
X96557223Y-97712965D01*
X97127454Y-97685778D01*
X97528005Y-97519864D01*
X97602139Y-97273745D01*
X96774000Y-96445605D01*
X95945861Y-97273745D01*
X94661000Y-97273745D01*
X94661000Y-96049223D01*
X95327035Y-96049223D01*
X95354222Y-96619454D01*
X95520136Y-97020005D01*
X95766255Y-97094139D01*
X96594395Y-96266000D01*
X95766255Y-95437861D01*
X95520136Y-95511995D01*
X95327035Y-96049223D01*
X94661000Y-96049223D01*
X94661000Y-92040081D01*
X94679316Y-91947999D01*
X94661000Y-91855917D01*
X94661000Y-91855914D01*
X94606750Y-91583181D01*
X94400097Y-91273903D01*
X94322031Y-91221741D01*
X93008261Y-89907972D01*
X92956097Y-89829903D01*
X92646819Y-89623250D01*
X92374086Y-89569000D01*
X92282000Y-89550683D01*
X92189914Y-89569000D01*
X89155173Y-89569000D01*
X88773330Y-89187157D01*
X88802651Y-89102256D01*
X87884000Y-88183605D01*
X86965349Y-89102256D01*
X86994670Y-89187157D01*
X86561496Y-89620331D01*
X86324000Y-90193697D01*
X86324000Y-90814303D01*
X86561496Y-91387669D01*
X86927827Y-91754000D01*
X86561496Y-92120331D01*
X86324000Y-92693697D01*
X86324000Y-93314303D01*
X86561496Y-93887669D01*
X86677327Y-94003500D01*
X86501191Y-94121191D01*
X86360843Y-94331235D01*
X86311560Y-94579000D01*
X83782108Y-94579000D01*
X83731578Y-87757368D01*
X86312675Y-87757368D01*
X86337903Y-88377461D01*
X86526668Y-88833179D01*
X86785744Y-88922651D01*
X87704395Y-88004000D01*
X88063605Y-88004000D01*
X88982256Y-88922651D01*
X89241332Y-88833179D01*
X89455325Y-88250632D01*
X89430097Y-87630539D01*
X89241332Y-87174821D01*
X88982256Y-87085349D01*
X88063605Y-88004000D01*
X87704395Y-88004000D01*
X86785744Y-87085349D01*
X86526668Y-87174821D01*
X86312675Y-87757368D01*
X83731578Y-87757368D01*
X83725270Y-86905744D01*
X86965349Y-86905744D01*
X87884000Y-87824395D01*
X88802651Y-86905744D01*
X88713179Y-86646668D01*
X88130632Y-86432675D01*
X87510539Y-86457903D01*
X87054821Y-86646668D01*
X86965349Y-86905744D01*
X83725270Y-86905744D01*
X83714460Y-85446514D01*
X84210000Y-85525000D01*
X84922284Y-85412185D01*
X85564845Y-85084784D01*
X86035879Y-84613750D01*
X119115000Y-84613750D01*
X119115000Y-85354310D01*
X119211673Y-85587699D01*
X119390302Y-85766327D01*
X119623691Y-85863000D01*
X120364250Y-85863000D01*
X120523000Y-85704250D01*
X120523000Y-84455000D01*
X119273750Y-84455000D01*
X119115000Y-84613750D01*
X86035879Y-84613750D01*
X86074784Y-84574845D01*
X86402185Y-83932284D01*
X86502061Y-83301690D01*
X119115000Y-83301690D01*
X119115000Y-84042250D01*
X119273750Y-84201000D01*
X120523000Y-84201000D01*
X120523000Y-82951750D01*
X120777000Y-82951750D01*
X120777000Y-84201000D01*
X120797000Y-84201000D01*
X120797000Y-84455000D01*
X120777000Y-84455000D01*
X120777000Y-85704250D01*
X120935750Y-85863000D01*
X121676309Y-85863000D01*
X121909698Y-85766327D01*
X122088327Y-85587699D01*
X122144139Y-85452956D01*
X122320493Y-85629310D01*
X122884670Y-85863000D01*
X123495330Y-85863000D01*
X124059507Y-85629310D01*
X124491310Y-85197507D01*
X124725000Y-84633330D01*
X124725000Y-84022670D01*
X124491310Y-83458493D01*
X124059507Y-83026690D01*
X123495330Y-82793000D01*
X122884670Y-82793000D01*
X122320493Y-83026690D01*
X122144139Y-83203044D01*
X122088327Y-83068301D01*
X121909698Y-82889673D01*
X121676309Y-82793000D01*
X120935750Y-82793000D01*
X120777000Y-82951750D01*
X120523000Y-82951750D01*
X120364250Y-82793000D01*
X119623691Y-82793000D01*
X119390302Y-82889673D01*
X119211673Y-83068301D01*
X119115000Y-83301690D01*
X86502061Y-83301690D01*
X86515000Y-83220000D01*
X86428997Y-82677000D01*
X125191003Y-82677000D01*
X125105000Y-83220000D01*
G36*
X122600002Y-92680292D02*
X122600001Y-94192637D01*
X122571683Y-94335001D01*
X122590001Y-94427091D01*
X122590001Y-95403826D01*
X122202496Y-95791331D01*
X121965000Y-96364697D01*
X121965000Y-96985303D01*
X122202496Y-97558669D01*
X122568827Y-97925000D01*
X122202496Y-98291331D01*
X121965000Y-98864697D01*
X121965000Y-99485303D01*
X122202496Y-100058669D01*
X122568827Y-100425000D01*
X122262970Y-100730857D01*
X122216852Y-100721684D01*
X122124770Y-100740000D01*
X122124767Y-100740000D01*
X121852034Y-100794250D01*
X121542756Y-101000903D01*
X121490594Y-101078969D01*
X120228972Y-102340592D01*
X120150903Y-102392756D01*
X120005746Y-102610000D01*
X119944250Y-102702035D01*
X119871683Y-103066853D01*
X119890000Y-103158939D01*
X119890001Y-108403709D01*
X114674711Y-113619000D01*
X113612599Y-113619000D01*
X113613381Y-113615073D01*
X113657000Y-113509766D01*
X113657000Y-113395783D01*
X113679235Y-113284000D01*
X113657000Y-113172217D01*
X113657000Y-113058234D01*
X113613381Y-112952928D01*
X113591146Y-112841145D01*
X113527827Y-112746381D01*
X113484207Y-112641074D01*
X113164926Y-112321793D01*
X113164924Y-112321792D01*
X110717429Y-109874298D01*
X110908577Y-109746577D01*
X111225740Y-109271909D01*
X111337113Y-108712000D01*
X111225740Y-108152091D01*
X110908577Y-107677423D01*
X110556242Y-107442000D01*
X110908577Y-107206577D01*
X110975112Y-107107000D01*
X111667914Y-107107000D01*
X111760000Y-107125317D01*
X111852086Y-107107000D01*
X112124819Y-107052750D01*
X112434097Y-106846097D01*
X112486261Y-106768028D01*
X114388031Y-104866259D01*
X114466097Y-104814097D01*
X114672750Y-104504819D01*
X114727000Y-104232086D01*
X114745317Y-104140000D01*
X114727000Y-104047914D01*
X114727000Y-103632000D01*
X115230887Y-103632000D01*
X115342260Y-104191909D01*
X115659423Y-104666577D01*
X116011758Y-104902000D01*
X115659423Y-105137423D01*
X115342260Y-105612091D01*
X115230887Y-106172000D01*
X115342260Y-106731909D01*
X115659423Y-107206577D01*
X116011758Y-107442000D01*
X115659423Y-107677423D01*
X115342260Y-108152091D01*
X115230887Y-108712000D01*
X115342260Y-109271909D01*
X115659423Y-109746577D01*
X116134091Y-110063740D01*
X116552667Y-110147000D01*
X117635333Y-110147000D01*
X118053909Y-110063740D01*
X118528577Y-109746577D01*
X118845740Y-109271909D01*
X118957113Y-108712000D01*
X118845740Y-108152091D01*
X118528577Y-107677423D01*
X118176242Y-107442000D01*
X118528577Y-107206577D01*
X118845740Y-106731909D01*
X118957113Y-106172000D01*
X118845740Y-105612091D01*
X118528577Y-105137423D01*
X118176242Y-104902000D01*
X118528577Y-104666577D01*
X118845740Y-104191909D01*
X118957113Y-103632000D01*
X118845740Y-103072091D01*
X118528577Y-102597423D01*
X118053909Y-102280260D01*
X117635333Y-102197000D01*
X116552667Y-102197000D01*
X116134091Y-102280260D01*
X115659423Y-102597423D01*
X115342260Y-103072091D01*
X115230887Y-103632000D01*
X114727000Y-103632000D01*
X114727000Y-94217657D01*
X114929181Y-94352750D01*
X115294000Y-94425317D01*
X115386086Y-94407000D01*
X115592888Y-94407000D01*
X115659423Y-94506577D01*
X116011758Y-94742000D01*
X115659423Y-94977423D01*
X115342260Y-95452091D01*
X115230887Y-96012000D01*
X115342260Y-96571909D01*
X115659423Y-97046577D01*
X116134091Y-97363740D01*
X116552667Y-97447000D01*
X117635333Y-97447000D01*
X118053909Y-97363740D01*
X118528577Y-97046577D01*
X118595112Y-96947000D01*
X119895914Y-96947000D01*
X119988000Y-96965317D01*
X120080086Y-96947000D01*
X120352819Y-96892750D01*
X120662097Y-96686097D01*
X120714261Y-96608028D01*
X121896030Y-95426260D01*
X121974096Y-95374098D01*
X122180749Y-95064820D01*
X122234999Y-94792087D01*
X122253316Y-94700001D01*
X122234999Y-94607915D01*
X122234999Y-92392079D01*
X122247739Y-92328029D01*
X122600002Y-92680292D01*
X122600002Y-92680292D01*
G37*
X122600002Y-92680292D02*
X122600001Y-94192637D01*
X122571683Y-94335001D01*
X122590001Y-94427091D01*
X122590001Y-95403826D01*
X122202496Y-95791331D01*
X121965000Y-96364697D01*
X121965000Y-96985303D01*
X122202496Y-97558669D01*
X122568827Y-97925000D01*
X122202496Y-98291331D01*
X121965000Y-98864697D01*
X121965000Y-99485303D01*
X122202496Y-100058669D01*
X122568827Y-100425000D01*
X122262970Y-100730857D01*
X122216852Y-100721684D01*
X122124770Y-100740000D01*
X122124767Y-100740000D01*
X121852034Y-100794250D01*
X121542756Y-101000903D01*
X121490594Y-101078969D01*
X120228972Y-102340592D01*
X120150903Y-102392756D01*
X120005746Y-102610000D01*
X119944250Y-102702035D01*
X119871683Y-103066853D01*
X119890000Y-103158939D01*
X119890001Y-108403709D01*
X114674711Y-113619000D01*
X113612599Y-113619000D01*
X113613381Y-113615073D01*
X113657000Y-113509766D01*
X113657000Y-113395783D01*
X113679235Y-113284000D01*
X113657000Y-113172217D01*
X113657000Y-113058234D01*
X113613381Y-112952928D01*
X113591146Y-112841145D01*
X113527827Y-112746381D01*
X113484207Y-112641074D01*
X113164926Y-112321793D01*
X113164924Y-112321792D01*
X110717429Y-109874298D01*
X110908577Y-109746577D01*
X111225740Y-109271909D01*
X111337113Y-108712000D01*
X111225740Y-108152091D01*
X110908577Y-107677423D01*
X110556242Y-107442000D01*
X110908577Y-107206577D01*
X110975112Y-107107000D01*
X111667914Y-107107000D01*
X111760000Y-107125317D01*
X111852086Y-107107000D01*
X112124819Y-107052750D01*
X112434097Y-106846097D01*
X112486261Y-106768028D01*
X114388031Y-104866259D01*
X114466097Y-104814097D01*
X114672750Y-104504819D01*
X114727000Y-104232086D01*
X114745317Y-104140000D01*
X114727000Y-104047914D01*
X114727000Y-103632000D01*
X115230887Y-103632000D01*
X115342260Y-104191909D01*
X115659423Y-104666577D01*
X116011758Y-104902000D01*
X115659423Y-105137423D01*
X115342260Y-105612091D01*
X115230887Y-106172000D01*
X115342260Y-106731909D01*
X115659423Y-107206577D01*
X116011758Y-107442000D01*
X115659423Y-107677423D01*
X115342260Y-108152091D01*
X115230887Y-108712000D01*
X115342260Y-109271909D01*
X115659423Y-109746577D01*
X116134091Y-110063740D01*
X116552667Y-110147000D01*
X117635333Y-110147000D01*
X118053909Y-110063740D01*
X118528577Y-109746577D01*
X118845740Y-109271909D01*
X118957113Y-108712000D01*
X118845740Y-108152091D01*
X118528577Y-107677423D01*
X118176242Y-107442000D01*
X118528577Y-107206577D01*
X118845740Y-106731909D01*
X118957113Y-106172000D01*
X118845740Y-105612091D01*
X118528577Y-105137423D01*
X118176242Y-104902000D01*
X118528577Y-104666577D01*
X118845740Y-104191909D01*
X118957113Y-103632000D01*
X118845740Y-103072091D01*
X118528577Y-102597423D01*
X118053909Y-102280260D01*
X117635333Y-102197000D01*
X116552667Y-102197000D01*
X116134091Y-102280260D01*
X115659423Y-102597423D01*
X115342260Y-103072091D01*
X115230887Y-103632000D01*
X114727000Y-103632000D01*
X114727000Y-94217657D01*
X114929181Y-94352750D01*
X115294000Y-94425317D01*
X115386086Y-94407000D01*
X115592888Y-94407000D01*
X115659423Y-94506577D01*
X116011758Y-94742000D01*
X115659423Y-94977423D01*
X115342260Y-95452091D01*
X115230887Y-96012000D01*
X115342260Y-96571909D01*
X115659423Y-97046577D01*
X116134091Y-97363740D01*
X116552667Y-97447000D01*
X117635333Y-97447000D01*
X118053909Y-97363740D01*
X118528577Y-97046577D01*
X118595112Y-96947000D01*
X119895914Y-96947000D01*
X119988000Y-96965317D01*
X120080086Y-96947000D01*
X120352819Y-96892750D01*
X120662097Y-96686097D01*
X120714261Y-96608028D01*
X121896030Y-95426260D01*
X121974096Y-95374098D01*
X122180749Y-95064820D01*
X122234999Y-94792087D01*
X122253316Y-94700001D01*
X122234999Y-94607915D01*
X122234999Y-92392079D01*
X122247739Y-92328029D01*
X122600002Y-92680292D01*
G36*
X100183506Y-89666465D02*
X100166751Y-89673405D01*
X99833405Y-90006751D01*
X99653000Y-90442289D01*
X99653000Y-90913711D01*
X99833405Y-91349249D01*
X100166751Y-91682595D01*
X100602289Y-91863000D01*
X101073711Y-91863000D01*
X101173001Y-91821873D01*
X101173000Y-92631604D01*
X100891466Y-92913138D01*
X100673000Y-93440561D01*
X100673000Y-94011439D01*
X100891466Y-94538862D01*
X101295138Y-94942534D01*
X101360299Y-94969525D01*
X101353995Y-94972136D01*
X101279861Y-95218255D01*
X102108000Y-96046395D01*
X102936139Y-95218255D01*
X102862005Y-94972136D01*
X102855254Y-94969710D01*
X102920862Y-94942534D01*
X103202396Y-94661000D01*
X103793914Y-94661000D01*
X103886000Y-94679317D01*
X103978086Y-94661000D01*
X104250819Y-94606750D01*
X104560097Y-94400097D01*
X104612261Y-94322028D01*
X107276028Y-91658261D01*
X107354097Y-91606097D01*
X107560750Y-91296819D01*
X107615000Y-91024086D01*
X107615000Y-91024085D01*
X107626560Y-90965970D01*
X107626560Y-91732000D01*
X107675843Y-91979765D01*
X107816191Y-92189809D01*
X108026235Y-92330157D01*
X108160106Y-92356785D01*
X108039423Y-92437423D01*
X107722260Y-92912091D01*
X107610887Y-93472000D01*
X107722260Y-94031909D01*
X108039423Y-94506577D01*
X108391758Y-94742000D01*
X108039423Y-94977423D01*
X107972888Y-95077000D01*
X105355086Y-95077000D01*
X105263000Y-95058683D01*
X105170914Y-95077000D01*
X104898181Y-95131250D01*
X104588903Y-95337903D01*
X104536741Y-95415969D01*
X103552916Y-96399795D01*
X103527778Y-95872546D01*
X103361864Y-95471995D01*
X103115745Y-95397861D01*
X102287605Y-96226000D01*
X102301748Y-96240143D01*
X102122143Y-96419748D01*
X102108000Y-96405605D01*
X102093858Y-96419748D01*
X101914253Y-96240143D01*
X101928395Y-96226000D01*
X101100255Y-95397861D01*
X100854136Y-95471995D01*
X100661035Y-96009223D01*
X100677132Y-96346842D01*
X98209000Y-93878711D01*
X98209000Y-93480561D01*
X97990534Y-92953138D01*
X97709000Y-92671604D01*
X97709000Y-91716664D01*
X98062289Y-91863000D01*
X98533711Y-91863000D01*
X98969249Y-91682595D01*
X99302595Y-91349249D01*
X99483000Y-90913711D01*
X99483000Y-90442289D01*
X99302595Y-90006751D01*
X99080774Y-89784930D01*
X99297490Y-89784930D01*
X99545255Y-89735647D01*
X99755299Y-89595299D01*
X99854595Y-89446693D01*
X100183506Y-89666465D01*
X100183506Y-89666465D01*
G37*
X100183506Y-89666465D02*
X100166751Y-89673405D01*
X99833405Y-90006751D01*
X99653000Y-90442289D01*
X99653000Y-90913711D01*
X99833405Y-91349249D01*
X100166751Y-91682595D01*
X100602289Y-91863000D01*
X101073711Y-91863000D01*
X101173001Y-91821873D01*
X101173000Y-92631604D01*
X100891466Y-92913138D01*
X100673000Y-93440561D01*
X100673000Y-94011439D01*
X100891466Y-94538862D01*
X101295138Y-94942534D01*
X101360299Y-94969525D01*
X101353995Y-94972136D01*
X101279861Y-95218255D01*
X102108000Y-96046395D01*
X102936139Y-95218255D01*
X102862005Y-94972136D01*
X102855254Y-94969710D01*
X102920862Y-94942534D01*
X103202396Y-94661000D01*
X103793914Y-94661000D01*
X103886000Y-94679317D01*
X103978086Y-94661000D01*
X104250819Y-94606750D01*
X104560097Y-94400097D01*
X104612261Y-94322028D01*
X107276028Y-91658261D01*
X107354097Y-91606097D01*
X107560750Y-91296819D01*
X107615000Y-91024086D01*
X107615000Y-91024085D01*
X107626560Y-90965970D01*
X107626560Y-91732000D01*
X107675843Y-91979765D01*
X107816191Y-92189809D01*
X108026235Y-92330157D01*
X108160106Y-92356785D01*
X108039423Y-92437423D01*
X107722260Y-92912091D01*
X107610887Y-93472000D01*
X107722260Y-94031909D01*
X108039423Y-94506577D01*
X108391758Y-94742000D01*
X108039423Y-94977423D01*
X107972888Y-95077000D01*
X105355086Y-95077000D01*
X105263000Y-95058683D01*
X105170914Y-95077000D01*
X104898181Y-95131250D01*
X104588903Y-95337903D01*
X104536741Y-95415969D01*
X103552916Y-96399795D01*
X103527778Y-95872546D01*
X103361864Y-95471995D01*
X103115745Y-95397861D01*
X102287605Y-96226000D01*
X102301748Y-96240143D01*
X102122143Y-96419748D01*
X102108000Y-96405605D01*
X102093858Y-96419748D01*
X101914253Y-96240143D01*
X101928395Y-96226000D01*
X101100255Y-95397861D01*
X100854136Y-95471995D01*
X100661035Y-96009223D01*
X100677132Y-96346842D01*
X98209000Y-93878711D01*
X98209000Y-93480561D01*
X97990534Y-92953138D01*
X97709000Y-92671604D01*
X97709000Y-91716664D01*
X98062289Y-91863000D01*
X98533711Y-91863000D01*
X98969249Y-91682595D01*
X99302595Y-91349249D01*
X99483000Y-90913711D01*
X99483000Y-90442289D01*
X99302595Y-90006751D01*
X99080774Y-89784930D01*
X99297490Y-89784930D01*
X99545255Y-89735647D01*
X99755299Y-89595299D01*
X99854595Y-89446693D01*
X100183506Y-89666465D01*
G04 #@! TD*
M02*
