G04 #@! TF.FileFunction,Legend,Top*
%FSLAX46Y46*%
G04 Gerber Fmt 4.6, Leading zero omitted, Abs format (unit mm)*
G04 Created by KiCad (PCBNEW 201611211049+7371~55~ubuntu16.10.1-product) date Tue Dec 27 15:06:12 2016*
%MOMM*%
%LPD*%
G01*
G04 APERTURE LIST*
%ADD10C,0.100000*%
%ADD11C,0.250000*%
%ADD12C,0.200000*%
%ADD13C,0.150000*%
%ADD14C,0.125000*%
%ADD15C,0.010000*%
G04 APERTURE END LIST*
D10*
D11*
X169489619Y-112212380D02*
X169156285Y-111736190D01*
X168918190Y-112212380D02*
X168918190Y-111212380D01*
X169299142Y-111212380D01*
X169394380Y-111260000D01*
X169442000Y-111307619D01*
X169489619Y-111402857D01*
X169489619Y-111545714D01*
X169442000Y-111640952D01*
X169394380Y-111688571D01*
X169299142Y-111736190D01*
X168918190Y-111736190D01*
X169918190Y-111688571D02*
X170251523Y-111688571D01*
X170394380Y-112212380D02*
X169918190Y-112212380D01*
X169918190Y-111212380D01*
X170394380Y-111212380D01*
X170775333Y-112164761D02*
X170918190Y-112212380D01*
X171156285Y-112212380D01*
X171251523Y-112164761D01*
X171299142Y-112117142D01*
X171346761Y-112021904D01*
X171346761Y-111926666D01*
X171299142Y-111831428D01*
X171251523Y-111783809D01*
X171156285Y-111736190D01*
X170965809Y-111688571D01*
X170870571Y-111640952D01*
X170822952Y-111593333D01*
X170775333Y-111498095D01*
X170775333Y-111402857D01*
X170822952Y-111307619D01*
X170870571Y-111260000D01*
X170965809Y-111212380D01*
X171203904Y-111212380D01*
X171346761Y-111260000D01*
X171775333Y-111688571D02*
X172108666Y-111688571D01*
X172251523Y-112212380D02*
X171775333Y-112212380D01*
X171775333Y-111212380D01*
X172251523Y-111212380D01*
X172537238Y-111212380D02*
X173108666Y-111212380D01*
X172822952Y-112212380D02*
X172822952Y-111212380D01*
D12*
X205176380Y-83780190D02*
X204176380Y-83780190D01*
X205128761Y-83351619D02*
X205176380Y-83208761D01*
X205176380Y-82970666D01*
X205128761Y-82875428D01*
X205081142Y-82827809D01*
X204985904Y-82780190D01*
X204890666Y-82780190D01*
X204795428Y-82827809D01*
X204747809Y-82875428D01*
X204700190Y-82970666D01*
X204652571Y-83161142D01*
X204604952Y-83256380D01*
X204557333Y-83304000D01*
X204462095Y-83351619D01*
X204366857Y-83351619D01*
X204271619Y-83304000D01*
X204224000Y-83256380D01*
X204176380Y-83161142D01*
X204176380Y-82923047D01*
X204224000Y-82780190D01*
X205176380Y-82351619D02*
X204176380Y-82351619D01*
X204176380Y-81970666D01*
X204224000Y-81875428D01*
X204271619Y-81827809D01*
X204366857Y-81780190D01*
X204509714Y-81780190D01*
X204604952Y-81827809D01*
X204652571Y-81875428D01*
X204700190Y-81970666D01*
X204700190Y-82351619D01*
X94202571Y-122356619D02*
X94250190Y-122309000D01*
X94345428Y-122261380D01*
X94583523Y-122261380D01*
X94678761Y-122309000D01*
X94726380Y-122356619D01*
X94774000Y-122451857D01*
X94774000Y-122547095D01*
X94726380Y-122689952D01*
X94154952Y-123261380D01*
X94774000Y-123261380D01*
X95631142Y-122594714D02*
X95631142Y-123261380D01*
X95393047Y-122213761D02*
X95154952Y-122928047D01*
X95774000Y-122928047D01*
X96012095Y-122261380D02*
X96345428Y-123261380D01*
X96678761Y-122261380D01*
X97774000Y-123261380D02*
X97774000Y-122261380D01*
X98012095Y-122261380D01*
X98154952Y-122309000D01*
X98250190Y-122404238D01*
X98297809Y-122499476D01*
X98345428Y-122689952D01*
X98345428Y-122832809D01*
X98297809Y-123023285D01*
X98250190Y-123118523D01*
X98154952Y-123213761D01*
X98012095Y-123261380D01*
X97774000Y-123261380D01*
X99345428Y-123166142D02*
X99297809Y-123213761D01*
X99154952Y-123261380D01*
X99059714Y-123261380D01*
X98916857Y-123213761D01*
X98821619Y-123118523D01*
X98774000Y-123023285D01*
X98726380Y-122832809D01*
X98726380Y-122689952D01*
X98774000Y-122499476D01*
X98821619Y-122404238D01*
X98916857Y-122309000D01*
X99059714Y-122261380D01*
X99154952Y-122261380D01*
X99297809Y-122309000D01*
X99345428Y-122356619D01*
D13*
X198747380Y-114371380D02*
X198747380Y-113371380D01*
X199128333Y-113371380D01*
X199223571Y-113419000D01*
X199271190Y-113466619D01*
X199318809Y-113561857D01*
X199318809Y-113704714D01*
X199271190Y-113799952D01*
X199223571Y-113847571D01*
X199128333Y-113895190D01*
X198747380Y-113895190D01*
X199937857Y-113371380D02*
X200128333Y-113371380D01*
X200223571Y-113419000D01*
X200318809Y-113514238D01*
X200366428Y-113704714D01*
X200366428Y-114038047D01*
X200318809Y-114228523D01*
X200223571Y-114323761D01*
X200128333Y-114371380D01*
X199937857Y-114371380D01*
X199842619Y-114323761D01*
X199747380Y-114228523D01*
X199699761Y-114038047D01*
X199699761Y-113704714D01*
X199747380Y-113514238D01*
X199842619Y-113419000D01*
X199937857Y-113371380D01*
X201366428Y-114371380D02*
X201033095Y-113895190D01*
X200795000Y-114371380D02*
X200795000Y-113371380D01*
X201175952Y-113371380D01*
X201271190Y-113419000D01*
X201318809Y-113466619D01*
X201366428Y-113561857D01*
X201366428Y-113704714D01*
X201318809Y-113799952D01*
X201271190Y-113847571D01*
X201175952Y-113895190D01*
X200795000Y-113895190D01*
X201652142Y-113371380D02*
X202223571Y-113371380D01*
X201937857Y-114371380D02*
X201937857Y-113371380D01*
X203318809Y-114371380D02*
X203318809Y-113371380D01*
X203556904Y-113371380D01*
X203699761Y-113419000D01*
X203795000Y-113514238D01*
X203842619Y-113609476D01*
X203890238Y-113799952D01*
X203890238Y-113942809D01*
X203842619Y-114133285D01*
X203795000Y-114228523D01*
X203699761Y-114323761D01*
X203556904Y-114371380D01*
X203318809Y-114371380D01*
X122039380Y-114371380D02*
X122039380Y-113371380D01*
X122420333Y-113371380D01*
X122515571Y-113419000D01*
X122563190Y-113466619D01*
X122610809Y-113561857D01*
X122610809Y-113704714D01*
X122563190Y-113799952D01*
X122515571Y-113847571D01*
X122420333Y-113895190D01*
X122039380Y-113895190D01*
X123229857Y-113371380D02*
X123420333Y-113371380D01*
X123515571Y-113419000D01*
X123610809Y-113514238D01*
X123658428Y-113704714D01*
X123658428Y-114038047D01*
X123610809Y-114228523D01*
X123515571Y-114323761D01*
X123420333Y-114371380D01*
X123229857Y-114371380D01*
X123134619Y-114323761D01*
X123039380Y-114228523D01*
X122991761Y-114038047D01*
X122991761Y-113704714D01*
X123039380Y-113514238D01*
X123134619Y-113419000D01*
X123229857Y-113371380D01*
X124658428Y-114371380D02*
X124325095Y-113895190D01*
X124087000Y-114371380D02*
X124087000Y-113371380D01*
X124467952Y-113371380D01*
X124563190Y-113419000D01*
X124610809Y-113466619D01*
X124658428Y-113561857D01*
X124658428Y-113704714D01*
X124610809Y-113799952D01*
X124563190Y-113847571D01*
X124467952Y-113895190D01*
X124087000Y-113895190D01*
X124944142Y-113371380D02*
X125515571Y-113371380D01*
X125229857Y-114371380D02*
X125229857Y-113371380D01*
X126944142Y-113847571D02*
X127087000Y-113895190D01*
X127134619Y-113942809D01*
X127182238Y-114038047D01*
X127182238Y-114180904D01*
X127134619Y-114276142D01*
X127087000Y-114323761D01*
X126991761Y-114371380D01*
X126610809Y-114371380D01*
X126610809Y-113371380D01*
X126944142Y-113371380D01*
X127039380Y-113419000D01*
X127087000Y-113466619D01*
X127134619Y-113561857D01*
X127134619Y-113657095D01*
X127087000Y-113752333D01*
X127039380Y-113799952D01*
X126944142Y-113847571D01*
X126610809Y-113847571D01*
X199763380Y-51887380D02*
X199763380Y-50887380D01*
X200144333Y-50887380D01*
X200239571Y-50935000D01*
X200287190Y-50982619D01*
X200334809Y-51077857D01*
X200334809Y-51220714D01*
X200287190Y-51315952D01*
X200239571Y-51363571D01*
X200144333Y-51411190D01*
X199763380Y-51411190D01*
X200953857Y-50887380D02*
X201144333Y-50887380D01*
X201239571Y-50935000D01*
X201334809Y-51030238D01*
X201382428Y-51220714D01*
X201382428Y-51554047D01*
X201334809Y-51744523D01*
X201239571Y-51839761D01*
X201144333Y-51887380D01*
X200953857Y-51887380D01*
X200858619Y-51839761D01*
X200763380Y-51744523D01*
X200715761Y-51554047D01*
X200715761Y-51220714D01*
X200763380Y-51030238D01*
X200858619Y-50935000D01*
X200953857Y-50887380D01*
X202382428Y-51887380D02*
X202049095Y-51411190D01*
X201811000Y-51887380D02*
X201811000Y-50887380D01*
X202191952Y-50887380D01*
X202287190Y-50935000D01*
X202334809Y-50982619D01*
X202382428Y-51077857D01*
X202382428Y-51220714D01*
X202334809Y-51315952D01*
X202287190Y-51363571D01*
X202191952Y-51411190D01*
X201811000Y-51411190D01*
X202668142Y-50887380D02*
X203239571Y-50887380D01*
X202953857Y-51887380D02*
X202953857Y-50887380D01*
X204906238Y-51792142D02*
X204858619Y-51839761D01*
X204715761Y-51887380D01*
X204620523Y-51887380D01*
X204477666Y-51839761D01*
X204382428Y-51744523D01*
X204334809Y-51649285D01*
X204287190Y-51458809D01*
X204287190Y-51315952D01*
X204334809Y-51125476D01*
X204382428Y-51030238D01*
X204477666Y-50935000D01*
X204620523Y-50887380D01*
X204715761Y-50887380D01*
X204858619Y-50935000D01*
X204906238Y-50982619D01*
X114998809Y-51760380D02*
X114998809Y-50760380D01*
X115379761Y-50760380D01*
X115475000Y-50808000D01*
X115522619Y-50855619D01*
X115570238Y-50950857D01*
X115570238Y-51093714D01*
X115522619Y-51188952D01*
X115475000Y-51236571D01*
X115379761Y-51284190D01*
X114998809Y-51284190D01*
X116189285Y-50760380D02*
X116379761Y-50760380D01*
X116475000Y-50808000D01*
X116570238Y-50903238D01*
X116617857Y-51093714D01*
X116617857Y-51427047D01*
X116570238Y-51617523D01*
X116475000Y-51712761D01*
X116379761Y-51760380D01*
X116189285Y-51760380D01*
X116094047Y-51712761D01*
X115998809Y-51617523D01*
X115951190Y-51427047D01*
X115951190Y-51093714D01*
X115998809Y-50903238D01*
X116094047Y-50808000D01*
X116189285Y-50760380D01*
X117617857Y-51760380D02*
X117284523Y-51284190D01*
X117046428Y-51760380D02*
X117046428Y-50760380D01*
X117427380Y-50760380D01*
X117522619Y-50808000D01*
X117570238Y-50855619D01*
X117617857Y-50950857D01*
X117617857Y-51093714D01*
X117570238Y-51188952D01*
X117522619Y-51236571D01*
X117427380Y-51284190D01*
X117046428Y-51284190D01*
X117903571Y-50760380D02*
X118475000Y-50760380D01*
X118189285Y-51760380D02*
X118189285Y-50760380D01*
X119522619Y-51474666D02*
X119998809Y-51474666D01*
X119427380Y-51760380D02*
X119760714Y-50760380D01*
X120094047Y-51760380D01*
D14*
X110337666Y-58705000D02*
X110271000Y-58671666D01*
X110171000Y-58671666D01*
X110071000Y-58705000D01*
X110004333Y-58771666D01*
X109971000Y-58838333D01*
X109937666Y-58971666D01*
X109937666Y-59071666D01*
X109971000Y-59205000D01*
X110004333Y-59271666D01*
X110071000Y-59338333D01*
X110171000Y-59371666D01*
X110237666Y-59371666D01*
X110337666Y-59338333D01*
X110371000Y-59305000D01*
X110371000Y-59071666D01*
X110237666Y-59071666D01*
X110671000Y-59371666D02*
X110671000Y-58671666D01*
X111071000Y-59371666D01*
X111071000Y-58671666D01*
X111404333Y-59371666D02*
X111404333Y-58671666D01*
X111571000Y-58671666D01*
X111671000Y-58705000D01*
X111737666Y-58771666D01*
X111771000Y-58838333D01*
X111804333Y-58971666D01*
X111804333Y-59071666D01*
X111771000Y-59205000D01*
X111737666Y-59271666D01*
X111671000Y-59338333D01*
X111571000Y-59371666D01*
X111404333Y-59371666D01*
X108070666Y-58671666D02*
X107737333Y-58671666D01*
X107704000Y-59005000D01*
X107737333Y-58971666D01*
X107804000Y-58938333D01*
X107970666Y-58938333D01*
X108037333Y-58971666D01*
X108070666Y-59005000D01*
X108104000Y-59071666D01*
X108104000Y-59238333D01*
X108070666Y-59305000D01*
X108037333Y-59338333D01*
X107970666Y-59371666D01*
X107804000Y-59371666D01*
X107737333Y-59338333D01*
X107704000Y-59305000D01*
X108304000Y-58671666D02*
X108537333Y-59371666D01*
X108770666Y-58671666D01*
X105230666Y-59371666D02*
X104830666Y-59371666D01*
X105030666Y-59371666D02*
X105030666Y-58671666D01*
X104964000Y-58771666D01*
X104897333Y-58838333D01*
X104830666Y-58871666D01*
X105497333Y-58738333D02*
X105530666Y-58705000D01*
X105597333Y-58671666D01*
X105764000Y-58671666D01*
X105830666Y-58705000D01*
X105864000Y-58738333D01*
X105897333Y-58805000D01*
X105897333Y-58871666D01*
X105864000Y-58971666D01*
X105464000Y-59371666D01*
X105897333Y-59371666D01*
X106097333Y-58671666D02*
X106330666Y-59371666D01*
X106564000Y-58671666D01*
X102163666Y-58738333D02*
X102197000Y-58705000D01*
X102263666Y-58671666D01*
X102430333Y-58671666D01*
X102497000Y-58705000D01*
X102530333Y-58738333D01*
X102563666Y-58805000D01*
X102563666Y-58871666D01*
X102530333Y-58971666D01*
X102130333Y-59371666D01*
X102563666Y-59371666D01*
X103163666Y-58905000D02*
X103163666Y-59371666D01*
X102997000Y-58638333D02*
X102830333Y-59138333D01*
X103263666Y-59138333D01*
X103430333Y-58671666D02*
X103663666Y-59371666D01*
X103897000Y-58671666D01*
X193014666Y-65783666D02*
X193414666Y-65783666D01*
X193214666Y-66483666D02*
X193214666Y-65783666D01*
X193581333Y-65783666D02*
X194048000Y-66483666D01*
X194048000Y-65783666D02*
X193581333Y-66483666D01*
X193431333Y-64197666D02*
X193198000Y-63864333D01*
X193031333Y-64197666D02*
X193031333Y-63497666D01*
X193298000Y-63497666D01*
X193364666Y-63531000D01*
X193398000Y-63564333D01*
X193431333Y-63631000D01*
X193431333Y-63731000D01*
X193398000Y-63797666D01*
X193364666Y-63831000D01*
X193298000Y-63864333D01*
X193031333Y-63864333D01*
X193664666Y-63497666D02*
X194131333Y-64197666D01*
X194131333Y-63497666D02*
X193664666Y-64197666D01*
X192887666Y-60864000D02*
X192821000Y-60830666D01*
X192721000Y-60830666D01*
X192621000Y-60864000D01*
X192554333Y-60930666D01*
X192521000Y-60997333D01*
X192487666Y-61130666D01*
X192487666Y-61230666D01*
X192521000Y-61364000D01*
X192554333Y-61430666D01*
X192621000Y-61497333D01*
X192721000Y-61530666D01*
X192787666Y-61530666D01*
X192887666Y-61497333D01*
X192921000Y-61464000D01*
X192921000Y-61230666D01*
X192787666Y-61230666D01*
X193221000Y-61530666D02*
X193221000Y-60830666D01*
X193621000Y-61530666D01*
X193621000Y-60830666D01*
X193954333Y-61530666D02*
X193954333Y-60830666D01*
X194121000Y-60830666D01*
X194221000Y-60864000D01*
X194287666Y-60930666D01*
X194321000Y-60997333D01*
X194354333Y-61130666D01*
X194354333Y-61230666D01*
X194321000Y-61364000D01*
X194287666Y-61430666D01*
X194221000Y-61497333D01*
X194121000Y-61530666D01*
X193954333Y-61530666D01*
X193541666Y-58290666D02*
X193208333Y-58290666D01*
X193175000Y-58624000D01*
X193208333Y-58590666D01*
X193275000Y-58557333D01*
X193441666Y-58557333D01*
X193508333Y-58590666D01*
X193541666Y-58624000D01*
X193575000Y-58690666D01*
X193575000Y-58857333D01*
X193541666Y-58924000D01*
X193508333Y-58957333D01*
X193441666Y-58990666D01*
X193275000Y-58990666D01*
X193208333Y-58957333D01*
X193175000Y-58924000D01*
X193775000Y-58290666D02*
X194008333Y-58990666D01*
X194241666Y-58290666D01*
D11*
X93710904Y-79349380D02*
X93901380Y-79349380D01*
X93996619Y-79397000D01*
X94091857Y-79492238D01*
X94139476Y-79682714D01*
X94139476Y-80016047D01*
X94091857Y-80206523D01*
X93996619Y-80301761D01*
X93901380Y-80349380D01*
X93710904Y-80349380D01*
X93615666Y-80301761D01*
X93520428Y-80206523D01*
X93472809Y-80016047D01*
X93472809Y-79682714D01*
X93520428Y-79492238D01*
X93615666Y-79397000D01*
X93710904Y-79349380D01*
X94568047Y-79682714D02*
X94568047Y-80682714D01*
X94568047Y-79730333D02*
X94663285Y-79682714D01*
X94853761Y-79682714D01*
X94949000Y-79730333D01*
X94996619Y-79777952D01*
X95044238Y-79873190D01*
X95044238Y-80158904D01*
X94996619Y-80254142D01*
X94949000Y-80301761D01*
X94853761Y-80349380D01*
X94663285Y-80349380D01*
X94568047Y-80301761D01*
X95853761Y-80301761D02*
X95758523Y-80349380D01*
X95568047Y-80349380D01*
X95472809Y-80301761D01*
X95425190Y-80206523D01*
X95425190Y-79825571D01*
X95472809Y-79730333D01*
X95568047Y-79682714D01*
X95758523Y-79682714D01*
X95853761Y-79730333D01*
X95901380Y-79825571D01*
X95901380Y-79920809D01*
X95425190Y-80016047D01*
X96329952Y-79682714D02*
X96329952Y-80349380D01*
X96329952Y-79777952D02*
X96377571Y-79730333D01*
X96472809Y-79682714D01*
X96615666Y-79682714D01*
X96710904Y-79730333D01*
X96758523Y-79825571D01*
X96758523Y-80349380D01*
X97996619Y-80349380D02*
X97996619Y-79349380D01*
X98377571Y-79349380D01*
X98472809Y-79397000D01*
X98520428Y-79444619D01*
X98568047Y-79539857D01*
X98568047Y-79682714D01*
X98520428Y-79777952D01*
X98472809Y-79825571D01*
X98377571Y-79873190D01*
X97996619Y-79873190D01*
X99472809Y-80349380D02*
X98996619Y-80349380D01*
X98996619Y-79349380D01*
X100377571Y-80254142D02*
X100329952Y-80301761D01*
X100187095Y-80349380D01*
X100091857Y-80349380D01*
X99949000Y-80301761D01*
X99853761Y-80206523D01*
X99806142Y-80111285D01*
X99758523Y-79920809D01*
X99758523Y-79777952D01*
X99806142Y-79587476D01*
X99853761Y-79492238D01*
X99949000Y-79397000D01*
X100091857Y-79349380D01*
X100187095Y-79349380D01*
X100329952Y-79397000D01*
X100377571Y-79444619D01*
X101568047Y-80349380D02*
X101568047Y-79349380D01*
X101949000Y-79349380D01*
X102044238Y-79397000D01*
X102091857Y-79444619D01*
X102139476Y-79539857D01*
X102139476Y-79682714D01*
X102091857Y-79777952D01*
X102044238Y-79825571D01*
X101949000Y-79873190D01*
X101568047Y-79873190D01*
X102568047Y-80349380D02*
X102568047Y-79682714D01*
X102568047Y-79873190D02*
X102615666Y-79777952D01*
X102663285Y-79730333D01*
X102758523Y-79682714D01*
X102853761Y-79682714D01*
X103329952Y-80349380D02*
X103234714Y-80301761D01*
X103187095Y-80254142D01*
X103139476Y-80158904D01*
X103139476Y-79873190D01*
X103187095Y-79777952D01*
X103234714Y-79730333D01*
X103329952Y-79682714D01*
X103472809Y-79682714D01*
X103568047Y-79730333D01*
X103615666Y-79777952D01*
X103663285Y-79873190D01*
X103663285Y-80158904D01*
X103615666Y-80254142D01*
X103568047Y-80301761D01*
X103472809Y-80349380D01*
X103329952Y-80349380D01*
X104091857Y-79682714D02*
X104091857Y-80539857D01*
X104044238Y-80635095D01*
X103949000Y-80682714D01*
X103901380Y-80682714D01*
X104091857Y-79349380D02*
X104044238Y-79397000D01*
X104091857Y-79444619D01*
X104139476Y-79397000D01*
X104091857Y-79349380D01*
X104091857Y-79444619D01*
X104949000Y-80301761D02*
X104853761Y-80349380D01*
X104663285Y-80349380D01*
X104568047Y-80301761D01*
X104520428Y-80206523D01*
X104520428Y-79825571D01*
X104568047Y-79730333D01*
X104663285Y-79682714D01*
X104853761Y-79682714D01*
X104949000Y-79730333D01*
X104996619Y-79825571D01*
X104996619Y-79920809D01*
X104520428Y-80016047D01*
X105853761Y-80301761D02*
X105758523Y-80349380D01*
X105568047Y-80349380D01*
X105472809Y-80301761D01*
X105425190Y-80254142D01*
X105377571Y-80158904D01*
X105377571Y-79873190D01*
X105425190Y-79777952D01*
X105472809Y-79730333D01*
X105568047Y-79682714D01*
X105758523Y-79682714D01*
X105853761Y-79730333D01*
X106139476Y-79682714D02*
X106520428Y-79682714D01*
X106282333Y-79349380D02*
X106282333Y-80206523D01*
X106329952Y-80301761D01*
X106425190Y-80349380D01*
X106520428Y-80349380D01*
X96044238Y-82099380D02*
X96044238Y-81099380D01*
X96520428Y-82099380D02*
X96520428Y-81099380D01*
X96853761Y-81099380D02*
X97425190Y-81099380D01*
X97139476Y-82099380D02*
X97139476Y-81099380D01*
X98853761Y-81575571D02*
X98996619Y-81623190D01*
X99044238Y-81670809D01*
X99091857Y-81766047D01*
X99091857Y-81908904D01*
X99044238Y-82004142D01*
X98996619Y-82051761D01*
X98901380Y-82099380D01*
X98520428Y-82099380D01*
X98520428Y-81099380D01*
X98853761Y-81099380D01*
X98949000Y-81147000D01*
X98996619Y-81194619D01*
X99044238Y-81289857D01*
X99044238Y-81385095D01*
X98996619Y-81480333D01*
X98949000Y-81527952D01*
X98853761Y-81575571D01*
X98520428Y-81575571D01*
X99663285Y-82099380D02*
X99568047Y-82051761D01*
X99520428Y-82004142D01*
X99472809Y-81908904D01*
X99472809Y-81623190D01*
X99520428Y-81527952D01*
X99568047Y-81480333D01*
X99663285Y-81432714D01*
X99806142Y-81432714D01*
X99901380Y-81480333D01*
X99949000Y-81527952D01*
X99996619Y-81623190D01*
X99996619Y-81908904D01*
X99949000Y-82004142D01*
X99901380Y-82051761D01*
X99806142Y-82099380D01*
X99663285Y-82099380D01*
X100425190Y-82099380D02*
X100425190Y-81432714D01*
X100425190Y-81527952D02*
X100472809Y-81480333D01*
X100568047Y-81432714D01*
X100710904Y-81432714D01*
X100806142Y-81480333D01*
X100853761Y-81575571D01*
X100853761Y-82099380D01*
X100853761Y-81575571D02*
X100901380Y-81480333D01*
X100996619Y-81432714D01*
X101139476Y-81432714D01*
X101234714Y-81480333D01*
X101282333Y-81575571D01*
X101282333Y-82099380D01*
X101758523Y-82099380D02*
X101758523Y-81099380D01*
X101758523Y-81480333D02*
X101853761Y-81432714D01*
X102044238Y-81432714D01*
X102139476Y-81480333D01*
X102187095Y-81527952D01*
X102234714Y-81623190D01*
X102234714Y-81908904D01*
X102187095Y-82004142D01*
X102139476Y-82051761D01*
X102044238Y-82099380D01*
X101853761Y-82099380D01*
X101758523Y-82051761D01*
X103091857Y-82099380D02*
X103091857Y-81575571D01*
X103044238Y-81480333D01*
X102949000Y-81432714D01*
X102758523Y-81432714D01*
X102663285Y-81480333D01*
X103091857Y-82051761D02*
X102996619Y-82099380D01*
X102758523Y-82099380D01*
X102663285Y-82051761D01*
X102615666Y-81956523D01*
X102615666Y-81861285D01*
X102663285Y-81766047D01*
X102758523Y-81718428D01*
X102996619Y-81718428D01*
X103091857Y-81670809D01*
X103472809Y-81432714D02*
X103710904Y-82099380D01*
X103949000Y-81432714D02*
X103710904Y-82099380D01*
X103615666Y-82337476D01*
X103568047Y-82385095D01*
X103472809Y-82432714D01*
D13*
X106975000Y-103831000D02*
X111973000Y-103831000D01*
X106983000Y-103691000D02*
X111965000Y-103691000D01*
X106999000Y-103551000D02*
X109379000Y-103551000D01*
X109569000Y-103551000D02*
X111949000Y-103551000D01*
X107023000Y-103411000D02*
X108984000Y-103411000D01*
X109964000Y-103411000D02*
X111925000Y-103411000D01*
X107056000Y-103271000D02*
X108817000Y-103271000D01*
X110131000Y-103271000D02*
X111892000Y-103271000D01*
X107097000Y-103131000D02*
X108710000Y-103131000D01*
X110238000Y-103131000D02*
X111851000Y-103131000D01*
X107147000Y-102991000D02*
X108639000Y-102991000D01*
X110309000Y-102991000D02*
X111801000Y-102991000D01*
X107208000Y-102851000D02*
X108595000Y-102851000D01*
X110353000Y-102851000D02*
X111740000Y-102851000D01*
X107278000Y-102711000D02*
X108576000Y-102711000D01*
X110372000Y-102711000D02*
X111670000Y-102711000D01*
X107360000Y-102571000D02*
X108578000Y-102571000D01*
X110370000Y-102571000D02*
X111588000Y-102571000D01*
X107455000Y-102431000D02*
X108603000Y-102431000D01*
X110345000Y-102431000D02*
X111493000Y-102431000D01*
X107566000Y-102291000D02*
X108651000Y-102291000D01*
X110297000Y-102291000D02*
X111382000Y-102291000D01*
X107694000Y-102151000D02*
X108729000Y-102151000D01*
X110219000Y-102151000D02*
X111254000Y-102151000D01*
X107843000Y-102011000D02*
X108846000Y-102011000D01*
X110102000Y-102011000D02*
X111105000Y-102011000D01*
X108022000Y-101871000D02*
X109034000Y-101871000D01*
X109914000Y-101871000D02*
X110926000Y-101871000D01*
X108241000Y-101731000D02*
X110707000Y-101731000D01*
X108530000Y-101591000D02*
X110418000Y-101591000D01*
X109002000Y-101451000D02*
X109946000Y-101451000D01*
X110374000Y-102656000D02*
G75*
G03X110374000Y-102656000I-900000J0D01*
G01*
X112011500Y-103906000D02*
G75*
G03X112011500Y-103906000I-2537500J0D01*
G01*
X111846000Y-94924000D02*
X106848000Y-94924000D01*
X111838000Y-95064000D02*
X106856000Y-95064000D01*
X111822000Y-95204000D02*
X109442000Y-95204000D01*
X109252000Y-95204000D02*
X106872000Y-95204000D01*
X111798000Y-95344000D02*
X109837000Y-95344000D01*
X108857000Y-95344000D02*
X106896000Y-95344000D01*
X111765000Y-95484000D02*
X110004000Y-95484000D01*
X108690000Y-95484000D02*
X106929000Y-95484000D01*
X111724000Y-95624000D02*
X110111000Y-95624000D01*
X108583000Y-95624000D02*
X106970000Y-95624000D01*
X111674000Y-95764000D02*
X110182000Y-95764000D01*
X108512000Y-95764000D02*
X107020000Y-95764000D01*
X111613000Y-95904000D02*
X110226000Y-95904000D01*
X108468000Y-95904000D02*
X107081000Y-95904000D01*
X111543000Y-96044000D02*
X110245000Y-96044000D01*
X108449000Y-96044000D02*
X107151000Y-96044000D01*
X111461000Y-96184000D02*
X110243000Y-96184000D01*
X108451000Y-96184000D02*
X107233000Y-96184000D01*
X111366000Y-96324000D02*
X110218000Y-96324000D01*
X108476000Y-96324000D02*
X107328000Y-96324000D01*
X111255000Y-96464000D02*
X110170000Y-96464000D01*
X108524000Y-96464000D02*
X107439000Y-96464000D01*
X111127000Y-96604000D02*
X110092000Y-96604000D01*
X108602000Y-96604000D02*
X107567000Y-96604000D01*
X110978000Y-96744000D02*
X109975000Y-96744000D01*
X108719000Y-96744000D02*
X107716000Y-96744000D01*
X110799000Y-96884000D02*
X109787000Y-96884000D01*
X108907000Y-96884000D02*
X107895000Y-96884000D01*
X110580000Y-97024000D02*
X108114000Y-97024000D01*
X110291000Y-97164000D02*
X108403000Y-97164000D01*
X109819000Y-97304000D02*
X108875000Y-97304000D01*
X110247000Y-96099000D02*
G75*
G03X110247000Y-96099000I-900000J0D01*
G01*
X111884500Y-94849000D02*
G75*
G03X111884500Y-94849000I-2537500J0D01*
G01*
X100020120Y-121602500D02*
X109021880Y-121602500D01*
X100020120Y-125102620D02*
X109021880Y-125102620D01*
X109021880Y-125102620D02*
X109021880Y-110601760D01*
X109021880Y-110601760D02*
X100020120Y-110601760D01*
X100020120Y-110601760D02*
X100020120Y-125102620D01*
X203813000Y-72390000D02*
X203813000Y-92710000D01*
X203263000Y-72930000D02*
X203263000Y-92150000D01*
X194713000Y-72390000D02*
X194713000Y-92710000D01*
X195263000Y-72930000D02*
X195263000Y-80300000D01*
X195263000Y-84800000D02*
X195263000Y-92150000D01*
X195263000Y-80300000D02*
X194713000Y-80300000D01*
X195263000Y-84800000D02*
X194713000Y-84800000D01*
X203813000Y-72390000D02*
X194713000Y-72390000D01*
X203263000Y-72930000D02*
X195263000Y-72930000D01*
X203813000Y-92710000D02*
X194713000Y-92710000D01*
X203263000Y-92150000D02*
X195263000Y-92150000D01*
X203813000Y-72390000D02*
X203263000Y-72930000D01*
X203813000Y-92710000D02*
X203263000Y-92150000D01*
X194713000Y-72390000D02*
X195263000Y-72930000D01*
X194713000Y-92710000D02*
X195263000Y-92150000D01*
X95501460Y-96520000D02*
X95501460Y-95504000D01*
X95501460Y-101346000D02*
X95501460Y-102616000D01*
X94231460Y-101092000D02*
X96771460Y-101092000D01*
X94231460Y-100838000D02*
X96771460Y-100838000D01*
X94231460Y-100584000D02*
X96771460Y-100584000D01*
X94231460Y-101346000D02*
X96771460Y-101346000D01*
X94231460Y-100330000D02*
X96771460Y-101600000D01*
X94231460Y-101600000D02*
X96771460Y-100330000D01*
X94231460Y-100330000D02*
X96771460Y-100330000D01*
X94231460Y-100965000D02*
X96771460Y-100965000D01*
X96771460Y-101600000D02*
X94231460Y-101600000D01*
X94231460Y-101600000D02*
X94231460Y-96520000D01*
X94231460Y-96520000D02*
X96771460Y-96520000D01*
X96771460Y-96520000D02*
X96771460Y-101600000D01*
X94996000Y-116459000D02*
X94996000Y-111379000D01*
X94996000Y-111379000D02*
X97536000Y-111379000D01*
X97536000Y-111379000D02*
X97536000Y-116459000D01*
X97536000Y-116459000D02*
X94996000Y-116459000D01*
X96266000Y-116459000D02*
X96266000Y-117729000D01*
X96266000Y-111379000D02*
X96266000Y-110109000D01*
X139818000Y-91940000D02*
X141088000Y-91940000D01*
X139818000Y-76970000D02*
X141088000Y-76970000D01*
X192668000Y-76970000D02*
X191398000Y-76970000D01*
X192668000Y-91940000D02*
X191398000Y-91940000D01*
X139818000Y-91940000D02*
X139818000Y-76970000D01*
X192668000Y-91940000D02*
X192668000Y-76970000D01*
X141088000Y-91940000D02*
X141088000Y-93225000D01*
X172192000Y-107188000D02*
G75*
G03X172192000Y-107188000I-1250000J0D01*
G01*
X174192000Y-109938000D02*
X174192000Y-110588000D01*
X174192000Y-110588000D02*
X167692000Y-110588000D01*
X167692000Y-110588000D02*
X167692000Y-109938000D01*
X174192000Y-104438000D02*
X174192000Y-103788000D01*
X174192000Y-103788000D02*
X167692000Y-103788000D01*
X167692000Y-103788000D02*
X167692000Y-104438000D01*
X174192000Y-105938000D02*
X174192000Y-108438000D01*
X167692000Y-105938000D02*
X167692000Y-108438000D01*
X98933000Y-100330000D02*
X100076000Y-100330000D01*
X98933000Y-97282000D02*
X100076000Y-97282000D01*
X100076000Y-93472000D02*
X103759000Y-93472000D01*
X103759000Y-93472000D02*
X103759000Y-104140000D01*
X103759000Y-104140000D02*
X100076000Y-104140000D01*
X98933000Y-93472000D02*
X100076000Y-93472000D01*
X100076000Y-93472000D02*
X100076000Y-104140000D01*
X100076000Y-104140000D02*
X98933000Y-104140000D01*
X98933000Y-98806000D02*
X98933000Y-104140000D01*
X98933000Y-98806000D02*
X98933000Y-93472000D01*
X176276000Y-96662240D02*
X176476660Y-97063560D01*
X176476660Y-97063560D02*
X176578260Y-97663000D01*
X176578260Y-97663000D02*
X176476660Y-98163380D01*
X176476660Y-98163380D02*
X176077880Y-98861880D01*
X176077880Y-98861880D02*
X175475900Y-99263200D01*
X175475900Y-99263200D02*
X174876460Y-99463860D01*
X174876460Y-99463860D02*
X168277540Y-99463860D01*
X168277540Y-99463860D02*
X167576500Y-99263200D01*
X167576500Y-99263200D02*
X167177720Y-98963480D01*
X167177720Y-98963480D02*
X166776400Y-98463100D01*
X166776400Y-98463100D02*
X166575740Y-97863660D01*
X166575740Y-97863660D02*
X166575740Y-97363280D01*
X166575740Y-97363280D02*
X166776400Y-96862900D01*
X166776400Y-96862900D02*
X167276780Y-96263460D01*
X167276780Y-96263460D02*
X167777160Y-95963740D01*
X167777160Y-95963740D02*
X168277540Y-95862140D01*
X168376600Y-95862140D02*
X174978060Y-95862140D01*
X174978060Y-95862140D02*
X175376840Y-95963740D01*
X175376840Y-95963740D02*
X175877220Y-96263460D01*
X175877220Y-96263460D02*
X176377600Y-96763840D01*
X168386760Y-95333820D02*
X167927020Y-95382080D01*
X167927020Y-95382080D02*
X167528240Y-95493840D01*
X167528240Y-95493840D02*
X167096440Y-95712280D01*
X167096440Y-95712280D02*
X166806880Y-95943420D01*
X166806880Y-95943420D02*
X166476680Y-96293940D01*
X166476680Y-96293940D02*
X166187120Y-96832420D01*
X166187120Y-96832420D02*
X166057580Y-97431860D01*
X166057580Y-97431860D02*
X166057580Y-97942400D01*
X166057580Y-97942400D02*
X166227760Y-98643440D01*
X166227760Y-98643440D02*
X166626540Y-99232720D01*
X166626540Y-99232720D02*
X167086280Y-99603560D01*
X167086280Y-99603560D02*
X167507920Y-99811840D01*
X167507920Y-99811840D02*
X167957500Y-99971860D01*
X167957500Y-99971860D02*
X168396920Y-100002340D01*
X175737520Y-99783900D02*
X176115980Y-99562920D01*
X176115980Y-99562920D02*
X176436020Y-99283520D01*
X176436020Y-99283520D02*
X176687480Y-98953320D01*
X176687480Y-98953320D02*
X176987200Y-98402140D01*
X176987200Y-98402140D02*
X177096420Y-97932240D01*
X177096420Y-97932240D02*
X177116740Y-97472500D01*
X177116740Y-97472500D02*
X177027840Y-97012760D01*
X177027840Y-97012760D02*
X176837340Y-96563180D01*
X176837340Y-96563180D02*
X176476660Y-96093280D01*
X176476660Y-96093280D02*
X176126140Y-95773240D01*
X176126140Y-95773240D02*
X175737520Y-95542100D01*
X175737520Y-95542100D02*
X175308260Y-95402400D01*
X175308260Y-95402400D02*
X174866300Y-95333820D01*
X168376600Y-99992180D02*
X174828200Y-99992180D01*
X174828200Y-99992180D02*
X175247300Y-99954080D01*
X175247300Y-99954080D02*
X175737520Y-99783900D01*
X168376600Y-95333820D02*
X174828200Y-95333820D01*
X164123000Y-99957000D02*
X164123000Y-100957000D01*
X165823000Y-100957000D02*
X165823000Y-99957000D01*
X169918000Y-100750000D02*
X168918000Y-100750000D01*
X168918000Y-102450000D02*
X169918000Y-102450000D01*
X165696000Y-96512000D02*
X165696000Y-95512000D01*
X163996000Y-95512000D02*
X163996000Y-96512000D01*
X98247000Y-88531000D02*
X95547000Y-88531000D01*
X98247000Y-90031000D02*
X95547000Y-90031000D01*
X96747000Y-89131000D02*
X96747000Y-89381000D01*
X96747000Y-89381000D02*
X96897000Y-89231000D01*
X96997000Y-89631000D02*
X96997000Y-88931000D01*
X96647000Y-89281000D02*
X96297000Y-89281000D01*
X96997000Y-89281000D02*
X96647000Y-89631000D01*
X96647000Y-89631000D02*
X96647000Y-88931000D01*
X96647000Y-88931000D02*
X96997000Y-89281000D01*
X104394000Y-52832000D02*
X112014000Y-52832000D01*
X112014000Y-52832000D02*
X112014000Y-57912000D01*
X112014000Y-57912000D02*
X101854000Y-57912000D01*
X101854000Y-57912000D02*
X101854000Y-55372000D01*
X103124000Y-52552000D02*
X101574000Y-52552000D01*
X101854000Y-55372000D02*
X104394000Y-55372000D01*
X104394000Y-55372000D02*
X104394000Y-52832000D01*
X101574000Y-52552000D02*
X101574000Y-54102000D01*
X102073000Y-90283000D02*
X100873000Y-90283000D01*
X100873000Y-88533000D02*
X102073000Y-88533000D01*
X177560000Y-100422000D02*
X177560000Y-99222000D01*
X179310000Y-99222000D02*
X179310000Y-100422000D01*
X180227000Y-100422000D02*
X180227000Y-99222000D01*
X181977000Y-99222000D02*
X181977000Y-100422000D01*
X183021000Y-100422000D02*
X183021000Y-99222000D01*
X184771000Y-99222000D02*
X184771000Y-100422000D01*
X185815000Y-100422000D02*
X185815000Y-99222000D01*
X187565000Y-99222000D02*
X187565000Y-100422000D01*
X188609000Y-100422000D02*
X188609000Y-99222000D01*
X190359000Y-99222000D02*
X190359000Y-100422000D01*
X191403000Y-100422000D02*
X191403000Y-99222000D01*
X193153000Y-99222000D02*
X193153000Y-100422000D01*
X194197000Y-100422000D02*
X194197000Y-99222000D01*
X195947000Y-99222000D02*
X195947000Y-100422000D01*
X196991000Y-100422000D02*
X196991000Y-99222000D01*
X198741000Y-99222000D02*
X198741000Y-100422000D01*
X141083000Y-63789000D02*
X141083000Y-64989000D01*
X139333000Y-64989000D02*
X139333000Y-63789000D01*
X143877000Y-63789000D02*
X143877000Y-64989000D01*
X142127000Y-64989000D02*
X142127000Y-63789000D01*
X146671000Y-63789000D02*
X146671000Y-64989000D01*
X144921000Y-64989000D02*
X144921000Y-63789000D01*
X149465000Y-63789000D02*
X149465000Y-64989000D01*
X147715000Y-64989000D02*
X147715000Y-63789000D01*
X152259000Y-63789000D02*
X152259000Y-64989000D01*
X150509000Y-64989000D02*
X150509000Y-63789000D01*
X155053000Y-63789000D02*
X155053000Y-64989000D01*
X153303000Y-64989000D02*
X153303000Y-63789000D01*
X157847000Y-63789000D02*
X157847000Y-64989000D01*
X156097000Y-64989000D02*
X156097000Y-63789000D01*
X160641000Y-63789000D02*
X160641000Y-64989000D01*
X158891000Y-64989000D02*
X158891000Y-63789000D01*
X139841000Y-100930000D02*
X139841000Y-99730000D01*
X141591000Y-99730000D02*
X141591000Y-100930000D01*
X142635000Y-100930000D02*
X142635000Y-99730000D01*
X144385000Y-99730000D02*
X144385000Y-100930000D01*
X145429000Y-100930000D02*
X145429000Y-99730000D01*
X147179000Y-99730000D02*
X147179000Y-100930000D01*
X148223000Y-100930000D02*
X148223000Y-99730000D01*
X149973000Y-99730000D02*
X149973000Y-100930000D01*
X151017000Y-100930000D02*
X151017000Y-99730000D01*
X152767000Y-99730000D02*
X152767000Y-100930000D01*
X153811000Y-100930000D02*
X153811000Y-99730000D01*
X155561000Y-99730000D02*
X155561000Y-100930000D01*
X156605000Y-100930000D02*
X156605000Y-99730000D01*
X158355000Y-99730000D02*
X158355000Y-100930000D01*
X159399000Y-100930000D02*
X159399000Y-99730000D01*
X161149000Y-99730000D02*
X161149000Y-100930000D01*
X170674000Y-64551000D02*
X170674000Y-65751000D01*
X168924000Y-65751000D02*
X168924000Y-64551000D01*
X190232000Y-64551000D02*
X190232000Y-65751000D01*
X188482000Y-65751000D02*
X188482000Y-64551000D01*
X187438000Y-64551000D02*
X187438000Y-65751000D01*
X185688000Y-65751000D02*
X185688000Y-64551000D01*
X184644000Y-64551000D02*
X184644000Y-65751000D01*
X182894000Y-65751000D02*
X182894000Y-64551000D01*
X181850000Y-64551000D02*
X181850000Y-65751000D01*
X180100000Y-65751000D02*
X180100000Y-64551000D01*
X179056000Y-64551000D02*
X179056000Y-65751000D01*
X177306000Y-65751000D02*
X177306000Y-64551000D01*
X176262000Y-64551000D02*
X176262000Y-65751000D01*
X174512000Y-65751000D02*
X174512000Y-64551000D01*
X173468000Y-64551000D02*
X173468000Y-65751000D01*
X171718000Y-65751000D02*
X171718000Y-64551000D01*
X203541000Y-50031000D02*
X203541000Y-40231000D01*
X163541000Y-50031000D02*
X203541000Y-50031000D01*
X163541000Y-40231000D02*
X163541000Y-50031000D01*
X203541000Y-40231000D02*
X163541000Y-40231000D01*
X203541000Y-40731000D02*
X163541000Y-40731000D01*
X203541000Y-47131000D02*
X163541000Y-47131000D01*
X203541000Y-42231000D02*
X163541000Y-42231000D01*
X203041000Y-44731000D02*
G75*
G03X203041000Y-44731000I-2000000J0D01*
G01*
X198041000Y-44731000D02*
G75*
G03X198041000Y-44731000I-2000000J0D01*
G01*
X198541000Y-40731000D02*
X198541000Y-40231000D01*
X193541000Y-40731000D02*
X193541000Y-40231000D01*
X193041000Y-44731000D02*
G75*
G03X193041000Y-44731000I-2000000J0D01*
G01*
X188041000Y-44731000D02*
G75*
G03X188041000Y-44731000I-2000000J0D01*
G01*
X188541000Y-40731000D02*
X188541000Y-40231000D01*
X183041000Y-44731000D02*
G75*
G03X183041000Y-44731000I-2000000J0D01*
G01*
X183541000Y-40731000D02*
X183541000Y-40231000D01*
X178541000Y-40731000D02*
X178541000Y-40231000D01*
X178041000Y-44731000D02*
G75*
G03X178041000Y-44731000I-2000000J0D01*
G01*
X173041000Y-44731000D02*
G75*
G03X173041000Y-44731000I-2000000J0D01*
G01*
X173541000Y-40731000D02*
X173541000Y-40231000D01*
X168541000Y-40731000D02*
X168541000Y-40231000D01*
X168041000Y-44731000D02*
G75*
G03X168041000Y-44731000I-2000000J0D01*
G01*
X202989000Y-120369000D02*
G75*
G03X202989000Y-120369000I-2000000J0D01*
G01*
X198489000Y-124369000D02*
X198489000Y-124869000D01*
X193489000Y-124369000D02*
X193489000Y-124869000D01*
X197989000Y-120369000D02*
G75*
G03X197989000Y-120369000I-2000000J0D01*
G01*
X192989000Y-120369000D02*
G75*
G03X192989000Y-120369000I-2000000J0D01*
G01*
X188489000Y-124369000D02*
X188489000Y-124869000D01*
X183489000Y-124369000D02*
X183489000Y-124869000D01*
X187989000Y-120369000D02*
G75*
G03X187989000Y-120369000I-2000000J0D01*
G01*
X178489000Y-124369000D02*
X178489000Y-124869000D01*
X182989000Y-120369000D02*
G75*
G03X182989000Y-120369000I-2000000J0D01*
G01*
X177989000Y-120369000D02*
G75*
G03X177989000Y-120369000I-2000000J0D01*
G01*
X173489000Y-124369000D02*
X173489000Y-124869000D01*
X168489000Y-124369000D02*
X168489000Y-124869000D01*
X172989000Y-120369000D02*
G75*
G03X172989000Y-120369000I-2000000J0D01*
G01*
X167989000Y-120369000D02*
G75*
G03X167989000Y-120369000I-2000000J0D01*
G01*
X163489000Y-122869000D02*
X203489000Y-122869000D01*
X163489000Y-117969000D02*
X203489000Y-117969000D01*
X163489000Y-124369000D02*
X203489000Y-124369000D01*
X163489000Y-124869000D02*
X203489000Y-124869000D01*
X203489000Y-124869000D02*
X203489000Y-115069000D01*
X203489000Y-115069000D02*
X163489000Y-115069000D01*
X163489000Y-115069000D02*
X163489000Y-124869000D01*
X105242000Y-44731000D02*
G75*
G03X105242000Y-44731000I-2000000J0D01*
G01*
X105742000Y-40731000D02*
X105742000Y-40231000D01*
X110742000Y-40731000D02*
X110742000Y-40231000D01*
X110242000Y-44731000D02*
G75*
G03X110242000Y-44731000I-2000000J0D01*
G01*
X115242000Y-44731000D02*
G75*
G03X115242000Y-44731000I-2000000J0D01*
G01*
X115742000Y-40731000D02*
X115742000Y-40231000D01*
X120742000Y-40731000D02*
X120742000Y-40231000D01*
X120242000Y-44731000D02*
G75*
G03X120242000Y-44731000I-2000000J0D01*
G01*
X125242000Y-44731000D02*
G75*
G03X125242000Y-44731000I-2000000J0D01*
G01*
X125742000Y-40731000D02*
X125742000Y-40231000D01*
X130742000Y-40731000D02*
X130742000Y-40231000D01*
X130242000Y-44731000D02*
G75*
G03X130242000Y-44731000I-2000000J0D01*
G01*
X135242000Y-44731000D02*
G75*
G03X135242000Y-44731000I-2000000J0D01*
G01*
X135742000Y-40731000D02*
X135742000Y-40231000D01*
X140742000Y-40731000D02*
X140742000Y-40231000D01*
X140242000Y-44731000D02*
G75*
G03X140242000Y-44731000I-2000000J0D01*
G01*
X145742000Y-40731000D02*
X145742000Y-40231000D01*
X145242000Y-44731000D02*
G75*
G03X145242000Y-44731000I-2000000J0D01*
G01*
X150242000Y-44731000D02*
G75*
G03X150242000Y-44731000I-2000000J0D01*
G01*
X150742000Y-40731000D02*
X150742000Y-40231000D01*
X155742000Y-40731000D02*
X155742000Y-40231000D01*
X155242000Y-44731000D02*
G75*
G03X155242000Y-44731000I-2000000J0D01*
G01*
X160242000Y-44731000D02*
G75*
G03X160242000Y-44731000I-2000000J0D01*
G01*
X160742000Y-42231000D02*
X100742000Y-42231000D01*
X160742000Y-47131000D02*
X100742000Y-47131000D01*
X160742000Y-40731000D02*
X100742000Y-40731000D01*
X160742000Y-40231000D02*
X100742000Y-40231000D01*
X100742000Y-40231000D02*
X100742000Y-50031000D01*
X100742000Y-50031000D02*
X160742000Y-50031000D01*
X160742000Y-50031000D02*
X160742000Y-40231000D01*
X161841000Y-120496000D02*
G75*
G03X161841000Y-120496000I-2000000J0D01*
G01*
X157341000Y-124496000D02*
X157341000Y-124996000D01*
X152341000Y-124496000D02*
X152341000Y-124996000D01*
X156841000Y-120496000D02*
G75*
G03X156841000Y-120496000I-2000000J0D01*
G01*
X151841000Y-120496000D02*
G75*
G03X151841000Y-120496000I-2000000J0D01*
G01*
X147341000Y-124496000D02*
X147341000Y-124996000D01*
X142341000Y-124496000D02*
X142341000Y-124996000D01*
X146841000Y-120496000D02*
G75*
G03X146841000Y-120496000I-2000000J0D01*
G01*
X137341000Y-124496000D02*
X137341000Y-124996000D01*
X141841000Y-120496000D02*
G75*
G03X141841000Y-120496000I-2000000J0D01*
G01*
X136841000Y-120496000D02*
G75*
G03X136841000Y-120496000I-2000000J0D01*
G01*
X132341000Y-124496000D02*
X132341000Y-124996000D01*
X127341000Y-124496000D02*
X127341000Y-124996000D01*
X131841000Y-120496000D02*
G75*
G03X131841000Y-120496000I-2000000J0D01*
G01*
X126841000Y-120496000D02*
G75*
G03X126841000Y-120496000I-2000000J0D01*
G01*
X122341000Y-122996000D02*
X162341000Y-122996000D01*
X122341000Y-118096000D02*
X162341000Y-118096000D01*
X122341000Y-124496000D02*
X162341000Y-124496000D01*
X122341000Y-124996000D02*
X162341000Y-124996000D01*
X162341000Y-124996000D02*
X162341000Y-115196000D01*
X162341000Y-115196000D02*
X122341000Y-115196000D01*
X122341000Y-115196000D02*
X122341000Y-124996000D01*
X157861000Y-106553000D02*
X140081000Y-106553000D01*
X140081000Y-106553000D02*
X140081000Y-109093000D01*
X140081000Y-109093000D02*
X157861000Y-109093000D01*
X160681000Y-106273000D02*
X159131000Y-106273000D01*
X157861000Y-106553000D02*
X157861000Y-109093000D01*
X159131000Y-109373000D02*
X160681000Y-109373000D01*
X160681000Y-109373000D02*
X160681000Y-106273000D01*
X132334000Y-58166000D02*
X160274000Y-58166000D01*
X160274000Y-58166000D02*
X160274000Y-55626000D01*
X160274000Y-55626000D02*
X132334000Y-55626000D01*
X129514000Y-58446000D02*
X131064000Y-58446000D01*
X132334000Y-58166000D02*
X132334000Y-55626000D01*
X131064000Y-55346000D02*
X129514000Y-55346000D01*
X129514000Y-55346000D02*
X129514000Y-58446000D01*
X168884000Y-55854000D02*
X168884000Y-58954000D01*
X170434000Y-55854000D02*
X168884000Y-55854000D01*
X171704000Y-58674000D02*
X171704000Y-56134000D01*
X168884000Y-58954000D02*
X170434000Y-58954000D01*
X189484000Y-56134000D02*
X171704000Y-56134000D01*
X189484000Y-58674000D02*
X189484000Y-56134000D01*
X171704000Y-58674000D02*
X189484000Y-58674000D01*
X194818000Y-106426000D02*
X177038000Y-106426000D01*
X177038000Y-106426000D02*
X177038000Y-108966000D01*
X177038000Y-108966000D02*
X194818000Y-108966000D01*
X197638000Y-106146000D02*
X196088000Y-106146000D01*
X194818000Y-106426000D02*
X194818000Y-108966000D01*
X196088000Y-109246000D02*
X197638000Y-109246000D01*
X197638000Y-109246000D02*
X197638000Y-106146000D01*
X132207000Y-51562000D02*
X160147000Y-51562000D01*
X160147000Y-51562000D02*
X160147000Y-54102000D01*
X160147000Y-54102000D02*
X132207000Y-54102000D01*
X129387000Y-51282000D02*
X130937000Y-51282000D01*
X132207000Y-51562000D02*
X132207000Y-54102000D01*
X130937000Y-54382000D02*
X129387000Y-54382000D01*
X129387000Y-54382000D02*
X129387000Y-51282000D01*
X157861000Y-113538000D02*
X140081000Y-113538000D01*
X140081000Y-113538000D02*
X140081000Y-110998000D01*
X140081000Y-110998000D02*
X157861000Y-110998000D01*
X160681000Y-113818000D02*
X159131000Y-113818000D01*
X157861000Y-113538000D02*
X157861000Y-110998000D01*
X159131000Y-110718000D02*
X160681000Y-110718000D01*
X160681000Y-110718000D02*
X160681000Y-113818000D01*
X168884000Y-55144000D02*
X168884000Y-52044000D01*
X170434000Y-55144000D02*
X168884000Y-55144000D01*
X171704000Y-52324000D02*
X171704000Y-54864000D01*
X168884000Y-52044000D02*
X170434000Y-52044000D01*
X189484000Y-54864000D02*
X171704000Y-54864000D01*
X189484000Y-52324000D02*
X189484000Y-54864000D01*
X171704000Y-52324000D02*
X189484000Y-52324000D01*
X194818000Y-113538000D02*
X177038000Y-113538000D01*
X177038000Y-113538000D02*
X177038000Y-110998000D01*
X177038000Y-110998000D02*
X194818000Y-110998000D01*
X197638000Y-113818000D02*
X196088000Y-113818000D01*
X194818000Y-113538000D02*
X194818000Y-110998000D01*
X196088000Y-110718000D02*
X197638000Y-110718000D01*
X197638000Y-110718000D02*
X197638000Y-113818000D01*
X142494000Y-74168000D02*
X160274000Y-74168000D01*
X160274000Y-74168000D02*
X160274000Y-71628000D01*
X160274000Y-71628000D02*
X142494000Y-71628000D01*
X139674000Y-74448000D02*
X141224000Y-74448000D01*
X142494000Y-74168000D02*
X142494000Y-71628000D01*
X141224000Y-71348000D02*
X139674000Y-71348000D01*
X139674000Y-71348000D02*
X139674000Y-74448000D01*
X206315000Y-57404000D02*
X197485000Y-57404000D01*
X206315000Y-59944000D02*
X206315000Y-57404000D01*
X197485000Y-59944000D02*
X197485000Y-57404000D01*
X197485000Y-62484000D02*
X197485000Y-59944000D01*
X206315000Y-62484000D02*
X206315000Y-59944000D01*
X206315000Y-59944000D02*
X197485000Y-59944000D01*
X206315000Y-62484000D02*
X197485000Y-62484000D01*
X206315000Y-65024000D02*
X206315000Y-62484000D01*
X197485000Y-65024000D02*
X206315000Y-65024000D01*
X197485000Y-65024000D02*
X197485000Y-62484000D01*
X197485000Y-67564000D02*
X197485000Y-65024000D01*
X194815000Y-66294000D02*
X194815000Y-67844000D01*
X194815000Y-67844000D02*
X196215000Y-67844000D01*
X197485000Y-67564000D02*
X206315000Y-67564000D01*
X206315000Y-67564000D02*
X206315000Y-65024000D01*
X206315000Y-65024000D02*
X197485000Y-65024000D01*
X197104000Y-54514000D02*
X197454000Y-54864000D01*
X197104000Y-55214000D02*
X197104000Y-54514000D01*
X197454000Y-54864000D02*
X197104000Y-55214000D01*
X197104000Y-54864000D02*
X196754000Y-54864000D01*
X197454000Y-55214000D02*
X197454000Y-54514000D01*
X197204000Y-54964000D02*
X197354000Y-54814000D01*
X197204000Y-54714000D02*
X197204000Y-54964000D01*
X198704000Y-55614000D02*
X196004000Y-55614000D01*
X198704000Y-54114000D02*
X196004000Y-54114000D01*
X203022000Y-54114000D02*
X200322000Y-54114000D01*
X203022000Y-55614000D02*
X200322000Y-55614000D01*
X201522000Y-54714000D02*
X201522000Y-54964000D01*
X201522000Y-54964000D02*
X201672000Y-54814000D01*
X201772000Y-55214000D02*
X201772000Y-54514000D01*
X201422000Y-54864000D02*
X201072000Y-54864000D01*
X201772000Y-54864000D02*
X201422000Y-55214000D01*
X201422000Y-55214000D02*
X201422000Y-54514000D01*
X201422000Y-54514000D02*
X201772000Y-54864000D01*
D15*
G36*
X99834878Y-70836776D02*
X99940612Y-70837355D01*
X100017132Y-70838922D01*
X100069372Y-70841972D01*
X100102263Y-70846996D01*
X100120737Y-70854489D01*
X100129727Y-70864944D01*
X100134163Y-70878853D01*
X100134594Y-70880654D01*
X100141333Y-70913145D01*
X100153808Y-70977252D01*
X100170719Y-71066151D01*
X100190771Y-71173019D01*
X100212664Y-71291033D01*
X100213429Y-71295178D01*
X100235359Y-71410831D01*
X100255877Y-71513014D01*
X100273659Y-71595598D01*
X100287381Y-71652456D01*
X100295718Y-71677458D01*
X100296116Y-71677901D01*
X100320677Y-71690110D01*
X100371315Y-71710456D01*
X100437095Y-71734545D01*
X100437461Y-71734674D01*
X100520317Y-71765818D01*
X100618000Y-71805491D01*
X100710077Y-71845381D01*
X100714434Y-71847353D01*
X100864407Y-71915420D01*
X101196498Y-71688639D01*
X101298374Y-71619504D01*
X101390657Y-71557697D01*
X101468003Y-71506733D01*
X101525064Y-71470127D01*
X101556495Y-71451394D01*
X101559479Y-71450004D01*
X101582321Y-71456190D01*
X101624982Y-71486035D01*
X101689128Y-71540947D01*
X101776421Y-71622334D01*
X101865535Y-71708922D01*
X101951441Y-71794247D01*
X102028327Y-71872108D01*
X102091564Y-71937697D01*
X102136523Y-71986205D01*
X102158576Y-72012825D01*
X102159396Y-72014195D01*
X102161834Y-72032463D01*
X102152650Y-72062295D01*
X102129574Y-72107721D01*
X102090337Y-72172770D01*
X102032670Y-72261470D01*
X101955795Y-72375657D01*
X101887570Y-72476162D01*
X101826582Y-72566303D01*
X101776356Y-72640849D01*
X101740416Y-72694565D01*
X101722287Y-72722218D01*
X101721146Y-72724095D01*
X101723359Y-72750590D01*
X101740138Y-72802086D01*
X101768142Y-72868851D01*
X101778122Y-72890172D01*
X101821672Y-72985159D01*
X101868134Y-73092937D01*
X101905877Y-73186192D01*
X101933073Y-73255406D01*
X101954675Y-73308006D01*
X101967158Y-73335497D01*
X101968709Y-73337616D01*
X101991668Y-73341124D01*
X102045786Y-73350738D01*
X102123868Y-73365089D01*
X102218719Y-73382807D01*
X102323143Y-73402525D01*
X102429944Y-73422874D01*
X102531926Y-73442486D01*
X102621894Y-73459991D01*
X102692653Y-73474022D01*
X102737006Y-73483209D01*
X102747885Y-73485807D01*
X102759122Y-73492218D01*
X102767605Y-73506697D01*
X102773714Y-73534133D01*
X102777832Y-73579411D01*
X102780341Y-73647420D01*
X102781621Y-73743047D01*
X102782054Y-73871180D01*
X102782077Y-73923701D01*
X102782077Y-74350845D01*
X102679500Y-74371091D01*
X102622431Y-74382070D01*
X102537269Y-74398095D01*
X102434372Y-74417233D01*
X102324096Y-74437551D01*
X102293615Y-74443132D01*
X102191855Y-74462917D01*
X102103205Y-74482373D01*
X102035108Y-74499697D01*
X101995004Y-74513088D01*
X101988323Y-74517079D01*
X101971919Y-74545342D01*
X101948399Y-74600109D01*
X101922316Y-74670588D01*
X101917142Y-74685769D01*
X101882956Y-74779896D01*
X101840523Y-74886101D01*
X101798997Y-74981473D01*
X101798792Y-74981916D01*
X101729640Y-75131525D01*
X102184512Y-75800617D01*
X101892500Y-76093116D01*
X101804180Y-76180170D01*
X101723625Y-76256909D01*
X101655360Y-76319237D01*
X101603908Y-76363056D01*
X101573794Y-76384270D01*
X101569474Y-76385616D01*
X101544111Y-76375016D01*
X101492358Y-76345547D01*
X101419868Y-76300705D01*
X101332294Y-76243984D01*
X101237612Y-76180462D01*
X101141516Y-76115668D01*
X101055837Y-76059287D01*
X100986016Y-76014788D01*
X100937494Y-75985639D01*
X100915782Y-75975308D01*
X100889293Y-75984050D01*
X100839062Y-76007087D01*
X100775451Y-76039631D01*
X100768708Y-76043249D01*
X100683046Y-76086210D01*
X100624306Y-76107279D01*
X100587772Y-76107503D01*
X100568731Y-76087928D01*
X100568620Y-76087654D01*
X100559102Y-76064472D01*
X100536403Y-76009441D01*
X100502282Y-75926822D01*
X100458500Y-75820872D01*
X100406816Y-75695852D01*
X100348992Y-75556020D01*
X100292991Y-75420637D01*
X100231447Y-75271234D01*
X100174939Y-75132832D01*
X100125161Y-75009673D01*
X100083806Y-74906002D01*
X100052568Y-74826059D01*
X100033141Y-74774088D01*
X100027154Y-74754692D01*
X100042168Y-74732443D01*
X100081439Y-74696982D01*
X100133807Y-74657887D01*
X100282941Y-74534245D01*
X100399511Y-74392522D01*
X100482118Y-74235704D01*
X100529366Y-74066775D01*
X100539857Y-73888722D01*
X100532231Y-73806539D01*
X100490682Y-73636031D01*
X100419123Y-73485459D01*
X100321995Y-73356309D01*
X100203734Y-73250064D01*
X100068780Y-73168210D01*
X99921571Y-73112232D01*
X99766544Y-73083615D01*
X99608139Y-73083844D01*
X99450794Y-73114405D01*
X99298946Y-73176782D01*
X99157035Y-73272460D01*
X99097803Y-73326572D01*
X98984203Y-73465520D01*
X98905106Y-73617361D01*
X98859986Y-73777667D01*
X98848316Y-73942012D01*
X98869569Y-74105971D01*
X98923220Y-74265118D01*
X99008740Y-74415025D01*
X99125605Y-74551267D01*
X99256193Y-74657887D01*
X99310588Y-74698642D01*
X99349014Y-74733718D01*
X99362846Y-74754726D01*
X99355603Y-74777635D01*
X99335005Y-74832365D01*
X99302746Y-74914672D01*
X99260521Y-75020315D01*
X99210023Y-75145050D01*
X99152948Y-75284636D01*
X99096854Y-75420670D01*
X99034967Y-75570201D01*
X98977644Y-75708767D01*
X98926644Y-75832107D01*
X98883727Y-75935964D01*
X98850653Y-76016080D01*
X98829181Y-76068195D01*
X98821225Y-76087654D01*
X98802429Y-76107423D01*
X98766074Y-76107365D01*
X98707479Y-76086441D01*
X98621968Y-76043613D01*
X98621292Y-76043249D01*
X98556907Y-76010012D01*
X98504861Y-75985802D01*
X98475512Y-75975404D01*
X98474217Y-75975308D01*
X98452124Y-75985855D01*
X98403348Y-76015184D01*
X98333331Y-76059827D01*
X98247514Y-76116314D01*
X98152388Y-76180462D01*
X98055540Y-76245411D01*
X97968253Y-76301896D01*
X97896181Y-76346421D01*
X97844977Y-76375490D01*
X97820526Y-76385616D01*
X97798010Y-76372307D01*
X97752742Y-76335112D01*
X97689244Y-76278128D01*
X97612039Y-76205449D01*
X97525651Y-76121171D01*
X97497399Y-76093016D01*
X97205287Y-75800416D01*
X97427631Y-75474104D01*
X97495202Y-75373897D01*
X97554507Y-75283963D01*
X97602217Y-75209510D01*
X97635007Y-75155751D01*
X97649548Y-75127894D01*
X97649974Y-75125912D01*
X97642308Y-75099655D01*
X97621689Y-75046837D01*
X97591685Y-74976310D01*
X97570625Y-74929093D01*
X97531248Y-74838694D01*
X97494165Y-74747366D01*
X97465415Y-74670200D01*
X97457605Y-74646692D01*
X97435417Y-74583916D01*
X97413727Y-74535411D01*
X97401813Y-74517079D01*
X97375523Y-74505859D01*
X97318142Y-74489954D01*
X97237118Y-74471167D01*
X97139895Y-74451299D01*
X97096385Y-74443132D01*
X96985896Y-74422829D01*
X96879916Y-74403170D01*
X96788801Y-74386088D01*
X96722908Y-74373518D01*
X96710500Y-74371091D01*
X96607923Y-74350845D01*
X96607923Y-73923701D01*
X96608153Y-73783246D01*
X96609099Y-73676979D01*
X96611141Y-73600013D01*
X96614662Y-73547460D01*
X96620043Y-73514433D01*
X96627666Y-73496045D01*
X96637912Y-73487408D01*
X96642115Y-73485807D01*
X96667470Y-73480127D01*
X96723484Y-73468795D01*
X96802964Y-73453179D01*
X96898712Y-73434647D01*
X97003533Y-73414569D01*
X97110232Y-73394312D01*
X97211613Y-73375246D01*
X97300479Y-73358739D01*
X97369637Y-73346159D01*
X97411889Y-73338875D01*
X97421290Y-73337616D01*
X97429807Y-73320763D01*
X97448660Y-73275870D01*
X97474324Y-73211430D01*
X97484123Y-73186192D01*
X97523648Y-73088686D01*
X97570192Y-72980959D01*
X97611877Y-72890172D01*
X97642550Y-72820753D01*
X97662956Y-72763710D01*
X97669768Y-72728777D01*
X97668682Y-72724095D01*
X97654285Y-72701991D01*
X97621412Y-72652831D01*
X97573590Y-72581848D01*
X97514348Y-72494278D01*
X97447215Y-72395357D01*
X97433941Y-72375830D01*
X97356046Y-72260140D01*
X97298787Y-72172044D01*
X97259881Y-72107486D01*
X97237044Y-72062411D01*
X97227994Y-72032763D01*
X97230448Y-72014485D01*
X97230511Y-72014369D01*
X97249827Y-71990361D01*
X97292551Y-71943947D01*
X97354051Y-71879937D01*
X97429698Y-71803145D01*
X97514861Y-71718382D01*
X97524465Y-71708922D01*
X97631790Y-71604989D01*
X97714615Y-71528675D01*
X97774605Y-71478571D01*
X97813423Y-71453270D01*
X97830520Y-71450004D01*
X97855473Y-71464250D01*
X97907255Y-71497156D01*
X97980520Y-71545208D01*
X98069920Y-71604890D01*
X98170111Y-71672688D01*
X98193501Y-71688639D01*
X98525593Y-71915420D01*
X98675565Y-71847353D01*
X98766770Y-71807685D01*
X98864669Y-71767791D01*
X98948831Y-71735983D01*
X98952538Y-71734674D01*
X99018369Y-71710576D01*
X99069116Y-71690200D01*
X99093842Y-71677936D01*
X99093884Y-71677901D01*
X99101729Y-71655734D01*
X99115066Y-71601217D01*
X99132570Y-71520480D01*
X99152917Y-71419650D01*
X99174782Y-71304856D01*
X99176571Y-71295178D01*
X99198504Y-71176904D01*
X99218640Y-71069542D01*
X99235680Y-70979917D01*
X99248328Y-70914851D01*
X99255284Y-70881168D01*
X99255406Y-70880654D01*
X99259639Y-70866325D01*
X99267871Y-70855507D01*
X99285033Y-70847706D01*
X99316058Y-70842429D01*
X99365878Y-70839182D01*
X99439424Y-70837472D01*
X99541629Y-70836807D01*
X99677425Y-70836693D01*
X99695000Y-70836692D01*
X99834878Y-70836776D01*
X99834878Y-70836776D01*
G37*
X99834878Y-70836776D02*
X99940612Y-70837355D01*
X100017132Y-70838922D01*
X100069372Y-70841972D01*
X100102263Y-70846996D01*
X100120737Y-70854489D01*
X100129727Y-70864944D01*
X100134163Y-70878853D01*
X100134594Y-70880654D01*
X100141333Y-70913145D01*
X100153808Y-70977252D01*
X100170719Y-71066151D01*
X100190771Y-71173019D01*
X100212664Y-71291033D01*
X100213429Y-71295178D01*
X100235359Y-71410831D01*
X100255877Y-71513014D01*
X100273659Y-71595598D01*
X100287381Y-71652456D01*
X100295718Y-71677458D01*
X100296116Y-71677901D01*
X100320677Y-71690110D01*
X100371315Y-71710456D01*
X100437095Y-71734545D01*
X100437461Y-71734674D01*
X100520317Y-71765818D01*
X100618000Y-71805491D01*
X100710077Y-71845381D01*
X100714434Y-71847353D01*
X100864407Y-71915420D01*
X101196498Y-71688639D01*
X101298374Y-71619504D01*
X101390657Y-71557697D01*
X101468003Y-71506733D01*
X101525064Y-71470127D01*
X101556495Y-71451394D01*
X101559479Y-71450004D01*
X101582321Y-71456190D01*
X101624982Y-71486035D01*
X101689128Y-71540947D01*
X101776421Y-71622334D01*
X101865535Y-71708922D01*
X101951441Y-71794247D01*
X102028327Y-71872108D01*
X102091564Y-71937697D01*
X102136523Y-71986205D01*
X102158576Y-72012825D01*
X102159396Y-72014195D01*
X102161834Y-72032463D01*
X102152650Y-72062295D01*
X102129574Y-72107721D01*
X102090337Y-72172770D01*
X102032670Y-72261470D01*
X101955795Y-72375657D01*
X101887570Y-72476162D01*
X101826582Y-72566303D01*
X101776356Y-72640849D01*
X101740416Y-72694565D01*
X101722287Y-72722218D01*
X101721146Y-72724095D01*
X101723359Y-72750590D01*
X101740138Y-72802086D01*
X101768142Y-72868851D01*
X101778122Y-72890172D01*
X101821672Y-72985159D01*
X101868134Y-73092937D01*
X101905877Y-73186192D01*
X101933073Y-73255406D01*
X101954675Y-73308006D01*
X101967158Y-73335497D01*
X101968709Y-73337616D01*
X101991668Y-73341124D01*
X102045786Y-73350738D01*
X102123868Y-73365089D01*
X102218719Y-73382807D01*
X102323143Y-73402525D01*
X102429944Y-73422874D01*
X102531926Y-73442486D01*
X102621894Y-73459991D01*
X102692653Y-73474022D01*
X102737006Y-73483209D01*
X102747885Y-73485807D01*
X102759122Y-73492218D01*
X102767605Y-73506697D01*
X102773714Y-73534133D01*
X102777832Y-73579411D01*
X102780341Y-73647420D01*
X102781621Y-73743047D01*
X102782054Y-73871180D01*
X102782077Y-73923701D01*
X102782077Y-74350845D01*
X102679500Y-74371091D01*
X102622431Y-74382070D01*
X102537269Y-74398095D01*
X102434372Y-74417233D01*
X102324096Y-74437551D01*
X102293615Y-74443132D01*
X102191855Y-74462917D01*
X102103205Y-74482373D01*
X102035108Y-74499697D01*
X101995004Y-74513088D01*
X101988323Y-74517079D01*
X101971919Y-74545342D01*
X101948399Y-74600109D01*
X101922316Y-74670588D01*
X101917142Y-74685769D01*
X101882956Y-74779896D01*
X101840523Y-74886101D01*
X101798997Y-74981473D01*
X101798792Y-74981916D01*
X101729640Y-75131525D01*
X102184512Y-75800617D01*
X101892500Y-76093116D01*
X101804180Y-76180170D01*
X101723625Y-76256909D01*
X101655360Y-76319237D01*
X101603908Y-76363056D01*
X101573794Y-76384270D01*
X101569474Y-76385616D01*
X101544111Y-76375016D01*
X101492358Y-76345547D01*
X101419868Y-76300705D01*
X101332294Y-76243984D01*
X101237612Y-76180462D01*
X101141516Y-76115668D01*
X101055837Y-76059287D01*
X100986016Y-76014788D01*
X100937494Y-75985639D01*
X100915782Y-75975308D01*
X100889293Y-75984050D01*
X100839062Y-76007087D01*
X100775451Y-76039631D01*
X100768708Y-76043249D01*
X100683046Y-76086210D01*
X100624306Y-76107279D01*
X100587772Y-76107503D01*
X100568731Y-76087928D01*
X100568620Y-76087654D01*
X100559102Y-76064472D01*
X100536403Y-76009441D01*
X100502282Y-75926822D01*
X100458500Y-75820872D01*
X100406816Y-75695852D01*
X100348992Y-75556020D01*
X100292991Y-75420637D01*
X100231447Y-75271234D01*
X100174939Y-75132832D01*
X100125161Y-75009673D01*
X100083806Y-74906002D01*
X100052568Y-74826059D01*
X100033141Y-74774088D01*
X100027154Y-74754692D01*
X100042168Y-74732443D01*
X100081439Y-74696982D01*
X100133807Y-74657887D01*
X100282941Y-74534245D01*
X100399511Y-74392522D01*
X100482118Y-74235704D01*
X100529366Y-74066775D01*
X100539857Y-73888722D01*
X100532231Y-73806539D01*
X100490682Y-73636031D01*
X100419123Y-73485459D01*
X100321995Y-73356309D01*
X100203734Y-73250064D01*
X100068780Y-73168210D01*
X99921571Y-73112232D01*
X99766544Y-73083615D01*
X99608139Y-73083844D01*
X99450794Y-73114405D01*
X99298946Y-73176782D01*
X99157035Y-73272460D01*
X99097803Y-73326572D01*
X98984203Y-73465520D01*
X98905106Y-73617361D01*
X98859986Y-73777667D01*
X98848316Y-73942012D01*
X98869569Y-74105971D01*
X98923220Y-74265118D01*
X99008740Y-74415025D01*
X99125605Y-74551267D01*
X99256193Y-74657887D01*
X99310588Y-74698642D01*
X99349014Y-74733718D01*
X99362846Y-74754726D01*
X99355603Y-74777635D01*
X99335005Y-74832365D01*
X99302746Y-74914672D01*
X99260521Y-75020315D01*
X99210023Y-75145050D01*
X99152948Y-75284636D01*
X99096854Y-75420670D01*
X99034967Y-75570201D01*
X98977644Y-75708767D01*
X98926644Y-75832107D01*
X98883727Y-75935964D01*
X98850653Y-76016080D01*
X98829181Y-76068195D01*
X98821225Y-76087654D01*
X98802429Y-76107423D01*
X98766074Y-76107365D01*
X98707479Y-76086441D01*
X98621968Y-76043613D01*
X98621292Y-76043249D01*
X98556907Y-76010012D01*
X98504861Y-75985802D01*
X98475512Y-75975404D01*
X98474217Y-75975308D01*
X98452124Y-75985855D01*
X98403348Y-76015184D01*
X98333331Y-76059827D01*
X98247514Y-76116314D01*
X98152388Y-76180462D01*
X98055540Y-76245411D01*
X97968253Y-76301896D01*
X97896181Y-76346421D01*
X97844977Y-76375490D01*
X97820526Y-76385616D01*
X97798010Y-76372307D01*
X97752742Y-76335112D01*
X97689244Y-76278128D01*
X97612039Y-76205449D01*
X97525651Y-76121171D01*
X97497399Y-76093016D01*
X97205287Y-75800416D01*
X97427631Y-75474104D01*
X97495202Y-75373897D01*
X97554507Y-75283963D01*
X97602217Y-75209510D01*
X97635007Y-75155751D01*
X97649548Y-75127894D01*
X97649974Y-75125912D01*
X97642308Y-75099655D01*
X97621689Y-75046837D01*
X97591685Y-74976310D01*
X97570625Y-74929093D01*
X97531248Y-74838694D01*
X97494165Y-74747366D01*
X97465415Y-74670200D01*
X97457605Y-74646692D01*
X97435417Y-74583916D01*
X97413727Y-74535411D01*
X97401813Y-74517079D01*
X97375523Y-74505859D01*
X97318142Y-74489954D01*
X97237118Y-74471167D01*
X97139895Y-74451299D01*
X97096385Y-74443132D01*
X96985896Y-74422829D01*
X96879916Y-74403170D01*
X96788801Y-74386088D01*
X96722908Y-74373518D01*
X96710500Y-74371091D01*
X96607923Y-74350845D01*
X96607923Y-73923701D01*
X96608153Y-73783246D01*
X96609099Y-73676979D01*
X96611141Y-73600013D01*
X96614662Y-73547460D01*
X96620043Y-73514433D01*
X96627666Y-73496045D01*
X96637912Y-73487408D01*
X96642115Y-73485807D01*
X96667470Y-73480127D01*
X96723484Y-73468795D01*
X96802964Y-73453179D01*
X96898712Y-73434647D01*
X97003533Y-73414569D01*
X97110232Y-73394312D01*
X97211613Y-73375246D01*
X97300479Y-73358739D01*
X97369637Y-73346159D01*
X97411889Y-73338875D01*
X97421290Y-73337616D01*
X97429807Y-73320763D01*
X97448660Y-73275870D01*
X97474324Y-73211430D01*
X97484123Y-73186192D01*
X97523648Y-73088686D01*
X97570192Y-72980959D01*
X97611877Y-72890172D01*
X97642550Y-72820753D01*
X97662956Y-72763710D01*
X97669768Y-72728777D01*
X97668682Y-72724095D01*
X97654285Y-72701991D01*
X97621412Y-72652831D01*
X97573590Y-72581848D01*
X97514348Y-72494278D01*
X97447215Y-72395357D01*
X97433941Y-72375830D01*
X97356046Y-72260140D01*
X97298787Y-72172044D01*
X97259881Y-72107486D01*
X97237044Y-72062411D01*
X97227994Y-72032763D01*
X97230448Y-72014485D01*
X97230511Y-72014369D01*
X97249827Y-71990361D01*
X97292551Y-71943947D01*
X97354051Y-71879937D01*
X97429698Y-71803145D01*
X97514861Y-71718382D01*
X97524465Y-71708922D01*
X97631790Y-71604989D01*
X97714615Y-71528675D01*
X97774605Y-71478571D01*
X97813423Y-71453270D01*
X97830520Y-71450004D01*
X97855473Y-71464250D01*
X97907255Y-71497156D01*
X97980520Y-71545208D01*
X98069920Y-71604890D01*
X98170111Y-71672688D01*
X98193501Y-71688639D01*
X98525593Y-71915420D01*
X98675565Y-71847353D01*
X98766770Y-71807685D01*
X98864669Y-71767791D01*
X98948831Y-71735983D01*
X98952538Y-71734674D01*
X99018369Y-71710576D01*
X99069116Y-71690200D01*
X99093842Y-71677936D01*
X99093884Y-71677901D01*
X99101729Y-71655734D01*
X99115066Y-71601217D01*
X99132570Y-71520480D01*
X99152917Y-71419650D01*
X99174782Y-71304856D01*
X99176571Y-71295178D01*
X99198504Y-71176904D01*
X99218640Y-71069542D01*
X99235680Y-70979917D01*
X99248328Y-70914851D01*
X99255284Y-70881168D01*
X99255406Y-70880654D01*
X99259639Y-70866325D01*
X99267871Y-70855507D01*
X99285033Y-70847706D01*
X99316058Y-70842429D01*
X99365878Y-70839182D01*
X99439424Y-70837472D01*
X99541629Y-70836807D01*
X99677425Y-70836693D01*
X99695000Y-70836692D01*
X99834878Y-70836776D01*
G36*
X103940224Y-77196838D02*
X104017528Y-77247361D01*
X104054814Y-77292590D01*
X104084353Y-77374663D01*
X104086699Y-77439607D01*
X104081385Y-77526445D01*
X103881115Y-77614103D01*
X103783739Y-77658887D01*
X103720113Y-77694913D01*
X103687029Y-77726117D01*
X103681280Y-77756436D01*
X103699658Y-77789805D01*
X103719923Y-77811923D01*
X103778889Y-77847393D01*
X103843024Y-77849879D01*
X103901926Y-77822235D01*
X103945197Y-77767320D01*
X103952936Y-77747928D01*
X103990006Y-77687364D01*
X104032654Y-77661552D01*
X104091154Y-77639471D01*
X104091154Y-77723184D01*
X104085982Y-77780150D01*
X104065723Y-77828189D01*
X104023262Y-77883346D01*
X104016951Y-77890514D01*
X103969720Y-77939585D01*
X103929121Y-77965920D01*
X103878328Y-77978035D01*
X103836220Y-77982003D01*
X103760902Y-77982991D01*
X103707286Y-77970466D01*
X103673838Y-77951869D01*
X103621268Y-77910975D01*
X103584879Y-77866748D01*
X103561850Y-77811126D01*
X103549359Y-77736047D01*
X103544587Y-77633449D01*
X103544206Y-77581376D01*
X103545501Y-77518948D01*
X103663471Y-77518948D01*
X103664839Y-77552438D01*
X103668249Y-77557923D01*
X103690753Y-77550472D01*
X103739182Y-77530753D01*
X103803908Y-77502718D01*
X103817443Y-77496692D01*
X103899244Y-77455096D01*
X103944312Y-77418538D01*
X103954217Y-77384296D01*
X103930526Y-77349648D01*
X103910960Y-77334339D01*
X103840360Y-77303721D01*
X103774280Y-77308780D01*
X103718959Y-77346151D01*
X103680636Y-77412473D01*
X103668349Y-77465116D01*
X103663471Y-77518948D01*
X103545501Y-77518948D01*
X103546730Y-77459720D01*
X103556032Y-77369710D01*
X103574460Y-77304167D01*
X103604360Y-77255912D01*
X103648080Y-77217767D01*
X103667141Y-77205440D01*
X103753726Y-77173336D01*
X103848522Y-77171316D01*
X103940224Y-77196838D01*
X103940224Y-77196838D01*
G37*
X103940224Y-77196838D02*
X104017528Y-77247361D01*
X104054814Y-77292590D01*
X104084353Y-77374663D01*
X104086699Y-77439607D01*
X104081385Y-77526445D01*
X103881115Y-77614103D01*
X103783739Y-77658887D01*
X103720113Y-77694913D01*
X103687029Y-77726117D01*
X103681280Y-77756436D01*
X103699658Y-77789805D01*
X103719923Y-77811923D01*
X103778889Y-77847393D01*
X103843024Y-77849879D01*
X103901926Y-77822235D01*
X103945197Y-77767320D01*
X103952936Y-77747928D01*
X103990006Y-77687364D01*
X104032654Y-77661552D01*
X104091154Y-77639471D01*
X104091154Y-77723184D01*
X104085982Y-77780150D01*
X104065723Y-77828189D01*
X104023262Y-77883346D01*
X104016951Y-77890514D01*
X103969720Y-77939585D01*
X103929121Y-77965920D01*
X103878328Y-77978035D01*
X103836220Y-77982003D01*
X103760902Y-77982991D01*
X103707286Y-77970466D01*
X103673838Y-77951869D01*
X103621268Y-77910975D01*
X103584879Y-77866748D01*
X103561850Y-77811126D01*
X103549359Y-77736047D01*
X103544587Y-77633449D01*
X103544206Y-77581376D01*
X103545501Y-77518948D01*
X103663471Y-77518948D01*
X103664839Y-77552438D01*
X103668249Y-77557923D01*
X103690753Y-77550472D01*
X103739182Y-77530753D01*
X103803908Y-77502718D01*
X103817443Y-77496692D01*
X103899244Y-77455096D01*
X103944312Y-77418538D01*
X103954217Y-77384296D01*
X103930526Y-77349648D01*
X103910960Y-77334339D01*
X103840360Y-77303721D01*
X103774280Y-77308780D01*
X103718959Y-77346151D01*
X103680636Y-77412473D01*
X103668349Y-77465116D01*
X103663471Y-77518948D01*
X103545501Y-77518948D01*
X103546730Y-77459720D01*
X103556032Y-77369710D01*
X103574460Y-77304167D01*
X103604360Y-77255912D01*
X103648080Y-77217767D01*
X103667141Y-77205440D01*
X103753726Y-77173336D01*
X103848522Y-77171316D01*
X103940224Y-77196838D01*
G36*
X103265807Y-77185782D02*
X103289161Y-77195988D01*
X103344902Y-77240134D01*
X103392569Y-77303967D01*
X103422048Y-77372087D01*
X103426846Y-77405670D01*
X103410760Y-77452556D01*
X103375475Y-77477365D01*
X103337644Y-77492387D01*
X103320321Y-77495155D01*
X103311886Y-77475066D01*
X103295230Y-77431351D01*
X103287923Y-77411598D01*
X103246948Y-77343271D01*
X103187622Y-77309191D01*
X103111552Y-77310239D01*
X103105918Y-77311581D01*
X103065305Y-77330836D01*
X103035448Y-77368375D01*
X103015055Y-77428809D01*
X103002836Y-77516751D01*
X102997500Y-77636813D01*
X102997000Y-77700698D01*
X102996752Y-77801403D01*
X102995126Y-77870054D01*
X102990801Y-77913673D01*
X102982454Y-77939282D01*
X102968765Y-77953903D01*
X102948411Y-77964558D01*
X102947234Y-77965095D01*
X102908038Y-77981667D01*
X102888619Y-77987769D01*
X102885635Y-77969319D01*
X102883081Y-77918323D01*
X102881140Y-77841308D01*
X102879997Y-77744805D01*
X102879769Y-77674184D01*
X102880932Y-77537525D01*
X102885479Y-77433851D01*
X102894999Y-77357108D01*
X102911081Y-77301246D01*
X102935313Y-77260212D01*
X102969286Y-77227954D01*
X103002833Y-77205440D01*
X103083499Y-77175476D01*
X103177381Y-77168718D01*
X103265807Y-77185782D01*
X103265807Y-77185782D01*
G37*
X103265807Y-77185782D02*
X103289161Y-77195988D01*
X103344902Y-77240134D01*
X103392569Y-77303967D01*
X103422048Y-77372087D01*
X103426846Y-77405670D01*
X103410760Y-77452556D01*
X103375475Y-77477365D01*
X103337644Y-77492387D01*
X103320321Y-77495155D01*
X103311886Y-77475066D01*
X103295230Y-77431351D01*
X103287923Y-77411598D01*
X103246948Y-77343271D01*
X103187622Y-77309191D01*
X103111552Y-77310239D01*
X103105918Y-77311581D01*
X103065305Y-77330836D01*
X103035448Y-77368375D01*
X103015055Y-77428809D01*
X103002836Y-77516751D01*
X102997500Y-77636813D01*
X102997000Y-77700698D01*
X102996752Y-77801403D01*
X102995126Y-77870054D01*
X102990801Y-77913673D01*
X102982454Y-77939282D01*
X102968765Y-77953903D01*
X102948411Y-77964558D01*
X102947234Y-77965095D01*
X102908038Y-77981667D01*
X102888619Y-77987769D01*
X102885635Y-77969319D01*
X102883081Y-77918323D01*
X102881140Y-77841308D01*
X102879997Y-77744805D01*
X102879769Y-77674184D01*
X102880932Y-77537525D01*
X102885479Y-77433851D01*
X102894999Y-77357108D01*
X102911081Y-77301246D01*
X102935313Y-77260212D01*
X102969286Y-77227954D01*
X103002833Y-77205440D01*
X103083499Y-77175476D01*
X103177381Y-77168718D01*
X103265807Y-77185782D01*
G36*
X102582333Y-77182528D02*
X102638590Y-77208117D01*
X102682747Y-77239124D01*
X102715101Y-77273795D01*
X102737438Y-77318520D01*
X102751546Y-77379692D01*
X102759211Y-77463701D01*
X102762220Y-77576940D01*
X102762538Y-77651509D01*
X102762538Y-77942420D01*
X102712773Y-77965095D01*
X102673576Y-77981667D01*
X102654157Y-77987769D01*
X102650442Y-77969610D01*
X102647495Y-77920648D01*
X102645691Y-77849153D01*
X102645308Y-77792385D01*
X102643661Y-77710371D01*
X102639222Y-77645309D01*
X102632740Y-77605467D01*
X102627590Y-77597000D01*
X102592977Y-77605646D01*
X102538640Y-77627823D01*
X102475722Y-77657886D01*
X102415368Y-77690192D01*
X102368721Y-77719098D01*
X102346926Y-77738961D01*
X102346839Y-77739175D01*
X102348714Y-77775935D01*
X102365525Y-77811026D01*
X102395039Y-77839528D01*
X102438116Y-77849061D01*
X102474932Y-77847950D01*
X102527074Y-77847133D01*
X102554444Y-77859349D01*
X102570882Y-77891624D01*
X102572955Y-77897710D01*
X102580081Y-77943739D01*
X102561024Y-77971687D01*
X102511353Y-77985007D01*
X102457697Y-77987470D01*
X102361142Y-77969210D01*
X102311159Y-77943131D01*
X102249429Y-77881868D01*
X102216690Y-77806670D01*
X102213753Y-77727211D01*
X102241424Y-77653167D01*
X102283047Y-77606769D01*
X102324604Y-77580793D01*
X102389922Y-77547907D01*
X102466038Y-77514557D01*
X102478726Y-77509461D01*
X102562333Y-77472565D01*
X102610530Y-77440046D01*
X102626030Y-77407718D01*
X102611550Y-77371394D01*
X102586692Y-77343000D01*
X102527939Y-77308039D01*
X102463293Y-77305417D01*
X102404008Y-77332358D01*
X102361339Y-77386088D01*
X102355739Y-77399950D01*
X102323133Y-77450936D01*
X102275530Y-77488787D01*
X102215461Y-77519850D01*
X102215461Y-77431768D01*
X102218997Y-77377951D01*
X102234156Y-77335534D01*
X102267768Y-77290279D01*
X102300035Y-77255420D01*
X102350209Y-77206062D01*
X102389193Y-77179547D01*
X102431064Y-77168911D01*
X102478460Y-77167154D01*
X102582333Y-77182528D01*
X102582333Y-77182528D01*
G37*
X102582333Y-77182528D02*
X102638590Y-77208117D01*
X102682747Y-77239124D01*
X102715101Y-77273795D01*
X102737438Y-77318520D01*
X102751546Y-77379692D01*
X102759211Y-77463701D01*
X102762220Y-77576940D01*
X102762538Y-77651509D01*
X102762538Y-77942420D01*
X102712773Y-77965095D01*
X102673576Y-77981667D01*
X102654157Y-77987769D01*
X102650442Y-77969610D01*
X102647495Y-77920648D01*
X102645691Y-77849153D01*
X102645308Y-77792385D01*
X102643661Y-77710371D01*
X102639222Y-77645309D01*
X102632740Y-77605467D01*
X102627590Y-77597000D01*
X102592977Y-77605646D01*
X102538640Y-77627823D01*
X102475722Y-77657886D01*
X102415368Y-77690192D01*
X102368721Y-77719098D01*
X102346926Y-77738961D01*
X102346839Y-77739175D01*
X102348714Y-77775935D01*
X102365525Y-77811026D01*
X102395039Y-77839528D01*
X102438116Y-77849061D01*
X102474932Y-77847950D01*
X102527074Y-77847133D01*
X102554444Y-77859349D01*
X102570882Y-77891624D01*
X102572955Y-77897710D01*
X102580081Y-77943739D01*
X102561024Y-77971687D01*
X102511353Y-77985007D01*
X102457697Y-77987470D01*
X102361142Y-77969210D01*
X102311159Y-77943131D01*
X102249429Y-77881868D01*
X102216690Y-77806670D01*
X102213753Y-77727211D01*
X102241424Y-77653167D01*
X102283047Y-77606769D01*
X102324604Y-77580793D01*
X102389922Y-77547907D01*
X102466038Y-77514557D01*
X102478726Y-77509461D01*
X102562333Y-77472565D01*
X102610530Y-77440046D01*
X102626030Y-77407718D01*
X102611550Y-77371394D01*
X102586692Y-77343000D01*
X102527939Y-77308039D01*
X102463293Y-77305417D01*
X102404008Y-77332358D01*
X102361339Y-77386088D01*
X102355739Y-77399950D01*
X102323133Y-77450936D01*
X102275530Y-77488787D01*
X102215461Y-77519850D01*
X102215461Y-77431768D01*
X102218997Y-77377951D01*
X102234156Y-77335534D01*
X102267768Y-77290279D01*
X102300035Y-77255420D01*
X102350209Y-77206062D01*
X102389193Y-77179547D01*
X102431064Y-77168911D01*
X102478460Y-77167154D01*
X102582333Y-77182528D01*
G36*
X102090929Y-77185662D02*
X102093911Y-77237068D01*
X102096247Y-77315192D01*
X102097749Y-77413857D01*
X102098231Y-77517343D01*
X102098231Y-77867533D01*
X102036401Y-77929363D01*
X101993793Y-77967462D01*
X101956390Y-77982895D01*
X101905270Y-77981918D01*
X101884978Y-77979433D01*
X101821554Y-77972200D01*
X101769095Y-77968055D01*
X101756308Y-77967672D01*
X101713199Y-77970176D01*
X101651544Y-77976462D01*
X101627638Y-77979433D01*
X101568922Y-77984028D01*
X101529464Y-77974046D01*
X101490338Y-77943228D01*
X101476215Y-77929363D01*
X101414385Y-77867533D01*
X101414385Y-77212503D01*
X101464150Y-77189829D01*
X101507002Y-77173034D01*
X101532073Y-77167154D01*
X101538501Y-77185736D01*
X101544509Y-77237655D01*
X101549697Y-77317172D01*
X101553664Y-77418546D01*
X101555577Y-77504192D01*
X101560923Y-77841231D01*
X101607560Y-77847825D01*
X101649976Y-77843214D01*
X101670760Y-77828287D01*
X101676570Y-77800377D01*
X101681530Y-77740925D01*
X101685246Y-77657466D01*
X101687324Y-77557532D01*
X101687624Y-77506104D01*
X101687923Y-77210054D01*
X101749454Y-77188604D01*
X101793004Y-77174020D01*
X101816694Y-77167219D01*
X101817377Y-77167154D01*
X101819754Y-77185642D01*
X101822366Y-77236906D01*
X101824995Y-77314649D01*
X101827421Y-77412574D01*
X101829115Y-77504192D01*
X101834461Y-77841231D01*
X101951692Y-77841231D01*
X101957072Y-77533746D01*
X101962451Y-77226261D01*
X102019601Y-77196707D01*
X102061797Y-77176413D01*
X102086770Y-77167204D01*
X102087491Y-77167154D01*
X102090929Y-77185662D01*
X102090929Y-77185662D01*
G37*
X102090929Y-77185662D02*
X102093911Y-77237068D01*
X102096247Y-77315192D01*
X102097749Y-77413857D01*
X102098231Y-77517343D01*
X102098231Y-77867533D01*
X102036401Y-77929363D01*
X101993793Y-77967462D01*
X101956390Y-77982895D01*
X101905270Y-77981918D01*
X101884978Y-77979433D01*
X101821554Y-77972200D01*
X101769095Y-77968055D01*
X101756308Y-77967672D01*
X101713199Y-77970176D01*
X101651544Y-77976462D01*
X101627638Y-77979433D01*
X101568922Y-77984028D01*
X101529464Y-77974046D01*
X101490338Y-77943228D01*
X101476215Y-77929363D01*
X101414385Y-77867533D01*
X101414385Y-77212503D01*
X101464150Y-77189829D01*
X101507002Y-77173034D01*
X101532073Y-77167154D01*
X101538501Y-77185736D01*
X101544509Y-77237655D01*
X101549697Y-77317172D01*
X101553664Y-77418546D01*
X101555577Y-77504192D01*
X101560923Y-77841231D01*
X101607560Y-77847825D01*
X101649976Y-77843214D01*
X101670760Y-77828287D01*
X101676570Y-77800377D01*
X101681530Y-77740925D01*
X101685246Y-77657466D01*
X101687324Y-77557532D01*
X101687624Y-77506104D01*
X101687923Y-77210054D01*
X101749454Y-77188604D01*
X101793004Y-77174020D01*
X101816694Y-77167219D01*
X101817377Y-77167154D01*
X101819754Y-77185642D01*
X101822366Y-77236906D01*
X101824995Y-77314649D01*
X101827421Y-77412574D01*
X101829115Y-77504192D01*
X101834461Y-77841231D01*
X101951692Y-77841231D01*
X101957072Y-77533746D01*
X101962451Y-77226261D01*
X102019601Y-77196707D01*
X102061797Y-77176413D01*
X102086770Y-77167204D01*
X102087491Y-77167154D01*
X102090929Y-77185662D01*
G36*
X101297081Y-77329289D02*
X101296833Y-77475320D01*
X101295872Y-77587655D01*
X101293794Y-77671678D01*
X101290193Y-77732769D01*
X101284665Y-77776309D01*
X101276804Y-77807679D01*
X101266207Y-77832262D01*
X101258182Y-77846294D01*
X101191728Y-77922388D01*
X101107470Y-77970084D01*
X101014249Y-77987199D01*
X100920900Y-77971546D01*
X100865312Y-77943418D01*
X100806957Y-77894760D01*
X100767186Y-77835333D01*
X100743190Y-77757507D01*
X100732161Y-77653652D01*
X100730599Y-77577462D01*
X100730809Y-77571986D01*
X100867308Y-77571986D01*
X100868141Y-77659355D01*
X100871961Y-77717192D01*
X100880746Y-77755029D01*
X100896474Y-77782398D01*
X100915266Y-77803042D01*
X100978375Y-77842890D01*
X101046137Y-77846295D01*
X101110179Y-77813025D01*
X101115164Y-77808517D01*
X101136439Y-77785067D01*
X101149779Y-77757166D01*
X101157001Y-77715641D01*
X101159923Y-77651316D01*
X101160385Y-77580200D01*
X101159383Y-77490858D01*
X101155238Y-77431258D01*
X101146236Y-77392089D01*
X101130667Y-77364040D01*
X101117902Y-77349144D01*
X101058600Y-77311575D01*
X100990301Y-77307057D01*
X100925110Y-77335753D01*
X100912528Y-77346406D01*
X100891111Y-77370063D01*
X100877744Y-77398251D01*
X100870566Y-77440245D01*
X100867719Y-77505319D01*
X100867308Y-77571986D01*
X100730809Y-77571986D01*
X100735322Y-77454765D01*
X100751362Y-77362577D01*
X100781528Y-77293269D01*
X100828629Y-77239211D01*
X100865312Y-77211505D01*
X100931990Y-77181572D01*
X101009272Y-77167678D01*
X101081110Y-77171397D01*
X101121308Y-77186400D01*
X101137082Y-77190670D01*
X101147550Y-77174750D01*
X101154856Y-77132089D01*
X101160385Y-77067106D01*
X101166437Y-76994732D01*
X101174844Y-76951187D01*
X101190141Y-76926287D01*
X101216864Y-76909845D01*
X101233654Y-76902564D01*
X101297154Y-76875963D01*
X101297081Y-77329289D01*
X101297081Y-77329289D01*
G37*
X101297081Y-77329289D02*
X101296833Y-77475320D01*
X101295872Y-77587655D01*
X101293794Y-77671678D01*
X101290193Y-77732769D01*
X101284665Y-77776309D01*
X101276804Y-77807679D01*
X101266207Y-77832262D01*
X101258182Y-77846294D01*
X101191728Y-77922388D01*
X101107470Y-77970084D01*
X101014249Y-77987199D01*
X100920900Y-77971546D01*
X100865312Y-77943418D01*
X100806957Y-77894760D01*
X100767186Y-77835333D01*
X100743190Y-77757507D01*
X100732161Y-77653652D01*
X100730599Y-77577462D01*
X100730809Y-77571986D01*
X100867308Y-77571986D01*
X100868141Y-77659355D01*
X100871961Y-77717192D01*
X100880746Y-77755029D01*
X100896474Y-77782398D01*
X100915266Y-77803042D01*
X100978375Y-77842890D01*
X101046137Y-77846295D01*
X101110179Y-77813025D01*
X101115164Y-77808517D01*
X101136439Y-77785067D01*
X101149779Y-77757166D01*
X101157001Y-77715641D01*
X101159923Y-77651316D01*
X101160385Y-77580200D01*
X101159383Y-77490858D01*
X101155238Y-77431258D01*
X101146236Y-77392089D01*
X101130667Y-77364040D01*
X101117902Y-77349144D01*
X101058600Y-77311575D01*
X100990301Y-77307057D01*
X100925110Y-77335753D01*
X100912528Y-77346406D01*
X100891111Y-77370063D01*
X100877744Y-77398251D01*
X100870566Y-77440245D01*
X100867719Y-77505319D01*
X100867308Y-77571986D01*
X100730809Y-77571986D01*
X100735322Y-77454765D01*
X100751362Y-77362577D01*
X100781528Y-77293269D01*
X100828629Y-77239211D01*
X100865312Y-77211505D01*
X100931990Y-77181572D01*
X101009272Y-77167678D01*
X101081110Y-77171397D01*
X101121308Y-77186400D01*
X101137082Y-77190670D01*
X101147550Y-77174750D01*
X101154856Y-77132089D01*
X101160385Y-77067106D01*
X101166437Y-76994732D01*
X101174844Y-76951187D01*
X101190141Y-76926287D01*
X101216864Y-76909845D01*
X101233654Y-76902564D01*
X101297154Y-76875963D01*
X101297081Y-77329289D01*
G36*
X100408362Y-77173670D02*
X100497117Y-77206421D01*
X100569022Y-77264350D01*
X100597144Y-77305128D01*
X100627802Y-77379954D01*
X100627165Y-77434058D01*
X100594987Y-77470446D01*
X100583081Y-77476633D01*
X100531675Y-77495925D01*
X100505422Y-77490982D01*
X100496530Y-77458587D01*
X100496077Y-77440692D01*
X100479797Y-77374859D01*
X100437365Y-77328807D01*
X100378388Y-77306564D01*
X100312475Y-77312161D01*
X100258895Y-77341229D01*
X100240798Y-77357810D01*
X100227971Y-77377925D01*
X100219306Y-77408332D01*
X100213696Y-77455788D01*
X100210035Y-77527050D01*
X100207215Y-77628875D01*
X100206484Y-77661115D01*
X100203820Y-77771410D01*
X100200792Y-77849036D01*
X100196250Y-77900396D01*
X100189046Y-77931890D01*
X100178033Y-77949920D01*
X100162060Y-77960888D01*
X100151834Y-77965733D01*
X100108406Y-77982301D01*
X100082842Y-77987769D01*
X100074395Y-77969507D01*
X100069239Y-77914296D01*
X100067346Y-77821499D01*
X100068689Y-77690478D01*
X100069107Y-77670269D01*
X100072058Y-77550733D01*
X100075548Y-77463449D01*
X100080514Y-77401591D01*
X100087893Y-77358336D01*
X100098624Y-77326860D01*
X100113645Y-77300339D01*
X100121502Y-77288975D01*
X100166553Y-77238692D01*
X100216940Y-77199581D01*
X100223108Y-77196167D01*
X100313458Y-77169212D01*
X100408362Y-77173670D01*
X100408362Y-77173670D01*
G37*
X100408362Y-77173670D02*
X100497117Y-77206421D01*
X100569022Y-77264350D01*
X100597144Y-77305128D01*
X100627802Y-77379954D01*
X100627165Y-77434058D01*
X100594987Y-77470446D01*
X100583081Y-77476633D01*
X100531675Y-77495925D01*
X100505422Y-77490982D01*
X100496530Y-77458587D01*
X100496077Y-77440692D01*
X100479797Y-77374859D01*
X100437365Y-77328807D01*
X100378388Y-77306564D01*
X100312475Y-77312161D01*
X100258895Y-77341229D01*
X100240798Y-77357810D01*
X100227971Y-77377925D01*
X100219306Y-77408332D01*
X100213696Y-77455788D01*
X100210035Y-77527050D01*
X100207215Y-77628875D01*
X100206484Y-77661115D01*
X100203820Y-77771410D01*
X100200792Y-77849036D01*
X100196250Y-77900396D01*
X100189046Y-77931890D01*
X100178033Y-77949920D01*
X100162060Y-77960888D01*
X100151834Y-77965733D01*
X100108406Y-77982301D01*
X100082842Y-77987769D01*
X100074395Y-77969507D01*
X100069239Y-77914296D01*
X100067346Y-77821499D01*
X100068689Y-77690478D01*
X100069107Y-77670269D01*
X100072058Y-77550733D01*
X100075548Y-77463449D01*
X100080514Y-77401591D01*
X100087893Y-77358336D01*
X100098624Y-77326860D01*
X100113645Y-77300339D01*
X100121502Y-77288975D01*
X100166553Y-77238692D01*
X100216940Y-77199581D01*
X100223108Y-77196167D01*
X100313458Y-77169212D01*
X100408362Y-77173670D01*
G36*
X99748501Y-77175303D02*
X99825060Y-77203733D01*
X99825936Y-77204279D01*
X99873285Y-77239127D01*
X99908241Y-77279852D01*
X99932825Y-77332925D01*
X99949062Y-77404814D01*
X99958975Y-77501992D01*
X99964586Y-77630928D01*
X99965077Y-77649298D01*
X99972141Y-77926287D01*
X99912695Y-77957028D01*
X99869681Y-77977802D01*
X99843710Y-77987646D01*
X99842509Y-77987769D01*
X99838014Y-77969606D01*
X99834444Y-77920612D01*
X99832248Y-77849031D01*
X99831769Y-77791068D01*
X99831758Y-77697170D01*
X99827466Y-77638203D01*
X99812503Y-77610079D01*
X99780482Y-77608706D01*
X99725014Y-77629998D01*
X99641269Y-77669136D01*
X99579689Y-77701643D01*
X99548017Y-77729845D01*
X99538706Y-77760582D01*
X99538692Y-77762104D01*
X99554057Y-77815054D01*
X99599547Y-77843660D01*
X99669166Y-77847803D01*
X99719313Y-77847084D01*
X99745754Y-77861527D01*
X99762243Y-77896218D01*
X99771733Y-77940416D01*
X99758057Y-77965493D01*
X99752907Y-77969082D01*
X99704425Y-77983496D01*
X99636531Y-77985537D01*
X99566612Y-77975983D01*
X99517068Y-77958522D01*
X99448570Y-77900364D01*
X99409634Y-77819408D01*
X99401923Y-77756160D01*
X99407807Y-77699111D01*
X99429101Y-77652542D01*
X99471265Y-77611181D01*
X99539759Y-77569755D01*
X99640044Y-77522993D01*
X99646154Y-77520350D01*
X99736490Y-77478617D01*
X99792235Y-77444391D01*
X99816129Y-77413635D01*
X99810913Y-77382311D01*
X99779328Y-77346383D01*
X99769883Y-77338116D01*
X99706617Y-77306058D01*
X99641064Y-77307407D01*
X99583972Y-77338838D01*
X99546093Y-77397024D01*
X99542574Y-77408446D01*
X99508300Y-77463837D01*
X99464809Y-77490518D01*
X99401923Y-77516960D01*
X99401923Y-77448548D01*
X99421052Y-77349110D01*
X99477831Y-77257902D01*
X99507378Y-77227389D01*
X99574542Y-77188228D01*
X99659956Y-77170500D01*
X99748501Y-77175303D01*
X99748501Y-77175303D01*
G37*
X99748501Y-77175303D02*
X99825060Y-77203733D01*
X99825936Y-77204279D01*
X99873285Y-77239127D01*
X99908241Y-77279852D01*
X99932825Y-77332925D01*
X99949062Y-77404814D01*
X99958975Y-77501992D01*
X99964586Y-77630928D01*
X99965077Y-77649298D01*
X99972141Y-77926287D01*
X99912695Y-77957028D01*
X99869681Y-77977802D01*
X99843710Y-77987646D01*
X99842509Y-77987769D01*
X99838014Y-77969606D01*
X99834444Y-77920612D01*
X99832248Y-77849031D01*
X99831769Y-77791068D01*
X99831758Y-77697170D01*
X99827466Y-77638203D01*
X99812503Y-77610079D01*
X99780482Y-77608706D01*
X99725014Y-77629998D01*
X99641269Y-77669136D01*
X99579689Y-77701643D01*
X99548017Y-77729845D01*
X99538706Y-77760582D01*
X99538692Y-77762104D01*
X99554057Y-77815054D01*
X99599547Y-77843660D01*
X99669166Y-77847803D01*
X99719313Y-77847084D01*
X99745754Y-77861527D01*
X99762243Y-77896218D01*
X99771733Y-77940416D01*
X99758057Y-77965493D01*
X99752907Y-77969082D01*
X99704425Y-77983496D01*
X99636531Y-77985537D01*
X99566612Y-77975983D01*
X99517068Y-77958522D01*
X99448570Y-77900364D01*
X99409634Y-77819408D01*
X99401923Y-77756160D01*
X99407807Y-77699111D01*
X99429101Y-77652542D01*
X99471265Y-77611181D01*
X99539759Y-77569755D01*
X99640044Y-77522993D01*
X99646154Y-77520350D01*
X99736490Y-77478617D01*
X99792235Y-77444391D01*
X99816129Y-77413635D01*
X99810913Y-77382311D01*
X99779328Y-77346383D01*
X99769883Y-77338116D01*
X99706617Y-77306058D01*
X99641064Y-77307407D01*
X99583972Y-77338838D01*
X99546093Y-77397024D01*
X99542574Y-77408446D01*
X99508300Y-77463837D01*
X99464809Y-77490518D01*
X99401923Y-77516960D01*
X99401923Y-77448548D01*
X99421052Y-77349110D01*
X99477831Y-77257902D01*
X99507378Y-77227389D01*
X99574542Y-77188228D01*
X99659956Y-77170500D01*
X99748501Y-77175303D01*
G36*
X98854846Y-77041120D02*
X98860572Y-77120980D01*
X98867149Y-77168039D01*
X98876262Y-77188566D01*
X98889598Y-77188829D01*
X98893923Y-77186378D01*
X98951444Y-77168636D01*
X99026268Y-77169672D01*
X99102339Y-77187910D01*
X99149918Y-77211505D01*
X99198702Y-77249198D01*
X99234364Y-77291855D01*
X99258845Y-77346057D01*
X99274087Y-77418384D01*
X99282030Y-77515419D01*
X99284616Y-77643742D01*
X99284662Y-77668358D01*
X99284692Y-77944870D01*
X99223161Y-77966320D01*
X99179459Y-77980912D01*
X99155482Y-77987706D01*
X99154777Y-77987769D01*
X99152415Y-77969345D01*
X99150406Y-77918526D01*
X99148901Y-77841993D01*
X99148053Y-77746430D01*
X99147923Y-77688329D01*
X99147651Y-77573771D01*
X99146252Y-77491667D01*
X99142849Y-77435393D01*
X99136567Y-77398326D01*
X99126529Y-77373844D01*
X99111861Y-77355325D01*
X99102702Y-77346406D01*
X99039789Y-77310466D01*
X98971136Y-77307775D01*
X98908848Y-77338170D01*
X98897329Y-77349144D01*
X98880433Y-77369779D01*
X98868714Y-77394256D01*
X98861233Y-77429647D01*
X98857054Y-77483026D01*
X98855237Y-77561466D01*
X98854846Y-77669617D01*
X98854846Y-77944870D01*
X98793315Y-77966320D01*
X98749613Y-77980912D01*
X98725636Y-77987706D01*
X98724930Y-77987769D01*
X98723126Y-77969069D01*
X98721500Y-77916322D01*
X98720117Y-77834557D01*
X98719042Y-77728805D01*
X98718340Y-77604094D01*
X98718077Y-77465455D01*
X98718077Y-76930806D01*
X98845077Y-76877236D01*
X98854846Y-77041120D01*
X98854846Y-77041120D01*
G37*
X98854846Y-77041120D02*
X98860572Y-77120980D01*
X98867149Y-77168039D01*
X98876262Y-77188566D01*
X98889598Y-77188829D01*
X98893923Y-77186378D01*
X98951444Y-77168636D01*
X99026268Y-77169672D01*
X99102339Y-77187910D01*
X99149918Y-77211505D01*
X99198702Y-77249198D01*
X99234364Y-77291855D01*
X99258845Y-77346057D01*
X99274087Y-77418384D01*
X99282030Y-77515419D01*
X99284616Y-77643742D01*
X99284662Y-77668358D01*
X99284692Y-77944870D01*
X99223161Y-77966320D01*
X99179459Y-77980912D01*
X99155482Y-77987706D01*
X99154777Y-77987769D01*
X99152415Y-77969345D01*
X99150406Y-77918526D01*
X99148901Y-77841993D01*
X99148053Y-77746430D01*
X99147923Y-77688329D01*
X99147651Y-77573771D01*
X99146252Y-77491667D01*
X99142849Y-77435393D01*
X99136567Y-77398326D01*
X99126529Y-77373844D01*
X99111861Y-77355325D01*
X99102702Y-77346406D01*
X99039789Y-77310466D01*
X98971136Y-77307775D01*
X98908848Y-77338170D01*
X98897329Y-77349144D01*
X98880433Y-77369779D01*
X98868714Y-77394256D01*
X98861233Y-77429647D01*
X98857054Y-77483026D01*
X98855237Y-77561466D01*
X98854846Y-77669617D01*
X98854846Y-77944870D01*
X98793315Y-77966320D01*
X98749613Y-77980912D01*
X98725636Y-77987706D01*
X98724930Y-77987769D01*
X98723126Y-77969069D01*
X98721500Y-77916322D01*
X98720117Y-77834557D01*
X98719042Y-77728805D01*
X98718340Y-77604094D01*
X98718077Y-77465455D01*
X98718077Y-76930806D01*
X98845077Y-76877236D01*
X98854846Y-77041120D01*
G36*
X97229254Y-77148745D02*
X97306286Y-77200567D01*
X97365816Y-77275412D01*
X97401378Y-77370654D01*
X97408571Y-77440756D01*
X97407754Y-77470009D01*
X97400914Y-77492407D01*
X97382112Y-77512474D01*
X97345408Y-77534733D01*
X97284862Y-77563709D01*
X97194534Y-77603927D01*
X97194077Y-77604129D01*
X97110933Y-77642210D01*
X97042753Y-77676025D01*
X96996505Y-77701933D01*
X96979158Y-77716295D01*
X96979154Y-77716411D01*
X96994443Y-77747685D01*
X97030196Y-77782157D01*
X97071242Y-77806990D01*
X97092037Y-77811923D01*
X97148770Y-77794862D01*
X97197627Y-77752133D01*
X97221465Y-77705155D01*
X97244397Y-77670522D01*
X97289318Y-77631081D01*
X97342123Y-77597009D01*
X97388710Y-77578480D01*
X97398452Y-77577462D01*
X97409418Y-77594215D01*
X97410079Y-77637039D01*
X97402020Y-77694781D01*
X97386827Y-77756289D01*
X97366086Y-77810409D01*
X97365038Y-77812510D01*
X97302621Y-77899660D01*
X97221726Y-77958939D01*
X97129856Y-77988034D01*
X97034513Y-77984634D01*
X96943198Y-77946428D01*
X96939138Y-77943741D01*
X96867306Y-77878642D01*
X96820073Y-77793705D01*
X96793934Y-77682021D01*
X96790426Y-77650643D01*
X96784213Y-77502536D01*
X96791661Y-77433468D01*
X96979154Y-77433468D01*
X96981590Y-77476552D01*
X96994914Y-77489126D01*
X97028132Y-77479719D01*
X97080494Y-77457483D01*
X97139024Y-77429610D01*
X97140479Y-77428872D01*
X97190089Y-77402777D01*
X97210000Y-77385363D01*
X97205090Y-77367107D01*
X97184416Y-77343120D01*
X97131819Y-77308406D01*
X97075177Y-77305856D01*
X97024369Y-77331119D01*
X96989276Y-77379847D01*
X96979154Y-77433468D01*
X96791661Y-77433468D01*
X96796992Y-77384036D01*
X96829778Y-77290055D01*
X96875421Y-77224215D01*
X96957802Y-77157681D01*
X97048546Y-77124676D01*
X97141185Y-77122573D01*
X97229254Y-77148745D01*
X97229254Y-77148745D01*
G37*
X97229254Y-77148745D02*
X97306286Y-77200567D01*
X97365816Y-77275412D01*
X97401378Y-77370654D01*
X97408571Y-77440756D01*
X97407754Y-77470009D01*
X97400914Y-77492407D01*
X97382112Y-77512474D01*
X97345408Y-77534733D01*
X97284862Y-77563709D01*
X97194534Y-77603927D01*
X97194077Y-77604129D01*
X97110933Y-77642210D01*
X97042753Y-77676025D01*
X96996505Y-77701933D01*
X96979158Y-77716295D01*
X96979154Y-77716411D01*
X96994443Y-77747685D01*
X97030196Y-77782157D01*
X97071242Y-77806990D01*
X97092037Y-77811923D01*
X97148770Y-77794862D01*
X97197627Y-77752133D01*
X97221465Y-77705155D01*
X97244397Y-77670522D01*
X97289318Y-77631081D01*
X97342123Y-77597009D01*
X97388710Y-77578480D01*
X97398452Y-77577462D01*
X97409418Y-77594215D01*
X97410079Y-77637039D01*
X97402020Y-77694781D01*
X97386827Y-77756289D01*
X97366086Y-77810409D01*
X97365038Y-77812510D01*
X97302621Y-77899660D01*
X97221726Y-77958939D01*
X97129856Y-77988034D01*
X97034513Y-77984634D01*
X96943198Y-77946428D01*
X96939138Y-77943741D01*
X96867306Y-77878642D01*
X96820073Y-77793705D01*
X96793934Y-77682021D01*
X96790426Y-77650643D01*
X96784213Y-77502536D01*
X96791661Y-77433468D01*
X96979154Y-77433468D01*
X96981590Y-77476552D01*
X96994914Y-77489126D01*
X97028132Y-77479719D01*
X97080494Y-77457483D01*
X97139024Y-77429610D01*
X97140479Y-77428872D01*
X97190089Y-77402777D01*
X97210000Y-77385363D01*
X97205090Y-77367107D01*
X97184416Y-77343120D01*
X97131819Y-77308406D01*
X97075177Y-77305856D01*
X97024369Y-77331119D01*
X96989276Y-77379847D01*
X96979154Y-77433468D01*
X96791661Y-77433468D01*
X96796992Y-77384036D01*
X96829778Y-77290055D01*
X96875421Y-77224215D01*
X96957802Y-77157681D01*
X97048546Y-77124676D01*
X97141185Y-77122573D01*
X97229254Y-77148745D01*
G36*
X95711886Y-77136256D02*
X95803464Y-77184409D01*
X95871049Y-77261905D01*
X95895057Y-77311727D01*
X95913738Y-77386533D01*
X95923301Y-77481052D01*
X95924208Y-77584210D01*
X95916921Y-77684935D01*
X95901903Y-77772153D01*
X95879615Y-77834791D01*
X95872765Y-77845579D01*
X95791632Y-77926105D01*
X95695266Y-77974336D01*
X95590701Y-77988450D01*
X95484968Y-77966629D01*
X95455543Y-77953547D01*
X95398241Y-77913231D01*
X95347950Y-77859775D01*
X95343197Y-77852995D01*
X95323878Y-77820321D01*
X95311108Y-77785394D01*
X95303564Y-77739414D01*
X95299924Y-77673584D01*
X95298865Y-77579105D01*
X95298846Y-77557923D01*
X95298894Y-77551182D01*
X95494231Y-77551182D01*
X95495368Y-77640349D01*
X95499841Y-77699520D01*
X95509246Y-77737741D01*
X95525176Y-77764053D01*
X95533308Y-77772846D01*
X95580058Y-77806261D01*
X95625447Y-77804737D01*
X95671340Y-77775752D01*
X95698712Y-77744809D01*
X95714923Y-77699643D01*
X95724026Y-77628420D01*
X95724651Y-77620114D01*
X95726204Y-77491037D01*
X95709965Y-77395172D01*
X95676152Y-77333107D01*
X95624984Y-77305432D01*
X95606720Y-77303923D01*
X95558760Y-77311513D01*
X95525953Y-77337808D01*
X95505895Y-77388095D01*
X95496178Y-77467664D01*
X95494231Y-77551182D01*
X95298894Y-77551182D01*
X95299574Y-77457249D01*
X95302629Y-77386906D01*
X95309322Y-77338163D01*
X95320960Y-77302288D01*
X95338853Y-77270548D01*
X95342808Y-77264648D01*
X95409267Y-77185104D01*
X95481685Y-77138929D01*
X95569849Y-77120599D01*
X95599787Y-77119703D01*
X95711886Y-77136256D01*
X95711886Y-77136256D01*
G37*
X95711886Y-77136256D02*
X95803464Y-77184409D01*
X95871049Y-77261905D01*
X95895057Y-77311727D01*
X95913738Y-77386533D01*
X95923301Y-77481052D01*
X95924208Y-77584210D01*
X95916921Y-77684935D01*
X95901903Y-77772153D01*
X95879615Y-77834791D01*
X95872765Y-77845579D01*
X95791632Y-77926105D01*
X95695266Y-77974336D01*
X95590701Y-77988450D01*
X95484968Y-77966629D01*
X95455543Y-77953547D01*
X95398241Y-77913231D01*
X95347950Y-77859775D01*
X95343197Y-77852995D01*
X95323878Y-77820321D01*
X95311108Y-77785394D01*
X95303564Y-77739414D01*
X95299924Y-77673584D01*
X95298865Y-77579105D01*
X95298846Y-77557923D01*
X95298894Y-77551182D01*
X95494231Y-77551182D01*
X95495368Y-77640349D01*
X95499841Y-77699520D01*
X95509246Y-77737741D01*
X95525176Y-77764053D01*
X95533308Y-77772846D01*
X95580058Y-77806261D01*
X95625447Y-77804737D01*
X95671340Y-77775752D01*
X95698712Y-77744809D01*
X95714923Y-77699643D01*
X95724026Y-77628420D01*
X95724651Y-77620114D01*
X95726204Y-77491037D01*
X95709965Y-77395172D01*
X95676152Y-77333107D01*
X95624984Y-77305432D01*
X95606720Y-77303923D01*
X95558760Y-77311513D01*
X95525953Y-77337808D01*
X95505895Y-77388095D01*
X95496178Y-77467664D01*
X95494231Y-77551182D01*
X95298894Y-77551182D01*
X95299574Y-77457249D01*
X95302629Y-77386906D01*
X95309322Y-77338163D01*
X95320960Y-77302288D01*
X95338853Y-77270548D01*
X95342808Y-77264648D01*
X95409267Y-77185104D01*
X95481685Y-77138929D01*
X95569849Y-77120599D01*
X95599787Y-77119703D01*
X95711886Y-77136256D01*
G36*
X97966664Y-77144089D02*
X98029367Y-77180358D01*
X98072961Y-77216358D01*
X98104845Y-77254075D01*
X98126810Y-77300199D01*
X98140649Y-77361421D01*
X98148153Y-77444431D01*
X98151117Y-77555919D01*
X98151461Y-77636062D01*
X98151461Y-77931065D01*
X97985385Y-78005515D01*
X97975615Y-77682402D01*
X97971579Y-77561729D01*
X97967344Y-77474141D01*
X97962097Y-77413650D01*
X97955025Y-77374268D01*
X97945311Y-77350007D01*
X97932144Y-77334880D01*
X97927919Y-77331606D01*
X97863909Y-77306034D01*
X97799208Y-77316153D01*
X97760692Y-77343000D01*
X97745025Y-77362024D01*
X97734180Y-77386988D01*
X97727288Y-77424834D01*
X97723479Y-77482502D01*
X97721883Y-77566935D01*
X97721615Y-77654928D01*
X97721563Y-77765323D01*
X97719672Y-77843463D01*
X97713345Y-77896165D01*
X97699983Y-77930242D01*
X97676985Y-77952511D01*
X97641754Y-77969787D01*
X97594697Y-77987738D01*
X97543303Y-78007278D01*
X97549421Y-77660485D01*
X97551884Y-77535468D01*
X97554767Y-77443082D01*
X97558898Y-77376881D01*
X97565107Y-77330420D01*
X97574226Y-77297256D01*
X97587083Y-77270944D01*
X97602584Y-77247729D01*
X97677371Y-77173569D01*
X97768628Y-77130684D01*
X97867883Y-77120412D01*
X97966664Y-77144089D01*
X97966664Y-77144089D01*
G37*
X97966664Y-77144089D02*
X98029367Y-77180358D01*
X98072961Y-77216358D01*
X98104845Y-77254075D01*
X98126810Y-77300199D01*
X98140649Y-77361421D01*
X98148153Y-77444431D01*
X98151117Y-77555919D01*
X98151461Y-77636062D01*
X98151461Y-77931065D01*
X97985385Y-78005515D01*
X97975615Y-77682402D01*
X97971579Y-77561729D01*
X97967344Y-77474141D01*
X97962097Y-77413650D01*
X97955025Y-77374268D01*
X97945311Y-77350007D01*
X97932144Y-77334880D01*
X97927919Y-77331606D01*
X97863909Y-77306034D01*
X97799208Y-77316153D01*
X97760692Y-77343000D01*
X97745025Y-77362024D01*
X97734180Y-77386988D01*
X97727288Y-77424834D01*
X97723479Y-77482502D01*
X97721883Y-77566935D01*
X97721615Y-77654928D01*
X97721563Y-77765323D01*
X97719672Y-77843463D01*
X97713345Y-77896165D01*
X97699983Y-77930242D01*
X97676985Y-77952511D01*
X97641754Y-77969787D01*
X97594697Y-77987738D01*
X97543303Y-78007278D01*
X97549421Y-77660485D01*
X97551884Y-77535468D01*
X97554767Y-77443082D01*
X97558898Y-77376881D01*
X97565107Y-77330420D01*
X97574226Y-77297256D01*
X97587083Y-77270944D01*
X97602584Y-77247729D01*
X97677371Y-77173569D01*
X97768628Y-77130684D01*
X97867883Y-77120412D01*
X97966664Y-77144089D01*
G36*
X96463886Y-77133505D02*
X96538539Y-77170727D01*
X96604431Y-77239261D01*
X96622577Y-77264648D01*
X96642345Y-77297866D01*
X96655172Y-77333945D01*
X96662510Y-77382098D01*
X96665813Y-77451536D01*
X96666538Y-77543206D01*
X96663263Y-77668830D01*
X96651877Y-77763154D01*
X96630041Y-77833523D01*
X96595419Y-77887286D01*
X96545670Y-77931788D01*
X96542014Y-77934423D01*
X96492985Y-77961377D01*
X96433945Y-77974712D01*
X96358859Y-77978000D01*
X96236795Y-77978000D01*
X96236744Y-78096497D01*
X96235608Y-78162492D01*
X96228686Y-78201202D01*
X96210598Y-78224419D01*
X96175962Y-78243933D01*
X96167645Y-78247920D01*
X96128720Y-78266603D01*
X96098583Y-78278403D01*
X96076174Y-78279422D01*
X96060433Y-78265761D01*
X96050302Y-78233522D01*
X96044723Y-78178804D01*
X96042635Y-78097711D01*
X96042981Y-77986344D01*
X96044700Y-77840802D01*
X96045237Y-77797269D01*
X96047172Y-77647205D01*
X96048904Y-77549042D01*
X96236692Y-77549042D01*
X96237748Y-77632364D01*
X96242438Y-77686880D01*
X96253051Y-77722837D01*
X96271872Y-77750482D01*
X96284650Y-77763965D01*
X96336890Y-77803417D01*
X96383142Y-77806628D01*
X96430867Y-77774049D01*
X96432077Y-77772846D01*
X96451494Y-77747668D01*
X96463307Y-77713447D01*
X96469265Y-77660748D01*
X96471120Y-77580131D01*
X96471154Y-77562271D01*
X96466670Y-77451175D01*
X96452074Y-77374161D01*
X96425650Y-77327147D01*
X96385683Y-77306050D01*
X96362584Y-77303923D01*
X96307762Y-77313900D01*
X96270158Y-77346752D01*
X96247523Y-77406857D01*
X96237606Y-77498598D01*
X96236692Y-77549042D01*
X96048904Y-77549042D01*
X96049222Y-77531060D01*
X96051873Y-77443679D01*
X96055606Y-77379905D01*
X96060907Y-77334582D01*
X96068258Y-77302555D01*
X96078143Y-77278668D01*
X96091046Y-77257764D01*
X96096579Y-77249898D01*
X96169969Y-77175595D01*
X96262760Y-77133467D01*
X96370096Y-77121722D01*
X96463886Y-77133505D01*
X96463886Y-77133505D01*
G37*
X96463886Y-77133505D02*
X96538539Y-77170727D01*
X96604431Y-77239261D01*
X96622577Y-77264648D01*
X96642345Y-77297866D01*
X96655172Y-77333945D01*
X96662510Y-77382098D01*
X96665813Y-77451536D01*
X96666538Y-77543206D01*
X96663263Y-77668830D01*
X96651877Y-77763154D01*
X96630041Y-77833523D01*
X96595419Y-77887286D01*
X96545670Y-77931788D01*
X96542014Y-77934423D01*
X96492985Y-77961377D01*
X96433945Y-77974712D01*
X96358859Y-77978000D01*
X96236795Y-77978000D01*
X96236744Y-78096497D01*
X96235608Y-78162492D01*
X96228686Y-78201202D01*
X96210598Y-78224419D01*
X96175962Y-78243933D01*
X96167645Y-78247920D01*
X96128720Y-78266603D01*
X96098583Y-78278403D01*
X96076174Y-78279422D01*
X96060433Y-78265761D01*
X96050302Y-78233522D01*
X96044723Y-78178804D01*
X96042635Y-78097711D01*
X96042981Y-77986344D01*
X96044700Y-77840802D01*
X96045237Y-77797269D01*
X96047172Y-77647205D01*
X96048904Y-77549042D01*
X96236692Y-77549042D01*
X96237748Y-77632364D01*
X96242438Y-77686880D01*
X96253051Y-77722837D01*
X96271872Y-77750482D01*
X96284650Y-77763965D01*
X96336890Y-77803417D01*
X96383142Y-77806628D01*
X96430867Y-77774049D01*
X96432077Y-77772846D01*
X96451494Y-77747668D01*
X96463307Y-77713447D01*
X96469265Y-77660748D01*
X96471120Y-77580131D01*
X96471154Y-77562271D01*
X96466670Y-77451175D01*
X96452074Y-77374161D01*
X96425650Y-77327147D01*
X96385683Y-77306050D01*
X96362584Y-77303923D01*
X96307762Y-77313900D01*
X96270158Y-77346752D01*
X96247523Y-77406857D01*
X96237606Y-77498598D01*
X96236692Y-77549042D01*
X96048904Y-77549042D01*
X96049222Y-77531060D01*
X96051873Y-77443679D01*
X96055606Y-77379905D01*
X96060907Y-77334582D01*
X96068258Y-77302555D01*
X96078143Y-77278668D01*
X96091046Y-77257764D01*
X96096579Y-77249898D01*
X96169969Y-77175595D01*
X96262760Y-77133467D01*
X96370096Y-77121722D01*
X96463886Y-77133505D01*
D14*
X106817333Y-107565000D02*
X106784000Y-107598333D01*
X106684000Y-107631666D01*
X106617333Y-107631666D01*
X106517333Y-107598333D01*
X106450666Y-107531666D01*
X106417333Y-107465000D01*
X106384000Y-107331666D01*
X106384000Y-107231666D01*
X106417333Y-107098333D01*
X106450666Y-107031666D01*
X106517333Y-106965000D01*
X106617333Y-106931666D01*
X106684000Y-106931666D01*
X106784000Y-106965000D01*
X106817333Y-106998333D01*
X107084000Y-106998333D02*
X107117333Y-106965000D01*
X107184000Y-106931666D01*
X107350666Y-106931666D01*
X107417333Y-106965000D01*
X107450666Y-106998333D01*
X107484000Y-107065000D01*
X107484000Y-107131666D01*
X107450666Y-107231666D01*
X107050666Y-107631666D01*
X107484000Y-107631666D01*
X106182333Y-98421000D02*
X106149000Y-98454333D01*
X106049000Y-98487666D01*
X105982333Y-98487666D01*
X105882333Y-98454333D01*
X105815666Y-98387666D01*
X105782333Y-98321000D01*
X105749000Y-98187666D01*
X105749000Y-98087666D01*
X105782333Y-97954333D01*
X105815666Y-97887666D01*
X105882333Y-97821000D01*
X105982333Y-97787666D01*
X106049000Y-97787666D01*
X106149000Y-97821000D01*
X106182333Y-97854333D01*
X106415666Y-97787666D02*
X106849000Y-97787666D01*
X106615666Y-98054333D01*
X106715666Y-98054333D01*
X106782333Y-98087666D01*
X106815666Y-98121000D01*
X106849000Y-98187666D01*
X106849000Y-98354333D01*
X106815666Y-98421000D01*
X106782333Y-98454333D01*
X106715666Y-98487666D01*
X106515666Y-98487666D01*
X106449000Y-98454333D01*
X106415666Y-98421000D01*
X110402000Y-120773000D02*
X110368666Y-120806333D01*
X110268666Y-120839666D01*
X110202000Y-120839666D01*
X110102000Y-120806333D01*
X110035333Y-120739666D01*
X110002000Y-120673000D01*
X109968666Y-120539666D01*
X109968666Y-120439666D01*
X110002000Y-120306333D01*
X110035333Y-120239666D01*
X110102000Y-120173000D01*
X110202000Y-120139666D01*
X110268666Y-120139666D01*
X110368666Y-120173000D01*
X110402000Y-120206333D01*
X110835333Y-120139666D02*
X110968666Y-120139666D01*
X111035333Y-120173000D01*
X111102000Y-120239666D01*
X111135333Y-120373000D01*
X111135333Y-120606333D01*
X111102000Y-120739666D01*
X111035333Y-120806333D01*
X110968666Y-120839666D01*
X110835333Y-120839666D01*
X110768666Y-120806333D01*
X110702000Y-120739666D01*
X110668666Y-120606333D01*
X110668666Y-120373000D01*
X110702000Y-120239666D01*
X110768666Y-120173000D01*
X110835333Y-120139666D01*
X111435333Y-120839666D02*
X111435333Y-120139666D01*
X111835333Y-120839666D01*
X111835333Y-120139666D01*
X112535333Y-120839666D02*
X112135333Y-120839666D01*
X112335333Y-120839666D02*
X112335333Y-120139666D01*
X112268666Y-120239666D01*
X112202000Y-120306333D01*
X112135333Y-120339666D01*
D13*
X202287142Y-96718285D02*
X202334761Y-96765904D01*
X202382380Y-96908761D01*
X202382380Y-97004000D01*
X202334761Y-97146857D01*
X202239523Y-97242095D01*
X202144285Y-97289714D01*
X201953809Y-97337333D01*
X201810952Y-97337333D01*
X201620476Y-97289714D01*
X201525238Y-97242095D01*
X201430000Y-97146857D01*
X201382380Y-97004000D01*
X201382380Y-96908761D01*
X201430000Y-96765904D01*
X201477619Y-96718285D01*
X201382380Y-96099238D02*
X201382380Y-95908761D01*
X201430000Y-95813523D01*
X201525238Y-95718285D01*
X201715714Y-95670666D01*
X202049047Y-95670666D01*
X202239523Y-95718285D01*
X202334761Y-95813523D01*
X202382380Y-95908761D01*
X202382380Y-96099238D01*
X202334761Y-96194476D01*
X202239523Y-96289714D01*
X202049047Y-96337333D01*
X201715714Y-96337333D01*
X201525238Y-96289714D01*
X201430000Y-96194476D01*
X201382380Y-96099238D01*
X202382380Y-95242095D02*
X201382380Y-95242095D01*
X202382380Y-94670666D01*
X201382380Y-94670666D01*
X201477619Y-94242095D02*
X201430000Y-94194476D01*
X201382380Y-94099238D01*
X201382380Y-93861142D01*
X201430000Y-93765904D01*
X201477619Y-93718285D01*
X201572857Y-93670666D01*
X201668095Y-93670666D01*
X201810952Y-93718285D01*
X202382380Y-94289714D01*
X202382380Y-93670666D01*
X95114333Y-106488666D02*
X95114333Y-105788666D01*
X95281000Y-105788666D01*
X95381000Y-105822000D01*
X95447666Y-105888666D01*
X95481000Y-105955333D01*
X95514333Y-106088666D01*
X95514333Y-106188666D01*
X95481000Y-106322000D01*
X95447666Y-106388666D01*
X95381000Y-106455333D01*
X95281000Y-106488666D01*
X95114333Y-106488666D01*
X96181000Y-106488666D02*
X95781000Y-106488666D01*
X95981000Y-106488666D02*
X95981000Y-105788666D01*
X95914333Y-105888666D01*
X95847666Y-105955333D01*
X95781000Y-105988666D01*
D14*
X95778666Y-120981000D02*
X95545333Y-120981000D01*
X95545333Y-121347666D02*
X95545333Y-120647666D01*
X95878666Y-120647666D01*
X96512000Y-121347666D02*
X96112000Y-121347666D01*
X96312000Y-121347666D02*
X96312000Y-120647666D01*
X96245333Y-120747666D01*
X96178666Y-120814333D01*
X96112000Y-120847666D01*
D13*
X136818809Y-92146380D02*
X136818809Y-91146380D01*
X137866428Y-92051142D02*
X137818809Y-92098761D01*
X137675952Y-92146380D01*
X137580714Y-92146380D01*
X137437857Y-92098761D01*
X137342619Y-92003523D01*
X137295000Y-91908285D01*
X137247380Y-91717809D01*
X137247380Y-91574952D01*
X137295000Y-91384476D01*
X137342619Y-91289238D01*
X137437857Y-91194000D01*
X137580714Y-91146380D01*
X137675952Y-91146380D01*
X137818809Y-91194000D01*
X137866428Y-91241619D01*
X138818809Y-92146380D02*
X138247380Y-92146380D01*
X138533095Y-92146380D02*
X138533095Y-91146380D01*
X138437857Y-91289238D01*
X138342619Y-91384476D01*
X138247380Y-91432095D01*
X114164333Y-109536666D02*
X114164333Y-108836666D01*
X114431000Y-108836666D01*
X114497666Y-108870000D01*
X114531000Y-108903333D01*
X114564333Y-108970000D01*
X114564333Y-109070000D01*
X114531000Y-109136666D01*
X114497666Y-109170000D01*
X114431000Y-109203333D01*
X114164333Y-109203333D01*
X115231000Y-109536666D02*
X114831000Y-109536666D01*
X115031000Y-109536666D02*
X115031000Y-108836666D01*
X114964333Y-108936666D01*
X114897666Y-109003333D01*
X114831000Y-109036666D01*
D14*
X174212333Y-111835380D02*
X174283761Y-111859190D01*
X174402809Y-111859190D01*
X174450428Y-111835380D01*
X174474238Y-111811571D01*
X174498047Y-111763952D01*
X174498047Y-111716333D01*
X174474238Y-111668714D01*
X174450428Y-111644904D01*
X174402809Y-111621095D01*
X174307571Y-111597285D01*
X174259952Y-111573476D01*
X174236142Y-111549666D01*
X174212333Y-111502047D01*
X174212333Y-111454428D01*
X174236142Y-111406809D01*
X174259952Y-111383000D01*
X174307571Y-111359190D01*
X174426619Y-111359190D01*
X174498047Y-111383000D01*
X174664714Y-111359190D02*
X174783761Y-111859190D01*
X174879000Y-111502047D01*
X174974238Y-111859190D01*
X175093285Y-111359190D01*
X175545666Y-111859190D02*
X175259952Y-111859190D01*
X175402809Y-111859190D02*
X175402809Y-111359190D01*
X175355190Y-111430619D01*
X175307571Y-111478238D01*
X175259952Y-111502047D01*
D13*
X100431666Y-105026666D02*
X100431666Y-105593333D01*
X100465000Y-105660000D01*
X100498333Y-105693333D01*
X100565000Y-105726666D01*
X100698333Y-105726666D01*
X100765000Y-105693333D01*
X100798333Y-105660000D01*
X100831666Y-105593333D01*
X100831666Y-105026666D01*
X101531666Y-105726666D02*
X101131666Y-105726666D01*
X101331666Y-105726666D02*
X101331666Y-105026666D01*
X101265000Y-105126666D01*
X101198333Y-105193333D01*
X101131666Y-105226666D01*
D14*
X171211904Y-94603095D02*
X171211904Y-94841190D01*
X171045238Y-94341190D02*
X171211904Y-94603095D01*
X171378571Y-94341190D01*
X171807142Y-94841190D02*
X171521428Y-94841190D01*
X171664285Y-94841190D02*
X171664285Y-94341190D01*
X171616666Y-94412619D01*
X171569047Y-94460238D01*
X171521428Y-94484047D01*
X163492666Y-102921571D02*
X163468857Y-102945380D01*
X163397428Y-102969190D01*
X163349809Y-102969190D01*
X163278380Y-102945380D01*
X163230761Y-102897761D01*
X163206952Y-102850142D01*
X163183142Y-102754904D01*
X163183142Y-102683476D01*
X163206952Y-102588238D01*
X163230761Y-102540619D01*
X163278380Y-102493000D01*
X163349809Y-102469190D01*
X163397428Y-102469190D01*
X163468857Y-102493000D01*
X163492666Y-102516809D01*
X163659333Y-102469190D02*
X163992666Y-102469190D01*
X163778380Y-102969190D01*
X171747666Y-102794571D02*
X171723857Y-102818380D01*
X171652428Y-102842190D01*
X171604809Y-102842190D01*
X171533380Y-102818380D01*
X171485761Y-102770761D01*
X171461952Y-102723142D01*
X171438142Y-102627904D01*
X171438142Y-102556476D01*
X171461952Y-102461238D01*
X171485761Y-102413619D01*
X171533380Y-102366000D01*
X171604809Y-102342190D01*
X171652428Y-102342190D01*
X171723857Y-102366000D01*
X171747666Y-102389809D01*
X172033380Y-102556476D02*
X171985761Y-102532666D01*
X171961952Y-102508857D01*
X171938142Y-102461238D01*
X171938142Y-102437428D01*
X171961952Y-102389809D01*
X171985761Y-102366000D01*
X172033380Y-102342190D01*
X172128619Y-102342190D01*
X172176238Y-102366000D01*
X172200047Y-102389809D01*
X172223857Y-102437428D01*
X172223857Y-102461238D01*
X172200047Y-102508857D01*
X172176238Y-102532666D01*
X172128619Y-102556476D01*
X172033380Y-102556476D01*
X171985761Y-102580285D01*
X171961952Y-102604095D01*
X171938142Y-102651714D01*
X171938142Y-102746952D01*
X171961952Y-102794571D01*
X171985761Y-102818380D01*
X172033380Y-102842190D01*
X172128619Y-102842190D01*
X172176238Y-102818380D01*
X172200047Y-102794571D01*
X172223857Y-102746952D01*
X172223857Y-102651714D01*
X172200047Y-102604095D01*
X172176238Y-102580285D01*
X172128619Y-102556476D01*
X163238666Y-97714571D02*
X163214857Y-97738380D01*
X163143428Y-97762190D01*
X163095809Y-97762190D01*
X163024380Y-97738380D01*
X162976761Y-97690761D01*
X162952952Y-97643142D01*
X162929142Y-97547904D01*
X162929142Y-97476476D01*
X162952952Y-97381238D01*
X162976761Y-97333619D01*
X163024380Y-97286000D01*
X163095809Y-97262190D01*
X163143428Y-97262190D01*
X163214857Y-97286000D01*
X163238666Y-97309809D01*
X163476761Y-97762190D02*
X163572000Y-97762190D01*
X163619619Y-97738380D01*
X163643428Y-97714571D01*
X163691047Y-97643142D01*
X163714857Y-97547904D01*
X163714857Y-97357428D01*
X163691047Y-97309809D01*
X163667238Y-97286000D01*
X163619619Y-97262190D01*
X163524380Y-97262190D01*
X163476761Y-97286000D01*
X163452952Y-97309809D01*
X163429142Y-97357428D01*
X163429142Y-97476476D01*
X163452952Y-97524095D01*
X163476761Y-97547904D01*
X163524380Y-97571714D01*
X163619619Y-97571714D01*
X163667238Y-97547904D01*
X163691047Y-97524095D01*
X163714857Y-97476476D01*
D13*
X94733333Y-87565666D02*
X94733333Y-86865666D01*
X94900000Y-86865666D01*
X95000000Y-86899000D01*
X95066666Y-86965666D01*
X95100000Y-87032333D01*
X95133333Y-87165666D01*
X95133333Y-87265666D01*
X95100000Y-87399000D01*
X95066666Y-87465666D01*
X95000000Y-87532333D01*
X94900000Y-87565666D01*
X94733333Y-87565666D01*
X95400000Y-86932333D02*
X95433333Y-86899000D01*
X95500000Y-86865666D01*
X95666666Y-86865666D01*
X95733333Y-86899000D01*
X95766666Y-86932333D01*
X95800000Y-86999000D01*
X95800000Y-87065666D01*
X95766666Y-87165666D01*
X95366666Y-87565666D01*
X95800000Y-87565666D01*
D14*
X99051333Y-53910666D02*
X99051333Y-53210666D01*
X99318000Y-53210666D01*
X99384666Y-53244000D01*
X99418000Y-53277333D01*
X99451333Y-53344000D01*
X99451333Y-53444000D01*
X99418000Y-53510666D01*
X99384666Y-53544000D01*
X99318000Y-53577333D01*
X99051333Y-53577333D01*
X99718000Y-53277333D02*
X99751333Y-53244000D01*
X99818000Y-53210666D01*
X99984666Y-53210666D01*
X100051333Y-53244000D01*
X100084666Y-53277333D01*
X100118000Y-53344000D01*
X100118000Y-53410666D01*
X100084666Y-53510666D01*
X99684666Y-53910666D01*
X100118000Y-53910666D01*
X101356333Y-87624666D02*
X101123000Y-87291333D01*
X100956333Y-87624666D02*
X100956333Y-86924666D01*
X101223000Y-86924666D01*
X101289666Y-86958000D01*
X101323000Y-86991333D01*
X101356333Y-87058000D01*
X101356333Y-87158000D01*
X101323000Y-87224666D01*
X101289666Y-87258000D01*
X101223000Y-87291333D01*
X100956333Y-87291333D01*
X102023000Y-87624666D02*
X101623000Y-87624666D01*
X101823000Y-87624666D02*
X101823000Y-86924666D01*
X101756333Y-87024666D01*
X101689666Y-87091333D01*
X101623000Y-87124666D01*
X178097666Y-97762190D02*
X177931000Y-97524095D01*
X177811952Y-97762190D02*
X177811952Y-97262190D01*
X178002428Y-97262190D01*
X178050047Y-97286000D01*
X178073857Y-97309809D01*
X178097666Y-97357428D01*
X178097666Y-97428857D01*
X178073857Y-97476476D01*
X178050047Y-97500285D01*
X178002428Y-97524095D01*
X177811952Y-97524095D01*
X178288142Y-97309809D02*
X178311952Y-97286000D01*
X178359571Y-97262190D01*
X178478619Y-97262190D01*
X178526238Y-97286000D01*
X178550047Y-97309809D01*
X178573857Y-97357428D01*
X178573857Y-97405047D01*
X178550047Y-97476476D01*
X178264333Y-97762190D01*
X178573857Y-97762190D01*
X181018666Y-97889190D02*
X180852000Y-97651095D01*
X180732952Y-97889190D02*
X180732952Y-97389190D01*
X180923428Y-97389190D01*
X180971047Y-97413000D01*
X180994857Y-97436809D01*
X181018666Y-97484428D01*
X181018666Y-97555857D01*
X180994857Y-97603476D01*
X180971047Y-97627285D01*
X180923428Y-97651095D01*
X180732952Y-97651095D01*
X181185333Y-97389190D02*
X181494857Y-97389190D01*
X181328190Y-97579666D01*
X181399619Y-97579666D01*
X181447238Y-97603476D01*
X181471047Y-97627285D01*
X181494857Y-97674904D01*
X181494857Y-97793952D01*
X181471047Y-97841571D01*
X181447238Y-97865380D01*
X181399619Y-97889190D01*
X181256761Y-97889190D01*
X181209142Y-97865380D01*
X181185333Y-97841571D01*
X183812666Y-97889190D02*
X183646000Y-97651095D01*
X183526952Y-97889190D02*
X183526952Y-97389190D01*
X183717428Y-97389190D01*
X183765047Y-97413000D01*
X183788857Y-97436809D01*
X183812666Y-97484428D01*
X183812666Y-97555857D01*
X183788857Y-97603476D01*
X183765047Y-97627285D01*
X183717428Y-97651095D01*
X183526952Y-97651095D01*
X184241238Y-97555857D02*
X184241238Y-97889190D01*
X184122190Y-97365380D02*
X184003142Y-97722523D01*
X184312666Y-97722523D01*
X186606666Y-97889190D02*
X186440000Y-97651095D01*
X186320952Y-97889190D02*
X186320952Y-97389190D01*
X186511428Y-97389190D01*
X186559047Y-97413000D01*
X186582857Y-97436809D01*
X186606666Y-97484428D01*
X186606666Y-97555857D01*
X186582857Y-97603476D01*
X186559047Y-97627285D01*
X186511428Y-97651095D01*
X186320952Y-97651095D01*
X187059047Y-97389190D02*
X186820952Y-97389190D01*
X186797142Y-97627285D01*
X186820952Y-97603476D01*
X186868571Y-97579666D01*
X186987619Y-97579666D01*
X187035238Y-97603476D01*
X187059047Y-97627285D01*
X187082857Y-97674904D01*
X187082857Y-97793952D01*
X187059047Y-97841571D01*
X187035238Y-97865380D01*
X186987619Y-97889190D01*
X186868571Y-97889190D01*
X186820952Y-97865380D01*
X186797142Y-97841571D01*
X189400666Y-97889190D02*
X189234000Y-97651095D01*
X189114952Y-97889190D02*
X189114952Y-97389190D01*
X189305428Y-97389190D01*
X189353047Y-97413000D01*
X189376857Y-97436809D01*
X189400666Y-97484428D01*
X189400666Y-97555857D01*
X189376857Y-97603476D01*
X189353047Y-97627285D01*
X189305428Y-97651095D01*
X189114952Y-97651095D01*
X189829238Y-97389190D02*
X189734000Y-97389190D01*
X189686380Y-97413000D01*
X189662571Y-97436809D01*
X189614952Y-97508238D01*
X189591142Y-97603476D01*
X189591142Y-97793952D01*
X189614952Y-97841571D01*
X189638761Y-97865380D01*
X189686380Y-97889190D01*
X189781619Y-97889190D01*
X189829238Y-97865380D01*
X189853047Y-97841571D01*
X189876857Y-97793952D01*
X189876857Y-97674904D01*
X189853047Y-97627285D01*
X189829238Y-97603476D01*
X189781619Y-97579666D01*
X189686380Y-97579666D01*
X189638761Y-97603476D01*
X189614952Y-97627285D01*
X189591142Y-97674904D01*
X192067666Y-97889190D02*
X191901000Y-97651095D01*
X191781952Y-97889190D02*
X191781952Y-97389190D01*
X191972428Y-97389190D01*
X192020047Y-97413000D01*
X192043857Y-97436809D01*
X192067666Y-97484428D01*
X192067666Y-97555857D01*
X192043857Y-97603476D01*
X192020047Y-97627285D01*
X191972428Y-97651095D01*
X191781952Y-97651095D01*
X192234333Y-97389190D02*
X192567666Y-97389190D01*
X192353380Y-97889190D01*
X194988666Y-97889190D02*
X194822000Y-97651095D01*
X194702952Y-97889190D02*
X194702952Y-97389190D01*
X194893428Y-97389190D01*
X194941047Y-97413000D01*
X194964857Y-97436809D01*
X194988666Y-97484428D01*
X194988666Y-97555857D01*
X194964857Y-97603476D01*
X194941047Y-97627285D01*
X194893428Y-97651095D01*
X194702952Y-97651095D01*
X195274380Y-97603476D02*
X195226761Y-97579666D01*
X195202952Y-97555857D01*
X195179142Y-97508238D01*
X195179142Y-97484428D01*
X195202952Y-97436809D01*
X195226761Y-97413000D01*
X195274380Y-97389190D01*
X195369619Y-97389190D01*
X195417238Y-97413000D01*
X195441047Y-97436809D01*
X195464857Y-97484428D01*
X195464857Y-97508238D01*
X195441047Y-97555857D01*
X195417238Y-97579666D01*
X195369619Y-97603476D01*
X195274380Y-97603476D01*
X195226761Y-97627285D01*
X195202952Y-97651095D01*
X195179142Y-97698714D01*
X195179142Y-97793952D01*
X195202952Y-97841571D01*
X195226761Y-97865380D01*
X195274380Y-97889190D01*
X195369619Y-97889190D01*
X195417238Y-97865380D01*
X195441047Y-97841571D01*
X195464857Y-97793952D01*
X195464857Y-97698714D01*
X195441047Y-97651095D01*
X195417238Y-97627285D01*
X195369619Y-97603476D01*
X197782666Y-97889190D02*
X197616000Y-97651095D01*
X197496952Y-97889190D02*
X197496952Y-97389190D01*
X197687428Y-97389190D01*
X197735047Y-97413000D01*
X197758857Y-97436809D01*
X197782666Y-97484428D01*
X197782666Y-97555857D01*
X197758857Y-97603476D01*
X197735047Y-97627285D01*
X197687428Y-97651095D01*
X197496952Y-97651095D01*
X198020761Y-97889190D02*
X198116000Y-97889190D01*
X198163619Y-97865380D01*
X198187428Y-97841571D01*
X198235047Y-97770142D01*
X198258857Y-97674904D01*
X198258857Y-97484428D01*
X198235047Y-97436809D01*
X198211238Y-97413000D01*
X198163619Y-97389190D01*
X198068380Y-97389190D01*
X198020761Y-97413000D01*
X197996952Y-97436809D01*
X197973142Y-97484428D01*
X197973142Y-97603476D01*
X197996952Y-97651095D01*
X198020761Y-97674904D01*
X198068380Y-97698714D01*
X198163619Y-97698714D01*
X198211238Y-97674904D01*
X198235047Y-97651095D01*
X198258857Y-97603476D01*
X139886571Y-66774190D02*
X139719904Y-66536095D01*
X139600857Y-66774190D02*
X139600857Y-66274190D01*
X139791333Y-66274190D01*
X139838952Y-66298000D01*
X139862761Y-66321809D01*
X139886571Y-66369428D01*
X139886571Y-66440857D01*
X139862761Y-66488476D01*
X139838952Y-66512285D01*
X139791333Y-66536095D01*
X139600857Y-66536095D01*
X140362761Y-66774190D02*
X140077047Y-66774190D01*
X140219904Y-66774190D02*
X140219904Y-66274190D01*
X140172285Y-66345619D01*
X140124666Y-66393238D01*
X140077047Y-66417047D01*
X140672285Y-66274190D02*
X140719904Y-66274190D01*
X140767523Y-66298000D01*
X140791333Y-66321809D01*
X140815142Y-66369428D01*
X140838952Y-66464666D01*
X140838952Y-66583714D01*
X140815142Y-66678952D01*
X140791333Y-66726571D01*
X140767523Y-66750380D01*
X140719904Y-66774190D01*
X140672285Y-66774190D01*
X140624666Y-66750380D01*
X140600857Y-66726571D01*
X140577047Y-66678952D01*
X140553238Y-66583714D01*
X140553238Y-66464666D01*
X140577047Y-66369428D01*
X140600857Y-66321809D01*
X140624666Y-66298000D01*
X140672285Y-66274190D01*
X142680571Y-66774190D02*
X142513904Y-66536095D01*
X142394857Y-66774190D02*
X142394857Y-66274190D01*
X142585333Y-66274190D01*
X142632952Y-66298000D01*
X142656761Y-66321809D01*
X142680571Y-66369428D01*
X142680571Y-66440857D01*
X142656761Y-66488476D01*
X142632952Y-66512285D01*
X142585333Y-66536095D01*
X142394857Y-66536095D01*
X143156761Y-66774190D02*
X142871047Y-66774190D01*
X143013904Y-66774190D02*
X143013904Y-66274190D01*
X142966285Y-66345619D01*
X142918666Y-66393238D01*
X142871047Y-66417047D01*
X143632952Y-66774190D02*
X143347238Y-66774190D01*
X143490095Y-66774190D02*
X143490095Y-66274190D01*
X143442476Y-66345619D01*
X143394857Y-66393238D01*
X143347238Y-66417047D01*
X145474571Y-66774190D02*
X145307904Y-66536095D01*
X145188857Y-66774190D02*
X145188857Y-66274190D01*
X145379333Y-66274190D01*
X145426952Y-66298000D01*
X145450761Y-66321809D01*
X145474571Y-66369428D01*
X145474571Y-66440857D01*
X145450761Y-66488476D01*
X145426952Y-66512285D01*
X145379333Y-66536095D01*
X145188857Y-66536095D01*
X145950761Y-66774190D02*
X145665047Y-66774190D01*
X145807904Y-66774190D02*
X145807904Y-66274190D01*
X145760285Y-66345619D01*
X145712666Y-66393238D01*
X145665047Y-66417047D01*
X146141238Y-66321809D02*
X146165047Y-66298000D01*
X146212666Y-66274190D01*
X146331714Y-66274190D01*
X146379333Y-66298000D01*
X146403142Y-66321809D01*
X146426952Y-66369428D01*
X146426952Y-66417047D01*
X146403142Y-66488476D01*
X146117428Y-66774190D01*
X146426952Y-66774190D01*
X148268571Y-66774190D02*
X148101904Y-66536095D01*
X147982857Y-66774190D02*
X147982857Y-66274190D01*
X148173333Y-66274190D01*
X148220952Y-66298000D01*
X148244761Y-66321809D01*
X148268571Y-66369428D01*
X148268571Y-66440857D01*
X148244761Y-66488476D01*
X148220952Y-66512285D01*
X148173333Y-66536095D01*
X147982857Y-66536095D01*
X148744761Y-66774190D02*
X148459047Y-66774190D01*
X148601904Y-66774190D02*
X148601904Y-66274190D01*
X148554285Y-66345619D01*
X148506666Y-66393238D01*
X148459047Y-66417047D01*
X148911428Y-66274190D02*
X149220952Y-66274190D01*
X149054285Y-66464666D01*
X149125714Y-66464666D01*
X149173333Y-66488476D01*
X149197142Y-66512285D01*
X149220952Y-66559904D01*
X149220952Y-66678952D01*
X149197142Y-66726571D01*
X149173333Y-66750380D01*
X149125714Y-66774190D01*
X148982857Y-66774190D01*
X148935238Y-66750380D01*
X148911428Y-66726571D01*
X151062571Y-66774190D02*
X150895904Y-66536095D01*
X150776857Y-66774190D02*
X150776857Y-66274190D01*
X150967333Y-66274190D01*
X151014952Y-66298000D01*
X151038761Y-66321809D01*
X151062571Y-66369428D01*
X151062571Y-66440857D01*
X151038761Y-66488476D01*
X151014952Y-66512285D01*
X150967333Y-66536095D01*
X150776857Y-66536095D01*
X151538761Y-66774190D02*
X151253047Y-66774190D01*
X151395904Y-66774190D02*
X151395904Y-66274190D01*
X151348285Y-66345619D01*
X151300666Y-66393238D01*
X151253047Y-66417047D01*
X151967333Y-66440857D02*
X151967333Y-66774190D01*
X151848285Y-66250380D02*
X151729238Y-66607523D01*
X152038761Y-66607523D01*
X153856571Y-66774190D02*
X153689904Y-66536095D01*
X153570857Y-66774190D02*
X153570857Y-66274190D01*
X153761333Y-66274190D01*
X153808952Y-66298000D01*
X153832761Y-66321809D01*
X153856571Y-66369428D01*
X153856571Y-66440857D01*
X153832761Y-66488476D01*
X153808952Y-66512285D01*
X153761333Y-66536095D01*
X153570857Y-66536095D01*
X154332761Y-66774190D02*
X154047047Y-66774190D01*
X154189904Y-66774190D02*
X154189904Y-66274190D01*
X154142285Y-66345619D01*
X154094666Y-66393238D01*
X154047047Y-66417047D01*
X154785142Y-66274190D02*
X154547047Y-66274190D01*
X154523238Y-66512285D01*
X154547047Y-66488476D01*
X154594666Y-66464666D01*
X154713714Y-66464666D01*
X154761333Y-66488476D01*
X154785142Y-66512285D01*
X154808952Y-66559904D01*
X154808952Y-66678952D01*
X154785142Y-66726571D01*
X154761333Y-66750380D01*
X154713714Y-66774190D01*
X154594666Y-66774190D01*
X154547047Y-66750380D01*
X154523238Y-66726571D01*
X156650571Y-66774190D02*
X156483904Y-66536095D01*
X156364857Y-66774190D02*
X156364857Y-66274190D01*
X156555333Y-66274190D01*
X156602952Y-66298000D01*
X156626761Y-66321809D01*
X156650571Y-66369428D01*
X156650571Y-66440857D01*
X156626761Y-66488476D01*
X156602952Y-66512285D01*
X156555333Y-66536095D01*
X156364857Y-66536095D01*
X157126761Y-66774190D02*
X156841047Y-66774190D01*
X156983904Y-66774190D02*
X156983904Y-66274190D01*
X156936285Y-66345619D01*
X156888666Y-66393238D01*
X156841047Y-66417047D01*
X157555333Y-66274190D02*
X157460095Y-66274190D01*
X157412476Y-66298000D01*
X157388666Y-66321809D01*
X157341047Y-66393238D01*
X157317238Y-66488476D01*
X157317238Y-66678952D01*
X157341047Y-66726571D01*
X157364857Y-66750380D01*
X157412476Y-66774190D01*
X157507714Y-66774190D01*
X157555333Y-66750380D01*
X157579142Y-66726571D01*
X157602952Y-66678952D01*
X157602952Y-66559904D01*
X157579142Y-66512285D01*
X157555333Y-66488476D01*
X157507714Y-66464666D01*
X157412476Y-66464666D01*
X157364857Y-66488476D01*
X157341047Y-66512285D01*
X157317238Y-66559904D01*
X159444571Y-66647190D02*
X159277904Y-66409095D01*
X159158857Y-66647190D02*
X159158857Y-66147190D01*
X159349333Y-66147190D01*
X159396952Y-66171000D01*
X159420761Y-66194809D01*
X159444571Y-66242428D01*
X159444571Y-66313857D01*
X159420761Y-66361476D01*
X159396952Y-66385285D01*
X159349333Y-66409095D01*
X159158857Y-66409095D01*
X159920761Y-66647190D02*
X159635047Y-66647190D01*
X159777904Y-66647190D02*
X159777904Y-66147190D01*
X159730285Y-66218619D01*
X159682666Y-66266238D01*
X159635047Y-66290047D01*
X160087428Y-66147190D02*
X160420761Y-66147190D01*
X160206476Y-66647190D01*
X140394571Y-98143190D02*
X140227904Y-97905095D01*
X140108857Y-98143190D02*
X140108857Y-97643190D01*
X140299333Y-97643190D01*
X140346952Y-97667000D01*
X140370761Y-97690809D01*
X140394571Y-97738428D01*
X140394571Y-97809857D01*
X140370761Y-97857476D01*
X140346952Y-97881285D01*
X140299333Y-97905095D01*
X140108857Y-97905095D01*
X140870761Y-98143190D02*
X140585047Y-98143190D01*
X140727904Y-98143190D02*
X140727904Y-97643190D01*
X140680285Y-97714619D01*
X140632666Y-97762238D01*
X140585047Y-97786047D01*
X141156476Y-97857476D02*
X141108857Y-97833666D01*
X141085047Y-97809857D01*
X141061238Y-97762238D01*
X141061238Y-97738428D01*
X141085047Y-97690809D01*
X141108857Y-97667000D01*
X141156476Y-97643190D01*
X141251714Y-97643190D01*
X141299333Y-97667000D01*
X141323142Y-97690809D01*
X141346952Y-97738428D01*
X141346952Y-97762238D01*
X141323142Y-97809857D01*
X141299333Y-97833666D01*
X141251714Y-97857476D01*
X141156476Y-97857476D01*
X141108857Y-97881285D01*
X141085047Y-97905095D01*
X141061238Y-97952714D01*
X141061238Y-98047952D01*
X141085047Y-98095571D01*
X141108857Y-98119380D01*
X141156476Y-98143190D01*
X141251714Y-98143190D01*
X141299333Y-98119380D01*
X141323142Y-98095571D01*
X141346952Y-98047952D01*
X141346952Y-97952714D01*
X141323142Y-97905095D01*
X141299333Y-97881285D01*
X141251714Y-97857476D01*
X143061571Y-98143190D02*
X142894904Y-97905095D01*
X142775857Y-98143190D02*
X142775857Y-97643190D01*
X142966333Y-97643190D01*
X143013952Y-97667000D01*
X143037761Y-97690809D01*
X143061571Y-97738428D01*
X143061571Y-97809857D01*
X143037761Y-97857476D01*
X143013952Y-97881285D01*
X142966333Y-97905095D01*
X142775857Y-97905095D01*
X143537761Y-98143190D02*
X143252047Y-98143190D01*
X143394904Y-98143190D02*
X143394904Y-97643190D01*
X143347285Y-97714619D01*
X143299666Y-97762238D01*
X143252047Y-97786047D01*
X143775857Y-98143190D02*
X143871095Y-98143190D01*
X143918714Y-98119380D01*
X143942523Y-98095571D01*
X143990142Y-98024142D01*
X144013952Y-97928904D01*
X144013952Y-97738428D01*
X143990142Y-97690809D01*
X143966333Y-97667000D01*
X143918714Y-97643190D01*
X143823476Y-97643190D01*
X143775857Y-97667000D01*
X143752047Y-97690809D01*
X143728238Y-97738428D01*
X143728238Y-97857476D01*
X143752047Y-97905095D01*
X143775857Y-97928904D01*
X143823476Y-97952714D01*
X143918714Y-97952714D01*
X143966333Y-97928904D01*
X143990142Y-97905095D01*
X144013952Y-97857476D01*
X145855571Y-98143190D02*
X145688904Y-97905095D01*
X145569857Y-98143190D02*
X145569857Y-97643190D01*
X145760333Y-97643190D01*
X145807952Y-97667000D01*
X145831761Y-97690809D01*
X145855571Y-97738428D01*
X145855571Y-97809857D01*
X145831761Y-97857476D01*
X145807952Y-97881285D01*
X145760333Y-97905095D01*
X145569857Y-97905095D01*
X146046047Y-97690809D02*
X146069857Y-97667000D01*
X146117476Y-97643190D01*
X146236523Y-97643190D01*
X146284142Y-97667000D01*
X146307952Y-97690809D01*
X146331761Y-97738428D01*
X146331761Y-97786047D01*
X146307952Y-97857476D01*
X146022238Y-98143190D01*
X146331761Y-98143190D01*
X146641285Y-97643190D02*
X146688904Y-97643190D01*
X146736523Y-97667000D01*
X146760333Y-97690809D01*
X146784142Y-97738428D01*
X146807952Y-97833666D01*
X146807952Y-97952714D01*
X146784142Y-98047952D01*
X146760333Y-98095571D01*
X146736523Y-98119380D01*
X146688904Y-98143190D01*
X146641285Y-98143190D01*
X146593666Y-98119380D01*
X146569857Y-98095571D01*
X146546047Y-98047952D01*
X146522238Y-97952714D01*
X146522238Y-97833666D01*
X146546047Y-97738428D01*
X146569857Y-97690809D01*
X146593666Y-97667000D01*
X146641285Y-97643190D01*
X148776571Y-98143190D02*
X148609904Y-97905095D01*
X148490857Y-98143190D02*
X148490857Y-97643190D01*
X148681333Y-97643190D01*
X148728952Y-97667000D01*
X148752761Y-97690809D01*
X148776571Y-97738428D01*
X148776571Y-97809857D01*
X148752761Y-97857476D01*
X148728952Y-97881285D01*
X148681333Y-97905095D01*
X148490857Y-97905095D01*
X148967047Y-97690809D02*
X148990857Y-97667000D01*
X149038476Y-97643190D01*
X149157523Y-97643190D01*
X149205142Y-97667000D01*
X149228952Y-97690809D01*
X149252761Y-97738428D01*
X149252761Y-97786047D01*
X149228952Y-97857476D01*
X148943238Y-98143190D01*
X149252761Y-98143190D01*
X149728952Y-98143190D02*
X149443238Y-98143190D01*
X149586095Y-98143190D02*
X149586095Y-97643190D01*
X149538476Y-97714619D01*
X149490857Y-97762238D01*
X149443238Y-97786047D01*
X151570571Y-98143190D02*
X151403904Y-97905095D01*
X151284857Y-98143190D02*
X151284857Y-97643190D01*
X151475333Y-97643190D01*
X151522952Y-97667000D01*
X151546761Y-97690809D01*
X151570571Y-97738428D01*
X151570571Y-97809857D01*
X151546761Y-97857476D01*
X151522952Y-97881285D01*
X151475333Y-97905095D01*
X151284857Y-97905095D01*
X151761047Y-97690809D02*
X151784857Y-97667000D01*
X151832476Y-97643190D01*
X151951523Y-97643190D01*
X151999142Y-97667000D01*
X152022952Y-97690809D01*
X152046761Y-97738428D01*
X152046761Y-97786047D01*
X152022952Y-97857476D01*
X151737238Y-98143190D01*
X152046761Y-98143190D01*
X152237238Y-97690809D02*
X152261047Y-97667000D01*
X152308666Y-97643190D01*
X152427714Y-97643190D01*
X152475333Y-97667000D01*
X152499142Y-97690809D01*
X152522952Y-97738428D01*
X152522952Y-97786047D01*
X152499142Y-97857476D01*
X152213428Y-98143190D01*
X152522952Y-98143190D01*
X154364571Y-98143190D02*
X154197904Y-97905095D01*
X154078857Y-98143190D02*
X154078857Y-97643190D01*
X154269333Y-97643190D01*
X154316952Y-97667000D01*
X154340761Y-97690809D01*
X154364571Y-97738428D01*
X154364571Y-97809857D01*
X154340761Y-97857476D01*
X154316952Y-97881285D01*
X154269333Y-97905095D01*
X154078857Y-97905095D01*
X154555047Y-97690809D02*
X154578857Y-97667000D01*
X154626476Y-97643190D01*
X154745523Y-97643190D01*
X154793142Y-97667000D01*
X154816952Y-97690809D01*
X154840761Y-97738428D01*
X154840761Y-97786047D01*
X154816952Y-97857476D01*
X154531238Y-98143190D01*
X154840761Y-98143190D01*
X155007428Y-97643190D02*
X155316952Y-97643190D01*
X155150285Y-97833666D01*
X155221714Y-97833666D01*
X155269333Y-97857476D01*
X155293142Y-97881285D01*
X155316952Y-97928904D01*
X155316952Y-98047952D01*
X155293142Y-98095571D01*
X155269333Y-98119380D01*
X155221714Y-98143190D01*
X155078857Y-98143190D01*
X155031238Y-98119380D01*
X155007428Y-98095571D01*
X157158571Y-98143190D02*
X156991904Y-97905095D01*
X156872857Y-98143190D02*
X156872857Y-97643190D01*
X157063333Y-97643190D01*
X157110952Y-97667000D01*
X157134761Y-97690809D01*
X157158571Y-97738428D01*
X157158571Y-97809857D01*
X157134761Y-97857476D01*
X157110952Y-97881285D01*
X157063333Y-97905095D01*
X156872857Y-97905095D01*
X157349047Y-97690809D02*
X157372857Y-97667000D01*
X157420476Y-97643190D01*
X157539523Y-97643190D01*
X157587142Y-97667000D01*
X157610952Y-97690809D01*
X157634761Y-97738428D01*
X157634761Y-97786047D01*
X157610952Y-97857476D01*
X157325238Y-98143190D01*
X157634761Y-98143190D01*
X158063333Y-97809857D02*
X158063333Y-98143190D01*
X157944285Y-97619380D02*
X157825238Y-97976523D01*
X158134761Y-97976523D01*
X159952571Y-98143190D02*
X159785904Y-97905095D01*
X159666857Y-98143190D02*
X159666857Y-97643190D01*
X159857333Y-97643190D01*
X159904952Y-97667000D01*
X159928761Y-97690809D01*
X159952571Y-97738428D01*
X159952571Y-97809857D01*
X159928761Y-97857476D01*
X159904952Y-97881285D01*
X159857333Y-97905095D01*
X159666857Y-97905095D01*
X160143047Y-97690809D02*
X160166857Y-97667000D01*
X160214476Y-97643190D01*
X160333523Y-97643190D01*
X160381142Y-97667000D01*
X160404952Y-97690809D01*
X160428761Y-97738428D01*
X160428761Y-97786047D01*
X160404952Y-97857476D01*
X160119238Y-98143190D01*
X160428761Y-98143190D01*
X160881142Y-97643190D02*
X160643047Y-97643190D01*
X160619238Y-97881285D01*
X160643047Y-97857476D01*
X160690666Y-97833666D01*
X160809714Y-97833666D01*
X160857333Y-97857476D01*
X160881142Y-97881285D01*
X160904952Y-97928904D01*
X160904952Y-98047952D01*
X160881142Y-98095571D01*
X160857333Y-98119380D01*
X160809714Y-98143190D01*
X160690666Y-98143190D01*
X160643047Y-98119380D01*
X160619238Y-98095571D01*
X169477571Y-67536190D02*
X169310904Y-67298095D01*
X169191857Y-67536190D02*
X169191857Y-67036190D01*
X169382333Y-67036190D01*
X169429952Y-67060000D01*
X169453761Y-67083809D01*
X169477571Y-67131428D01*
X169477571Y-67202857D01*
X169453761Y-67250476D01*
X169429952Y-67274285D01*
X169382333Y-67298095D01*
X169191857Y-67298095D01*
X169668047Y-67083809D02*
X169691857Y-67060000D01*
X169739476Y-67036190D01*
X169858523Y-67036190D01*
X169906142Y-67060000D01*
X169929952Y-67083809D01*
X169953761Y-67131428D01*
X169953761Y-67179047D01*
X169929952Y-67250476D01*
X169644238Y-67536190D01*
X169953761Y-67536190D01*
X170382333Y-67036190D02*
X170287095Y-67036190D01*
X170239476Y-67060000D01*
X170215666Y-67083809D01*
X170168047Y-67155238D01*
X170144238Y-67250476D01*
X170144238Y-67440952D01*
X170168047Y-67488571D01*
X170191857Y-67512380D01*
X170239476Y-67536190D01*
X170334714Y-67536190D01*
X170382333Y-67512380D01*
X170406142Y-67488571D01*
X170429952Y-67440952D01*
X170429952Y-67321904D01*
X170406142Y-67274285D01*
X170382333Y-67250476D01*
X170334714Y-67226666D01*
X170239476Y-67226666D01*
X170191857Y-67250476D01*
X170168047Y-67274285D01*
X170144238Y-67321904D01*
X189035571Y-67536190D02*
X188868904Y-67298095D01*
X188749857Y-67536190D02*
X188749857Y-67036190D01*
X188940333Y-67036190D01*
X188987952Y-67060000D01*
X189011761Y-67083809D01*
X189035571Y-67131428D01*
X189035571Y-67202857D01*
X189011761Y-67250476D01*
X188987952Y-67274285D01*
X188940333Y-67298095D01*
X188749857Y-67298095D01*
X189226047Y-67083809D02*
X189249857Y-67060000D01*
X189297476Y-67036190D01*
X189416523Y-67036190D01*
X189464142Y-67060000D01*
X189487952Y-67083809D01*
X189511761Y-67131428D01*
X189511761Y-67179047D01*
X189487952Y-67250476D01*
X189202238Y-67536190D01*
X189511761Y-67536190D01*
X189678428Y-67036190D02*
X190011761Y-67036190D01*
X189797476Y-67536190D01*
X186241571Y-67536190D02*
X186074904Y-67298095D01*
X185955857Y-67536190D02*
X185955857Y-67036190D01*
X186146333Y-67036190D01*
X186193952Y-67060000D01*
X186217761Y-67083809D01*
X186241571Y-67131428D01*
X186241571Y-67202857D01*
X186217761Y-67250476D01*
X186193952Y-67274285D01*
X186146333Y-67298095D01*
X185955857Y-67298095D01*
X186432047Y-67083809D02*
X186455857Y-67060000D01*
X186503476Y-67036190D01*
X186622523Y-67036190D01*
X186670142Y-67060000D01*
X186693952Y-67083809D01*
X186717761Y-67131428D01*
X186717761Y-67179047D01*
X186693952Y-67250476D01*
X186408238Y-67536190D01*
X186717761Y-67536190D01*
X187003476Y-67250476D02*
X186955857Y-67226666D01*
X186932047Y-67202857D01*
X186908238Y-67155238D01*
X186908238Y-67131428D01*
X186932047Y-67083809D01*
X186955857Y-67060000D01*
X187003476Y-67036190D01*
X187098714Y-67036190D01*
X187146333Y-67060000D01*
X187170142Y-67083809D01*
X187193952Y-67131428D01*
X187193952Y-67155238D01*
X187170142Y-67202857D01*
X187146333Y-67226666D01*
X187098714Y-67250476D01*
X187003476Y-67250476D01*
X186955857Y-67274285D01*
X186932047Y-67298095D01*
X186908238Y-67345714D01*
X186908238Y-67440952D01*
X186932047Y-67488571D01*
X186955857Y-67512380D01*
X187003476Y-67536190D01*
X187098714Y-67536190D01*
X187146333Y-67512380D01*
X187170142Y-67488571D01*
X187193952Y-67440952D01*
X187193952Y-67345714D01*
X187170142Y-67298095D01*
X187146333Y-67274285D01*
X187098714Y-67250476D01*
X183447571Y-67536190D02*
X183280904Y-67298095D01*
X183161857Y-67536190D02*
X183161857Y-67036190D01*
X183352333Y-67036190D01*
X183399952Y-67060000D01*
X183423761Y-67083809D01*
X183447571Y-67131428D01*
X183447571Y-67202857D01*
X183423761Y-67250476D01*
X183399952Y-67274285D01*
X183352333Y-67298095D01*
X183161857Y-67298095D01*
X183638047Y-67083809D02*
X183661857Y-67060000D01*
X183709476Y-67036190D01*
X183828523Y-67036190D01*
X183876142Y-67060000D01*
X183899952Y-67083809D01*
X183923761Y-67131428D01*
X183923761Y-67179047D01*
X183899952Y-67250476D01*
X183614238Y-67536190D01*
X183923761Y-67536190D01*
X184161857Y-67536190D02*
X184257095Y-67536190D01*
X184304714Y-67512380D01*
X184328523Y-67488571D01*
X184376142Y-67417142D01*
X184399952Y-67321904D01*
X184399952Y-67131428D01*
X184376142Y-67083809D01*
X184352333Y-67060000D01*
X184304714Y-67036190D01*
X184209476Y-67036190D01*
X184161857Y-67060000D01*
X184138047Y-67083809D01*
X184114238Y-67131428D01*
X184114238Y-67250476D01*
X184138047Y-67298095D01*
X184161857Y-67321904D01*
X184209476Y-67345714D01*
X184304714Y-67345714D01*
X184352333Y-67321904D01*
X184376142Y-67298095D01*
X184399952Y-67250476D01*
X180653571Y-67536190D02*
X180486904Y-67298095D01*
X180367857Y-67536190D02*
X180367857Y-67036190D01*
X180558333Y-67036190D01*
X180605952Y-67060000D01*
X180629761Y-67083809D01*
X180653571Y-67131428D01*
X180653571Y-67202857D01*
X180629761Y-67250476D01*
X180605952Y-67274285D01*
X180558333Y-67298095D01*
X180367857Y-67298095D01*
X180820238Y-67036190D02*
X181129761Y-67036190D01*
X180963095Y-67226666D01*
X181034523Y-67226666D01*
X181082142Y-67250476D01*
X181105952Y-67274285D01*
X181129761Y-67321904D01*
X181129761Y-67440952D01*
X181105952Y-67488571D01*
X181082142Y-67512380D01*
X181034523Y-67536190D01*
X180891666Y-67536190D01*
X180844047Y-67512380D01*
X180820238Y-67488571D01*
X181439285Y-67036190D02*
X181486904Y-67036190D01*
X181534523Y-67060000D01*
X181558333Y-67083809D01*
X181582142Y-67131428D01*
X181605952Y-67226666D01*
X181605952Y-67345714D01*
X181582142Y-67440952D01*
X181558333Y-67488571D01*
X181534523Y-67512380D01*
X181486904Y-67536190D01*
X181439285Y-67536190D01*
X181391666Y-67512380D01*
X181367857Y-67488571D01*
X181344047Y-67440952D01*
X181320238Y-67345714D01*
X181320238Y-67226666D01*
X181344047Y-67131428D01*
X181367857Y-67083809D01*
X181391666Y-67060000D01*
X181439285Y-67036190D01*
X177986571Y-67536190D02*
X177819904Y-67298095D01*
X177700857Y-67536190D02*
X177700857Y-67036190D01*
X177891333Y-67036190D01*
X177938952Y-67060000D01*
X177962761Y-67083809D01*
X177986571Y-67131428D01*
X177986571Y-67202857D01*
X177962761Y-67250476D01*
X177938952Y-67274285D01*
X177891333Y-67298095D01*
X177700857Y-67298095D01*
X178153238Y-67036190D02*
X178462761Y-67036190D01*
X178296095Y-67226666D01*
X178367523Y-67226666D01*
X178415142Y-67250476D01*
X178438952Y-67274285D01*
X178462761Y-67321904D01*
X178462761Y-67440952D01*
X178438952Y-67488571D01*
X178415142Y-67512380D01*
X178367523Y-67536190D01*
X178224666Y-67536190D01*
X178177047Y-67512380D01*
X178153238Y-67488571D01*
X178938952Y-67536190D02*
X178653238Y-67536190D01*
X178796095Y-67536190D02*
X178796095Y-67036190D01*
X178748476Y-67107619D01*
X178700857Y-67155238D01*
X178653238Y-67179047D01*
X175065571Y-67536190D02*
X174898904Y-67298095D01*
X174779857Y-67536190D02*
X174779857Y-67036190D01*
X174970333Y-67036190D01*
X175017952Y-67060000D01*
X175041761Y-67083809D01*
X175065571Y-67131428D01*
X175065571Y-67202857D01*
X175041761Y-67250476D01*
X175017952Y-67274285D01*
X174970333Y-67298095D01*
X174779857Y-67298095D01*
X175232238Y-67036190D02*
X175541761Y-67036190D01*
X175375095Y-67226666D01*
X175446523Y-67226666D01*
X175494142Y-67250476D01*
X175517952Y-67274285D01*
X175541761Y-67321904D01*
X175541761Y-67440952D01*
X175517952Y-67488571D01*
X175494142Y-67512380D01*
X175446523Y-67536190D01*
X175303666Y-67536190D01*
X175256047Y-67512380D01*
X175232238Y-67488571D01*
X175732238Y-67083809D02*
X175756047Y-67060000D01*
X175803666Y-67036190D01*
X175922714Y-67036190D01*
X175970333Y-67060000D01*
X175994142Y-67083809D01*
X176017952Y-67131428D01*
X176017952Y-67179047D01*
X175994142Y-67250476D01*
X175708428Y-67536190D01*
X176017952Y-67536190D01*
X172271571Y-67536190D02*
X172104904Y-67298095D01*
X171985857Y-67536190D02*
X171985857Y-67036190D01*
X172176333Y-67036190D01*
X172223952Y-67060000D01*
X172247761Y-67083809D01*
X172271571Y-67131428D01*
X172271571Y-67202857D01*
X172247761Y-67250476D01*
X172223952Y-67274285D01*
X172176333Y-67298095D01*
X171985857Y-67298095D01*
X172438238Y-67036190D02*
X172747761Y-67036190D01*
X172581095Y-67226666D01*
X172652523Y-67226666D01*
X172700142Y-67250476D01*
X172723952Y-67274285D01*
X172747761Y-67321904D01*
X172747761Y-67440952D01*
X172723952Y-67488571D01*
X172700142Y-67512380D01*
X172652523Y-67536190D01*
X172509666Y-67536190D01*
X172462047Y-67512380D01*
X172438238Y-67488571D01*
X172914428Y-67036190D02*
X173223952Y-67036190D01*
X173057285Y-67226666D01*
X173128714Y-67226666D01*
X173176333Y-67250476D01*
X173200142Y-67274285D01*
X173223952Y-67321904D01*
X173223952Y-67440952D01*
X173200142Y-67488571D01*
X173176333Y-67512380D01*
X173128714Y-67536190D01*
X172985857Y-67536190D01*
X172938238Y-67512380D01*
X172914428Y-67488571D01*
D13*
X189198285Y-62825380D02*
X189769714Y-62825380D01*
X189484000Y-63825380D02*
X189484000Y-62825380D01*
X161916333Y-41718666D02*
X161916333Y-41018666D01*
X162183000Y-41018666D01*
X162249666Y-41052000D01*
X162283000Y-41085333D01*
X162316333Y-41152000D01*
X162316333Y-41252000D01*
X162283000Y-41318666D01*
X162249666Y-41352000D01*
X162183000Y-41385333D01*
X161916333Y-41385333D01*
X162949666Y-41018666D02*
X162616333Y-41018666D01*
X162583000Y-41352000D01*
X162616333Y-41318666D01*
X162683000Y-41285333D01*
X162849666Y-41285333D01*
X162916333Y-41318666D01*
X162949666Y-41352000D01*
X162983000Y-41418666D01*
X162983000Y-41585333D01*
X162949666Y-41652000D01*
X162916333Y-41685333D01*
X162849666Y-41718666D01*
X162683000Y-41718666D01*
X162616333Y-41685333D01*
X162583000Y-41652000D01*
D14*
X203953333Y-122617666D02*
X203953333Y-121917666D01*
X204220000Y-121917666D01*
X204286666Y-121951000D01*
X204320000Y-121984333D01*
X204353333Y-122051000D01*
X204353333Y-122151000D01*
X204320000Y-122217666D01*
X204286666Y-122251000D01*
X204220000Y-122284333D01*
X203953333Y-122284333D01*
X204953333Y-121917666D02*
X204820000Y-121917666D01*
X204753333Y-121951000D01*
X204720000Y-121984333D01*
X204653333Y-122084333D01*
X204620000Y-122217666D01*
X204620000Y-122484333D01*
X204653333Y-122551000D01*
X204686666Y-122584333D01*
X204753333Y-122617666D01*
X204886666Y-122617666D01*
X204953333Y-122584333D01*
X204986666Y-122551000D01*
X205020000Y-122484333D01*
X205020000Y-122317666D01*
X204986666Y-122251000D01*
X204953333Y-122217666D01*
X204886666Y-122184333D01*
X204753333Y-122184333D01*
X204686666Y-122217666D01*
X204653333Y-122251000D01*
X204620000Y-122317666D01*
D13*
X98543333Y-41845666D02*
X98543333Y-41145666D01*
X98810000Y-41145666D01*
X98876666Y-41179000D01*
X98910000Y-41212333D01*
X98943333Y-41279000D01*
X98943333Y-41379000D01*
X98910000Y-41445666D01*
X98876666Y-41479000D01*
X98810000Y-41512333D01*
X98543333Y-41512333D01*
X99176666Y-41145666D02*
X99610000Y-41145666D01*
X99376666Y-41412333D01*
X99476666Y-41412333D01*
X99543333Y-41445666D01*
X99576666Y-41479000D01*
X99610000Y-41545666D01*
X99610000Y-41712333D01*
X99576666Y-41779000D01*
X99543333Y-41812333D01*
X99476666Y-41845666D01*
X99276666Y-41845666D01*
X99210000Y-41812333D01*
X99176666Y-41779000D01*
D14*
X120006333Y-123125666D02*
X120006333Y-122425666D01*
X120273000Y-122425666D01*
X120339666Y-122459000D01*
X120373000Y-122492333D01*
X120406333Y-122559000D01*
X120406333Y-122659000D01*
X120373000Y-122725666D01*
X120339666Y-122759000D01*
X120273000Y-122792333D01*
X120006333Y-122792333D01*
X121006333Y-122659000D02*
X121006333Y-123125666D01*
X120839666Y-122392333D02*
X120673000Y-122892333D01*
X121106333Y-122892333D01*
D13*
X158392904Y-113375380D02*
X158392904Y-112375380D01*
X158773857Y-112375380D01*
X158869095Y-112423000D01*
X158916714Y-112470619D01*
X158964333Y-112565857D01*
X158964333Y-112708714D01*
X158916714Y-112803952D01*
X158869095Y-112851571D01*
X158773857Y-112899190D01*
X158392904Y-112899190D01*
X159535761Y-112803952D02*
X159440523Y-112756333D01*
X159392904Y-112708714D01*
X159345285Y-112613476D01*
X159345285Y-112565857D01*
X159392904Y-112470619D01*
X159440523Y-112423000D01*
X159535761Y-112375380D01*
X159726238Y-112375380D01*
X159821476Y-112423000D01*
X159869095Y-112470619D01*
X159916714Y-112565857D01*
X159916714Y-112613476D01*
X159869095Y-112708714D01*
X159821476Y-112756333D01*
X159726238Y-112803952D01*
X159535761Y-112803952D01*
X159440523Y-112851571D01*
X159392904Y-112899190D01*
X159345285Y-112994428D01*
X159345285Y-113184904D01*
X159392904Y-113280142D01*
X159440523Y-113327761D01*
X159535761Y-113375380D01*
X159726238Y-113375380D01*
X159821476Y-113327761D01*
X159869095Y-113280142D01*
X159916714Y-113184904D01*
X159916714Y-112994428D01*
X159869095Y-112899190D01*
X159821476Y-112851571D01*
X159726238Y-112803952D01*
D14*
X127753333Y-57339666D02*
X127753333Y-56639666D01*
X128020000Y-56639666D01*
X128086666Y-56673000D01*
X128120000Y-56706333D01*
X128153333Y-56773000D01*
X128153333Y-56873000D01*
X128120000Y-56939666D01*
X128086666Y-56973000D01*
X128020000Y-57006333D01*
X127753333Y-57006333D01*
X128486666Y-57339666D02*
X128620000Y-57339666D01*
X128686666Y-57306333D01*
X128720000Y-57273000D01*
X128786666Y-57173000D01*
X128820000Y-57039666D01*
X128820000Y-56773000D01*
X128786666Y-56706333D01*
X128753333Y-56673000D01*
X128686666Y-56639666D01*
X128553333Y-56639666D01*
X128486666Y-56673000D01*
X128453333Y-56706333D01*
X128420000Y-56773000D01*
X128420000Y-56939666D01*
X128453333Y-57006333D01*
X128486666Y-57039666D01*
X128553333Y-57073000D01*
X128686666Y-57073000D01*
X128753333Y-57039666D01*
X128786666Y-57006333D01*
X128820000Y-56939666D01*
X166282000Y-57720666D02*
X166282000Y-57020666D01*
X166548666Y-57020666D01*
X166615333Y-57054000D01*
X166648666Y-57087333D01*
X166682000Y-57154000D01*
X166682000Y-57254000D01*
X166648666Y-57320666D01*
X166615333Y-57354000D01*
X166548666Y-57387333D01*
X166282000Y-57387333D01*
X167348666Y-57720666D02*
X166948666Y-57720666D01*
X167148666Y-57720666D02*
X167148666Y-57020666D01*
X167082000Y-57120666D01*
X167015333Y-57187333D01*
X166948666Y-57220666D01*
X167782000Y-57020666D02*
X167848666Y-57020666D01*
X167915333Y-57054000D01*
X167948666Y-57087333D01*
X167982000Y-57154000D01*
X168015333Y-57287333D01*
X168015333Y-57454000D01*
X167982000Y-57587333D01*
X167948666Y-57654000D01*
X167915333Y-57687333D01*
X167848666Y-57720666D01*
X167782000Y-57720666D01*
X167715333Y-57687333D01*
X167682000Y-57654000D01*
X167648666Y-57587333D01*
X167615333Y-57454000D01*
X167615333Y-57287333D01*
X167648666Y-57154000D01*
X167682000Y-57087333D01*
X167715333Y-57054000D01*
X167782000Y-57020666D01*
X198540000Y-108139666D02*
X198540000Y-107439666D01*
X198806666Y-107439666D01*
X198873333Y-107473000D01*
X198906666Y-107506333D01*
X198940000Y-107573000D01*
X198940000Y-107673000D01*
X198906666Y-107739666D01*
X198873333Y-107773000D01*
X198806666Y-107806333D01*
X198540000Y-107806333D01*
X199606666Y-108139666D02*
X199206666Y-108139666D01*
X199406666Y-108139666D02*
X199406666Y-107439666D01*
X199340000Y-107539666D01*
X199273333Y-107606333D01*
X199206666Y-107639666D01*
X200273333Y-108139666D02*
X199873333Y-108139666D01*
X200073333Y-108139666D02*
X200073333Y-107439666D01*
X200006666Y-107539666D01*
X199940000Y-107606333D01*
X199873333Y-107639666D01*
X126531000Y-53275666D02*
X126531000Y-52575666D01*
X126797666Y-52575666D01*
X126864333Y-52609000D01*
X126897666Y-52642333D01*
X126931000Y-52709000D01*
X126931000Y-52809000D01*
X126897666Y-52875666D01*
X126864333Y-52909000D01*
X126797666Y-52942333D01*
X126531000Y-52942333D01*
X127597666Y-53275666D02*
X127197666Y-53275666D01*
X127397666Y-53275666D02*
X127397666Y-52575666D01*
X127331000Y-52675666D01*
X127264333Y-52742333D01*
X127197666Y-52775666D01*
X127864333Y-52642333D02*
X127897666Y-52609000D01*
X127964333Y-52575666D01*
X128131000Y-52575666D01*
X128197666Y-52609000D01*
X128231000Y-52642333D01*
X128264333Y-52709000D01*
X128264333Y-52775666D01*
X128231000Y-52875666D01*
X127831000Y-53275666D01*
X128264333Y-53275666D01*
X161710000Y-113092666D02*
X161710000Y-112392666D01*
X161976666Y-112392666D01*
X162043333Y-112426000D01*
X162076666Y-112459333D01*
X162110000Y-112526000D01*
X162110000Y-112626000D01*
X162076666Y-112692666D01*
X162043333Y-112726000D01*
X161976666Y-112759333D01*
X161710000Y-112759333D01*
X162776666Y-113092666D02*
X162376666Y-113092666D01*
X162576666Y-113092666D02*
X162576666Y-112392666D01*
X162510000Y-112492666D01*
X162443333Y-112559333D01*
X162376666Y-112592666D01*
X163010000Y-112392666D02*
X163443333Y-112392666D01*
X163210000Y-112659333D01*
X163310000Y-112659333D01*
X163376666Y-112692666D01*
X163410000Y-112726000D01*
X163443333Y-112792666D01*
X163443333Y-112959333D01*
X163410000Y-113026000D01*
X163376666Y-113059333D01*
X163310000Y-113092666D01*
X163110000Y-113092666D01*
X163043333Y-113059333D01*
X163010000Y-113026000D01*
X166282000Y-53910666D02*
X166282000Y-53210666D01*
X166548666Y-53210666D01*
X166615333Y-53244000D01*
X166648666Y-53277333D01*
X166682000Y-53344000D01*
X166682000Y-53444000D01*
X166648666Y-53510666D01*
X166615333Y-53544000D01*
X166548666Y-53577333D01*
X166282000Y-53577333D01*
X167348666Y-53910666D02*
X166948666Y-53910666D01*
X167148666Y-53910666D02*
X167148666Y-53210666D01*
X167082000Y-53310666D01*
X167015333Y-53377333D01*
X166948666Y-53410666D01*
X167948666Y-53444000D02*
X167948666Y-53910666D01*
X167782000Y-53177333D02*
X167615333Y-53677333D01*
X168048666Y-53677333D01*
X198540000Y-112457666D02*
X198540000Y-111757666D01*
X198806666Y-111757666D01*
X198873333Y-111791000D01*
X198906666Y-111824333D01*
X198940000Y-111891000D01*
X198940000Y-111991000D01*
X198906666Y-112057666D01*
X198873333Y-112091000D01*
X198806666Y-112124333D01*
X198540000Y-112124333D01*
X199606666Y-112457666D02*
X199206666Y-112457666D01*
X199406666Y-112457666D02*
X199406666Y-111757666D01*
X199340000Y-111857666D01*
X199273333Y-111924333D01*
X199206666Y-111957666D01*
X200240000Y-111757666D02*
X199906666Y-111757666D01*
X199873333Y-112091000D01*
X199906666Y-112057666D01*
X199973333Y-112024333D01*
X200140000Y-112024333D01*
X200206666Y-112057666D01*
X200240000Y-112091000D01*
X200273333Y-112157666D01*
X200273333Y-112324333D01*
X200240000Y-112391000D01*
X200206666Y-112424333D01*
X200140000Y-112457666D01*
X199973333Y-112457666D01*
X199906666Y-112424333D01*
X199873333Y-112391000D01*
X136945000Y-73214666D02*
X136945000Y-72514666D01*
X137211666Y-72514666D01*
X137278333Y-72548000D01*
X137311666Y-72581333D01*
X137345000Y-72648000D01*
X137345000Y-72748000D01*
X137311666Y-72814666D01*
X137278333Y-72848000D01*
X137211666Y-72881333D01*
X136945000Y-72881333D01*
X138011666Y-73214666D02*
X137611666Y-73214666D01*
X137811666Y-73214666D02*
X137811666Y-72514666D01*
X137745000Y-72614666D01*
X137678333Y-72681333D01*
X137611666Y-72714666D01*
X138611666Y-72514666D02*
X138478333Y-72514666D01*
X138411666Y-72548000D01*
X138378333Y-72581333D01*
X138311666Y-72681333D01*
X138278333Y-72814666D01*
X138278333Y-73081333D01*
X138311666Y-73148000D01*
X138345000Y-73181333D01*
X138411666Y-73214666D01*
X138545000Y-73214666D01*
X138611666Y-73181333D01*
X138645000Y-73148000D01*
X138678333Y-73081333D01*
X138678333Y-72914666D01*
X138645000Y-72848000D01*
X138611666Y-72814666D01*
X138545000Y-72781333D01*
X138411666Y-72781333D01*
X138345000Y-72814666D01*
X138311666Y-72848000D01*
X138278333Y-72914666D01*
X193158333Y-57212666D02*
X193158333Y-56512666D01*
X193425000Y-56512666D01*
X193491666Y-56546000D01*
X193525000Y-56579333D01*
X193558333Y-56646000D01*
X193558333Y-56746000D01*
X193525000Y-56812666D01*
X193491666Y-56846000D01*
X193425000Y-56879333D01*
X193158333Y-56879333D01*
X193791666Y-56512666D02*
X194258333Y-56512666D01*
X193958333Y-57212666D01*
X193079000Y-55307666D02*
X193079000Y-54607666D01*
X193245666Y-54607666D01*
X193345666Y-54641000D01*
X193412333Y-54707666D01*
X193445666Y-54774333D01*
X193479000Y-54907666D01*
X193479000Y-55007666D01*
X193445666Y-55141000D01*
X193412333Y-55207666D01*
X193345666Y-55274333D01*
X193245666Y-55307666D01*
X193079000Y-55307666D01*
X193712333Y-54607666D02*
X194145666Y-54607666D01*
X193912333Y-54874333D01*
X194012333Y-54874333D01*
X194079000Y-54907666D01*
X194112333Y-54941000D01*
X194145666Y-55007666D01*
X194145666Y-55174333D01*
X194112333Y-55241000D01*
X194079000Y-55274333D01*
X194012333Y-55307666D01*
X193812333Y-55307666D01*
X193745666Y-55274333D01*
X193712333Y-55241000D01*
X194745666Y-54607666D02*
X194612333Y-54607666D01*
X194545666Y-54641000D01*
X194512333Y-54674333D01*
X194445666Y-54774333D01*
X194412333Y-54907666D01*
X194412333Y-55174333D01*
X194445666Y-55241000D01*
X194479000Y-55274333D01*
X194545666Y-55307666D01*
X194679000Y-55307666D01*
X194745666Y-55274333D01*
X194779000Y-55241000D01*
X194812333Y-55174333D01*
X194812333Y-55007666D01*
X194779000Y-54941000D01*
X194745666Y-54907666D01*
X194679000Y-54874333D01*
X194545666Y-54874333D01*
X194479000Y-54907666D01*
X194445666Y-54941000D01*
X194412333Y-55007666D01*
X196987333Y-53430666D02*
X196754000Y-53097333D01*
X196587333Y-53430666D02*
X196587333Y-52730666D01*
X196854000Y-52730666D01*
X196920666Y-52764000D01*
X196954000Y-52797333D01*
X196987333Y-52864000D01*
X196987333Y-52964000D01*
X196954000Y-53030666D01*
X196920666Y-53064000D01*
X196854000Y-53097333D01*
X196587333Y-53097333D01*
X197220666Y-52730666D02*
X197687333Y-53430666D01*
X197687333Y-52730666D02*
X197220666Y-53430666D01*
X203620000Y-55180666D02*
X203620000Y-54480666D01*
X203786666Y-54480666D01*
X203886666Y-54514000D01*
X203953333Y-54580666D01*
X203986666Y-54647333D01*
X204020000Y-54780666D01*
X204020000Y-54880666D01*
X203986666Y-55014000D01*
X203953333Y-55080666D01*
X203886666Y-55147333D01*
X203786666Y-55180666D01*
X203620000Y-55180666D01*
X204253333Y-54480666D02*
X204686666Y-54480666D01*
X204453333Y-54747333D01*
X204553333Y-54747333D01*
X204620000Y-54780666D01*
X204653333Y-54814000D01*
X204686666Y-54880666D01*
X204686666Y-55047333D01*
X204653333Y-55114000D01*
X204620000Y-55147333D01*
X204553333Y-55180666D01*
X204353333Y-55180666D01*
X204286666Y-55147333D01*
X204253333Y-55114000D01*
X204920000Y-54480666D02*
X205386666Y-54480666D01*
X205086666Y-55180666D01*
X200888666Y-52730666D02*
X201288666Y-52730666D01*
X201088666Y-53430666D02*
X201088666Y-52730666D01*
X201455333Y-52730666D02*
X201922000Y-53430666D01*
X201922000Y-52730666D02*
X201455333Y-53430666D01*
M02*
