G04 #@! TF.FileFunction,Soldermask,Top*
%FSLAX46Y46*%
G04 Gerber Fmt 4.6, Leading zero omitted, Abs format (unit mm)*
G04 Created by KiCad (PCBNEW 201611211049+7371~55~ubuntu16.10.1-product) date Tue Dec 27 15:06:12 2016*
%MOMM*%
%LPD*%
G01*
G04 APERTURE LIST*
%ADD10C,0.100000*%
%ADD11R,1.700000X1.700000*%
%ADD12C,1.700000*%
%ADD13R,3.900120X3.900120*%
%ADD14R,2.127200X2.127200*%
%ADD15O,2.127200X2.127200*%
%ADD16C,2.398980*%
%ADD17R,2.398980X2.398980*%
%ADD18O,2.000000X2.700000*%
%ADD19R,3.150000X1.400000*%
%ADD20O,2.899360X1.901140*%
%ADD21C,1.901140*%
%ADD22R,1.650000X1.400000*%
%ADD23R,1.400000X1.650000*%
%ADD24R,1.598880X1.598880*%
%ADD25R,1.100000X1.700000*%
%ADD26R,1.700000X1.100000*%
%ADD27C,2.900000*%
%ADD28R,2.900000X2.900000*%
%ADD29R,2.127200X2.432000*%
%ADD30O,2.127200X2.432000*%
%ADD31R,2.432000X2.127200*%
%ADD32O,2.432000X2.127200*%
G04 APERTURE END LIST*
D10*
D11*
X109474000Y-105156000D03*
D12*
X109474000Y-102656000D03*
D11*
X109347000Y-93599000D03*
D12*
X109347000Y-96099000D03*
D13*
X104521000Y-111401860D03*
X104521000Y-117401340D03*
X109220000Y-114401600D03*
D14*
X197993000Y-77470000D03*
D15*
X200533000Y-77470000D03*
X197993000Y-80010000D03*
X200533000Y-80010000D03*
X197993000Y-82550000D03*
X200533000Y-82550000D03*
X197993000Y-85090000D03*
X200533000Y-85090000D03*
X197993000Y-87630000D03*
X200533000Y-87630000D03*
D16*
X95501460Y-93980000D03*
D17*
X95501460Y-104140000D03*
D16*
X96266000Y-118999000D03*
X96266000Y-108839000D03*
D18*
X142113000Y-92075000D03*
X144653000Y-92075000D03*
X147193000Y-92075000D03*
X149733000Y-92075000D03*
X152273000Y-92075000D03*
X154813000Y-92075000D03*
X157353000Y-92075000D03*
X159893000Y-92075000D03*
X162433000Y-92075000D03*
X164973000Y-92075000D03*
X167513000Y-92075000D03*
X170053000Y-92075000D03*
X172593000Y-92075000D03*
X175133000Y-92075000D03*
X177673000Y-92075000D03*
X180213000Y-92075000D03*
X182753000Y-92075000D03*
X185293000Y-92075000D03*
X187833000Y-92075000D03*
X190373000Y-92075000D03*
X190373000Y-76835000D03*
X187833000Y-76835000D03*
X185293000Y-76835000D03*
X182753000Y-76835000D03*
X180213000Y-76835000D03*
X177673000Y-76835000D03*
X175133000Y-76835000D03*
X172593000Y-76835000D03*
X170053000Y-76835000D03*
X167513000Y-76835000D03*
X164973000Y-76835000D03*
X162433000Y-76835000D03*
X159893000Y-76835000D03*
X157353000Y-76835000D03*
X154813000Y-76835000D03*
X152273000Y-76835000D03*
X149733000Y-76835000D03*
X147193000Y-76835000D03*
X144653000Y-76835000D03*
X142113000Y-76835000D03*
D17*
X114919000Y-106489500D03*
X131969000Y-106489500D03*
X114871500Y-66992500D03*
X132016500Y-66992500D03*
D19*
X168067000Y-105188000D03*
X173817000Y-105188000D03*
X173817000Y-109188000D03*
X168067000Y-109188000D03*
D20*
X101981000Y-98806000D03*
X101981000Y-101346000D03*
X101981000Y-96266000D03*
D21*
X169136060Y-97663000D03*
X174017940Y-97663000D03*
D22*
X164973000Y-101457000D03*
X164973000Y-99457000D03*
D23*
X168418000Y-101600000D03*
X170418000Y-101600000D03*
D22*
X164846000Y-95012000D03*
X164846000Y-97012000D03*
D24*
X95597980Y-89281000D03*
X97696020Y-89281000D03*
D14*
X103124000Y-54102000D03*
D15*
X103124000Y-56642000D03*
X105664000Y-54102000D03*
X105664000Y-56642000D03*
X108204000Y-54102000D03*
X108204000Y-56642000D03*
X110744000Y-54102000D03*
X110744000Y-56642000D03*
D25*
X100523000Y-89408000D03*
X102423000Y-89408000D03*
D26*
X178435000Y-98872000D03*
X178435000Y-100772000D03*
X181102000Y-98872000D03*
X181102000Y-100772000D03*
X183896000Y-98872000D03*
X183896000Y-100772000D03*
X186690000Y-98872000D03*
X186690000Y-100772000D03*
X189484000Y-98872000D03*
X189484000Y-100772000D03*
X192278000Y-98872000D03*
X192278000Y-100772000D03*
X195072000Y-98872000D03*
X195072000Y-100772000D03*
X197866000Y-98872000D03*
X197866000Y-100772000D03*
X140208000Y-65339000D03*
X140208000Y-63439000D03*
X143002000Y-65339000D03*
X143002000Y-63439000D03*
X145796000Y-65339000D03*
X145796000Y-63439000D03*
X148590000Y-65339000D03*
X148590000Y-63439000D03*
X151384000Y-65339000D03*
X151384000Y-63439000D03*
X154178000Y-65339000D03*
X154178000Y-63439000D03*
X156972000Y-65339000D03*
X156972000Y-63439000D03*
X159766000Y-65339000D03*
X159766000Y-63439000D03*
X140716000Y-99380000D03*
X140716000Y-101280000D03*
X143510000Y-99380000D03*
X143510000Y-101280000D03*
X146304000Y-99380000D03*
X146304000Y-101280000D03*
X149098000Y-99380000D03*
X149098000Y-101280000D03*
X151892000Y-99380000D03*
X151892000Y-101280000D03*
X154686000Y-99380000D03*
X154686000Y-101280000D03*
X157480000Y-99380000D03*
X157480000Y-101280000D03*
X160274000Y-99380000D03*
X160274000Y-101280000D03*
X169799000Y-66101000D03*
X169799000Y-64201000D03*
X189357000Y-66101000D03*
X189357000Y-64201000D03*
X186563000Y-66101000D03*
X186563000Y-64201000D03*
X183769000Y-66101000D03*
X183769000Y-64201000D03*
X180975000Y-66101000D03*
X180975000Y-64201000D03*
X178181000Y-66101000D03*
X178181000Y-64201000D03*
X175387000Y-66101000D03*
X175387000Y-64201000D03*
X172593000Y-66101000D03*
X172593000Y-64201000D03*
D16*
X140208000Y-69088000D03*
X143002000Y-69088000D03*
X140716000Y-95504000D03*
X189484000Y-69723000D03*
X145796000Y-69088000D03*
X143510000Y-95504000D03*
X186690000Y-69723000D03*
X178308000Y-95504000D03*
X148590000Y-69088000D03*
X146304000Y-95504000D03*
X183896000Y-69723000D03*
X181102000Y-95504000D03*
X151384000Y-69088000D03*
X149098000Y-95504000D03*
X181102000Y-69723000D03*
X183896000Y-95504000D03*
X154178000Y-69088000D03*
X151892000Y-95504000D03*
X178308000Y-69723000D03*
X186690000Y-95504000D03*
X156972000Y-69088000D03*
X154686000Y-95504000D03*
X175514000Y-69723000D03*
X189484000Y-95504000D03*
X159766000Y-69088000D03*
X157480000Y-95504000D03*
X172720000Y-69723000D03*
X192278000Y-95504000D03*
X160274000Y-95504000D03*
X169926000Y-69723000D03*
X195072000Y-95504000D03*
X197866000Y-95504000D03*
X140208000Y-60198000D03*
X140462000Y-104521000D03*
X189484000Y-60833000D03*
X178308000Y-104521000D03*
X143002000Y-60198000D03*
X143256000Y-104521000D03*
X186690000Y-60833000D03*
X181102000Y-104521000D03*
X145796000Y-60198000D03*
X146050000Y-104521000D03*
X183896000Y-60833000D03*
X183896000Y-104521000D03*
X148590000Y-60198000D03*
X148844000Y-104521000D03*
X181102000Y-60833000D03*
X186690000Y-104521000D03*
X151384000Y-60198000D03*
X151638000Y-104521000D03*
X178308000Y-60833000D03*
X189484000Y-104521000D03*
X154178000Y-60198000D03*
X154432000Y-104521000D03*
X175514000Y-60833000D03*
X192278000Y-104521000D03*
X156972000Y-60198000D03*
X157226000Y-104521000D03*
X172720000Y-60833000D03*
X195072000Y-104521000D03*
X159766000Y-60198000D03*
X160020000Y-104521000D03*
X169926000Y-60833000D03*
X197866000Y-104521000D03*
D27*
X196041000Y-44831000D03*
D28*
X201041000Y-44831000D03*
D27*
X191041000Y-44831000D03*
X186041000Y-44831000D03*
X181041000Y-44831000D03*
X176041000Y-44831000D03*
X171041000Y-44831000D03*
X166041000Y-44831000D03*
X200989000Y-120269000D03*
X195989000Y-120269000D03*
X190989000Y-120269000D03*
X185989000Y-120269000D03*
X180989000Y-120269000D03*
X175989000Y-120269000D03*
D28*
X165989000Y-120269000D03*
D27*
X170989000Y-120269000D03*
X103242000Y-44831000D03*
X108242000Y-44831000D03*
X113242000Y-44831000D03*
X118242000Y-44831000D03*
X123242000Y-44831000D03*
X128242000Y-44831000D03*
X133242000Y-44831000D03*
X138242000Y-44831000D03*
X143242000Y-44831000D03*
X148242000Y-44831000D03*
D28*
X158242000Y-44831000D03*
D27*
X153242000Y-44831000D03*
X159841000Y-120396000D03*
X154841000Y-120396000D03*
X149841000Y-120396000D03*
X144841000Y-120396000D03*
X139841000Y-120396000D03*
X134841000Y-120396000D03*
D28*
X124841000Y-120396000D03*
D27*
X129841000Y-120396000D03*
D29*
X159131000Y-107823000D03*
D30*
X156591000Y-107823000D03*
X154051000Y-107823000D03*
X151511000Y-107823000D03*
X148971000Y-107823000D03*
X146431000Y-107823000D03*
X143891000Y-107823000D03*
X141351000Y-107823000D03*
D29*
X131064000Y-56896000D03*
D30*
X133604000Y-56896000D03*
X136144000Y-56896000D03*
X138684000Y-56896000D03*
X141224000Y-56896000D03*
X143764000Y-56896000D03*
X146304000Y-56896000D03*
X148844000Y-56896000D03*
X151384000Y-56896000D03*
X153924000Y-56896000D03*
X156464000Y-56896000D03*
X159004000Y-56896000D03*
X188214000Y-57404000D03*
X185674000Y-57404000D03*
X183134000Y-57404000D03*
X180594000Y-57404000D03*
X178054000Y-57404000D03*
X175514000Y-57404000D03*
X172974000Y-57404000D03*
D29*
X170434000Y-57404000D03*
X196088000Y-107696000D03*
D30*
X193548000Y-107696000D03*
X191008000Y-107696000D03*
X188468000Y-107696000D03*
X185928000Y-107696000D03*
X183388000Y-107696000D03*
X180848000Y-107696000D03*
X178308000Y-107696000D03*
D29*
X130937000Y-52832000D03*
D30*
X133477000Y-52832000D03*
X136017000Y-52832000D03*
X138557000Y-52832000D03*
X141097000Y-52832000D03*
X143637000Y-52832000D03*
X146177000Y-52832000D03*
X148717000Y-52832000D03*
X151257000Y-52832000D03*
X153797000Y-52832000D03*
X156337000Y-52832000D03*
X158877000Y-52832000D03*
D29*
X159131000Y-112268000D03*
D30*
X156591000Y-112268000D03*
X154051000Y-112268000D03*
X151511000Y-112268000D03*
X148971000Y-112268000D03*
X146431000Y-112268000D03*
X143891000Y-112268000D03*
X141351000Y-112268000D03*
X188214000Y-53594000D03*
X185674000Y-53594000D03*
X183134000Y-53594000D03*
X180594000Y-53594000D03*
X178054000Y-53594000D03*
X175514000Y-53594000D03*
X172974000Y-53594000D03*
D29*
X170434000Y-53594000D03*
X196088000Y-112268000D03*
D30*
X193548000Y-112268000D03*
X191008000Y-112268000D03*
X188468000Y-112268000D03*
X185928000Y-112268000D03*
X183388000Y-112268000D03*
X180848000Y-112268000D03*
X178308000Y-112268000D03*
D29*
X141224000Y-72898000D03*
D30*
X143764000Y-72898000D03*
X146304000Y-72898000D03*
X148844000Y-72898000D03*
X151384000Y-72898000D03*
X153924000Y-72898000D03*
X156464000Y-72898000D03*
X159004000Y-72898000D03*
D31*
X196215000Y-66294000D03*
D32*
X196215000Y-63754000D03*
X196215000Y-61214000D03*
X196215000Y-58674000D03*
D24*
X198153020Y-54864000D03*
X196054980Y-54864000D03*
X200372980Y-54864000D03*
X202471020Y-54864000D03*
M02*
