G04 #@! TF.GenerationSoftware,KiCad,Pcbnew,5.0.1*
G04 #@! TF.CreationDate,2019-01-22T15:03:59+05:30*
G04 #@! TF.ProjectId,heater,6865617465722E6B696361645F706362,rev?*
G04 #@! TF.SameCoordinates,Original*
G04 #@! TF.FileFunction,Copper,L2,Bot,Signal*
G04 #@! TF.FilePolarity,Positive*
%FSLAX46Y46*%
G04 Gerber Fmt 4.6, Leading zero omitted, Abs format (unit mm)*
G04 Created by KiCad (PCBNEW 5.0.1) date Tue 22 Jan 2019 03:03:59 PM IST*
%MOMM*%
%LPD*%
G01*
G04 APERTURE LIST*
G04 #@! TA.AperFunction,ComponentPad*
%ADD10O,2.400000X2.400000*%
G04 #@! TD*
G04 #@! TA.AperFunction,ComponentPad*
%ADD11C,2.400000*%
G04 #@! TD*
G04 #@! TA.AperFunction,ComponentPad*
%ADD12C,1.750000*%
G04 #@! TD*
G04 #@! TA.AperFunction,ComponentPad*
%ADD13R,1.750000X1.750000*%
G04 #@! TD*
G04 #@! TA.AperFunction,ComponentPad*
%ADD14R,1.520000X1.520000*%
G04 #@! TD*
G04 #@! TA.AperFunction,ComponentPad*
%ADD15C,1.520000*%
G04 #@! TD*
G04 #@! TA.AperFunction,Conductor*
%ADD16C,1.000000*%
G04 #@! TD*
G04 #@! TA.AperFunction,Conductor*
%ADD17C,0.600000*%
G04 #@! TD*
G04 APERTURE END LIST*
D10*
G04 #@! TO.P,R2,2*
G04 #@! TO.N,+12V*
X130760000Y-95900000D03*
D11*
G04 #@! TO.P,R2,1*
G04 #@! TO.N,Net-(Q1-Pad1)*
X171400000Y-95900000D03*
G04 #@! TD*
D12*
G04 #@! TO.P,J1,4*
G04 #@! TO.N,Net-(J1-Pad4)*
X149000000Y-86800000D03*
G04 #@! TO.P,J1,3*
G04 #@! TO.N,+12V*
X146500000Y-86800000D03*
G04 #@! TO.P,J1,2*
G04 #@! TO.N,+5V*
X144000000Y-86800000D03*
D13*
G04 #@! TO.P,J1,1*
G04 #@! TO.N,GND*
X141500000Y-86800000D03*
G04 #@! TD*
D12*
G04 #@! TO.P,J2,3*
G04 #@! TO.N,/toMcu*
X161400000Y-86800000D03*
G04 #@! TO.P,J2,2*
G04 #@! TO.N,/fromMcuR*
X158900000Y-86800000D03*
D13*
G04 #@! TO.P,J2,1*
G04 #@! TO.N,/fromMcuF*
X156400000Y-86800000D03*
G04 #@! TD*
D12*
G04 #@! TO.P,J4,2*
G04 #@! TO.N,Net-(J4-Pad2)*
X171300000Y-86800000D03*
D13*
G04 #@! TO.P,J4,1*
G04 #@! TO.N,+12V*
X168800000Y-86800000D03*
G04 #@! TD*
D14*
G04 #@! TO.P,Q2,1*
G04 #@! TO.N,Net-(J4-Pad2)*
X165000001Y-95600000D03*
D15*
G04 #@! TO.P,Q2,3*
G04 #@! TO.N,GND*
X159920001Y-95600000D03*
G04 #@! TO.P,Q2,2*
G04 #@! TO.N,Net-(Q2-Pad2)*
X162460001Y-95600000D03*
G04 #@! TD*
D13*
G04 #@! TO.P,J3,1*
G04 #@! TO.N,GND*
X131500000Y-86800000D03*
D12*
G04 #@! TO.P,J3,2*
G04 #@! TO.N,/toMcu*
X134000000Y-86800000D03*
G04 #@! TD*
D14*
G04 #@! TO.P,Q1,1*
G04 #@! TO.N,Net-(Q1-Pad1)*
X147800000Y-95500000D03*
D15*
G04 #@! TO.P,Q1,3*
G04 #@! TO.N,GND*
X142720000Y-95500000D03*
G04 #@! TO.P,Q1,2*
G04 #@! TO.N,Net-(Q1-Pad2)*
X145260000Y-95500000D03*
G04 #@! TD*
D16*
G04 #@! TO.N,+12V*
X168800000Y-88675000D02*
X168800000Y-86800000D01*
X167275000Y-90200000D02*
X168800000Y-88675000D01*
X146500000Y-88037436D02*
X146500000Y-86800000D01*
X146500000Y-88500000D02*
X148200000Y-90200000D01*
X146500000Y-88037436D02*
X146500000Y-88500000D01*
X148200000Y-90200000D02*
X167275000Y-90200000D01*
X136800000Y-90000000D02*
X144537436Y-90000000D01*
X130760000Y-95900000D02*
X130760000Y-94202944D01*
X130760000Y-94202944D02*
X134962944Y-90000000D01*
X134962944Y-90000000D02*
X136800000Y-90000000D01*
X144537436Y-90000000D02*
X146500000Y-88037436D01*
D17*
G04 #@! TO.N,Net-(Q1-Pad1)*
X147800000Y-97700000D02*
X147800000Y-95500000D01*
X150300000Y-100200000D02*
X147800000Y-97700000D01*
X167100000Y-100200000D02*
X165500000Y-100200000D01*
X171400000Y-95900000D02*
X167100000Y-100200000D01*
X165500000Y-100200000D02*
X150300000Y-100200000D01*
G04 #@! TO.N,Net-(J4-Pad2)*
X171300000Y-88037436D02*
X171300000Y-86800000D01*
X171300000Y-90660001D02*
X171300000Y-88037436D01*
X166360001Y-95600000D02*
X171300000Y-90660001D01*
X165000001Y-95600000D02*
X166360001Y-95600000D01*
G04 #@! TD*
M02*
